<?xml version="1.0" encoding="utf-8" standalone="no"?>
<!DOCTYPE svg PUBLIC "-//W3C//DTD SVG 1.1//EN"
  "http://www.w3.org/Graphics/SVG/1.1/DTD/svg11.dtd">
<!-- Created with matplotlib (http://matplotlib.org/) -->
<svg height="641.70375pt" version="1.1" viewBox="0 0 856.731562 641.70375" width="856.731562pt" xmlns="http://www.w3.org/2000/svg" xmlns:xlink="http://www.w3.org/1999/xlink">
 <defs>
  <style type="text/css">
*{stroke-linecap:butt;stroke-linejoin:round;}
  </style>
 </defs>
 <g id="figure_1">
  <g id="patch_1">
   <path d="M 0 641.70375 
L 856.731562 641.70375 
L 856.731562 0 
L 0 0 
z
" style="fill:#ffffff;"/>
  </g>
  <g id="axes_1">
   <g id="patch_2">
    <path d="M 46.0125 569.388125 
L 844.6925 569.388125 
L 844.6925 22.318125 
L 46.0125 22.318125 
z
" style="fill:#ffffff;"/>
   </g>
   <g id="PolyCollection_1">
    <path clip-path="url(#p6f812dcfe9)" d="M 46.0125 516.966405 
L 46.0125 569.388125 
L 55.520595 569.388125 
L 65.02869 569.388125 
L 74.536786 569.388125 
L 84.044881 569.388125 
L 93.552976 569.388125 
L 103.061071 569.388125 
L 112.569167 569.388125 
L 122.077262 569.388125 
L 131.585357 569.388125 
L 141.093452 569.388125 
L 150.601548 569.388125 
L 160.109643 569.388125 
L 169.617738 569.388125 
L 179.125833 569.388125 
L 188.633929 569.388125 
L 198.142024 569.388125 
L 207.650119 569.388125 
L 217.158214 569.388125 
L 226.66631 569.388125 
L 236.174405 569.388125 
L 245.6825 569.388125 
L 255.190595 569.388125 
L 264.69869 569.388125 
L 274.206786 569.388125 
L 283.714881 569.388125 
L 293.222976 569.388125 
L 302.731071 569.388125 
L 312.239167 569.388125 
L 321.747262 569.388125 
L 331.255357 569.388125 
L 340.763452 569.388125 
L 350.271548 569.388125 
L 359.779643 569.388125 
L 369.287738 569.388125 
L 378.795833 569.388125 
L 388.303929 569.388125 
L 397.812024 569.388125 
L 407.320119 569.388125 
L 416.828214 569.388125 
L 426.33631 569.388125 
L 435.844405 569.388125 
L 445.3525 569.388125 
L 454.860595 569.388125 
L 464.36869 569.388125 
L 473.876786 569.388125 
L 483.384881 569.388125 
L 492.892976 569.388125 
L 502.401071 569.388125 
L 511.909167 569.388125 
L 521.417262 569.388125 
L 530.925357 569.388125 
L 540.433452 569.388125 
L 549.941548 569.388125 
L 559.449643 569.388125 
L 568.957738 569.388125 
L 578.465833 569.388125 
L 587.973929 569.388125 
L 597.482024 569.388125 
L 606.990119 569.388125 
L 616.498214 569.388125 
L 626.00631 569.388125 
L 635.514405 569.388125 
L 645.0225 569.388125 
L 654.530595 569.388125 
L 664.03869 569.388125 
L 673.546786 569.388125 
L 683.054881 569.388125 
L 692.562976 569.388125 
L 702.071071 569.388125 
L 711.579167 569.388125 
L 721.087262 569.388125 
L 730.595357 569.388125 
L 740.103452 569.388125 
L 749.611548 569.388125 
L 759.119643 569.388125 
L 768.627738 569.388125 
L 778.135833 569.388125 
L 787.643929 569.388125 
L 797.152024 569.388125 
L 806.660119 569.388125 
L 816.168214 569.388125 
L 825.67631 569.388125 
L 835.184405 569.388125 
L 844.6925 569.388125 
L 844.6925 517.109165 
L 844.6925 517.109165 
L 835.184405 522.28075 
L 825.67631 536.427787 
L 816.168214 534.813203 
L 806.660119 538.332823 
L 797.152024 526.003335 
L 787.643929 529.119298 
L 778.135833 531.835667 
L 768.627738 536.7161 
L 759.119643 540.144009 
L 749.611548 540.130142 
L 740.103452 541.471786 
L 730.595357 539.066709 
L 721.087262 521.386627 
L 711.579167 529.542945 
L 702.071071 526.147825 
L 692.562976 539.303873 
L 683.054881 530.473618 
L 673.546786 526.384066 
L 664.03869 517.192017 
L 654.530595 456.310008 
L 645.0225 503.658406 
L 635.514405 516.871927 
L 626.00631 468.504874 
L 616.498214 531.602718 
L 606.990119 515.277322 
L 597.482024 516.153263 
L 587.973929 491.916378 
L 578.465833 526.448945 
L 568.957738 519.537244 
L 559.449643 521.801358 
L 549.941548 516.840667 
L 540.433452 501.756771 
L 530.925357 491.201895 
L 521.417262 472.121507 
L 511.909167 494.485924 
L 502.401071 488.233159 
L 492.892976 505.813233 
L 483.384881 497.000504 
L 473.876786 499.980487 
L 464.36869 470.688065 
L 454.860595 489.721018 
L 445.3525 481.659599 
L 435.844405 506.033003 
L 426.33631 478.015414 
L 416.828214 475.880103 
L 407.320119 512.973056 
L 397.812024 501.332605 
L 388.303929 479.100853 
L 378.795833 466.460155 
L 369.287738 488.33027 
L 359.779643 491.767533 
L 350.271548 487.137551 
L 340.763452 488.983253 
L 331.255357 468.562606 
L 321.747262 470.605849 
L 312.239167 468.192805 
L 302.731071 488.162614 
L 293.222976 490.184089 
L 283.714881 496.692245 
L 274.206786 506.384622 
L 264.69869 495.494683 
L 255.190595 476.00761 
L 245.6825 493.447694 
L 236.174405 506.02672 
L 226.66631 505.568787 
L 217.158214 515.002367 
L 207.650119 509.641109 
L 198.142024 501.867929 
L 188.633929 507.085288 
L 179.125833 510.765863 
L 169.617738 513.096714 
L 160.109643 515.74289 
L 150.601548 521.254543 
L 141.093452 522.163209 
L 131.585357 515.710514 
L 122.077262 512.013124 
L 112.569167 514.151647 
L 103.061071 514.343504 
L 93.552976 507.69728 
L 84.044881 511.23694 
L 74.536786 520.146545 
L 65.02869 514.167954 
L 55.520595 509.489766 
L 46.0125 516.966405 
z
" style="fill:#1f77b4;"/>
   </g>
   <g id="PolyCollection_2">
    <path clip-path="url(#p6f812dcfe9)" d="M 46.0125 272.955528 
L 46.0125 516.966405 
L 55.520595 509.489766 
L 65.02869 514.167954 
L 74.536786 520.146545 
L 84.044881 511.23694 
L 93.552976 507.69728 
L 103.061071 514.343504 
L 112.569167 514.151647 
L 122.077262 512.013124 
L 131.585357 515.710514 
L 141.093452 522.163209 
L 150.601548 521.254543 
L 160.109643 515.74289 
L 169.617738 513.096714 
L 179.125833 510.765863 
L 188.633929 507.085288 
L 198.142024 501.867929 
L 207.650119 509.641109 
L 217.158214 515.002367 
L 226.66631 505.568787 
L 236.174405 506.02672 
L 245.6825 493.447694 
L 255.190595 476.00761 
L 264.69869 495.494683 
L 274.206786 506.384622 
L 283.714881 496.692245 
L 293.222976 490.184089 
L 302.731071 488.162614 
L 312.239167 468.192805 
L 321.747262 470.605849 
L 331.255357 468.562606 
L 340.763452 488.983253 
L 350.271548 487.137551 
L 359.779643 491.767533 
L 369.287738 488.33027 
L 378.795833 466.460155 
L 388.303929 479.100853 
L 397.812024 501.332605 
L 407.320119 512.973056 
L 416.828214 475.880103 
L 426.33631 478.015414 
L 435.844405 506.033003 
L 445.3525 481.659599 
L 454.860595 489.721018 
L 464.36869 470.688065 
L 473.876786 499.980487 
L 483.384881 497.000504 
L 492.892976 505.813233 
L 502.401071 488.233159 
L 511.909167 494.485924 
L 521.417262 472.121507 
L 530.925357 491.201895 
L 540.433452 501.756771 
L 549.941548 516.840667 
L 559.449643 521.801358 
L 568.957738 519.537244 
L 578.465833 526.448945 
L 587.973929 491.916378 
L 597.482024 516.153263 
L 606.990119 515.277322 
L 616.498214 531.602718 
L 626.00631 468.504874 
L 635.514405 516.871927 
L 645.0225 503.658406 
L 654.530595 456.310008 
L 664.03869 517.192017 
L 673.546786 526.384066 
L 683.054881 530.473618 
L 692.562976 539.303873 
L 702.071071 526.147825 
L 711.579167 529.542945 
L 721.087262 521.386627 
L 730.595357 539.066709 
L 740.103452 541.471786 
L 749.611548 540.130142 
L 759.119643 540.144009 
L 768.627738 536.7161 
L 778.135833 531.835667 
L 787.643929 529.119298 
L 797.152024 526.003335 
L 806.660119 538.332823 
L 816.168214 534.813203 
L 825.67631 536.427787 
L 835.184405 522.28075 
L 844.6925 517.109165 
L 844.6925 480.139508 
L 844.6925 480.139508 
L 835.184405 511.336741 
L 825.67631 518.201524 
L 816.168214 514.317803 
L 806.660119 521.19207 
L 797.152024 493.882471 
L 787.643929 492.938129 
L 778.135833 513.357872 
L 768.627738 515.714595 
L 759.119643 495.236175 
L 749.611548 520.853909 
L 740.103452 514.305236 
L 730.595357 507.771958 
L 721.087262 486.344617 
L 711.579167 501.329605 
L 702.071071 500.370455 
L 692.562976 522.285193 
L 683.054881 504.132634 
L 673.546786 494.560013 
L 664.03869 494.747442 
L 654.530595 414.603603 
L 645.0225 464.965428 
L 635.514405 485.999068 
L 626.00631 419.368491 
L 616.498214 451.889438 
L 606.990119 470.553199 
L 597.482024 462.640502 
L 587.973929 425.219467 
L 578.465833 481.469013 
L 568.957738 476.946564 
L 559.449643 480.369686 
L 549.941548 466.766475 
L 540.433452 441.240923 
L 530.925357 423.279027 
L 521.417262 406.490417 
L 511.909167 427.380791 
L 502.401071 416.792532 
L 492.892976 438.552331 
L 483.384881 434.065831 
L 473.876786 427.801514 
L 464.36869 373.222242 
L 454.860595 397.924253 
L 445.3525 386.802071 
L 435.844405 434.523917 
L 426.33631 412.002348 
L 416.828214 416.242654 
L 407.320119 437.816223 
L 397.812024 404.859016 
L 388.303929 373.294082 
L 378.795833 338.083358 
L 369.287738 388.631418 
L 359.779643 400.314803 
L 350.271548 376.346179 
L 340.763452 396.394024 
L 331.255357 331.864047 
L 321.747262 322.432791 
L 312.239167 320.091695 
L 302.731071 347.919961 
L 293.222976 351.993038 
L 283.714881 373.259793 
L 274.206786 361.627871 
L 264.69869 276.808616 
L 255.190595 227.056452 
L 245.6825 283.584868 
L 236.174405 316.614889 
L 226.66631 332.795896 
L 217.158214 358.888361 
L 207.650119 345.936067 
L 198.142024 303.064469 
L 188.633929 315.171577 
L 179.125833 285.002712 
L 169.617738 301.901827 
L 160.109643 310.898258 
L 150.601548 339.162333 
L 141.093452 325.997801 
L 131.585357 289.964423 
L 122.077262 269.24032 
L 112.569167 256.355464 
L 103.061071 277.180645 
L 93.552976 290.375554 
L 84.044881 299.862071 
L 74.536786 278.920017 
L 65.02869 329.781362 
L 55.520595 265.011679 
L 46.0125 272.955528 
z
" style="fill:#ff7f0e;"/>
   </g>
   <g id="PolyCollection_3">
    <path clip-path="url(#p6f812dcfe9)" d="M 46.0125 185.381036 
L 46.0125 272.955528 
L 55.520595 265.011679 
L 65.02869 329.781362 
L 74.536786 278.920017 
L 84.044881 299.862071 
L 93.552976 290.375554 
L 103.061071 277.180645 
L 112.569167 256.355464 
L 122.077262 269.24032 
L 131.585357 289.964423 
L 141.093452 325.997801 
L 150.601548 339.162333 
L 160.109643 310.898258 
L 169.617738 301.901827 
L 179.125833 285.002712 
L 188.633929 315.171577 
L 198.142024 303.064469 
L 207.650119 345.936067 
L 217.158214 358.888361 
L 226.66631 332.795896 
L 236.174405 316.614889 
L 245.6825 283.584868 
L 255.190595 227.056452 
L 264.69869 276.808616 
L 274.206786 361.627871 
L 283.714881 373.259793 
L 293.222976 351.993038 
L 302.731071 347.919961 
L 312.239167 320.091695 
L 321.747262 322.432791 
L 331.255357 331.864047 
L 340.763452 396.394024 
L 350.271548 376.346179 
L 359.779643 400.314803 
L 369.287738 388.631418 
L 378.795833 338.083358 
L 388.303929 373.294082 
L 397.812024 404.859016 
L 407.320119 437.816223 
L 416.828214 416.242654 
L 426.33631 412.002348 
L 435.844405 434.523917 
L 445.3525 386.802071 
L 454.860595 397.924253 
L 464.36869 373.222242 
L 473.876786 427.801514 
L 483.384881 434.065831 
L 492.892976 438.552331 
L 502.401071 416.792532 
L 511.909167 427.380791 
L 521.417262 406.490417 
L 530.925357 423.279027 
L 540.433452 441.240923 
L 549.941548 466.766475 
L 559.449643 480.369686 
L 568.957738 476.946564 
L 578.465833 481.469013 
L 587.973929 425.219467 
L 597.482024 462.640502 
L 606.990119 470.553199 
L 616.498214 451.889438 
L 626.00631 419.368491 
L 635.514405 485.999068 
L 645.0225 464.965428 
L 654.530595 414.603603 
L 664.03869 494.747442 
L 673.546786 494.560013 
L 683.054881 504.132634 
L 692.562976 522.285193 
L 702.071071 500.370455 
L 711.579167 501.329605 
L 721.087262 486.344617 
L 730.595357 507.771958 
L 740.103452 514.305236 
L 749.611548 520.853909 
L 759.119643 495.236175 
L 768.627738 515.714595 
L 778.135833 513.357872 
L 787.643929 492.938129 
L 797.152024 493.882471 
L 806.660119 521.19207 
L 816.168214 514.317803 
L 825.67631 518.201524 
L 835.184405 511.336741 
L 844.6925 480.139508 
L 844.6925 175.928997 
L 844.6925 175.928997 
L 835.184405 237.712377 
L 825.67631 297.175956 
L 816.168214 325.773966 
L 806.660119 353.201841 
L 797.152024 272.072966 
L 787.643929 272.497599 
L 778.135833 346.069005 
L 768.627738 367.059768 
L 759.119643 313.8012 
L 749.611548 389.519765 
L 740.103452 371.640073 
L 730.595357 348.015331 
L 721.087262 310.563776 
L 711.579167 373.127332 
L 702.071071 376.179452 
L 692.562976 425.521697 
L 683.054881 377.971866 
L 673.546786 387.98572 
L 664.03869 392.756422 
L 654.530595 286.967949 
L 645.0225 328.105621 
L 635.514405 396.706901 
L 626.00631 291.097748 
L 616.498214 364.314564 
L 606.990119 371.99609 
L 597.482024 367.262897 
L 587.973929 294.043839 
L 578.465833 373.923213 
L 568.957738 397.46758 
L 559.449643 395.958844 
L 549.941548 378.707689 
L 540.433452 343.611137 
L 530.925357 306.549546 
L 521.417262 321.228362 
L 511.909167 337.341452 
L 502.401071 303.883662 
L 492.892976 329.406894 
L 483.384881 362.558754 
L 473.876786 354.53895 
L 464.36869 271.6 
L 454.860595 301.864278 
L 445.3525 287.750376 
L 435.844405 349.402705 
L 426.33631 325.563092 
L 416.828214 339.853921 
L 407.320119 359.848855 
L 397.812024 311.301857 
L 388.303929 281.673313 
L 378.795833 247.878488 
L 369.287738 303.433526 
L 359.779643 313.716584 
L 350.271548 299.993863 
L 340.763452 317.96316 
L 331.255357 234.629113 
L 321.747262 193.053994 
L 312.239167 232.341627 
L 302.731071 268.357286 
L 293.222976 271.810885 
L 283.714881 312.490478 
L 274.206786 295.891801 
L 264.69869 192.735007 
L 255.190595 141.499254 
L 245.6825 190.023094 
L 236.174405 234.796829 
L 226.66631 257.143318 
L 217.158214 287.211159 
L 207.650119 274.616623 
L 198.142024 237.399242 
L 188.633929 225.90918 
L 179.125833 199.068809 
L 169.617738 230.986479 
L 160.109643 243.866319 
L 150.601548 265.058549 
L 141.093452 259.456261 
L 131.585357 216.004177 
L 122.077262 177.750916 
L 112.569167 157.945808 
L 103.061071 192.363205 
L 93.552976 193.108556 
L 84.044881 213.386399 
L 74.536786 209.280609 
L 65.02869 251.128492 
L 55.520595 183.927475 
L 46.0125 185.381036 
z
" style="fill:#2ca02c;"/>
   </g>
   <g id="PolyCollection_4">
    <path clip-path="url(#p6f812dcfe9)" d="M 46.0125 147.093557 
L 46.0125 185.381036 
L 55.520595 183.927475 
L 65.02869 251.128492 
L 74.536786 209.280609 
L 84.044881 213.386399 
L 93.552976 193.108556 
L 103.061071 192.363205 
L 112.569167 157.945808 
L 122.077262 177.750916 
L 131.585357 216.004177 
L 141.093452 259.456261 
L 150.601548 265.058549 
L 160.109643 243.866319 
L 169.617738 230.986479 
L 179.125833 199.068809 
L 188.633929 225.90918 
L 198.142024 237.399242 
L 207.650119 274.616623 
L 217.158214 287.211159 
L 226.66631 257.143318 
L 236.174405 234.796829 
L 245.6825 190.023094 
L 255.190595 141.499254 
L 264.69869 192.735007 
L 274.206786 295.891801 
L 283.714881 312.490478 
L 293.222976 271.810885 
L 302.731071 268.357286 
L 312.239167 232.341627 
L 321.747262 193.053994 
L 331.255357 234.629113 
L 340.763452 317.96316 
L 350.271548 299.993863 
L 359.779643 313.716584 
L 369.287738 303.433526 
L 378.795833 247.878488 
L 388.303929 281.673313 
L 397.812024 311.301857 
L 407.320119 359.848855 
L 416.828214 339.853921 
L 426.33631 325.563092 
L 435.844405 349.402705 
L 445.3525 287.750376 
L 454.860595 301.864278 
L 464.36869 271.6 
L 473.876786 354.53895 
L 483.384881 362.558754 
L 492.892976 329.406894 
L 502.401071 303.883662 
L 511.909167 337.341452 
L 521.417262 321.228362 
L 530.925357 306.549546 
L 540.433452 343.611137 
L 549.941548 378.707689 
L 559.449643 395.958844 
L 568.957738 397.46758 
L 578.465833 373.923213 
L 587.973929 294.043839 
L 597.482024 367.262897 
L 606.990119 371.99609 
L 616.498214 364.314564 
L 626.00631 291.097748 
L 635.514405 396.706901 
L 645.0225 328.105621 
L 654.530595 286.967949 
L 664.03869 392.756422 
L 673.546786 387.98572 
L 683.054881 377.971866 
L 692.562976 425.521697 
L 702.071071 376.179452 
L 711.579167 373.127332 
L 721.087262 310.563776 
L 730.595357 348.015331 
L 740.103452 371.640073 
L 749.611548 389.519765 
L 759.119643 313.8012 
L 768.627738 367.059768 
L 778.135833 346.069005 
L 787.643929 272.497599 
L 797.152024 272.072966 
L 806.660119 353.201841 
L 816.168214 325.773966 
L 825.67631 297.175956 
L 835.184405 237.712377 
L 844.6925 175.928997 
L 844.6925 48.369077 
L 844.6925 48.369077 
L 835.184405 89.453965 
L 825.67631 171.8329 
L 816.168214 220.449515 
L 806.660119 243.642235 
L 797.152024 127.808244 
L 787.643929 147.121657 
L 778.135833 247.385293 
L 768.627738 276.124264 
L 759.119643 239.700332 
L 749.611548 332.639116 
L 740.103452 284.280144 
L 730.595357 262.67718 
L 721.087262 231.377218 
L 711.579167 299.636527 
L 702.071071 319.31585 
L 692.562976 371.869408 
L 683.054881 319.418906 
L 673.546786 314.918673 
L 664.03869 316.826634 
L 654.530595 205.484921 
L 645.0225 274.878061 
L 635.514405 334.076935 
L 626.00631 235.531645 
L 616.498214 323.540944 
L 606.990119 301.628245 
L 597.482024 293.859004 
L 587.973929 223.033422 
L 578.465833 330.904983 
L 568.957738 352.049854 
L 559.449643 361.211108 
L 549.941548 342.239536 
L 540.433452 297.479511 
L 530.925357 248.491822 
L 521.417262 281.1708 
L 511.909167 292.423743 
L 502.401071 263.222468 
L 492.892976 288.474455 
L 483.384881 328.499685 
L 473.876786 318.118063 
L 464.36869 217.887042 
L 454.860595 256.244426 
L 445.3525 243.23565 
L 435.844405 312.631067 
L 426.33631 286.141474 
L 416.828214 299.467787 
L 407.320119 321.672954 
L 397.812024 262.22024 
L 388.303929 239.836026 
L 378.795833 200.559041 
L 369.287738 254.143971 
L 359.779643 275.201433 
L 350.271548 265.968276 
L 340.763452 285.283872 
L 331.255357 186.840743 
L 321.747262 154.921189 
L 312.239167 180.345662 
L 302.731071 227.774631 
L 293.222976 235.048146 
L 283.714881 278.958293 
L 274.206786 266.005445 
L 264.69869 148.069756 
L 255.190595 90.310214 
L 245.6825 137.116976 
L 236.174405 195.556459 
L 226.66631 209.578856 
L 217.158214 247.465264 
L 207.650119 258.96572 
L 198.142024 206.584066 
L 188.633929 188.410694 
L 179.125833 153.527691 
L 169.617738 204.18795 
L 160.109643 219.136413 
L 150.601548 244.80985 
L 141.093452 230.985959 
L 131.585357 182.621195 
L 122.077262 145.807775 
L 112.569167 116.799348 
L 103.061071 159.60887 
L 93.552976 159.113497 
L 84.044881 187.165301 
L 74.536786 174.716132 
L 65.02869 209.388163 
L 55.520595 140.260718 
L 46.0125 147.093557 
z
" style="fill:#d62728;"/>
   </g>
   <g id="matplotlib.axis_1">
    <g id="xtick_1">
     <g id="line2d_1">
      <defs>
       <path d="M 0 0 
L 0 3.5 
" id="me4de23544e" style="stroke:#000000;stroke-width:0.8;"/>
      </defs>
      <g>
       <use style="stroke:#000000;stroke-width:0.8;" x="46.0125" xlink:href="#me4de23544e" y="569.388125"/>
      </g>
     </g>
     <g id="text_1">
      <!-- 2020-04-03 -->
      <defs>
       <path d="M 19.1875 8.296875 
L 53.609375 8.296875 
L 53.609375 0 
L 7.328125 0 
L 7.328125 8.296875 
Q 12.9375 14.109375 22.625 23.890625 
Q 32.328125 33.6875 34.8125 36.53125 
Q 39.546875 41.84375 41.421875 45.53125 
Q 43.3125 49.21875 43.3125 52.78125 
Q 43.3125 58.59375 39.234375 62.25 
Q 35.15625 65.921875 28.609375 65.921875 
Q 23.96875 65.921875 18.8125 64.3125 
Q 13.671875 62.703125 7.8125 59.421875 
L 7.8125 69.390625 
Q 13.765625 71.78125 18.9375 73 
Q 24.125 74.21875 28.421875 74.21875 
Q 39.75 74.21875 46.484375 68.546875 
Q 53.21875 62.890625 53.21875 53.421875 
Q 53.21875 48.921875 51.53125 44.890625 
Q 49.859375 40.875 45.40625 35.40625 
Q 44.1875 33.984375 37.640625 27.21875 
Q 31.109375 20.453125 19.1875 8.296875 
z
" id="DejaVuSans-32"/>
       <path d="M 31.78125 66.40625 
Q 24.171875 66.40625 20.328125 58.90625 
Q 16.5 51.421875 16.5 36.375 
Q 16.5 21.390625 20.328125 13.890625 
Q 24.171875 6.390625 31.78125 6.390625 
Q 39.453125 6.390625 43.28125 13.890625 
Q 47.125 21.390625 47.125 36.375 
Q 47.125 51.421875 43.28125 58.90625 
Q 39.453125 66.40625 31.78125 66.40625 
z
M 31.78125 74.21875 
Q 44.046875 74.21875 50.515625 64.515625 
Q 56.984375 54.828125 56.984375 36.375 
Q 56.984375 17.96875 50.515625 8.265625 
Q 44.046875 -1.421875 31.78125 -1.421875 
Q 19.53125 -1.421875 13.0625 8.265625 
Q 6.59375 17.96875 6.59375 36.375 
Q 6.59375 54.828125 13.0625 64.515625 
Q 19.53125 74.21875 31.78125 74.21875 
z
" id="DejaVuSans-30"/>
       <path d="M 4.890625 31.390625 
L 31.203125 31.390625 
L 31.203125 23.390625 
L 4.890625 23.390625 
z
" id="DejaVuSans-2d"/>
       <path d="M 37.796875 64.3125 
L 12.890625 25.390625 
L 37.796875 25.390625 
z
M 35.203125 72.90625 
L 47.609375 72.90625 
L 47.609375 25.390625 
L 58.015625 25.390625 
L 58.015625 17.1875 
L 47.609375 17.1875 
L 47.609375 0 
L 37.796875 0 
L 37.796875 17.1875 
L 4.890625 17.1875 
L 4.890625 26.703125 
z
" id="DejaVuSans-34"/>
       <path d="M 40.578125 39.3125 
Q 47.65625 37.796875 51.625 33 
Q 55.609375 28.21875 55.609375 21.1875 
Q 55.609375 10.40625 48.1875 4.484375 
Q 40.765625 -1.421875 27.09375 -1.421875 
Q 22.515625 -1.421875 17.65625 -0.515625 
Q 12.796875 0.390625 7.625 2.203125 
L 7.625 11.71875 
Q 11.71875 9.328125 16.59375 8.109375 
Q 21.484375 6.890625 26.8125 6.890625 
Q 36.078125 6.890625 40.9375 10.546875 
Q 45.796875 14.203125 45.796875 21.1875 
Q 45.796875 27.640625 41.28125 31.265625 
Q 36.765625 34.90625 28.71875 34.90625 
L 20.21875 34.90625 
L 20.21875 43.015625 
L 29.109375 43.015625 
Q 36.375 43.015625 40.234375 45.921875 
Q 44.09375 48.828125 44.09375 54.296875 
Q 44.09375 59.90625 40.109375 62.90625 
Q 36.140625 65.921875 28.71875 65.921875 
Q 24.65625 65.921875 20.015625 65.03125 
Q 15.375 64.15625 9.8125 62.3125 
L 9.8125 71.09375 
Q 15.4375 72.65625 20.34375 73.4375 
Q 25.25 74.21875 29.59375 74.21875 
Q 40.828125 74.21875 47.359375 69.109375 
Q 53.90625 64.015625 53.90625 55.328125 
Q 53.90625 49.265625 50.4375 45.09375 
Q 46.96875 40.921875 40.578125 39.3125 
z
" id="DejaVuSans-33"/>
      </defs>
      <g transform="translate(48.771875 634.50375)rotate(-90)scale(0.1 -0.1)">
       <use xlink:href="#DejaVuSans-32"/>
       <use x="63.623047" xlink:href="#DejaVuSans-30"/>
       <use x="127.246094" xlink:href="#DejaVuSans-32"/>
       <use x="190.869141" xlink:href="#DejaVuSans-30"/>
       <use x="254.492188" xlink:href="#DejaVuSans-2d"/>
       <use x="290.576172" xlink:href="#DejaVuSans-30"/>
       <use x="354.199219" xlink:href="#DejaVuSans-34"/>
       <use x="417.822266" xlink:href="#DejaVuSans-2d"/>
       <use x="453.90625" xlink:href="#DejaVuSans-30"/>
       <use x="517.529297" xlink:href="#DejaVuSans-33"/>
      </g>
     </g>
    </g>
    <g id="xtick_2">
     <g id="line2d_2">
      <g>
       <use style="stroke:#000000;stroke-width:0.8;" x="118.619773" xlink:href="#me4de23544e" y="569.388125"/>
      </g>
     </g>
     <g id="text_2">
      <!-- 2020-04-10 -->
      <defs>
       <path d="M 12.40625 8.296875 
L 28.515625 8.296875 
L 28.515625 63.921875 
L 10.984375 60.40625 
L 10.984375 69.390625 
L 28.421875 72.90625 
L 38.28125 72.90625 
L 38.28125 8.296875 
L 54.390625 8.296875 
L 54.390625 0 
L 12.40625 0 
z
" id="DejaVuSans-31"/>
      </defs>
      <g transform="translate(121.379148 634.50375)rotate(-90)scale(0.1 -0.1)">
       <use xlink:href="#DejaVuSans-32"/>
       <use x="63.623047" xlink:href="#DejaVuSans-30"/>
       <use x="127.246094" xlink:href="#DejaVuSans-32"/>
       <use x="190.869141" xlink:href="#DejaVuSans-30"/>
       <use x="254.492188" xlink:href="#DejaVuSans-2d"/>
       <use x="290.576172" xlink:href="#DejaVuSans-30"/>
       <use x="354.199219" xlink:href="#DejaVuSans-34"/>
       <use x="417.822266" xlink:href="#DejaVuSans-2d"/>
       <use x="453.90625" xlink:href="#DejaVuSans-31"/>
       <use x="517.529297" xlink:href="#DejaVuSans-30"/>
      </g>
     </g>
    </g>
    <g id="xtick_3">
     <g id="line2d_3">
      <g>
       <use style="stroke:#000000;stroke-width:0.8;" x="191.227045" xlink:href="#me4de23544e" y="569.388125"/>
      </g>
     </g>
     <g id="text_3">
      <!-- 2020-04-18 -->
      <defs>
       <path d="M 31.78125 34.625 
Q 24.75 34.625 20.71875 30.859375 
Q 16.703125 27.09375 16.703125 20.515625 
Q 16.703125 13.921875 20.71875 10.15625 
Q 24.75 6.390625 31.78125 6.390625 
Q 38.8125 6.390625 42.859375 10.171875 
Q 46.921875 13.96875 46.921875 20.515625 
Q 46.921875 27.09375 42.890625 30.859375 
Q 38.875 34.625 31.78125 34.625 
z
M 21.921875 38.8125 
Q 15.578125 40.375 12.03125 44.71875 
Q 8.5 49.078125 8.5 55.328125 
Q 8.5 64.0625 14.71875 69.140625 
Q 20.953125 74.21875 31.78125 74.21875 
Q 42.671875 74.21875 48.875 69.140625 
Q 55.078125 64.0625 55.078125 55.328125 
Q 55.078125 49.078125 51.53125 44.71875 
Q 48 40.375 41.703125 38.8125 
Q 48.828125 37.15625 52.796875 32.3125 
Q 56.78125 27.484375 56.78125 20.515625 
Q 56.78125 9.90625 50.3125 4.234375 
Q 43.84375 -1.421875 31.78125 -1.421875 
Q 19.734375 -1.421875 13.25 4.234375 
Q 6.78125 9.90625 6.78125 20.515625 
Q 6.78125 27.484375 10.78125 32.3125 
Q 14.796875 37.15625 21.921875 38.8125 
z
M 18.3125 54.390625 
Q 18.3125 48.734375 21.84375 45.5625 
Q 25.390625 42.390625 31.78125 42.390625 
Q 38.140625 42.390625 41.71875 45.5625 
Q 45.3125 48.734375 45.3125 54.390625 
Q 45.3125 60.0625 41.71875 63.234375 
Q 38.140625 66.40625 31.78125 66.40625 
Q 25.390625 66.40625 21.84375 63.234375 
Q 18.3125 60.0625 18.3125 54.390625 
z
" id="DejaVuSans-38"/>
      </defs>
      <g transform="translate(193.98642 634.50375)rotate(-90)scale(0.1 -0.1)">
       <use xlink:href="#DejaVuSans-32"/>
       <use x="63.623047" xlink:href="#DejaVuSans-30"/>
       <use x="127.246094" xlink:href="#DejaVuSans-32"/>
       <use x="190.869141" xlink:href="#DejaVuSans-30"/>
       <use x="254.492188" xlink:href="#DejaVuSans-2d"/>
       <use x="290.576172" xlink:href="#DejaVuSans-30"/>
       <use x="354.199219" xlink:href="#DejaVuSans-34"/>
       <use x="417.822266" xlink:href="#DejaVuSans-2d"/>
       <use x="453.90625" xlink:href="#DejaVuSans-31"/>
       <use x="517.529297" xlink:href="#DejaVuSans-38"/>
      </g>
     </g>
    </g>
    <g id="xtick_4">
     <g id="line2d_4">
      <g>
       <use style="stroke:#000000;stroke-width:0.8;" x="263.834318" xlink:href="#me4de23544e" y="569.388125"/>
      </g>
     </g>
     <g id="text_4">
      <!-- 2020-04-25 -->
      <defs>
       <path d="M 10.796875 72.90625 
L 49.515625 72.90625 
L 49.515625 64.59375 
L 19.828125 64.59375 
L 19.828125 46.734375 
Q 21.96875 47.46875 24.109375 47.828125 
Q 26.265625 48.1875 28.421875 48.1875 
Q 40.625 48.1875 47.75 41.5 
Q 54.890625 34.8125 54.890625 23.390625 
Q 54.890625 11.625 47.5625 5.09375 
Q 40.234375 -1.421875 26.90625 -1.421875 
Q 22.3125 -1.421875 17.546875 -0.640625 
Q 12.796875 0.140625 7.71875 1.703125 
L 7.71875 11.625 
Q 12.109375 9.234375 16.796875 8.0625 
Q 21.484375 6.890625 26.703125 6.890625 
Q 35.15625 6.890625 40.078125 11.328125 
Q 45.015625 15.765625 45.015625 23.390625 
Q 45.015625 31 40.078125 35.4375 
Q 35.15625 39.890625 26.703125 39.890625 
Q 22.75 39.890625 18.8125 39.015625 
Q 14.890625 38.140625 10.796875 36.28125 
z
" id="DejaVuSans-35"/>
      </defs>
      <g transform="translate(266.593693 634.50375)rotate(-90)scale(0.1 -0.1)">
       <use xlink:href="#DejaVuSans-32"/>
       <use x="63.623047" xlink:href="#DejaVuSans-30"/>
       <use x="127.246094" xlink:href="#DejaVuSans-32"/>
       <use x="190.869141" xlink:href="#DejaVuSans-30"/>
       <use x="254.492188" xlink:href="#DejaVuSans-2d"/>
       <use x="290.576172" xlink:href="#DejaVuSans-30"/>
       <use x="354.199219" xlink:href="#DejaVuSans-34"/>
       <use x="417.822266" xlink:href="#DejaVuSans-2d"/>
       <use x="453.90625" xlink:href="#DejaVuSans-32"/>
       <use x="517.529297" xlink:href="#DejaVuSans-35"/>
      </g>
     </g>
    </g>
    <g id="xtick_5">
     <g id="line2d_5">
      <g>
       <use style="stroke:#000000;stroke-width:0.8;" x="336.441591" xlink:href="#me4de23544e" y="569.388125"/>
      </g>
     </g>
     <g id="text_5">
      <!-- 2020-05-03 -->
      <g transform="translate(339.200966 634.50375)rotate(-90)scale(0.1 -0.1)">
       <use xlink:href="#DejaVuSans-32"/>
       <use x="63.623047" xlink:href="#DejaVuSans-30"/>
       <use x="127.246094" xlink:href="#DejaVuSans-32"/>
       <use x="190.869141" xlink:href="#DejaVuSans-30"/>
       <use x="254.492188" xlink:href="#DejaVuSans-2d"/>
       <use x="290.576172" xlink:href="#DejaVuSans-30"/>
       <use x="354.199219" xlink:href="#DejaVuSans-35"/>
       <use x="417.822266" xlink:href="#DejaVuSans-2d"/>
       <use x="453.90625" xlink:href="#DejaVuSans-30"/>
       <use x="517.529297" xlink:href="#DejaVuSans-33"/>
      </g>
     </g>
    </g>
    <g id="xtick_6">
     <g id="line2d_6">
      <g>
       <use style="stroke:#000000;stroke-width:0.8;" x="409.048864" xlink:href="#me4de23544e" y="569.388125"/>
      </g>
     </g>
     <g id="text_6">
      <!-- 2020-05-11 -->
      <g transform="translate(411.808239 634.50375)rotate(-90)scale(0.1 -0.1)">
       <use xlink:href="#DejaVuSans-32"/>
       <use x="63.623047" xlink:href="#DejaVuSans-30"/>
       <use x="127.246094" xlink:href="#DejaVuSans-32"/>
       <use x="190.869141" xlink:href="#DejaVuSans-30"/>
       <use x="254.492188" xlink:href="#DejaVuSans-2d"/>
       <use x="290.576172" xlink:href="#DejaVuSans-30"/>
       <use x="354.199219" xlink:href="#DejaVuSans-35"/>
       <use x="417.822266" xlink:href="#DejaVuSans-2d"/>
       <use x="453.90625" xlink:href="#DejaVuSans-31"/>
       <use x="517.529297" xlink:href="#DejaVuSans-31"/>
      </g>
     </g>
    </g>
    <g id="xtick_7">
     <g id="line2d_7">
      <g>
       <use style="stroke:#000000;stroke-width:0.8;" x="481.656136" xlink:href="#me4de23544e" y="569.388125"/>
      </g>
     </g>
     <g id="text_7">
      <!-- 2020-05-18 -->
      <g transform="translate(484.415511 634.50375)rotate(-90)scale(0.1 -0.1)">
       <use xlink:href="#DejaVuSans-32"/>
       <use x="63.623047" xlink:href="#DejaVuSans-30"/>
       <use x="127.246094" xlink:href="#DejaVuSans-32"/>
       <use x="190.869141" xlink:href="#DejaVuSans-30"/>
       <use x="254.492188" xlink:href="#DejaVuSans-2d"/>
       <use x="290.576172" xlink:href="#DejaVuSans-30"/>
       <use x="354.199219" xlink:href="#DejaVuSans-35"/>
       <use x="417.822266" xlink:href="#DejaVuSans-2d"/>
       <use x="453.90625" xlink:href="#DejaVuSans-31"/>
       <use x="517.529297" xlink:href="#DejaVuSans-38"/>
      </g>
     </g>
    </g>
    <g id="xtick_8">
     <g id="line2d_8">
      <g>
       <use style="stroke:#000000;stroke-width:0.8;" x="554.263409" xlink:href="#me4de23544e" y="569.388125"/>
      </g>
     </g>
     <g id="text_8">
      <!-- 2020-05-26 -->
      <defs>
       <path d="M 33.015625 40.375 
Q 26.375 40.375 22.484375 35.828125 
Q 18.609375 31.296875 18.609375 23.390625 
Q 18.609375 15.53125 22.484375 10.953125 
Q 26.375 6.390625 33.015625 6.390625 
Q 39.65625 6.390625 43.53125 10.953125 
Q 47.40625 15.53125 47.40625 23.390625 
Q 47.40625 31.296875 43.53125 35.828125 
Q 39.65625 40.375 33.015625 40.375 
z
M 52.59375 71.296875 
L 52.59375 62.3125 
Q 48.875 64.0625 45.09375 64.984375 
Q 41.3125 65.921875 37.59375 65.921875 
Q 27.828125 65.921875 22.671875 59.328125 
Q 17.53125 52.734375 16.796875 39.40625 
Q 19.671875 43.65625 24.015625 45.921875 
Q 28.375 48.1875 33.59375 48.1875 
Q 44.578125 48.1875 50.953125 41.515625 
Q 57.328125 34.859375 57.328125 23.390625 
Q 57.328125 12.15625 50.6875 5.359375 
Q 44.046875 -1.421875 33.015625 -1.421875 
Q 20.359375 -1.421875 13.671875 8.265625 
Q 6.984375 17.96875 6.984375 36.375 
Q 6.984375 53.65625 15.1875 63.9375 
Q 23.390625 74.21875 37.203125 74.21875 
Q 40.921875 74.21875 44.703125 73.484375 
Q 48.484375 72.75 52.59375 71.296875 
z
" id="DejaVuSans-36"/>
      </defs>
      <g transform="translate(557.022784 634.50375)rotate(-90)scale(0.1 -0.1)">
       <use xlink:href="#DejaVuSans-32"/>
       <use x="63.623047" xlink:href="#DejaVuSans-30"/>
       <use x="127.246094" xlink:href="#DejaVuSans-32"/>
       <use x="190.869141" xlink:href="#DejaVuSans-30"/>
       <use x="254.492188" xlink:href="#DejaVuSans-2d"/>
       <use x="290.576172" xlink:href="#DejaVuSans-30"/>
       <use x="354.199219" xlink:href="#DejaVuSans-35"/>
       <use x="417.822266" xlink:href="#DejaVuSans-2d"/>
       <use x="453.90625" xlink:href="#DejaVuSans-32"/>
       <use x="517.529297" xlink:href="#DejaVuSans-36"/>
      </g>
     </g>
    </g>
    <g id="xtick_9">
     <g id="line2d_9">
      <g>
       <use style="stroke:#000000;stroke-width:0.8;" x="626.870682" xlink:href="#me4de23544e" y="569.388125"/>
      </g>
     </g>
     <g id="text_9">
      <!-- 2020-06-03 -->
      <g transform="translate(629.630057 634.50375)rotate(-90)scale(0.1 -0.1)">
       <use xlink:href="#DejaVuSans-32"/>
       <use x="63.623047" xlink:href="#DejaVuSans-30"/>
       <use x="127.246094" xlink:href="#DejaVuSans-32"/>
       <use x="190.869141" xlink:href="#DejaVuSans-30"/>
       <use x="254.492188" xlink:href="#DejaVuSans-2d"/>
       <use x="290.576172" xlink:href="#DejaVuSans-30"/>
       <use x="354.199219" xlink:href="#DejaVuSans-36"/>
       <use x="417.822266" xlink:href="#DejaVuSans-2d"/>
       <use x="453.90625" xlink:href="#DejaVuSans-30"/>
       <use x="517.529297" xlink:href="#DejaVuSans-33"/>
      </g>
     </g>
    </g>
    <g id="xtick_10">
     <g id="line2d_10">
      <g>
       <use style="stroke:#000000;stroke-width:0.8;" x="699.477955" xlink:href="#me4de23544e" y="569.388125"/>
      </g>
     </g>
     <g id="text_10">
      <!-- 2020-06-10 -->
      <g transform="translate(702.23733 634.50375)rotate(-90)scale(0.1 -0.1)">
       <use xlink:href="#DejaVuSans-32"/>
       <use x="63.623047" xlink:href="#DejaVuSans-30"/>
       <use x="127.246094" xlink:href="#DejaVuSans-32"/>
       <use x="190.869141" xlink:href="#DejaVuSans-30"/>
       <use x="254.492188" xlink:href="#DejaVuSans-2d"/>
       <use x="290.576172" xlink:href="#DejaVuSans-30"/>
       <use x="354.199219" xlink:href="#DejaVuSans-36"/>
       <use x="417.822266" xlink:href="#DejaVuSans-2d"/>
       <use x="453.90625" xlink:href="#DejaVuSans-31"/>
       <use x="517.529297" xlink:href="#DejaVuSans-30"/>
      </g>
     </g>
    </g>
    <g id="xtick_11">
     <g id="line2d_11">
      <g>
       <use style="stroke:#000000;stroke-width:0.8;" x="772.085227" xlink:href="#me4de23544e" y="569.388125"/>
      </g>
     </g>
     <g id="text_11">
      <!-- 2020-06-18 -->
      <g transform="translate(774.844602 634.50375)rotate(-90)scale(0.1 -0.1)">
       <use xlink:href="#DejaVuSans-32"/>
       <use x="63.623047" xlink:href="#DejaVuSans-30"/>
       <use x="127.246094" xlink:href="#DejaVuSans-32"/>
       <use x="190.869141" xlink:href="#DejaVuSans-30"/>
       <use x="254.492188" xlink:href="#DejaVuSans-2d"/>
       <use x="290.576172" xlink:href="#DejaVuSans-30"/>
       <use x="354.199219" xlink:href="#DejaVuSans-36"/>
       <use x="417.822266" xlink:href="#DejaVuSans-2d"/>
       <use x="453.90625" xlink:href="#DejaVuSans-31"/>
       <use x="517.529297" xlink:href="#DejaVuSans-38"/>
      </g>
     </g>
    </g>
    <g id="xtick_12">
     <g id="line2d_12">
      <g>
       <use style="stroke:#000000;stroke-width:0.8;" x="844.6925" xlink:href="#me4de23544e" y="569.388125"/>
      </g>
     </g>
     <g id="text_12">
      <!-- 2020-06-26 -->
      <g transform="translate(847.451875 634.50375)rotate(-90)scale(0.1 -0.1)">
       <use xlink:href="#DejaVuSans-32"/>
       <use x="63.623047" xlink:href="#DejaVuSans-30"/>
       <use x="127.246094" xlink:href="#DejaVuSans-32"/>
       <use x="190.869141" xlink:href="#DejaVuSans-30"/>
       <use x="254.492188" xlink:href="#DejaVuSans-2d"/>
       <use x="290.576172" xlink:href="#DejaVuSans-30"/>
       <use x="354.199219" xlink:href="#DejaVuSans-36"/>
       <use x="417.822266" xlink:href="#DejaVuSans-2d"/>
       <use x="453.90625" xlink:href="#DejaVuSans-32"/>
       <use x="517.529297" xlink:href="#DejaVuSans-36"/>
      </g>
     </g>
    </g>
   </g>
   <g id="matplotlib.axis_2">
    <g id="ytick_1">
     <g id="line2d_13">
      <defs>
       <path d="M 0 0 
L -3.5 0 
" id="m91f57fcf1f" style="stroke:#000000;stroke-width:0.8;"/>
      </defs>
      <g>
       <use style="stroke:#000000;stroke-width:0.8;" x="46.0125" xlink:href="#m91f57fcf1f" y="569.388125"/>
      </g>
     </g>
     <g id="text_13">
      <!-- 0 -->
      <g transform="translate(32.65 573.187344)scale(0.1 -0.1)">
       <use xlink:href="#DejaVuSans-30"/>
      </g>
     </g>
    </g>
    <g id="ytick_2">
     <g id="line2d_14">
      <g>
       <use style="stroke:#000000;stroke-width:0.8;" x="46.0125" xlink:href="#m91f57fcf1f" y="504.981416"/>
      </g>
     </g>
     <g id="text_14">
      <!-- 5000 -->
      <g transform="translate(13.5625 508.780634)scale(0.1 -0.1)">
       <use xlink:href="#DejaVuSans-35"/>
       <use x="63.623047" xlink:href="#DejaVuSans-30"/>
       <use x="127.246094" xlink:href="#DejaVuSans-30"/>
       <use x="190.869141" xlink:href="#DejaVuSans-30"/>
      </g>
     </g>
    </g>
    <g id="ytick_3">
     <g id="line2d_15">
      <g>
       <use style="stroke:#000000;stroke-width:0.8;" x="46.0125" xlink:href="#m91f57fcf1f" y="440.574706"/>
      </g>
     </g>
     <g id="text_15">
      <!-- 10000 -->
      <g transform="translate(7.2 444.373925)scale(0.1 -0.1)">
       <use xlink:href="#DejaVuSans-31"/>
       <use x="63.623047" xlink:href="#DejaVuSans-30"/>
       <use x="127.246094" xlink:href="#DejaVuSans-30"/>
       <use x="190.869141" xlink:href="#DejaVuSans-30"/>
       <use x="254.492188" xlink:href="#DejaVuSans-30"/>
      </g>
     </g>
    </g>
    <g id="ytick_4">
     <g id="line2d_16">
      <g>
       <use style="stroke:#000000;stroke-width:0.8;" x="46.0125" xlink:href="#m91f57fcf1f" y="376.167997"/>
      </g>
     </g>
     <g id="text_16">
      <!-- 15000 -->
      <g transform="translate(7.2 379.967215)scale(0.1 -0.1)">
       <use xlink:href="#DejaVuSans-31"/>
       <use x="63.623047" xlink:href="#DejaVuSans-35"/>
       <use x="127.246094" xlink:href="#DejaVuSans-30"/>
       <use x="190.869141" xlink:href="#DejaVuSans-30"/>
       <use x="254.492188" xlink:href="#DejaVuSans-30"/>
      </g>
     </g>
    </g>
    <g id="ytick_5">
     <g id="line2d_17">
      <g>
       <use style="stroke:#000000;stroke-width:0.8;" x="46.0125" xlink:href="#m91f57fcf1f" y="311.761287"/>
      </g>
     </g>
     <g id="text_17">
      <!-- 20000 -->
      <g transform="translate(7.2 315.560506)scale(0.1 -0.1)">
       <use xlink:href="#DejaVuSans-32"/>
       <use x="63.623047" xlink:href="#DejaVuSans-30"/>
       <use x="127.246094" xlink:href="#DejaVuSans-30"/>
       <use x="190.869141" xlink:href="#DejaVuSans-30"/>
       <use x="254.492188" xlink:href="#DejaVuSans-30"/>
      </g>
     </g>
    </g>
    <g id="ytick_6">
     <g id="line2d_18">
      <g>
       <use style="stroke:#000000;stroke-width:0.8;" x="46.0125" xlink:href="#m91f57fcf1f" y="247.354578"/>
      </g>
     </g>
     <g id="text_18">
      <!-- 25000 -->
      <g transform="translate(7.2 251.153797)scale(0.1 -0.1)">
       <use xlink:href="#DejaVuSans-32"/>
       <use x="63.623047" xlink:href="#DejaVuSans-35"/>
       <use x="127.246094" xlink:href="#DejaVuSans-30"/>
       <use x="190.869141" xlink:href="#DejaVuSans-30"/>
       <use x="254.492188" xlink:href="#DejaVuSans-30"/>
      </g>
     </g>
    </g>
    <g id="ytick_7">
     <g id="line2d_19">
      <g>
       <use style="stroke:#000000;stroke-width:0.8;" x="46.0125" xlink:href="#m91f57fcf1f" y="182.947868"/>
      </g>
     </g>
     <g id="text_19">
      <!-- 30000 -->
      <g transform="translate(7.2 186.747087)scale(0.1 -0.1)">
       <use xlink:href="#DejaVuSans-33"/>
       <use x="63.623047" xlink:href="#DejaVuSans-30"/>
       <use x="127.246094" xlink:href="#DejaVuSans-30"/>
       <use x="190.869141" xlink:href="#DejaVuSans-30"/>
       <use x="254.492188" xlink:href="#DejaVuSans-30"/>
      </g>
     </g>
    </g>
    <g id="ytick_8">
     <g id="line2d_20">
      <g>
       <use style="stroke:#000000;stroke-width:0.8;" x="46.0125" xlink:href="#m91f57fcf1f" y="118.541159"/>
      </g>
     </g>
     <g id="text_20">
      <!-- 35000 -->
      <g transform="translate(7.2 122.340378)scale(0.1 -0.1)">
       <use xlink:href="#DejaVuSans-33"/>
       <use x="63.623047" xlink:href="#DejaVuSans-35"/>
       <use x="127.246094" xlink:href="#DejaVuSans-30"/>
       <use x="190.869141" xlink:href="#DejaVuSans-30"/>
       <use x="254.492188" xlink:href="#DejaVuSans-30"/>
      </g>
     </g>
    </g>
    <g id="ytick_9">
     <g id="line2d_21">
      <g>
       <use style="stroke:#000000;stroke-width:0.8;" x="46.0125" xlink:href="#m91f57fcf1f" y="54.13445"/>
      </g>
     </g>
     <g id="text_21">
      <!-- 40000 -->
      <g transform="translate(7.2 57.933668)scale(0.1 -0.1)">
       <use xlink:href="#DejaVuSans-34"/>
       <use x="63.623047" xlink:href="#DejaVuSans-30"/>
       <use x="127.246094" xlink:href="#DejaVuSans-30"/>
       <use x="190.869141" xlink:href="#DejaVuSans-30"/>
       <use x="254.492188" xlink:href="#DejaVuSans-30"/>
      </g>
     </g>
    </g>
   </g>
   <g id="patch_3">
    <path d="M 46.0125 569.388125 
L 46.0125 22.318125 
" style="fill:none;stroke:#000000;stroke-linecap:square;stroke-linejoin:miter;stroke-width:0.8;"/>
   </g>
   <g id="patch_4">
    <path d="M 844.6925 569.388125 
L 844.6925 22.318125 
" style="fill:none;stroke:#000000;stroke-linecap:square;stroke-linejoin:miter;stroke-width:0.8;"/>
   </g>
   <g id="patch_5">
    <path d="M 46.0125 569.388125 
L 844.6925 569.388125 
" style="fill:none;stroke:#000000;stroke-linecap:square;stroke-linejoin:miter;stroke-width:0.8;"/>
   </g>
   <g id="patch_6">
    <path d="M 46.0125 22.318125 
L 844.6925 22.318125 
" style="fill:none;stroke:#000000;stroke-linecap:square;stroke-linejoin:miter;stroke-width:0.8;"/>
   </g>
   <g id="text_22">
    <!-- US Coronavirus Daily Increase by Region -->
    <defs>
     <path d="M 8.6875 72.90625 
L 18.609375 72.90625 
L 18.609375 28.609375 
Q 18.609375 16.890625 22.84375 11.734375 
Q 27.09375 6.59375 36.625 6.59375 
Q 46.09375 6.59375 50.34375 11.734375 
Q 54.59375 16.890625 54.59375 28.609375 
L 54.59375 72.90625 
L 64.5 72.90625 
L 64.5 27.390625 
Q 64.5 13.140625 57.4375 5.859375 
Q 50.390625 -1.421875 36.625 -1.421875 
Q 22.796875 -1.421875 15.734375 5.859375 
Q 8.6875 13.140625 8.6875 27.390625 
z
" id="DejaVuSans-55"/>
     <path d="M 53.515625 70.515625 
L 53.515625 60.890625 
Q 47.90625 63.578125 42.921875 64.890625 
Q 37.9375 66.21875 33.296875 66.21875 
Q 25.25 66.21875 20.875 63.09375 
Q 16.5 59.96875 16.5 54.203125 
Q 16.5 49.359375 19.40625 46.890625 
Q 22.3125 44.4375 30.421875 42.921875 
L 36.375 41.703125 
Q 47.40625 39.59375 52.65625 34.296875 
Q 57.90625 29 57.90625 20.125 
Q 57.90625 9.515625 50.796875 4.046875 
Q 43.703125 -1.421875 29.984375 -1.421875 
Q 24.8125 -1.421875 18.96875 -0.25 
Q 13.140625 0.921875 6.890625 3.21875 
L 6.890625 13.375 
Q 12.890625 10.015625 18.65625 8.296875 
Q 24.421875 6.59375 29.984375 6.59375 
Q 38.421875 6.59375 43.015625 9.90625 
Q 47.609375 13.234375 47.609375 19.390625 
Q 47.609375 24.75 44.3125 27.78125 
Q 41.015625 30.8125 33.5 32.328125 
L 27.484375 33.5 
Q 16.453125 35.6875 11.515625 40.375 
Q 6.59375 45.0625 6.59375 53.421875 
Q 6.59375 63.09375 13.40625 68.65625 
Q 20.21875 74.21875 32.171875 74.21875 
Q 37.3125 74.21875 42.625 73.28125 
Q 47.953125 72.359375 53.515625 70.515625 
z
" id="DejaVuSans-53"/>
     <path id="DejaVuSans-20"/>
     <path d="M 64.40625 67.28125 
L 64.40625 56.890625 
Q 59.421875 61.53125 53.78125 63.8125 
Q 48.140625 66.109375 41.796875 66.109375 
Q 29.296875 66.109375 22.65625 58.46875 
Q 16.015625 50.828125 16.015625 36.375 
Q 16.015625 21.96875 22.65625 14.328125 
Q 29.296875 6.6875 41.796875 6.6875 
Q 48.140625 6.6875 53.78125 8.984375 
Q 59.421875 11.28125 64.40625 15.921875 
L 64.40625 5.609375 
Q 59.234375 2.09375 53.4375 0.328125 
Q 47.65625 -1.421875 41.21875 -1.421875 
Q 24.65625 -1.421875 15.125 8.703125 
Q 5.609375 18.84375 5.609375 36.375 
Q 5.609375 53.953125 15.125 64.078125 
Q 24.65625 74.21875 41.21875 74.21875 
Q 47.75 74.21875 53.53125 72.484375 
Q 59.328125 70.75 64.40625 67.28125 
z
" id="DejaVuSans-43"/>
     <path d="M 30.609375 48.390625 
Q 23.390625 48.390625 19.1875 42.75 
Q 14.984375 37.109375 14.984375 27.296875 
Q 14.984375 17.484375 19.15625 11.84375 
Q 23.34375 6.203125 30.609375 6.203125 
Q 37.796875 6.203125 41.984375 11.859375 
Q 46.1875 17.53125 46.1875 27.296875 
Q 46.1875 37.015625 41.984375 42.703125 
Q 37.796875 48.390625 30.609375 48.390625 
z
M 30.609375 56 
Q 42.328125 56 49.015625 48.375 
Q 55.71875 40.765625 55.71875 27.296875 
Q 55.71875 13.875 49.015625 6.21875 
Q 42.328125 -1.421875 30.609375 -1.421875 
Q 18.84375 -1.421875 12.171875 6.21875 
Q 5.515625 13.875 5.515625 27.296875 
Q 5.515625 40.765625 12.171875 48.375 
Q 18.84375 56 30.609375 56 
z
" id="DejaVuSans-6f"/>
     <path d="M 41.109375 46.296875 
Q 39.59375 47.171875 37.8125 47.578125 
Q 36.03125 48 33.890625 48 
Q 26.265625 48 22.1875 43.046875 
Q 18.109375 38.09375 18.109375 28.8125 
L 18.109375 0 
L 9.078125 0 
L 9.078125 54.6875 
L 18.109375 54.6875 
L 18.109375 46.1875 
Q 20.953125 51.171875 25.484375 53.578125 
Q 30.03125 56 36.53125 56 
Q 37.453125 56 38.578125 55.875 
Q 39.703125 55.765625 41.0625 55.515625 
z
" id="DejaVuSans-72"/>
     <path d="M 54.890625 33.015625 
L 54.890625 0 
L 45.90625 0 
L 45.90625 32.71875 
Q 45.90625 40.484375 42.875 44.328125 
Q 39.84375 48.1875 33.796875 48.1875 
Q 26.515625 48.1875 22.3125 43.546875 
Q 18.109375 38.921875 18.109375 30.90625 
L 18.109375 0 
L 9.078125 0 
L 9.078125 54.6875 
L 18.109375 54.6875 
L 18.109375 46.1875 
Q 21.34375 51.125 25.703125 53.5625 
Q 30.078125 56 35.796875 56 
Q 45.21875 56 50.046875 50.171875 
Q 54.890625 44.34375 54.890625 33.015625 
z
" id="DejaVuSans-6e"/>
     <path d="M 34.28125 27.484375 
Q 23.390625 27.484375 19.1875 25 
Q 14.984375 22.515625 14.984375 16.5 
Q 14.984375 11.71875 18.140625 8.90625 
Q 21.296875 6.109375 26.703125 6.109375 
Q 34.1875 6.109375 38.703125 11.40625 
Q 43.21875 16.703125 43.21875 25.484375 
L 43.21875 27.484375 
z
M 52.203125 31.203125 
L 52.203125 0 
L 43.21875 0 
L 43.21875 8.296875 
Q 40.140625 3.328125 35.546875 0.953125 
Q 30.953125 -1.421875 24.3125 -1.421875 
Q 15.921875 -1.421875 10.953125 3.296875 
Q 6 8.015625 6 15.921875 
Q 6 25.140625 12.171875 29.828125 
Q 18.359375 34.515625 30.609375 34.515625 
L 43.21875 34.515625 
L 43.21875 35.40625 
Q 43.21875 41.609375 39.140625 45 
Q 35.0625 48.390625 27.6875 48.390625 
Q 23 48.390625 18.546875 47.265625 
Q 14.109375 46.140625 10.015625 43.890625 
L 10.015625 52.203125 
Q 14.9375 54.109375 19.578125 55.046875 
Q 24.21875 56 28.609375 56 
Q 40.484375 56 46.34375 49.84375 
Q 52.203125 43.703125 52.203125 31.203125 
z
" id="DejaVuSans-61"/>
     <path d="M 2.984375 54.6875 
L 12.5 54.6875 
L 29.59375 8.796875 
L 46.6875 54.6875 
L 56.203125 54.6875 
L 35.6875 0 
L 23.484375 0 
z
" id="DejaVuSans-76"/>
     <path d="M 9.421875 54.6875 
L 18.40625 54.6875 
L 18.40625 0 
L 9.421875 0 
z
M 9.421875 75.984375 
L 18.40625 75.984375 
L 18.40625 64.59375 
L 9.421875 64.59375 
z
" id="DejaVuSans-69"/>
     <path d="M 8.5 21.578125 
L 8.5 54.6875 
L 17.484375 54.6875 
L 17.484375 21.921875 
Q 17.484375 14.15625 20.5 10.265625 
Q 23.53125 6.390625 29.59375 6.390625 
Q 36.859375 6.390625 41.078125 11.03125 
Q 45.3125 15.671875 45.3125 23.6875 
L 45.3125 54.6875 
L 54.296875 54.6875 
L 54.296875 0 
L 45.3125 0 
L 45.3125 8.40625 
Q 42.046875 3.421875 37.71875 1 
Q 33.40625 -1.421875 27.6875 -1.421875 
Q 18.265625 -1.421875 13.375 4.4375 
Q 8.5 10.296875 8.5 21.578125 
z
M 31.109375 56 
z
" id="DejaVuSans-75"/>
     <path d="M 44.28125 53.078125 
L 44.28125 44.578125 
Q 40.484375 46.53125 36.375 47.5 
Q 32.28125 48.484375 27.875 48.484375 
Q 21.1875 48.484375 17.84375 46.4375 
Q 14.5 44.390625 14.5 40.28125 
Q 14.5 37.15625 16.890625 35.375 
Q 19.28125 33.59375 26.515625 31.984375 
L 29.59375 31.296875 
Q 39.15625 29.25 43.1875 25.515625 
Q 47.21875 21.78125 47.21875 15.09375 
Q 47.21875 7.46875 41.1875 3.015625 
Q 35.15625 -1.421875 24.609375 -1.421875 
Q 20.21875 -1.421875 15.453125 -0.5625 
Q 10.6875 0.296875 5.421875 2 
L 5.421875 11.28125 
Q 10.40625 8.6875 15.234375 7.390625 
Q 20.0625 6.109375 24.8125 6.109375 
Q 31.15625 6.109375 34.5625 8.28125 
Q 37.984375 10.453125 37.984375 14.40625 
Q 37.984375 18.0625 35.515625 20.015625 
Q 33.0625 21.96875 24.703125 23.78125 
L 21.578125 24.515625 
Q 13.234375 26.265625 9.515625 29.90625 
Q 5.8125 33.546875 5.8125 39.890625 
Q 5.8125 47.609375 11.28125 51.796875 
Q 16.75 56 26.8125 56 
Q 31.78125 56 36.171875 55.265625 
Q 40.578125 54.546875 44.28125 53.078125 
z
" id="DejaVuSans-73"/>
     <path d="M 19.671875 64.796875 
L 19.671875 8.109375 
L 31.59375 8.109375 
Q 46.6875 8.109375 53.6875 14.9375 
Q 60.6875 21.78125 60.6875 36.53125 
Q 60.6875 51.171875 53.6875 57.984375 
Q 46.6875 64.796875 31.59375 64.796875 
z
M 9.8125 72.90625 
L 30.078125 72.90625 
Q 51.265625 72.90625 61.171875 64.09375 
Q 71.09375 55.28125 71.09375 36.53125 
Q 71.09375 17.671875 61.125 8.828125 
Q 51.171875 0 30.078125 0 
L 9.8125 0 
z
" id="DejaVuSans-44"/>
     <path d="M 9.421875 75.984375 
L 18.40625 75.984375 
L 18.40625 0 
L 9.421875 0 
z
" id="DejaVuSans-6c"/>
     <path d="M 32.171875 -5.078125 
Q 28.375 -14.84375 24.75 -17.8125 
Q 21.140625 -20.796875 15.09375 -20.796875 
L 7.90625 -20.796875 
L 7.90625 -13.28125 
L 13.1875 -13.28125 
Q 16.890625 -13.28125 18.9375 -11.515625 
Q 21 -9.765625 23.484375 -3.21875 
L 25.09375 0.875 
L 2.984375 54.6875 
L 12.5 54.6875 
L 29.59375 11.921875 
L 46.6875 54.6875 
L 56.203125 54.6875 
z
" id="DejaVuSans-79"/>
     <path d="M 9.8125 72.90625 
L 19.671875 72.90625 
L 19.671875 0 
L 9.8125 0 
z
" id="DejaVuSans-49"/>
     <path d="M 48.78125 52.59375 
L 48.78125 44.1875 
Q 44.96875 46.296875 41.140625 47.34375 
Q 37.3125 48.390625 33.40625 48.390625 
Q 24.65625 48.390625 19.8125 42.84375 
Q 14.984375 37.3125 14.984375 27.296875 
Q 14.984375 17.28125 19.8125 11.734375 
Q 24.65625 6.203125 33.40625 6.203125 
Q 37.3125 6.203125 41.140625 7.25 
Q 44.96875 8.296875 48.78125 10.40625 
L 48.78125 2.09375 
Q 45.015625 0.34375 40.984375 -0.53125 
Q 36.96875 -1.421875 32.421875 -1.421875 
Q 20.0625 -1.421875 12.78125 6.34375 
Q 5.515625 14.109375 5.515625 27.296875 
Q 5.515625 40.671875 12.859375 48.328125 
Q 20.21875 56 33.015625 56 
Q 37.15625 56 41.109375 55.140625 
Q 45.0625 54.296875 48.78125 52.59375 
z
" id="DejaVuSans-63"/>
     <path d="M 56.203125 29.59375 
L 56.203125 25.203125 
L 14.890625 25.203125 
Q 15.484375 15.921875 20.484375 11.0625 
Q 25.484375 6.203125 34.421875 6.203125 
Q 39.59375 6.203125 44.453125 7.46875 
Q 49.3125 8.734375 54.109375 11.28125 
L 54.109375 2.78125 
Q 49.265625 0.734375 44.1875 -0.34375 
Q 39.109375 -1.421875 33.890625 -1.421875 
Q 20.796875 -1.421875 13.15625 6.1875 
Q 5.515625 13.8125 5.515625 26.8125 
Q 5.515625 40.234375 12.765625 48.109375 
Q 20.015625 56 32.328125 56 
Q 43.359375 56 49.78125 48.890625 
Q 56.203125 41.796875 56.203125 29.59375 
z
M 47.21875 32.234375 
Q 47.125 39.59375 43.09375 43.984375 
Q 39.0625 48.390625 32.421875 48.390625 
Q 24.90625 48.390625 20.390625 44.140625 
Q 15.875 39.890625 15.1875 32.171875 
z
" id="DejaVuSans-65"/>
     <path d="M 48.6875 27.296875 
Q 48.6875 37.203125 44.609375 42.84375 
Q 40.53125 48.484375 33.40625 48.484375 
Q 26.265625 48.484375 22.1875 42.84375 
Q 18.109375 37.203125 18.109375 27.296875 
Q 18.109375 17.390625 22.1875 11.75 
Q 26.265625 6.109375 33.40625 6.109375 
Q 40.53125 6.109375 44.609375 11.75 
Q 48.6875 17.390625 48.6875 27.296875 
z
M 18.109375 46.390625 
Q 20.953125 51.265625 25.265625 53.625 
Q 29.59375 56 35.59375 56 
Q 45.5625 56 51.78125 48.09375 
Q 58.015625 40.1875 58.015625 27.296875 
Q 58.015625 14.40625 51.78125 6.484375 
Q 45.5625 -1.421875 35.59375 -1.421875 
Q 29.59375 -1.421875 25.265625 0.953125 
Q 20.953125 3.328125 18.109375 8.203125 
L 18.109375 0 
L 9.078125 0 
L 9.078125 75.984375 
L 18.109375 75.984375 
z
" id="DejaVuSans-62"/>
     <path d="M 44.390625 34.1875 
Q 47.5625 33.109375 50.5625 29.59375 
Q 53.5625 26.078125 56.59375 19.921875 
L 66.609375 0 
L 56 0 
L 46.6875 18.703125 
Q 43.0625 26.03125 39.671875 28.421875 
Q 36.28125 30.8125 30.421875 30.8125 
L 19.671875 30.8125 
L 19.671875 0 
L 9.8125 0 
L 9.8125 72.90625 
L 32.078125 72.90625 
Q 44.578125 72.90625 50.734375 67.671875 
Q 56.890625 62.453125 56.890625 51.90625 
Q 56.890625 45.015625 53.6875 40.46875 
Q 50.484375 35.9375 44.390625 34.1875 
z
M 19.671875 64.796875 
L 19.671875 38.921875 
L 32.078125 38.921875 
Q 39.203125 38.921875 42.84375 42.21875 
Q 46.484375 45.515625 46.484375 51.90625 
Q 46.484375 58.296875 42.84375 61.546875 
Q 39.203125 64.796875 32.078125 64.796875 
z
" id="DejaVuSans-52"/>
     <path d="M 45.40625 27.984375 
Q 45.40625 37.75 41.375 43.109375 
Q 37.359375 48.484375 30.078125 48.484375 
Q 22.859375 48.484375 18.828125 43.109375 
Q 14.796875 37.75 14.796875 27.984375 
Q 14.796875 18.265625 18.828125 12.890625 
Q 22.859375 7.515625 30.078125 7.515625 
Q 37.359375 7.515625 41.375 12.890625 
Q 45.40625 18.265625 45.40625 27.984375 
z
M 54.390625 6.78125 
Q 54.390625 -7.171875 48.1875 -13.984375 
Q 42 -20.796875 29.203125 -20.796875 
Q 24.46875 -20.796875 20.265625 -20.09375 
Q 16.0625 -19.390625 12.109375 -17.921875 
L 12.109375 -9.1875 
Q 16.0625 -11.328125 19.921875 -12.34375 
Q 23.78125 -13.375 27.78125 -13.375 
Q 36.625 -13.375 41.015625 -8.765625 
Q 45.40625 -4.15625 45.40625 5.171875 
L 45.40625 9.625 
Q 42.625 4.78125 38.28125 2.390625 
Q 33.9375 0 27.875 0 
Q 17.828125 0 11.671875 7.65625 
Q 5.515625 15.328125 5.515625 27.984375 
Q 5.515625 40.671875 11.671875 48.328125 
Q 17.828125 56 27.875 56 
Q 33.9375 56 38.28125 53.609375 
Q 42.625 51.21875 45.40625 46.390625 
L 45.40625 54.6875 
L 54.390625 54.6875 
z
" id="DejaVuSans-67"/>
    </defs>
    <g transform="translate(322.657187 16.318125)scale(0.12 -0.12)">
     <use xlink:href="#DejaVuSans-55"/>
     <use x="73.193359" xlink:href="#DejaVuSans-53"/>
     <use x="136.669922" xlink:href="#DejaVuSans-20"/>
     <use x="168.457031" xlink:href="#DejaVuSans-43"/>
     <use x="238.28125" xlink:href="#DejaVuSans-6f"/>
     <use x="299.462891" xlink:href="#DejaVuSans-72"/>
     <use x="340.544922" xlink:href="#DejaVuSans-6f"/>
     <use x="401.726562" xlink:href="#DejaVuSans-6e"/>
     <use x="465.105469" xlink:href="#DejaVuSans-61"/>
     <use x="526.384766" xlink:href="#DejaVuSans-76"/>
     <use x="585.564453" xlink:href="#DejaVuSans-69"/>
     <use x="613.347656" xlink:href="#DejaVuSans-72"/>
     <use x="654.460938" xlink:href="#DejaVuSans-75"/>
     <use x="717.839844" xlink:href="#DejaVuSans-73"/>
     <use x="769.939453" xlink:href="#DejaVuSans-20"/>
     <use x="801.726562" xlink:href="#DejaVuSans-44"/>
     <use x="878.728516" xlink:href="#DejaVuSans-61"/>
     <use x="940.007812" xlink:href="#DejaVuSans-69"/>
     <use x="967.791016" xlink:href="#DejaVuSans-6c"/>
     <use x="995.574219" xlink:href="#DejaVuSans-79"/>
     <use x="1054.753906" xlink:href="#DejaVuSans-20"/>
     <use x="1086.541016" xlink:href="#DejaVuSans-49"/>
     <use x="1116.033203" xlink:href="#DejaVuSans-6e"/>
     <use x="1179.412109" xlink:href="#DejaVuSans-63"/>
     <use x="1234.392578" xlink:href="#DejaVuSans-72"/>
     <use x="1275.474609" xlink:href="#DejaVuSans-65"/>
     <use x="1336.998047" xlink:href="#DejaVuSans-61"/>
     <use x="1398.277344" xlink:href="#DejaVuSans-73"/>
     <use x="1450.376953" xlink:href="#DejaVuSans-65"/>
     <use x="1511.900391" xlink:href="#DejaVuSans-20"/>
     <use x="1543.6875" xlink:href="#DejaVuSans-62"/>
     <use x="1607.164062" xlink:href="#DejaVuSans-79"/>
     <use x="1666.34375" xlink:href="#DejaVuSans-20"/>
     <use x="1698.130859" xlink:href="#DejaVuSans-52"/>
     <use x="1767.550781" xlink:href="#DejaVuSans-65"/>
     <use x="1829.074219" xlink:href="#DejaVuSans-67"/>
     <use x="1892.550781" xlink:href="#DejaVuSans-69"/>
     <use x="1920.333984" xlink:href="#DejaVuSans-6f"/>
     <use x="1981.515625" xlink:href="#DejaVuSans-6e"/>
    </g>
   </g>
   <g id="legend_1">
    <g id="patch_7">
     <path d="M 404.662656 89.030625 
L 486.042344 89.030625 
Q 488.042344 89.030625 488.042344 87.030625 
L 488.042344 29.318125 
Q 488.042344 27.318125 486.042344 27.318125 
L 404.662656 27.318125 
Q 402.662656 27.318125 402.662656 29.318125 
L 402.662656 87.030625 
Q 402.662656 89.030625 404.662656 89.030625 
z
" style="fill:#ffffff;opacity:0.8;stroke:#cccccc;stroke-linejoin:miter;"/>
    </g>
    <g id="patch_8">
     <path d="M 406.662656 38.916562 
L 426.662656 38.916562 
L 426.662656 31.916562 
L 406.662656 31.916562 
z
" style="fill:#1f77b4;"/>
    </g>
    <g id="text_23">
     <!-- Midwest -->
     <defs>
      <path d="M 9.8125 72.90625 
L 24.515625 72.90625 
L 43.109375 23.296875 
L 61.8125 72.90625 
L 76.515625 72.90625 
L 76.515625 0 
L 66.890625 0 
L 66.890625 64.015625 
L 48.09375 14.015625 
L 38.1875 14.015625 
L 19.390625 64.015625 
L 19.390625 0 
L 9.8125 0 
z
" id="DejaVuSans-4d"/>
      <path d="M 45.40625 46.390625 
L 45.40625 75.984375 
L 54.390625 75.984375 
L 54.390625 0 
L 45.40625 0 
L 45.40625 8.203125 
Q 42.578125 3.328125 38.25 0.953125 
Q 33.9375 -1.421875 27.875 -1.421875 
Q 17.96875 -1.421875 11.734375 6.484375 
Q 5.515625 14.40625 5.515625 27.296875 
Q 5.515625 40.1875 11.734375 48.09375 
Q 17.96875 56 27.875 56 
Q 33.9375 56 38.25 53.625 
Q 42.578125 51.265625 45.40625 46.390625 
z
M 14.796875 27.296875 
Q 14.796875 17.390625 18.875 11.75 
Q 22.953125 6.109375 30.078125 6.109375 
Q 37.203125 6.109375 41.296875 11.75 
Q 45.40625 17.390625 45.40625 27.296875 
Q 45.40625 37.203125 41.296875 42.84375 
Q 37.203125 48.484375 30.078125 48.484375 
Q 22.953125 48.484375 18.875 42.84375 
Q 14.796875 37.203125 14.796875 27.296875 
z
" id="DejaVuSans-64"/>
      <path d="M 4.203125 54.6875 
L 13.1875 54.6875 
L 24.421875 12.015625 
L 35.59375 54.6875 
L 46.1875 54.6875 
L 57.421875 12.015625 
L 68.609375 54.6875 
L 77.59375 54.6875 
L 63.28125 0 
L 52.6875 0 
L 40.921875 44.828125 
L 29.109375 0 
L 18.5 0 
z
" id="DejaVuSans-77"/>
      <path d="M 18.3125 70.21875 
L 18.3125 54.6875 
L 36.8125 54.6875 
L 36.8125 47.703125 
L 18.3125 47.703125 
L 18.3125 18.015625 
Q 18.3125 11.328125 20.140625 9.421875 
Q 21.96875 7.515625 27.59375 7.515625 
L 36.8125 7.515625 
L 36.8125 0 
L 27.59375 0 
Q 17.1875 0 13.234375 3.875 
Q 9.28125 7.765625 9.28125 18.015625 
L 9.28125 47.703125 
L 2.6875 47.703125 
L 2.6875 54.6875 
L 9.28125 54.6875 
L 9.28125 70.21875 
z
" id="DejaVuSans-74"/>
     </defs>
     <g transform="translate(434.662656 38.916562)scale(0.1 -0.1)">
      <use xlink:href="#DejaVuSans-4d"/>
      <use x="86.279297" xlink:href="#DejaVuSans-69"/>
      <use x="114.0625" xlink:href="#DejaVuSans-64"/>
      <use x="177.539062" xlink:href="#DejaVuSans-77"/>
      <use x="259.326172" xlink:href="#DejaVuSans-65"/>
      <use x="320.849609" xlink:href="#DejaVuSans-73"/>
      <use x="372.949219" xlink:href="#DejaVuSans-74"/>
     </g>
    </g>
    <g id="patch_9">
     <path d="M 406.662656 53.594687 
L 426.662656 53.594687 
L 426.662656 46.594687 
L 406.662656 46.594687 
z
" style="fill:#ff7f0e;"/>
    </g>
    <g id="text_24">
     <!-- Northeast -->
     <defs>
      <path d="M 9.8125 72.90625 
L 23.09375 72.90625 
L 55.421875 11.921875 
L 55.421875 72.90625 
L 64.984375 72.90625 
L 64.984375 0 
L 51.703125 0 
L 19.390625 60.984375 
L 19.390625 0 
L 9.8125 0 
z
" id="DejaVuSans-4e"/>
      <path d="M 54.890625 33.015625 
L 54.890625 0 
L 45.90625 0 
L 45.90625 32.71875 
Q 45.90625 40.484375 42.875 44.328125 
Q 39.84375 48.1875 33.796875 48.1875 
Q 26.515625 48.1875 22.3125 43.546875 
Q 18.109375 38.921875 18.109375 30.90625 
L 18.109375 0 
L 9.078125 0 
L 9.078125 75.984375 
L 18.109375 75.984375 
L 18.109375 46.1875 
Q 21.34375 51.125 25.703125 53.5625 
Q 30.078125 56 35.796875 56 
Q 45.21875 56 50.046875 50.171875 
Q 54.890625 44.34375 54.890625 33.015625 
z
" id="DejaVuSans-68"/>
     </defs>
     <g transform="translate(434.662656 53.594687)scale(0.1 -0.1)">
      <use xlink:href="#DejaVuSans-4e"/>
      <use x="74.804688" xlink:href="#DejaVuSans-6f"/>
      <use x="135.986328" xlink:href="#DejaVuSans-72"/>
      <use x="177.099609" xlink:href="#DejaVuSans-74"/>
      <use x="216.308594" xlink:href="#DejaVuSans-68"/>
      <use x="279.6875" xlink:href="#DejaVuSans-65"/>
      <use x="341.210938" xlink:href="#DejaVuSans-61"/>
      <use x="402.490234" xlink:href="#DejaVuSans-73"/>
      <use x="454.589844" xlink:href="#DejaVuSans-74"/>
     </g>
    </g>
    <g id="patch_10">
     <path d="M 406.662656 68.272812 
L 426.662656 68.272812 
L 426.662656 61.272812 
L 406.662656 61.272812 
z
" style="fill:#2ca02c;"/>
    </g>
    <g id="text_25">
     <!-- South -->
     <g transform="translate(434.662656 68.272812)scale(0.1 -0.1)">
      <use xlink:href="#DejaVuSans-53"/>
      <use x="63.476562" xlink:href="#DejaVuSans-6f"/>
      <use x="124.658203" xlink:href="#DejaVuSans-75"/>
      <use x="188.037109" xlink:href="#DejaVuSans-74"/>
      <use x="227.246094" xlink:href="#DejaVuSans-68"/>
     </g>
    </g>
    <g id="patch_11">
     <path d="M 406.662656 82.950937 
L 426.662656 82.950937 
L 426.662656 75.950937 
L 406.662656 75.950937 
z
" style="fill:#d62728;"/>
    </g>
    <g id="text_26">
     <!-- West -->
     <defs>
      <path d="M 3.328125 72.90625 
L 13.28125 72.90625 
L 28.609375 11.28125 
L 43.890625 72.90625 
L 54.984375 72.90625 
L 70.3125 11.28125 
L 85.59375 72.90625 
L 95.609375 72.90625 
L 77.296875 0 
L 64.890625 0 
L 49.515625 63.28125 
L 33.984375 0 
L 21.578125 0 
z
" id="DejaVuSans-57"/>
     </defs>
     <g transform="translate(434.662656 82.950937)scale(0.1 -0.1)">
      <use xlink:href="#DejaVuSans-57"/>
      <use x="98.798828" xlink:href="#DejaVuSans-65"/>
      <use x="160.322266" xlink:href="#DejaVuSans-73"/>
      <use x="212.421875" xlink:href="#DejaVuSans-74"/>
     </g>
    </g>
   </g>
  </g>
 </g>
 <defs>
  <clipPath id="p6f812dcfe9">
   <rect height="547.07" width="798.68" x="46.0125" y="22.318125"/>
  </clipPath>
 </defs>
</svg>
