<?xml version="1.0" encoding="utf-8" standalone="no"?>
<!DOCTYPE svg PUBLIC "-//W3C//DTD SVG 1.1//EN"
  "http://www.w3.org/Graphics/SVG/1.1/DTD/svg11.dtd">
<!-- Created with matplotlib (https://matplotlib.org/) -->
<svg height="648pt" version="1.1" viewBox="0 0 864 648" width="864pt" xmlns="http://www.w3.org/2000/svg" xmlns:xlink="http://www.w3.org/1999/xlink">
 <defs>
  <style type="text/css">
*{stroke-linecap:butt;stroke-linejoin:round;}
  </style>
 </defs>
 <g id="figure_1">
  <g id="patch_1">
   <path d="M 0 648 
L 864 648 
L 864 0 
L 0 0 
z
" style="fill:#ffffff;"/>
  </g>
  <g id="axes_1">
   <g id="patch_2">
    <path d="M 40.12 282.97 
L 433.7 282.97 
L 433.7 25.44 
L 40.12 25.44 
z
" style="fill:#ffffff;"/>
   </g>
   <g id="PolyCollection_1">
    <defs>
     <path d="M 40.12 -560.746059 
L 40.12 -365.03 
L 46.468065 -365.03 
L 52.816129 -365.03 
L 59.164194 -365.03 
L 65.512258 -365.03 
L 71.860323 -365.03 
L 78.208387 -365.03 
L 84.556452 -365.03 
L 90.904516 -365.03 
L 97.252581 -365.03 
L 103.600645 -365.03 
L 109.94871 -365.03 
L 116.296774 -365.03 
L 122.644839 -365.03 
L 128.992903 -365.03 
L 135.340968 -365.03 
L 141.689032 -365.03 
L 148.037097 -365.03 
L 154.385161 -365.03 
L 160.733226 -365.03 
L 167.08129 -365.03 
L 173.429355 -365.03 
L 179.777419 -365.03 
L 186.125484 -365.03 
L 192.473548 -365.03 
L 198.821613 -365.03 
L 205.169677 -365.03 
L 211.517742 -365.03 
L 217.865806 -365.03 
L 224.213871 -365.03 
L 230.561935 -365.03 
L 236.91 -365.03 
L 243.258065 -365.03 
L 249.606129 -365.03 
L 255.954194 -365.03 
L 262.302258 -365.03 
L 268.650323 -365.03 
L 274.998387 -365.03 
L 281.346452 -365.03 
L 287.694516 -365.03 
L 294.042581 -365.03 
L 300.390645 -365.03 
L 306.73871 -365.03 
L 313.086774 -365.03 
L 319.434839 -365.03 
L 325.782903 -365.03 
L 332.130968 -365.03 
L 338.479032 -365.03 
L 344.827097 -365.03 
L 351.175161 -365.03 
L 357.523226 -365.03 
L 363.87129 -365.03 
L 370.219355 -365.03 
L 376.567419 -365.03 
L 382.915484 -365.03 
L 389.263548 -365.03 
L 395.611613 -365.03 
L 401.959677 -365.03 
L 408.307742 -365.03 
L 414.655806 -365.03 
L 421.003871 -365.03 
L 427.351935 -365.03 
L 433.7 -365.03 
L 433.7 -535.570668 
L 433.7 -535.570668 
L 427.351935 -536.725443 
L 421.003871 -537.507103 
L 414.655806 -538.276615 
L 408.307742 -536.946379 
L 401.959677 -537.926831 
L 395.611613 -539.163242 
L 389.263548 -540.271882 
L 382.915484 -541.225721 
L 376.567419 -541.631779 
L 370.219355 -542.363524 
L 363.87129 -543.125775 
L 357.523226 -543.751139 
L 351.175161 -544.164666 
L 344.827097 -544.390214 
L 338.479032 -544.595727 
L 332.130968 -544.726707 
L 325.782903 -545.282306 
L 319.434839 -545.801842 
L 313.086774 -546.133707 
L 306.73871 -546.031711 
L 300.390645 -546.00418 
L 294.042581 -545.448018 
L 287.694516 -545.164244 
L 281.346452 -545.504094 
L 274.998387 -545.816946 
L 268.650323 -546.182597 
L 262.302258 -546.896907 
L 255.954194 -546.439075 
L 249.606129 -546.438478 
L 243.258065 -548.14627 
L 236.91 -547.865318 
L 230.561935 -548.414364 
L 224.213871 -548.29735 
L 217.865806 -548.086404 
L 211.517742 -547.624772 
L 205.169677 -545.958438 
L 198.821613 -545.832316 
L 192.473548 -546.941541 
L 186.125484 -548.51947 
L 179.777419 -549.503031 
L 173.429355 -550.324101 
L 167.08129 -550.448257 
L 160.733226 -549.915611 
L 154.385161 -548.262516 
L 148.037097 -548.880646 
L 141.689032 -550.931327 
L 135.340968 -553.13754 
L 128.992903 -553.253067 
L 122.644839 -553.554304 
L 116.296774 -552.404322 
L 109.94871 -550.771429 
L 103.600645 -551.16204 
L 97.252581 -552.408148 
L 90.904516 -553.504036 
L 84.556452 -554.822598 
L 78.208387 -555.248304 
L 71.860323 -554.403464 
L 65.512258 -552.368133 
L 59.164194 -553.545407 
L 52.816129 -557.183095 
L 46.468065 -558.609303 
L 40.12 -560.746059 
z
" id="md420f44581" style="stroke:#1f77b4;"/>
    </defs>
    <g clip-path="url(#p98d8c149f0)">
     <use style="fill:#1f77b4;stroke:#1f77b4;" x="0" xlink:href="#md420f44581" y="648"/>
    </g>
   </g>
   <g id="matplotlib.axis_1">
    <g id="xtick_1">
     <g id="line2d_1">
      <defs>
       <path d="M 0 0 
L 0 3.5 
" id="m9538336f34" style="stroke:#000000;stroke-width:0.8;"/>
      </defs>
      <g>
       <use style="stroke:#000000;stroke-width:0.8;" x="40.12" xlink:href="#m9538336f34" y="282.97"/>
      </g>
     </g>
    </g>
    <g id="xtick_2">
     <g id="line2d_2">
      <g>
       <use style="stroke:#000000;stroke-width:0.8;" x="75.9" xlink:href="#m9538336f34" y="282.97"/>
      </g>
     </g>
    </g>
    <g id="xtick_3">
     <g id="line2d_3">
      <g>
       <use style="stroke:#000000;stroke-width:0.8;" x="111.68" xlink:href="#m9538336f34" y="282.97"/>
      </g>
     </g>
    </g>
    <g id="xtick_4">
     <g id="line2d_4">
      <g>
       <use style="stroke:#000000;stroke-width:0.8;" x="147.46" xlink:href="#m9538336f34" y="282.97"/>
      </g>
     </g>
    </g>
    <g id="xtick_5">
     <g id="line2d_5">
      <g>
       <use style="stroke:#000000;stroke-width:0.8;" x="183.24" xlink:href="#m9538336f34" y="282.97"/>
      </g>
     </g>
    </g>
    <g id="xtick_6">
     <g id="line2d_6">
      <g>
       <use style="stroke:#000000;stroke-width:0.8;" x="219.02" xlink:href="#m9538336f34" y="282.97"/>
      </g>
     </g>
    </g>
    <g id="xtick_7">
     <g id="line2d_7">
      <g>
       <use style="stroke:#000000;stroke-width:0.8;" x="254.8" xlink:href="#m9538336f34" y="282.97"/>
      </g>
     </g>
    </g>
    <g id="xtick_8">
     <g id="line2d_8">
      <g>
       <use style="stroke:#000000;stroke-width:0.8;" x="290.58" xlink:href="#m9538336f34" y="282.97"/>
      </g>
     </g>
    </g>
    <g id="xtick_9">
     <g id="line2d_9">
      <g>
       <use style="stroke:#000000;stroke-width:0.8;" x="326.36" xlink:href="#m9538336f34" y="282.97"/>
      </g>
     </g>
    </g>
    <g id="xtick_10">
     <g id="line2d_10">
      <g>
       <use style="stroke:#000000;stroke-width:0.8;" x="362.14" xlink:href="#m9538336f34" y="282.97"/>
      </g>
     </g>
    </g>
    <g id="xtick_11">
     <g id="line2d_11">
      <g>
       <use style="stroke:#000000;stroke-width:0.8;" x="397.92" xlink:href="#m9538336f34" y="282.97"/>
      </g>
     </g>
    </g>
    <g id="xtick_12">
     <g id="line2d_12">
      <g>
       <use style="stroke:#000000;stroke-width:0.8;" x="433.7" xlink:href="#m9538336f34" y="282.97"/>
      </g>
     </g>
    </g>
   </g>
   <g id="matplotlib.axis_2">
    <g id="ytick_1">
     <g id="line2d_13">
      <defs>
       <path d="M 0 0 
L -3.5 0 
" id="me04c058afe" style="stroke:#000000;stroke-width:0.8;"/>
      </defs>
      <g>
       <use style="stroke:#000000;stroke-width:0.8;" x="40.12" xlink:href="#me04c058afe" y="282.97"/>
      </g>
     </g>
     <g id="text_1">
      <!-- 0.00 -->
      <defs>
       <path d="M 31.78125 66.40625 
Q 24.171875 66.40625 20.328125 58.90625 
Q 16.5 51.421875 16.5 36.375 
Q 16.5 21.390625 20.328125 13.890625 
Q 24.171875 6.390625 31.78125 6.390625 
Q 39.453125 6.390625 43.28125 13.890625 
Q 47.125 21.390625 47.125 36.375 
Q 47.125 51.421875 43.28125 58.90625 
Q 39.453125 66.40625 31.78125 66.40625 
z
M 31.78125 74.21875 
Q 44.046875 74.21875 50.515625 64.515625 
Q 56.984375 54.828125 56.984375 36.375 
Q 56.984375 17.96875 50.515625 8.265625 
Q 44.046875 -1.421875 31.78125 -1.421875 
Q 19.53125 -1.421875 13.0625 8.265625 
Q 6.59375 17.96875 6.59375 36.375 
Q 6.59375 54.828125 13.0625 64.515625 
Q 19.53125 74.21875 31.78125 74.21875 
z
" id="DejaVuSans-48"/>
       <path d="M 10.6875 12.40625 
L 21 12.40625 
L 21 0 
L 10.6875 0 
z
" id="DejaVuSans-46"/>
      </defs>
      <g transform="translate(10.854375 286.769219)scale(0.1 -0.1)">
       <use xlink:href="#DejaVuSans-48"/>
       <use x="63.623047" xlink:href="#DejaVuSans-46"/>
       <use x="95.410156" xlink:href="#DejaVuSans-48"/>
       <use x="159.033203" xlink:href="#DejaVuSans-48"/>
      </g>
     </g>
    </g>
    <g id="ytick_2">
     <g id="line2d_14">
      <g>
       <use style="stroke:#000000;stroke-width:0.8;" x="40.12" xlink:href="#me04c058afe" y="248.192222"/>
      </g>
     </g>
     <g id="text_2">
      <!-- 0.01 -->
      <defs>
       <path d="M 12.40625 8.296875 
L 28.515625 8.296875 
L 28.515625 63.921875 
L 10.984375 60.40625 
L 10.984375 69.390625 
L 28.421875 72.90625 
L 38.28125 72.90625 
L 38.28125 8.296875 
L 54.390625 8.296875 
L 54.390625 0 
L 12.40625 0 
z
" id="DejaVuSans-49"/>
      </defs>
      <g transform="translate(10.854375 251.991441)scale(0.1 -0.1)">
       <use xlink:href="#DejaVuSans-48"/>
       <use x="63.623047" xlink:href="#DejaVuSans-46"/>
       <use x="95.410156" xlink:href="#DejaVuSans-48"/>
       <use x="159.033203" xlink:href="#DejaVuSans-49"/>
      </g>
     </g>
    </g>
    <g id="ytick_3">
     <g id="line2d_15">
      <g>
       <use style="stroke:#000000;stroke-width:0.8;" x="40.12" xlink:href="#me04c058afe" y="213.414444"/>
      </g>
     </g>
     <g id="text_3">
      <!-- 0.02 -->
      <defs>
       <path d="M 19.1875 8.296875 
L 53.609375 8.296875 
L 53.609375 0 
L 7.328125 0 
L 7.328125 8.296875 
Q 12.9375 14.109375 22.625 23.890625 
Q 32.328125 33.6875 34.8125 36.53125 
Q 39.546875 41.84375 41.421875 45.53125 
Q 43.3125 49.21875 43.3125 52.78125 
Q 43.3125 58.59375 39.234375 62.25 
Q 35.15625 65.921875 28.609375 65.921875 
Q 23.96875 65.921875 18.8125 64.3125 
Q 13.671875 62.703125 7.8125 59.421875 
L 7.8125 69.390625 
Q 13.765625 71.78125 18.9375 73 
Q 24.125 74.21875 28.421875 74.21875 
Q 39.75 74.21875 46.484375 68.546875 
Q 53.21875 62.890625 53.21875 53.421875 
Q 53.21875 48.921875 51.53125 44.890625 
Q 49.859375 40.875 45.40625 35.40625 
Q 44.1875 33.984375 37.640625 27.21875 
Q 31.109375 20.453125 19.1875 8.296875 
z
" id="DejaVuSans-50"/>
      </defs>
      <g transform="translate(10.854375 217.213663)scale(0.1 -0.1)">
       <use xlink:href="#DejaVuSans-48"/>
       <use x="63.623047" xlink:href="#DejaVuSans-46"/>
       <use x="95.410156" xlink:href="#DejaVuSans-48"/>
       <use x="159.033203" xlink:href="#DejaVuSans-50"/>
      </g>
     </g>
    </g>
    <g id="ytick_4">
     <g id="line2d_16">
      <g>
       <use style="stroke:#000000;stroke-width:0.8;" x="40.12" xlink:href="#me04c058afe" y="178.636666"/>
      </g>
     </g>
     <g id="text_4">
      <!-- 0.03 -->
      <defs>
       <path d="M 40.578125 39.3125 
Q 47.65625 37.796875 51.625 33 
Q 55.609375 28.21875 55.609375 21.1875 
Q 55.609375 10.40625 48.1875 4.484375 
Q 40.765625 -1.421875 27.09375 -1.421875 
Q 22.515625 -1.421875 17.65625 -0.515625 
Q 12.796875 0.390625 7.625 2.203125 
L 7.625 11.71875 
Q 11.71875 9.328125 16.59375 8.109375 
Q 21.484375 6.890625 26.8125 6.890625 
Q 36.078125 6.890625 40.9375 10.546875 
Q 45.796875 14.203125 45.796875 21.1875 
Q 45.796875 27.640625 41.28125 31.265625 
Q 36.765625 34.90625 28.71875 34.90625 
L 20.21875 34.90625 
L 20.21875 43.015625 
L 29.109375 43.015625 
Q 36.375 43.015625 40.234375 45.921875 
Q 44.09375 48.828125 44.09375 54.296875 
Q 44.09375 59.90625 40.109375 62.90625 
Q 36.140625 65.921875 28.71875 65.921875 
Q 24.65625 65.921875 20.015625 65.03125 
Q 15.375 64.15625 9.8125 62.3125 
L 9.8125 71.09375 
Q 15.4375 72.65625 20.34375 73.4375 
Q 25.25 74.21875 29.59375 74.21875 
Q 40.828125 74.21875 47.359375 69.109375 
Q 53.90625 64.015625 53.90625 55.328125 
Q 53.90625 49.265625 50.4375 45.09375 
Q 46.96875 40.921875 40.578125 39.3125 
z
" id="DejaVuSans-51"/>
      </defs>
      <g transform="translate(10.854375 182.435885)scale(0.1 -0.1)">
       <use xlink:href="#DejaVuSans-48"/>
       <use x="63.623047" xlink:href="#DejaVuSans-46"/>
       <use x="95.410156" xlink:href="#DejaVuSans-48"/>
       <use x="159.033203" xlink:href="#DejaVuSans-51"/>
      </g>
     </g>
    </g>
    <g id="ytick_5">
     <g id="line2d_17">
      <g>
       <use style="stroke:#000000;stroke-width:0.8;" x="40.12" xlink:href="#me04c058afe" y="143.858888"/>
      </g>
     </g>
     <g id="text_5">
      <!-- 0.04 -->
      <defs>
       <path d="M 37.796875 64.3125 
L 12.890625 25.390625 
L 37.796875 25.390625 
z
M 35.203125 72.90625 
L 47.609375 72.90625 
L 47.609375 25.390625 
L 58.015625 25.390625 
L 58.015625 17.1875 
L 47.609375 17.1875 
L 47.609375 0 
L 37.796875 0 
L 37.796875 17.1875 
L 4.890625 17.1875 
L 4.890625 26.703125 
z
" id="DejaVuSans-52"/>
      </defs>
      <g transform="translate(10.854375 147.658107)scale(0.1 -0.1)">
       <use xlink:href="#DejaVuSans-48"/>
       <use x="63.623047" xlink:href="#DejaVuSans-46"/>
       <use x="95.410156" xlink:href="#DejaVuSans-48"/>
       <use x="159.033203" xlink:href="#DejaVuSans-52"/>
      </g>
     </g>
    </g>
    <g id="ytick_6">
     <g id="line2d_18">
      <g>
       <use style="stroke:#000000;stroke-width:0.8;" x="40.12" xlink:href="#me04c058afe" y="109.08111"/>
      </g>
     </g>
     <g id="text_6">
      <!-- 0.05 -->
      <defs>
       <path d="M 10.796875 72.90625 
L 49.515625 72.90625 
L 49.515625 64.59375 
L 19.828125 64.59375 
L 19.828125 46.734375 
Q 21.96875 47.46875 24.109375 47.828125 
Q 26.265625 48.1875 28.421875 48.1875 
Q 40.625 48.1875 47.75 41.5 
Q 54.890625 34.8125 54.890625 23.390625 
Q 54.890625 11.625 47.5625 5.09375 
Q 40.234375 -1.421875 26.90625 -1.421875 
Q 22.3125 -1.421875 17.546875 -0.640625 
Q 12.796875 0.140625 7.71875 1.703125 
L 7.71875 11.625 
Q 12.109375 9.234375 16.796875 8.0625 
Q 21.484375 6.890625 26.703125 6.890625 
Q 35.15625 6.890625 40.078125 11.328125 
Q 45.015625 15.765625 45.015625 23.390625 
Q 45.015625 31 40.078125 35.4375 
Q 35.15625 39.890625 26.703125 39.890625 
Q 22.75 39.890625 18.8125 39.015625 
Q 14.890625 38.140625 10.796875 36.28125 
z
" id="DejaVuSans-53"/>
      </defs>
      <g transform="translate(10.854375 112.880329)scale(0.1 -0.1)">
       <use xlink:href="#DejaVuSans-48"/>
       <use x="63.623047" xlink:href="#DejaVuSans-46"/>
       <use x="95.410156" xlink:href="#DejaVuSans-48"/>
       <use x="159.033203" xlink:href="#DejaVuSans-53"/>
      </g>
     </g>
    </g>
    <g id="ytick_7">
     <g id="line2d_19">
      <g>
       <use style="stroke:#000000;stroke-width:0.8;" x="40.12" xlink:href="#me04c058afe" y="74.303333"/>
      </g>
     </g>
     <g id="text_7">
      <!-- 0.06 -->
      <defs>
       <path d="M 33.015625 40.375 
Q 26.375 40.375 22.484375 35.828125 
Q 18.609375 31.296875 18.609375 23.390625 
Q 18.609375 15.53125 22.484375 10.953125 
Q 26.375 6.390625 33.015625 6.390625 
Q 39.65625 6.390625 43.53125 10.953125 
Q 47.40625 15.53125 47.40625 23.390625 
Q 47.40625 31.296875 43.53125 35.828125 
Q 39.65625 40.375 33.015625 40.375 
z
M 52.59375 71.296875 
L 52.59375 62.3125 
Q 48.875 64.0625 45.09375 64.984375 
Q 41.3125 65.921875 37.59375 65.921875 
Q 27.828125 65.921875 22.671875 59.328125 
Q 17.53125 52.734375 16.796875 39.40625 
Q 19.671875 43.65625 24.015625 45.921875 
Q 28.375 48.1875 33.59375 48.1875 
Q 44.578125 48.1875 50.953125 41.515625 
Q 57.328125 34.859375 57.328125 23.390625 
Q 57.328125 12.15625 50.6875 5.359375 
Q 44.046875 -1.421875 33.015625 -1.421875 
Q 20.359375 -1.421875 13.671875 8.265625 
Q 6.984375 17.96875 6.984375 36.375 
Q 6.984375 53.65625 15.1875 63.9375 
Q 23.390625 74.21875 37.203125 74.21875 
Q 40.921875 74.21875 44.703125 73.484375 
Q 48.484375 72.75 52.59375 71.296875 
z
" id="DejaVuSans-54"/>
      </defs>
      <g transform="translate(10.854375 78.102551)scale(0.1 -0.1)">
       <use xlink:href="#DejaVuSans-48"/>
       <use x="63.623047" xlink:href="#DejaVuSans-46"/>
       <use x="95.410156" xlink:href="#DejaVuSans-48"/>
       <use x="159.033203" xlink:href="#DejaVuSans-54"/>
      </g>
     </g>
    </g>
    <g id="ytick_8">
     <g id="line2d_20">
      <g>
       <use style="stroke:#000000;stroke-width:0.8;" x="40.12" xlink:href="#me04c058afe" y="39.525555"/>
      </g>
     </g>
     <g id="text_8">
      <!-- 0.07 -->
      <defs>
       <path d="M 8.203125 72.90625 
L 55.078125 72.90625 
L 55.078125 68.703125 
L 28.609375 0 
L 18.3125 0 
L 43.21875 64.59375 
L 8.203125 64.59375 
z
" id="DejaVuSans-55"/>
      </defs>
      <g transform="translate(10.854375 43.324773)scale(0.1 -0.1)">
       <use xlink:href="#DejaVuSans-48"/>
       <use x="63.623047" xlink:href="#DejaVuSans-46"/>
       <use x="95.410156" xlink:href="#DejaVuSans-48"/>
       <use x="159.033203" xlink:href="#DejaVuSans-55"/>
      </g>
     </g>
    </g>
   </g>
   <g id="line2d_21">
    <path clip-path="url(#p98d8c149f0)" d="M 40.12 87.253941 
L 46.468065 89.390697 
L 52.816129 90.816905 
L 59.164194 94.454593 
L 65.512258 95.631867 
L 71.860323 93.596536 
L 78.208387 92.751696 
L 84.556452 93.177402 
L 90.904516 94.495964 
L 97.252581 95.591852 
L 103.600645 96.83796 
L 109.94871 97.228571 
L 116.296774 95.595678 
L 122.644839 94.445696 
L 128.992903 94.746933 
L 135.340968 94.86246 
L 141.689032 97.068673 
L 148.037097 99.119354 
L 154.385161 99.737484 
L 160.733226 98.084389 
L 167.08129 97.551743 
L 173.429355 97.675899 
L 179.777419 98.496969 
L 186.125484 99.48053 
L 192.473548 101.058459 
L 198.821613 102.167684 
L 205.169677 102.041562 
L 211.517742 100.375228 
L 217.865806 99.913596 
L 224.213871 99.70265 
L 230.561935 99.585636 
L 236.91 100.134682 
L 243.258065 99.85373 
L 249.606129 101.561522 
L 255.954194 101.560925 
L 262.302258 101.103093 
L 268.650323 101.817403 
L 274.998387 102.183054 
L 281.346452 102.495906 
L 287.694516 102.835756 
L 294.042581 102.551982 
L 300.390645 101.99582 
L 306.73871 101.968289 
L 313.086774 101.866293 
L 319.434839 102.198158 
L 325.782903 102.717694 
L 332.130968 103.273293 
L 338.479032 103.404273 
L 344.827097 103.609786 
L 351.175161 103.835334 
L 357.523226 104.248861 
L 363.87129 104.874225 
L 370.219355 105.636476 
L 376.567419 106.368221 
L 382.915484 106.774279 
L 389.263548 107.728118 
L 395.611613 108.836758 
L 401.959677 110.073169 
L 408.307742 111.053621 
L 414.655806 109.723385 
L 421.003871 110.492897 
L 427.351935 111.274557 
L 433.7 112.429332 
" style="fill:none;stroke:#1f77b4;stroke-linecap:square;stroke-width:1.5;"/>
   </g>
   <g id="patch_3">
    <path d="M 40.12 282.97 
L 40.12 25.44 
" style="fill:none;stroke:#000000;stroke-linecap:square;stroke-linejoin:miter;stroke-width:0.8;"/>
   </g>
   <g id="patch_4">
    <path d="M 433.7 282.97 
L 433.7 25.44 
" style="fill:none;stroke:#000000;stroke-linecap:square;stroke-linejoin:miter;stroke-width:0.8;"/>
   </g>
   <g id="patch_5">
    <path d="M 40.12 282.97 
L 433.7 282.97 
" style="fill:none;stroke:#000000;stroke-linecap:square;stroke-linejoin:miter;stroke-width:0.8;"/>
   </g>
   <g id="patch_6">
    <path d="M 40.12 25.44 
L 433.7 25.44 
" style="fill:none;stroke:#000000;stroke-linecap:square;stroke-linejoin:miter;stroke-width:0.8;"/>
   </g>
   <g id="text_9">
    <!-- Midwest -->
    <defs>
     <path d="M 9.8125 72.90625 
L 24.515625 72.90625 
L 43.109375 23.296875 
L 61.8125 72.90625 
L 76.515625 72.90625 
L 76.515625 0 
L 66.890625 0 
L 66.890625 64.015625 
L 48.09375 14.015625 
L 38.1875 14.015625 
L 19.390625 64.015625 
L 19.390625 0 
L 9.8125 0 
z
" id="DejaVuSans-77"/>
     <path d="M 9.421875 54.6875 
L 18.40625 54.6875 
L 18.40625 0 
L 9.421875 0 
z
M 9.421875 75.984375 
L 18.40625 75.984375 
L 18.40625 64.59375 
L 9.421875 64.59375 
z
" id="DejaVuSans-105"/>
     <path d="M 45.40625 46.390625 
L 45.40625 75.984375 
L 54.390625 75.984375 
L 54.390625 0 
L 45.40625 0 
L 45.40625 8.203125 
Q 42.578125 3.328125 38.25 0.953125 
Q 33.9375 -1.421875 27.875 -1.421875 
Q 17.96875 -1.421875 11.734375 6.484375 
Q 5.515625 14.40625 5.515625 27.296875 
Q 5.515625 40.1875 11.734375 48.09375 
Q 17.96875 56 27.875 56 
Q 33.9375 56 38.25 53.625 
Q 42.578125 51.265625 45.40625 46.390625 
z
M 14.796875 27.296875 
Q 14.796875 17.390625 18.875 11.75 
Q 22.953125 6.109375 30.078125 6.109375 
Q 37.203125 6.109375 41.296875 11.75 
Q 45.40625 17.390625 45.40625 27.296875 
Q 45.40625 37.203125 41.296875 42.84375 
Q 37.203125 48.484375 30.078125 48.484375 
Q 22.953125 48.484375 18.875 42.84375 
Q 14.796875 37.203125 14.796875 27.296875 
z
" id="DejaVuSans-100"/>
     <path d="M 4.203125 54.6875 
L 13.1875 54.6875 
L 24.421875 12.015625 
L 35.59375 54.6875 
L 46.1875 54.6875 
L 57.421875 12.015625 
L 68.609375 54.6875 
L 77.59375 54.6875 
L 63.28125 0 
L 52.6875 0 
L 40.921875 44.828125 
L 29.109375 0 
L 18.5 0 
z
" id="DejaVuSans-119"/>
     <path d="M 56.203125 29.59375 
L 56.203125 25.203125 
L 14.890625 25.203125 
Q 15.484375 15.921875 20.484375 11.0625 
Q 25.484375 6.203125 34.421875 6.203125 
Q 39.59375 6.203125 44.453125 7.46875 
Q 49.3125 8.734375 54.109375 11.28125 
L 54.109375 2.78125 
Q 49.265625 0.734375 44.1875 -0.34375 
Q 39.109375 -1.421875 33.890625 -1.421875 
Q 20.796875 -1.421875 13.15625 6.1875 
Q 5.515625 13.8125 5.515625 26.8125 
Q 5.515625 40.234375 12.765625 48.109375 
Q 20.015625 56 32.328125 56 
Q 43.359375 56 49.78125 48.890625 
Q 56.203125 41.796875 56.203125 29.59375 
z
M 47.21875 32.234375 
Q 47.125 39.59375 43.09375 43.984375 
Q 39.0625 48.390625 32.421875 48.390625 
Q 24.90625 48.390625 20.390625 44.140625 
Q 15.875 39.890625 15.1875 32.171875 
z
" id="DejaVuSans-101"/>
     <path d="M 44.28125 53.078125 
L 44.28125 44.578125 
Q 40.484375 46.53125 36.375 47.5 
Q 32.28125 48.484375 27.875 48.484375 
Q 21.1875 48.484375 17.84375 46.4375 
Q 14.5 44.390625 14.5 40.28125 
Q 14.5 37.15625 16.890625 35.375 
Q 19.28125 33.59375 26.515625 31.984375 
L 29.59375 31.296875 
Q 39.15625 29.25 43.1875 25.515625 
Q 47.21875 21.78125 47.21875 15.09375 
Q 47.21875 7.46875 41.1875 3.015625 
Q 35.15625 -1.421875 24.609375 -1.421875 
Q 20.21875 -1.421875 15.453125 -0.5625 
Q 10.6875 0.296875 5.421875 2 
L 5.421875 11.28125 
Q 10.40625 8.6875 15.234375 7.390625 
Q 20.0625 6.109375 24.8125 6.109375 
Q 31.15625 6.109375 34.5625 8.28125 
Q 37.984375 10.453125 37.984375 14.40625 
Q 37.984375 18.0625 35.515625 20.015625 
Q 33.0625 21.96875 24.703125 23.78125 
L 21.578125 24.515625 
Q 13.234375 26.265625 9.515625 29.90625 
Q 5.8125 33.546875 5.8125 39.890625 
Q 5.8125 47.609375 11.28125 51.796875 
Q 16.75 56 26.8125 56 
Q 31.78125 56 36.171875 55.265625 
Q 40.578125 54.546875 44.28125 53.078125 
z
" id="DejaVuSans-115"/>
     <path d="M 18.3125 70.21875 
L 18.3125 54.6875 
L 36.8125 54.6875 
L 36.8125 47.703125 
L 18.3125 47.703125 
L 18.3125 18.015625 
Q 18.3125 11.328125 20.140625 9.421875 
Q 21.96875 7.515625 27.59375 7.515625 
L 36.8125 7.515625 
L 36.8125 0 
L 27.59375 0 
Q 17.1875 0 13.234375 3.875 
Q 9.28125 7.765625 9.28125 18.015625 
L 9.28125 47.703125 
L 2.6875 47.703125 
L 2.6875 54.6875 
L 9.28125 54.6875 
L 9.28125 70.21875 
z
" id="DejaVuSans-116"/>
    </defs>
    <g transform="translate(212.180625 19.44)scale(0.12 -0.12)">
     <use xlink:href="#DejaVuSans-77"/>
     <use x="86.279297" xlink:href="#DejaVuSans-105"/>
     <use x="114.0625" xlink:href="#DejaVuSans-100"/>
     <use x="177.539062" xlink:href="#DejaVuSans-119"/>
     <use x="259.326172" xlink:href="#DejaVuSans-101"/>
     <use x="320.849609" xlink:href="#DejaVuSans-115"/>
     <use x="372.949219" xlink:href="#DejaVuSans-116"/>
    </g>
   </g>
  </g>
  <g id="axes_2">
   <g id="patch_7">
    <path d="M 454.58 282.97 
L 848.16 282.97 
L 848.16 25.44 
L 454.58 25.44 
z
" style="fill:#ffffff;"/>
   </g>
   <g id="PolyCollection_2">
    <defs>
     <path d="M 454.58 -569.457487 
L 454.58 -365.03 
L 460.928065 -365.03 
L 467.276129 -365.03 
L 473.624194 -365.03 
L 479.972258 -365.03 
L 486.320323 -365.03 
L 492.668387 -365.03 
L 499.016452 -365.03 
L 505.364516 -365.03 
L 511.712581 -365.03 
L 518.060645 -365.03 
L 524.40871 -365.03 
L 530.756774 -365.03 
L 537.104839 -365.03 
L 543.452903 -365.03 
L 549.800968 -365.03 
L 556.149032 -365.03 
L 562.497097 -365.03 
L 568.845161 -365.03 
L 575.193226 -365.03 
L 581.54129 -365.03 
L 587.889355 -365.03 
L 594.237419 -365.03 
L 600.585484 -365.03 
L 606.933548 -365.03 
L 613.281613 -365.03 
L 619.629677 -365.03 
L 625.977742 -365.03 
L 632.325806 -365.03 
L 638.673871 -365.03 
L 645.021935 -365.03 
L 651.37 -365.03 
L 657.718065 -365.03 
L 664.066129 -365.03 
L 670.414194 -365.03 
L 676.762258 -365.03 
L 683.110323 -365.03 
L 689.458387 -365.03 
L 695.806452 -365.03 
L 702.154516 -365.03 
L 708.502581 -365.03 
L 714.850645 -365.03 
L 721.19871 -365.03 
L 727.546774 -365.03 
L 733.894839 -365.03 
L 740.242903 -365.03 
L 746.590968 -365.03 
L 752.939032 -365.03 
L 759.287097 -365.03 
L 765.635161 -365.03 
L 771.983226 -365.03 
L 778.33129 -365.03 
L 784.679355 -365.03 
L 791.027419 -365.03 
L 797.375484 -365.03 
L 803.723548 -365.03 
L 810.071613 -365.03 
L 816.419677 -365.03 
L 822.767742 -365.03 
L 829.115806 -365.03 
L 835.463871 -365.03 
L 841.811935 -365.03 
L 848.16 -365.03 
L 848.16 -609.531074 
L 848.16 -609.531074 
L 841.811935 -609.632813 
L 835.463871 -609.72891 
L 829.115806 -609.689232 
L 822.767742 -609.711502 
L 816.419677 -609.738403 
L 810.071613 -610.003972 
L 803.723548 -610.296667 
L 797.375484 -609.860096 
L 791.027419 -609.807035 
L 784.679355 -609.796927 
L 778.33129 -609.905806 
L 771.983226 -610.102685 
L 765.635161 -610.274413 
L 759.287097 -610.019895 
L 752.939032 -609.681016 
L 746.590968 -610.112089 
L 740.242903 -609.975674 
L 733.894839 -609.903603 
L 727.546774 -609.715947 
L 721.19871 -609.385271 
L 714.850645 -609.068391 
L 708.502581 -608.592383 
L 702.154516 -607.923838 
L 695.806452 -607.579376 
L 689.458387 -607.393066 
L 683.110323 -607.177514 
L 676.762258 -606.920124 
L 670.414194 -606.482528 
L 664.066129 -605.84627 
L 657.718065 -605.616983 
L 651.37 -606.138798 
L 645.021935 -606.0201 
L 638.673871 -605.665517 
L 632.325806 -605.172335 
L 625.977742 -604.826642 
L 619.629677 -603.979857 
L 613.281613 -603.69644 
L 606.933548 -603.791963 
L 600.585484 -604.086734 
L 594.237419 -603.373676 
L 587.889355 -602.850553 
L 581.54129 -602.441117 
L 575.193226 -601.478326 
L 568.845161 -600.37103 
L 562.497097 -600.187508 
L 556.149032 -599.986948 
L 549.800968 -599.70426 
L 543.452903 -599.205425 
L 537.104839 -597.009754 
L 530.756774 -594.758583 
L 524.40871 -593.060691 
L 518.060645 -592.427601 
L 511.712581 -591.965518 
L 505.364516 -591.287475 
L 499.016452 -590.120071 
L 492.668387 -588.122982 
L 486.320323 -582.410657 
L 479.972258 -577.544133 
L 473.624194 -575.148382 
L 467.276129 -574.623577 
L 460.928065 -574.138847 
L 454.58 -569.457487 
z
" id="mc099752b2b" style="stroke:#ff7f0e;"/>
    </defs>
    <g clip-path="url(#p7895851687)">
     <use style="fill:#ff7f0e;stroke:#ff7f0e;" x="0" xlink:href="#mc099752b2b" y="648"/>
    </g>
   </g>
   <g id="matplotlib.axis_3">
    <g id="xtick_13">
     <g id="line2d_22">
      <g>
       <use style="stroke:#000000;stroke-width:0.8;" x="454.58" xlink:href="#m9538336f34" y="282.97"/>
      </g>
     </g>
    </g>
    <g id="xtick_14">
     <g id="line2d_23">
      <g>
       <use style="stroke:#000000;stroke-width:0.8;" x="490.36" xlink:href="#m9538336f34" y="282.97"/>
      </g>
     </g>
    </g>
    <g id="xtick_15">
     <g id="line2d_24">
      <g>
       <use style="stroke:#000000;stroke-width:0.8;" x="526.14" xlink:href="#m9538336f34" y="282.97"/>
      </g>
     </g>
    </g>
    <g id="xtick_16">
     <g id="line2d_25">
      <g>
       <use style="stroke:#000000;stroke-width:0.8;" x="561.92" xlink:href="#m9538336f34" y="282.97"/>
      </g>
     </g>
    </g>
    <g id="xtick_17">
     <g id="line2d_26">
      <g>
       <use style="stroke:#000000;stroke-width:0.8;" x="597.7" xlink:href="#m9538336f34" y="282.97"/>
      </g>
     </g>
    </g>
    <g id="xtick_18">
     <g id="line2d_27">
      <g>
       <use style="stroke:#000000;stroke-width:0.8;" x="633.48" xlink:href="#m9538336f34" y="282.97"/>
      </g>
     </g>
    </g>
    <g id="xtick_19">
     <g id="line2d_28">
      <g>
       <use style="stroke:#000000;stroke-width:0.8;" x="669.26" xlink:href="#m9538336f34" y="282.97"/>
      </g>
     </g>
    </g>
    <g id="xtick_20">
     <g id="line2d_29">
      <g>
       <use style="stroke:#000000;stroke-width:0.8;" x="705.04" xlink:href="#m9538336f34" y="282.97"/>
      </g>
     </g>
    </g>
    <g id="xtick_21">
     <g id="line2d_30">
      <g>
       <use style="stroke:#000000;stroke-width:0.8;" x="740.82" xlink:href="#m9538336f34" y="282.97"/>
      </g>
     </g>
    </g>
    <g id="xtick_22">
     <g id="line2d_31">
      <g>
       <use style="stroke:#000000;stroke-width:0.8;" x="776.6" xlink:href="#m9538336f34" y="282.97"/>
      </g>
     </g>
    </g>
    <g id="xtick_23">
     <g id="line2d_32">
      <g>
       <use style="stroke:#000000;stroke-width:0.8;" x="812.38" xlink:href="#m9538336f34" y="282.97"/>
      </g>
     </g>
    </g>
    <g id="xtick_24">
     <g id="line2d_33">
      <g>
       <use style="stroke:#000000;stroke-width:0.8;" x="848.16" xlink:href="#m9538336f34" y="282.97"/>
      </g>
     </g>
    </g>
   </g>
   <g id="matplotlib.axis_4">
    <g id="ytick_9">
     <g id="line2d_34">
      <g>
       <use style="stroke:#000000;stroke-width:0.8;" x="454.58" xlink:href="#me04c058afe" y="282.97"/>
      </g>
     </g>
    </g>
    <g id="ytick_10">
     <g id="line2d_35">
      <g>
       <use style="stroke:#000000;stroke-width:0.8;" x="454.58" xlink:href="#me04c058afe" y="248.192222"/>
      </g>
     </g>
    </g>
    <g id="ytick_11">
     <g id="line2d_36">
      <g>
       <use style="stroke:#000000;stroke-width:0.8;" x="454.58" xlink:href="#me04c058afe" y="213.414444"/>
      </g>
     </g>
    </g>
    <g id="ytick_12">
     <g id="line2d_37">
      <g>
       <use style="stroke:#000000;stroke-width:0.8;" x="454.58" xlink:href="#me04c058afe" y="178.636666"/>
      </g>
     </g>
    </g>
    <g id="ytick_13">
     <g id="line2d_38">
      <g>
       <use style="stroke:#000000;stroke-width:0.8;" x="454.58" xlink:href="#me04c058afe" y="143.858888"/>
      </g>
     </g>
    </g>
    <g id="ytick_14">
     <g id="line2d_39">
      <g>
       <use style="stroke:#000000;stroke-width:0.8;" x="454.58" xlink:href="#me04c058afe" y="109.08111"/>
      </g>
     </g>
    </g>
    <g id="ytick_15">
     <g id="line2d_40">
      <g>
       <use style="stroke:#000000;stroke-width:0.8;" x="454.58" xlink:href="#me04c058afe" y="74.303333"/>
      </g>
     </g>
    </g>
    <g id="ytick_16">
     <g id="line2d_41">
      <g>
       <use style="stroke:#000000;stroke-width:0.8;" x="454.58" xlink:href="#me04c058afe" y="39.525555"/>
      </g>
     </g>
    </g>
   </g>
   <g id="line2d_42">
    <path clip-path="url(#p7895851687)" d="M 454.58 78.542513 
L 460.928065 73.861153 
L 467.276129 73.376423 
L 473.624194 72.851618 
L 479.972258 70.455867 
L 486.320323 65.589343 
L 492.668387 59.877018 
L 499.016452 57.879929 
L 505.364516 56.712525 
L 511.712581 56.034482 
L 518.060645 55.572399 
L 524.40871 54.939309 
L 530.756774 53.241417 
L 537.104839 50.990246 
L 543.452903 48.794575 
L 549.800968 48.29574 
L 556.149032 48.013052 
L 562.497097 47.812492 
L 568.845161 47.62897 
L 575.193226 46.521674 
L 581.54129 45.558883 
L 587.889355 45.149447 
L 594.237419 44.626324 
L 600.585484 43.913266 
L 606.933548 44.208037 
L 613.281613 44.30356 
L 619.629677 44.020143 
L 625.977742 43.173358 
L 632.325806 42.827665 
L 638.673871 42.334483 
L 645.021935 41.9799 
L 651.37 41.861202 
L 657.718065 42.383017 
L 664.066129 42.15373 
L 670.414194 41.517472 
L 676.762258 41.079876 
L 683.110323 40.822486 
L 689.458387 40.606934 
L 695.806452 40.420624 
L 702.154516 40.076162 
L 708.502581 39.407617 
L 714.850645 38.931609 
L 721.19871 38.614729 
L 727.546774 38.284053 
L 733.894839 38.096397 
L 740.242903 38.024326 
L 746.590968 37.887911 
L 752.939032 38.318984 
L 759.287097 37.980105 
L 765.635161 37.725587 
L 771.983226 37.897315 
L 778.33129 38.094194 
L 784.679355 38.203073 
L 791.027419 38.192965 
L 797.375484 38.139904 
L 803.723548 37.703333 
L 810.071613 37.996028 
L 816.419677 38.261597 
L 822.767742 38.288498 
L 829.115806 38.310768 
L 835.463871 38.27109 
L 841.811935 38.367187 
L 848.16 38.468926 
" style="fill:none;stroke:#ff7f0e;stroke-linecap:square;stroke-width:1.5;"/>
   </g>
   <g id="patch_8">
    <path d="M 454.58 282.97 
L 454.58 25.44 
" style="fill:none;stroke:#000000;stroke-linecap:square;stroke-linejoin:miter;stroke-width:0.8;"/>
   </g>
   <g id="patch_9">
    <path d="M 848.16 282.97 
L 848.16 25.44 
" style="fill:none;stroke:#000000;stroke-linecap:square;stroke-linejoin:miter;stroke-width:0.8;"/>
   </g>
   <g id="patch_10">
    <path d="M 454.58 282.97 
L 848.16 282.97 
" style="fill:none;stroke:#000000;stroke-linecap:square;stroke-linejoin:miter;stroke-width:0.8;"/>
   </g>
   <g id="patch_11">
    <path d="M 454.58 25.44 
L 848.16 25.44 
" style="fill:none;stroke:#000000;stroke-linecap:square;stroke-linejoin:miter;stroke-width:0.8;"/>
   </g>
   <g id="text_10">
    <!-- Northeast -->
    <defs>
     <path d="M 9.8125 72.90625 
L 23.09375 72.90625 
L 55.421875 11.921875 
L 55.421875 72.90625 
L 64.984375 72.90625 
L 64.984375 0 
L 51.703125 0 
L 19.390625 60.984375 
L 19.390625 0 
L 9.8125 0 
z
" id="DejaVuSans-78"/>
     <path d="M 30.609375 48.390625 
Q 23.390625 48.390625 19.1875 42.75 
Q 14.984375 37.109375 14.984375 27.296875 
Q 14.984375 17.484375 19.15625 11.84375 
Q 23.34375 6.203125 30.609375 6.203125 
Q 37.796875 6.203125 41.984375 11.859375 
Q 46.1875 17.53125 46.1875 27.296875 
Q 46.1875 37.015625 41.984375 42.703125 
Q 37.796875 48.390625 30.609375 48.390625 
z
M 30.609375 56 
Q 42.328125 56 49.015625 48.375 
Q 55.71875 40.765625 55.71875 27.296875 
Q 55.71875 13.875 49.015625 6.21875 
Q 42.328125 -1.421875 30.609375 -1.421875 
Q 18.84375 -1.421875 12.171875 6.21875 
Q 5.515625 13.875 5.515625 27.296875 
Q 5.515625 40.765625 12.171875 48.375 
Q 18.84375 56 30.609375 56 
z
" id="DejaVuSans-111"/>
     <path d="M 41.109375 46.296875 
Q 39.59375 47.171875 37.8125 47.578125 
Q 36.03125 48 33.890625 48 
Q 26.265625 48 22.1875 43.046875 
Q 18.109375 38.09375 18.109375 28.8125 
L 18.109375 0 
L 9.078125 0 
L 9.078125 54.6875 
L 18.109375 54.6875 
L 18.109375 46.1875 
Q 20.953125 51.171875 25.484375 53.578125 
Q 30.03125 56 36.53125 56 
Q 37.453125 56 38.578125 55.875 
Q 39.703125 55.765625 41.0625 55.515625 
z
" id="DejaVuSans-114"/>
     <path d="M 54.890625 33.015625 
L 54.890625 0 
L 45.90625 0 
L 45.90625 32.71875 
Q 45.90625 40.484375 42.875 44.328125 
Q 39.84375 48.1875 33.796875 48.1875 
Q 26.515625 48.1875 22.3125 43.546875 
Q 18.109375 38.921875 18.109375 30.90625 
L 18.109375 0 
L 9.078125 0 
L 9.078125 75.984375 
L 18.109375 75.984375 
L 18.109375 46.1875 
Q 21.34375 51.125 25.703125 53.5625 
Q 30.078125 56 35.796875 56 
Q 45.21875 56 50.046875 50.171875 
Q 54.890625 44.34375 54.890625 33.015625 
z
" id="DejaVuSans-104"/>
     <path d="M 34.28125 27.484375 
Q 23.390625 27.484375 19.1875 25 
Q 14.984375 22.515625 14.984375 16.5 
Q 14.984375 11.71875 18.140625 8.90625 
Q 21.296875 6.109375 26.703125 6.109375 
Q 34.1875 6.109375 38.703125 11.40625 
Q 43.21875 16.703125 43.21875 25.484375 
L 43.21875 27.484375 
z
M 52.203125 31.203125 
L 52.203125 0 
L 43.21875 0 
L 43.21875 8.296875 
Q 40.140625 3.328125 35.546875 0.953125 
Q 30.953125 -1.421875 24.3125 -1.421875 
Q 15.921875 -1.421875 10.953125 3.296875 
Q 6 8.015625 6 15.921875 
Q 6 25.140625 12.171875 29.828125 
Q 18.359375 34.515625 30.609375 34.515625 
L 43.21875 34.515625 
L 43.21875 35.40625 
Q 43.21875 41.609375 39.140625 45 
Q 35.0625 48.390625 27.6875 48.390625 
Q 23 48.390625 18.546875 47.265625 
Q 14.109375 46.140625 10.015625 43.890625 
L 10.015625 52.203125 
Q 14.9375 54.109375 19.578125 55.046875 
Q 24.21875 56 28.609375 56 
Q 40.484375 56 46.34375 49.84375 
Q 52.203125 43.703125 52.203125 31.203125 
z
" id="DejaVuSans-97"/>
    </defs>
    <g transform="translate(621.742188 19.44)scale(0.12 -0.12)">
     <use xlink:href="#DejaVuSans-78"/>
     <use x="74.804688" xlink:href="#DejaVuSans-111"/>
     <use x="135.986328" xlink:href="#DejaVuSans-114"/>
     <use x="177.099609" xlink:href="#DejaVuSans-116"/>
     <use x="216.308594" xlink:href="#DejaVuSans-104"/>
     <use x="279.6875" xlink:href="#DejaVuSans-101"/>
     <use x="341.210938" xlink:href="#DejaVuSans-97"/>
     <use x="402.490234" xlink:href="#DejaVuSans-115"/>
     <use x="454.589844" xlink:href="#DejaVuSans-116"/>
    </g>
   </g>
  </g>
  <g id="axes_3">
   <g id="patch_12">
    <path d="M 40.12 572.06 
L 433.7 572.06 
L 433.7 314.53 
L 40.12 314.53 
z
" style="fill:#ffffff;"/>
   </g>
   <g id="PolyCollection_3">
    <defs>
     <path d="M 40.12 -220.931841 
L 40.12 -75.94 
L 46.468065 -75.94 
L 52.816129 -75.94 
L 59.164194 -75.94 
L 65.512258 -75.94 
L 71.860323 -75.94 
L 78.208387 -75.94 
L 84.556452 -75.94 
L 90.904516 -75.94 
L 97.252581 -75.94 
L 103.600645 -75.94 
L 109.94871 -75.94 
L 116.296774 -75.94 
L 122.644839 -75.94 
L 128.992903 -75.94 
L 135.340968 -75.94 
L 141.689032 -75.94 
L 148.037097 -75.94 
L 154.385161 -75.94 
L 160.733226 -75.94 
L 167.08129 -75.94 
L 173.429355 -75.94 
L 179.777419 -75.94 
L 186.125484 -75.94 
L 192.473548 -75.94 
L 198.821613 -75.94 
L 205.169677 -75.94 
L 211.517742 -75.94 
L 217.865806 -75.94 
L 224.213871 -75.94 
L 230.561935 -75.94 
L 236.91 -75.94 
L 243.258065 -75.94 
L 249.606129 -75.94 
L 255.954194 -75.94 
L 262.302258 -75.94 
L 268.650323 -75.94 
L 274.998387 -75.94 
L 281.346452 -75.94 
L 287.694516 -75.94 
L 294.042581 -75.94 
L 300.390645 -75.94 
L 306.73871 -75.94 
L 313.086774 -75.94 
L 319.434839 -75.94 
L 325.782903 -75.94 
L 332.130968 -75.94 
L 338.479032 -75.94 
L 344.827097 -75.94 
L 351.175161 -75.94 
L 357.523226 -75.94 
L 363.87129 -75.94 
L 370.219355 -75.94 
L 376.567419 -75.94 
L 382.915484 -75.94 
L 389.263548 -75.94 
L 395.611613 -75.94 
L 401.959677 -75.94 
L 408.307742 -75.94 
L 414.655806 -75.94 
L 421.003871 -75.94 
L 427.351935 -75.94 
L 433.7 -75.94 
L 433.7 -169.671899 
L 433.7 -169.671899 
L 427.351935 -172.218354 
L 421.003871 -174.204142 
L 414.655806 -176.655111 
L 408.307742 -178.234163 
L 401.959677 -180.097684 
L 395.611613 -182.478001 
L 389.263548 -184.782391 
L 382.915484 -186.935015 
L 376.567419 -188.39263 
L 370.219355 -189.964661 
L 363.87129 -191.527602 
L 357.523226 -193.476837 
L 351.175161 -195.438978 
L 344.827097 -196.596541 
L 338.479032 -197.890242 
L 332.130968 -198.948884 
L 325.782903 -200.237782 
L 319.434839 -201.975097 
L 313.086774 -203.690136 
L 306.73871 -205.575049 
L 300.390645 -206.467095 
L 294.042581 -207.089047 
L 287.694516 -207.166697 
L 281.346452 -208.342309 
L 274.998387 -209.558309 
L 268.650323 -210.781143 
L 262.302258 -211.6259 
L 255.954194 -212.701468 
L 249.606129 -213.021606 
L 243.258065 -212.836755 
L 236.91 -213.543735 
L 230.561935 -214.672475 
L 224.213871 -215.501365 
L 217.865806 -215.924018 
L 211.517742 -216.0435 
L 205.169677 -215.996535 
L 198.821613 -216.789729 
L 192.473548 -217.825734 
L 186.125484 -218.991657 
L 179.777419 -220.458572 
L 173.429355 -220.991521 
L 167.08129 -220.937948 
L 160.733226 -221.804187 
L 154.385161 -222.190807 
L 148.037097 -222.571027 
L 141.689032 -223.53948 
L 135.340968 -224.581413 
L 128.992903 -224.608803 
L 122.644839 -224.225758 
L 116.296774 -224.124768 
L 109.94871 -222.887626 
L 103.600645 -222.509855 
L 97.252581 -223.854492 
L 90.904516 -224.818881 
L 84.556452 -223.99026 
L 78.208387 -223.050202 
L 71.860323 -221.701748 
L 65.512258 -219.198765 
L 59.164194 -217.953343 
L 52.816129 -219.448988 
L 46.468065 -220.173872 
L 40.12 -220.931841 
z
" id="m8b2a769b85" style="stroke:#2ca02c;"/>
    </defs>
    <g clip-path="url(#p4f415c7759)">
     <use style="fill:#2ca02c;stroke:#2ca02c;" x="0" xlink:href="#m8b2a769b85" y="648"/>
    </g>
   </g>
   <g id="matplotlib.axis_5">
    <g id="xtick_25">
     <g id="line2d_43">
      <g>
       <use style="stroke:#000000;stroke-width:0.8;" x="40.12" xlink:href="#m9538336f34" y="572.06"/>
      </g>
     </g>
     <g id="text_11">
      <!-- 2020-05-01 -->
      <defs>
       <path d="M 4.890625 31.390625 
L 31.203125 31.390625 
L 31.203125 23.390625 
L 4.890625 23.390625 
z
" id="DejaVuSans-45"/>
      </defs>
      <g transform="translate(42.879375 637.175625)rotate(-90)scale(0.1 -0.1)">
       <use xlink:href="#DejaVuSans-50"/>
       <use x="63.623047" xlink:href="#DejaVuSans-48"/>
       <use x="127.246094" xlink:href="#DejaVuSans-50"/>
       <use x="190.869141" xlink:href="#DejaVuSans-48"/>
       <use x="254.492188" xlink:href="#DejaVuSans-45"/>
       <use x="290.576172" xlink:href="#DejaVuSans-48"/>
       <use x="354.199219" xlink:href="#DejaVuSans-53"/>
       <use x="417.822266" xlink:href="#DejaVuSans-45"/>
       <use x="453.90625" xlink:href="#DejaVuSans-48"/>
       <use x="517.529297" xlink:href="#DejaVuSans-49"/>
      </g>
     </g>
    </g>
    <g id="xtick_26">
     <g id="line2d_44">
      <g>
       <use style="stroke:#000000;stroke-width:0.8;" x="75.9" xlink:href="#m9538336f34" y="572.06"/>
      </g>
     </g>
     <g id="text_12">
      <!-- 2020-05-06 -->
      <g transform="translate(78.659375 637.175625)rotate(-90)scale(0.1 -0.1)">
       <use xlink:href="#DejaVuSans-50"/>
       <use x="63.623047" xlink:href="#DejaVuSans-48"/>
       <use x="127.246094" xlink:href="#DejaVuSans-50"/>
       <use x="190.869141" xlink:href="#DejaVuSans-48"/>
       <use x="254.492188" xlink:href="#DejaVuSans-45"/>
       <use x="290.576172" xlink:href="#DejaVuSans-48"/>
       <use x="354.199219" xlink:href="#DejaVuSans-53"/>
       <use x="417.822266" xlink:href="#DejaVuSans-45"/>
       <use x="453.90625" xlink:href="#DejaVuSans-48"/>
       <use x="517.529297" xlink:href="#DejaVuSans-54"/>
      </g>
     </g>
    </g>
    <g id="xtick_27">
     <g id="line2d_45">
      <g>
       <use style="stroke:#000000;stroke-width:0.8;" x="111.68" xlink:href="#m9538336f34" y="572.06"/>
      </g>
     </g>
     <g id="text_13">
      <!-- 2020-05-12 -->
      <g transform="translate(114.439375 637.175625)rotate(-90)scale(0.1 -0.1)">
       <use xlink:href="#DejaVuSans-50"/>
       <use x="63.623047" xlink:href="#DejaVuSans-48"/>
       <use x="127.246094" xlink:href="#DejaVuSans-50"/>
       <use x="190.869141" xlink:href="#DejaVuSans-48"/>
       <use x="254.492188" xlink:href="#DejaVuSans-45"/>
       <use x="290.576172" xlink:href="#DejaVuSans-48"/>
       <use x="354.199219" xlink:href="#DejaVuSans-53"/>
       <use x="417.822266" xlink:href="#DejaVuSans-45"/>
       <use x="453.90625" xlink:href="#DejaVuSans-49"/>
       <use x="517.529297" xlink:href="#DejaVuSans-50"/>
      </g>
     </g>
    </g>
    <g id="xtick_28">
     <g id="line2d_46">
      <g>
       <use style="stroke:#000000;stroke-width:0.8;" x="147.46" xlink:href="#m9538336f34" y="572.06"/>
      </g>
     </g>
     <g id="text_14">
      <!-- 2020-05-17 -->
      <g transform="translate(150.219375 637.175625)rotate(-90)scale(0.1 -0.1)">
       <use xlink:href="#DejaVuSans-50"/>
       <use x="63.623047" xlink:href="#DejaVuSans-48"/>
       <use x="127.246094" xlink:href="#DejaVuSans-50"/>
       <use x="190.869141" xlink:href="#DejaVuSans-48"/>
       <use x="254.492188" xlink:href="#DejaVuSans-45"/>
       <use x="290.576172" xlink:href="#DejaVuSans-48"/>
       <use x="354.199219" xlink:href="#DejaVuSans-53"/>
       <use x="417.822266" xlink:href="#DejaVuSans-45"/>
       <use x="453.90625" xlink:href="#DejaVuSans-49"/>
       <use x="517.529297" xlink:href="#DejaVuSans-55"/>
      </g>
     </g>
    </g>
    <g id="xtick_29">
     <g id="line2d_47">
      <g>
       <use style="stroke:#000000;stroke-width:0.8;" x="183.24" xlink:href="#m9538336f34" y="572.06"/>
      </g>
     </g>
     <g id="text_15">
      <!-- 2020-05-23 -->
      <g transform="translate(185.999375 637.175625)rotate(-90)scale(0.1 -0.1)">
       <use xlink:href="#DejaVuSans-50"/>
       <use x="63.623047" xlink:href="#DejaVuSans-48"/>
       <use x="127.246094" xlink:href="#DejaVuSans-50"/>
       <use x="190.869141" xlink:href="#DejaVuSans-48"/>
       <use x="254.492188" xlink:href="#DejaVuSans-45"/>
       <use x="290.576172" xlink:href="#DejaVuSans-48"/>
       <use x="354.199219" xlink:href="#DejaVuSans-53"/>
       <use x="417.822266" xlink:href="#DejaVuSans-45"/>
       <use x="453.90625" xlink:href="#DejaVuSans-50"/>
       <use x="517.529297" xlink:href="#DejaVuSans-51"/>
      </g>
     </g>
    </g>
    <g id="xtick_30">
     <g id="line2d_48">
      <g>
       <use style="stroke:#000000;stroke-width:0.8;" x="219.02" xlink:href="#m9538336f34" y="572.06"/>
      </g>
     </g>
     <g id="text_16">
      <!-- 2020-05-29 -->
      <defs>
       <path d="M 10.984375 1.515625 
L 10.984375 10.5 
Q 14.703125 8.734375 18.5 7.8125 
Q 22.3125 6.890625 25.984375 6.890625 
Q 35.75 6.890625 40.890625 13.453125 
Q 46.046875 20.015625 46.78125 33.40625 
Q 43.953125 29.203125 39.59375 26.953125 
Q 35.25 24.703125 29.984375 24.703125 
Q 19.046875 24.703125 12.671875 31.3125 
Q 6.296875 37.9375 6.296875 49.421875 
Q 6.296875 60.640625 12.9375 67.421875 
Q 19.578125 74.21875 30.609375 74.21875 
Q 43.265625 74.21875 49.921875 64.515625 
Q 56.59375 54.828125 56.59375 36.375 
Q 56.59375 19.140625 48.40625 8.859375 
Q 40.234375 -1.421875 26.421875 -1.421875 
Q 22.703125 -1.421875 18.890625 -0.6875 
Q 15.09375 0.046875 10.984375 1.515625 
z
M 30.609375 32.421875 
Q 37.25 32.421875 41.125 36.953125 
Q 45.015625 41.5 45.015625 49.421875 
Q 45.015625 57.28125 41.125 61.84375 
Q 37.25 66.40625 30.609375 66.40625 
Q 23.96875 66.40625 20.09375 61.84375 
Q 16.21875 57.28125 16.21875 49.421875 
Q 16.21875 41.5 20.09375 36.953125 
Q 23.96875 32.421875 30.609375 32.421875 
z
" id="DejaVuSans-57"/>
      </defs>
      <g transform="translate(221.779375 637.175625)rotate(-90)scale(0.1 -0.1)">
       <use xlink:href="#DejaVuSans-50"/>
       <use x="63.623047" xlink:href="#DejaVuSans-48"/>
       <use x="127.246094" xlink:href="#DejaVuSans-50"/>
       <use x="190.869141" xlink:href="#DejaVuSans-48"/>
       <use x="254.492188" xlink:href="#DejaVuSans-45"/>
       <use x="290.576172" xlink:href="#DejaVuSans-48"/>
       <use x="354.199219" xlink:href="#DejaVuSans-53"/>
       <use x="417.822266" xlink:href="#DejaVuSans-45"/>
       <use x="453.90625" xlink:href="#DejaVuSans-50"/>
       <use x="517.529297" xlink:href="#DejaVuSans-57"/>
      </g>
     </g>
    </g>
    <g id="xtick_31">
     <g id="line2d_49">
      <g>
       <use style="stroke:#000000;stroke-width:0.8;" x="254.8" xlink:href="#m9538336f34" y="572.06"/>
      </g>
     </g>
     <g id="text_17">
      <!-- 2020-06-03 -->
      <g transform="translate(257.559375 637.175625)rotate(-90)scale(0.1 -0.1)">
       <use xlink:href="#DejaVuSans-50"/>
       <use x="63.623047" xlink:href="#DejaVuSans-48"/>
       <use x="127.246094" xlink:href="#DejaVuSans-50"/>
       <use x="190.869141" xlink:href="#DejaVuSans-48"/>
       <use x="254.492188" xlink:href="#DejaVuSans-45"/>
       <use x="290.576172" xlink:href="#DejaVuSans-48"/>
       <use x="354.199219" xlink:href="#DejaVuSans-54"/>
       <use x="417.822266" xlink:href="#DejaVuSans-45"/>
       <use x="453.90625" xlink:href="#DejaVuSans-48"/>
       <use x="517.529297" xlink:href="#DejaVuSans-51"/>
      </g>
     </g>
    </g>
    <g id="xtick_32">
     <g id="line2d_50">
      <g>
       <use style="stroke:#000000;stroke-width:0.8;" x="290.58" xlink:href="#m9538336f34" y="572.06"/>
      </g>
     </g>
     <g id="text_18">
      <!-- 2020-06-09 -->
      <g transform="translate(293.339375 637.175625)rotate(-90)scale(0.1 -0.1)">
       <use xlink:href="#DejaVuSans-50"/>
       <use x="63.623047" xlink:href="#DejaVuSans-48"/>
       <use x="127.246094" xlink:href="#DejaVuSans-50"/>
       <use x="190.869141" xlink:href="#DejaVuSans-48"/>
       <use x="254.492188" xlink:href="#DejaVuSans-45"/>
       <use x="290.576172" xlink:href="#DejaVuSans-48"/>
       <use x="354.199219" xlink:href="#DejaVuSans-54"/>
       <use x="417.822266" xlink:href="#DejaVuSans-45"/>
       <use x="453.90625" xlink:href="#DejaVuSans-48"/>
       <use x="517.529297" xlink:href="#DejaVuSans-57"/>
      </g>
     </g>
    </g>
    <g id="xtick_33">
     <g id="line2d_51">
      <g>
       <use style="stroke:#000000;stroke-width:0.8;" x="326.36" xlink:href="#m9538336f34" y="572.06"/>
      </g>
     </g>
     <g id="text_19">
      <!-- 2020-06-15 -->
      <g transform="translate(329.119375 637.175625)rotate(-90)scale(0.1 -0.1)">
       <use xlink:href="#DejaVuSans-50"/>
       <use x="63.623047" xlink:href="#DejaVuSans-48"/>
       <use x="127.246094" xlink:href="#DejaVuSans-50"/>
       <use x="190.869141" xlink:href="#DejaVuSans-48"/>
       <use x="254.492188" xlink:href="#DejaVuSans-45"/>
       <use x="290.576172" xlink:href="#DejaVuSans-48"/>
       <use x="354.199219" xlink:href="#DejaVuSans-54"/>
       <use x="417.822266" xlink:href="#DejaVuSans-45"/>
       <use x="453.90625" xlink:href="#DejaVuSans-49"/>
       <use x="517.529297" xlink:href="#DejaVuSans-53"/>
      </g>
     </g>
    </g>
    <g id="xtick_34">
     <g id="line2d_52">
      <g>
       <use style="stroke:#000000;stroke-width:0.8;" x="362.14" xlink:href="#m9538336f34" y="572.06"/>
      </g>
     </g>
     <g id="text_20">
      <!-- 2020-06-20 -->
      <g transform="translate(364.899375 637.175625)rotate(-90)scale(0.1 -0.1)">
       <use xlink:href="#DejaVuSans-50"/>
       <use x="63.623047" xlink:href="#DejaVuSans-48"/>
       <use x="127.246094" xlink:href="#DejaVuSans-50"/>
       <use x="190.869141" xlink:href="#DejaVuSans-48"/>
       <use x="254.492188" xlink:href="#DejaVuSans-45"/>
       <use x="290.576172" xlink:href="#DejaVuSans-48"/>
       <use x="354.199219" xlink:href="#DejaVuSans-54"/>
       <use x="417.822266" xlink:href="#DejaVuSans-45"/>
       <use x="453.90625" xlink:href="#DejaVuSans-50"/>
       <use x="517.529297" xlink:href="#DejaVuSans-48"/>
      </g>
     </g>
    </g>
    <g id="xtick_35">
     <g id="line2d_53">
      <g>
       <use style="stroke:#000000;stroke-width:0.8;" x="397.92" xlink:href="#m9538336f34" y="572.06"/>
      </g>
     </g>
     <g id="text_21">
      <!-- 2020-06-26 -->
      <g transform="translate(400.679375 637.175625)rotate(-90)scale(0.1 -0.1)">
       <use xlink:href="#DejaVuSans-50"/>
       <use x="63.623047" xlink:href="#DejaVuSans-48"/>
       <use x="127.246094" xlink:href="#DejaVuSans-50"/>
       <use x="190.869141" xlink:href="#DejaVuSans-48"/>
       <use x="254.492188" xlink:href="#DejaVuSans-45"/>
       <use x="290.576172" xlink:href="#DejaVuSans-48"/>
       <use x="354.199219" xlink:href="#DejaVuSans-54"/>
       <use x="417.822266" xlink:href="#DejaVuSans-45"/>
       <use x="453.90625" xlink:href="#DejaVuSans-50"/>
       <use x="517.529297" xlink:href="#DejaVuSans-54"/>
      </g>
     </g>
    </g>
    <g id="xtick_36">
     <g id="line2d_54">
      <g>
       <use style="stroke:#000000;stroke-width:0.8;" x="433.7" xlink:href="#m9538336f34" y="572.06"/>
      </g>
     </g>
     <g id="text_22">
      <!-- 2020-07-02 -->
      <g transform="translate(436.459375 637.175625)rotate(-90)scale(0.1 -0.1)">
       <use xlink:href="#DejaVuSans-50"/>
       <use x="63.623047" xlink:href="#DejaVuSans-48"/>
       <use x="127.246094" xlink:href="#DejaVuSans-50"/>
       <use x="190.869141" xlink:href="#DejaVuSans-48"/>
       <use x="254.492188" xlink:href="#DejaVuSans-45"/>
       <use x="290.576172" xlink:href="#DejaVuSans-48"/>
       <use x="354.199219" xlink:href="#DejaVuSans-55"/>
       <use x="417.822266" xlink:href="#DejaVuSans-45"/>
       <use x="453.90625" xlink:href="#DejaVuSans-48"/>
       <use x="517.529297" xlink:href="#DejaVuSans-50"/>
      </g>
     </g>
    </g>
   </g>
   <g id="matplotlib.axis_6">
    <g id="ytick_17">
     <g id="line2d_55">
      <g>
       <use style="stroke:#000000;stroke-width:0.8;" x="40.12" xlink:href="#me04c058afe" y="572.06"/>
      </g>
     </g>
     <g id="text_23">
      <!-- 0.00 -->
      <g transform="translate(10.854375 575.859219)scale(0.1 -0.1)">
       <use xlink:href="#DejaVuSans-48"/>
       <use x="63.623047" xlink:href="#DejaVuSans-46"/>
       <use x="95.410156" xlink:href="#DejaVuSans-48"/>
       <use x="159.033203" xlink:href="#DejaVuSans-48"/>
      </g>
     </g>
    </g>
    <g id="ytick_18">
     <g id="line2d_56">
      <g>
       <use style="stroke:#000000;stroke-width:0.8;" x="40.12" xlink:href="#me04c058afe" y="537.282222"/>
      </g>
     </g>
     <g id="text_24">
      <!-- 0.01 -->
      <g transform="translate(10.854375 541.081441)scale(0.1 -0.1)">
       <use xlink:href="#DejaVuSans-48"/>
       <use x="63.623047" xlink:href="#DejaVuSans-46"/>
       <use x="95.410156" xlink:href="#DejaVuSans-48"/>
       <use x="159.033203" xlink:href="#DejaVuSans-49"/>
      </g>
     </g>
    </g>
    <g id="ytick_19">
     <g id="line2d_57">
      <g>
       <use style="stroke:#000000;stroke-width:0.8;" x="40.12" xlink:href="#me04c058afe" y="502.504444"/>
      </g>
     </g>
     <g id="text_25">
      <!-- 0.02 -->
      <g transform="translate(10.854375 506.303663)scale(0.1 -0.1)">
       <use xlink:href="#DejaVuSans-48"/>
       <use x="63.623047" xlink:href="#DejaVuSans-46"/>
       <use x="95.410156" xlink:href="#DejaVuSans-48"/>
       <use x="159.033203" xlink:href="#DejaVuSans-50"/>
      </g>
     </g>
    </g>
    <g id="ytick_20">
     <g id="line2d_58">
      <g>
       <use style="stroke:#000000;stroke-width:0.8;" x="40.12" xlink:href="#me04c058afe" y="467.726666"/>
      </g>
     </g>
     <g id="text_26">
      <!-- 0.03 -->
      <g transform="translate(10.854375 471.525885)scale(0.1 -0.1)">
       <use xlink:href="#DejaVuSans-48"/>
       <use x="63.623047" xlink:href="#DejaVuSans-46"/>
       <use x="95.410156" xlink:href="#DejaVuSans-48"/>
       <use x="159.033203" xlink:href="#DejaVuSans-51"/>
      </g>
     </g>
    </g>
    <g id="ytick_21">
     <g id="line2d_59">
      <g>
       <use style="stroke:#000000;stroke-width:0.8;" x="40.12" xlink:href="#me04c058afe" y="432.948888"/>
      </g>
     </g>
     <g id="text_27">
      <!-- 0.04 -->
      <g transform="translate(10.854375 436.748107)scale(0.1 -0.1)">
       <use xlink:href="#DejaVuSans-48"/>
       <use x="63.623047" xlink:href="#DejaVuSans-46"/>
       <use x="95.410156" xlink:href="#DejaVuSans-48"/>
       <use x="159.033203" xlink:href="#DejaVuSans-52"/>
      </g>
     </g>
    </g>
    <g id="ytick_22">
     <g id="line2d_60">
      <g>
       <use style="stroke:#000000;stroke-width:0.8;" x="40.12" xlink:href="#me04c058afe" y="398.17111"/>
      </g>
     </g>
     <g id="text_28">
      <!-- 0.05 -->
      <g transform="translate(10.854375 401.970329)scale(0.1 -0.1)">
       <use xlink:href="#DejaVuSans-48"/>
       <use x="63.623047" xlink:href="#DejaVuSans-46"/>
       <use x="95.410156" xlink:href="#DejaVuSans-48"/>
       <use x="159.033203" xlink:href="#DejaVuSans-53"/>
      </g>
     </g>
    </g>
    <g id="ytick_23">
     <g id="line2d_61">
      <g>
       <use style="stroke:#000000;stroke-width:0.8;" x="40.12" xlink:href="#me04c058afe" y="363.393333"/>
      </g>
     </g>
     <g id="text_29">
      <!-- 0.06 -->
      <g transform="translate(10.854375 367.192551)scale(0.1 -0.1)">
       <use xlink:href="#DejaVuSans-48"/>
       <use x="63.623047" xlink:href="#DejaVuSans-46"/>
       <use x="95.410156" xlink:href="#DejaVuSans-48"/>
       <use x="159.033203" xlink:href="#DejaVuSans-54"/>
      </g>
     </g>
    </g>
    <g id="ytick_24">
     <g id="line2d_62">
      <g>
       <use style="stroke:#000000;stroke-width:0.8;" x="40.12" xlink:href="#me04c058afe" y="328.615555"/>
      </g>
     </g>
     <g id="text_30">
      <!-- 0.07 -->
      <g transform="translate(10.854375 332.414773)scale(0.1 -0.1)">
       <use xlink:href="#DejaVuSans-48"/>
       <use x="63.623047" xlink:href="#DejaVuSans-46"/>
       <use x="95.410156" xlink:href="#DejaVuSans-48"/>
       <use x="159.033203" xlink:href="#DejaVuSans-55"/>
      </g>
     </g>
    </g>
   </g>
   <g id="line2d_63">
    <path clip-path="url(#p4f415c7759)" d="M 40.12 427.068159 
L 46.468065 427.826128 
L 52.816129 428.551012 
L 59.164194 430.046657 
L 65.512258 428.801235 
L 71.860323 426.298252 
L 78.208387 424.949798 
L 84.556452 424.00974 
L 90.904516 423.181119 
L 97.252581 424.145508 
L 103.600645 425.490145 
L 109.94871 425.112374 
L 116.296774 423.875232 
L 122.644839 423.774242 
L 128.992903 423.391197 
L 135.340968 423.418587 
L 141.689032 424.46052 
L 148.037097 425.428973 
L 154.385161 425.809193 
L 160.733226 426.195813 
L 167.08129 427.062052 
L 173.429355 427.008479 
L 179.777419 427.541428 
L 186.125484 429.008343 
L 192.473548 430.174266 
L 198.821613 431.210271 
L 205.169677 432.003465 
L 211.517742 431.9565 
L 217.865806 432.075982 
L 224.213871 432.498635 
L 230.561935 433.327525 
L 236.91 434.456265 
L 243.258065 435.163245 
L 249.606129 434.978394 
L 255.954194 435.298532 
L 262.302258 436.3741 
L 268.650323 437.218857 
L 274.998387 438.441691 
L 281.346452 439.657691 
L 287.694516 440.833303 
L 294.042581 440.910953 
L 300.390645 441.532905 
L 306.73871 442.424951 
L 313.086774 444.309864 
L 319.434839 446.024903 
L 325.782903 447.762218 
L 332.130968 449.051116 
L 338.479032 450.109758 
L 344.827097 451.403459 
L 351.175161 452.561022 
L 357.523226 454.523163 
L 363.87129 456.472398 
L 370.219355 458.035339 
L 376.567419 459.60737 
L 382.915484 461.064985 
L 389.263548 463.217609 
L 395.611613 465.521999 
L 401.959677 467.902316 
L 408.307742 469.765837 
L 414.655806 471.344889 
L 421.003871 473.795858 
L 427.351935 475.781646 
L 433.7 478.328101 
" style="fill:none;stroke:#2ca02c;stroke-linecap:square;stroke-width:1.5;"/>
   </g>
   <g id="patch_13">
    <path d="M 40.12 572.06 
L 40.12 314.53 
" style="fill:none;stroke:#000000;stroke-linecap:square;stroke-linejoin:miter;stroke-width:0.8;"/>
   </g>
   <g id="patch_14">
    <path d="M 433.7 572.06 
L 433.7 314.53 
" style="fill:none;stroke:#000000;stroke-linecap:square;stroke-linejoin:miter;stroke-width:0.8;"/>
   </g>
   <g id="patch_15">
    <path d="M 40.12 572.06 
L 433.7 572.06 
" style="fill:none;stroke:#000000;stroke-linecap:square;stroke-linejoin:miter;stroke-width:0.8;"/>
   </g>
   <g id="patch_16">
    <path d="M 40.12 314.53 
L 433.7 314.53 
" style="fill:none;stroke:#000000;stroke-linecap:square;stroke-linejoin:miter;stroke-width:0.8;"/>
   </g>
   <g id="text_31">
    <!-- South -->
    <defs>
     <path d="M 53.515625 70.515625 
L 53.515625 60.890625 
Q 47.90625 63.578125 42.921875 64.890625 
Q 37.9375 66.21875 33.296875 66.21875 
Q 25.25 66.21875 20.875 63.09375 
Q 16.5 59.96875 16.5 54.203125 
Q 16.5 49.359375 19.40625 46.890625 
Q 22.3125 44.4375 30.421875 42.921875 
L 36.375 41.703125 
Q 47.40625 39.59375 52.65625 34.296875 
Q 57.90625 29 57.90625 20.125 
Q 57.90625 9.515625 50.796875 4.046875 
Q 43.703125 -1.421875 29.984375 -1.421875 
Q 24.8125 -1.421875 18.96875 -0.25 
Q 13.140625 0.921875 6.890625 3.21875 
L 6.890625 13.375 
Q 12.890625 10.015625 18.65625 8.296875 
Q 24.421875 6.59375 29.984375 6.59375 
Q 38.421875 6.59375 43.015625 9.90625 
Q 47.609375 13.234375 47.609375 19.390625 
Q 47.609375 24.75 44.3125 27.78125 
Q 41.015625 30.8125 33.5 32.328125 
L 27.484375 33.5 
Q 16.453125 35.6875 11.515625 40.375 
Q 6.59375 45.0625 6.59375 53.421875 
Q 6.59375 63.09375 13.40625 68.65625 
Q 20.21875 74.21875 32.171875 74.21875 
Q 37.3125 74.21875 42.625 73.28125 
Q 47.953125 72.359375 53.515625 70.515625 
z
" id="DejaVuSans-83"/>
     <path d="M 8.5 21.578125 
L 8.5 54.6875 
L 17.484375 54.6875 
L 17.484375 21.921875 
Q 17.484375 14.15625 20.5 10.265625 
Q 23.53125 6.390625 29.59375 6.390625 
Q 36.859375 6.390625 41.078125 11.03125 
Q 45.3125 15.671875 45.3125 23.6875 
L 45.3125 54.6875 
L 54.296875 54.6875 
L 54.296875 0 
L 45.3125 0 
L 45.3125 8.40625 
Q 42.046875 3.421875 37.71875 1 
Q 33.40625 -1.421875 27.6875 -1.421875 
Q 18.265625 -1.421875 13.375 4.4375 
Q 8.5 10.296875 8.5 21.578125 
z
M 31.109375 56 
z
" id="DejaVuSans-117"/>
    </defs>
    <g transform="translate(219.4725 308.53)scale(0.12 -0.12)">
     <use xlink:href="#DejaVuSans-83"/>
     <use x="63.476562" xlink:href="#DejaVuSans-111"/>
     <use x="124.658203" xlink:href="#DejaVuSans-117"/>
     <use x="188.037109" xlink:href="#DejaVuSans-116"/>
     <use x="227.246094" xlink:href="#DejaVuSans-104"/>
    </g>
   </g>
  </g>
  <g id="axes_4">
   <g id="patch_17">
    <path d="M 454.58 572.06 
L 848.16 572.06 
L 848.16 314.53 
L 454.58 314.53 
z
" style="fill:#ffffff;"/>
   </g>
   <g id="PolyCollection_4">
    <defs>
     <path d="M 454.58 -224.545431 
L 454.58 -75.94 
L 460.928065 -75.94 
L 467.276129 -75.94 
L 473.624194 -75.94 
L 479.972258 -75.94 
L 486.320323 -75.94 
L 492.668387 -75.94 
L 499.016452 -75.94 
L 505.364516 -75.94 
L 511.712581 -75.94 
L 518.060645 -75.94 
L 524.40871 -75.94 
L 530.756774 -75.94 
L 537.104839 -75.94 
L 543.452903 -75.94 
L 549.800968 -75.94 
L 556.149032 -75.94 
L 562.497097 -75.94 
L 568.845161 -75.94 
L 575.193226 -75.94 
L 581.54129 -75.94 
L 587.889355 -75.94 
L 594.237419 -75.94 
L 600.585484 -75.94 
L 606.933548 -75.94 
L 613.281613 -75.94 
L 619.629677 -75.94 
L 625.977742 -75.94 
L 632.325806 -75.94 
L 638.673871 -75.94 
L 645.021935 -75.94 
L 651.37 -75.94 
L 657.718065 -75.94 
L 664.066129 -75.94 
L 670.414194 -75.94 
L 676.762258 -75.94 
L 683.110323 -75.94 
L 689.458387 -75.94 
L 695.806452 -75.94 
L 702.154516 -75.94 
L 708.502581 -75.94 
L 714.850645 -75.94 
L 721.19871 -75.94 
L 727.546774 -75.94 
L 733.894839 -75.94 
L 740.242903 -75.94 
L 746.590968 -75.94 
L 752.939032 -75.94 
L 759.287097 -75.94 
L 765.635161 -75.94 
L 771.983226 -75.94 
L 778.33129 -75.94 
L 784.679355 -75.94 
L 791.027419 -75.94 
L 797.375484 -75.94 
L 803.723548 -75.94 
L 810.071613 -75.94 
L 816.419677 -75.94 
L 822.767742 -75.94 
L 829.115806 -75.94 
L 835.463871 -75.94 
L 841.811935 -75.94 
L 848.16 -75.94 
L 848.16 -169.508988 
L 848.16 -169.508988 
L 841.811935 -171.721153 
L 835.463871 -173.847447 
L 829.115806 -175.479841 
L 822.767742 -177.632127 
L 816.419677 -179.969279 
L 810.071613 -181.957159 
L 803.723548 -182.730284 
L 797.375484 -185.362706 
L 791.027419 -186.67718 
L 784.679355 -189.114907 
L 778.33129 -191.728076 
L 771.983226 -193.668809 
L 765.635161 -196.513243 
L 759.287097 -198.047525 
L 752.939032 -199.498869 
L 746.590968 -201.020204 
L 740.242903 -201.59317 
L 733.894839 -204.002014 
L 727.546774 -205.953863 
L 721.19871 -207.176737 
L 714.850645 -207.743656 
L 708.502581 -208.158203 
L 702.154516 -208.972026 
L 695.806452 -210.446977 
L 689.458387 -212.180302 
L 683.110323 -214.038911 
L 676.762258 -216.013967 
L 670.414194 -216.951326 
L 664.066129 -217.465987 
L 657.718065 -218.882684 
L 651.37 -219.902265 
L 645.021935 -222.111664 
L 638.673871 -224.062846 
L 632.325806 -224.6173 
L 625.977742 -224.821949 
L 619.629677 -224.687647 
L 613.281613 -225.84094 
L 606.933548 -227.339429 
L 600.585484 -228.534215 
L 594.237419 -229.600404 
L 587.889355 -211.605292 
L 581.54129 -229.988046 
L 575.193226 -229.089168 
L 568.845161 -228.563964 
L 562.497097 -229.230773 
L 556.149032 -230.046655 
L 549.800968 -228.534456 
L 543.452903 -228.818308 
L 537.104839 -228.221809 
L 530.756774 -226.545006 
L 524.40871 -225.587525 
L 518.060645 -226.809415 
L 511.712581 -227.3766 
L 505.364516 -227.935483 
L 499.016452 -227.008259 
L 492.668387 -225.978683 
L 486.320323 -225.822605 
L 479.972258 -223.703979 
L 473.624194 -224.947617 
L 467.276129 -225.7402 
L 460.928065 -224.378593 
L 454.58 -224.545431 
z
" id="ma09c11dcd4" style="stroke:#d62728;"/>
    </defs>
    <g clip-path="url(#p9467816f64)">
     <use style="fill:#d62728;stroke:#d62728;" x="0" xlink:href="#ma09c11dcd4" y="648"/>
    </g>
   </g>
   <g id="matplotlib.axis_7">
    <g id="xtick_37">
     <g id="line2d_64">
      <g>
       <use style="stroke:#000000;stroke-width:0.8;" x="454.58" xlink:href="#m9538336f34" y="572.06"/>
      </g>
     </g>
     <g id="text_32">
      <!-- 2020-05-01 -->
      <g transform="translate(457.339375 637.175625)rotate(-90)scale(0.1 -0.1)">
       <use xlink:href="#DejaVuSans-50"/>
       <use x="63.623047" xlink:href="#DejaVuSans-48"/>
       <use x="127.246094" xlink:href="#DejaVuSans-50"/>
       <use x="190.869141" xlink:href="#DejaVuSans-48"/>
       <use x="254.492188" xlink:href="#DejaVuSans-45"/>
       <use x="290.576172" xlink:href="#DejaVuSans-48"/>
       <use x="354.199219" xlink:href="#DejaVuSans-53"/>
       <use x="417.822266" xlink:href="#DejaVuSans-45"/>
       <use x="453.90625" xlink:href="#DejaVuSans-48"/>
       <use x="517.529297" xlink:href="#DejaVuSans-49"/>
      </g>
     </g>
    </g>
    <g id="xtick_38">
     <g id="line2d_65">
      <g>
       <use style="stroke:#000000;stroke-width:0.8;" x="490.36" xlink:href="#m9538336f34" y="572.06"/>
      </g>
     </g>
     <g id="text_33">
      <!-- 2020-05-06 -->
      <g transform="translate(493.119375 637.175625)rotate(-90)scale(0.1 -0.1)">
       <use xlink:href="#DejaVuSans-50"/>
       <use x="63.623047" xlink:href="#DejaVuSans-48"/>
       <use x="127.246094" xlink:href="#DejaVuSans-50"/>
       <use x="190.869141" xlink:href="#DejaVuSans-48"/>
       <use x="254.492188" xlink:href="#DejaVuSans-45"/>
       <use x="290.576172" xlink:href="#DejaVuSans-48"/>
       <use x="354.199219" xlink:href="#DejaVuSans-53"/>
       <use x="417.822266" xlink:href="#DejaVuSans-45"/>
       <use x="453.90625" xlink:href="#DejaVuSans-48"/>
       <use x="517.529297" xlink:href="#DejaVuSans-54"/>
      </g>
     </g>
    </g>
    <g id="xtick_39">
     <g id="line2d_66">
      <g>
       <use style="stroke:#000000;stroke-width:0.8;" x="526.14" xlink:href="#m9538336f34" y="572.06"/>
      </g>
     </g>
     <g id="text_34">
      <!-- 2020-05-12 -->
      <g transform="translate(528.899375 637.175625)rotate(-90)scale(0.1 -0.1)">
       <use xlink:href="#DejaVuSans-50"/>
       <use x="63.623047" xlink:href="#DejaVuSans-48"/>
       <use x="127.246094" xlink:href="#DejaVuSans-50"/>
       <use x="190.869141" xlink:href="#DejaVuSans-48"/>
       <use x="254.492188" xlink:href="#DejaVuSans-45"/>
       <use x="290.576172" xlink:href="#DejaVuSans-48"/>
       <use x="354.199219" xlink:href="#DejaVuSans-53"/>
       <use x="417.822266" xlink:href="#DejaVuSans-45"/>
       <use x="453.90625" xlink:href="#DejaVuSans-49"/>
       <use x="517.529297" xlink:href="#DejaVuSans-50"/>
      </g>
     </g>
    </g>
    <g id="xtick_40">
     <g id="line2d_67">
      <g>
       <use style="stroke:#000000;stroke-width:0.8;" x="561.92" xlink:href="#m9538336f34" y="572.06"/>
      </g>
     </g>
     <g id="text_35">
      <!-- 2020-05-17 -->
      <g transform="translate(564.679375 637.175625)rotate(-90)scale(0.1 -0.1)">
       <use xlink:href="#DejaVuSans-50"/>
       <use x="63.623047" xlink:href="#DejaVuSans-48"/>
       <use x="127.246094" xlink:href="#DejaVuSans-50"/>
       <use x="190.869141" xlink:href="#DejaVuSans-48"/>
       <use x="254.492188" xlink:href="#DejaVuSans-45"/>
       <use x="290.576172" xlink:href="#DejaVuSans-48"/>
       <use x="354.199219" xlink:href="#DejaVuSans-53"/>
       <use x="417.822266" xlink:href="#DejaVuSans-45"/>
       <use x="453.90625" xlink:href="#DejaVuSans-49"/>
       <use x="517.529297" xlink:href="#DejaVuSans-55"/>
      </g>
     </g>
    </g>
    <g id="xtick_41">
     <g id="line2d_68">
      <g>
       <use style="stroke:#000000;stroke-width:0.8;" x="597.7" xlink:href="#m9538336f34" y="572.06"/>
      </g>
     </g>
     <g id="text_36">
      <!-- 2020-05-23 -->
      <g transform="translate(600.459375 637.175625)rotate(-90)scale(0.1 -0.1)">
       <use xlink:href="#DejaVuSans-50"/>
       <use x="63.623047" xlink:href="#DejaVuSans-48"/>
       <use x="127.246094" xlink:href="#DejaVuSans-50"/>
       <use x="190.869141" xlink:href="#DejaVuSans-48"/>
       <use x="254.492188" xlink:href="#DejaVuSans-45"/>
       <use x="290.576172" xlink:href="#DejaVuSans-48"/>
       <use x="354.199219" xlink:href="#DejaVuSans-53"/>
       <use x="417.822266" xlink:href="#DejaVuSans-45"/>
       <use x="453.90625" xlink:href="#DejaVuSans-50"/>
       <use x="517.529297" xlink:href="#DejaVuSans-51"/>
      </g>
     </g>
    </g>
    <g id="xtick_42">
     <g id="line2d_69">
      <g>
       <use style="stroke:#000000;stroke-width:0.8;" x="633.48" xlink:href="#m9538336f34" y="572.06"/>
      </g>
     </g>
     <g id="text_37">
      <!-- 2020-05-29 -->
      <g transform="translate(636.239375 637.175625)rotate(-90)scale(0.1 -0.1)">
       <use xlink:href="#DejaVuSans-50"/>
       <use x="63.623047" xlink:href="#DejaVuSans-48"/>
       <use x="127.246094" xlink:href="#DejaVuSans-50"/>
       <use x="190.869141" xlink:href="#DejaVuSans-48"/>
       <use x="254.492188" xlink:href="#DejaVuSans-45"/>
       <use x="290.576172" xlink:href="#DejaVuSans-48"/>
       <use x="354.199219" xlink:href="#DejaVuSans-53"/>
       <use x="417.822266" xlink:href="#DejaVuSans-45"/>
       <use x="453.90625" xlink:href="#DejaVuSans-50"/>
       <use x="517.529297" xlink:href="#DejaVuSans-57"/>
      </g>
     </g>
    </g>
    <g id="xtick_43">
     <g id="line2d_70">
      <g>
       <use style="stroke:#000000;stroke-width:0.8;" x="669.26" xlink:href="#m9538336f34" y="572.06"/>
      </g>
     </g>
     <g id="text_38">
      <!-- 2020-06-03 -->
      <g transform="translate(672.019375 637.175625)rotate(-90)scale(0.1 -0.1)">
       <use xlink:href="#DejaVuSans-50"/>
       <use x="63.623047" xlink:href="#DejaVuSans-48"/>
       <use x="127.246094" xlink:href="#DejaVuSans-50"/>
       <use x="190.869141" xlink:href="#DejaVuSans-48"/>
       <use x="254.492188" xlink:href="#DejaVuSans-45"/>
       <use x="290.576172" xlink:href="#DejaVuSans-48"/>
       <use x="354.199219" xlink:href="#DejaVuSans-54"/>
       <use x="417.822266" xlink:href="#DejaVuSans-45"/>
       <use x="453.90625" xlink:href="#DejaVuSans-48"/>
       <use x="517.529297" xlink:href="#DejaVuSans-51"/>
      </g>
     </g>
    </g>
    <g id="xtick_44">
     <g id="line2d_71">
      <g>
       <use style="stroke:#000000;stroke-width:0.8;" x="705.04" xlink:href="#m9538336f34" y="572.06"/>
      </g>
     </g>
     <g id="text_39">
      <!-- 2020-06-09 -->
      <g transform="translate(707.799375 637.175625)rotate(-90)scale(0.1 -0.1)">
       <use xlink:href="#DejaVuSans-50"/>
       <use x="63.623047" xlink:href="#DejaVuSans-48"/>
       <use x="127.246094" xlink:href="#DejaVuSans-50"/>
       <use x="190.869141" xlink:href="#DejaVuSans-48"/>
       <use x="254.492188" xlink:href="#DejaVuSans-45"/>
       <use x="290.576172" xlink:href="#DejaVuSans-48"/>
       <use x="354.199219" xlink:href="#DejaVuSans-54"/>
       <use x="417.822266" xlink:href="#DejaVuSans-45"/>
       <use x="453.90625" xlink:href="#DejaVuSans-48"/>
       <use x="517.529297" xlink:href="#DejaVuSans-57"/>
      </g>
     </g>
    </g>
    <g id="xtick_45">
     <g id="line2d_72">
      <g>
       <use style="stroke:#000000;stroke-width:0.8;" x="740.82" xlink:href="#m9538336f34" y="572.06"/>
      </g>
     </g>
     <g id="text_40">
      <!-- 2020-06-15 -->
      <g transform="translate(743.579375 637.175625)rotate(-90)scale(0.1 -0.1)">
       <use xlink:href="#DejaVuSans-50"/>
       <use x="63.623047" xlink:href="#DejaVuSans-48"/>
       <use x="127.246094" xlink:href="#DejaVuSans-50"/>
       <use x="190.869141" xlink:href="#DejaVuSans-48"/>
       <use x="254.492188" xlink:href="#DejaVuSans-45"/>
       <use x="290.576172" xlink:href="#DejaVuSans-48"/>
       <use x="354.199219" xlink:href="#DejaVuSans-54"/>
       <use x="417.822266" xlink:href="#DejaVuSans-45"/>
       <use x="453.90625" xlink:href="#DejaVuSans-49"/>
       <use x="517.529297" xlink:href="#DejaVuSans-53"/>
      </g>
     </g>
    </g>
    <g id="xtick_46">
     <g id="line2d_73">
      <g>
       <use style="stroke:#000000;stroke-width:0.8;" x="776.6" xlink:href="#m9538336f34" y="572.06"/>
      </g>
     </g>
     <g id="text_41">
      <!-- 2020-06-20 -->
      <g transform="translate(779.359375 637.175625)rotate(-90)scale(0.1 -0.1)">
       <use xlink:href="#DejaVuSans-50"/>
       <use x="63.623047" xlink:href="#DejaVuSans-48"/>
       <use x="127.246094" xlink:href="#DejaVuSans-50"/>
       <use x="190.869141" xlink:href="#DejaVuSans-48"/>
       <use x="254.492188" xlink:href="#DejaVuSans-45"/>
       <use x="290.576172" xlink:href="#DejaVuSans-48"/>
       <use x="354.199219" xlink:href="#DejaVuSans-54"/>
       <use x="417.822266" xlink:href="#DejaVuSans-45"/>
       <use x="453.90625" xlink:href="#DejaVuSans-50"/>
       <use x="517.529297" xlink:href="#DejaVuSans-48"/>
      </g>
     </g>
    </g>
    <g id="xtick_47">
     <g id="line2d_74">
      <g>
       <use style="stroke:#000000;stroke-width:0.8;" x="812.38" xlink:href="#m9538336f34" y="572.06"/>
      </g>
     </g>
     <g id="text_42">
      <!-- 2020-06-26 -->
      <g transform="translate(815.139375 637.175625)rotate(-90)scale(0.1 -0.1)">
       <use xlink:href="#DejaVuSans-50"/>
       <use x="63.623047" xlink:href="#DejaVuSans-48"/>
       <use x="127.246094" xlink:href="#DejaVuSans-50"/>
       <use x="190.869141" xlink:href="#DejaVuSans-48"/>
       <use x="254.492188" xlink:href="#DejaVuSans-45"/>
       <use x="290.576172" xlink:href="#DejaVuSans-48"/>
       <use x="354.199219" xlink:href="#DejaVuSans-54"/>
       <use x="417.822266" xlink:href="#DejaVuSans-45"/>
       <use x="453.90625" xlink:href="#DejaVuSans-50"/>
       <use x="517.529297" xlink:href="#DejaVuSans-54"/>
      </g>
     </g>
    </g>
    <g id="xtick_48">
     <g id="line2d_75">
      <g>
       <use style="stroke:#000000;stroke-width:0.8;" x="848.16" xlink:href="#m9538336f34" y="572.06"/>
      </g>
     </g>
     <g id="text_43">
      <!-- 2020-07-02 -->
      <g transform="translate(850.919375 637.175625)rotate(-90)scale(0.1 -0.1)">
       <use xlink:href="#DejaVuSans-50"/>
       <use x="63.623047" xlink:href="#DejaVuSans-48"/>
       <use x="127.246094" xlink:href="#DejaVuSans-50"/>
       <use x="190.869141" xlink:href="#DejaVuSans-48"/>
       <use x="254.492188" xlink:href="#DejaVuSans-45"/>
       <use x="290.576172" xlink:href="#DejaVuSans-48"/>
       <use x="354.199219" xlink:href="#DejaVuSans-55"/>
       <use x="417.822266" xlink:href="#DejaVuSans-45"/>
       <use x="453.90625" xlink:href="#DejaVuSans-48"/>
       <use x="517.529297" xlink:href="#DejaVuSans-50"/>
      </g>
     </g>
    </g>
   </g>
   <g id="matplotlib.axis_8">
    <g id="ytick_25">
     <g id="line2d_76">
      <g>
       <use style="stroke:#000000;stroke-width:0.8;" x="454.58" xlink:href="#me04c058afe" y="572.06"/>
      </g>
     </g>
    </g>
    <g id="ytick_26">
     <g id="line2d_77">
      <g>
       <use style="stroke:#000000;stroke-width:0.8;" x="454.58" xlink:href="#me04c058afe" y="537.282222"/>
      </g>
     </g>
    </g>
    <g id="ytick_27">
     <g id="line2d_78">
      <g>
       <use style="stroke:#000000;stroke-width:0.8;" x="454.58" xlink:href="#me04c058afe" y="502.504444"/>
      </g>
     </g>
    </g>
    <g id="ytick_28">
     <g id="line2d_79">
      <g>
       <use style="stroke:#000000;stroke-width:0.8;" x="454.58" xlink:href="#me04c058afe" y="467.726666"/>
      </g>
     </g>
    </g>
    <g id="ytick_29">
     <g id="line2d_80">
      <g>
       <use style="stroke:#000000;stroke-width:0.8;" x="454.58" xlink:href="#me04c058afe" y="432.948888"/>
      </g>
     </g>
    </g>
    <g id="ytick_30">
     <g id="line2d_81">
      <g>
       <use style="stroke:#000000;stroke-width:0.8;" x="454.58" xlink:href="#me04c058afe" y="398.17111"/>
      </g>
     </g>
    </g>
    <g id="ytick_31">
     <g id="line2d_82">
      <g>
       <use style="stroke:#000000;stroke-width:0.8;" x="454.58" xlink:href="#me04c058afe" y="363.393333"/>
      </g>
     </g>
    </g>
    <g id="ytick_32">
     <g id="line2d_83">
      <g>
       <use style="stroke:#000000;stroke-width:0.8;" x="454.58" xlink:href="#me04c058afe" y="328.615555"/>
      </g>
     </g>
    </g>
   </g>
   <g id="line2d_84">
    <path clip-path="url(#p9467816f64)" d="M 454.58 423.454569 
L 460.928065 423.621407 
L 467.276129 422.2598 
L 473.624194 423.052383 
L 479.972258 424.296021 
L 486.320323 422.177395 
L 492.668387 422.021317 
L 499.016452 420.991741 
L 505.364516 420.064517 
L 511.712581 420.6234 
L 518.060645 421.190585 
L 524.40871 422.412475 
L 530.756774 421.454994 
L 537.104839 419.778191 
L 543.452903 419.181692 
L 549.800968 419.465544 
L 556.149032 417.953345 
L 562.497097 418.769227 
L 568.845161 419.436036 
L 575.193226 418.910832 
L 581.54129 418.011954 
L 587.889355 436.394708 
L 594.237419 418.399596 
L 600.585484 419.465785 
L 606.933548 420.660571 
L 613.281613 422.15906 
L 619.629677 423.312353 
L 625.977742 423.178051 
L 632.325806 423.3827 
L 638.673871 423.937154 
L 645.021935 425.888336 
L 651.37 428.097735 
L 657.718065 429.117316 
L 664.066129 430.534013 
L 670.414194 431.048674 
L 676.762258 431.986033 
L 683.110323 433.961089 
L 689.458387 435.819698 
L 695.806452 437.553023 
L 702.154516 439.027974 
L 708.502581 439.841797 
L 714.850645 440.256344 
L 721.19871 440.823263 
L 727.546774 442.046137 
L 733.894839 443.997986 
L 740.242903 446.40683 
L 746.590968 446.979796 
L 752.939032 448.501131 
L 759.287097 449.952475 
L 765.635161 451.486757 
L 771.983226 454.331191 
L 778.33129 456.271924 
L 784.679355 458.885093 
L 791.027419 461.32282 
L 797.375484 462.637294 
L 803.723548 465.269716 
L 810.071613 466.042841 
L 816.419677 468.030721 
L 822.767742 470.367873 
L 829.115806 472.520159 
L 835.463871 474.152553 
L 841.811935 476.278847 
L 848.16 478.491012 
" style="fill:none;stroke:#d62728;stroke-linecap:square;stroke-width:1.5;"/>
   </g>
   <g id="patch_18">
    <path d="M 454.58 572.06 
L 454.58 314.53 
" style="fill:none;stroke:#000000;stroke-linecap:square;stroke-linejoin:miter;stroke-width:0.8;"/>
   </g>
   <g id="patch_19">
    <path d="M 848.16 572.06 
L 848.16 314.53 
" style="fill:none;stroke:#000000;stroke-linecap:square;stroke-linejoin:miter;stroke-width:0.8;"/>
   </g>
   <g id="patch_20">
    <path d="M 454.58 572.06 
L 848.16 572.06 
" style="fill:none;stroke:#000000;stroke-linecap:square;stroke-linejoin:miter;stroke-width:0.8;"/>
   </g>
   <g id="patch_21">
    <path d="M 454.58 314.53 
L 848.16 314.53 
" style="fill:none;stroke:#000000;stroke-linecap:square;stroke-linejoin:miter;stroke-width:0.8;"/>
   </g>
   <g id="text_44">
    <!-- West -->
    <defs>
     <path d="M 3.328125 72.90625 
L 13.28125 72.90625 
L 28.609375 11.28125 
L 43.890625 72.90625 
L 54.984375 72.90625 
L 70.3125 11.28125 
L 85.59375 72.90625 
L 95.609375 72.90625 
L 77.296875 0 
L 64.890625 0 
L 49.515625 63.28125 
L 33.984375 0 
L 21.578125 0 
z
" id="DejaVuSans-87"/>
    </defs>
    <g transform="translate(636.620313 308.53)scale(0.12 -0.12)">
     <use xlink:href="#DejaVuSans-87"/>
     <use x="93.001953" xlink:href="#DejaVuSans-101"/>
     <use x="154.525391" xlink:href="#DejaVuSans-115"/>
     <use x="206.625" xlink:href="#DejaVuSans-116"/>
    </g>
   </g>
  </g>
 </g>
 <defs>
  <clipPath id="p98d8c149f0">
   <rect height="257.53" width="393.58" x="40.12" y="25.44"/>
  </clipPath>
  <clipPath id="p7895851687">
   <rect height="257.53" width="393.58" x="454.58" y="25.44"/>
  </clipPath>
  <clipPath id="p4f415c7759">
   <rect height="257.53" width="393.58" x="40.12" y="314.53"/>
  </clipPath>
  <clipPath id="p9467816f64">
   <rect height="257.53" width="393.58" x="454.58" y="314.53"/>
  </clipPath>
 </defs>
</svg>
