<?xml version="1.0" encoding="utf-8" standalone="no"?>
<!DOCTYPE svg PUBLIC "-//W3C//DTD SVG 1.1//EN"
  "http://www.w3.org/Graphics/SVG/1.1/DTD/svg11.dtd">
<!-- Created with matplotlib (http://matplotlib.org/) -->
<svg height="648pt" version="1.1" viewBox="0 0 864 648" width="864pt" xmlns="http://www.w3.org/2000/svg" xmlns:xlink="http://www.w3.org/1999/xlink">
 <defs>
  <style type="text/css">
*{stroke-linecap:butt;stroke-linejoin:round;}
  </style>
 </defs>
 <g id="figure_1">
  <g id="patch_1">
   <path d="M 0 648 
L 864 648 
L 864 0 
L 0 0 
z
" style="fill:#ffffff;"/>
  </g>
  <g id="axes_1">
   <g id="patch_2">
    <path d="M 39.94 283.195 
L 433.61 283.195 
L 433.61 25.44 
L 39.94 25.44 
z
" style="fill:#ffffff;"/>
   </g>
   <g id="PolyCollection_1">
    <defs>
     <path d="M 39.94 -456.989787 
L 39.94 -364.805 
L 44.571412 -364.805 
L 49.202824 -364.805 
L 53.834235 -364.805 
L 58.465647 -364.805 
L 63.097059 -364.805 
L 67.728471 -364.805 
L 72.359882 -364.805 
L 76.991294 -364.805 
L 81.622706 -364.805 
L 86.254118 -364.805 
L 90.885529 -364.805 
L 95.516941 -364.805 
L 100.148353 -364.805 
L 104.779765 -364.805 
L 109.411176 -364.805 
L 114.042588 -364.805 
L 118.674 -364.805 
L 123.305412 -364.805 
L 127.936824 -364.805 
L 132.568235 -364.805 
L 137.199647 -364.805 
L 141.831059 -364.805 
L 146.462471 -364.805 
L 151.093882 -364.805 
L 155.725294 -364.805 
L 160.356706 -364.805 
L 164.988118 -364.805 
L 169.619529 -364.805 
L 174.250941 -364.805 
L 178.882353 -364.805 
L 183.513765 -364.805 
L 188.145176 -364.805 
L 192.776588 -364.805 
L 197.408 -364.805 
L 202.039412 -364.805 
L 206.670824 -364.805 
L 211.302235 -364.805 
L 215.933647 -364.805 
L 220.565059 -364.805 
L 225.196471 -364.805 
L 229.827882 -364.805 
L 234.459294 -364.805 
L 239.090706 -364.805 
L 243.722118 -364.805 
L 248.353529 -364.805 
L 252.984941 -364.805 
L 257.616353 -364.805 
L 262.247765 -364.805 
L 266.879176 -364.805 
L 271.510588 -364.805 
L 276.142 -364.805 
L 280.773412 -364.805 
L 285.404824 -364.805 
L 290.036235 -364.805 
L 294.667647 -364.805 
L 299.299059 -364.805 
L 303.930471 -364.805 
L 308.561882 -364.805 
L 313.193294 -364.805 
L 317.824706 -364.805 
L 322.456118 -364.805 
L 327.087529 -364.805 
L 331.718941 -364.805 
L 336.350353 -364.805 
L 340.981765 -364.805 
L 345.613176 -364.805 
L 350.244588 -364.805 
L 354.876 -364.805 
L 359.507412 -364.805 
L 364.138824 -364.805 
L 368.770235 -364.805 
L 373.401647 -364.805 
L 378.033059 -364.805 
L 382.664471 -364.805 
L 387.295882 -364.805 
L 391.927294 -364.805 
L 396.558706 -364.805 
L 401.190118 -364.805 
L 405.821529 -364.805 
L 410.452941 -364.805 
L 415.084353 -364.805 
L 419.715765 -364.805 
L 424.347176 -364.805 
L 428.978588 -364.805 
L 433.61 -364.805 
L 433.61 -539.090379 
L 433.61 -539.090379 
L 428.978588 -540.199988 
L 424.347176 -541.15466 
L 419.715765 -541.561074 
L 415.084353 -542.293458 
L 410.452941 -543.056375 
L 405.821529 -543.682285 
L 401.190118 -544.096173 
L 396.558706 -544.321919 
L 391.927294 -544.527611 
L 387.295882 -544.658706 
L 382.664471 -545.214789 
L 378.033059 -545.734779 
L 373.401647 -546.066934 
L 368.770235 -545.964849 
L 364.138824 -545.937294 
L 359.507412 -545.380646 
L 354.876 -545.096625 
L 350.244588 -545.436772 
L 345.613176 -545.749897 
L 340.981765 -546.115868 
L 336.350353 -546.830801 
L 331.718941 -546.372569 
L 327.087529 -546.371972 
L 322.456118 -548.081256 
L 317.824706 -547.800059 
L 313.193294 -548.349584 
L 308.561882 -548.232468 
L 303.930471 -548.021338 
L 299.299059 -547.559302 
L 294.667647 -545.891513 
L 290.036235 -545.76528 
L 285.404824 -546.875475 
L 280.773412 -548.454782 
L 276.142 -549.439202 
L 271.510588 -550.260989 
L 266.879176 -550.385254 
L 262.247765 -549.852142 
L 257.616353 -548.197603 
L 252.984941 -548.816274 
L 248.353529 -550.868746 
L 243.722118 -553.076887 
L 239.090706 -553.192515 
L 234.459294 -553.494015 
L 229.827882 -552.343028 
L 225.196471 -550.708709 
L 220.565059 -551.099661 
L 215.933647 -552.346857 
L 211.302235 -553.443703 
L 206.670824 -554.763417 
L 202.039412 -555.189494 
L 197.408 -554.343916 
L 192.776588 -552.306807 
L 188.145176 -553.48511 
L 183.513765 -557.125977 
L 178.882353 -558.55343 
L 174.250941 -561.127152 
L 169.619529 -561.785622 
L 164.988118 -560.622909 
L 160.356706 -557.77833 
L 155.725294 -557.291203 
L 151.093882 -559.333332 
L 146.462471 -559.114678 
L 141.831059 -558.885508 
L 137.199647 -557.170951 
L 132.568235 -554.268267 
L 127.936824 -547.74395 
L 123.305412 -545.341987 
L 118.674 -546.927499 
L 114.042588 -547.196299 
L 109.411176 -545.284657 
L 104.779765 -539.72861 
L 100.148353 -533.021268 
L 95.516941 -524.729995 
L 90.885529 -518.974311 
L 86.254118 -518.085478 
L 81.622706 -514.880931 
L 76.991294 -504.96703 
L 72.359882 -496.44296 
L 67.728471 -488.322332 
L 63.097059 -479.383222 
L 58.465647 -472.676312 
L 53.834235 -467.247969 
L 49.202824 -464.187511 
L 44.571412 -461.595572 
L 39.94 -456.989787 
z
" id="ma8ac9bb73a" style="stroke:#1f77b4;"/>
    </defs>
    <g clip-path="url(#p9059b2287d)">
     <use style="fill:#1f77b4;stroke:#1f77b4;" x="0" xlink:href="#ma8ac9bb73a" y="648"/>
    </g>
   </g>
   <g id="matplotlib.axis_1">
    <g id="xtick_1">
     <g id="line2d_1">
      <defs>
       <path d="M 0 0 
L 0 3.5 
" id="mf97d7ad01d" style="stroke:#000000;stroke-width:0.8;"/>
      </defs>
      <g>
       <use style="stroke:#000000;stroke-width:0.8;" x="39.94" xlink:href="#mf97d7ad01d" y="283.195"/>
      </g>
     </g>
    </g>
    <g id="xtick_2">
     <g id="line2d_2">
      <g>
       <use style="stroke:#000000;stroke-width:0.8;" x="75.728182" xlink:href="#mf97d7ad01d" y="283.195"/>
      </g>
     </g>
    </g>
    <g id="xtick_3">
     <g id="line2d_3">
      <g>
       <use style="stroke:#000000;stroke-width:0.8;" x="111.516364" xlink:href="#mf97d7ad01d" y="283.195"/>
      </g>
     </g>
    </g>
    <g id="xtick_4">
     <g id="line2d_4">
      <g>
       <use style="stroke:#000000;stroke-width:0.8;" x="147.304545" xlink:href="#mf97d7ad01d" y="283.195"/>
      </g>
     </g>
    </g>
    <g id="xtick_5">
     <g id="line2d_5">
      <g>
       <use style="stroke:#000000;stroke-width:0.8;" x="183.092727" xlink:href="#mf97d7ad01d" y="283.195"/>
      </g>
     </g>
    </g>
    <g id="xtick_6">
     <g id="line2d_6">
      <g>
       <use style="stroke:#000000;stroke-width:0.8;" x="218.880909" xlink:href="#mf97d7ad01d" y="283.195"/>
      </g>
     </g>
    </g>
    <g id="xtick_7">
     <g id="line2d_7">
      <g>
       <use style="stroke:#000000;stroke-width:0.8;" x="254.669091" xlink:href="#mf97d7ad01d" y="283.195"/>
      </g>
     </g>
    </g>
    <g id="xtick_8">
     <g id="line2d_8">
      <g>
       <use style="stroke:#000000;stroke-width:0.8;" x="290.457273" xlink:href="#mf97d7ad01d" y="283.195"/>
      </g>
     </g>
    </g>
    <g id="xtick_9">
     <g id="line2d_9">
      <g>
       <use style="stroke:#000000;stroke-width:0.8;" x="326.245455" xlink:href="#mf97d7ad01d" y="283.195"/>
      </g>
     </g>
    </g>
    <g id="xtick_10">
     <g id="line2d_10">
      <g>
       <use style="stroke:#000000;stroke-width:0.8;" x="362.033636" xlink:href="#mf97d7ad01d" y="283.195"/>
      </g>
     </g>
    </g>
    <g id="xtick_11">
     <g id="line2d_11">
      <g>
       <use style="stroke:#000000;stroke-width:0.8;" x="397.821818" xlink:href="#mf97d7ad01d" y="283.195"/>
      </g>
     </g>
    </g>
    <g id="xtick_12">
     <g id="line2d_12">
      <g>
       <use style="stroke:#000000;stroke-width:0.8;" x="433.61" xlink:href="#mf97d7ad01d" y="283.195"/>
      </g>
     </g>
    </g>
   </g>
   <g id="matplotlib.axis_2">
    <g id="ytick_1">
     <g id="line2d_13">
      <defs>
       <path d="M 0 0 
L -3.5 0 
" id="mf0d0d36eb6" style="stroke:#000000;stroke-width:0.8;"/>
      </defs>
      <g>
       <use style="stroke:#000000;stroke-width:0.8;" x="39.94" xlink:href="#mf0d0d36eb6" y="283.195"/>
      </g>
     </g>
     <g id="text_1">
      <!-- 0.00 -->
      <defs>
       <path d="M 31.78125 66.40625 
Q 24.171875 66.40625 20.328125 58.90625 
Q 16.5 51.421875 16.5 36.375 
Q 16.5 21.390625 20.328125 13.890625 
Q 24.171875 6.390625 31.78125 6.390625 
Q 39.453125 6.390625 43.28125 13.890625 
Q 47.125 21.390625 47.125 36.375 
Q 47.125 51.421875 43.28125 58.90625 
Q 39.453125 66.40625 31.78125 66.40625 
z
M 31.78125 74.21875 
Q 44.046875 74.21875 50.515625 64.515625 
Q 56.984375 54.828125 56.984375 36.375 
Q 56.984375 17.96875 50.515625 8.265625 
Q 44.046875 -1.421875 31.78125 -1.421875 
Q 19.53125 -1.421875 13.0625 8.265625 
Q 6.59375 17.96875 6.59375 36.375 
Q 6.59375 54.828125 13.0625 64.515625 
Q 19.53125 74.21875 31.78125 74.21875 
z
" id="DejaVuSans-30"/>
       <path d="M 10.6875 12.40625 
L 21 12.40625 
L 21 0 
L 10.6875 0 
z
" id="DejaVuSans-2e"/>
      </defs>
      <g transform="translate(10.674375 286.994219)scale(0.1 -0.1)">
       <use xlink:href="#DejaVuSans-30"/>
       <use x="63.623047" xlink:href="#DejaVuSans-2e"/>
       <use x="95.410156" xlink:href="#DejaVuSans-30"/>
       <use x="159.033203" xlink:href="#DejaVuSans-30"/>
      </g>
     </g>
    </g>
    <g id="ytick_2">
     <g id="line2d_14">
      <g>
       <use style="stroke:#000000;stroke-width:0.8;" x="39.94" xlink:href="#mf0d0d36eb6" y="248.386837"/>
      </g>
     </g>
     <g id="text_2">
      <!-- 0.01 -->
      <defs>
       <path d="M 12.40625 8.296875 
L 28.515625 8.296875 
L 28.515625 63.921875 
L 10.984375 60.40625 
L 10.984375 69.390625 
L 28.421875 72.90625 
L 38.28125 72.90625 
L 38.28125 8.296875 
L 54.390625 8.296875 
L 54.390625 0 
L 12.40625 0 
z
" id="DejaVuSans-31"/>
      </defs>
      <g transform="translate(10.674375 252.186056)scale(0.1 -0.1)">
       <use xlink:href="#DejaVuSans-30"/>
       <use x="63.623047" xlink:href="#DejaVuSans-2e"/>
       <use x="95.410156" xlink:href="#DejaVuSans-30"/>
       <use x="159.033203" xlink:href="#DejaVuSans-31"/>
      </g>
     </g>
    </g>
    <g id="ytick_3">
     <g id="line2d_15">
      <g>
       <use style="stroke:#000000;stroke-width:0.8;" x="39.94" xlink:href="#mf0d0d36eb6" y="213.578675"/>
      </g>
     </g>
     <g id="text_3">
      <!-- 0.02 -->
      <defs>
       <path d="M 19.1875 8.296875 
L 53.609375 8.296875 
L 53.609375 0 
L 7.328125 0 
L 7.328125 8.296875 
Q 12.9375 14.109375 22.625 23.890625 
Q 32.328125 33.6875 34.8125 36.53125 
Q 39.546875 41.84375 41.421875 45.53125 
Q 43.3125 49.21875 43.3125 52.78125 
Q 43.3125 58.59375 39.234375 62.25 
Q 35.15625 65.921875 28.609375 65.921875 
Q 23.96875 65.921875 18.8125 64.3125 
Q 13.671875 62.703125 7.8125 59.421875 
L 7.8125 69.390625 
Q 13.765625 71.78125 18.9375 73 
Q 24.125 74.21875 28.421875 74.21875 
Q 39.75 74.21875 46.484375 68.546875 
Q 53.21875 62.890625 53.21875 53.421875 
Q 53.21875 48.921875 51.53125 44.890625 
Q 49.859375 40.875 45.40625 35.40625 
Q 44.1875 33.984375 37.640625 27.21875 
Q 31.109375 20.453125 19.1875 8.296875 
z
" id="DejaVuSans-32"/>
      </defs>
      <g transform="translate(10.674375 217.377893)scale(0.1 -0.1)">
       <use xlink:href="#DejaVuSans-30"/>
       <use x="63.623047" xlink:href="#DejaVuSans-2e"/>
       <use x="95.410156" xlink:href="#DejaVuSans-30"/>
       <use x="159.033203" xlink:href="#DejaVuSans-32"/>
      </g>
     </g>
    </g>
    <g id="ytick_4">
     <g id="line2d_16">
      <g>
       <use style="stroke:#000000;stroke-width:0.8;" x="39.94" xlink:href="#mf0d0d36eb6" y="178.770512"/>
      </g>
     </g>
     <g id="text_4">
      <!-- 0.03 -->
      <defs>
       <path d="M 40.578125 39.3125 
Q 47.65625 37.796875 51.625 33 
Q 55.609375 28.21875 55.609375 21.1875 
Q 55.609375 10.40625 48.1875 4.484375 
Q 40.765625 -1.421875 27.09375 -1.421875 
Q 22.515625 -1.421875 17.65625 -0.515625 
Q 12.796875 0.390625 7.625 2.203125 
L 7.625 11.71875 
Q 11.71875 9.328125 16.59375 8.109375 
Q 21.484375 6.890625 26.8125 6.890625 
Q 36.078125 6.890625 40.9375 10.546875 
Q 45.796875 14.203125 45.796875 21.1875 
Q 45.796875 27.640625 41.28125 31.265625 
Q 36.765625 34.90625 28.71875 34.90625 
L 20.21875 34.90625 
L 20.21875 43.015625 
L 29.109375 43.015625 
Q 36.375 43.015625 40.234375 45.921875 
Q 44.09375 48.828125 44.09375 54.296875 
Q 44.09375 59.90625 40.109375 62.90625 
Q 36.140625 65.921875 28.71875 65.921875 
Q 24.65625 65.921875 20.015625 65.03125 
Q 15.375 64.15625 9.8125 62.3125 
L 9.8125 71.09375 
Q 15.4375 72.65625 20.34375 73.4375 
Q 25.25 74.21875 29.59375 74.21875 
Q 40.828125 74.21875 47.359375 69.109375 
Q 53.90625 64.015625 53.90625 55.328125 
Q 53.90625 49.265625 50.4375 45.09375 
Q 46.96875 40.921875 40.578125 39.3125 
z
" id="DejaVuSans-33"/>
      </defs>
      <g transform="translate(10.674375 182.569731)scale(0.1 -0.1)">
       <use xlink:href="#DejaVuSans-30"/>
       <use x="63.623047" xlink:href="#DejaVuSans-2e"/>
       <use x="95.410156" xlink:href="#DejaVuSans-30"/>
       <use x="159.033203" xlink:href="#DejaVuSans-33"/>
      </g>
     </g>
    </g>
    <g id="ytick_5">
     <g id="line2d_17">
      <g>
       <use style="stroke:#000000;stroke-width:0.8;" x="39.94" xlink:href="#mf0d0d36eb6" y="143.962349"/>
      </g>
     </g>
     <g id="text_5">
      <!-- 0.04 -->
      <defs>
       <path d="M 37.796875 64.3125 
L 12.890625 25.390625 
L 37.796875 25.390625 
z
M 35.203125 72.90625 
L 47.609375 72.90625 
L 47.609375 25.390625 
L 58.015625 25.390625 
L 58.015625 17.1875 
L 47.609375 17.1875 
L 47.609375 0 
L 37.796875 0 
L 37.796875 17.1875 
L 4.890625 17.1875 
L 4.890625 26.703125 
z
" id="DejaVuSans-34"/>
      </defs>
      <g transform="translate(10.674375 147.761568)scale(0.1 -0.1)">
       <use xlink:href="#DejaVuSans-30"/>
       <use x="63.623047" xlink:href="#DejaVuSans-2e"/>
       <use x="95.410156" xlink:href="#DejaVuSans-30"/>
       <use x="159.033203" xlink:href="#DejaVuSans-34"/>
      </g>
     </g>
    </g>
    <g id="ytick_6">
     <g id="line2d_18">
      <g>
       <use style="stroke:#000000;stroke-width:0.8;" x="39.94" xlink:href="#mf0d0d36eb6" y="109.154186"/>
      </g>
     </g>
     <g id="text_6">
      <!-- 0.05 -->
      <defs>
       <path d="M 10.796875 72.90625 
L 49.515625 72.90625 
L 49.515625 64.59375 
L 19.828125 64.59375 
L 19.828125 46.734375 
Q 21.96875 47.46875 24.109375 47.828125 
Q 26.265625 48.1875 28.421875 48.1875 
Q 40.625 48.1875 47.75 41.5 
Q 54.890625 34.8125 54.890625 23.390625 
Q 54.890625 11.625 47.5625 5.09375 
Q 40.234375 -1.421875 26.90625 -1.421875 
Q 22.3125 -1.421875 17.546875 -0.640625 
Q 12.796875 0.140625 7.71875 1.703125 
L 7.71875 11.625 
Q 12.109375 9.234375 16.796875 8.0625 
Q 21.484375 6.890625 26.703125 6.890625 
Q 35.15625 6.890625 40.078125 11.328125 
Q 45.015625 15.765625 45.015625 23.390625 
Q 45.015625 31 40.078125 35.4375 
Q 35.15625 39.890625 26.703125 39.890625 
Q 22.75 39.890625 18.8125 39.015625 
Q 14.890625 38.140625 10.796875 36.28125 
z
" id="DejaVuSans-35"/>
      </defs>
      <g transform="translate(10.674375 112.953405)scale(0.1 -0.1)">
       <use xlink:href="#DejaVuSans-30"/>
       <use x="63.623047" xlink:href="#DejaVuSans-2e"/>
       <use x="95.410156" xlink:href="#DejaVuSans-30"/>
       <use x="159.033203" xlink:href="#DejaVuSans-35"/>
      </g>
     </g>
    </g>
    <g id="ytick_7">
     <g id="line2d_19">
      <g>
       <use style="stroke:#000000;stroke-width:0.8;" x="39.94" xlink:href="#mf0d0d36eb6" y="74.346024"/>
      </g>
     </g>
     <g id="text_7">
      <!-- 0.06 -->
      <defs>
       <path d="M 33.015625 40.375 
Q 26.375 40.375 22.484375 35.828125 
Q 18.609375 31.296875 18.609375 23.390625 
Q 18.609375 15.53125 22.484375 10.953125 
Q 26.375 6.390625 33.015625 6.390625 
Q 39.65625 6.390625 43.53125 10.953125 
Q 47.40625 15.53125 47.40625 23.390625 
Q 47.40625 31.296875 43.53125 35.828125 
Q 39.65625 40.375 33.015625 40.375 
z
M 52.59375 71.296875 
L 52.59375 62.3125 
Q 48.875 64.0625 45.09375 64.984375 
Q 41.3125 65.921875 37.59375 65.921875 
Q 27.828125 65.921875 22.671875 59.328125 
Q 17.53125 52.734375 16.796875 39.40625 
Q 19.671875 43.65625 24.015625 45.921875 
Q 28.375 48.1875 33.59375 48.1875 
Q 44.578125 48.1875 50.953125 41.515625 
Q 57.328125 34.859375 57.328125 23.390625 
Q 57.328125 12.15625 50.6875 5.359375 
Q 44.046875 -1.421875 33.015625 -1.421875 
Q 20.359375 -1.421875 13.671875 8.265625 
Q 6.984375 17.96875 6.984375 36.375 
Q 6.984375 53.65625 15.1875 63.9375 
Q 23.390625 74.21875 37.203125 74.21875 
Q 40.921875 74.21875 44.703125 73.484375 
Q 48.484375 72.75 52.59375 71.296875 
z
" id="DejaVuSans-36"/>
      </defs>
      <g transform="translate(10.674375 78.145242)scale(0.1 -0.1)">
       <use xlink:href="#DejaVuSans-30"/>
       <use x="63.623047" xlink:href="#DejaVuSans-2e"/>
       <use x="95.410156" xlink:href="#DejaVuSans-30"/>
       <use x="159.033203" xlink:href="#DejaVuSans-36"/>
      </g>
     </g>
    </g>
    <g id="ytick_8">
     <g id="line2d_20">
      <g>
       <use style="stroke:#000000;stroke-width:0.8;" x="39.94" xlink:href="#mf0d0d36eb6" y="39.537861"/>
      </g>
     </g>
     <g id="text_8">
      <!-- 0.07 -->
      <defs>
       <path d="M 8.203125 72.90625 
L 55.078125 72.90625 
L 55.078125 68.703125 
L 28.609375 0 
L 18.3125 0 
L 43.21875 64.59375 
L 8.203125 64.59375 
z
" id="DejaVuSans-37"/>
      </defs>
      <g transform="translate(10.674375 43.33708)scale(0.1 -0.1)">
       <use xlink:href="#DejaVuSans-30"/>
       <use x="63.623047" xlink:href="#DejaVuSans-2e"/>
       <use x="95.410156" xlink:href="#DejaVuSans-30"/>
       <use x="159.033203" xlink:href="#DejaVuSans-37"/>
      </g>
     </g>
    </g>
   </g>
   <g id="line2d_21">
    <path clip-path="url(#p9059b2287d)" d="M 39.94 191.010213 
L 44.571412 186.404428 
L 49.202824 183.812489 
L 53.834235 180.752031 
L 58.465647 175.323688 
L 63.097059 168.616778 
L 67.728471 159.677668 
L 72.359882 151.55704 
L 76.991294 143.03297 
L 81.622706 133.119069 
L 86.254118 129.914522 
L 90.885529 129.025689 
L 95.516941 123.270005 
L 100.148353 114.978732 
L 104.779765 108.27139 
L 109.411176 102.715343 
L 114.042588 100.803701 
L 118.674 101.072501 
L 123.305412 102.658013 
L 127.936824 100.25605 
L 132.568235 93.731733 
L 137.199647 90.829049 
L 141.831059 89.114492 
L 146.462471 88.885322 
L 151.093882 88.666668 
L 155.725294 90.708797 
L 160.356706 90.22167 
L 164.988118 87.377091 
L 169.619529 86.214378 
L 174.250941 86.872848 
L 178.882353 89.44657 
L 183.513765 90.874023 
L 188.145176 94.51489 
L 192.776588 95.693193 
L 197.408 93.656084 
L 202.039412 92.810506 
L 206.670824 93.236583 
L 211.302235 94.556297 
L 215.933647 95.653143 
L 220.565059 96.900339 
L 225.196471 97.291291 
L 229.827882 95.656972 
L 234.459294 94.505985 
L 239.090706 94.807485 
L 243.722118 94.923113 
L 248.353529 97.131254 
L 252.984941 99.183726 
L 257.616353 99.802397 
L 262.247765 98.147858 
L 266.879176 97.614746 
L 271.510588 97.739011 
L 276.142 98.560798 
L 280.773412 99.545218 
L 285.404824 101.124525 
L 290.036235 102.23472 
L 294.667647 102.108487 
L 299.299059 100.440698 
L 303.930471 99.978662 
L 308.561882 99.767532 
L 313.193294 99.650416 
L 317.824706 100.199941 
L 322.456118 99.918744 
L 327.087529 101.628028 
L 331.718941 101.627431 
L 336.350353 101.169199 
L 340.981765 101.884132 
L 345.613176 102.250103 
L 350.244588 102.563228 
L 354.876 102.903375 
L 359.507412 102.619354 
L 364.138824 102.062706 
L 368.770235 102.035151 
L 373.401647 101.933066 
L 378.033059 102.265221 
L 382.664471 102.785211 
L 387.295882 103.341294 
L 391.927294 103.472389 
L 396.558706 103.678081 
L 401.190118 103.903827 
L 405.821529 104.317715 
L 410.452941 104.943625 
L 415.084353 105.706542 
L 419.715765 106.438926 
L 424.347176 106.84534 
L 428.978588 107.800012 
L 433.61 108.909621 
" style="fill:none;stroke:#1f77b4;stroke-linecap:square;stroke-width:1.5;"/>
   </g>
   <g id="patch_3">
    <path d="M 39.94 283.195 
L 39.94 25.44 
" style="fill:none;stroke:#000000;stroke-linecap:square;stroke-linejoin:miter;stroke-width:0.8;"/>
   </g>
   <g id="patch_4">
    <path d="M 433.61 283.195 
L 433.61 25.44 
" style="fill:none;stroke:#000000;stroke-linecap:square;stroke-linejoin:miter;stroke-width:0.8;"/>
   </g>
   <g id="patch_5">
    <path d="M 39.94 283.195 
L 433.61 283.195 
" style="fill:none;stroke:#000000;stroke-linecap:square;stroke-linejoin:miter;stroke-width:0.8;"/>
   </g>
   <g id="patch_6">
    <path d="M 39.94 25.44 
L 433.61 25.44 
" style="fill:none;stroke:#000000;stroke-linecap:square;stroke-linejoin:miter;stroke-width:0.8;"/>
   </g>
   <g id="text_9">
    <!-- Midwest -->
    <defs>
     <path d="M 9.8125 72.90625 
L 24.515625 72.90625 
L 43.109375 23.296875 
L 61.8125 72.90625 
L 76.515625 72.90625 
L 76.515625 0 
L 66.890625 0 
L 66.890625 64.015625 
L 48.09375 14.015625 
L 38.1875 14.015625 
L 19.390625 64.015625 
L 19.390625 0 
L 9.8125 0 
z
" id="DejaVuSans-4d"/>
     <path d="M 9.421875 54.6875 
L 18.40625 54.6875 
L 18.40625 0 
L 9.421875 0 
z
M 9.421875 75.984375 
L 18.40625 75.984375 
L 18.40625 64.59375 
L 9.421875 64.59375 
z
" id="DejaVuSans-69"/>
     <path d="M 45.40625 46.390625 
L 45.40625 75.984375 
L 54.390625 75.984375 
L 54.390625 0 
L 45.40625 0 
L 45.40625 8.203125 
Q 42.578125 3.328125 38.25 0.953125 
Q 33.9375 -1.421875 27.875 -1.421875 
Q 17.96875 -1.421875 11.734375 6.484375 
Q 5.515625 14.40625 5.515625 27.296875 
Q 5.515625 40.1875 11.734375 48.09375 
Q 17.96875 56 27.875 56 
Q 33.9375 56 38.25 53.625 
Q 42.578125 51.265625 45.40625 46.390625 
z
M 14.796875 27.296875 
Q 14.796875 17.390625 18.875 11.75 
Q 22.953125 6.109375 30.078125 6.109375 
Q 37.203125 6.109375 41.296875 11.75 
Q 45.40625 17.390625 45.40625 27.296875 
Q 45.40625 37.203125 41.296875 42.84375 
Q 37.203125 48.484375 30.078125 48.484375 
Q 22.953125 48.484375 18.875 42.84375 
Q 14.796875 37.203125 14.796875 27.296875 
z
" id="DejaVuSans-64"/>
     <path d="M 4.203125 54.6875 
L 13.1875 54.6875 
L 24.421875 12.015625 
L 35.59375 54.6875 
L 46.1875 54.6875 
L 57.421875 12.015625 
L 68.609375 54.6875 
L 77.59375 54.6875 
L 63.28125 0 
L 52.6875 0 
L 40.921875 44.828125 
L 29.109375 0 
L 18.5 0 
z
" id="DejaVuSans-77"/>
     <path d="M 56.203125 29.59375 
L 56.203125 25.203125 
L 14.890625 25.203125 
Q 15.484375 15.921875 20.484375 11.0625 
Q 25.484375 6.203125 34.421875 6.203125 
Q 39.59375 6.203125 44.453125 7.46875 
Q 49.3125 8.734375 54.109375 11.28125 
L 54.109375 2.78125 
Q 49.265625 0.734375 44.1875 -0.34375 
Q 39.109375 -1.421875 33.890625 -1.421875 
Q 20.796875 -1.421875 13.15625 6.1875 
Q 5.515625 13.8125 5.515625 26.8125 
Q 5.515625 40.234375 12.765625 48.109375 
Q 20.015625 56 32.328125 56 
Q 43.359375 56 49.78125 48.890625 
Q 56.203125 41.796875 56.203125 29.59375 
z
M 47.21875 32.234375 
Q 47.125 39.59375 43.09375 43.984375 
Q 39.0625 48.390625 32.421875 48.390625 
Q 24.90625 48.390625 20.390625 44.140625 
Q 15.875 39.890625 15.1875 32.171875 
z
" id="DejaVuSans-65"/>
     <path d="M 44.28125 53.078125 
L 44.28125 44.578125 
Q 40.484375 46.53125 36.375 47.5 
Q 32.28125 48.484375 27.875 48.484375 
Q 21.1875 48.484375 17.84375 46.4375 
Q 14.5 44.390625 14.5 40.28125 
Q 14.5 37.15625 16.890625 35.375 
Q 19.28125 33.59375 26.515625 31.984375 
L 29.59375 31.296875 
Q 39.15625 29.25 43.1875 25.515625 
Q 47.21875 21.78125 47.21875 15.09375 
Q 47.21875 7.46875 41.1875 3.015625 
Q 35.15625 -1.421875 24.609375 -1.421875 
Q 20.21875 -1.421875 15.453125 -0.5625 
Q 10.6875 0.296875 5.421875 2 
L 5.421875 11.28125 
Q 10.40625 8.6875 15.234375 7.390625 
Q 20.0625 6.109375 24.8125 6.109375 
Q 31.15625 6.109375 34.5625 8.28125 
Q 37.984375 10.453125 37.984375 14.40625 
Q 37.984375 18.0625 35.515625 20.015625 
Q 33.0625 21.96875 24.703125 23.78125 
L 21.578125 24.515625 
Q 13.234375 26.265625 9.515625 29.90625 
Q 5.8125 33.546875 5.8125 39.890625 
Q 5.8125 47.609375 11.28125 51.796875 
Q 16.75 56 26.8125 56 
Q 31.78125 56 36.171875 55.265625 
Q 40.578125 54.546875 44.28125 53.078125 
z
" id="DejaVuSans-73"/>
     <path d="M 18.3125 70.21875 
L 18.3125 54.6875 
L 36.8125 54.6875 
L 36.8125 47.703125 
L 18.3125 47.703125 
L 18.3125 18.015625 
Q 18.3125 11.328125 20.140625 9.421875 
Q 21.96875 7.515625 27.59375 7.515625 
L 36.8125 7.515625 
L 36.8125 0 
L 27.59375 0 
Q 17.1875 0 13.234375 3.875 
Q 9.28125 7.765625 9.28125 18.015625 
L 9.28125 47.703125 
L 2.6875 47.703125 
L 2.6875 54.6875 
L 9.28125 54.6875 
L 9.28125 70.21875 
z
" id="DejaVuSans-74"/>
    </defs>
    <g transform="translate(212.045625 19.44)scale(0.12 -0.12)">
     <use xlink:href="#DejaVuSans-4d"/>
     <use x="86.279297" xlink:href="#DejaVuSans-69"/>
     <use x="114.0625" xlink:href="#DejaVuSans-64"/>
     <use x="177.539062" xlink:href="#DejaVuSans-77"/>
     <use x="259.326172" xlink:href="#DejaVuSans-65"/>
     <use x="320.849609" xlink:href="#DejaVuSans-73"/>
     <use x="372.949219" xlink:href="#DejaVuSans-74"/>
    </g>
   </g>
  </g>
  <g id="axes_2">
   <g id="patch_7">
    <path d="M 454.49 283.195 
L 848.16 283.195 
L 848.16 25.44 
L 454.49 25.44 
z
" style="fill:#ffffff;"/>
   </g>
   <g id="PolyCollection_2">
    <defs>
     <path d="M 454.49 -418.829944 
L 454.49 -364.805 
L 459.121412 -364.805 
L 463.752824 -364.805 
L 468.384235 -364.805 
L 473.015647 -364.805 
L 477.647059 -364.805 
L 482.278471 -364.805 
L 486.909882 -364.805 
L 491.541294 -364.805 
L 496.172706 -364.805 
L 500.804118 -364.805 
L 505.435529 -364.805 
L 510.066941 -364.805 
L 514.698353 -364.805 
L 519.329765 -364.805 
L 523.961176 -364.805 
L 528.592588 -364.805 
L 533.224 -364.805 
L 537.855412 -364.805 
L 542.486824 -364.805 
L 547.118235 -364.805 
L 551.749647 -364.805 
L 556.381059 -364.805 
L 561.012471 -364.805 
L 565.643882 -364.805 
L 570.275294 -364.805 
L 574.906706 -364.805 
L 579.538118 -364.805 
L 584.169529 -364.805 
L 588.800941 -364.805 
L 593.432353 -364.805 
L 598.063765 -364.805 
L 602.695176 -364.805 
L 607.326588 -364.805 
L 611.958 -364.805 
L 616.589412 -364.805 
L 621.220824 -364.805 
L 625.852235 -364.805 
L 630.483647 -364.805 
L 635.115059 -364.805 
L 639.746471 -364.805 
L 644.377882 -364.805 
L 649.009294 -364.805 
L 653.640706 -364.805 
L 658.272118 -364.805 
L 662.903529 -364.805 
L 667.534941 -364.805 
L 672.166353 -364.805 
L 676.797765 -364.805 
L 681.429176 -364.805 
L 686.060588 -364.805 
L 690.692 -364.805 
L 695.323412 -364.805 
L 699.954824 -364.805 
L 704.586235 -364.805 
L 709.217647 -364.805 
L 713.849059 -364.805 
L 718.480471 -364.805 
L 723.111882 -364.805 
L 727.743294 -364.805 
L 732.374706 -364.805 
L 737.006118 -364.805 
L 741.637529 -364.805 
L 746.268941 -364.805 
L 750.900353 -364.805 
L 755.531765 -364.805 
L 760.163176 -364.805 
L 764.794588 -364.805 
L 769.426 -364.805 
L 774.057412 -364.805 
L 778.688824 -364.805 
L 783.320235 -364.805 
L 787.951647 -364.805 
L 792.583059 -364.805 
L 797.214471 -364.805 
L 801.845882 -364.805 
L 806.477294 -364.805 
L 811.108706 -364.805 
L 815.740118 -364.805 
L 820.371529 -364.805 
L 825.002941 -364.805 
L 829.634353 -364.805 
L 834.265765 -364.805 
L 838.897176 -364.805 
L 843.528588 -364.805 
L 848.16 -364.805 
L 848.16 -609.993002 
L 848.16 -609.993002 
L 843.528588 -610.285952 
L 838.897176 -609.849001 
L 834.265765 -609.795893 
L 829.634353 -609.785776 
L 825.002941 -609.89475 
L 820.371529 -610.091801 
L 815.740118 -610.26368 
L 811.108706 -610.008939 
L 806.477294 -609.669764 
L 801.845882 -610.101213 
L 797.214471 -609.964679 
L 792.583059 -609.892546 
L 787.951647 -609.704726 
L 783.320235 -609.37376 
L 778.688824 -609.056603 
L 774.057412 -608.58018 
L 769.426 -607.91105 
L 764.794588 -607.566288 
L 760.163176 -607.379815 
L 755.531765 -607.164074 
L 750.900353 -606.906459 
L 746.268941 -606.468482 
L 741.637529 -605.831667 
L 737.006118 -605.602181 
L 732.374706 -606.124451 
L 727.743294 -606.005649 
L 723.111882 -605.650757 
L 718.480471 -605.157144 
L 713.849059 -604.811149 
L 709.217647 -603.963624 
L 704.586235 -603.679959 
L 699.954824 -603.775565 
L 695.323412 -604.070594 
L 690.692 -603.356913 
L 686.060588 -602.833334 
L 681.429176 -602.423539 
L 676.797765 -601.459907 
L 672.166353 -600.351643 
L 667.534941 -600.167961 
L 662.903529 -599.967226 
L 658.272118 -599.684291 
L 653.640706 -599.18502 
L 649.009294 -596.987431 
L 644.377882 -594.734294 
L 639.746471 -593.034918 
L 635.115059 -592.401275 
L 630.483647 -591.938788 
L 625.852235 -591.260152 
L 621.220824 -590.091729 
L 616.589412 -588.092895 
L 611.958 -582.37558 
L 607.326588 -577.504803 
L 602.695176 -575.10696 
L 598.063765 -574.581696 
L 593.432353 -574.096542 
L 588.800941 -572.768707 
L 584.169529 -570.801664 
L 579.538118 -566.573785 
L 574.906706 -561.987077 
L 570.275294 -560.335468 
L 565.643882 -560.362017 
L 561.012471 -560.840534 
L 556.381059 -561.075084 
L 551.749647 -559.905951 
L 547.118235 -556.874623 
L 542.486824 -552.127201 
L 537.855412 -548.595819 
L 533.224 -540.001984 
L 528.592588 -535.560774 
L 523.961176 -536.918725 
L 519.329765 -534.772966 
L 514.698353 -529.335951 
L 510.066941 -522.383829 
L 505.435529 -517.238531 
L 500.804118 -513.38348 
L 496.172706 -508.360076 
L 491.541294 -502.10047 
L 486.909882 -495.974722 
L 482.278471 -488.311854 
L 477.647059 -477.69003 
L 473.015647 -470.333677 
L 468.384235 -453.89098 
L 463.752824 -423.94443 
L 459.121412 -423.010932 
L 454.49 -418.829944 
z
" id="m4110f2a17b" style="stroke:#ff7f0e;"/>
    </defs>
    <g clip-path="url(#p387345edf7)">
     <use style="fill:#ff7f0e;stroke:#ff7f0e;" x="0" xlink:href="#m4110f2a17b" y="648"/>
    </g>
   </g>
   <g id="matplotlib.axis_3">
    <g id="xtick_13">
     <g id="line2d_22">
      <g>
       <use style="stroke:#000000;stroke-width:0.8;" x="454.49" xlink:href="#mf97d7ad01d" y="283.195"/>
      </g>
     </g>
    </g>
    <g id="xtick_14">
     <g id="line2d_23">
      <g>
       <use style="stroke:#000000;stroke-width:0.8;" x="490.278182" xlink:href="#mf97d7ad01d" y="283.195"/>
      </g>
     </g>
    </g>
    <g id="xtick_15">
     <g id="line2d_24">
      <g>
       <use style="stroke:#000000;stroke-width:0.8;" x="526.066364" xlink:href="#mf97d7ad01d" y="283.195"/>
      </g>
     </g>
    </g>
    <g id="xtick_16">
     <g id="line2d_25">
      <g>
       <use style="stroke:#000000;stroke-width:0.8;" x="561.854545" xlink:href="#mf97d7ad01d" y="283.195"/>
      </g>
     </g>
    </g>
    <g id="xtick_17">
     <g id="line2d_26">
      <g>
       <use style="stroke:#000000;stroke-width:0.8;" x="597.642727" xlink:href="#mf97d7ad01d" y="283.195"/>
      </g>
     </g>
    </g>
    <g id="xtick_18">
     <g id="line2d_27">
      <g>
       <use style="stroke:#000000;stroke-width:0.8;" x="633.430909" xlink:href="#mf97d7ad01d" y="283.195"/>
      </g>
     </g>
    </g>
    <g id="xtick_19">
     <g id="line2d_28">
      <g>
       <use style="stroke:#000000;stroke-width:0.8;" x="669.219091" xlink:href="#mf97d7ad01d" y="283.195"/>
      </g>
     </g>
    </g>
    <g id="xtick_20">
     <g id="line2d_29">
      <g>
       <use style="stroke:#000000;stroke-width:0.8;" x="705.007273" xlink:href="#mf97d7ad01d" y="283.195"/>
      </g>
     </g>
    </g>
    <g id="xtick_21">
     <g id="line2d_30">
      <g>
       <use style="stroke:#000000;stroke-width:0.8;" x="740.795455" xlink:href="#mf97d7ad01d" y="283.195"/>
      </g>
     </g>
    </g>
    <g id="xtick_22">
     <g id="line2d_31">
      <g>
       <use style="stroke:#000000;stroke-width:0.8;" x="776.583636" xlink:href="#mf97d7ad01d" y="283.195"/>
      </g>
     </g>
    </g>
    <g id="xtick_23">
     <g id="line2d_32">
      <g>
       <use style="stroke:#000000;stroke-width:0.8;" x="812.371818" xlink:href="#mf97d7ad01d" y="283.195"/>
      </g>
     </g>
    </g>
    <g id="xtick_24">
     <g id="line2d_33">
      <g>
       <use style="stroke:#000000;stroke-width:0.8;" x="848.16" xlink:href="#mf97d7ad01d" y="283.195"/>
      </g>
     </g>
    </g>
   </g>
   <g id="matplotlib.axis_4">
    <g id="ytick_9">
     <g id="line2d_34">
      <g>
       <use style="stroke:#000000;stroke-width:0.8;" x="454.49" xlink:href="#mf0d0d36eb6" y="283.195"/>
      </g>
     </g>
    </g>
    <g id="ytick_10">
     <g id="line2d_35">
      <g>
       <use style="stroke:#000000;stroke-width:0.8;" x="454.49" xlink:href="#mf0d0d36eb6" y="248.386837"/>
      </g>
     </g>
    </g>
    <g id="ytick_11">
     <g id="line2d_36">
      <g>
       <use style="stroke:#000000;stroke-width:0.8;" x="454.49" xlink:href="#mf0d0d36eb6" y="213.578675"/>
      </g>
     </g>
    </g>
    <g id="ytick_12">
     <g id="line2d_37">
      <g>
       <use style="stroke:#000000;stroke-width:0.8;" x="454.49" xlink:href="#mf0d0d36eb6" y="178.770512"/>
      </g>
     </g>
    </g>
    <g id="ytick_13">
     <g id="line2d_38">
      <g>
       <use style="stroke:#000000;stroke-width:0.8;" x="454.49" xlink:href="#mf0d0d36eb6" y="143.962349"/>
      </g>
     </g>
    </g>
    <g id="ytick_14">
     <g id="line2d_39">
      <g>
       <use style="stroke:#000000;stroke-width:0.8;" x="454.49" xlink:href="#mf0d0d36eb6" y="109.154186"/>
      </g>
     </g>
    </g>
    <g id="ytick_15">
     <g id="line2d_40">
      <g>
       <use style="stroke:#000000;stroke-width:0.8;" x="454.49" xlink:href="#mf0d0d36eb6" y="74.346024"/>
      </g>
     </g>
    </g>
    <g id="ytick_16">
     <g id="line2d_41">
      <g>
       <use style="stroke:#000000;stroke-width:0.8;" x="454.49" xlink:href="#mf0d0d36eb6" y="39.537861"/>
      </g>
     </g>
    </g>
   </g>
   <g id="line2d_42">
    <path clip-path="url(#p387345edf7)" d="M 454.49 229.170056 
L 459.121412 224.989068 
L 463.752824 224.05557 
L 468.384235 194.10902 
L 473.015647 177.666323 
L 477.647059 170.30997 
L 482.278471 159.688146 
L 486.909882 152.025278 
L 491.541294 145.89953 
L 496.172706 139.639924 
L 500.804118 134.61652 
L 505.435529 130.761469 
L 510.066941 125.616171 
L 514.698353 118.664049 
L 519.329765 113.227034 
L 523.961176 111.081275 
L 528.592588 112.439226 
L 533.224 107.998016 
L 537.855412 99.404181 
L 542.486824 95.872799 
L 547.118235 91.125377 
L 551.749647 88.094049 
L 556.381059 86.924916 
L 561.012471 87.159466 
L 565.643882 87.637983 
L 570.275294 87.664532 
L 574.906706 86.012923 
L 579.538118 81.426215 
L 584.169529 77.198336 
L 588.800941 75.231293 
L 593.432353 73.903458 
L 598.063765 73.418304 
L 602.695176 72.89304 
L 607.326588 70.495197 
L 611.958 65.62442 
L 616.589412 59.907105 
L 621.220824 57.908271 
L 625.852235 56.739848 
L 630.483647 56.061212 
L 635.115059 55.598725 
L 639.746471 54.965082 
L 644.377882 53.265706 
L 649.009294 51.012569 
L 653.640706 48.81498 
L 658.272118 48.315709 
L 662.903529 48.032774 
L 667.534941 47.832039 
L 672.166353 47.648357 
L 676.797765 46.540093 
L 681.429176 45.576461 
L 686.060588 45.166666 
L 690.692 44.643087 
L 695.323412 43.929406 
L 699.954824 44.224435 
L 704.586235 44.320041 
L 709.217647 44.036376 
L 713.849059 43.188851 
L 718.480471 42.842856 
L 723.111882 42.349243 
L 727.743294 41.994351 
L 732.374706 41.875549 
L 737.006118 42.397819 
L 741.637529 42.168333 
L 746.268941 41.531518 
L 750.900353 41.093541 
L 755.531765 40.835926 
L 760.163176 40.620185 
L 764.794588 40.433712 
L 769.426 40.08895 
L 774.057412 39.41982 
L 778.688824 38.943397 
L 783.320235 38.62624 
L 787.951647 38.295274 
L 792.583059 38.107454 
L 797.214471 38.035321 
L 801.845882 37.898787 
L 806.477294 38.330236 
L 811.108706 37.991061 
L 815.740118 37.73632 
L 820.371529 37.908199 
L 825.002941 38.10525 
L 829.634353 38.214224 
L 834.265765 38.204107 
L 838.897176 38.150999 
L 843.528588 37.714048 
L 848.16 38.006998 
" style="fill:none;stroke:#ff7f0e;stroke-linecap:square;stroke-width:1.5;"/>
   </g>
   <g id="patch_8">
    <path d="M 454.49 283.195 
L 454.49 25.44 
" style="fill:none;stroke:#000000;stroke-linecap:square;stroke-linejoin:miter;stroke-width:0.8;"/>
   </g>
   <g id="patch_9">
    <path d="M 848.16 283.195 
L 848.16 25.44 
" style="fill:none;stroke:#000000;stroke-linecap:square;stroke-linejoin:miter;stroke-width:0.8;"/>
   </g>
   <g id="patch_10">
    <path d="M 454.49 283.195 
L 848.16 283.195 
" style="fill:none;stroke:#000000;stroke-linecap:square;stroke-linejoin:miter;stroke-width:0.8;"/>
   </g>
   <g id="patch_11">
    <path d="M 454.49 25.44 
L 848.16 25.44 
" style="fill:none;stroke:#000000;stroke-linecap:square;stroke-linejoin:miter;stroke-width:0.8;"/>
   </g>
   <g id="text_10">
    <!-- Northeast -->
    <defs>
     <path d="M 9.8125 72.90625 
L 23.09375 72.90625 
L 55.421875 11.921875 
L 55.421875 72.90625 
L 64.984375 72.90625 
L 64.984375 0 
L 51.703125 0 
L 19.390625 60.984375 
L 19.390625 0 
L 9.8125 0 
z
" id="DejaVuSans-4e"/>
     <path d="M 30.609375 48.390625 
Q 23.390625 48.390625 19.1875 42.75 
Q 14.984375 37.109375 14.984375 27.296875 
Q 14.984375 17.484375 19.15625 11.84375 
Q 23.34375 6.203125 30.609375 6.203125 
Q 37.796875 6.203125 41.984375 11.859375 
Q 46.1875 17.53125 46.1875 27.296875 
Q 46.1875 37.015625 41.984375 42.703125 
Q 37.796875 48.390625 30.609375 48.390625 
z
M 30.609375 56 
Q 42.328125 56 49.015625 48.375 
Q 55.71875 40.765625 55.71875 27.296875 
Q 55.71875 13.875 49.015625 6.21875 
Q 42.328125 -1.421875 30.609375 -1.421875 
Q 18.84375 -1.421875 12.171875 6.21875 
Q 5.515625 13.875 5.515625 27.296875 
Q 5.515625 40.765625 12.171875 48.375 
Q 18.84375 56 30.609375 56 
z
" id="DejaVuSans-6f"/>
     <path d="M 41.109375 46.296875 
Q 39.59375 47.171875 37.8125 47.578125 
Q 36.03125 48 33.890625 48 
Q 26.265625 48 22.1875 43.046875 
Q 18.109375 38.09375 18.109375 28.8125 
L 18.109375 0 
L 9.078125 0 
L 9.078125 54.6875 
L 18.109375 54.6875 
L 18.109375 46.1875 
Q 20.953125 51.171875 25.484375 53.578125 
Q 30.03125 56 36.53125 56 
Q 37.453125 56 38.578125 55.875 
Q 39.703125 55.765625 41.0625 55.515625 
z
" id="DejaVuSans-72"/>
     <path d="M 54.890625 33.015625 
L 54.890625 0 
L 45.90625 0 
L 45.90625 32.71875 
Q 45.90625 40.484375 42.875 44.328125 
Q 39.84375 48.1875 33.796875 48.1875 
Q 26.515625 48.1875 22.3125 43.546875 
Q 18.109375 38.921875 18.109375 30.90625 
L 18.109375 0 
L 9.078125 0 
L 9.078125 75.984375 
L 18.109375 75.984375 
L 18.109375 46.1875 
Q 21.34375 51.125 25.703125 53.5625 
Q 30.078125 56 35.796875 56 
Q 45.21875 56 50.046875 50.171875 
Q 54.890625 44.34375 54.890625 33.015625 
z
" id="DejaVuSans-68"/>
     <path d="M 34.28125 27.484375 
Q 23.390625 27.484375 19.1875 25 
Q 14.984375 22.515625 14.984375 16.5 
Q 14.984375 11.71875 18.140625 8.90625 
Q 21.296875 6.109375 26.703125 6.109375 
Q 34.1875 6.109375 38.703125 11.40625 
Q 43.21875 16.703125 43.21875 25.484375 
L 43.21875 27.484375 
z
M 52.203125 31.203125 
L 52.203125 0 
L 43.21875 0 
L 43.21875 8.296875 
Q 40.140625 3.328125 35.546875 0.953125 
Q 30.953125 -1.421875 24.3125 -1.421875 
Q 15.921875 -1.421875 10.953125 3.296875 
Q 6 8.015625 6 15.921875 
Q 6 25.140625 12.171875 29.828125 
Q 18.359375 34.515625 30.609375 34.515625 
L 43.21875 34.515625 
L 43.21875 35.40625 
Q 43.21875 41.609375 39.140625 45 
Q 35.0625 48.390625 27.6875 48.390625 
Q 23 48.390625 18.546875 47.265625 
Q 14.109375 46.140625 10.015625 43.890625 
L 10.015625 52.203125 
Q 14.9375 54.109375 19.578125 55.046875 
Q 24.21875 56 28.609375 56 
Q 40.484375 56 46.34375 49.84375 
Q 52.203125 43.703125 52.203125 31.203125 
z
" id="DejaVuSans-61"/>
    </defs>
    <g transform="translate(621.697187 19.44)scale(0.12 -0.12)">
     <use xlink:href="#DejaVuSans-4e"/>
     <use x="74.804688" xlink:href="#DejaVuSans-6f"/>
     <use x="135.986328" xlink:href="#DejaVuSans-72"/>
     <use x="177.099609" xlink:href="#DejaVuSans-74"/>
     <use x="216.308594" xlink:href="#DejaVuSans-68"/>
     <use x="279.6875" xlink:href="#DejaVuSans-65"/>
     <use x="341.210938" xlink:href="#DejaVuSans-61"/>
     <use x="402.490234" xlink:href="#DejaVuSans-73"/>
     <use x="454.589844" xlink:href="#DejaVuSans-74"/>
    </g>
   </g>
  </g>
  <g id="axes_3">
   <g id="patch_12">
    <path d="M 39.94 572.51 
L 433.61 572.51 
L 433.61 314.755 
L 39.94 314.755 
z
" style="fill:#ffffff;"/>
   </g>
   <g id="PolyCollection_3">
    <defs>
     <path d="M 39.94 -153.736086 
L 39.94 -75.49 
L 44.571412 -75.49 
L 49.202824 -75.49 
L 53.834235 -75.49 
L 58.465647 -75.49 
L 63.097059 -75.49 
L 67.728471 -75.49 
L 72.359882 -75.49 
L 76.991294 -75.49 
L 81.622706 -75.49 
L 86.254118 -75.49 
L 90.885529 -75.49 
L 95.516941 -75.49 
L 100.148353 -75.49 
L 104.779765 -75.49 
L 109.411176 -75.49 
L 114.042588 -75.49 
L 118.674 -75.49 
L 123.305412 -75.49 
L 127.936824 -75.49 
L 132.568235 -75.49 
L 137.199647 -75.49 
L 141.831059 -75.49 
L 146.462471 -75.49 
L 151.093882 -75.49 
L 155.725294 -75.49 
L 160.356706 -75.49 
L 164.988118 -75.49 
L 169.619529 -75.49 
L 174.250941 -75.49 
L 178.882353 -75.49 
L 183.513765 -75.49 
L 188.145176 -75.49 
L 192.776588 -75.49 
L 197.408 -75.49 
L 202.039412 -75.49 
L 206.670824 -75.49 
L 211.302235 -75.49 
L 215.933647 -75.49 
L 220.565059 -75.49 
L 225.196471 -75.49 
L 229.827882 -75.49 
L 234.459294 -75.49 
L 239.090706 -75.49 
L 243.722118 -75.49 
L 248.353529 -75.49 
L 252.984941 -75.49 
L 257.616353 -75.49 
L 262.247765 -75.49 
L 266.879176 -75.49 
L 271.510588 -75.49 
L 276.142 -75.49 
L 280.773412 -75.49 
L 285.404824 -75.49 
L 290.036235 -75.49 
L 294.667647 -75.49 
L 299.299059 -75.49 
L 303.930471 -75.49 
L 308.561882 -75.49 
L 313.193294 -75.49 
L 317.824706 -75.49 
L 322.456118 -75.49 
L 327.087529 -75.49 
L 331.718941 -75.49 
L 336.350353 -75.49 
L 340.981765 -75.49 
L 345.613176 -75.49 
L 350.244588 -75.49 
L 354.876 -75.49 
L 359.507412 -75.49 
L 364.138824 -75.49 
L 368.770235 -75.49 
L 373.401647 -75.49 
L 378.033059 -75.49 
L 382.664471 -75.49 
L 387.295882 -75.49 
L 391.927294 -75.49 
L 396.558706 -75.49 
L 401.190118 -75.49 
L 405.821529 -75.49 
L 410.452941 -75.49 
L 415.084353 -75.49 
L 419.715765 -75.49 
L 424.347176 -75.49 
L 428.978588 -75.49 
L 433.61 -75.49 
L 433.61 -182.121081 
L 433.61 -182.121081 
L 428.978588 -184.427485 
L 424.347176 -186.581989 
L 419.715765 -188.040878 
L 415.084353 -189.614282 
L 410.452941 -191.178589 
L 405.821529 -193.129527 
L 401.190118 -195.093382 
L 396.558706 -196.251957 
L 391.927294 -197.546788 
L 387.295882 -198.606355 
L 382.664471 -199.896379 
L 378.033059 -201.635212 
L 373.401647 -203.351749 
L 368.770235 -205.238309 
L 364.138824 -206.131134 
L 359.507412 -206.75363 
L 354.876 -206.831348 
L 350.244588 -208.007987 
L 345.613176 -209.225049 
L 340.981765 -210.448951 
L 336.350353 -211.294447 
L 331.718941 -212.370954 
L 327.087529 -212.691372 
L 322.456118 -212.50636 
L 317.824706 -213.213957 
L 313.193294 -214.343683 
L 308.561882 -215.173297 
L 303.930471 -215.59632 
L 299.299059 -215.715906 
L 294.667647 -215.6689 
L 290.036235 -216.462787 
L 285.404824 -217.499697 
L 280.773412 -218.666639 
L 276.142 -220.134835 
L 271.510588 -220.66825 
L 266.879176 -220.61463 
L 262.247765 -221.481626 
L 257.616353 -221.868584 
L 252.984941 -222.249136 
L 248.353529 -223.218436 
L 243.722118 -224.261279 
L 239.090706 -224.288693 
L 234.459294 -223.905313 
L 229.827882 -223.804235 
L 225.196471 -222.566011 
L 220.565059 -222.18791 
L 215.933647 -223.533723 
L 211.302235 -224.498955 
L 206.670824 -223.669609 
L 202.039412 -222.72873 
L 197.408 -221.379097 
L 192.776588 -218.873928 
L 188.145176 -217.627418 
L 183.513765 -219.124369 
L 178.882353 -219.849887 
L 174.250941 -220.522578 
L 169.619529 -219.247448 
L 164.988118 -216.58147 
L 160.356706 -210.987795 
L 155.725294 -209.701319 
L 151.093882 -210.392698 
L 146.462471 -210.543214 
L 141.831059 -208.987212 
L 137.199647 -208.004682 
L 132.568235 -205.61589 
L 127.936824 -201.709166 
L 123.305412 -198.162754 
L 118.674 -198.278982 
L 114.042588 -197.923765 
L 109.411176 -195.871974 
L 104.779765 -193.399974 
L 100.148353 -188.508643 
L 95.516941 -180.71759 
L 90.885529 -176.817111 
L 86.254118 -176.796687 
L 81.622706 -175.777515 
L 76.991294 -174.25221 
L 72.359882 -171.286704 
L 67.728471 -169.199974 
L 63.097059 -166.093686 
L 58.465647 -160.911753 
L 53.834235 -158.55929 
L 49.202824 -157.381557 
L 44.571412 -156.088908 
L 39.94 -153.736086 
z
" id="m0aa904d1c1" style="stroke:#2ca02c;"/>
    </defs>
    <g clip-path="url(#p1a2b960a20)">
     <use style="fill:#2ca02c;stroke:#2ca02c;" x="0" xlink:href="#m0aa904d1c1" y="648"/>
    </g>
   </g>
   <g id="matplotlib.axis_5">
    <g id="xtick_25">
     <g id="line2d_43">
      <g>
       <use style="stroke:#000000;stroke-width:0.8;" x="39.94" xlink:href="#mf97d7ad01d" y="572.51"/>
      </g>
     </g>
     <g id="text_11">
      <!-- 2020-04-02 -->
      <defs>
       <path d="M 4.890625 31.390625 
L 31.203125 31.390625 
L 31.203125 23.390625 
L 4.890625 23.390625 
z
" id="DejaVuSans-2d"/>
      </defs>
      <g transform="translate(42.699375 637.625625)rotate(-90)scale(0.1 -0.1)">
       <use xlink:href="#DejaVuSans-32"/>
       <use x="63.623047" xlink:href="#DejaVuSans-30"/>
       <use x="127.246094" xlink:href="#DejaVuSans-32"/>
       <use x="190.869141" xlink:href="#DejaVuSans-30"/>
       <use x="254.492188" xlink:href="#DejaVuSans-2d"/>
       <use x="290.576172" xlink:href="#DejaVuSans-30"/>
       <use x="354.199219" xlink:href="#DejaVuSans-34"/>
       <use x="417.822266" xlink:href="#DejaVuSans-2d"/>
       <use x="453.90625" xlink:href="#DejaVuSans-30"/>
       <use x="517.529297" xlink:href="#DejaVuSans-32"/>
      </g>
     </g>
    </g>
    <g id="xtick_26">
     <g id="line2d_44">
      <g>
       <use style="stroke:#000000;stroke-width:0.8;" x="75.728182" xlink:href="#mf97d7ad01d" y="572.51"/>
      </g>
     </g>
     <g id="text_12">
      <!-- 2020-04-09 -->
      <defs>
       <path d="M 10.984375 1.515625 
L 10.984375 10.5 
Q 14.703125 8.734375 18.5 7.8125 
Q 22.3125 6.890625 25.984375 6.890625 
Q 35.75 6.890625 40.890625 13.453125 
Q 46.046875 20.015625 46.78125 33.40625 
Q 43.953125 29.203125 39.59375 26.953125 
Q 35.25 24.703125 29.984375 24.703125 
Q 19.046875 24.703125 12.671875 31.3125 
Q 6.296875 37.9375 6.296875 49.421875 
Q 6.296875 60.640625 12.9375 67.421875 
Q 19.578125 74.21875 30.609375 74.21875 
Q 43.265625 74.21875 49.921875 64.515625 
Q 56.59375 54.828125 56.59375 36.375 
Q 56.59375 19.140625 48.40625 8.859375 
Q 40.234375 -1.421875 26.421875 -1.421875 
Q 22.703125 -1.421875 18.890625 -0.6875 
Q 15.09375 0.046875 10.984375 1.515625 
z
M 30.609375 32.421875 
Q 37.25 32.421875 41.125 36.953125 
Q 45.015625 41.5 45.015625 49.421875 
Q 45.015625 57.28125 41.125 61.84375 
Q 37.25 66.40625 30.609375 66.40625 
Q 23.96875 66.40625 20.09375 61.84375 
Q 16.21875 57.28125 16.21875 49.421875 
Q 16.21875 41.5 20.09375 36.953125 
Q 23.96875 32.421875 30.609375 32.421875 
z
" id="DejaVuSans-39"/>
      </defs>
      <g transform="translate(78.487557 637.625625)rotate(-90)scale(0.1 -0.1)">
       <use xlink:href="#DejaVuSans-32"/>
       <use x="63.623047" xlink:href="#DejaVuSans-30"/>
       <use x="127.246094" xlink:href="#DejaVuSans-32"/>
       <use x="190.869141" xlink:href="#DejaVuSans-30"/>
       <use x="254.492188" xlink:href="#DejaVuSans-2d"/>
       <use x="290.576172" xlink:href="#DejaVuSans-30"/>
       <use x="354.199219" xlink:href="#DejaVuSans-34"/>
       <use x="417.822266" xlink:href="#DejaVuSans-2d"/>
       <use x="453.90625" xlink:href="#DejaVuSans-30"/>
       <use x="517.529297" xlink:href="#DejaVuSans-39"/>
      </g>
     </g>
    </g>
    <g id="xtick_27">
     <g id="line2d_45">
      <g>
       <use style="stroke:#000000;stroke-width:0.8;" x="111.516364" xlink:href="#mf97d7ad01d" y="572.51"/>
      </g>
     </g>
     <g id="text_13">
      <!-- 2020-04-17 -->
      <g transform="translate(114.275739 637.625625)rotate(-90)scale(0.1 -0.1)">
       <use xlink:href="#DejaVuSans-32"/>
       <use x="63.623047" xlink:href="#DejaVuSans-30"/>
       <use x="127.246094" xlink:href="#DejaVuSans-32"/>
       <use x="190.869141" xlink:href="#DejaVuSans-30"/>
       <use x="254.492188" xlink:href="#DejaVuSans-2d"/>
       <use x="290.576172" xlink:href="#DejaVuSans-30"/>
       <use x="354.199219" xlink:href="#DejaVuSans-34"/>
       <use x="417.822266" xlink:href="#DejaVuSans-2d"/>
       <use x="453.90625" xlink:href="#DejaVuSans-31"/>
       <use x="517.529297" xlink:href="#DejaVuSans-37"/>
      </g>
     </g>
    </g>
    <g id="xtick_28">
     <g id="line2d_46">
      <g>
       <use style="stroke:#000000;stroke-width:0.8;" x="147.304545" xlink:href="#mf97d7ad01d" y="572.51"/>
      </g>
     </g>
     <g id="text_14">
      <!-- 2020-04-25 -->
      <g transform="translate(150.06392 637.625625)rotate(-90)scale(0.1 -0.1)">
       <use xlink:href="#DejaVuSans-32"/>
       <use x="63.623047" xlink:href="#DejaVuSans-30"/>
       <use x="127.246094" xlink:href="#DejaVuSans-32"/>
       <use x="190.869141" xlink:href="#DejaVuSans-30"/>
       <use x="254.492188" xlink:href="#DejaVuSans-2d"/>
       <use x="290.576172" xlink:href="#DejaVuSans-30"/>
       <use x="354.199219" xlink:href="#DejaVuSans-34"/>
       <use x="417.822266" xlink:href="#DejaVuSans-2d"/>
       <use x="453.90625" xlink:href="#DejaVuSans-32"/>
       <use x="517.529297" xlink:href="#DejaVuSans-35"/>
      </g>
     </g>
    </g>
    <g id="xtick_29">
     <g id="line2d_47">
      <g>
       <use style="stroke:#000000;stroke-width:0.8;" x="183.092727" xlink:href="#mf97d7ad01d" y="572.51"/>
      </g>
     </g>
     <g id="text_15">
      <!-- 2020-05-02 -->
      <g transform="translate(185.852102 637.625625)rotate(-90)scale(0.1 -0.1)">
       <use xlink:href="#DejaVuSans-32"/>
       <use x="63.623047" xlink:href="#DejaVuSans-30"/>
       <use x="127.246094" xlink:href="#DejaVuSans-32"/>
       <use x="190.869141" xlink:href="#DejaVuSans-30"/>
       <use x="254.492188" xlink:href="#DejaVuSans-2d"/>
       <use x="290.576172" xlink:href="#DejaVuSans-30"/>
       <use x="354.199219" xlink:href="#DejaVuSans-35"/>
       <use x="417.822266" xlink:href="#DejaVuSans-2d"/>
       <use x="453.90625" xlink:href="#DejaVuSans-30"/>
       <use x="517.529297" xlink:href="#DejaVuSans-32"/>
      </g>
     </g>
    </g>
    <g id="xtick_30">
     <g id="line2d_48">
      <g>
       <use style="stroke:#000000;stroke-width:0.8;" x="218.880909" xlink:href="#mf97d7ad01d" y="572.51"/>
      </g>
     </g>
     <g id="text_16">
      <!-- 2020-05-10 -->
      <g transform="translate(221.640284 637.625625)rotate(-90)scale(0.1 -0.1)">
       <use xlink:href="#DejaVuSans-32"/>
       <use x="63.623047" xlink:href="#DejaVuSans-30"/>
       <use x="127.246094" xlink:href="#DejaVuSans-32"/>
       <use x="190.869141" xlink:href="#DejaVuSans-30"/>
       <use x="254.492188" xlink:href="#DejaVuSans-2d"/>
       <use x="290.576172" xlink:href="#DejaVuSans-30"/>
       <use x="354.199219" xlink:href="#DejaVuSans-35"/>
       <use x="417.822266" xlink:href="#DejaVuSans-2d"/>
       <use x="453.90625" xlink:href="#DejaVuSans-31"/>
       <use x="517.529297" xlink:href="#DejaVuSans-30"/>
      </g>
     </g>
    </g>
    <g id="xtick_31">
     <g id="line2d_49">
      <g>
       <use style="stroke:#000000;stroke-width:0.8;" x="254.669091" xlink:href="#mf97d7ad01d" y="572.51"/>
      </g>
     </g>
     <g id="text_17">
      <!-- 2020-05-18 -->
      <defs>
       <path d="M 31.78125 34.625 
Q 24.75 34.625 20.71875 30.859375 
Q 16.703125 27.09375 16.703125 20.515625 
Q 16.703125 13.921875 20.71875 10.15625 
Q 24.75 6.390625 31.78125 6.390625 
Q 38.8125 6.390625 42.859375 10.171875 
Q 46.921875 13.96875 46.921875 20.515625 
Q 46.921875 27.09375 42.890625 30.859375 
Q 38.875 34.625 31.78125 34.625 
z
M 21.921875 38.8125 
Q 15.578125 40.375 12.03125 44.71875 
Q 8.5 49.078125 8.5 55.328125 
Q 8.5 64.0625 14.71875 69.140625 
Q 20.953125 74.21875 31.78125 74.21875 
Q 42.671875 74.21875 48.875 69.140625 
Q 55.078125 64.0625 55.078125 55.328125 
Q 55.078125 49.078125 51.53125 44.71875 
Q 48 40.375 41.703125 38.8125 
Q 48.828125 37.15625 52.796875 32.3125 
Q 56.78125 27.484375 56.78125 20.515625 
Q 56.78125 9.90625 50.3125 4.234375 
Q 43.84375 -1.421875 31.78125 -1.421875 
Q 19.734375 -1.421875 13.25 4.234375 
Q 6.78125 9.90625 6.78125 20.515625 
Q 6.78125 27.484375 10.78125 32.3125 
Q 14.796875 37.15625 21.921875 38.8125 
z
M 18.3125 54.390625 
Q 18.3125 48.734375 21.84375 45.5625 
Q 25.390625 42.390625 31.78125 42.390625 
Q 38.140625 42.390625 41.71875 45.5625 
Q 45.3125 48.734375 45.3125 54.390625 
Q 45.3125 60.0625 41.71875 63.234375 
Q 38.140625 66.40625 31.78125 66.40625 
Q 25.390625 66.40625 21.84375 63.234375 
Q 18.3125 60.0625 18.3125 54.390625 
z
" id="DejaVuSans-38"/>
      </defs>
      <g transform="translate(257.428466 637.625625)rotate(-90)scale(0.1 -0.1)">
       <use xlink:href="#DejaVuSans-32"/>
       <use x="63.623047" xlink:href="#DejaVuSans-30"/>
       <use x="127.246094" xlink:href="#DejaVuSans-32"/>
       <use x="190.869141" xlink:href="#DejaVuSans-30"/>
       <use x="254.492188" xlink:href="#DejaVuSans-2d"/>
       <use x="290.576172" xlink:href="#DejaVuSans-30"/>
       <use x="354.199219" xlink:href="#DejaVuSans-35"/>
       <use x="417.822266" xlink:href="#DejaVuSans-2d"/>
       <use x="453.90625" xlink:href="#DejaVuSans-31"/>
       <use x="517.529297" xlink:href="#DejaVuSans-38"/>
      </g>
     </g>
    </g>
    <g id="xtick_32">
     <g id="line2d_50">
      <g>
       <use style="stroke:#000000;stroke-width:0.8;" x="290.457273" xlink:href="#mf97d7ad01d" y="572.51"/>
      </g>
     </g>
     <g id="text_18">
      <!-- 2020-05-26 -->
      <g transform="translate(293.216648 637.625625)rotate(-90)scale(0.1 -0.1)">
       <use xlink:href="#DejaVuSans-32"/>
       <use x="63.623047" xlink:href="#DejaVuSans-30"/>
       <use x="127.246094" xlink:href="#DejaVuSans-32"/>
       <use x="190.869141" xlink:href="#DejaVuSans-30"/>
       <use x="254.492188" xlink:href="#DejaVuSans-2d"/>
       <use x="290.576172" xlink:href="#DejaVuSans-30"/>
       <use x="354.199219" xlink:href="#DejaVuSans-35"/>
       <use x="417.822266" xlink:href="#DejaVuSans-2d"/>
       <use x="453.90625" xlink:href="#DejaVuSans-32"/>
       <use x="517.529297" xlink:href="#DejaVuSans-36"/>
      </g>
     </g>
    </g>
    <g id="xtick_33">
     <g id="line2d_51">
      <g>
       <use style="stroke:#000000;stroke-width:0.8;" x="326.245455" xlink:href="#mf97d7ad01d" y="572.51"/>
      </g>
     </g>
     <g id="text_19">
      <!-- 2020-06-02 -->
      <g transform="translate(329.00483 637.625625)rotate(-90)scale(0.1 -0.1)">
       <use xlink:href="#DejaVuSans-32"/>
       <use x="63.623047" xlink:href="#DejaVuSans-30"/>
       <use x="127.246094" xlink:href="#DejaVuSans-32"/>
       <use x="190.869141" xlink:href="#DejaVuSans-30"/>
       <use x="254.492188" xlink:href="#DejaVuSans-2d"/>
       <use x="290.576172" xlink:href="#DejaVuSans-30"/>
       <use x="354.199219" xlink:href="#DejaVuSans-36"/>
       <use x="417.822266" xlink:href="#DejaVuSans-2d"/>
       <use x="453.90625" xlink:href="#DejaVuSans-30"/>
       <use x="517.529297" xlink:href="#DejaVuSans-32"/>
      </g>
     </g>
    </g>
    <g id="xtick_34">
     <g id="line2d_52">
      <g>
       <use style="stroke:#000000;stroke-width:0.8;" x="362.033636" xlink:href="#mf97d7ad01d" y="572.51"/>
      </g>
     </g>
     <g id="text_20">
      <!-- 2020-06-10 -->
      <g transform="translate(364.793011 637.625625)rotate(-90)scale(0.1 -0.1)">
       <use xlink:href="#DejaVuSans-32"/>
       <use x="63.623047" xlink:href="#DejaVuSans-30"/>
       <use x="127.246094" xlink:href="#DejaVuSans-32"/>
       <use x="190.869141" xlink:href="#DejaVuSans-30"/>
       <use x="254.492188" xlink:href="#DejaVuSans-2d"/>
       <use x="290.576172" xlink:href="#DejaVuSans-30"/>
       <use x="354.199219" xlink:href="#DejaVuSans-36"/>
       <use x="417.822266" xlink:href="#DejaVuSans-2d"/>
       <use x="453.90625" xlink:href="#DejaVuSans-31"/>
       <use x="517.529297" xlink:href="#DejaVuSans-30"/>
      </g>
     </g>
    </g>
    <g id="xtick_35">
     <g id="line2d_53">
      <g>
       <use style="stroke:#000000;stroke-width:0.8;" x="397.821818" xlink:href="#mf97d7ad01d" y="572.51"/>
      </g>
     </g>
     <g id="text_21">
      <!-- 2020-06-18 -->
      <g transform="translate(400.581193 637.625625)rotate(-90)scale(0.1 -0.1)">
       <use xlink:href="#DejaVuSans-32"/>
       <use x="63.623047" xlink:href="#DejaVuSans-30"/>
       <use x="127.246094" xlink:href="#DejaVuSans-32"/>
       <use x="190.869141" xlink:href="#DejaVuSans-30"/>
       <use x="254.492188" xlink:href="#DejaVuSans-2d"/>
       <use x="290.576172" xlink:href="#DejaVuSans-30"/>
       <use x="354.199219" xlink:href="#DejaVuSans-36"/>
       <use x="417.822266" xlink:href="#DejaVuSans-2d"/>
       <use x="453.90625" xlink:href="#DejaVuSans-31"/>
       <use x="517.529297" xlink:href="#DejaVuSans-38"/>
      </g>
     </g>
    </g>
    <g id="xtick_36">
     <g id="line2d_54">
      <g>
       <use style="stroke:#000000;stroke-width:0.8;" x="433.61" xlink:href="#mf97d7ad01d" y="572.51"/>
      </g>
     </g>
     <g id="text_22">
      <!-- 2020-06-26 -->
      <g transform="translate(436.369375 637.625625)rotate(-90)scale(0.1 -0.1)">
       <use xlink:href="#DejaVuSans-32"/>
       <use x="63.623047" xlink:href="#DejaVuSans-30"/>
       <use x="127.246094" xlink:href="#DejaVuSans-32"/>
       <use x="190.869141" xlink:href="#DejaVuSans-30"/>
       <use x="254.492188" xlink:href="#DejaVuSans-2d"/>
       <use x="290.576172" xlink:href="#DejaVuSans-30"/>
       <use x="354.199219" xlink:href="#DejaVuSans-36"/>
       <use x="417.822266" xlink:href="#DejaVuSans-2d"/>
       <use x="453.90625" xlink:href="#DejaVuSans-32"/>
       <use x="517.529297" xlink:href="#DejaVuSans-36"/>
      </g>
     </g>
    </g>
   </g>
   <g id="matplotlib.axis_6">
    <g id="ytick_17">
     <g id="line2d_55">
      <g>
       <use style="stroke:#000000;stroke-width:0.8;" x="39.94" xlink:href="#mf0d0d36eb6" y="572.51"/>
      </g>
     </g>
     <g id="text_23">
      <!-- 0.00 -->
      <g transform="translate(10.674375 576.309219)scale(0.1 -0.1)">
       <use xlink:href="#DejaVuSans-30"/>
       <use x="63.623047" xlink:href="#DejaVuSans-2e"/>
       <use x="95.410156" xlink:href="#DejaVuSans-30"/>
       <use x="159.033203" xlink:href="#DejaVuSans-30"/>
      </g>
     </g>
    </g>
    <g id="ytick_18">
     <g id="line2d_56">
      <g>
       <use style="stroke:#000000;stroke-width:0.8;" x="39.94" xlink:href="#mf0d0d36eb6" y="537.701837"/>
      </g>
     </g>
     <g id="text_24">
      <!-- 0.01 -->
      <g transform="translate(10.674375 541.501056)scale(0.1 -0.1)">
       <use xlink:href="#DejaVuSans-30"/>
       <use x="63.623047" xlink:href="#DejaVuSans-2e"/>
       <use x="95.410156" xlink:href="#DejaVuSans-30"/>
       <use x="159.033203" xlink:href="#DejaVuSans-31"/>
      </g>
     </g>
    </g>
    <g id="ytick_19">
     <g id="line2d_57">
      <g>
       <use style="stroke:#000000;stroke-width:0.8;" x="39.94" xlink:href="#mf0d0d36eb6" y="502.893675"/>
      </g>
     </g>
     <g id="text_25">
      <!-- 0.02 -->
      <g transform="translate(10.674375 506.692893)scale(0.1 -0.1)">
       <use xlink:href="#DejaVuSans-30"/>
       <use x="63.623047" xlink:href="#DejaVuSans-2e"/>
       <use x="95.410156" xlink:href="#DejaVuSans-30"/>
       <use x="159.033203" xlink:href="#DejaVuSans-32"/>
      </g>
     </g>
    </g>
    <g id="ytick_20">
     <g id="line2d_58">
      <g>
       <use style="stroke:#000000;stroke-width:0.8;" x="39.94" xlink:href="#mf0d0d36eb6" y="468.085512"/>
      </g>
     </g>
     <g id="text_26">
      <!-- 0.03 -->
      <g transform="translate(10.674375 471.884731)scale(0.1 -0.1)">
       <use xlink:href="#DejaVuSans-30"/>
       <use x="63.623047" xlink:href="#DejaVuSans-2e"/>
       <use x="95.410156" xlink:href="#DejaVuSans-30"/>
       <use x="159.033203" xlink:href="#DejaVuSans-33"/>
      </g>
     </g>
    </g>
    <g id="ytick_21">
     <g id="line2d_59">
      <g>
       <use style="stroke:#000000;stroke-width:0.8;" x="39.94" xlink:href="#mf0d0d36eb6" y="433.277349"/>
      </g>
     </g>
     <g id="text_27">
      <!-- 0.04 -->
      <g transform="translate(10.674375 437.076568)scale(0.1 -0.1)">
       <use xlink:href="#DejaVuSans-30"/>
       <use x="63.623047" xlink:href="#DejaVuSans-2e"/>
       <use x="95.410156" xlink:href="#DejaVuSans-30"/>
       <use x="159.033203" xlink:href="#DejaVuSans-34"/>
      </g>
     </g>
    </g>
    <g id="ytick_22">
     <g id="line2d_60">
      <g>
       <use style="stroke:#000000;stroke-width:0.8;" x="39.94" xlink:href="#mf0d0d36eb6" y="398.469186"/>
      </g>
     </g>
     <g id="text_28">
      <!-- 0.05 -->
      <g transform="translate(10.674375 402.268405)scale(0.1 -0.1)">
       <use xlink:href="#DejaVuSans-30"/>
       <use x="63.623047" xlink:href="#DejaVuSans-2e"/>
       <use x="95.410156" xlink:href="#DejaVuSans-30"/>
       <use x="159.033203" xlink:href="#DejaVuSans-35"/>
      </g>
     </g>
    </g>
    <g id="ytick_23">
     <g id="line2d_61">
      <g>
       <use style="stroke:#000000;stroke-width:0.8;" x="39.94" xlink:href="#mf0d0d36eb6" y="363.661024"/>
      </g>
     </g>
     <g id="text_29">
      <!-- 0.06 -->
      <g transform="translate(10.674375 367.460242)scale(0.1 -0.1)">
       <use xlink:href="#DejaVuSans-30"/>
       <use x="63.623047" xlink:href="#DejaVuSans-2e"/>
       <use x="95.410156" xlink:href="#DejaVuSans-30"/>
       <use x="159.033203" xlink:href="#DejaVuSans-36"/>
      </g>
     </g>
    </g>
    <g id="ytick_24">
     <g id="line2d_62">
      <g>
       <use style="stroke:#000000;stroke-width:0.8;" x="39.94" xlink:href="#mf0d0d36eb6" y="328.852861"/>
      </g>
     </g>
     <g id="text_30">
      <!-- 0.07 -->
      <g transform="translate(10.674375 332.65208)scale(0.1 -0.1)">
       <use xlink:href="#DejaVuSans-30"/>
       <use x="63.623047" xlink:href="#DejaVuSans-2e"/>
       <use x="95.410156" xlink:href="#DejaVuSans-30"/>
       <use x="159.033203" xlink:href="#DejaVuSans-37"/>
      </g>
     </g>
    </g>
   </g>
   <g id="line2d_63">
    <path clip-path="url(#p1a2b960a20)" d="M 39.94 494.263914 
L 44.571412 491.911092 
L 49.202824 490.618443 
L 53.834235 489.44071 
L 58.465647 487.088247 
L 63.097059 481.906314 
L 67.728471 478.800026 
L 72.359882 476.713296 
L 76.991294 473.74779 
L 81.622706 472.222485 
L 86.254118 471.203313 
L 90.885529 471.182889 
L 95.516941 467.28241 
L 100.148353 459.491357 
L 104.779765 454.600026 
L 109.411176 452.128026 
L 114.042588 450.076235 
L 118.674 449.721018 
L 123.305412 449.837246 
L 127.936824 446.290834 
L 132.568235 442.38411 
L 137.199647 439.995318 
L 141.831059 439.012788 
L 146.462471 437.456786 
L 151.093882 437.607302 
L 155.725294 438.298681 
L 160.356706 437.012205 
L 164.988118 431.41853 
L 169.619529 428.752552 
L 174.250941 427.477422 
L 178.882353 428.150113 
L 183.513765 428.875631 
L 188.145176 430.372582 
L 192.776588 429.126072 
L 197.408 426.620903 
L 202.039412 425.27127 
L 206.670824 424.330391 
L 211.302235 423.501045 
L 215.933647 424.466277 
L 220.565059 425.81209 
L 225.196471 425.433989 
L 229.827882 424.195765 
L 234.459294 424.094687 
L 239.090706 423.711307 
L 243.722118 423.738721 
L 248.353529 424.781564 
L 252.984941 425.750864 
L 257.616353 426.131416 
L 262.247765 426.518374 
L 266.879176 427.38537 
L 271.510588 427.33175 
L 276.142 427.865165 
L 280.773412 429.333361 
L 285.404824 430.500303 
L 290.036235 431.537213 
L 294.667647 432.3311 
L 299.299059 432.284094 
L 303.930471 432.40368 
L 308.561882 432.826703 
L 313.193294 433.656317 
L 317.824706 434.786043 
L 322.456118 435.49364 
L 327.087529 435.308628 
L 331.718941 435.629046 
L 336.350353 436.705553 
L 340.981765 437.551049 
L 345.613176 438.774951 
L 350.244588 439.992013 
L 354.876 441.168652 
L 359.507412 441.24637 
L 364.138824 441.868866 
L 368.770235 442.761691 
L 373.401647 444.648251 
L 378.033059 446.364788 
L 382.664471 448.103621 
L 387.295882 449.393645 
L 391.927294 450.453212 
L 396.558706 451.748043 
L 401.190118 452.906618 
L 405.821529 454.870473 
L 410.452941 456.821411 
L 415.084353 458.385718 
L 419.715765 459.959122 
L 424.347176 461.418011 
L 428.978588 463.572515 
L 433.61 465.878919 
" style="fill:none;stroke:#2ca02c;stroke-linecap:square;stroke-width:1.5;"/>
   </g>
   <g id="patch_13">
    <path d="M 39.94 572.51 
L 39.94 314.755 
" style="fill:none;stroke:#000000;stroke-linecap:square;stroke-linejoin:miter;stroke-width:0.8;"/>
   </g>
   <g id="patch_14">
    <path d="M 433.61 572.51 
L 433.61 314.755 
" style="fill:none;stroke:#000000;stroke-linecap:square;stroke-linejoin:miter;stroke-width:0.8;"/>
   </g>
   <g id="patch_15">
    <path d="M 39.94 572.51 
L 433.61 572.51 
" style="fill:none;stroke:#000000;stroke-linecap:square;stroke-linejoin:miter;stroke-width:0.8;"/>
   </g>
   <g id="patch_16">
    <path d="M 39.94 314.755 
L 433.61 314.755 
" style="fill:none;stroke:#000000;stroke-linecap:square;stroke-linejoin:miter;stroke-width:0.8;"/>
   </g>
   <g id="text_31">
    <!-- South -->
    <defs>
     <path d="M 53.515625 70.515625 
L 53.515625 60.890625 
Q 47.90625 63.578125 42.921875 64.890625 
Q 37.9375 66.21875 33.296875 66.21875 
Q 25.25 66.21875 20.875 63.09375 
Q 16.5 59.96875 16.5 54.203125 
Q 16.5 49.359375 19.40625 46.890625 
Q 22.3125 44.4375 30.421875 42.921875 
L 36.375 41.703125 
Q 47.40625 39.59375 52.65625 34.296875 
Q 57.90625 29 57.90625 20.125 
Q 57.90625 9.515625 50.796875 4.046875 
Q 43.703125 -1.421875 29.984375 -1.421875 
Q 24.8125 -1.421875 18.96875 -0.25 
Q 13.140625 0.921875 6.890625 3.21875 
L 6.890625 13.375 
Q 12.890625 10.015625 18.65625 8.296875 
Q 24.421875 6.59375 29.984375 6.59375 
Q 38.421875 6.59375 43.015625 9.90625 
Q 47.609375 13.234375 47.609375 19.390625 
Q 47.609375 24.75 44.3125 27.78125 
Q 41.015625 30.8125 33.5 32.328125 
L 27.484375 33.5 
Q 16.453125 35.6875 11.515625 40.375 
Q 6.59375 45.0625 6.59375 53.421875 
Q 6.59375 63.09375 13.40625 68.65625 
Q 20.21875 74.21875 32.171875 74.21875 
Q 37.3125 74.21875 42.625 73.28125 
Q 47.953125 72.359375 53.515625 70.515625 
z
" id="DejaVuSans-53"/>
     <path d="M 8.5 21.578125 
L 8.5 54.6875 
L 17.484375 54.6875 
L 17.484375 21.921875 
Q 17.484375 14.15625 20.5 10.265625 
Q 23.53125 6.390625 29.59375 6.390625 
Q 36.859375 6.390625 41.078125 11.03125 
Q 45.3125 15.671875 45.3125 23.6875 
L 45.3125 54.6875 
L 54.296875 54.6875 
L 54.296875 0 
L 45.3125 0 
L 45.3125 8.40625 
Q 42.046875 3.421875 37.71875 1 
Q 33.40625 -1.421875 27.6875 -1.421875 
Q 18.265625 -1.421875 13.375 4.4375 
Q 8.5 10.296875 8.5 21.578125 
z
M 31.109375 56 
z
" id="DejaVuSans-75"/>
    </defs>
    <g transform="translate(219.3375 308.755)scale(0.12 -0.12)">
     <use xlink:href="#DejaVuSans-53"/>
     <use x="63.476562" xlink:href="#DejaVuSans-6f"/>
     <use x="124.658203" xlink:href="#DejaVuSans-75"/>
     <use x="188.037109" xlink:href="#DejaVuSans-74"/>
     <use x="227.246094" xlink:href="#DejaVuSans-68"/>
    </g>
   </g>
  </g>
  <g id="axes_4">
   <g id="patch_17">
    <path d="M 454.49 572.51 
L 848.16 572.51 
L 848.16 314.755 
L 454.49 314.755 
z
" style="fill:#ffffff;"/>
   </g>
   <g id="PolyCollection_4">
    <defs>
     <path d="M 454.49 -164.813576 
L 454.49 -75.49 
L 459.121412 -75.49 
L 463.752824 -75.49 
L 468.384235 -75.49 
L 473.015647 -75.49 
L 477.647059 -75.49 
L 482.278471 -75.49 
L 486.909882 -75.49 
L 491.541294 -75.49 
L 496.172706 -75.49 
L 500.804118 -75.49 
L 505.435529 -75.49 
L 510.066941 -75.49 
L 514.698353 -75.49 
L 519.329765 -75.49 
L 523.961176 -75.49 
L 528.592588 -75.49 
L 533.224 -75.49 
L 537.855412 -75.49 
L 542.486824 -75.49 
L 547.118235 -75.49 
L 551.749647 -75.49 
L 556.381059 -75.49 
L 561.012471 -75.49 
L 565.643882 -75.49 
L 570.275294 -75.49 
L 574.906706 -75.49 
L 579.538118 -75.49 
L 584.169529 -75.49 
L 588.800941 -75.49 
L 593.432353 -75.49 
L 598.063765 -75.49 
L 602.695176 -75.49 
L 607.326588 -75.49 
L 611.958 -75.49 
L 616.589412 -75.49 
L 621.220824 -75.49 
L 625.852235 -75.49 
L 630.483647 -75.49 
L 635.115059 -75.49 
L 639.746471 -75.49 
L 644.377882 -75.49 
L 649.009294 -75.49 
L 653.640706 -75.49 
L 658.272118 -75.49 
L 662.903529 -75.49 
L 667.534941 -75.49 
L 672.166353 -75.49 
L 676.797765 -75.49 
L 681.429176 -75.49 
L 686.060588 -75.49 
L 690.692 -75.49 
L 695.323412 -75.49 
L 699.954824 -75.49 
L 704.586235 -75.49 
L 709.217647 -75.49 
L 713.849059 -75.49 
L 718.480471 -75.49 
L 723.111882 -75.49 
L 727.743294 -75.49 
L 732.374706 -75.49 
L 737.006118 -75.49 
L 741.637529 -75.49 
L 746.268941 -75.49 
L 750.900353 -75.49 
L 755.531765 -75.49 
L 760.163176 -75.49 
L 764.794588 -75.49 
L 769.426 -75.49 
L 774.057412 -75.49 
L 778.688824 -75.49 
L 783.320235 -75.49 
L 787.951647 -75.49 
L 792.583059 -75.49 
L 797.214471 -75.49 
L 801.845882 -75.49 
L 806.477294 -75.49 
L 811.108706 -75.49 
L 815.740118 -75.49 
L 820.371529 -75.49 
L 825.002941 -75.49 
L 829.634353 -75.49 
L 834.265765 -75.49 
L 838.897176 -75.49 
L 843.528588 -75.49 
L 848.16 -75.49 
L 848.16 -181.599784 
L 848.16 -181.599784 
L 843.528588 -182.373585 
L 838.897176 -185.008307 
L 834.265765 -186.32393 
L 829.634353 -188.763786 
L 825.002941 -191.379238 
L 820.371529 -193.321667 
L 815.740118 -196.168586 
L 811.108706 -197.704209 
L 806.477294 -199.15682 
L 801.845882 -200.679484 
L 797.214471 -201.252951 
L 792.583059 -203.663899 
L 787.951647 -205.617454 
L 783.320235 -206.841396 
L 778.688824 -207.408811 
L 774.057412 -207.82372 
L 769.426 -208.638254 
L 764.794588 -210.114494 
L 760.163176 -211.849333 
L 755.531765 -213.709566 
L 750.900353 -215.686347 
L 746.268941 -216.624525 
L 741.637529 -217.139636 
L 737.006118 -218.557571 
L 732.374706 -219.578043 
L 727.743294 -221.789372 
L 723.111882 -223.742259 
L 718.480471 -224.297198 
L 713.849059 -224.502025 
L 709.217647 -224.367605 
L 704.586235 -225.521906 
L 699.954824 -227.021704 
L 695.323412 -228.217534 
L 690.692 -229.284655 
L 686.060588 -211.27382 
L 681.429176 -229.672635 
L 676.797765 -228.772972 
L 672.166353 -228.247309 
L 667.534941 -228.914701 
L 662.903529 -229.731296 
L 658.272118 -228.217776 
L 653.640706 -228.501876 
L 649.009294 -227.904855 
L 644.377882 -226.226587 
L 639.746471 -225.26827 
L 635.115059 -226.491227 
L 630.483647 -227.058907 
L 625.852235 -227.618279 
L 621.220824 -226.690245 
L 616.589412 -225.659769 
L 611.958 -225.503555 
L 607.326588 -223.383078 
L 602.695176 -224.627803 
L 598.063765 -225.421078 
L 593.432353 -224.058281 
L 588.800941 -224.273937 
L 584.169529 -225.069673 
L 579.538118 -223.222736 
L 574.906706 -223.330116 
L 570.275294 -223.169187 
L 565.643882 -223.549824 
L 561.012471 -224.531351 
L 556.381059 -221.334023 
L 551.749647 -217.807851 
L 547.118235 -216.440802 
L 542.486824 -214.481974 
L 537.855412 -211.729331 
L 533.224 -210.914782 
L 528.592588 -209.004025 
L 523.961176 -205.688619 
L 519.329765 -204.687218 
L 514.698353 -201.365001 
L 510.066941 -196.131142 
L 505.435529 -193.787578 
L 500.804118 -192.829235 
L 496.172706 -189.665625 
L 491.541294 -184.937518 
L 486.909882 -182.228688 
L 482.278471 -177.3433 
L 477.647059 -173.270835 
L 473.015647 -170.613129 
L 468.384235 -168.785088 
L 463.752824 -166.666571 
L 459.121412 -165.292925 
L 454.49 -164.813576 
z
" id="m3005216c98" style="stroke:#d62728;"/>
    </defs>
    <g clip-path="url(#p49086bdc2c)">
     <use style="fill:#d62728;stroke:#d62728;" x="0" xlink:href="#m3005216c98" y="648"/>
    </g>
   </g>
   <g id="matplotlib.axis_7">
    <g id="xtick_37">
     <g id="line2d_64">
      <g>
       <use style="stroke:#000000;stroke-width:0.8;" x="454.49" xlink:href="#mf97d7ad01d" y="572.51"/>
      </g>
     </g>
     <g id="text_32">
      <!-- 2020-04-02 -->
      <g transform="translate(457.249375 637.625625)rotate(-90)scale(0.1 -0.1)">
       <use xlink:href="#DejaVuSans-32"/>
       <use x="63.623047" xlink:href="#DejaVuSans-30"/>
       <use x="127.246094" xlink:href="#DejaVuSans-32"/>
       <use x="190.869141" xlink:href="#DejaVuSans-30"/>
       <use x="254.492188" xlink:href="#DejaVuSans-2d"/>
       <use x="290.576172" xlink:href="#DejaVuSans-30"/>
       <use x="354.199219" xlink:href="#DejaVuSans-34"/>
       <use x="417.822266" xlink:href="#DejaVuSans-2d"/>
       <use x="453.90625" xlink:href="#DejaVuSans-30"/>
       <use x="517.529297" xlink:href="#DejaVuSans-32"/>
      </g>
     </g>
    </g>
    <g id="xtick_38">
     <g id="line2d_65">
      <g>
       <use style="stroke:#000000;stroke-width:0.8;" x="490.278182" xlink:href="#mf97d7ad01d" y="572.51"/>
      </g>
     </g>
     <g id="text_33">
      <!-- 2020-04-09 -->
      <g transform="translate(493.037557 637.625625)rotate(-90)scale(0.1 -0.1)">
       <use xlink:href="#DejaVuSans-32"/>
       <use x="63.623047" xlink:href="#DejaVuSans-30"/>
       <use x="127.246094" xlink:href="#DejaVuSans-32"/>
       <use x="190.869141" xlink:href="#DejaVuSans-30"/>
       <use x="254.492188" xlink:href="#DejaVuSans-2d"/>
       <use x="290.576172" xlink:href="#DejaVuSans-30"/>
       <use x="354.199219" xlink:href="#DejaVuSans-34"/>
       <use x="417.822266" xlink:href="#DejaVuSans-2d"/>
       <use x="453.90625" xlink:href="#DejaVuSans-30"/>
       <use x="517.529297" xlink:href="#DejaVuSans-39"/>
      </g>
     </g>
    </g>
    <g id="xtick_39">
     <g id="line2d_66">
      <g>
       <use style="stroke:#000000;stroke-width:0.8;" x="526.066364" xlink:href="#mf97d7ad01d" y="572.51"/>
      </g>
     </g>
     <g id="text_34">
      <!-- 2020-04-17 -->
      <g transform="translate(528.825739 637.625625)rotate(-90)scale(0.1 -0.1)">
       <use xlink:href="#DejaVuSans-32"/>
       <use x="63.623047" xlink:href="#DejaVuSans-30"/>
       <use x="127.246094" xlink:href="#DejaVuSans-32"/>
       <use x="190.869141" xlink:href="#DejaVuSans-30"/>
       <use x="254.492188" xlink:href="#DejaVuSans-2d"/>
       <use x="290.576172" xlink:href="#DejaVuSans-30"/>
       <use x="354.199219" xlink:href="#DejaVuSans-34"/>
       <use x="417.822266" xlink:href="#DejaVuSans-2d"/>
       <use x="453.90625" xlink:href="#DejaVuSans-31"/>
       <use x="517.529297" xlink:href="#DejaVuSans-37"/>
      </g>
     </g>
    </g>
    <g id="xtick_40">
     <g id="line2d_67">
      <g>
       <use style="stroke:#000000;stroke-width:0.8;" x="561.854545" xlink:href="#mf97d7ad01d" y="572.51"/>
      </g>
     </g>
     <g id="text_35">
      <!-- 2020-04-25 -->
      <g transform="translate(564.61392 637.625625)rotate(-90)scale(0.1 -0.1)">
       <use xlink:href="#DejaVuSans-32"/>
       <use x="63.623047" xlink:href="#DejaVuSans-30"/>
       <use x="127.246094" xlink:href="#DejaVuSans-32"/>
       <use x="190.869141" xlink:href="#DejaVuSans-30"/>
       <use x="254.492188" xlink:href="#DejaVuSans-2d"/>
       <use x="290.576172" xlink:href="#DejaVuSans-30"/>
       <use x="354.199219" xlink:href="#DejaVuSans-34"/>
       <use x="417.822266" xlink:href="#DejaVuSans-2d"/>
       <use x="453.90625" xlink:href="#DejaVuSans-32"/>
       <use x="517.529297" xlink:href="#DejaVuSans-35"/>
      </g>
     </g>
    </g>
    <g id="xtick_41">
     <g id="line2d_68">
      <g>
       <use style="stroke:#000000;stroke-width:0.8;" x="597.642727" xlink:href="#mf97d7ad01d" y="572.51"/>
      </g>
     </g>
     <g id="text_36">
      <!-- 2020-05-02 -->
      <g transform="translate(600.402102 637.625625)rotate(-90)scale(0.1 -0.1)">
       <use xlink:href="#DejaVuSans-32"/>
       <use x="63.623047" xlink:href="#DejaVuSans-30"/>
       <use x="127.246094" xlink:href="#DejaVuSans-32"/>
       <use x="190.869141" xlink:href="#DejaVuSans-30"/>
       <use x="254.492188" xlink:href="#DejaVuSans-2d"/>
       <use x="290.576172" xlink:href="#DejaVuSans-30"/>
       <use x="354.199219" xlink:href="#DejaVuSans-35"/>
       <use x="417.822266" xlink:href="#DejaVuSans-2d"/>
       <use x="453.90625" xlink:href="#DejaVuSans-30"/>
       <use x="517.529297" xlink:href="#DejaVuSans-32"/>
      </g>
     </g>
    </g>
    <g id="xtick_42">
     <g id="line2d_69">
      <g>
       <use style="stroke:#000000;stroke-width:0.8;" x="633.430909" xlink:href="#mf97d7ad01d" y="572.51"/>
      </g>
     </g>
     <g id="text_37">
      <!-- 2020-05-10 -->
      <g transform="translate(636.190284 637.625625)rotate(-90)scale(0.1 -0.1)">
       <use xlink:href="#DejaVuSans-32"/>
       <use x="63.623047" xlink:href="#DejaVuSans-30"/>
       <use x="127.246094" xlink:href="#DejaVuSans-32"/>
       <use x="190.869141" xlink:href="#DejaVuSans-30"/>
       <use x="254.492188" xlink:href="#DejaVuSans-2d"/>
       <use x="290.576172" xlink:href="#DejaVuSans-30"/>
       <use x="354.199219" xlink:href="#DejaVuSans-35"/>
       <use x="417.822266" xlink:href="#DejaVuSans-2d"/>
       <use x="453.90625" xlink:href="#DejaVuSans-31"/>
       <use x="517.529297" xlink:href="#DejaVuSans-30"/>
      </g>
     </g>
    </g>
    <g id="xtick_43">
     <g id="line2d_70">
      <g>
       <use style="stroke:#000000;stroke-width:0.8;" x="669.219091" xlink:href="#mf97d7ad01d" y="572.51"/>
      </g>
     </g>
     <g id="text_38">
      <!-- 2020-05-18 -->
      <g transform="translate(671.978466 637.625625)rotate(-90)scale(0.1 -0.1)">
       <use xlink:href="#DejaVuSans-32"/>
       <use x="63.623047" xlink:href="#DejaVuSans-30"/>
       <use x="127.246094" xlink:href="#DejaVuSans-32"/>
       <use x="190.869141" xlink:href="#DejaVuSans-30"/>
       <use x="254.492188" xlink:href="#DejaVuSans-2d"/>
       <use x="290.576172" xlink:href="#DejaVuSans-30"/>
       <use x="354.199219" xlink:href="#DejaVuSans-35"/>
       <use x="417.822266" xlink:href="#DejaVuSans-2d"/>
       <use x="453.90625" xlink:href="#DejaVuSans-31"/>
       <use x="517.529297" xlink:href="#DejaVuSans-38"/>
      </g>
     </g>
    </g>
    <g id="xtick_44">
     <g id="line2d_71">
      <g>
       <use style="stroke:#000000;stroke-width:0.8;" x="705.007273" xlink:href="#mf97d7ad01d" y="572.51"/>
      </g>
     </g>
     <g id="text_39">
      <!-- 2020-05-26 -->
      <g transform="translate(707.766648 637.625625)rotate(-90)scale(0.1 -0.1)">
       <use xlink:href="#DejaVuSans-32"/>
       <use x="63.623047" xlink:href="#DejaVuSans-30"/>
       <use x="127.246094" xlink:href="#DejaVuSans-32"/>
       <use x="190.869141" xlink:href="#DejaVuSans-30"/>
       <use x="254.492188" xlink:href="#DejaVuSans-2d"/>
       <use x="290.576172" xlink:href="#DejaVuSans-30"/>
       <use x="354.199219" xlink:href="#DejaVuSans-35"/>
       <use x="417.822266" xlink:href="#DejaVuSans-2d"/>
       <use x="453.90625" xlink:href="#DejaVuSans-32"/>
       <use x="517.529297" xlink:href="#DejaVuSans-36"/>
      </g>
     </g>
    </g>
    <g id="xtick_45">
     <g id="line2d_72">
      <g>
       <use style="stroke:#000000;stroke-width:0.8;" x="740.795455" xlink:href="#mf97d7ad01d" y="572.51"/>
      </g>
     </g>
     <g id="text_40">
      <!-- 2020-06-02 -->
      <g transform="translate(743.55483 637.625625)rotate(-90)scale(0.1 -0.1)">
       <use xlink:href="#DejaVuSans-32"/>
       <use x="63.623047" xlink:href="#DejaVuSans-30"/>
       <use x="127.246094" xlink:href="#DejaVuSans-32"/>
       <use x="190.869141" xlink:href="#DejaVuSans-30"/>
       <use x="254.492188" xlink:href="#DejaVuSans-2d"/>
       <use x="290.576172" xlink:href="#DejaVuSans-30"/>
       <use x="354.199219" xlink:href="#DejaVuSans-36"/>
       <use x="417.822266" xlink:href="#DejaVuSans-2d"/>
       <use x="453.90625" xlink:href="#DejaVuSans-30"/>
       <use x="517.529297" xlink:href="#DejaVuSans-32"/>
      </g>
     </g>
    </g>
    <g id="xtick_46">
     <g id="line2d_73">
      <g>
       <use style="stroke:#000000;stroke-width:0.8;" x="776.583636" xlink:href="#mf97d7ad01d" y="572.51"/>
      </g>
     </g>
     <g id="text_41">
      <!-- 2020-06-10 -->
      <g transform="translate(779.343011 637.625625)rotate(-90)scale(0.1 -0.1)">
       <use xlink:href="#DejaVuSans-32"/>
       <use x="63.623047" xlink:href="#DejaVuSans-30"/>
       <use x="127.246094" xlink:href="#DejaVuSans-32"/>
       <use x="190.869141" xlink:href="#DejaVuSans-30"/>
       <use x="254.492188" xlink:href="#DejaVuSans-2d"/>
       <use x="290.576172" xlink:href="#DejaVuSans-30"/>
       <use x="354.199219" xlink:href="#DejaVuSans-36"/>
       <use x="417.822266" xlink:href="#DejaVuSans-2d"/>
       <use x="453.90625" xlink:href="#DejaVuSans-31"/>
       <use x="517.529297" xlink:href="#DejaVuSans-30"/>
      </g>
     </g>
    </g>
    <g id="xtick_47">
     <g id="line2d_74">
      <g>
       <use style="stroke:#000000;stroke-width:0.8;" x="812.371818" xlink:href="#mf97d7ad01d" y="572.51"/>
      </g>
     </g>
     <g id="text_42">
      <!-- 2020-06-18 -->
      <g transform="translate(815.131193 637.625625)rotate(-90)scale(0.1 -0.1)">
       <use xlink:href="#DejaVuSans-32"/>
       <use x="63.623047" xlink:href="#DejaVuSans-30"/>
       <use x="127.246094" xlink:href="#DejaVuSans-32"/>
       <use x="190.869141" xlink:href="#DejaVuSans-30"/>
       <use x="254.492188" xlink:href="#DejaVuSans-2d"/>
       <use x="290.576172" xlink:href="#DejaVuSans-30"/>
       <use x="354.199219" xlink:href="#DejaVuSans-36"/>
       <use x="417.822266" xlink:href="#DejaVuSans-2d"/>
       <use x="453.90625" xlink:href="#DejaVuSans-31"/>
       <use x="517.529297" xlink:href="#DejaVuSans-38"/>
      </g>
     </g>
    </g>
    <g id="xtick_48">
     <g id="line2d_75">
      <g>
       <use style="stroke:#000000;stroke-width:0.8;" x="848.16" xlink:href="#mf97d7ad01d" y="572.51"/>
      </g>
     </g>
     <g id="text_43">
      <!-- 2020-06-26 -->
      <g transform="translate(850.919375 637.625625)rotate(-90)scale(0.1 -0.1)">
       <use xlink:href="#DejaVuSans-32"/>
       <use x="63.623047" xlink:href="#DejaVuSans-30"/>
       <use x="127.246094" xlink:href="#DejaVuSans-32"/>
       <use x="190.869141" xlink:href="#DejaVuSans-30"/>
       <use x="254.492188" xlink:href="#DejaVuSans-2d"/>
       <use x="290.576172" xlink:href="#DejaVuSans-30"/>
       <use x="354.199219" xlink:href="#DejaVuSans-36"/>
       <use x="417.822266" xlink:href="#DejaVuSans-2d"/>
       <use x="453.90625" xlink:href="#DejaVuSans-32"/>
       <use x="517.529297" xlink:href="#DejaVuSans-36"/>
      </g>
     </g>
    </g>
   </g>
   <g id="matplotlib.axis_8">
    <g id="ytick_25">
     <g id="line2d_76">
      <g>
       <use style="stroke:#000000;stroke-width:0.8;" x="454.49" xlink:href="#mf0d0d36eb6" y="572.51"/>
      </g>
     </g>
    </g>
    <g id="ytick_26">
     <g id="line2d_77">
      <g>
       <use style="stroke:#000000;stroke-width:0.8;" x="454.49" xlink:href="#mf0d0d36eb6" y="537.701837"/>
      </g>
     </g>
    </g>
    <g id="ytick_27">
     <g id="line2d_78">
      <g>
       <use style="stroke:#000000;stroke-width:0.8;" x="454.49" xlink:href="#mf0d0d36eb6" y="502.893675"/>
      </g>
     </g>
    </g>
    <g id="ytick_28">
     <g id="line2d_79">
      <g>
       <use style="stroke:#000000;stroke-width:0.8;" x="454.49" xlink:href="#mf0d0d36eb6" y="468.085512"/>
      </g>
     </g>
    </g>
    <g id="ytick_29">
     <g id="line2d_80">
      <g>
       <use style="stroke:#000000;stroke-width:0.8;" x="454.49" xlink:href="#mf0d0d36eb6" y="433.277349"/>
      </g>
     </g>
    </g>
    <g id="ytick_30">
     <g id="line2d_81">
      <g>
       <use style="stroke:#000000;stroke-width:0.8;" x="454.49" xlink:href="#mf0d0d36eb6" y="398.469186"/>
      </g>
     </g>
    </g>
    <g id="ytick_31">
     <g id="line2d_82">
      <g>
       <use style="stroke:#000000;stroke-width:0.8;" x="454.49" xlink:href="#mf0d0d36eb6" y="363.661024"/>
      </g>
     </g>
    </g>
    <g id="ytick_32">
     <g id="line2d_83">
      <g>
       <use style="stroke:#000000;stroke-width:0.8;" x="454.49" xlink:href="#mf0d0d36eb6" y="328.852861"/>
      </g>
     </g>
    </g>
   </g>
   <g id="line2d_84">
    <path clip-path="url(#p49086bdc2c)" d="M 454.49 483.186424 
L 459.121412 482.707075 
L 463.752824 481.333429 
L 468.384235 479.214912 
L 473.015647 477.386871 
L 477.647059 474.729165 
L 482.278471 470.6567 
L 486.909882 465.771312 
L 491.541294 463.062482 
L 496.172706 458.334375 
L 500.804118 455.170765 
L 505.435529 454.212422 
L 510.066941 451.868858 
L 514.698353 446.634999 
L 519.329765 443.312782 
L 523.961176 442.311381 
L 528.592588 438.995975 
L 533.224 437.085218 
L 537.855412 436.270669 
L 542.486824 433.518026 
L 547.118235 431.559198 
L 551.749647 430.192149 
L 556.381059 426.665977 
L 561.012471 423.468649 
L 565.643882 424.450176 
L 570.275294 424.830813 
L 574.906706 424.669884 
L 579.538118 424.777264 
L 584.169529 422.930327 
L 588.800941 423.726063 
L 593.432353 423.941719 
L 598.063765 422.578922 
L 602.695176 423.372197 
L 607.326588 424.616922 
L 611.958 422.496445 
L 616.589412 422.340231 
L 621.220824 421.309755 
L 625.852235 420.381721 
L 630.483647 420.941093 
L 635.115059 421.508773 
L 639.746471 422.73173 
L 644.377882 421.773413 
L 649.009294 420.095145 
L 653.640706 419.498124 
L 658.272118 419.782224 
L 662.903529 418.268704 
L 667.534941 419.085299 
L 672.166353 419.752691 
L 676.797765 419.227028 
L 681.429176 418.327365 
L 686.060588 436.72618 
L 690.692 418.715345 
L 695.323412 419.782466 
L 699.954824 420.978296 
L 704.586235 422.478094 
L 709.217647 423.632395 
L 713.849059 423.497975 
L 718.480471 423.702802 
L 723.111882 424.257741 
L 727.743294 426.210628 
L 732.374706 428.421957 
L 737.006118 429.442429 
L 741.637529 430.860364 
L 746.268941 431.375475 
L 750.900353 432.313653 
L 755.531765 434.290434 
L 760.163176 436.150667 
L 764.794588 437.885506 
L 769.426 439.361746 
L 774.057412 440.17628 
L 778.688824 440.591189 
L 783.320235 441.158604 
L 787.951647 442.382546 
L 792.583059 444.336101 
L 797.214471 446.747049 
L 801.845882 447.320516 
L 806.477294 448.84318 
L 811.108706 450.295791 
L 815.740118 451.831414 
L 820.371529 454.678333 
L 825.002941 456.620762 
L 829.634353 459.236214 
L 834.265765 461.67607 
L 838.897176 462.991693 
L 843.528588 465.626415 
L 848.16 466.400216 
" style="fill:none;stroke:#d62728;stroke-linecap:square;stroke-width:1.5;"/>
   </g>
   <g id="patch_18">
    <path d="M 454.49 572.51 
L 454.49 314.755 
" style="fill:none;stroke:#000000;stroke-linecap:square;stroke-linejoin:miter;stroke-width:0.8;"/>
   </g>
   <g id="patch_19">
    <path d="M 848.16 572.51 
L 848.16 314.755 
" style="fill:none;stroke:#000000;stroke-linecap:square;stroke-linejoin:miter;stroke-width:0.8;"/>
   </g>
   <g id="patch_20">
    <path d="M 454.49 572.51 
L 848.16 572.51 
" style="fill:none;stroke:#000000;stroke-linecap:square;stroke-linejoin:miter;stroke-width:0.8;"/>
   </g>
   <g id="patch_21">
    <path d="M 454.49 314.755 
L 848.16 314.755 
" style="fill:none;stroke:#000000;stroke-linecap:square;stroke-linejoin:miter;stroke-width:0.8;"/>
   </g>
   <g id="text_44">
    <!-- West -->
    <defs>
     <path d="M 3.328125 72.90625 
L 13.28125 72.90625 
L 28.609375 11.28125 
L 43.890625 72.90625 
L 54.984375 72.90625 
L 70.3125 11.28125 
L 85.59375 72.90625 
L 95.609375 72.90625 
L 77.296875 0 
L 64.890625 0 
L 49.515625 63.28125 
L 33.984375 0 
L 21.578125 0 
z
" id="DejaVuSans-57"/>
    </defs>
    <g transform="translate(636.2275 308.755)scale(0.12 -0.12)">
     <use xlink:href="#DejaVuSans-57"/>
     <use x="98.798828" xlink:href="#DejaVuSans-65"/>
     <use x="160.322266" xlink:href="#DejaVuSans-73"/>
     <use x="212.421875" xlink:href="#DejaVuSans-74"/>
    </g>
   </g>
  </g>
 </g>
 <defs>
  <clipPath id="p9059b2287d">
   <rect height="257.755" width="393.67" x="39.94" y="25.44"/>
  </clipPath>
  <clipPath id="p387345edf7">
   <rect height="257.755" width="393.67" x="454.49" y="25.44"/>
  </clipPath>
  <clipPath id="p1a2b960a20">
   <rect height="257.755" width="393.67" x="39.94" y="314.755"/>
  </clipPath>
  <clipPath id="p49086bdc2c">
   <rect height="257.755" width="393.67" x="454.49" y="314.755"/>
  </clipPath>
 </defs>
</svg>
