<?xml version="1.0" encoding="utf-8" standalone="no"?>
<!DOCTYPE svg PUBLIC "-//W3C//DTD SVG 1.1//EN"
  "http://www.w3.org/Graphics/SVG/1.1/DTD/svg11.dtd">
<!-- Created with matplotlib (http://matplotlib.org/) -->
<svg height="648pt" version="1.1" viewBox="0 0 864 648" width="864pt" xmlns="http://www.w3.org/2000/svg" xmlns:xlink="http://www.w3.org/1999/xlink">
 <defs>
  <style type="text/css">
*{stroke-linecap:butt;stroke-linejoin:round;}
  </style>
 </defs>
 <g id="figure_1">
  <g id="patch_1">
   <path d="M 0 648 
L 864 648 
L 864 0 
L 0 0 
z
" style="fill:#ffffff;"/>
  </g>
  <g id="axes_1">
   <g id="patch_2">
    <path d="M 39.94 283.195 
L 433.61 283.195 
L 433.61 25.44 
L 39.94 25.44 
z
" style="fill:#ffffff;"/>
   </g>
   <g id="PolyCollection_1">
    <defs>
     <path d="M 39.94 -559.214362 
L 39.94 -364.805 
L 46.289516 -364.805 
L 52.639032 -364.805 
L 58.988548 -364.805 
L 65.338065 -364.805 
L 71.687581 -364.805 
L 78.037097 -364.805 
L 84.386613 -364.805 
L 90.736129 -364.805 
L 97.085645 -364.805 
L 103.435161 -364.805 
L 109.784677 -364.805 
L 116.134194 -364.805 
L 122.48371 -364.805 
L 128.833226 -364.805 
L 135.182742 -364.805 
L 141.532258 -364.805 
L 147.881774 -364.805 
L 154.23129 -364.805 
L 160.580806 -364.805 
L 166.930323 -364.805 
L 173.279839 -364.805 
L 179.629355 -364.805 
L 185.978871 -364.805 
L 192.328387 -364.805 
L 198.677903 -364.805 
L 205.027419 -364.805 
L 211.376935 -364.805 
L 217.726452 -364.805 
L 224.075968 -364.805 
L 230.425484 -364.805 
L 236.775 -364.805 
L 243.124516 -364.805 
L 249.474032 -364.805 
L 255.823548 -364.805 
L 262.173065 -364.805 
L 268.522581 -364.805 
L 274.872097 -364.805 
L 281.221613 -364.805 
L 287.571129 -364.805 
L 293.920645 -364.805 
L 300.270161 -364.805 
L 306.619677 -364.805 
L 312.969194 -364.805 
L 319.31871 -364.805 
L 325.668226 -364.805 
L 332.017742 -364.805 
L 338.367258 -364.805 
L 344.716774 -364.805 
L 351.06629 -364.805 
L 357.415806 -364.805 
L 363.765323 -364.805 
L 370.114839 -364.805 
L 376.464355 -364.805 
L 382.813871 -364.805 
L 389.163387 -364.805 
L 395.512903 -364.805 
L 401.862419 -364.805 
L 408.211935 -364.805 
L 414.561452 -364.805 
L 420.910968 -364.805 
L 427.260484 -364.805 
L 433.61 -364.805 
L 433.61 -534.950892 
L 433.61 -534.950892 
L 427.260484 -536.212797 
L 420.910968 -537.106801 
L 414.561452 -538.000195 
L 408.211935 -538.665082 
L 401.862419 -539.51736 
L 395.512903 -540.620593 
L 389.163387 -541.595189 
L 382.813871 -542.42152 
L 376.464355 -542.712202 
L 370.114839 -543.356859 
L 363.765323 -543.965975 
L 357.415806 -544.416354 
L 351.06629 -544.696177 
L 344.716774 -544.831781 
L 338.367258 -544.933102 
L 332.017742 -544.945815 
L 325.668226 -545.420024 
L 319.31871 -545.787048 
L 312.969194 -545.959475 
L 306.619677 -545.884153 
L 300.270161 -545.496034 
L 293.920645 -545.151819 
L 287.571129 -544.9812 
L 281.221613 -545.12249 
L 274.872097 -545.456957 
L 268.522581 -545.862394 
L 262.173065 -546.605451 
L 255.823548 -546.126278 
L 249.474032 -546.086627 
L 243.124516 -545.72352 
L 236.775 -545.721675 
L 230.425484 -546.477116 
L 224.075968 -546.597578 
L 217.726452 -546.694149 
L 211.376935 -546.505028 
L 205.027419 -545.150986 
L 198.677903 -545.307718 
L 192.328387 -546.703876 
L 185.978871 -548.267109 
L 179.629355 -549.192309 
L 173.279839 -550.051412 
L 166.930323 -550.191893 
L 160.580806 -549.662154 
L 154.23129 -547.998155 
L 147.881774 -548.713161 
L 141.532258 -550.188322 
L 135.182742 -551.691826 
L 128.833226 -552.217696 
L 122.48371 -552.712398 
L 116.134194 -551.744933 
L 109.784677 -551.178038 
L 103.435161 -552.25217 
L 97.085645 -552.885785 
L 90.736129 -553.574399 
L 84.386613 -554.354329 
L 78.037097 -555.332922 
L 71.687581 -554.185378 
L 65.338065 -552.360338 
L 58.988548 -554.073493 
L 52.639032 -557.018258 
L 46.289516 -558.598142 
L 39.94 -559.214362 
z
" id="m7072476866" style="stroke:#1f77b4;"/>
    </defs>
    <g clip-path="url(#pf534e03129)">
     <use style="fill:#1f77b4;stroke:#1f77b4;" x="0" xlink:href="#m7072476866" y="648"/>
    </g>
   </g>
   <g id="matplotlib.axis_1">
    <g id="xtick_1">
     <g id="line2d_1">
      <defs>
       <path d="M 0 0 
L 0 3.5 
" id="m273d1289b2" style="stroke:#000000;stroke-width:0.8;"/>
      </defs>
      <g>
       <use style="stroke:#000000;stroke-width:0.8;" x="39.94" xlink:href="#m273d1289b2" y="283.195"/>
      </g>
     </g>
    </g>
    <g id="xtick_2">
     <g id="line2d_2">
      <g>
       <use style="stroke:#000000;stroke-width:0.8;" x="75.728182" xlink:href="#m273d1289b2" y="283.195"/>
      </g>
     </g>
    </g>
    <g id="xtick_3">
     <g id="line2d_3">
      <g>
       <use style="stroke:#000000;stroke-width:0.8;" x="111.516364" xlink:href="#m273d1289b2" y="283.195"/>
      </g>
     </g>
    </g>
    <g id="xtick_4">
     <g id="line2d_4">
      <g>
       <use style="stroke:#000000;stroke-width:0.8;" x="147.304545" xlink:href="#m273d1289b2" y="283.195"/>
      </g>
     </g>
    </g>
    <g id="xtick_5">
     <g id="line2d_5">
      <g>
       <use style="stroke:#000000;stroke-width:0.8;" x="183.092727" xlink:href="#m273d1289b2" y="283.195"/>
      </g>
     </g>
    </g>
    <g id="xtick_6">
     <g id="line2d_6">
      <g>
       <use style="stroke:#000000;stroke-width:0.8;" x="218.880909" xlink:href="#m273d1289b2" y="283.195"/>
      </g>
     </g>
    </g>
    <g id="xtick_7">
     <g id="line2d_7">
      <g>
       <use style="stroke:#000000;stroke-width:0.8;" x="254.669091" xlink:href="#m273d1289b2" y="283.195"/>
      </g>
     </g>
    </g>
    <g id="xtick_8">
     <g id="line2d_8">
      <g>
       <use style="stroke:#000000;stroke-width:0.8;" x="290.457273" xlink:href="#m273d1289b2" y="283.195"/>
      </g>
     </g>
    </g>
    <g id="xtick_9">
     <g id="line2d_9">
      <g>
       <use style="stroke:#000000;stroke-width:0.8;" x="326.245455" xlink:href="#m273d1289b2" y="283.195"/>
      </g>
     </g>
    </g>
    <g id="xtick_10">
     <g id="line2d_10">
      <g>
       <use style="stroke:#000000;stroke-width:0.8;" x="362.033636" xlink:href="#m273d1289b2" y="283.195"/>
      </g>
     </g>
    </g>
    <g id="xtick_11">
     <g id="line2d_11">
      <g>
       <use style="stroke:#000000;stroke-width:0.8;" x="397.821818" xlink:href="#m273d1289b2" y="283.195"/>
      </g>
     </g>
    </g>
    <g id="xtick_12">
     <g id="line2d_12">
      <g>
       <use style="stroke:#000000;stroke-width:0.8;" x="433.61" xlink:href="#m273d1289b2" y="283.195"/>
      </g>
     </g>
    </g>
   </g>
   <g id="matplotlib.axis_2">
    <g id="ytick_1">
     <g id="line2d_13">
      <defs>
       <path d="M 0 0 
L -3.5 0 
" id="mbbd1e827fc" style="stroke:#000000;stroke-width:0.8;"/>
      </defs>
      <g>
       <use style="stroke:#000000;stroke-width:0.8;" x="39.94" xlink:href="#mbbd1e827fc" y="283.195"/>
      </g>
     </g>
     <g id="text_1">
      <!-- 0.00 -->
      <defs>
       <path d="M 31.78125 66.40625 
Q 24.171875 66.40625 20.328125 58.90625 
Q 16.5 51.421875 16.5 36.375 
Q 16.5 21.390625 20.328125 13.890625 
Q 24.171875 6.390625 31.78125 6.390625 
Q 39.453125 6.390625 43.28125 13.890625 
Q 47.125 21.390625 47.125 36.375 
Q 47.125 51.421875 43.28125 58.90625 
Q 39.453125 66.40625 31.78125 66.40625 
z
M 31.78125 74.21875 
Q 44.046875 74.21875 50.515625 64.515625 
Q 56.984375 54.828125 56.984375 36.375 
Q 56.984375 17.96875 50.515625 8.265625 
Q 44.046875 -1.421875 31.78125 -1.421875 
Q 19.53125 -1.421875 13.0625 8.265625 
Q 6.59375 17.96875 6.59375 36.375 
Q 6.59375 54.828125 13.0625 64.515625 
Q 19.53125 74.21875 31.78125 74.21875 
z
" id="DejaVuSans-30"/>
       <path d="M 10.6875 12.40625 
L 21 12.40625 
L 21 0 
L 10.6875 0 
z
" id="DejaVuSans-2e"/>
      </defs>
      <g transform="translate(10.674375 286.994219)scale(0.1 -0.1)">
       <use xlink:href="#DejaVuSans-30"/>
       <use x="63.623047" xlink:href="#DejaVuSans-2e"/>
       <use x="95.410156" xlink:href="#DejaVuSans-30"/>
       <use x="159.033203" xlink:href="#DejaVuSans-30"/>
      </g>
     </g>
    </g>
    <g id="ytick_2">
     <g id="line2d_14">
      <g>
       <use style="stroke:#000000;stroke-width:0.8;" x="39.94" xlink:href="#mbbd1e827fc" y="248.426103"/>
      </g>
     </g>
     <g id="text_2">
      <!-- 0.01 -->
      <defs>
       <path d="M 12.40625 8.296875 
L 28.515625 8.296875 
L 28.515625 63.921875 
L 10.984375 60.40625 
L 10.984375 69.390625 
L 28.421875 72.90625 
L 38.28125 72.90625 
L 38.28125 8.296875 
L 54.390625 8.296875 
L 54.390625 0 
L 12.40625 0 
z
" id="DejaVuSans-31"/>
      </defs>
      <g transform="translate(10.674375 252.225322)scale(0.1 -0.1)">
       <use xlink:href="#DejaVuSans-30"/>
       <use x="63.623047" xlink:href="#DejaVuSans-2e"/>
       <use x="95.410156" xlink:href="#DejaVuSans-30"/>
       <use x="159.033203" xlink:href="#DejaVuSans-31"/>
      </g>
     </g>
    </g>
    <g id="ytick_3">
     <g id="line2d_15">
      <g>
       <use style="stroke:#000000;stroke-width:0.8;" x="39.94" xlink:href="#mbbd1e827fc" y="213.657206"/>
      </g>
     </g>
     <g id="text_3">
      <!-- 0.02 -->
      <defs>
       <path d="M 19.1875 8.296875 
L 53.609375 8.296875 
L 53.609375 0 
L 7.328125 0 
L 7.328125 8.296875 
Q 12.9375 14.109375 22.625 23.890625 
Q 32.328125 33.6875 34.8125 36.53125 
Q 39.546875 41.84375 41.421875 45.53125 
Q 43.3125 49.21875 43.3125 52.78125 
Q 43.3125 58.59375 39.234375 62.25 
Q 35.15625 65.921875 28.609375 65.921875 
Q 23.96875 65.921875 18.8125 64.3125 
Q 13.671875 62.703125 7.8125 59.421875 
L 7.8125 69.390625 
Q 13.765625 71.78125 18.9375 73 
Q 24.125 74.21875 28.421875 74.21875 
Q 39.75 74.21875 46.484375 68.546875 
Q 53.21875 62.890625 53.21875 53.421875 
Q 53.21875 48.921875 51.53125 44.890625 
Q 49.859375 40.875 45.40625 35.40625 
Q 44.1875 33.984375 37.640625 27.21875 
Q 31.109375 20.453125 19.1875 8.296875 
z
" id="DejaVuSans-32"/>
      </defs>
      <g transform="translate(10.674375 217.456425)scale(0.1 -0.1)">
       <use xlink:href="#DejaVuSans-30"/>
       <use x="63.623047" xlink:href="#DejaVuSans-2e"/>
       <use x="95.410156" xlink:href="#DejaVuSans-30"/>
       <use x="159.033203" xlink:href="#DejaVuSans-32"/>
      </g>
     </g>
    </g>
    <g id="ytick_4">
     <g id="line2d_16">
      <g>
       <use style="stroke:#000000;stroke-width:0.8;" x="39.94" xlink:href="#mbbd1e827fc" y="178.888309"/>
      </g>
     </g>
     <g id="text_4">
      <!-- 0.03 -->
      <defs>
       <path d="M 40.578125 39.3125 
Q 47.65625 37.796875 51.625 33 
Q 55.609375 28.21875 55.609375 21.1875 
Q 55.609375 10.40625 48.1875 4.484375 
Q 40.765625 -1.421875 27.09375 -1.421875 
Q 22.515625 -1.421875 17.65625 -0.515625 
Q 12.796875 0.390625 7.625 2.203125 
L 7.625 11.71875 
Q 11.71875 9.328125 16.59375 8.109375 
Q 21.484375 6.890625 26.8125 6.890625 
Q 36.078125 6.890625 40.9375 10.546875 
Q 45.796875 14.203125 45.796875 21.1875 
Q 45.796875 27.640625 41.28125 31.265625 
Q 36.765625 34.90625 28.71875 34.90625 
L 20.21875 34.90625 
L 20.21875 43.015625 
L 29.109375 43.015625 
Q 36.375 43.015625 40.234375 45.921875 
Q 44.09375 48.828125 44.09375 54.296875 
Q 44.09375 59.90625 40.109375 62.90625 
Q 36.140625 65.921875 28.71875 65.921875 
Q 24.65625 65.921875 20.015625 65.03125 
Q 15.375 64.15625 9.8125 62.3125 
L 9.8125 71.09375 
Q 15.4375 72.65625 20.34375 73.4375 
Q 25.25 74.21875 29.59375 74.21875 
Q 40.828125 74.21875 47.359375 69.109375 
Q 53.90625 64.015625 53.90625 55.328125 
Q 53.90625 49.265625 50.4375 45.09375 
Q 46.96875 40.921875 40.578125 39.3125 
z
" id="DejaVuSans-33"/>
      </defs>
      <g transform="translate(10.674375 182.687528)scale(0.1 -0.1)">
       <use xlink:href="#DejaVuSans-30"/>
       <use x="63.623047" xlink:href="#DejaVuSans-2e"/>
       <use x="95.410156" xlink:href="#DejaVuSans-30"/>
       <use x="159.033203" xlink:href="#DejaVuSans-33"/>
      </g>
     </g>
    </g>
    <g id="ytick_5">
     <g id="line2d_17">
      <g>
       <use style="stroke:#000000;stroke-width:0.8;" x="39.94" xlink:href="#mbbd1e827fc" y="144.119412"/>
      </g>
     </g>
     <g id="text_5">
      <!-- 0.04 -->
      <defs>
       <path d="M 37.796875 64.3125 
L 12.890625 25.390625 
L 37.796875 25.390625 
z
M 35.203125 72.90625 
L 47.609375 72.90625 
L 47.609375 25.390625 
L 58.015625 25.390625 
L 58.015625 17.1875 
L 47.609375 17.1875 
L 47.609375 0 
L 37.796875 0 
L 37.796875 17.1875 
L 4.890625 17.1875 
L 4.890625 26.703125 
z
" id="DejaVuSans-34"/>
      </defs>
      <g transform="translate(10.674375 147.918631)scale(0.1 -0.1)">
       <use xlink:href="#DejaVuSans-30"/>
       <use x="63.623047" xlink:href="#DejaVuSans-2e"/>
       <use x="95.410156" xlink:href="#DejaVuSans-30"/>
       <use x="159.033203" xlink:href="#DejaVuSans-34"/>
      </g>
     </g>
    </g>
    <g id="ytick_6">
     <g id="line2d_18">
      <g>
       <use style="stroke:#000000;stroke-width:0.8;" x="39.94" xlink:href="#mbbd1e827fc" y="109.350516"/>
      </g>
     </g>
     <g id="text_6">
      <!-- 0.05 -->
      <defs>
       <path d="M 10.796875 72.90625 
L 49.515625 72.90625 
L 49.515625 64.59375 
L 19.828125 64.59375 
L 19.828125 46.734375 
Q 21.96875 47.46875 24.109375 47.828125 
Q 26.265625 48.1875 28.421875 48.1875 
Q 40.625 48.1875 47.75 41.5 
Q 54.890625 34.8125 54.890625 23.390625 
Q 54.890625 11.625 47.5625 5.09375 
Q 40.234375 -1.421875 26.90625 -1.421875 
Q 22.3125 -1.421875 17.546875 -0.640625 
Q 12.796875 0.140625 7.71875 1.703125 
L 7.71875 11.625 
Q 12.109375 9.234375 16.796875 8.0625 
Q 21.484375 6.890625 26.703125 6.890625 
Q 35.15625 6.890625 40.078125 11.328125 
Q 45.015625 15.765625 45.015625 23.390625 
Q 45.015625 31 40.078125 35.4375 
Q 35.15625 39.890625 26.703125 39.890625 
Q 22.75 39.890625 18.8125 39.015625 
Q 14.890625 38.140625 10.796875 36.28125 
z
" id="DejaVuSans-35"/>
      </defs>
      <g transform="translate(10.674375 113.149734)scale(0.1 -0.1)">
       <use xlink:href="#DejaVuSans-30"/>
       <use x="63.623047" xlink:href="#DejaVuSans-2e"/>
       <use x="95.410156" xlink:href="#DejaVuSans-30"/>
       <use x="159.033203" xlink:href="#DejaVuSans-35"/>
      </g>
     </g>
    </g>
    <g id="ytick_7">
     <g id="line2d_19">
      <g>
       <use style="stroke:#000000;stroke-width:0.8;" x="39.94" xlink:href="#mbbd1e827fc" y="74.581619"/>
      </g>
     </g>
     <g id="text_7">
      <!-- 0.06 -->
      <defs>
       <path d="M 33.015625 40.375 
Q 26.375 40.375 22.484375 35.828125 
Q 18.609375 31.296875 18.609375 23.390625 
Q 18.609375 15.53125 22.484375 10.953125 
Q 26.375 6.390625 33.015625 6.390625 
Q 39.65625 6.390625 43.53125 10.953125 
Q 47.40625 15.53125 47.40625 23.390625 
Q 47.40625 31.296875 43.53125 35.828125 
Q 39.65625 40.375 33.015625 40.375 
z
M 52.59375 71.296875 
L 52.59375 62.3125 
Q 48.875 64.0625 45.09375 64.984375 
Q 41.3125 65.921875 37.59375 65.921875 
Q 27.828125 65.921875 22.671875 59.328125 
Q 17.53125 52.734375 16.796875 39.40625 
Q 19.671875 43.65625 24.015625 45.921875 
Q 28.375 48.1875 33.59375 48.1875 
Q 44.578125 48.1875 50.953125 41.515625 
Q 57.328125 34.859375 57.328125 23.390625 
Q 57.328125 12.15625 50.6875 5.359375 
Q 44.046875 -1.421875 33.015625 -1.421875 
Q 20.359375 -1.421875 13.671875 8.265625 
Q 6.984375 17.96875 6.984375 36.375 
Q 6.984375 53.65625 15.1875 63.9375 
Q 23.390625 74.21875 37.203125 74.21875 
Q 40.921875 74.21875 44.703125 73.484375 
Q 48.484375 72.75 52.59375 71.296875 
z
" id="DejaVuSans-36"/>
      </defs>
      <g transform="translate(10.674375 78.380837)scale(0.1 -0.1)">
       <use xlink:href="#DejaVuSans-30"/>
       <use x="63.623047" xlink:href="#DejaVuSans-2e"/>
       <use x="95.410156" xlink:href="#DejaVuSans-30"/>
       <use x="159.033203" xlink:href="#DejaVuSans-36"/>
      </g>
     </g>
    </g>
    <g id="ytick_8">
     <g id="line2d_20">
      <g>
       <use style="stroke:#000000;stroke-width:0.8;" x="39.94" xlink:href="#mbbd1e827fc" y="39.812722"/>
      </g>
     </g>
     <g id="text_8">
      <!-- 0.07 -->
      <defs>
       <path d="M 8.203125 72.90625 
L 55.078125 72.90625 
L 55.078125 68.703125 
L 28.609375 0 
L 18.3125 0 
L 43.21875 64.59375 
L 8.203125 64.59375 
z
" id="DejaVuSans-37"/>
      </defs>
      <g transform="translate(10.674375 43.611941)scale(0.1 -0.1)">
       <use xlink:href="#DejaVuSans-30"/>
       <use x="63.623047" xlink:href="#DejaVuSans-2e"/>
       <use x="95.410156" xlink:href="#DejaVuSans-30"/>
       <use x="159.033203" xlink:href="#DejaVuSans-37"/>
      </g>
     </g>
    </g>
   </g>
   <g id="line2d_21">
    <path clip-path="url(#pf534e03129)" d="M 39.94 88.785638 
L 46.289516 89.401858 
L 52.639032 90.981742 
L 58.988548 93.926507 
L 65.338065 95.639662 
L 71.687581 93.814622 
L 78.037097 92.667078 
L 84.386613 93.645671 
L 90.736129 94.425601 
L 97.085645 95.114215 
L 103.435161 95.74783 
L 109.784677 96.821962 
L 116.134194 96.255067 
L 122.48371 95.287602 
L 128.833226 95.782304 
L 135.182742 96.308174 
L 141.532258 97.811678 
L 147.881774 99.286839 
L 154.23129 100.001845 
L 160.580806 98.337846 
L 166.930323 97.808107 
L 173.279839 97.948588 
L 179.629355 98.807691 
L 185.978871 99.732891 
L 192.328387 101.296124 
L 198.677903 102.692282 
L 205.027419 102.849014 
L 211.376935 101.494972 
L 217.726452 101.305851 
L 224.075968 101.402422 
L 230.425484 101.522884 
L 236.775 102.278325 
L 243.124516 102.27648 
L 249.474032 101.913373 
L 255.823548 101.873722 
L 262.173065 101.394549 
L 268.522581 102.137606 
L 274.872097 102.543043 
L 281.221613 102.87751 
L 287.571129 103.0188 
L 293.920645 102.848181 
L 300.270161 102.503966 
L 306.619677 102.115847 
L 312.969194 102.040525 
L 319.31871 102.212952 
L 325.668226 102.579976 
L 332.017742 103.054185 
L 338.367258 103.066898 
L 344.716774 103.168219 
L 351.06629 103.303823 
L 357.415806 103.583646 
L 363.765323 104.034025 
L 370.114839 104.643141 
L 376.464355 105.287798 
L 382.813871 105.57848 
L 389.163387 106.404811 
L 395.512903 107.379407 
L 401.862419 108.48264 
L 408.211935 109.334918 
L 414.561452 109.999805 
L 420.910968 110.893199 
L 427.260484 111.787203 
L 433.61 113.049108 
" style="fill:none;stroke:#1f77b4;stroke-linecap:square;stroke-width:1.5;"/>
   </g>
   <g id="patch_3">
    <path d="M 39.94 283.195 
L 39.94 25.44 
" style="fill:none;stroke:#000000;stroke-linecap:square;stroke-linejoin:miter;stroke-width:0.8;"/>
   </g>
   <g id="patch_4">
    <path d="M 433.61 283.195 
L 433.61 25.44 
" style="fill:none;stroke:#000000;stroke-linecap:square;stroke-linejoin:miter;stroke-width:0.8;"/>
   </g>
   <g id="patch_5">
    <path d="M 39.94 283.195 
L 433.61 283.195 
" style="fill:none;stroke:#000000;stroke-linecap:square;stroke-linejoin:miter;stroke-width:0.8;"/>
   </g>
   <g id="patch_6">
    <path d="M 39.94 25.44 
L 433.61 25.44 
" style="fill:none;stroke:#000000;stroke-linecap:square;stroke-linejoin:miter;stroke-width:0.8;"/>
   </g>
   <g id="text_9">
    <!-- Midwest -->
    <defs>
     <path d="M 9.8125 72.90625 
L 24.515625 72.90625 
L 43.109375 23.296875 
L 61.8125 72.90625 
L 76.515625 72.90625 
L 76.515625 0 
L 66.890625 0 
L 66.890625 64.015625 
L 48.09375 14.015625 
L 38.1875 14.015625 
L 19.390625 64.015625 
L 19.390625 0 
L 9.8125 0 
z
" id="DejaVuSans-4d"/>
     <path d="M 9.421875 54.6875 
L 18.40625 54.6875 
L 18.40625 0 
L 9.421875 0 
z
M 9.421875 75.984375 
L 18.40625 75.984375 
L 18.40625 64.59375 
L 9.421875 64.59375 
z
" id="DejaVuSans-69"/>
     <path d="M 45.40625 46.390625 
L 45.40625 75.984375 
L 54.390625 75.984375 
L 54.390625 0 
L 45.40625 0 
L 45.40625 8.203125 
Q 42.578125 3.328125 38.25 0.953125 
Q 33.9375 -1.421875 27.875 -1.421875 
Q 17.96875 -1.421875 11.734375 6.484375 
Q 5.515625 14.40625 5.515625 27.296875 
Q 5.515625 40.1875 11.734375 48.09375 
Q 17.96875 56 27.875 56 
Q 33.9375 56 38.25 53.625 
Q 42.578125 51.265625 45.40625 46.390625 
z
M 14.796875 27.296875 
Q 14.796875 17.390625 18.875 11.75 
Q 22.953125 6.109375 30.078125 6.109375 
Q 37.203125 6.109375 41.296875 11.75 
Q 45.40625 17.390625 45.40625 27.296875 
Q 45.40625 37.203125 41.296875 42.84375 
Q 37.203125 48.484375 30.078125 48.484375 
Q 22.953125 48.484375 18.875 42.84375 
Q 14.796875 37.203125 14.796875 27.296875 
z
" id="DejaVuSans-64"/>
     <path d="M 4.203125 54.6875 
L 13.1875 54.6875 
L 24.421875 12.015625 
L 35.59375 54.6875 
L 46.1875 54.6875 
L 57.421875 12.015625 
L 68.609375 54.6875 
L 77.59375 54.6875 
L 63.28125 0 
L 52.6875 0 
L 40.921875 44.828125 
L 29.109375 0 
L 18.5 0 
z
" id="DejaVuSans-77"/>
     <path d="M 56.203125 29.59375 
L 56.203125 25.203125 
L 14.890625 25.203125 
Q 15.484375 15.921875 20.484375 11.0625 
Q 25.484375 6.203125 34.421875 6.203125 
Q 39.59375 6.203125 44.453125 7.46875 
Q 49.3125 8.734375 54.109375 11.28125 
L 54.109375 2.78125 
Q 49.265625 0.734375 44.1875 -0.34375 
Q 39.109375 -1.421875 33.890625 -1.421875 
Q 20.796875 -1.421875 13.15625 6.1875 
Q 5.515625 13.8125 5.515625 26.8125 
Q 5.515625 40.234375 12.765625 48.109375 
Q 20.015625 56 32.328125 56 
Q 43.359375 56 49.78125 48.890625 
Q 56.203125 41.796875 56.203125 29.59375 
z
M 47.21875 32.234375 
Q 47.125 39.59375 43.09375 43.984375 
Q 39.0625 48.390625 32.421875 48.390625 
Q 24.90625 48.390625 20.390625 44.140625 
Q 15.875 39.890625 15.1875 32.171875 
z
" id="DejaVuSans-65"/>
     <path d="M 44.28125 53.078125 
L 44.28125 44.578125 
Q 40.484375 46.53125 36.375 47.5 
Q 32.28125 48.484375 27.875 48.484375 
Q 21.1875 48.484375 17.84375 46.4375 
Q 14.5 44.390625 14.5 40.28125 
Q 14.5 37.15625 16.890625 35.375 
Q 19.28125 33.59375 26.515625 31.984375 
L 29.59375 31.296875 
Q 39.15625 29.25 43.1875 25.515625 
Q 47.21875 21.78125 47.21875 15.09375 
Q 47.21875 7.46875 41.1875 3.015625 
Q 35.15625 -1.421875 24.609375 -1.421875 
Q 20.21875 -1.421875 15.453125 -0.5625 
Q 10.6875 0.296875 5.421875 2 
L 5.421875 11.28125 
Q 10.40625 8.6875 15.234375 7.390625 
Q 20.0625 6.109375 24.8125 6.109375 
Q 31.15625 6.109375 34.5625 8.28125 
Q 37.984375 10.453125 37.984375 14.40625 
Q 37.984375 18.0625 35.515625 20.015625 
Q 33.0625 21.96875 24.703125 23.78125 
L 21.578125 24.515625 
Q 13.234375 26.265625 9.515625 29.90625 
Q 5.8125 33.546875 5.8125 39.890625 
Q 5.8125 47.609375 11.28125 51.796875 
Q 16.75 56 26.8125 56 
Q 31.78125 56 36.171875 55.265625 
Q 40.578125 54.546875 44.28125 53.078125 
z
" id="DejaVuSans-73"/>
     <path d="M 18.3125 70.21875 
L 18.3125 54.6875 
L 36.8125 54.6875 
L 36.8125 47.703125 
L 18.3125 47.703125 
L 18.3125 18.015625 
Q 18.3125 11.328125 20.140625 9.421875 
Q 21.96875 7.515625 27.59375 7.515625 
L 36.8125 7.515625 
L 36.8125 0 
L 27.59375 0 
Q 17.1875 0 13.234375 3.875 
Q 9.28125 7.765625 9.28125 18.015625 
L 9.28125 47.703125 
L 2.6875 47.703125 
L 2.6875 54.6875 
L 9.28125 54.6875 
L 9.28125 70.21875 
z
" id="DejaVuSans-74"/>
    </defs>
    <g transform="translate(212.045625 19.44)scale(0.12 -0.12)">
     <use xlink:href="#DejaVuSans-4d"/>
     <use x="86.279297" xlink:href="#DejaVuSans-69"/>
     <use x="114.0625" xlink:href="#DejaVuSans-64"/>
     <use x="177.539062" xlink:href="#DejaVuSans-77"/>
     <use x="259.326172" xlink:href="#DejaVuSans-65"/>
     <use x="320.849609" xlink:href="#DejaVuSans-73"/>
     <use x="372.949219" xlink:href="#DejaVuSans-74"/>
    </g>
   </g>
  </g>
  <g id="axes_2">
   <g id="patch_7">
    <path d="M 454.49 283.195 
L 848.16 283.195 
L 848.16 25.44 
L 454.49 25.44 
z
" style="fill:#ffffff;"/>
   </g>
   <g id="PolyCollection_2">
    <defs>
     <path d="M 454.49 -572.437576 
L 454.49 -364.805 
L 460.839516 -364.805 
L 467.189032 -364.805 
L 473.538548 -364.805 
L 479.888065 -364.805 
L 486.237581 -364.805 
L 492.587097 -364.805 
L 498.936613 -364.805 
L 505.286129 -364.805 
L 511.635645 -364.805 
L 517.985161 -364.805 
L 524.334677 -364.805 
L 530.684194 -364.805 
L 537.03371 -364.805 
L 543.383226 -364.805 
L 549.732742 -364.805 
L 556.082258 -364.805 
L 562.431774 -364.805 
L 568.78129 -364.805 
L 575.130806 -364.805 
L 581.480323 -364.805 
L 587.829839 -364.805 
L 594.179355 -364.805 
L 600.528871 -364.805 
L 606.878387 -364.805 
L 613.227903 -364.805 
L 619.577419 -364.805 
L 625.926935 -364.805 
L 632.276452 -364.805 
L 638.625968 -364.805 
L 644.975484 -364.805 
L 651.325 -364.805 
L 657.674516 -364.805 
L 664.024032 -364.805 
L 670.373548 -364.805 
L 676.723065 -364.805 
L 683.072581 -364.805 
L 689.422097 -364.805 
L 695.771613 -364.805 
L 702.121129 -364.805 
L 708.470645 -364.805 
L 714.820161 -364.805 
L 721.169677 -364.805 
L 727.519194 -364.805 
L 733.86871 -364.805 
L 740.218226 -364.805 
L 746.567742 -364.805 
L 752.917258 -364.805 
L 759.266774 -364.805 
L 765.61629 -364.805 
L 771.965806 -364.805 
L 778.315323 -364.805 
L 784.664839 -364.805 
L 791.014355 -364.805 
L 797.363871 -364.805 
L 803.713387 -364.805 
L 810.062903 -364.805 
L 816.412419 -364.805 
L 822.761935 -364.805 
L 829.111452 -364.805 
L 835.460968 -364.805 
L 841.810484 -364.805 
L 848.16 -364.805 
L 848.16 -609.445714 
L 848.16 -609.445714 
L 841.810484 -609.651264 
L 835.460968 -609.628136 
L 829.111452 -609.498297 
L 822.761935 -609.524192 
L 816.412419 -609.561102 
L 810.062903 -609.635921 
L 803.713387 -609.755891 
L 797.363871 -609.425488 
L 791.014355 -609.430465 
L 784.664839 -609.458208 
L 778.315323 -609.605813 
L 771.965806 -609.952694 
L 765.61629 -610.285952 
L 759.266774 -610.197156 
L 752.917258 -609.931494 
L 746.567742 -609.835368 
L 740.218226 -609.6896 
L 733.86871 -609.616071 
L 727.519194 -609.427319 
L 721.169677 -609.087263 
L 714.820161 -608.760655 
L 708.470645 -608.18539 
L 702.121129 -607.586429 
L 695.771613 -607.283025 
L 689.422097 -607.145626 
L 683.072581 -606.963753 
L 676.723065 -606.632849 
L 670.373548 -606.194795 
L 664.024032 -605.603738 
L 657.674516 -605.416434 
L 651.325 -605.904139 
L 644.975484 -605.72568 
L 638.625968 -605.379067 
L 632.276452 -604.891258 
L 625.926935 -604.561743 
L 619.577419 -603.786327 
L 613.227903 -603.458963 
L 606.878387 -603.510192 
L 600.528871 -603.800687 
L 594.179355 -603.088482 
L 587.829839 -602.569538 
L 581.480323 -602.115173 
L 575.130806 -601.177331 
L 568.78129 -600.117201 
L 562.431774 -599.924946 
L 556.082258 -599.703461 
L 549.732742 -599.417042 
L 543.383226 -598.920613 
L 537.03371 -596.719882 
L 530.684194 -594.474298 
L 524.334677 -592.810797 
L 517.985161 -592.15685 
L 511.635645 -591.678565 
L 505.286129 -590.631539 
L 498.936613 -589.597531 
L 492.587097 -587.84086 
L 486.237581 -581.650321 
L 479.888065 -577.888031 
L 473.538548 -574.655183 
L 467.189032 -574.390109 
L 460.839516 -572.993632 
L 454.49 -572.437576 
z
" id="m3012657ce1" style="stroke:#ff7f0e;"/>
    </defs>
    <g clip-path="url(#p944ffefcf6)">
     <use style="fill:#ff7f0e;stroke:#ff7f0e;" x="0" xlink:href="#m3012657ce1" y="648"/>
    </g>
   </g>
   <g id="matplotlib.axis_3">
    <g id="xtick_13">
     <g id="line2d_22">
      <g>
       <use style="stroke:#000000;stroke-width:0.8;" x="454.49" xlink:href="#m273d1289b2" y="283.195"/>
      </g>
     </g>
    </g>
    <g id="xtick_14">
     <g id="line2d_23">
      <g>
       <use style="stroke:#000000;stroke-width:0.8;" x="490.278182" xlink:href="#m273d1289b2" y="283.195"/>
      </g>
     </g>
    </g>
    <g id="xtick_15">
     <g id="line2d_24">
      <g>
       <use style="stroke:#000000;stroke-width:0.8;" x="526.066364" xlink:href="#m273d1289b2" y="283.195"/>
      </g>
     </g>
    </g>
    <g id="xtick_16">
     <g id="line2d_25">
      <g>
       <use style="stroke:#000000;stroke-width:0.8;" x="561.854545" xlink:href="#m273d1289b2" y="283.195"/>
      </g>
     </g>
    </g>
    <g id="xtick_17">
     <g id="line2d_26">
      <g>
       <use style="stroke:#000000;stroke-width:0.8;" x="597.642727" xlink:href="#m273d1289b2" y="283.195"/>
      </g>
     </g>
    </g>
    <g id="xtick_18">
     <g id="line2d_27">
      <g>
       <use style="stroke:#000000;stroke-width:0.8;" x="633.430909" xlink:href="#m273d1289b2" y="283.195"/>
      </g>
     </g>
    </g>
    <g id="xtick_19">
     <g id="line2d_28">
      <g>
       <use style="stroke:#000000;stroke-width:0.8;" x="669.219091" xlink:href="#m273d1289b2" y="283.195"/>
      </g>
     </g>
    </g>
    <g id="xtick_20">
     <g id="line2d_29">
      <g>
       <use style="stroke:#000000;stroke-width:0.8;" x="705.007273" xlink:href="#m273d1289b2" y="283.195"/>
      </g>
     </g>
    </g>
    <g id="xtick_21">
     <g id="line2d_30">
      <g>
       <use style="stroke:#000000;stroke-width:0.8;" x="740.795455" xlink:href="#m273d1289b2" y="283.195"/>
      </g>
     </g>
    </g>
    <g id="xtick_22">
     <g id="line2d_31">
      <g>
       <use style="stroke:#000000;stroke-width:0.8;" x="776.583636" xlink:href="#m273d1289b2" y="283.195"/>
      </g>
     </g>
    </g>
    <g id="xtick_23">
     <g id="line2d_32">
      <g>
       <use style="stroke:#000000;stroke-width:0.8;" x="812.371818" xlink:href="#m273d1289b2" y="283.195"/>
      </g>
     </g>
    </g>
    <g id="xtick_24">
     <g id="line2d_33">
      <g>
       <use style="stroke:#000000;stroke-width:0.8;" x="848.16" xlink:href="#m273d1289b2" y="283.195"/>
      </g>
     </g>
    </g>
   </g>
   <g id="matplotlib.axis_4">
    <g id="ytick_9">
     <g id="line2d_34">
      <g>
       <use style="stroke:#000000;stroke-width:0.8;" x="454.49" xlink:href="#mbbd1e827fc" y="283.195"/>
      </g>
     </g>
    </g>
    <g id="ytick_10">
     <g id="line2d_35">
      <g>
       <use style="stroke:#000000;stroke-width:0.8;" x="454.49" xlink:href="#mbbd1e827fc" y="248.426103"/>
      </g>
     </g>
    </g>
    <g id="ytick_11">
     <g id="line2d_36">
      <g>
       <use style="stroke:#000000;stroke-width:0.8;" x="454.49" xlink:href="#mbbd1e827fc" y="213.657206"/>
      </g>
     </g>
    </g>
    <g id="ytick_12">
     <g id="line2d_37">
      <g>
       <use style="stroke:#000000;stroke-width:0.8;" x="454.49" xlink:href="#mbbd1e827fc" y="178.888309"/>
      </g>
     </g>
    </g>
    <g id="ytick_13">
     <g id="line2d_38">
      <g>
       <use style="stroke:#000000;stroke-width:0.8;" x="454.49" xlink:href="#mbbd1e827fc" y="144.119412"/>
      </g>
     </g>
    </g>
    <g id="ytick_14">
     <g id="line2d_39">
      <g>
       <use style="stroke:#000000;stroke-width:0.8;" x="454.49" xlink:href="#mbbd1e827fc" y="109.350516"/>
      </g>
     </g>
    </g>
    <g id="ytick_15">
     <g id="line2d_40">
      <g>
       <use style="stroke:#000000;stroke-width:0.8;" x="454.49" xlink:href="#mbbd1e827fc" y="74.581619"/>
      </g>
     </g>
    </g>
    <g id="ytick_16">
     <g id="line2d_41">
      <g>
       <use style="stroke:#000000;stroke-width:0.8;" x="454.49" xlink:href="#mbbd1e827fc" y="39.812722"/>
      </g>
     </g>
    </g>
   </g>
   <g id="line2d_42">
    <path clip-path="url(#p944ffefcf6)" d="M 454.49 75.562424 
L 460.839516 75.006368 
L 467.189032 73.609891 
L 473.538548 73.344817 
L 479.888065 70.111969 
L 486.237581 66.349679 
L 492.587097 60.15914 
L 498.936613 58.402469 
L 505.286129 57.368461 
L 511.635645 56.321435 
L 517.985161 55.84315 
L 524.334677 55.189203 
L 530.684194 53.525702 
L 537.03371 51.280118 
L 543.383226 49.079387 
L 549.732742 48.582958 
L 556.082258 48.296539 
L 562.431774 48.075054 
L 568.78129 47.882799 
L 575.130806 46.822669 
L 581.480323 45.884827 
L 587.829839 45.430462 
L 594.179355 44.911518 
L 600.528871 44.199313 
L 606.878387 44.489808 
L 613.227903 44.541037 
L 619.577419 44.213673 
L 625.926935 43.438257 
L 632.276452 43.108742 
L 638.625968 42.620933 
L 644.975484 42.27432 
L 651.325 42.095861 
L 657.674516 42.583566 
L 664.024032 42.396262 
L 670.373548 41.805205 
L 676.723065 41.367151 
L 683.072581 41.036247 
L 689.422097 40.854374 
L 695.771613 40.716975 
L 702.121129 40.413571 
L 708.470645 39.81461 
L 714.820161 39.239345 
L 721.169677 38.912737 
L 727.519194 38.572681 
L 733.86871 38.383929 
L 740.218226 38.3104 
L 746.567742 38.164632 
L 752.917258 38.068506 
L 759.266774 37.802844 
L 765.61629 37.714048 
L 771.965806 38.047306 
L 778.315323 38.394187 
L 784.664839 38.541792 
L 791.014355 38.569535 
L 797.363871 38.574512 
L 803.713387 38.244109 
L 810.062903 38.364079 
L 816.412419 38.438898 
L 822.761935 38.475808 
L 829.111452 38.501703 
L 835.460968 38.371864 
L 841.810484 38.348736 
L 848.16 38.554286 
" style="fill:none;stroke:#ff7f0e;stroke-linecap:square;stroke-width:1.5;"/>
   </g>
   <g id="patch_8">
    <path d="M 454.49 283.195 
L 454.49 25.44 
" style="fill:none;stroke:#000000;stroke-linecap:square;stroke-linejoin:miter;stroke-width:0.8;"/>
   </g>
   <g id="patch_9">
    <path d="M 848.16 283.195 
L 848.16 25.44 
" style="fill:none;stroke:#000000;stroke-linecap:square;stroke-linejoin:miter;stroke-width:0.8;"/>
   </g>
   <g id="patch_10">
    <path d="M 454.49 283.195 
L 848.16 283.195 
" style="fill:none;stroke:#000000;stroke-linecap:square;stroke-linejoin:miter;stroke-width:0.8;"/>
   </g>
   <g id="patch_11">
    <path d="M 454.49 25.44 
L 848.16 25.44 
" style="fill:none;stroke:#000000;stroke-linecap:square;stroke-linejoin:miter;stroke-width:0.8;"/>
   </g>
   <g id="text_10">
    <!-- Northeast -->
    <defs>
     <path d="M 9.8125 72.90625 
L 23.09375 72.90625 
L 55.421875 11.921875 
L 55.421875 72.90625 
L 64.984375 72.90625 
L 64.984375 0 
L 51.703125 0 
L 19.390625 60.984375 
L 19.390625 0 
L 9.8125 0 
z
" id="DejaVuSans-4e"/>
     <path d="M 30.609375 48.390625 
Q 23.390625 48.390625 19.1875 42.75 
Q 14.984375 37.109375 14.984375 27.296875 
Q 14.984375 17.484375 19.15625 11.84375 
Q 23.34375 6.203125 30.609375 6.203125 
Q 37.796875 6.203125 41.984375 11.859375 
Q 46.1875 17.53125 46.1875 27.296875 
Q 46.1875 37.015625 41.984375 42.703125 
Q 37.796875 48.390625 30.609375 48.390625 
z
M 30.609375 56 
Q 42.328125 56 49.015625 48.375 
Q 55.71875 40.765625 55.71875 27.296875 
Q 55.71875 13.875 49.015625 6.21875 
Q 42.328125 -1.421875 30.609375 -1.421875 
Q 18.84375 -1.421875 12.171875 6.21875 
Q 5.515625 13.875 5.515625 27.296875 
Q 5.515625 40.765625 12.171875 48.375 
Q 18.84375 56 30.609375 56 
z
" id="DejaVuSans-6f"/>
     <path d="M 41.109375 46.296875 
Q 39.59375 47.171875 37.8125 47.578125 
Q 36.03125 48 33.890625 48 
Q 26.265625 48 22.1875 43.046875 
Q 18.109375 38.09375 18.109375 28.8125 
L 18.109375 0 
L 9.078125 0 
L 9.078125 54.6875 
L 18.109375 54.6875 
L 18.109375 46.1875 
Q 20.953125 51.171875 25.484375 53.578125 
Q 30.03125 56 36.53125 56 
Q 37.453125 56 38.578125 55.875 
Q 39.703125 55.765625 41.0625 55.515625 
z
" id="DejaVuSans-72"/>
     <path d="M 54.890625 33.015625 
L 54.890625 0 
L 45.90625 0 
L 45.90625 32.71875 
Q 45.90625 40.484375 42.875 44.328125 
Q 39.84375 48.1875 33.796875 48.1875 
Q 26.515625 48.1875 22.3125 43.546875 
Q 18.109375 38.921875 18.109375 30.90625 
L 18.109375 0 
L 9.078125 0 
L 9.078125 75.984375 
L 18.109375 75.984375 
L 18.109375 46.1875 
Q 21.34375 51.125 25.703125 53.5625 
Q 30.078125 56 35.796875 56 
Q 45.21875 56 50.046875 50.171875 
Q 54.890625 44.34375 54.890625 33.015625 
z
" id="DejaVuSans-68"/>
     <path d="M 34.28125 27.484375 
Q 23.390625 27.484375 19.1875 25 
Q 14.984375 22.515625 14.984375 16.5 
Q 14.984375 11.71875 18.140625 8.90625 
Q 21.296875 6.109375 26.703125 6.109375 
Q 34.1875 6.109375 38.703125 11.40625 
Q 43.21875 16.703125 43.21875 25.484375 
L 43.21875 27.484375 
z
M 52.203125 31.203125 
L 52.203125 0 
L 43.21875 0 
L 43.21875 8.296875 
Q 40.140625 3.328125 35.546875 0.953125 
Q 30.953125 -1.421875 24.3125 -1.421875 
Q 15.921875 -1.421875 10.953125 3.296875 
Q 6 8.015625 6 15.921875 
Q 6 25.140625 12.171875 29.828125 
Q 18.359375 34.515625 30.609375 34.515625 
L 43.21875 34.515625 
L 43.21875 35.40625 
Q 43.21875 41.609375 39.140625 45 
Q 35.0625 48.390625 27.6875 48.390625 
Q 23 48.390625 18.546875 47.265625 
Q 14.109375 46.140625 10.015625 43.890625 
L 10.015625 52.203125 
Q 14.9375 54.109375 19.578125 55.046875 
Q 24.21875 56 28.609375 56 
Q 40.484375 56 46.34375 49.84375 
Q 52.203125 43.703125 52.203125 31.203125 
z
" id="DejaVuSans-61"/>
    </defs>
    <g transform="translate(621.697188 19.44)scale(0.12 -0.12)">
     <use xlink:href="#DejaVuSans-4e"/>
     <use x="74.804688" xlink:href="#DejaVuSans-6f"/>
     <use x="135.986328" xlink:href="#DejaVuSans-72"/>
     <use x="177.099609" xlink:href="#DejaVuSans-74"/>
     <use x="216.308594" xlink:href="#DejaVuSans-68"/>
     <use x="279.6875" xlink:href="#DejaVuSans-65"/>
     <use x="341.210938" xlink:href="#DejaVuSans-61"/>
     <use x="402.490234" xlink:href="#DejaVuSans-73"/>
     <use x="454.589844" xlink:href="#DejaVuSans-74"/>
    </g>
   </g>
  </g>
  <g id="axes_3">
   <g id="patch_12">
    <path d="M 39.94 572.51 
L 433.61 572.51 
L 433.61 314.755 
L 39.94 314.755 
z
" style="fill:#ffffff;"/>
   </g>
   <g id="PolyCollection_3">
    <defs>
     <path d="M 39.94 -220.409229 
L 39.94 -75.49 
L 46.289516 -75.49 
L 52.639032 -75.49 
L 58.988548 -75.49 
L 65.338065 -75.49 
L 71.687581 -75.49 
L 78.037097 -75.49 
L 84.386613 -75.49 
L 90.736129 -75.49 
L 97.085645 -75.49 
L 103.435161 -75.49 
L 109.784677 -75.49 
L 116.134194 -75.49 
L 122.48371 -75.49 
L 128.833226 -75.49 
L 135.182742 -75.49 
L 141.532258 -75.49 
L 147.881774 -75.49 
L 154.23129 -75.49 
L 160.580806 -75.49 
L 166.930323 -75.49 
L 173.279839 -75.49 
L 179.629355 -75.49 
L 185.978871 -75.49 
L 192.328387 -75.49 
L 198.677903 -75.49 
L 205.027419 -75.49 
L 211.376935 -75.49 
L 217.726452 -75.49 
L 224.075968 -75.49 
L 230.425484 -75.49 
L 236.775 -75.49 
L 243.124516 -75.49 
L 249.474032 -75.49 
L 255.823548 -75.49 
L 262.173065 -75.49 
L 268.522581 -75.49 
L 274.872097 -75.49 
L 281.221613 -75.49 
L 287.571129 -75.49 
L 293.920645 -75.49 
L 300.270161 -75.49 
L 306.619677 -75.49 
L 312.969194 -75.49 
L 319.31871 -75.49 
L 325.668226 -75.49 
L 332.017742 -75.49 
L 338.367258 -75.49 
L 344.716774 -75.49 
L 351.06629 -75.49 
L 357.415806 -75.49 
L 363.765323 -75.49 
L 370.114839 -75.49 
L 376.464355 -75.49 
L 382.813871 -75.49 
L 389.163387 -75.49 
L 395.512903 -75.49 
L 401.862419 -75.49 
L 408.211935 -75.49 
L 414.561452 -75.49 
L 420.910968 -75.49 
L 427.260484 -75.49 
L 433.61 -75.49 
L 433.61 -169.20933 
L 433.61 -169.20933 
L 427.260484 -171.720812 
L 420.910968 -173.464374 
L 414.561452 -175.006963 
L 408.211935 -177.075219 
L 401.862419 -179.589248 
L 395.512903 -181.942735 
L 389.163387 -184.286931 
L 382.813871 -186.456844 
L 376.464355 -188.000228 
L 370.114839 -189.519909 
L 363.765323 -191.039636 
L 357.415806 -192.942898 
L 351.06629 -195.016843 
L 344.716774 -196.328023 
L 338.367258 -197.374383 
L 332.017742 -198.512731 
L 325.668226 -199.783483 
L 319.31871 -201.493792 
L 312.969194 -203.249023 
L 306.619677 -204.904614 
L 300.270161 -205.88944 
L 293.920645 -206.560044 
L 287.571129 -206.721994 
L 281.221613 -207.725456 
L 274.872097 -208.954714 
L 268.522581 -210.25578 
L 262.173065 -211.224652 
L 255.823548 -212.123351 
L 249.474032 -212.604921 
L 243.124516 -211.713988 
L 236.775 -212.660657 
L 230.425484 -214.059631 
L 224.075968 -214.845175 
L 217.726452 -215.714693 
L 211.376935 -216.566445 
L 205.027419 -216.393262 
L 198.677903 -217.069122 
L 192.328387 -218.014458 
L 185.978871 -219.368243 
L 179.629355 -220.304507 
L 173.279839 -220.482365 
L 166.930323 -220.416544 
L 160.580806 -221.821686 
L 154.23129 -221.719012 
L 147.881774 -222.241357 
L 141.532258 -223.057613 
L 135.182742 -223.706625 
L 128.833226 -223.657709 
L 122.48371 -223.586943 
L 116.134194 -223.625322 
L 109.784677 -222.460034 
L 103.435161 -222.256371 
L 97.085645 -223.363672 
L 90.736129 -224.034757 
L 84.386613 -223.049973 
L 78.037097 -222.415739 
L 71.687581 -220.618575 
L 65.338065 -218.793914 
L 58.988548 -217.749299 
L 52.639032 -218.641836 
L 46.289516 -219.748933 
L 39.94 -220.409229 
z
" id="mc845fbea6d" style="stroke:#2ca02c;"/>
    </defs>
    <g clip-path="url(#pdf01b3820f)">
     <use style="fill:#2ca02c;stroke:#2ca02c;" x="0" xlink:href="#mc845fbea6d" y="648"/>
    </g>
   </g>
   <g id="matplotlib.axis_5">
    <g id="xtick_25">
     <g id="line2d_43">
      <g>
       <use style="stroke:#000000;stroke-width:0.8;" x="39.94" xlink:href="#m273d1289b2" y="572.51"/>
      </g>
     </g>
     <g id="text_11">
      <!-- 2020-05-01 -->
      <defs>
       <path d="M 4.890625 31.390625 
L 31.203125 31.390625 
L 31.203125 23.390625 
L 4.890625 23.390625 
z
" id="DejaVuSans-2d"/>
      </defs>
      <g transform="translate(42.699375 637.625625)rotate(-90)scale(0.1 -0.1)">
       <use xlink:href="#DejaVuSans-32"/>
       <use x="63.623047" xlink:href="#DejaVuSans-30"/>
       <use x="127.246094" xlink:href="#DejaVuSans-32"/>
       <use x="190.869141" xlink:href="#DejaVuSans-30"/>
       <use x="254.492188" xlink:href="#DejaVuSans-2d"/>
       <use x="290.576172" xlink:href="#DejaVuSans-30"/>
       <use x="354.199219" xlink:href="#DejaVuSans-35"/>
       <use x="417.822266" xlink:href="#DejaVuSans-2d"/>
       <use x="453.90625" xlink:href="#DejaVuSans-30"/>
       <use x="517.529297" xlink:href="#DejaVuSans-31"/>
      </g>
     </g>
    </g>
    <g id="xtick_26">
     <g id="line2d_44">
      <g>
       <use style="stroke:#000000;stroke-width:0.8;" x="75.728182" xlink:href="#m273d1289b2" y="572.51"/>
      </g>
     </g>
     <g id="text_12">
      <!-- 2020-05-06 -->
      <g transform="translate(78.487557 637.625625)rotate(-90)scale(0.1 -0.1)">
       <use xlink:href="#DejaVuSans-32"/>
       <use x="63.623047" xlink:href="#DejaVuSans-30"/>
       <use x="127.246094" xlink:href="#DejaVuSans-32"/>
       <use x="190.869141" xlink:href="#DejaVuSans-30"/>
       <use x="254.492188" xlink:href="#DejaVuSans-2d"/>
       <use x="290.576172" xlink:href="#DejaVuSans-30"/>
       <use x="354.199219" xlink:href="#DejaVuSans-35"/>
       <use x="417.822266" xlink:href="#DejaVuSans-2d"/>
       <use x="453.90625" xlink:href="#DejaVuSans-30"/>
       <use x="517.529297" xlink:href="#DejaVuSans-36"/>
      </g>
     </g>
    </g>
    <g id="xtick_27">
     <g id="line2d_45">
      <g>
       <use style="stroke:#000000;stroke-width:0.8;" x="111.516364" xlink:href="#m273d1289b2" y="572.51"/>
      </g>
     </g>
     <g id="text_13">
      <!-- 2020-05-12 -->
      <g transform="translate(114.275739 637.625625)rotate(-90)scale(0.1 -0.1)">
       <use xlink:href="#DejaVuSans-32"/>
       <use x="63.623047" xlink:href="#DejaVuSans-30"/>
       <use x="127.246094" xlink:href="#DejaVuSans-32"/>
       <use x="190.869141" xlink:href="#DejaVuSans-30"/>
       <use x="254.492188" xlink:href="#DejaVuSans-2d"/>
       <use x="290.576172" xlink:href="#DejaVuSans-30"/>
       <use x="354.199219" xlink:href="#DejaVuSans-35"/>
       <use x="417.822266" xlink:href="#DejaVuSans-2d"/>
       <use x="453.90625" xlink:href="#DejaVuSans-31"/>
       <use x="517.529297" xlink:href="#DejaVuSans-32"/>
      </g>
     </g>
    </g>
    <g id="xtick_28">
     <g id="line2d_46">
      <g>
       <use style="stroke:#000000;stroke-width:0.8;" x="147.304545" xlink:href="#m273d1289b2" y="572.51"/>
      </g>
     </g>
     <g id="text_14">
      <!-- 2020-05-17 -->
      <g transform="translate(150.06392 637.625625)rotate(-90)scale(0.1 -0.1)">
       <use xlink:href="#DejaVuSans-32"/>
       <use x="63.623047" xlink:href="#DejaVuSans-30"/>
       <use x="127.246094" xlink:href="#DejaVuSans-32"/>
       <use x="190.869141" xlink:href="#DejaVuSans-30"/>
       <use x="254.492188" xlink:href="#DejaVuSans-2d"/>
       <use x="290.576172" xlink:href="#DejaVuSans-30"/>
       <use x="354.199219" xlink:href="#DejaVuSans-35"/>
       <use x="417.822266" xlink:href="#DejaVuSans-2d"/>
       <use x="453.90625" xlink:href="#DejaVuSans-31"/>
       <use x="517.529297" xlink:href="#DejaVuSans-37"/>
      </g>
     </g>
    </g>
    <g id="xtick_29">
     <g id="line2d_47">
      <g>
       <use style="stroke:#000000;stroke-width:0.8;" x="183.092727" xlink:href="#m273d1289b2" y="572.51"/>
      </g>
     </g>
     <g id="text_15">
      <!-- 2020-05-23 -->
      <g transform="translate(185.852102 637.625625)rotate(-90)scale(0.1 -0.1)">
       <use xlink:href="#DejaVuSans-32"/>
       <use x="63.623047" xlink:href="#DejaVuSans-30"/>
       <use x="127.246094" xlink:href="#DejaVuSans-32"/>
       <use x="190.869141" xlink:href="#DejaVuSans-30"/>
       <use x="254.492188" xlink:href="#DejaVuSans-2d"/>
       <use x="290.576172" xlink:href="#DejaVuSans-30"/>
       <use x="354.199219" xlink:href="#DejaVuSans-35"/>
       <use x="417.822266" xlink:href="#DejaVuSans-2d"/>
       <use x="453.90625" xlink:href="#DejaVuSans-32"/>
       <use x="517.529297" xlink:href="#DejaVuSans-33"/>
      </g>
     </g>
    </g>
    <g id="xtick_30">
     <g id="line2d_48">
      <g>
       <use style="stroke:#000000;stroke-width:0.8;" x="218.880909" xlink:href="#m273d1289b2" y="572.51"/>
      </g>
     </g>
     <g id="text_16">
      <!-- 2020-05-29 -->
      <defs>
       <path d="M 10.984375 1.515625 
L 10.984375 10.5 
Q 14.703125 8.734375 18.5 7.8125 
Q 22.3125 6.890625 25.984375 6.890625 
Q 35.75 6.890625 40.890625 13.453125 
Q 46.046875 20.015625 46.78125 33.40625 
Q 43.953125 29.203125 39.59375 26.953125 
Q 35.25 24.703125 29.984375 24.703125 
Q 19.046875 24.703125 12.671875 31.3125 
Q 6.296875 37.9375 6.296875 49.421875 
Q 6.296875 60.640625 12.9375 67.421875 
Q 19.578125 74.21875 30.609375 74.21875 
Q 43.265625 74.21875 49.921875 64.515625 
Q 56.59375 54.828125 56.59375 36.375 
Q 56.59375 19.140625 48.40625 8.859375 
Q 40.234375 -1.421875 26.421875 -1.421875 
Q 22.703125 -1.421875 18.890625 -0.6875 
Q 15.09375 0.046875 10.984375 1.515625 
z
M 30.609375 32.421875 
Q 37.25 32.421875 41.125 36.953125 
Q 45.015625 41.5 45.015625 49.421875 
Q 45.015625 57.28125 41.125 61.84375 
Q 37.25 66.40625 30.609375 66.40625 
Q 23.96875 66.40625 20.09375 61.84375 
Q 16.21875 57.28125 16.21875 49.421875 
Q 16.21875 41.5 20.09375 36.953125 
Q 23.96875 32.421875 30.609375 32.421875 
z
" id="DejaVuSans-39"/>
      </defs>
      <g transform="translate(221.640284 637.625625)rotate(-90)scale(0.1 -0.1)">
       <use xlink:href="#DejaVuSans-32"/>
       <use x="63.623047" xlink:href="#DejaVuSans-30"/>
       <use x="127.246094" xlink:href="#DejaVuSans-32"/>
       <use x="190.869141" xlink:href="#DejaVuSans-30"/>
       <use x="254.492188" xlink:href="#DejaVuSans-2d"/>
       <use x="290.576172" xlink:href="#DejaVuSans-30"/>
       <use x="354.199219" xlink:href="#DejaVuSans-35"/>
       <use x="417.822266" xlink:href="#DejaVuSans-2d"/>
       <use x="453.90625" xlink:href="#DejaVuSans-32"/>
       <use x="517.529297" xlink:href="#DejaVuSans-39"/>
      </g>
     </g>
    </g>
    <g id="xtick_31">
     <g id="line2d_49">
      <g>
       <use style="stroke:#000000;stroke-width:0.8;" x="254.669091" xlink:href="#m273d1289b2" y="572.51"/>
      </g>
     </g>
     <g id="text_17">
      <!-- 2020-06-03 -->
      <g transform="translate(257.428466 637.625625)rotate(-90)scale(0.1 -0.1)">
       <use xlink:href="#DejaVuSans-32"/>
       <use x="63.623047" xlink:href="#DejaVuSans-30"/>
       <use x="127.246094" xlink:href="#DejaVuSans-32"/>
       <use x="190.869141" xlink:href="#DejaVuSans-30"/>
       <use x="254.492188" xlink:href="#DejaVuSans-2d"/>
       <use x="290.576172" xlink:href="#DejaVuSans-30"/>
       <use x="354.199219" xlink:href="#DejaVuSans-36"/>
       <use x="417.822266" xlink:href="#DejaVuSans-2d"/>
       <use x="453.90625" xlink:href="#DejaVuSans-30"/>
       <use x="517.529297" xlink:href="#DejaVuSans-33"/>
      </g>
     </g>
    </g>
    <g id="xtick_32">
     <g id="line2d_50">
      <g>
       <use style="stroke:#000000;stroke-width:0.8;" x="290.457273" xlink:href="#m273d1289b2" y="572.51"/>
      </g>
     </g>
     <g id="text_18">
      <!-- 2020-06-09 -->
      <g transform="translate(293.216648 637.625625)rotate(-90)scale(0.1 -0.1)">
       <use xlink:href="#DejaVuSans-32"/>
       <use x="63.623047" xlink:href="#DejaVuSans-30"/>
       <use x="127.246094" xlink:href="#DejaVuSans-32"/>
       <use x="190.869141" xlink:href="#DejaVuSans-30"/>
       <use x="254.492188" xlink:href="#DejaVuSans-2d"/>
       <use x="290.576172" xlink:href="#DejaVuSans-30"/>
       <use x="354.199219" xlink:href="#DejaVuSans-36"/>
       <use x="417.822266" xlink:href="#DejaVuSans-2d"/>
       <use x="453.90625" xlink:href="#DejaVuSans-30"/>
       <use x="517.529297" xlink:href="#DejaVuSans-39"/>
      </g>
     </g>
    </g>
    <g id="xtick_33">
     <g id="line2d_51">
      <g>
       <use style="stroke:#000000;stroke-width:0.8;" x="326.245455" xlink:href="#m273d1289b2" y="572.51"/>
      </g>
     </g>
     <g id="text_19">
      <!-- 2020-06-15 -->
      <g transform="translate(329.00483 637.625625)rotate(-90)scale(0.1 -0.1)">
       <use xlink:href="#DejaVuSans-32"/>
       <use x="63.623047" xlink:href="#DejaVuSans-30"/>
       <use x="127.246094" xlink:href="#DejaVuSans-32"/>
       <use x="190.869141" xlink:href="#DejaVuSans-30"/>
       <use x="254.492188" xlink:href="#DejaVuSans-2d"/>
       <use x="290.576172" xlink:href="#DejaVuSans-30"/>
       <use x="354.199219" xlink:href="#DejaVuSans-36"/>
       <use x="417.822266" xlink:href="#DejaVuSans-2d"/>
       <use x="453.90625" xlink:href="#DejaVuSans-31"/>
       <use x="517.529297" xlink:href="#DejaVuSans-35"/>
      </g>
     </g>
    </g>
    <g id="xtick_34">
     <g id="line2d_52">
      <g>
       <use style="stroke:#000000;stroke-width:0.8;" x="362.033636" xlink:href="#m273d1289b2" y="572.51"/>
      </g>
     </g>
     <g id="text_20">
      <!-- 2020-06-20 -->
      <g transform="translate(364.793011 637.625625)rotate(-90)scale(0.1 -0.1)">
       <use xlink:href="#DejaVuSans-32"/>
       <use x="63.623047" xlink:href="#DejaVuSans-30"/>
       <use x="127.246094" xlink:href="#DejaVuSans-32"/>
       <use x="190.869141" xlink:href="#DejaVuSans-30"/>
       <use x="254.492188" xlink:href="#DejaVuSans-2d"/>
       <use x="290.576172" xlink:href="#DejaVuSans-30"/>
       <use x="354.199219" xlink:href="#DejaVuSans-36"/>
       <use x="417.822266" xlink:href="#DejaVuSans-2d"/>
       <use x="453.90625" xlink:href="#DejaVuSans-32"/>
       <use x="517.529297" xlink:href="#DejaVuSans-30"/>
      </g>
     </g>
    </g>
    <g id="xtick_35">
     <g id="line2d_53">
      <g>
       <use style="stroke:#000000;stroke-width:0.8;" x="397.821818" xlink:href="#m273d1289b2" y="572.51"/>
      </g>
     </g>
     <g id="text_21">
      <!-- 2020-06-26 -->
      <g transform="translate(400.581193 637.625625)rotate(-90)scale(0.1 -0.1)">
       <use xlink:href="#DejaVuSans-32"/>
       <use x="63.623047" xlink:href="#DejaVuSans-30"/>
       <use x="127.246094" xlink:href="#DejaVuSans-32"/>
       <use x="190.869141" xlink:href="#DejaVuSans-30"/>
       <use x="254.492188" xlink:href="#DejaVuSans-2d"/>
       <use x="290.576172" xlink:href="#DejaVuSans-30"/>
       <use x="354.199219" xlink:href="#DejaVuSans-36"/>
       <use x="417.822266" xlink:href="#DejaVuSans-2d"/>
       <use x="453.90625" xlink:href="#DejaVuSans-32"/>
       <use x="517.529297" xlink:href="#DejaVuSans-36"/>
      </g>
     </g>
    </g>
    <g id="xtick_36">
     <g id="line2d_54">
      <g>
       <use style="stroke:#000000;stroke-width:0.8;" x="433.61" xlink:href="#m273d1289b2" y="572.51"/>
      </g>
     </g>
     <g id="text_22">
      <!-- 2020-07-02 -->
      <g transform="translate(436.369375 637.625625)rotate(-90)scale(0.1 -0.1)">
       <use xlink:href="#DejaVuSans-32"/>
       <use x="63.623047" xlink:href="#DejaVuSans-30"/>
       <use x="127.246094" xlink:href="#DejaVuSans-32"/>
       <use x="190.869141" xlink:href="#DejaVuSans-30"/>
       <use x="254.492188" xlink:href="#DejaVuSans-2d"/>
       <use x="290.576172" xlink:href="#DejaVuSans-30"/>
       <use x="354.199219" xlink:href="#DejaVuSans-37"/>
       <use x="417.822266" xlink:href="#DejaVuSans-2d"/>
       <use x="453.90625" xlink:href="#DejaVuSans-30"/>
       <use x="517.529297" xlink:href="#DejaVuSans-32"/>
      </g>
     </g>
    </g>
   </g>
   <g id="matplotlib.axis_6">
    <g id="ytick_17">
     <g id="line2d_55">
      <g>
       <use style="stroke:#000000;stroke-width:0.8;" x="39.94" xlink:href="#mbbd1e827fc" y="572.51"/>
      </g>
     </g>
     <g id="text_23">
      <!-- 0.00 -->
      <g transform="translate(10.674375 576.309219)scale(0.1 -0.1)">
       <use xlink:href="#DejaVuSans-30"/>
       <use x="63.623047" xlink:href="#DejaVuSans-2e"/>
       <use x="95.410156" xlink:href="#DejaVuSans-30"/>
       <use x="159.033203" xlink:href="#DejaVuSans-30"/>
      </g>
     </g>
    </g>
    <g id="ytick_18">
     <g id="line2d_56">
      <g>
       <use style="stroke:#000000;stroke-width:0.8;" x="39.94" xlink:href="#mbbd1e827fc" y="537.741103"/>
      </g>
     </g>
     <g id="text_24">
      <!-- 0.01 -->
      <g transform="translate(10.674375 541.540322)scale(0.1 -0.1)">
       <use xlink:href="#DejaVuSans-30"/>
       <use x="63.623047" xlink:href="#DejaVuSans-2e"/>
       <use x="95.410156" xlink:href="#DejaVuSans-30"/>
       <use x="159.033203" xlink:href="#DejaVuSans-31"/>
      </g>
     </g>
    </g>
    <g id="ytick_19">
     <g id="line2d_57">
      <g>
       <use style="stroke:#000000;stroke-width:0.8;" x="39.94" xlink:href="#mbbd1e827fc" y="502.972206"/>
      </g>
     </g>
     <g id="text_25">
      <!-- 0.02 -->
      <g transform="translate(10.674375 506.771425)scale(0.1 -0.1)">
       <use xlink:href="#DejaVuSans-30"/>
       <use x="63.623047" xlink:href="#DejaVuSans-2e"/>
       <use x="95.410156" xlink:href="#DejaVuSans-30"/>
       <use x="159.033203" xlink:href="#DejaVuSans-32"/>
      </g>
     </g>
    </g>
    <g id="ytick_20">
     <g id="line2d_58">
      <g>
       <use style="stroke:#000000;stroke-width:0.8;" x="39.94" xlink:href="#mbbd1e827fc" y="468.203309"/>
      </g>
     </g>
     <g id="text_26">
      <!-- 0.03 -->
      <g transform="translate(10.674375 472.002528)scale(0.1 -0.1)">
       <use xlink:href="#DejaVuSans-30"/>
       <use x="63.623047" xlink:href="#DejaVuSans-2e"/>
       <use x="95.410156" xlink:href="#DejaVuSans-30"/>
       <use x="159.033203" xlink:href="#DejaVuSans-33"/>
      </g>
     </g>
    </g>
    <g id="ytick_21">
     <g id="line2d_59">
      <g>
       <use style="stroke:#000000;stroke-width:0.8;" x="39.94" xlink:href="#mbbd1e827fc" y="433.434412"/>
      </g>
     </g>
     <g id="text_27">
      <!-- 0.04 -->
      <g transform="translate(10.674375 437.233631)scale(0.1 -0.1)">
       <use xlink:href="#DejaVuSans-30"/>
       <use x="63.623047" xlink:href="#DejaVuSans-2e"/>
       <use x="95.410156" xlink:href="#DejaVuSans-30"/>
       <use x="159.033203" xlink:href="#DejaVuSans-34"/>
      </g>
     </g>
    </g>
    <g id="ytick_22">
     <g id="line2d_60">
      <g>
       <use style="stroke:#000000;stroke-width:0.8;" x="39.94" xlink:href="#mbbd1e827fc" y="398.665516"/>
      </g>
     </g>
     <g id="text_28">
      <!-- 0.05 -->
      <g transform="translate(10.674375 402.464734)scale(0.1 -0.1)">
       <use xlink:href="#DejaVuSans-30"/>
       <use x="63.623047" xlink:href="#DejaVuSans-2e"/>
       <use x="95.410156" xlink:href="#DejaVuSans-30"/>
       <use x="159.033203" xlink:href="#DejaVuSans-35"/>
      </g>
     </g>
    </g>
    <g id="ytick_23">
     <g id="line2d_61">
      <g>
       <use style="stroke:#000000;stroke-width:0.8;" x="39.94" xlink:href="#mbbd1e827fc" y="363.896619"/>
      </g>
     </g>
     <g id="text_29">
      <!-- 0.06 -->
      <g transform="translate(10.674375 367.695837)scale(0.1 -0.1)">
       <use xlink:href="#DejaVuSans-30"/>
       <use x="63.623047" xlink:href="#DejaVuSans-2e"/>
       <use x="95.410156" xlink:href="#DejaVuSans-30"/>
       <use x="159.033203" xlink:href="#DejaVuSans-36"/>
      </g>
     </g>
    </g>
    <g id="ytick_24">
     <g id="line2d_62">
      <g>
       <use style="stroke:#000000;stroke-width:0.8;" x="39.94" xlink:href="#mbbd1e827fc" y="329.127722"/>
      </g>
     </g>
     <g id="text_30">
      <!-- 0.07 -->
      <g transform="translate(10.674375 332.926941)scale(0.1 -0.1)">
       <use xlink:href="#DejaVuSans-30"/>
       <use x="63.623047" xlink:href="#DejaVuSans-2e"/>
       <use x="95.410156" xlink:href="#DejaVuSans-30"/>
       <use x="159.033203" xlink:href="#DejaVuSans-37"/>
      </g>
     </g>
    </g>
   </g>
   <g id="line2d_63">
    <path clip-path="url(#pdf01b3820f)" d="M 39.94 427.590771 
L 46.289516 428.251067 
L 52.639032 429.358164 
L 58.988548 430.250701 
L 65.338065 429.206086 
L 71.687581 427.381425 
L 78.037097 425.584261 
L 84.386613 424.950027 
L 90.736129 423.965243 
L 97.085645 424.636328 
L 103.435161 425.743629 
L 109.784677 425.539966 
L 116.134194 424.374678 
L 122.48371 424.413057 
L 128.833226 424.342291 
L 135.182742 424.293375 
L 141.532258 424.942387 
L 147.881774 425.758643 
L 154.23129 426.280988 
L 160.580806 426.178314 
L 166.930323 427.583456 
L 173.279839 427.517635 
L 179.629355 427.695493 
L 185.978871 428.631757 
L 192.328387 429.985542 
L 198.677903 430.930878 
L 205.027419 431.606738 
L 211.376935 431.433555 
L 217.726452 432.285307 
L 224.075968 433.154825 
L 230.425484 433.940369 
L 236.775 435.339343 
L 243.124516 436.286012 
L 249.474032 435.395079 
L 255.823548 435.876649 
L 262.173065 436.775348 
L 268.522581 437.74422 
L 274.872097 439.045286 
L 281.221613 440.274544 
L 287.571129 441.278006 
L 293.920645 441.439956 
L 300.270161 442.11056 
L 306.619677 443.095386 
L 312.969194 444.750977 
L 319.31871 446.506208 
L 325.668226 448.216517 
L 332.017742 449.487269 
L 338.367258 450.625617 
L 344.716774 451.671977 
L 351.06629 452.983157 
L 357.415806 455.057102 
L 363.765323 456.960364 
L 370.114839 458.480091 
L 376.464355 459.999772 
L 382.813871 461.543156 
L 389.163387 463.713069 
L 395.512903 466.057265 
L 401.862419 468.410752 
L 408.211935 470.924781 
L 414.561452 472.993037 
L 420.910968 474.535626 
L 427.260484 476.279188 
L 433.61 478.79067 
" style="fill:none;stroke:#2ca02c;stroke-linecap:square;stroke-width:1.5;"/>
   </g>
   <g id="patch_13">
    <path d="M 39.94 572.51 
L 39.94 314.755 
" style="fill:none;stroke:#000000;stroke-linecap:square;stroke-linejoin:miter;stroke-width:0.8;"/>
   </g>
   <g id="patch_14">
    <path d="M 433.61 572.51 
L 433.61 314.755 
" style="fill:none;stroke:#000000;stroke-linecap:square;stroke-linejoin:miter;stroke-width:0.8;"/>
   </g>
   <g id="patch_15">
    <path d="M 39.94 572.51 
L 433.61 572.51 
" style="fill:none;stroke:#000000;stroke-linecap:square;stroke-linejoin:miter;stroke-width:0.8;"/>
   </g>
   <g id="patch_16">
    <path d="M 39.94 314.755 
L 433.61 314.755 
" style="fill:none;stroke:#000000;stroke-linecap:square;stroke-linejoin:miter;stroke-width:0.8;"/>
   </g>
   <g id="text_31">
    <!-- South -->
    <defs>
     <path d="M 53.515625 70.515625 
L 53.515625 60.890625 
Q 47.90625 63.578125 42.921875 64.890625 
Q 37.9375 66.21875 33.296875 66.21875 
Q 25.25 66.21875 20.875 63.09375 
Q 16.5 59.96875 16.5 54.203125 
Q 16.5 49.359375 19.40625 46.890625 
Q 22.3125 44.4375 30.421875 42.921875 
L 36.375 41.703125 
Q 47.40625 39.59375 52.65625 34.296875 
Q 57.90625 29 57.90625 20.125 
Q 57.90625 9.515625 50.796875 4.046875 
Q 43.703125 -1.421875 29.984375 -1.421875 
Q 24.8125 -1.421875 18.96875 -0.25 
Q 13.140625 0.921875 6.890625 3.21875 
L 6.890625 13.375 
Q 12.890625 10.015625 18.65625 8.296875 
Q 24.421875 6.59375 29.984375 6.59375 
Q 38.421875 6.59375 43.015625 9.90625 
Q 47.609375 13.234375 47.609375 19.390625 
Q 47.609375 24.75 44.3125 27.78125 
Q 41.015625 30.8125 33.5 32.328125 
L 27.484375 33.5 
Q 16.453125 35.6875 11.515625 40.375 
Q 6.59375 45.0625 6.59375 53.421875 
Q 6.59375 63.09375 13.40625 68.65625 
Q 20.21875 74.21875 32.171875 74.21875 
Q 37.3125 74.21875 42.625 73.28125 
Q 47.953125 72.359375 53.515625 70.515625 
z
" id="DejaVuSans-53"/>
     <path d="M 8.5 21.578125 
L 8.5 54.6875 
L 17.484375 54.6875 
L 17.484375 21.921875 
Q 17.484375 14.15625 20.5 10.265625 
Q 23.53125 6.390625 29.59375 6.390625 
Q 36.859375 6.390625 41.078125 11.03125 
Q 45.3125 15.671875 45.3125 23.6875 
L 45.3125 54.6875 
L 54.296875 54.6875 
L 54.296875 0 
L 45.3125 0 
L 45.3125 8.40625 
Q 42.046875 3.421875 37.71875 1 
Q 33.40625 -1.421875 27.6875 -1.421875 
Q 18.265625 -1.421875 13.375 4.4375 
Q 8.5 10.296875 8.5 21.578125 
z
M 31.109375 56 
z
" id="DejaVuSans-75"/>
    </defs>
    <g transform="translate(219.3375 308.755)scale(0.12 -0.12)">
     <use xlink:href="#DejaVuSans-53"/>
     <use x="63.476562" xlink:href="#DejaVuSans-6f"/>
     <use x="124.658203" xlink:href="#DejaVuSans-75"/>
     <use x="188.037109" xlink:href="#DejaVuSans-74"/>
     <use x="227.246094" xlink:href="#DejaVuSans-68"/>
    </g>
   </g>
  </g>
  <g id="axes_4">
   <g id="patch_17">
    <path d="M 454.49 572.51 
L 848.16 572.51 
L 848.16 314.755 
L 454.49 314.755 
z
" style="fill:#ffffff;"/>
   </g>
   <g id="PolyCollection_4">
    <defs>
     <path d="M 454.49 -224.36641 
L 454.49 -75.49 
L 460.839516 -75.49 
L 467.189032 -75.49 
L 473.538548 -75.49 
L 479.888065 -75.49 
L 486.237581 -75.49 
L 492.587097 -75.49 
L 498.936613 -75.49 
L 505.286129 -75.49 
L 511.635645 -75.49 
L 517.985161 -75.49 
L 524.334677 -75.49 
L 530.684194 -75.49 
L 537.03371 -75.49 
L 543.383226 -75.49 
L 549.732742 -75.49 
L 556.082258 -75.49 
L 562.431774 -75.49 
L 568.78129 -75.49 
L 575.130806 -75.49 
L 581.480323 -75.49 
L 587.829839 -75.49 
L 594.179355 -75.49 
L 600.528871 -75.49 
L 606.878387 -75.49 
L 613.227903 -75.49 
L 619.577419 -75.49 
L 625.926935 -75.49 
L 632.276452 -75.49 
L 638.625968 -75.49 
L 644.975484 -75.49 
L 651.325 -75.49 
L 657.674516 -75.49 
L 664.024032 -75.49 
L 670.373548 -75.49 
L 676.723065 -75.49 
L 683.072581 -75.49 
L 689.422097 -75.49 
L 695.771613 -75.49 
L 702.121129 -75.49 
L 708.470645 -75.49 
L 714.820161 -75.49 
L 721.169677 -75.49 
L 727.519194 -75.49 
L 733.86871 -75.49 
L 740.218226 -75.49 
L 746.567742 -75.49 
L 752.917258 -75.49 
L 759.266774 -75.49 
L 765.61629 -75.49 
L 771.965806 -75.49 
L 778.315323 -75.49 
L 784.664839 -75.49 
L 791.014355 -75.49 
L 797.363871 -75.49 
L 803.713387 -75.49 
L 810.062903 -75.49 
L 816.412419 -75.49 
L 822.761935 -75.49 
L 829.111452 -75.49 
L 835.460968 -75.49 
L 841.810484 -75.49 
L 848.16 -75.49 
L 848.16 -169.019903 
L 848.16 -169.019903 
L 841.810484 -171.231887 
L 835.460968 -173.347078 
L 829.111452 -174.931391 
L 822.761935 -177.10961 
L 816.412419 -179.494078 
L 810.062903 -181.436904 
L 803.713387 -183.09198 
L 797.363871 -184.560945 
L 791.014355 -186.751571 
L 784.664839 -188.980889 
L 778.315323 -191.271215 
L 771.965806 -193.433654 
L 765.61629 -195.784788 
L 759.266774 -197.617557 
L 752.917258 -198.983764 
L 746.567742 -200.529313 
L 740.218226 -201.41535 
L 733.86871 -203.426237 
L 727.519194 -205.392571 
L 721.169677 -206.680154 
L 714.820161 -207.254778 
L 708.470645 -207.639821 
L 702.121129 -208.512738 
L 695.771613 -210.050627 
L 689.422097 -211.72799 
L 683.072581 -213.505751 
L 676.723065 -215.58259 
L 670.373548 -216.454744 
L 664.024032 -217.05133 
L 657.674516 -218.389848 
L 651.325 -219.357985 
L 644.975484 -221.548468 
L 638.625968 -223.53139 
L 632.276452 -224.084671 
L 625.926935 -224.292681 
L 619.577419 -224.186856 
L 613.227903 -225.334224 
L 606.878387 -226.82179 
L 600.528871 -227.974803 
L 594.179355 -229.043512 
L 587.829839 -211.105844 
L 581.480323 -229.452965 
L 575.130806 -228.544975 
L 568.78129 -228.121809 
L 562.431774 -228.810639 
L 556.082258 -229.714513 
L 549.732742 -229.194256 
L 543.383226 -228.593326 
L 537.03371 -227.672046 
L 530.684194 -226.259676 
L 524.334677 -225.110883 
L 517.985161 -225.654748 
L 511.635645 -226.26906 
L 505.286129 -227.004837 
L 498.936613 -226.163017 
L 492.587097 -225.575582 
L 486.237581 -225.1639 
L 479.888065 -225.033032 
L 473.538548 -225.037238 
L 467.189032 -225.33411 
L 460.839516 -224.497256 
L 454.49 -224.36641 
z
" id="m532ecdf158" style="stroke:#d62728;"/>
    </defs>
    <g clip-path="url(#p171f2e8e2e)">
     <use style="fill:#d62728;stroke:#d62728;" x="0" xlink:href="#m532ecdf158" y="648"/>
    </g>
   </g>
   <g id="matplotlib.axis_7">
    <g id="xtick_37">
     <g id="line2d_64">
      <g>
       <use style="stroke:#000000;stroke-width:0.8;" x="454.49" xlink:href="#m273d1289b2" y="572.51"/>
      </g>
     </g>
     <g id="text_32">
      <!-- 2020-05-01 -->
      <g transform="translate(457.249375 637.625625)rotate(-90)scale(0.1 -0.1)">
       <use xlink:href="#DejaVuSans-32"/>
       <use x="63.623047" xlink:href="#DejaVuSans-30"/>
       <use x="127.246094" xlink:href="#DejaVuSans-32"/>
       <use x="190.869141" xlink:href="#DejaVuSans-30"/>
       <use x="254.492188" xlink:href="#DejaVuSans-2d"/>
       <use x="290.576172" xlink:href="#DejaVuSans-30"/>
       <use x="354.199219" xlink:href="#DejaVuSans-35"/>
       <use x="417.822266" xlink:href="#DejaVuSans-2d"/>
       <use x="453.90625" xlink:href="#DejaVuSans-30"/>
       <use x="517.529297" xlink:href="#DejaVuSans-31"/>
      </g>
     </g>
    </g>
    <g id="xtick_38">
     <g id="line2d_65">
      <g>
       <use style="stroke:#000000;stroke-width:0.8;" x="490.278182" xlink:href="#m273d1289b2" y="572.51"/>
      </g>
     </g>
     <g id="text_33">
      <!-- 2020-05-06 -->
      <g transform="translate(493.037557 637.625625)rotate(-90)scale(0.1 -0.1)">
       <use xlink:href="#DejaVuSans-32"/>
       <use x="63.623047" xlink:href="#DejaVuSans-30"/>
       <use x="127.246094" xlink:href="#DejaVuSans-32"/>
       <use x="190.869141" xlink:href="#DejaVuSans-30"/>
       <use x="254.492188" xlink:href="#DejaVuSans-2d"/>
       <use x="290.576172" xlink:href="#DejaVuSans-30"/>
       <use x="354.199219" xlink:href="#DejaVuSans-35"/>
       <use x="417.822266" xlink:href="#DejaVuSans-2d"/>
       <use x="453.90625" xlink:href="#DejaVuSans-30"/>
       <use x="517.529297" xlink:href="#DejaVuSans-36"/>
      </g>
     </g>
    </g>
    <g id="xtick_39">
     <g id="line2d_66">
      <g>
       <use style="stroke:#000000;stroke-width:0.8;" x="526.066364" xlink:href="#m273d1289b2" y="572.51"/>
      </g>
     </g>
     <g id="text_34">
      <!-- 2020-05-12 -->
      <g transform="translate(528.825739 637.625625)rotate(-90)scale(0.1 -0.1)">
       <use xlink:href="#DejaVuSans-32"/>
       <use x="63.623047" xlink:href="#DejaVuSans-30"/>
       <use x="127.246094" xlink:href="#DejaVuSans-32"/>
       <use x="190.869141" xlink:href="#DejaVuSans-30"/>
       <use x="254.492188" xlink:href="#DejaVuSans-2d"/>
       <use x="290.576172" xlink:href="#DejaVuSans-30"/>
       <use x="354.199219" xlink:href="#DejaVuSans-35"/>
       <use x="417.822266" xlink:href="#DejaVuSans-2d"/>
       <use x="453.90625" xlink:href="#DejaVuSans-31"/>
       <use x="517.529297" xlink:href="#DejaVuSans-32"/>
      </g>
     </g>
    </g>
    <g id="xtick_40">
     <g id="line2d_67">
      <g>
       <use style="stroke:#000000;stroke-width:0.8;" x="561.854545" xlink:href="#m273d1289b2" y="572.51"/>
      </g>
     </g>
     <g id="text_35">
      <!-- 2020-05-17 -->
      <g transform="translate(564.61392 637.625625)rotate(-90)scale(0.1 -0.1)">
       <use xlink:href="#DejaVuSans-32"/>
       <use x="63.623047" xlink:href="#DejaVuSans-30"/>
       <use x="127.246094" xlink:href="#DejaVuSans-32"/>
       <use x="190.869141" xlink:href="#DejaVuSans-30"/>
       <use x="254.492188" xlink:href="#DejaVuSans-2d"/>
       <use x="290.576172" xlink:href="#DejaVuSans-30"/>
       <use x="354.199219" xlink:href="#DejaVuSans-35"/>
       <use x="417.822266" xlink:href="#DejaVuSans-2d"/>
       <use x="453.90625" xlink:href="#DejaVuSans-31"/>
       <use x="517.529297" xlink:href="#DejaVuSans-37"/>
      </g>
     </g>
    </g>
    <g id="xtick_41">
     <g id="line2d_68">
      <g>
       <use style="stroke:#000000;stroke-width:0.8;" x="597.642727" xlink:href="#m273d1289b2" y="572.51"/>
      </g>
     </g>
     <g id="text_36">
      <!-- 2020-05-23 -->
      <g transform="translate(600.402102 637.625625)rotate(-90)scale(0.1 -0.1)">
       <use xlink:href="#DejaVuSans-32"/>
       <use x="63.623047" xlink:href="#DejaVuSans-30"/>
       <use x="127.246094" xlink:href="#DejaVuSans-32"/>
       <use x="190.869141" xlink:href="#DejaVuSans-30"/>
       <use x="254.492188" xlink:href="#DejaVuSans-2d"/>
       <use x="290.576172" xlink:href="#DejaVuSans-30"/>
       <use x="354.199219" xlink:href="#DejaVuSans-35"/>
       <use x="417.822266" xlink:href="#DejaVuSans-2d"/>
       <use x="453.90625" xlink:href="#DejaVuSans-32"/>
       <use x="517.529297" xlink:href="#DejaVuSans-33"/>
      </g>
     </g>
    </g>
    <g id="xtick_42">
     <g id="line2d_69">
      <g>
       <use style="stroke:#000000;stroke-width:0.8;" x="633.430909" xlink:href="#m273d1289b2" y="572.51"/>
      </g>
     </g>
     <g id="text_37">
      <!-- 2020-05-29 -->
      <g transform="translate(636.190284 637.625625)rotate(-90)scale(0.1 -0.1)">
       <use xlink:href="#DejaVuSans-32"/>
       <use x="63.623047" xlink:href="#DejaVuSans-30"/>
       <use x="127.246094" xlink:href="#DejaVuSans-32"/>
       <use x="190.869141" xlink:href="#DejaVuSans-30"/>
       <use x="254.492188" xlink:href="#DejaVuSans-2d"/>
       <use x="290.576172" xlink:href="#DejaVuSans-30"/>
       <use x="354.199219" xlink:href="#DejaVuSans-35"/>
       <use x="417.822266" xlink:href="#DejaVuSans-2d"/>
       <use x="453.90625" xlink:href="#DejaVuSans-32"/>
       <use x="517.529297" xlink:href="#DejaVuSans-39"/>
      </g>
     </g>
    </g>
    <g id="xtick_43">
     <g id="line2d_70">
      <g>
       <use style="stroke:#000000;stroke-width:0.8;" x="669.219091" xlink:href="#m273d1289b2" y="572.51"/>
      </g>
     </g>
     <g id="text_38">
      <!-- 2020-06-03 -->
      <g transform="translate(671.978466 637.625625)rotate(-90)scale(0.1 -0.1)">
       <use xlink:href="#DejaVuSans-32"/>
       <use x="63.623047" xlink:href="#DejaVuSans-30"/>
       <use x="127.246094" xlink:href="#DejaVuSans-32"/>
       <use x="190.869141" xlink:href="#DejaVuSans-30"/>
       <use x="254.492188" xlink:href="#DejaVuSans-2d"/>
       <use x="290.576172" xlink:href="#DejaVuSans-30"/>
       <use x="354.199219" xlink:href="#DejaVuSans-36"/>
       <use x="417.822266" xlink:href="#DejaVuSans-2d"/>
       <use x="453.90625" xlink:href="#DejaVuSans-30"/>
       <use x="517.529297" xlink:href="#DejaVuSans-33"/>
      </g>
     </g>
    </g>
    <g id="xtick_44">
     <g id="line2d_71">
      <g>
       <use style="stroke:#000000;stroke-width:0.8;" x="705.007273" xlink:href="#m273d1289b2" y="572.51"/>
      </g>
     </g>
     <g id="text_39">
      <!-- 2020-06-09 -->
      <g transform="translate(707.766648 637.625625)rotate(-90)scale(0.1 -0.1)">
       <use xlink:href="#DejaVuSans-32"/>
       <use x="63.623047" xlink:href="#DejaVuSans-30"/>
       <use x="127.246094" xlink:href="#DejaVuSans-32"/>
       <use x="190.869141" xlink:href="#DejaVuSans-30"/>
       <use x="254.492188" xlink:href="#DejaVuSans-2d"/>
       <use x="290.576172" xlink:href="#DejaVuSans-30"/>
       <use x="354.199219" xlink:href="#DejaVuSans-36"/>
       <use x="417.822266" xlink:href="#DejaVuSans-2d"/>
       <use x="453.90625" xlink:href="#DejaVuSans-30"/>
       <use x="517.529297" xlink:href="#DejaVuSans-39"/>
      </g>
     </g>
    </g>
    <g id="xtick_45">
     <g id="line2d_72">
      <g>
       <use style="stroke:#000000;stroke-width:0.8;" x="740.795455" xlink:href="#m273d1289b2" y="572.51"/>
      </g>
     </g>
     <g id="text_40">
      <!-- 2020-06-15 -->
      <g transform="translate(743.55483 637.625625)rotate(-90)scale(0.1 -0.1)">
       <use xlink:href="#DejaVuSans-32"/>
       <use x="63.623047" xlink:href="#DejaVuSans-30"/>
       <use x="127.246094" xlink:href="#DejaVuSans-32"/>
       <use x="190.869141" xlink:href="#DejaVuSans-30"/>
       <use x="254.492188" xlink:href="#DejaVuSans-2d"/>
       <use x="290.576172" xlink:href="#DejaVuSans-30"/>
       <use x="354.199219" xlink:href="#DejaVuSans-36"/>
       <use x="417.822266" xlink:href="#DejaVuSans-2d"/>
       <use x="453.90625" xlink:href="#DejaVuSans-31"/>
       <use x="517.529297" xlink:href="#DejaVuSans-35"/>
      </g>
     </g>
    </g>
    <g id="xtick_46">
     <g id="line2d_73">
      <g>
       <use style="stroke:#000000;stroke-width:0.8;" x="776.583636" xlink:href="#m273d1289b2" y="572.51"/>
      </g>
     </g>
     <g id="text_41">
      <!-- 2020-06-20 -->
      <g transform="translate(779.343011 637.625625)rotate(-90)scale(0.1 -0.1)">
       <use xlink:href="#DejaVuSans-32"/>
       <use x="63.623047" xlink:href="#DejaVuSans-30"/>
       <use x="127.246094" xlink:href="#DejaVuSans-32"/>
       <use x="190.869141" xlink:href="#DejaVuSans-30"/>
       <use x="254.492188" xlink:href="#DejaVuSans-2d"/>
       <use x="290.576172" xlink:href="#DejaVuSans-30"/>
       <use x="354.199219" xlink:href="#DejaVuSans-36"/>
       <use x="417.822266" xlink:href="#DejaVuSans-2d"/>
       <use x="453.90625" xlink:href="#DejaVuSans-32"/>
       <use x="517.529297" xlink:href="#DejaVuSans-30"/>
      </g>
     </g>
    </g>
    <g id="xtick_47">
     <g id="line2d_74">
      <g>
       <use style="stroke:#000000;stroke-width:0.8;" x="812.371818" xlink:href="#m273d1289b2" y="572.51"/>
      </g>
     </g>
     <g id="text_42">
      <!-- 2020-06-26 -->
      <g transform="translate(815.131193 637.625625)rotate(-90)scale(0.1 -0.1)">
       <use xlink:href="#DejaVuSans-32"/>
       <use x="63.623047" xlink:href="#DejaVuSans-30"/>
       <use x="127.246094" xlink:href="#DejaVuSans-32"/>
       <use x="190.869141" xlink:href="#DejaVuSans-30"/>
       <use x="254.492188" xlink:href="#DejaVuSans-2d"/>
       <use x="290.576172" xlink:href="#DejaVuSans-30"/>
       <use x="354.199219" xlink:href="#DejaVuSans-36"/>
       <use x="417.822266" xlink:href="#DejaVuSans-2d"/>
       <use x="453.90625" xlink:href="#DejaVuSans-32"/>
       <use x="517.529297" xlink:href="#DejaVuSans-36"/>
      </g>
     </g>
    </g>
    <g id="xtick_48">
     <g id="line2d_75">
      <g>
       <use style="stroke:#000000;stroke-width:0.8;" x="848.16" xlink:href="#m273d1289b2" y="572.51"/>
      </g>
     </g>
     <g id="text_43">
      <!-- 2020-07-02 -->
      <g transform="translate(850.919375 637.625625)rotate(-90)scale(0.1 -0.1)">
       <use xlink:href="#DejaVuSans-32"/>
       <use x="63.623047" xlink:href="#DejaVuSans-30"/>
       <use x="127.246094" xlink:href="#DejaVuSans-32"/>
       <use x="190.869141" xlink:href="#DejaVuSans-30"/>
       <use x="254.492188" xlink:href="#DejaVuSans-2d"/>
       <use x="290.576172" xlink:href="#DejaVuSans-30"/>
       <use x="354.199219" xlink:href="#DejaVuSans-37"/>
       <use x="417.822266" xlink:href="#DejaVuSans-2d"/>
       <use x="453.90625" xlink:href="#DejaVuSans-30"/>
       <use x="517.529297" xlink:href="#DejaVuSans-32"/>
      </g>
     </g>
    </g>
   </g>
   <g id="matplotlib.axis_8">
    <g id="ytick_25">
     <g id="line2d_76">
      <g>
       <use style="stroke:#000000;stroke-width:0.8;" x="454.49" xlink:href="#mbbd1e827fc" y="572.51"/>
      </g>
     </g>
    </g>
    <g id="ytick_26">
     <g id="line2d_77">
      <g>
       <use style="stroke:#000000;stroke-width:0.8;" x="454.49" xlink:href="#mbbd1e827fc" y="537.741103"/>
      </g>
     </g>
    </g>
    <g id="ytick_27">
     <g id="line2d_78">
      <g>
       <use style="stroke:#000000;stroke-width:0.8;" x="454.49" xlink:href="#mbbd1e827fc" y="502.972206"/>
      </g>
     </g>
    </g>
    <g id="ytick_28">
     <g id="line2d_79">
      <g>
       <use style="stroke:#000000;stroke-width:0.8;" x="454.49" xlink:href="#mbbd1e827fc" y="468.203309"/>
      </g>
     </g>
    </g>
    <g id="ytick_29">
     <g id="line2d_80">
      <g>
       <use style="stroke:#000000;stroke-width:0.8;" x="454.49" xlink:href="#mbbd1e827fc" y="433.434412"/>
      </g>
     </g>
    </g>
    <g id="ytick_30">
     <g id="line2d_81">
      <g>
       <use style="stroke:#000000;stroke-width:0.8;" x="454.49" xlink:href="#mbbd1e827fc" y="398.665516"/>
      </g>
     </g>
    </g>
    <g id="ytick_31">
     <g id="line2d_82">
      <g>
       <use style="stroke:#000000;stroke-width:0.8;" x="454.49" xlink:href="#mbbd1e827fc" y="363.896619"/>
      </g>
     </g>
    </g>
    <g id="ytick_32">
     <g id="line2d_83">
      <g>
       <use style="stroke:#000000;stroke-width:0.8;" x="454.49" xlink:href="#mbbd1e827fc" y="329.127722"/>
      </g>
     </g>
    </g>
   </g>
   <g id="line2d_84">
    <path clip-path="url(#p171f2e8e2e)" d="M 454.49 423.63359 
L 460.839516 423.502744 
L 467.189032 422.66589 
L 473.538548 422.962762 
L 479.888065 422.966968 
L 486.237581 422.8361 
L 492.587097 422.424418 
L 498.936613 421.836983 
L 505.286129 420.995163 
L 511.635645 421.73094 
L 517.985161 422.345252 
L 524.334677 422.889117 
L 530.684194 421.740324 
L 537.03371 420.327954 
L 543.383226 419.406674 
L 549.732742 418.805744 
L 556.082258 418.285487 
L 562.431774 419.189361 
L 568.78129 419.878191 
L 575.130806 419.455025 
L 581.480323 418.547035 
L 587.829839 436.894156 
L 594.179355 418.956488 
L 600.528871 420.025197 
L 606.878387 421.17821 
L 613.227903 422.665776 
L 619.577419 423.813144 
L 625.926935 423.707319 
L 632.276452 423.915329 
L 638.625968 424.46861 
L 644.975484 426.451532 
L 651.325 428.642015 
L 657.674516 429.610152 
L 664.024032 430.94867 
L 670.373548 431.545256 
L 676.723065 432.41741 
L 683.072581 434.494249 
L 689.422097 436.27201 
L 695.771613 437.949373 
L 702.121129 439.487262 
L 708.470645 440.360179 
L 714.820161 440.745222 
L 721.169677 441.319846 
L 727.519194 442.607429 
L 733.86871 444.573763 
L 740.218226 446.58465 
L 746.567742 447.470687 
L 752.917258 449.016236 
L 759.266774 450.382443 
L 765.61629 452.215212 
L 771.965806 454.566346 
L 778.315323 456.728785 
L 784.664839 459.019111 
L 791.014355 461.248429 
L 797.363871 463.439055 
L 803.713387 464.90802 
L 810.062903 466.563096 
L 816.412419 468.505922 
L 822.761935 470.89039 
L 829.111452 473.068609 
L 835.460968 474.652922 
L 841.810484 476.768113 
L 848.16 478.980097 
" style="fill:none;stroke:#d62728;stroke-linecap:square;stroke-width:1.5;"/>
   </g>
   <g id="patch_18">
    <path d="M 454.49 572.51 
L 454.49 314.755 
" style="fill:none;stroke:#000000;stroke-linecap:square;stroke-linejoin:miter;stroke-width:0.8;"/>
   </g>
   <g id="patch_19">
    <path d="M 848.16 572.51 
L 848.16 314.755 
" style="fill:none;stroke:#000000;stroke-linecap:square;stroke-linejoin:miter;stroke-width:0.8;"/>
   </g>
   <g id="patch_20">
    <path d="M 454.49 572.51 
L 848.16 572.51 
" style="fill:none;stroke:#000000;stroke-linecap:square;stroke-linejoin:miter;stroke-width:0.8;"/>
   </g>
   <g id="patch_21">
    <path d="M 454.49 314.755 
L 848.16 314.755 
" style="fill:none;stroke:#000000;stroke-linecap:square;stroke-linejoin:miter;stroke-width:0.8;"/>
   </g>
   <g id="text_44">
    <!-- West -->
    <defs>
     <path d="M 3.328125 72.90625 
L 13.28125 72.90625 
L 28.609375 11.28125 
L 43.890625 72.90625 
L 54.984375 72.90625 
L 70.3125 11.28125 
L 85.59375 72.90625 
L 95.609375 72.90625 
L 77.296875 0 
L 64.890625 0 
L 49.515625 63.28125 
L 33.984375 0 
L 21.578125 0 
z
" id="DejaVuSans-57"/>
    </defs>
    <g transform="translate(636.2275 308.755)scale(0.12 -0.12)">
     <use xlink:href="#DejaVuSans-57"/>
     <use x="98.798828" xlink:href="#DejaVuSans-65"/>
     <use x="160.322266" xlink:href="#DejaVuSans-73"/>
     <use x="212.421875" xlink:href="#DejaVuSans-74"/>
    </g>
   </g>
  </g>
 </g>
 <defs>
  <clipPath id="pf534e03129">
   <rect height="257.755" width="393.67" x="39.94" y="25.44"/>
  </clipPath>
  <clipPath id="p944ffefcf6">
   <rect height="257.755" width="393.67" x="454.49" y="25.44"/>
  </clipPath>
  <clipPath id="pdf01b3820f">
   <rect height="257.755" width="393.67" x="39.94" y="314.755"/>
  </clipPath>
  <clipPath id="p171f2e8e2e">
   <rect height="257.755" width="393.67" x="454.49" y="314.755"/>
  </clipPath>
 </defs>
</svg>
