<?xml version="1.0" encoding="utf-8" standalone="no"?>
<!DOCTYPE svg PUBLIC "-//W3C//DTD SVG 1.1//EN"
  "http://www.w3.org/Graphics/SVG/1.1/DTD/svg11.dtd">
<!-- Created with matplotlib (http://matplotlib.org/) -->
<svg height="648pt" version="1.1" viewBox="0 0 864 648" width="864pt" xmlns="http://www.w3.org/2000/svg" xmlns:xlink="http://www.w3.org/1999/xlink">
 <defs>
  <style type="text/css">
*{stroke-linecap:butt;stroke-linejoin:round;}
  </style>
 </defs>
 <g id="figure_1">
  <g id="patch_1">
   <path d="M 0 648 
L 864 648 
L 864 0 
L 0 0 
z
" style="fill:#ffffff;"/>
  </g>
  <g id="axes_1">
   <g id="patch_2">
    <path d="M 55.69 283.195 
L 441.485 283.195 
L 441.485 25.44 
L 55.69 25.44 
z
" style="fill:#ffffff;"/>
   </g>
   <g id="PolyCollection_1">
    <defs>
     <path d="M 55.69 -411.569843 
L 55.69 -364.805 
L 61.9125 -364.805 
L 68.135 -364.805 
L 74.3575 -364.805 
L 80.58 -364.805 
L 86.8025 -364.805 
L 93.025 -364.805 
L 99.2475 -364.805 
L 105.47 -364.805 
L 111.6925 -364.805 
L 117.915 -364.805 
L 124.1375 -364.805 
L 130.36 -364.805 
L 136.5825 -364.805 
L 142.805 -364.805 
L 149.0275 -364.805 
L 155.25 -364.805 
L 161.4725 -364.805 
L 167.695 -364.805 
L 173.9175 -364.805 
L 180.14 -364.805 
L 186.3625 -364.805 
L 192.585 -364.805 
L 198.8075 -364.805 
L 205.03 -364.805 
L 211.2525 -364.805 
L 217.475 -364.805 
L 223.6975 -364.805 
L 229.92 -364.805 
L 236.1425 -364.805 
L 242.365 -364.805 
L 248.5875 -364.805 
L 254.81 -364.805 
L 261.0325 -364.805 
L 267.255 -364.805 
L 273.4775 -364.805 
L 279.7 -364.805 
L 285.9225 -364.805 
L 292.145 -364.805 
L 298.3675 -364.805 
L 304.59 -364.805 
L 310.8125 -364.805 
L 317.035 -364.805 
L 323.2575 -364.805 
L 329.48 -364.805 
L 335.7025 -364.805 
L 341.925 -364.805 
L 348.1475 -364.805 
L 354.37 -364.805 
L 360.5925 -364.805 
L 366.815 -364.805 
L 373.0375 -364.805 
L 379.26 -364.805 
L 385.4825 -364.805 
L 391.705 -364.805 
L 397.9275 -364.805 
L 404.15 -364.805 
L 410.3725 -364.805 
L 416.595 -364.805 
L 422.8175 -364.805 
L 429.04 -364.805 
L 435.2625 -364.805 
L 441.485 -364.805 
L 441.485 -495.701442 
L 441.485 -495.701442 
L 435.2625 -494.154969 
L 429.04 -492.806115 
L 422.8175 -491.728203 
L 416.595 -490.32682 
L 410.3725 -489.142765 
L 404.15 -487.694078 
L 397.9275 -486.400528 
L 391.705 -485.216899 
L 385.4825 -484.333886 
L 379.26 -483.416502 
L 373.0375 -482.57392 
L 366.815 -481.486454 
L 360.5925 -480.462942 
L 354.37 -479.467973 
L 348.1475 -478.577239 
L 341.925 -477.769563 
L 335.7025 -476.965427 
L 329.48 -476.189572 
L 323.2575 -475.36274 
L 317.035 -474.26684 
L 310.8125 -473.235358 
L 304.59 -472.400375 
L 298.3675 -471.778059 
L 292.145 -470.824898 
L 285.9225 -469.947887 
L 279.7 -468.912159 
L 273.4775 -466.524963 
L 267.255 -465.130419 
L 261.0325 -464.044035 
L 254.81 -463.014728 
L 248.5875 -462.07141 
L 242.365 -460.775406 
L 236.1425 -459.4981 
L 229.92 -457.706225 
L 223.6975 -456.65239 
L 217.475 -455.444343 
L 211.2525 -454.281267 
L 205.03 -453.019638 
L 198.8075 -451.580846 
L 192.585 -449.93859 
L 186.3625 -447.871488 
L 180.14 -446.278847 
L 173.9175 -444.549885 
L 167.695 -443.201465 
L 161.4725 -441.690107 
L 155.25 -440.299433 
L 149.0275 -438.378767 
L 142.805 -436.688318 
L 136.5825 -434.732319 
L 130.36 -433.291418 
L 124.1375 -431.276206 
L 117.915 -429.506699 
L 111.6925 -428.149992 
L 105.47 -426.574946 
L 99.2475 -424.69413 
L 93.025 -422.546628 
L 86.8025 -420.78908 
L 80.58 -419.106682 
L 74.3575 -417.361757 
L 68.135 -415.65943 
L 61.9125 -413.611085 
L 55.69 -411.569843 
z
" id="m6feb5b4827" style="stroke:#1f77b4;"/>
    </defs>
    <g clip-path="url(#p43b08e9b80)">
     <use style="fill:#1f77b4;stroke:#1f77b4;" x="0" xlink:href="#m6feb5b4827" y="648"/>
    </g>
   </g>
   <g id="matplotlib.axis_1">
    <g id="xtick_1">
     <g id="line2d_1">
      <defs>
       <path d="M 0 0 
L 0 3.5 
" id="m46e1ed2849" style="stroke:#000000;stroke-width:0.8;"/>
      </defs>
      <g>
       <use style="stroke:#000000;stroke-width:0.8;" x="55.69" xlink:href="#m46e1ed2849" y="283.195"/>
      </g>
     </g>
    </g>
    <g id="xtick_2">
     <g id="line2d_2">
      <g>
       <use style="stroke:#000000;stroke-width:0.8;" x="90.762273" xlink:href="#m46e1ed2849" y="283.195"/>
      </g>
     </g>
    </g>
    <g id="xtick_3">
     <g id="line2d_3">
      <g>
       <use style="stroke:#000000;stroke-width:0.8;" x="125.834545" xlink:href="#m46e1ed2849" y="283.195"/>
      </g>
     </g>
    </g>
    <g id="xtick_4">
     <g id="line2d_4">
      <g>
       <use style="stroke:#000000;stroke-width:0.8;" x="160.906818" xlink:href="#m46e1ed2849" y="283.195"/>
      </g>
     </g>
    </g>
    <g id="xtick_5">
     <g id="line2d_5">
      <g>
       <use style="stroke:#000000;stroke-width:0.8;" x="195.979091" xlink:href="#m46e1ed2849" y="283.195"/>
      </g>
     </g>
    </g>
    <g id="xtick_6">
     <g id="line2d_6">
      <g>
       <use style="stroke:#000000;stroke-width:0.8;" x="231.051364" xlink:href="#m46e1ed2849" y="283.195"/>
      </g>
     </g>
    </g>
    <g id="xtick_7">
     <g id="line2d_7">
      <g>
       <use style="stroke:#000000;stroke-width:0.8;" x="266.123636" xlink:href="#m46e1ed2849" y="283.195"/>
      </g>
     </g>
    </g>
    <g id="xtick_8">
     <g id="line2d_8">
      <g>
       <use style="stroke:#000000;stroke-width:0.8;" x="301.195909" xlink:href="#m46e1ed2849" y="283.195"/>
      </g>
     </g>
    </g>
    <g id="xtick_9">
     <g id="line2d_9">
      <g>
       <use style="stroke:#000000;stroke-width:0.8;" x="336.268182" xlink:href="#m46e1ed2849" y="283.195"/>
      </g>
     </g>
    </g>
    <g id="xtick_10">
     <g id="line2d_10">
      <g>
       <use style="stroke:#000000;stroke-width:0.8;" x="371.340455" xlink:href="#m46e1ed2849" y="283.195"/>
      </g>
     </g>
    </g>
    <g id="xtick_11">
     <g id="line2d_11">
      <g>
       <use style="stroke:#000000;stroke-width:0.8;" x="406.412727" xlink:href="#m46e1ed2849" y="283.195"/>
      </g>
     </g>
    </g>
    <g id="xtick_12">
     <g id="line2d_12">
      <g>
       <use style="stroke:#000000;stroke-width:0.8;" x="441.485" xlink:href="#m46e1ed2849" y="283.195"/>
      </g>
     </g>
    </g>
   </g>
   <g id="matplotlib.axis_2">
    <g id="ytick_1">
     <g id="line2d_13">
      <defs>
       <path d="M 0 0 
L -3.5 0 
" id="made4a82c76" style="stroke:#000000;stroke-width:0.8;"/>
      </defs>
      <g>
       <use style="stroke:#000000;stroke-width:0.8;" x="55.69" xlink:href="#made4a82c76" y="283.195"/>
      </g>
     </g>
     <g id="text_1">
      <!-- 0 -->
      <defs>
       <path d="M 31.78125 66.40625 
Q 24.171875 66.40625 20.328125 58.90625 
Q 16.5 51.421875 16.5 36.375 
Q 16.5 21.390625 20.328125 13.890625 
Q 24.171875 6.390625 31.78125 6.390625 
Q 39.453125 6.390625 43.28125 13.890625 
Q 47.125 21.390625 47.125 36.375 
Q 47.125 51.421875 43.28125 58.90625 
Q 39.453125 66.40625 31.78125 66.40625 
z
M 31.78125 74.21875 
Q 44.046875 74.21875 50.515625 64.515625 
Q 56.984375 54.828125 56.984375 36.375 
Q 56.984375 17.96875 50.515625 8.265625 
Q 44.046875 -1.421875 31.78125 -1.421875 
Q 19.53125 -1.421875 13.0625 8.265625 
Q 6.59375 17.96875 6.59375 36.375 
Q 6.59375 54.828125 13.0625 64.515625 
Q 19.53125 74.21875 31.78125 74.21875 
z
" id="DejaVuSans-30"/>
      </defs>
      <g transform="translate(42.3275 286.994219)scale(0.1 -0.1)">
       <use xlink:href="#DejaVuSans-30"/>
      </g>
     </g>
    </g>
    <g id="ytick_2">
     <g id="line2d_14">
      <g>
       <use style="stroke:#000000;stroke-width:0.8;" x="55.69" xlink:href="#made4a82c76" y="228.444994"/>
      </g>
     </g>
     <g id="text_2">
      <!-- 200000 -->
      <defs>
       <path d="M 19.1875 8.296875 
L 53.609375 8.296875 
L 53.609375 0 
L 7.328125 0 
L 7.328125 8.296875 
Q 12.9375 14.109375 22.625 23.890625 
Q 32.328125 33.6875 34.8125 36.53125 
Q 39.546875 41.84375 41.421875 45.53125 
Q 43.3125 49.21875 43.3125 52.78125 
Q 43.3125 58.59375 39.234375 62.25 
Q 35.15625 65.921875 28.609375 65.921875 
Q 23.96875 65.921875 18.8125 64.3125 
Q 13.671875 62.703125 7.8125 59.421875 
L 7.8125 69.390625 
Q 13.765625 71.78125 18.9375 73 
Q 24.125 74.21875 28.421875 74.21875 
Q 39.75 74.21875 46.484375 68.546875 
Q 53.21875 62.890625 53.21875 53.421875 
Q 53.21875 48.921875 51.53125 44.890625 
Q 49.859375 40.875 45.40625 35.40625 
Q 44.1875 33.984375 37.640625 27.21875 
Q 31.109375 20.453125 19.1875 8.296875 
z
" id="DejaVuSans-32"/>
      </defs>
      <g transform="translate(10.515 232.244213)scale(0.1 -0.1)">
       <use xlink:href="#DejaVuSans-32"/>
       <use x="63.623047" xlink:href="#DejaVuSans-30"/>
       <use x="127.246094" xlink:href="#DejaVuSans-30"/>
       <use x="190.869141" xlink:href="#DejaVuSans-30"/>
       <use x="254.492188" xlink:href="#DejaVuSans-30"/>
       <use x="318.115234" xlink:href="#DejaVuSans-30"/>
      </g>
     </g>
    </g>
    <g id="ytick_3">
     <g id="line2d_15">
      <g>
       <use style="stroke:#000000;stroke-width:0.8;" x="55.69" xlink:href="#made4a82c76" y="173.694988"/>
      </g>
     </g>
     <g id="text_3">
      <!-- 400000 -->
      <defs>
       <path d="M 37.796875 64.3125 
L 12.890625 25.390625 
L 37.796875 25.390625 
z
M 35.203125 72.90625 
L 47.609375 72.90625 
L 47.609375 25.390625 
L 58.015625 25.390625 
L 58.015625 17.1875 
L 47.609375 17.1875 
L 47.609375 0 
L 37.796875 0 
L 37.796875 17.1875 
L 4.890625 17.1875 
L 4.890625 26.703125 
z
" id="DejaVuSans-34"/>
      </defs>
      <g transform="translate(10.515 177.494207)scale(0.1 -0.1)">
       <use xlink:href="#DejaVuSans-34"/>
       <use x="63.623047" xlink:href="#DejaVuSans-30"/>
       <use x="127.246094" xlink:href="#DejaVuSans-30"/>
       <use x="190.869141" xlink:href="#DejaVuSans-30"/>
       <use x="254.492188" xlink:href="#DejaVuSans-30"/>
       <use x="318.115234" xlink:href="#DejaVuSans-30"/>
      </g>
     </g>
    </g>
    <g id="ytick_4">
     <g id="line2d_16">
      <g>
       <use style="stroke:#000000;stroke-width:0.8;" x="55.69" xlink:href="#made4a82c76" y="118.944982"/>
      </g>
     </g>
     <g id="text_4">
      <!-- 600000 -->
      <defs>
       <path d="M 33.015625 40.375 
Q 26.375 40.375 22.484375 35.828125 
Q 18.609375 31.296875 18.609375 23.390625 
Q 18.609375 15.53125 22.484375 10.953125 
Q 26.375 6.390625 33.015625 6.390625 
Q 39.65625 6.390625 43.53125 10.953125 
Q 47.40625 15.53125 47.40625 23.390625 
Q 47.40625 31.296875 43.53125 35.828125 
Q 39.65625 40.375 33.015625 40.375 
z
M 52.59375 71.296875 
L 52.59375 62.3125 
Q 48.875 64.0625 45.09375 64.984375 
Q 41.3125 65.921875 37.59375 65.921875 
Q 27.828125 65.921875 22.671875 59.328125 
Q 17.53125 52.734375 16.796875 39.40625 
Q 19.671875 43.65625 24.015625 45.921875 
Q 28.375 48.1875 33.59375 48.1875 
Q 44.578125 48.1875 50.953125 41.515625 
Q 57.328125 34.859375 57.328125 23.390625 
Q 57.328125 12.15625 50.6875 5.359375 
Q 44.046875 -1.421875 33.015625 -1.421875 
Q 20.359375 -1.421875 13.671875 8.265625 
Q 6.984375 17.96875 6.984375 36.375 
Q 6.984375 53.65625 15.1875 63.9375 
Q 23.390625 74.21875 37.203125 74.21875 
Q 40.921875 74.21875 44.703125 73.484375 
Q 48.484375 72.75 52.59375 71.296875 
z
" id="DejaVuSans-36"/>
      </defs>
      <g transform="translate(10.515 122.744201)scale(0.1 -0.1)">
       <use xlink:href="#DejaVuSans-36"/>
       <use x="63.623047" xlink:href="#DejaVuSans-30"/>
       <use x="127.246094" xlink:href="#DejaVuSans-30"/>
       <use x="190.869141" xlink:href="#DejaVuSans-30"/>
       <use x="254.492188" xlink:href="#DejaVuSans-30"/>
       <use x="318.115234" xlink:href="#DejaVuSans-30"/>
      </g>
     </g>
    </g>
    <g id="ytick_5">
     <g id="line2d_17">
      <g>
       <use style="stroke:#000000;stroke-width:0.8;" x="55.69" xlink:href="#made4a82c76" y="64.194976"/>
      </g>
     </g>
     <g id="text_5">
      <!-- 800000 -->
      <defs>
       <path d="M 31.78125 34.625 
Q 24.75 34.625 20.71875 30.859375 
Q 16.703125 27.09375 16.703125 20.515625 
Q 16.703125 13.921875 20.71875 10.15625 
Q 24.75 6.390625 31.78125 6.390625 
Q 38.8125 6.390625 42.859375 10.171875 
Q 46.921875 13.96875 46.921875 20.515625 
Q 46.921875 27.09375 42.890625 30.859375 
Q 38.875 34.625 31.78125 34.625 
z
M 21.921875 38.8125 
Q 15.578125 40.375 12.03125 44.71875 
Q 8.5 49.078125 8.5 55.328125 
Q 8.5 64.0625 14.71875 69.140625 
Q 20.953125 74.21875 31.78125 74.21875 
Q 42.671875 74.21875 48.875 69.140625 
Q 55.078125 64.0625 55.078125 55.328125 
Q 55.078125 49.078125 51.53125 44.71875 
Q 48 40.375 41.703125 38.8125 
Q 48.828125 37.15625 52.796875 32.3125 
Q 56.78125 27.484375 56.78125 20.515625 
Q 56.78125 9.90625 50.3125 4.234375 
Q 43.84375 -1.421875 31.78125 -1.421875 
Q 19.734375 -1.421875 13.25 4.234375 
Q 6.78125 9.90625 6.78125 20.515625 
Q 6.78125 27.484375 10.78125 32.3125 
Q 14.796875 37.15625 21.921875 38.8125 
z
M 18.3125 54.390625 
Q 18.3125 48.734375 21.84375 45.5625 
Q 25.390625 42.390625 31.78125 42.390625 
Q 38.140625 42.390625 41.71875 45.5625 
Q 45.3125 48.734375 45.3125 54.390625 
Q 45.3125 60.0625 41.71875 63.234375 
Q 38.140625 66.40625 31.78125 66.40625 
Q 25.390625 66.40625 21.84375 63.234375 
Q 18.3125 60.0625 18.3125 54.390625 
z
" id="DejaVuSans-38"/>
      </defs>
      <g transform="translate(10.515 67.994195)scale(0.1 -0.1)">
       <use xlink:href="#DejaVuSans-38"/>
       <use x="63.623047" xlink:href="#DejaVuSans-30"/>
       <use x="127.246094" xlink:href="#DejaVuSans-30"/>
       <use x="190.869141" xlink:href="#DejaVuSans-30"/>
       <use x="254.492188" xlink:href="#DejaVuSans-30"/>
       <use x="318.115234" xlink:href="#DejaVuSans-30"/>
      </g>
     </g>
    </g>
   </g>
   <g id="line2d_18">
    <path clip-path="url(#p43b08e9b80)" d="M 55.69 236.430157 
L 61.9125 234.388915 
L 68.135 232.34057 
L 74.3575 230.638243 
L 80.58 228.893318 
L 86.8025 227.21092 
L 93.025 225.453372 
L 99.2475 223.30587 
L 105.47 221.425054 
L 111.6925 219.850008 
L 117.915 218.493301 
L 124.1375 216.723794 
L 130.36 214.708582 
L 136.5825 213.267681 
L 142.805 211.311682 
L 149.0275 209.621233 
L 155.25 207.700567 
L 161.4725 206.309893 
L 167.695 204.798535 
L 173.9175 203.450115 
L 180.14 201.721153 
L 186.3625 200.128512 
L 192.585 198.06141 
L 198.8075 196.419154 
L 205.03 194.980362 
L 211.2525 193.718733 
L 217.475 192.555657 
L 223.6975 191.34761 
L 229.92 190.293775 
L 236.1425 188.5019 
L 242.365 187.224594 
L 248.5875 185.92859 
L 254.81 184.985272 
L 261.0325 183.955965 
L 267.255 182.869581 
L 273.4775 181.475037 
L 279.7 179.087841 
L 285.9225 178.052113 
L 292.145 177.175102 
L 298.3675 176.221941 
L 304.59 175.599625 
L 310.8125 174.764642 
L 317.035 173.73316 
L 323.2575 172.63726 
L 329.48 171.810428 
L 335.7025 171.034573 
L 341.925 170.230437 
L 348.1475 169.422761 
L 354.37 168.532027 
L 360.5925 167.537058 
L 366.815 166.513546 
L 373.0375 165.42608 
L 379.26 164.583498 
L 385.4825 163.666114 
L 391.705 162.783101 
L 397.9275 161.599472 
L 404.15 160.305922 
L 410.3725 158.857235 
L 416.595 157.67318 
L 422.8175 156.271797 
L 429.04 155.193885 
L 435.2625 153.845031 
L 441.485 152.298558 
" style="fill:none;stroke:#1f77b4;stroke-linecap:square;stroke-width:1.5;"/>
   </g>
   <g id="patch_3">
    <path d="M 55.69 283.195 
L 55.69 25.44 
" style="fill:none;stroke:#000000;stroke-linecap:square;stroke-linejoin:miter;stroke-width:0.8;"/>
   </g>
   <g id="patch_4">
    <path d="M 441.485 283.195 
L 441.485 25.44 
" style="fill:none;stroke:#000000;stroke-linecap:square;stroke-linejoin:miter;stroke-width:0.8;"/>
   </g>
   <g id="patch_5">
    <path d="M 55.69 283.195 
L 441.485 283.195 
" style="fill:none;stroke:#000000;stroke-linecap:square;stroke-linejoin:miter;stroke-width:0.8;"/>
   </g>
   <g id="patch_6">
    <path d="M 55.69 25.44 
L 441.485 25.44 
" style="fill:none;stroke:#000000;stroke-linecap:square;stroke-linejoin:miter;stroke-width:0.8;"/>
   </g>
   <g id="text_6">
    <!-- Midwest -->
    <defs>
     <path d="M 9.8125 72.90625 
L 24.515625 72.90625 
L 43.109375 23.296875 
L 61.8125 72.90625 
L 76.515625 72.90625 
L 76.515625 0 
L 66.890625 0 
L 66.890625 64.015625 
L 48.09375 14.015625 
L 38.1875 14.015625 
L 19.390625 64.015625 
L 19.390625 0 
L 9.8125 0 
z
" id="DejaVuSans-4d"/>
     <path d="M 9.421875 54.6875 
L 18.40625 54.6875 
L 18.40625 0 
L 9.421875 0 
z
M 9.421875 75.984375 
L 18.40625 75.984375 
L 18.40625 64.59375 
L 9.421875 64.59375 
z
" id="DejaVuSans-69"/>
     <path d="M 45.40625 46.390625 
L 45.40625 75.984375 
L 54.390625 75.984375 
L 54.390625 0 
L 45.40625 0 
L 45.40625 8.203125 
Q 42.578125 3.328125 38.25 0.953125 
Q 33.9375 -1.421875 27.875 -1.421875 
Q 17.96875 -1.421875 11.734375 6.484375 
Q 5.515625 14.40625 5.515625 27.296875 
Q 5.515625 40.1875 11.734375 48.09375 
Q 17.96875 56 27.875 56 
Q 33.9375 56 38.25 53.625 
Q 42.578125 51.265625 45.40625 46.390625 
z
M 14.796875 27.296875 
Q 14.796875 17.390625 18.875 11.75 
Q 22.953125 6.109375 30.078125 6.109375 
Q 37.203125 6.109375 41.296875 11.75 
Q 45.40625 17.390625 45.40625 27.296875 
Q 45.40625 37.203125 41.296875 42.84375 
Q 37.203125 48.484375 30.078125 48.484375 
Q 22.953125 48.484375 18.875 42.84375 
Q 14.796875 37.203125 14.796875 27.296875 
z
" id="DejaVuSans-64"/>
     <path d="M 4.203125 54.6875 
L 13.1875 54.6875 
L 24.421875 12.015625 
L 35.59375 54.6875 
L 46.1875 54.6875 
L 57.421875 12.015625 
L 68.609375 54.6875 
L 77.59375 54.6875 
L 63.28125 0 
L 52.6875 0 
L 40.921875 44.828125 
L 29.109375 0 
L 18.5 0 
z
" id="DejaVuSans-77"/>
     <path d="M 56.203125 29.59375 
L 56.203125 25.203125 
L 14.890625 25.203125 
Q 15.484375 15.921875 20.484375 11.0625 
Q 25.484375 6.203125 34.421875 6.203125 
Q 39.59375 6.203125 44.453125 7.46875 
Q 49.3125 8.734375 54.109375 11.28125 
L 54.109375 2.78125 
Q 49.265625 0.734375 44.1875 -0.34375 
Q 39.109375 -1.421875 33.890625 -1.421875 
Q 20.796875 -1.421875 13.15625 6.1875 
Q 5.515625 13.8125 5.515625 26.8125 
Q 5.515625 40.234375 12.765625 48.109375 
Q 20.015625 56 32.328125 56 
Q 43.359375 56 49.78125 48.890625 
Q 56.203125 41.796875 56.203125 29.59375 
z
M 47.21875 32.234375 
Q 47.125 39.59375 43.09375 43.984375 
Q 39.0625 48.390625 32.421875 48.390625 
Q 24.90625 48.390625 20.390625 44.140625 
Q 15.875 39.890625 15.1875 32.171875 
z
" id="DejaVuSans-65"/>
     <path d="M 44.28125 53.078125 
L 44.28125 44.578125 
Q 40.484375 46.53125 36.375 47.5 
Q 32.28125 48.484375 27.875 48.484375 
Q 21.1875 48.484375 17.84375 46.4375 
Q 14.5 44.390625 14.5 40.28125 
Q 14.5 37.15625 16.890625 35.375 
Q 19.28125 33.59375 26.515625 31.984375 
L 29.59375 31.296875 
Q 39.15625 29.25 43.1875 25.515625 
Q 47.21875 21.78125 47.21875 15.09375 
Q 47.21875 7.46875 41.1875 3.015625 
Q 35.15625 -1.421875 24.609375 -1.421875 
Q 20.21875 -1.421875 15.453125 -0.5625 
Q 10.6875 0.296875 5.421875 2 
L 5.421875 11.28125 
Q 10.40625 8.6875 15.234375 7.390625 
Q 20.0625 6.109375 24.8125 6.109375 
Q 31.15625 6.109375 34.5625 8.28125 
Q 37.984375 10.453125 37.984375 14.40625 
Q 37.984375 18.0625 35.515625 20.015625 
Q 33.0625 21.96875 24.703125 23.78125 
L 21.578125 24.515625 
Q 13.234375 26.265625 9.515625 29.90625 
Q 5.8125 33.546875 5.8125 39.890625 
Q 5.8125 47.609375 11.28125 51.796875 
Q 16.75 56 26.8125 56 
Q 31.78125 56 36.171875 55.265625 
Q 40.578125 54.546875 44.28125 53.078125 
z
" id="DejaVuSans-73"/>
     <path d="M 18.3125 70.21875 
L 18.3125 54.6875 
L 36.8125 54.6875 
L 36.8125 47.703125 
L 18.3125 47.703125 
L 18.3125 18.015625 
Q 18.3125 11.328125 20.140625 9.421875 
Q 21.96875 7.515625 27.59375 7.515625 
L 36.8125 7.515625 
L 36.8125 0 
L 27.59375 0 
Q 17.1875 0 13.234375 3.875 
Q 9.28125 7.765625 9.28125 18.015625 
L 9.28125 47.703125 
L 2.6875 47.703125 
L 2.6875 54.6875 
L 9.28125 54.6875 
L 9.28125 70.21875 
z
" id="DejaVuSans-74"/>
    </defs>
    <g transform="translate(223.858125 19.44)scale(0.12 -0.12)">
     <use xlink:href="#DejaVuSans-4d"/>
     <use x="86.279297" xlink:href="#DejaVuSans-69"/>
     <use x="114.0625" xlink:href="#DejaVuSans-64"/>
     <use x="177.539062" xlink:href="#DejaVuSans-77"/>
     <use x="259.326172" xlink:href="#DejaVuSans-65"/>
     <use x="320.849609" xlink:href="#DejaVuSans-73"/>
     <use x="372.949219" xlink:href="#DejaVuSans-74"/>
    </g>
   </g>
  </g>
  <g id="axes_2">
   <g id="patch_7">
    <path d="M 462.365 283.195 
L 848.16 283.195 
L 848.16 25.44 
L 462.365 25.44 
z
" style="fill:#ffffff;"/>
   </g>
   <g id="PolyCollection_2">
    <defs>
     <path d="M 462.365 -522.336993 
L 462.365 -364.805 
L 468.5875 -364.805 
L 474.81 -364.805 
L 481.0325 -364.805 
L 487.255 -364.805 
L 493.4775 -364.805 
L 499.7 -364.805 
L 505.9225 -364.805 
L 512.145 -364.805 
L 518.3675 -364.805 
L 524.59 -364.805 
L 530.8125 -364.805 
L 537.035 -364.805 
L 543.2575 -364.805 
L 549.48 -364.805 
L 555.7025 -364.805 
L 561.925 -364.805 
L 568.1475 -364.805 
L 574.37 -364.805 
L 580.5925 -364.805 
L 586.815 -364.805 
L 593.0375 -364.805 
L 599.26 -364.805 
L 605.4825 -364.805 
L 611.705 -364.805 
L 617.9275 -364.805 
L 624.15 -364.805 
L 630.3725 -364.805 
L 636.595 -364.805 
L 642.8175 -364.805 
L 649.04 -364.805 
L 655.2625 -364.805 
L 661.485 -364.805 
L 667.7075 -364.805 
L 673.93 -364.805 
L 680.1525 -364.805 
L 686.375 -364.805 
L 692.5975 -364.805 
L 698.82 -364.805 
L 705.0425 -364.805 
L 711.265 -364.805 
L 717.4875 -364.805 
L 723.71 -364.805 
L 729.9325 -364.805 
L 736.155 -364.805 
L 742.3775 -364.805 
L 748.6 -364.805 
L 754.8225 -364.805 
L 761.045 -364.805 
L 767.2675 -364.805 
L 773.49 -364.805 
L 779.7125 -364.805 
L 785.935 -364.805 
L 792.1575 -364.805 
L 798.38 -364.805 
L 804.6025 -364.805 
L 810.825 -364.805 
L 817.0475 -364.805 
L 823.27 -364.805 
L 829.4925 -364.805 
L 835.715 -364.805 
L 841.9375 -364.805 
L 848.16 -364.805 
L 848.16 -593.133537 
L 848.16 -593.133537 
L 841.9375 -592.62616 
L 835.715 -592.277319 
L 829.4925 -592.061877 
L 823.27 -591.662455 
L 817.0475 -591.250309 
L 810.825 -590.50794 
L 804.6025 -589.880456 
L 798.38 -589.550994 
L 792.1575 -589.120105 
L 785.935 -588.640992 
L 779.7125 -588.233172 
L 773.49 -587.416825 
L 767.2675 -586.50242 
L 761.045 -585.96067 
L 754.8225 -585.450705 
L 748.6 -584.983445 
L 742.3775 -584.573793 
L 736.155 -583.996458 
L 729.9325 -583.331639 
L 723.71 -582.588844 
L 717.4875 -582.001385 
L 711.265 -581.542403 
L 705.0425 -581.134551 
L 698.82 -580.528794 
L 692.5975 -579.806513 
L 686.375 -579.299787 
L 680.1525 -578.478204 
L 673.93 -577.655913 
L 667.7075 -576.999813 
L 661.485 -575.98378 
L 655.2625 -574.200611 
L 649.04 -573.31108 
L 642.8175 -572.173845 
L 636.595 -570.751923 
L 630.3725 -569.782283 
L 624.15 -568.816416 
L 617.9275 -567.973638 
L 611.705 -566.947192 
L 605.4825 -565.664687 
L 599.26 -564.221213 
L 593.0375 -562.826442 
L 586.815 -561.429014 
L 580.5925 -559.891584 
L 574.37 -558.453456 
L 568.1475 -557.11443 
L 561.925 -555.580916 
L 555.7025 -553.510005 
L 549.48 -551.559179 
L 543.2575 -549.547776 
L 537.035 -548.024097 
L 530.8125 -546.619922 
L 524.59 -545.352249 
L 518.3675 -543.75557 
L 512.145 -541.752395 
L 505.9225 -539.446933 
L 499.7 -536.729094 
L 493.4775 -534.712884 
L 487.255 -532.670134 
L 481.0325 -530.356143 
L 474.81 -528.311726 
L 468.5875 -525.542395 
L 462.365 -522.336993 
z
" id="m302c389957" style="stroke:#ff7f0e;"/>
    </defs>
    <g clip-path="url(#p822653ff6b)">
     <use style="fill:#ff7f0e;stroke:#ff7f0e;" x="0" xlink:href="#m302c389957" y="648"/>
    </g>
   </g>
   <g id="matplotlib.axis_3">
    <g id="xtick_13">
     <g id="line2d_19">
      <g>
       <use style="stroke:#000000;stroke-width:0.8;" x="462.365" xlink:href="#m46e1ed2849" y="283.195"/>
      </g>
     </g>
    </g>
    <g id="xtick_14">
     <g id="line2d_20">
      <g>
       <use style="stroke:#000000;stroke-width:0.8;" x="497.437273" xlink:href="#m46e1ed2849" y="283.195"/>
      </g>
     </g>
    </g>
    <g id="xtick_15">
     <g id="line2d_21">
      <g>
       <use style="stroke:#000000;stroke-width:0.8;" x="532.509545" xlink:href="#m46e1ed2849" y="283.195"/>
      </g>
     </g>
    </g>
    <g id="xtick_16">
     <g id="line2d_22">
      <g>
       <use style="stroke:#000000;stroke-width:0.8;" x="567.581818" xlink:href="#m46e1ed2849" y="283.195"/>
      </g>
     </g>
    </g>
    <g id="xtick_17">
     <g id="line2d_23">
      <g>
       <use style="stroke:#000000;stroke-width:0.8;" x="602.654091" xlink:href="#m46e1ed2849" y="283.195"/>
      </g>
     </g>
    </g>
    <g id="xtick_18">
     <g id="line2d_24">
      <g>
       <use style="stroke:#000000;stroke-width:0.8;" x="637.726364" xlink:href="#m46e1ed2849" y="283.195"/>
      </g>
     </g>
    </g>
    <g id="xtick_19">
     <g id="line2d_25">
      <g>
       <use style="stroke:#000000;stroke-width:0.8;" x="672.798636" xlink:href="#m46e1ed2849" y="283.195"/>
      </g>
     </g>
    </g>
    <g id="xtick_20">
     <g id="line2d_26">
      <g>
       <use style="stroke:#000000;stroke-width:0.8;" x="707.870909" xlink:href="#m46e1ed2849" y="283.195"/>
      </g>
     </g>
    </g>
    <g id="xtick_21">
     <g id="line2d_27">
      <g>
       <use style="stroke:#000000;stroke-width:0.8;" x="742.943182" xlink:href="#m46e1ed2849" y="283.195"/>
      </g>
     </g>
    </g>
    <g id="xtick_22">
     <g id="line2d_28">
      <g>
       <use style="stroke:#000000;stroke-width:0.8;" x="778.015455" xlink:href="#m46e1ed2849" y="283.195"/>
      </g>
     </g>
    </g>
    <g id="xtick_23">
     <g id="line2d_29">
      <g>
       <use style="stroke:#000000;stroke-width:0.8;" x="813.087727" xlink:href="#m46e1ed2849" y="283.195"/>
      </g>
     </g>
    </g>
    <g id="xtick_24">
     <g id="line2d_30">
      <g>
       <use style="stroke:#000000;stroke-width:0.8;" x="848.16" xlink:href="#m46e1ed2849" y="283.195"/>
      </g>
     </g>
    </g>
   </g>
   <g id="matplotlib.axis_4">
    <g id="ytick_6">
     <g id="line2d_31">
      <g>
       <use style="stroke:#000000;stroke-width:0.8;" x="462.365" xlink:href="#made4a82c76" y="283.195"/>
      </g>
     </g>
    </g>
    <g id="ytick_7">
     <g id="line2d_32">
      <g>
       <use style="stroke:#000000;stroke-width:0.8;" x="462.365" xlink:href="#made4a82c76" y="228.444994"/>
      </g>
     </g>
    </g>
    <g id="ytick_8">
     <g id="line2d_33">
      <g>
       <use style="stroke:#000000;stroke-width:0.8;" x="462.365" xlink:href="#made4a82c76" y="173.694988"/>
      </g>
     </g>
    </g>
    <g id="ytick_9">
     <g id="line2d_34">
      <g>
       <use style="stroke:#000000;stroke-width:0.8;" x="462.365" xlink:href="#made4a82c76" y="118.944982"/>
      </g>
     </g>
    </g>
    <g id="ytick_10">
     <g id="line2d_35">
      <g>
       <use style="stroke:#000000;stroke-width:0.8;" x="462.365" xlink:href="#made4a82c76" y="64.194976"/>
      </g>
     </g>
    </g>
   </g>
   <g id="line2d_36">
    <path clip-path="url(#p822653ff6b)" d="M 462.365 125.663007 
L 468.5875 122.457605 
L 474.81 119.688274 
L 481.0325 117.643857 
L 487.255 115.329866 
L 493.4775 113.287116 
L 499.7 111.270906 
L 505.9225 108.553067 
L 512.145 106.247605 
L 518.3675 104.24443 
L 524.59 102.647751 
L 530.8125 101.380078 
L 537.035 99.975903 
L 543.2575 98.452224 
L 549.48 96.440821 
L 555.7025 94.489995 
L 561.925 92.419084 
L 568.1475 90.88557 
L 574.37 89.546544 
L 580.5925 88.108416 
L 586.815 86.570986 
L 593.0375 85.173558 
L 599.26 83.778787 
L 605.4825 82.335313 
L 611.705 81.052808 
L 617.9275 80.026362 
L 624.15 79.183584 
L 630.3725 78.217717 
L 636.595 77.248077 
L 642.8175 75.826155 
L 649.04 74.68892 
L 655.2625 73.799389 
L 661.485 72.01622 
L 667.7075 71.000187 
L 673.93 70.344087 
L 680.1525 69.521796 
L 686.375 68.700213 
L 692.5975 68.193487 
L 698.82 67.471206 
L 705.0425 66.865449 
L 711.265 66.457597 
L 717.4875 65.998615 
L 723.71 65.411156 
L 729.9325 64.668361 
L 736.155 64.003542 
L 742.3775 63.426207 
L 748.6 63.016555 
L 754.8225 62.549295 
L 761.045 62.03933 
L 767.2675 61.49758 
L 773.49 60.583175 
L 779.7125 59.766828 
L 785.935 59.359008 
L 792.1575 58.879895 
L 798.38 58.449006 
L 804.6025 58.119544 
L 810.825 57.49206 
L 817.0475 56.749691 
L 823.27 56.337545 
L 829.4925 55.938123 
L 835.715 55.722681 
L 841.9375 55.37384 
L 848.16 54.866463 
" style="fill:none;stroke:#ff7f0e;stroke-linecap:square;stroke-width:1.5;"/>
   </g>
   <g id="patch_8">
    <path d="M 462.365 283.195 
L 462.365 25.44 
" style="fill:none;stroke:#000000;stroke-linecap:square;stroke-linejoin:miter;stroke-width:0.8;"/>
   </g>
   <g id="patch_9">
    <path d="M 848.16 283.195 
L 848.16 25.44 
" style="fill:none;stroke:#000000;stroke-linecap:square;stroke-linejoin:miter;stroke-width:0.8;"/>
   </g>
   <g id="patch_10">
    <path d="M 462.365 283.195 
L 848.16 283.195 
" style="fill:none;stroke:#000000;stroke-linecap:square;stroke-linejoin:miter;stroke-width:0.8;"/>
   </g>
   <g id="patch_11">
    <path d="M 462.365 25.44 
L 848.16 25.44 
" style="fill:none;stroke:#000000;stroke-linecap:square;stroke-linejoin:miter;stroke-width:0.8;"/>
   </g>
   <g id="text_7">
    <!-- Northeast -->
    <defs>
     <path d="M 9.8125 72.90625 
L 23.09375 72.90625 
L 55.421875 11.921875 
L 55.421875 72.90625 
L 64.984375 72.90625 
L 64.984375 0 
L 51.703125 0 
L 19.390625 60.984375 
L 19.390625 0 
L 9.8125 0 
z
" id="DejaVuSans-4e"/>
     <path d="M 30.609375 48.390625 
Q 23.390625 48.390625 19.1875 42.75 
Q 14.984375 37.109375 14.984375 27.296875 
Q 14.984375 17.484375 19.15625 11.84375 
Q 23.34375 6.203125 30.609375 6.203125 
Q 37.796875 6.203125 41.984375 11.859375 
Q 46.1875 17.53125 46.1875 27.296875 
Q 46.1875 37.015625 41.984375 42.703125 
Q 37.796875 48.390625 30.609375 48.390625 
z
M 30.609375 56 
Q 42.328125 56 49.015625 48.375 
Q 55.71875 40.765625 55.71875 27.296875 
Q 55.71875 13.875 49.015625 6.21875 
Q 42.328125 -1.421875 30.609375 -1.421875 
Q 18.84375 -1.421875 12.171875 6.21875 
Q 5.515625 13.875 5.515625 27.296875 
Q 5.515625 40.765625 12.171875 48.375 
Q 18.84375 56 30.609375 56 
z
" id="DejaVuSans-6f"/>
     <path d="M 41.109375 46.296875 
Q 39.59375 47.171875 37.8125 47.578125 
Q 36.03125 48 33.890625 48 
Q 26.265625 48 22.1875 43.046875 
Q 18.109375 38.09375 18.109375 28.8125 
L 18.109375 0 
L 9.078125 0 
L 9.078125 54.6875 
L 18.109375 54.6875 
L 18.109375 46.1875 
Q 20.953125 51.171875 25.484375 53.578125 
Q 30.03125 56 36.53125 56 
Q 37.453125 56 38.578125 55.875 
Q 39.703125 55.765625 41.0625 55.515625 
z
" id="DejaVuSans-72"/>
     <path d="M 54.890625 33.015625 
L 54.890625 0 
L 45.90625 0 
L 45.90625 32.71875 
Q 45.90625 40.484375 42.875 44.328125 
Q 39.84375 48.1875 33.796875 48.1875 
Q 26.515625 48.1875 22.3125 43.546875 
Q 18.109375 38.921875 18.109375 30.90625 
L 18.109375 0 
L 9.078125 0 
L 9.078125 75.984375 
L 18.109375 75.984375 
L 18.109375 46.1875 
Q 21.34375 51.125 25.703125 53.5625 
Q 30.078125 56 35.796875 56 
Q 45.21875 56 50.046875 50.171875 
Q 54.890625 44.34375 54.890625 33.015625 
z
" id="DejaVuSans-68"/>
     <path d="M 34.28125 27.484375 
Q 23.390625 27.484375 19.1875 25 
Q 14.984375 22.515625 14.984375 16.5 
Q 14.984375 11.71875 18.140625 8.90625 
Q 21.296875 6.109375 26.703125 6.109375 
Q 34.1875 6.109375 38.703125 11.40625 
Q 43.21875 16.703125 43.21875 25.484375 
L 43.21875 27.484375 
z
M 52.203125 31.203125 
L 52.203125 0 
L 43.21875 0 
L 43.21875 8.296875 
Q 40.140625 3.328125 35.546875 0.953125 
Q 30.953125 -1.421875 24.3125 -1.421875 
Q 15.921875 -1.421875 10.953125 3.296875 
Q 6 8.015625 6 15.921875 
Q 6 25.140625 12.171875 29.828125 
Q 18.359375 34.515625 30.609375 34.515625 
L 43.21875 34.515625 
L 43.21875 35.40625 
Q 43.21875 41.609375 39.140625 45 
Q 35.0625 48.390625 27.6875 48.390625 
Q 23 48.390625 18.546875 47.265625 
Q 14.109375 46.140625 10.015625 43.890625 
L 10.015625 52.203125 
Q 14.9375 54.109375 19.578125 55.046875 
Q 24.21875 56 28.609375 56 
Q 40.484375 56 46.34375 49.84375 
Q 52.203125 43.703125 52.203125 31.203125 
z
" id="DejaVuSans-61"/>
    </defs>
    <g transform="translate(625.634688 19.44)scale(0.12 -0.12)">
     <use xlink:href="#DejaVuSans-4e"/>
     <use x="74.804688" xlink:href="#DejaVuSans-6f"/>
     <use x="135.986328" xlink:href="#DejaVuSans-72"/>
     <use x="177.099609" xlink:href="#DejaVuSans-74"/>
     <use x="216.308594" xlink:href="#DejaVuSans-68"/>
     <use x="279.6875" xlink:href="#DejaVuSans-65"/>
     <use x="341.210938" xlink:href="#DejaVuSans-61"/>
     <use x="402.490234" xlink:href="#DejaVuSans-73"/>
     <use x="454.589844" xlink:href="#DejaVuSans-74"/>
    </g>
   </g>
  </g>
  <g id="axes_3">
   <g id="patch_12">
    <path d="M 55.69 572.51 
L 441.485 572.51 
L 441.485 314.755 
L 55.69 314.755 
z
" style="fill:#ffffff;"/>
   </g>
   <g id="PolyCollection_3">
    <defs>
     <path d="M 55.69 -135.476582 
L 55.69 -75.49 
L 61.9125 -75.49 
L 68.135 -75.49 
L 74.3575 -75.49 
L 80.58 -75.49 
L 86.8025 -75.49 
L 93.025 -75.49 
L 99.2475 -75.49 
L 105.47 -75.49 
L 111.6925 -75.49 
L 117.915 -75.49 
L 124.1375 -75.49 
L 130.36 -75.49 
L 136.5825 -75.49 
L 142.805 -75.49 
L 149.0275 -75.49 
L 155.25 -75.49 
L 161.4725 -75.49 
L 167.695 -75.49 
L 173.9175 -75.49 
L 180.14 -75.49 
L 186.3625 -75.49 
L 192.585 -75.49 
L 198.8075 -75.49 
L 205.03 -75.49 
L 211.2525 -75.49 
L 217.475 -75.49 
L 223.6975 -75.49 
L 229.92 -75.49 
L 236.1425 -75.49 
L 242.365 -75.49 
L 248.5875 -75.49 
L 254.81 -75.49 
L 261.0325 -75.49 
L 267.255 -75.49 
L 273.4775 -75.49 
L 279.7 -75.49 
L 285.9225 -75.49 
L 292.145 -75.49 
L 298.3675 -75.49 
L 304.59 -75.49 
L 310.8125 -75.49 
L 317.035 -75.49 
L 323.2575 -75.49 
L 329.48 -75.49 
L 335.7025 -75.49 
L 341.925 -75.49 
L 348.1475 -75.49 
L 354.37 -75.49 
L 360.5925 -75.49 
L 366.815 -75.49 
L 373.0375 -75.49 
L 379.26 -75.49 
L 385.4825 -75.49 
L 391.705 -75.49 
L 397.9275 -75.49 
L 404.15 -75.49 
L 410.3725 -75.49 
L 416.595 -75.49 
L 422.8175 -75.49 
L 429.04 -75.49 
L 435.2625 -75.49 
L 441.485 -75.49 
L 441.485 -320.970952 
L 441.485 -320.970952 
L 435.2625 -311.775842 
L 429.04 -305.182362 
L 422.8175 -300.369234 
L 416.595 -294.472946 
L 410.3725 -287.748388 
L 404.15 -281.02892 
L 397.9275 -274.480909 
L 391.705 -268.641494 
L 385.4825 -263.944354 
L 379.26 -259.942421 
L 373.0375 -256.377286 
L 366.815 -251.722386 
L 360.5925 -246.989996 
L 354.37 -243.327323 
L 348.1475 -240.176114 
L 341.925 -236.398708 
L 335.7025 -233.607638 
L 329.48 -230.575765 
L 323.2575 -227.183848 
L 317.035 -223.686337 
L 310.8125 -220.824608 
L 304.59 -218.138295 
L 298.3675 -215.957395 
L 292.145 -213.528514 
L 285.9225 -211.184606 
L 279.7 -208.864622 
L 273.4775 -206.192718 
L 267.255 -203.445513 
L 261.0325 -201.360109 
L 254.81 -199.229557 
L 248.5875 -197.328116 
L 242.365 -194.879015 
L 236.1425 -192.843753 
L 229.92 -190.175683 
L 223.6975 -187.849028 
L 217.475 -186.013985 
L 211.2525 -184.141421 
L 205.03 -182.276477 
L 198.8075 -180.163599 
L 192.585 -177.899589 
L 186.3625 -176.049938 
L 180.14 -174.067975 
L 173.9175 -171.238552 
L 167.695 -169.309279 
L 161.4725 -167.659447 
L 155.25 -166.154642 
L 149.0275 -164.044476 
L 142.805 -162.223111 
L 136.5825 -160.041101 
L 130.36 -158.079711 
L 124.1375 -156.261932 
L 117.915 -154.61599 
L 111.6925 -152.94787 
L 105.47 -151.073538 
L 99.2475 -149.117707 
L 93.025 -147.171686 
L 86.8025 -145.283462 
L 80.58 -143.434709 
L 74.3575 -141.777639 
L 68.135 -140.087504 
L 61.9125 -138.034317 
L 55.69 -135.476582 
z
" id="m42c5a2be68" style="stroke:#2ca02c;"/>
    </defs>
    <g clip-path="url(#p865a309af4)">
     <use style="fill:#2ca02c;stroke:#2ca02c;" x="0" xlink:href="#m42c5a2be68" y="648"/>
    </g>
   </g>
   <g id="matplotlib.axis_5">
    <g id="xtick_25">
     <g id="line2d_37">
      <g>
       <use style="stroke:#000000;stroke-width:0.8;" x="55.69" xlink:href="#m46e1ed2849" y="572.51"/>
      </g>
     </g>
     <g id="text_8">
      <!-- 2020-05-01 -->
      <defs>
       <path d="M 4.890625 31.390625 
L 31.203125 31.390625 
L 31.203125 23.390625 
L 4.890625 23.390625 
z
" id="DejaVuSans-2d"/>
       <path d="M 10.796875 72.90625 
L 49.515625 72.90625 
L 49.515625 64.59375 
L 19.828125 64.59375 
L 19.828125 46.734375 
Q 21.96875 47.46875 24.109375 47.828125 
Q 26.265625 48.1875 28.421875 48.1875 
Q 40.625 48.1875 47.75 41.5 
Q 54.890625 34.8125 54.890625 23.390625 
Q 54.890625 11.625 47.5625 5.09375 
Q 40.234375 -1.421875 26.90625 -1.421875 
Q 22.3125 -1.421875 17.546875 -0.640625 
Q 12.796875 0.140625 7.71875 1.703125 
L 7.71875 11.625 
Q 12.109375 9.234375 16.796875 8.0625 
Q 21.484375 6.890625 26.703125 6.890625 
Q 35.15625 6.890625 40.078125 11.328125 
Q 45.015625 15.765625 45.015625 23.390625 
Q 45.015625 31 40.078125 35.4375 
Q 35.15625 39.890625 26.703125 39.890625 
Q 22.75 39.890625 18.8125 39.015625 
Q 14.890625 38.140625 10.796875 36.28125 
z
" id="DejaVuSans-35"/>
       <path d="M 12.40625 8.296875 
L 28.515625 8.296875 
L 28.515625 63.921875 
L 10.984375 60.40625 
L 10.984375 69.390625 
L 28.421875 72.90625 
L 38.28125 72.90625 
L 38.28125 8.296875 
L 54.390625 8.296875 
L 54.390625 0 
L 12.40625 0 
z
" id="DejaVuSans-31"/>
      </defs>
      <g transform="translate(58.449375 637.625625)rotate(-90)scale(0.1 -0.1)">
       <use xlink:href="#DejaVuSans-32"/>
       <use x="63.623047" xlink:href="#DejaVuSans-30"/>
       <use x="127.246094" xlink:href="#DejaVuSans-32"/>
       <use x="190.869141" xlink:href="#DejaVuSans-30"/>
       <use x="254.492188" xlink:href="#DejaVuSans-2d"/>
       <use x="290.576172" xlink:href="#DejaVuSans-30"/>
       <use x="354.199219" xlink:href="#DejaVuSans-35"/>
       <use x="417.822266" xlink:href="#DejaVuSans-2d"/>
       <use x="453.90625" xlink:href="#DejaVuSans-30"/>
       <use x="517.529297" xlink:href="#DejaVuSans-31"/>
      </g>
     </g>
    </g>
    <g id="xtick_26">
     <g id="line2d_38">
      <g>
       <use style="stroke:#000000;stroke-width:0.8;" x="90.762273" xlink:href="#m46e1ed2849" y="572.51"/>
      </g>
     </g>
     <g id="text_9">
      <!-- 2020-05-06 -->
      <g transform="translate(93.521648 637.625625)rotate(-90)scale(0.1 -0.1)">
       <use xlink:href="#DejaVuSans-32"/>
       <use x="63.623047" xlink:href="#DejaVuSans-30"/>
       <use x="127.246094" xlink:href="#DejaVuSans-32"/>
       <use x="190.869141" xlink:href="#DejaVuSans-30"/>
       <use x="254.492188" xlink:href="#DejaVuSans-2d"/>
       <use x="290.576172" xlink:href="#DejaVuSans-30"/>
       <use x="354.199219" xlink:href="#DejaVuSans-35"/>
       <use x="417.822266" xlink:href="#DejaVuSans-2d"/>
       <use x="453.90625" xlink:href="#DejaVuSans-30"/>
       <use x="517.529297" xlink:href="#DejaVuSans-36"/>
      </g>
     </g>
    </g>
    <g id="xtick_27">
     <g id="line2d_39">
      <g>
       <use style="stroke:#000000;stroke-width:0.8;" x="125.834545" xlink:href="#m46e1ed2849" y="572.51"/>
      </g>
     </g>
     <g id="text_10">
      <!-- 2020-05-12 -->
      <g transform="translate(128.59392 637.625625)rotate(-90)scale(0.1 -0.1)">
       <use xlink:href="#DejaVuSans-32"/>
       <use x="63.623047" xlink:href="#DejaVuSans-30"/>
       <use x="127.246094" xlink:href="#DejaVuSans-32"/>
       <use x="190.869141" xlink:href="#DejaVuSans-30"/>
       <use x="254.492188" xlink:href="#DejaVuSans-2d"/>
       <use x="290.576172" xlink:href="#DejaVuSans-30"/>
       <use x="354.199219" xlink:href="#DejaVuSans-35"/>
       <use x="417.822266" xlink:href="#DejaVuSans-2d"/>
       <use x="453.90625" xlink:href="#DejaVuSans-31"/>
       <use x="517.529297" xlink:href="#DejaVuSans-32"/>
      </g>
     </g>
    </g>
    <g id="xtick_28">
     <g id="line2d_40">
      <g>
       <use style="stroke:#000000;stroke-width:0.8;" x="160.906818" xlink:href="#m46e1ed2849" y="572.51"/>
      </g>
     </g>
     <g id="text_11">
      <!-- 2020-05-17 -->
      <defs>
       <path d="M 8.203125 72.90625 
L 55.078125 72.90625 
L 55.078125 68.703125 
L 28.609375 0 
L 18.3125 0 
L 43.21875 64.59375 
L 8.203125 64.59375 
z
" id="DejaVuSans-37"/>
      </defs>
      <g transform="translate(163.666193 637.625625)rotate(-90)scale(0.1 -0.1)">
       <use xlink:href="#DejaVuSans-32"/>
       <use x="63.623047" xlink:href="#DejaVuSans-30"/>
       <use x="127.246094" xlink:href="#DejaVuSans-32"/>
       <use x="190.869141" xlink:href="#DejaVuSans-30"/>
       <use x="254.492188" xlink:href="#DejaVuSans-2d"/>
       <use x="290.576172" xlink:href="#DejaVuSans-30"/>
       <use x="354.199219" xlink:href="#DejaVuSans-35"/>
       <use x="417.822266" xlink:href="#DejaVuSans-2d"/>
       <use x="453.90625" xlink:href="#DejaVuSans-31"/>
       <use x="517.529297" xlink:href="#DejaVuSans-37"/>
      </g>
     </g>
    </g>
    <g id="xtick_29">
     <g id="line2d_41">
      <g>
       <use style="stroke:#000000;stroke-width:0.8;" x="195.979091" xlink:href="#m46e1ed2849" y="572.51"/>
      </g>
     </g>
     <g id="text_12">
      <!-- 2020-05-23 -->
      <defs>
       <path d="M 40.578125 39.3125 
Q 47.65625 37.796875 51.625 33 
Q 55.609375 28.21875 55.609375 21.1875 
Q 55.609375 10.40625 48.1875 4.484375 
Q 40.765625 -1.421875 27.09375 -1.421875 
Q 22.515625 -1.421875 17.65625 -0.515625 
Q 12.796875 0.390625 7.625 2.203125 
L 7.625 11.71875 
Q 11.71875 9.328125 16.59375 8.109375 
Q 21.484375 6.890625 26.8125 6.890625 
Q 36.078125 6.890625 40.9375 10.546875 
Q 45.796875 14.203125 45.796875 21.1875 
Q 45.796875 27.640625 41.28125 31.265625 
Q 36.765625 34.90625 28.71875 34.90625 
L 20.21875 34.90625 
L 20.21875 43.015625 
L 29.109375 43.015625 
Q 36.375 43.015625 40.234375 45.921875 
Q 44.09375 48.828125 44.09375 54.296875 
Q 44.09375 59.90625 40.109375 62.90625 
Q 36.140625 65.921875 28.71875 65.921875 
Q 24.65625 65.921875 20.015625 65.03125 
Q 15.375 64.15625 9.8125 62.3125 
L 9.8125 71.09375 
Q 15.4375 72.65625 20.34375 73.4375 
Q 25.25 74.21875 29.59375 74.21875 
Q 40.828125 74.21875 47.359375 69.109375 
Q 53.90625 64.015625 53.90625 55.328125 
Q 53.90625 49.265625 50.4375 45.09375 
Q 46.96875 40.921875 40.578125 39.3125 
z
" id="DejaVuSans-33"/>
      </defs>
      <g transform="translate(198.738466 637.625625)rotate(-90)scale(0.1 -0.1)">
       <use xlink:href="#DejaVuSans-32"/>
       <use x="63.623047" xlink:href="#DejaVuSans-30"/>
       <use x="127.246094" xlink:href="#DejaVuSans-32"/>
       <use x="190.869141" xlink:href="#DejaVuSans-30"/>
       <use x="254.492188" xlink:href="#DejaVuSans-2d"/>
       <use x="290.576172" xlink:href="#DejaVuSans-30"/>
       <use x="354.199219" xlink:href="#DejaVuSans-35"/>
       <use x="417.822266" xlink:href="#DejaVuSans-2d"/>
       <use x="453.90625" xlink:href="#DejaVuSans-32"/>
       <use x="517.529297" xlink:href="#DejaVuSans-33"/>
      </g>
     </g>
    </g>
    <g id="xtick_30">
     <g id="line2d_42">
      <g>
       <use style="stroke:#000000;stroke-width:0.8;" x="231.051364" xlink:href="#m46e1ed2849" y="572.51"/>
      </g>
     </g>
     <g id="text_13">
      <!-- 2020-05-29 -->
      <defs>
       <path d="M 10.984375 1.515625 
L 10.984375 10.5 
Q 14.703125 8.734375 18.5 7.8125 
Q 22.3125 6.890625 25.984375 6.890625 
Q 35.75 6.890625 40.890625 13.453125 
Q 46.046875 20.015625 46.78125 33.40625 
Q 43.953125 29.203125 39.59375 26.953125 
Q 35.25 24.703125 29.984375 24.703125 
Q 19.046875 24.703125 12.671875 31.3125 
Q 6.296875 37.9375 6.296875 49.421875 
Q 6.296875 60.640625 12.9375 67.421875 
Q 19.578125 74.21875 30.609375 74.21875 
Q 43.265625 74.21875 49.921875 64.515625 
Q 56.59375 54.828125 56.59375 36.375 
Q 56.59375 19.140625 48.40625 8.859375 
Q 40.234375 -1.421875 26.421875 -1.421875 
Q 22.703125 -1.421875 18.890625 -0.6875 
Q 15.09375 0.046875 10.984375 1.515625 
z
M 30.609375 32.421875 
Q 37.25 32.421875 41.125 36.953125 
Q 45.015625 41.5 45.015625 49.421875 
Q 45.015625 57.28125 41.125 61.84375 
Q 37.25 66.40625 30.609375 66.40625 
Q 23.96875 66.40625 20.09375 61.84375 
Q 16.21875 57.28125 16.21875 49.421875 
Q 16.21875 41.5 20.09375 36.953125 
Q 23.96875 32.421875 30.609375 32.421875 
z
" id="DejaVuSans-39"/>
      </defs>
      <g transform="translate(233.810739 637.625625)rotate(-90)scale(0.1 -0.1)">
       <use xlink:href="#DejaVuSans-32"/>
       <use x="63.623047" xlink:href="#DejaVuSans-30"/>
       <use x="127.246094" xlink:href="#DejaVuSans-32"/>
       <use x="190.869141" xlink:href="#DejaVuSans-30"/>
       <use x="254.492188" xlink:href="#DejaVuSans-2d"/>
       <use x="290.576172" xlink:href="#DejaVuSans-30"/>
       <use x="354.199219" xlink:href="#DejaVuSans-35"/>
       <use x="417.822266" xlink:href="#DejaVuSans-2d"/>
       <use x="453.90625" xlink:href="#DejaVuSans-32"/>
       <use x="517.529297" xlink:href="#DejaVuSans-39"/>
      </g>
     </g>
    </g>
    <g id="xtick_31">
     <g id="line2d_43">
      <g>
       <use style="stroke:#000000;stroke-width:0.8;" x="266.123636" xlink:href="#m46e1ed2849" y="572.51"/>
      </g>
     </g>
     <g id="text_14">
      <!-- 2020-06-03 -->
      <g transform="translate(268.883011 637.625625)rotate(-90)scale(0.1 -0.1)">
       <use xlink:href="#DejaVuSans-32"/>
       <use x="63.623047" xlink:href="#DejaVuSans-30"/>
       <use x="127.246094" xlink:href="#DejaVuSans-32"/>
       <use x="190.869141" xlink:href="#DejaVuSans-30"/>
       <use x="254.492188" xlink:href="#DejaVuSans-2d"/>
       <use x="290.576172" xlink:href="#DejaVuSans-30"/>
       <use x="354.199219" xlink:href="#DejaVuSans-36"/>
       <use x="417.822266" xlink:href="#DejaVuSans-2d"/>
       <use x="453.90625" xlink:href="#DejaVuSans-30"/>
       <use x="517.529297" xlink:href="#DejaVuSans-33"/>
      </g>
     </g>
    </g>
    <g id="xtick_32">
     <g id="line2d_44">
      <g>
       <use style="stroke:#000000;stroke-width:0.8;" x="301.195909" xlink:href="#m46e1ed2849" y="572.51"/>
      </g>
     </g>
     <g id="text_15">
      <!-- 2020-06-09 -->
      <g transform="translate(303.955284 637.625625)rotate(-90)scale(0.1 -0.1)">
       <use xlink:href="#DejaVuSans-32"/>
       <use x="63.623047" xlink:href="#DejaVuSans-30"/>
       <use x="127.246094" xlink:href="#DejaVuSans-32"/>
       <use x="190.869141" xlink:href="#DejaVuSans-30"/>
       <use x="254.492188" xlink:href="#DejaVuSans-2d"/>
       <use x="290.576172" xlink:href="#DejaVuSans-30"/>
       <use x="354.199219" xlink:href="#DejaVuSans-36"/>
       <use x="417.822266" xlink:href="#DejaVuSans-2d"/>
       <use x="453.90625" xlink:href="#DejaVuSans-30"/>
       <use x="517.529297" xlink:href="#DejaVuSans-39"/>
      </g>
     </g>
    </g>
    <g id="xtick_33">
     <g id="line2d_45">
      <g>
       <use style="stroke:#000000;stroke-width:0.8;" x="336.268182" xlink:href="#m46e1ed2849" y="572.51"/>
      </g>
     </g>
     <g id="text_16">
      <!-- 2020-06-15 -->
      <g transform="translate(339.027557 637.625625)rotate(-90)scale(0.1 -0.1)">
       <use xlink:href="#DejaVuSans-32"/>
       <use x="63.623047" xlink:href="#DejaVuSans-30"/>
       <use x="127.246094" xlink:href="#DejaVuSans-32"/>
       <use x="190.869141" xlink:href="#DejaVuSans-30"/>
       <use x="254.492188" xlink:href="#DejaVuSans-2d"/>
       <use x="290.576172" xlink:href="#DejaVuSans-30"/>
       <use x="354.199219" xlink:href="#DejaVuSans-36"/>
       <use x="417.822266" xlink:href="#DejaVuSans-2d"/>
       <use x="453.90625" xlink:href="#DejaVuSans-31"/>
       <use x="517.529297" xlink:href="#DejaVuSans-35"/>
      </g>
     </g>
    </g>
    <g id="xtick_34">
     <g id="line2d_46">
      <g>
       <use style="stroke:#000000;stroke-width:0.8;" x="371.340455" xlink:href="#m46e1ed2849" y="572.51"/>
      </g>
     </g>
     <g id="text_17">
      <!-- 2020-06-20 -->
      <g transform="translate(374.09983 637.625625)rotate(-90)scale(0.1 -0.1)">
       <use xlink:href="#DejaVuSans-32"/>
       <use x="63.623047" xlink:href="#DejaVuSans-30"/>
       <use x="127.246094" xlink:href="#DejaVuSans-32"/>
       <use x="190.869141" xlink:href="#DejaVuSans-30"/>
       <use x="254.492188" xlink:href="#DejaVuSans-2d"/>
       <use x="290.576172" xlink:href="#DejaVuSans-30"/>
       <use x="354.199219" xlink:href="#DejaVuSans-36"/>
       <use x="417.822266" xlink:href="#DejaVuSans-2d"/>
       <use x="453.90625" xlink:href="#DejaVuSans-32"/>
       <use x="517.529297" xlink:href="#DejaVuSans-30"/>
      </g>
     </g>
    </g>
    <g id="xtick_35">
     <g id="line2d_47">
      <g>
       <use style="stroke:#000000;stroke-width:0.8;" x="406.412727" xlink:href="#m46e1ed2849" y="572.51"/>
      </g>
     </g>
     <g id="text_18">
      <!-- 2020-06-26 -->
      <g transform="translate(409.172102 637.625625)rotate(-90)scale(0.1 -0.1)">
       <use xlink:href="#DejaVuSans-32"/>
       <use x="63.623047" xlink:href="#DejaVuSans-30"/>
       <use x="127.246094" xlink:href="#DejaVuSans-32"/>
       <use x="190.869141" xlink:href="#DejaVuSans-30"/>
       <use x="254.492188" xlink:href="#DejaVuSans-2d"/>
       <use x="290.576172" xlink:href="#DejaVuSans-30"/>
       <use x="354.199219" xlink:href="#DejaVuSans-36"/>
       <use x="417.822266" xlink:href="#DejaVuSans-2d"/>
       <use x="453.90625" xlink:href="#DejaVuSans-32"/>
       <use x="517.529297" xlink:href="#DejaVuSans-36"/>
      </g>
     </g>
    </g>
    <g id="xtick_36">
     <g id="line2d_48">
      <g>
       <use style="stroke:#000000;stroke-width:0.8;" x="441.485" xlink:href="#m46e1ed2849" y="572.51"/>
      </g>
     </g>
     <g id="text_19">
      <!-- 2020-07-02 -->
      <g transform="translate(444.244375 637.625625)rotate(-90)scale(0.1 -0.1)">
       <use xlink:href="#DejaVuSans-32"/>
       <use x="63.623047" xlink:href="#DejaVuSans-30"/>
       <use x="127.246094" xlink:href="#DejaVuSans-32"/>
       <use x="190.869141" xlink:href="#DejaVuSans-30"/>
       <use x="254.492188" xlink:href="#DejaVuSans-2d"/>
       <use x="290.576172" xlink:href="#DejaVuSans-30"/>
       <use x="354.199219" xlink:href="#DejaVuSans-37"/>
       <use x="417.822266" xlink:href="#DejaVuSans-2d"/>
       <use x="453.90625" xlink:href="#DejaVuSans-30"/>
       <use x="517.529297" xlink:href="#DejaVuSans-32"/>
      </g>
     </g>
    </g>
   </g>
   <g id="matplotlib.axis_6">
    <g id="ytick_11">
     <g id="line2d_49">
      <g>
       <use style="stroke:#000000;stroke-width:0.8;" x="55.69" xlink:href="#made4a82c76" y="572.51"/>
      </g>
     </g>
     <g id="text_20">
      <!-- 0 -->
      <g transform="translate(42.3275 576.309219)scale(0.1 -0.1)">
       <use xlink:href="#DejaVuSans-30"/>
      </g>
     </g>
    </g>
    <g id="ytick_12">
     <g id="line2d_50">
      <g>
       <use style="stroke:#000000;stroke-width:0.8;" x="55.69" xlink:href="#made4a82c76" y="517.759994"/>
      </g>
     </g>
     <g id="text_21">
      <!-- 200000 -->
      <g transform="translate(10.515 521.559213)scale(0.1 -0.1)">
       <use xlink:href="#DejaVuSans-32"/>
       <use x="63.623047" xlink:href="#DejaVuSans-30"/>
       <use x="127.246094" xlink:href="#DejaVuSans-30"/>
       <use x="190.869141" xlink:href="#DejaVuSans-30"/>
       <use x="254.492188" xlink:href="#DejaVuSans-30"/>
       <use x="318.115234" xlink:href="#DejaVuSans-30"/>
      </g>
     </g>
    </g>
    <g id="ytick_13">
     <g id="line2d_51">
      <g>
       <use style="stroke:#000000;stroke-width:0.8;" x="55.69" xlink:href="#made4a82c76" y="463.009988"/>
      </g>
     </g>
     <g id="text_22">
      <!-- 400000 -->
      <g transform="translate(10.515 466.809207)scale(0.1 -0.1)">
       <use xlink:href="#DejaVuSans-34"/>
       <use x="63.623047" xlink:href="#DejaVuSans-30"/>
       <use x="127.246094" xlink:href="#DejaVuSans-30"/>
       <use x="190.869141" xlink:href="#DejaVuSans-30"/>
       <use x="254.492188" xlink:href="#DejaVuSans-30"/>
       <use x="318.115234" xlink:href="#DejaVuSans-30"/>
      </g>
     </g>
    </g>
    <g id="ytick_14">
     <g id="line2d_52">
      <g>
       <use style="stroke:#000000;stroke-width:0.8;" x="55.69" xlink:href="#made4a82c76" y="408.259982"/>
      </g>
     </g>
     <g id="text_23">
      <!-- 600000 -->
      <g transform="translate(10.515 412.059201)scale(0.1 -0.1)">
       <use xlink:href="#DejaVuSans-36"/>
       <use x="63.623047" xlink:href="#DejaVuSans-30"/>
       <use x="127.246094" xlink:href="#DejaVuSans-30"/>
       <use x="190.869141" xlink:href="#DejaVuSans-30"/>
       <use x="254.492188" xlink:href="#DejaVuSans-30"/>
       <use x="318.115234" xlink:href="#DejaVuSans-30"/>
      </g>
     </g>
    </g>
    <g id="ytick_15">
     <g id="line2d_53">
      <g>
       <use style="stroke:#000000;stroke-width:0.8;" x="55.69" xlink:href="#made4a82c76" y="353.509976"/>
      </g>
     </g>
     <g id="text_24">
      <!-- 800000 -->
      <g transform="translate(10.515 357.309195)scale(0.1 -0.1)">
       <use xlink:href="#DejaVuSans-38"/>
       <use x="63.623047" xlink:href="#DejaVuSans-30"/>
       <use x="127.246094" xlink:href="#DejaVuSans-30"/>
       <use x="190.869141" xlink:href="#DejaVuSans-30"/>
       <use x="254.492188" xlink:href="#DejaVuSans-30"/>
       <use x="318.115234" xlink:href="#DejaVuSans-30"/>
      </g>
     </g>
    </g>
   </g>
   <g id="line2d_54">
    <path clip-path="url(#p865a309af4)" d="M 55.69 512.523418 
L 61.9125 509.965683 
L 68.135 507.912496 
L 74.3575 506.222361 
L 80.58 504.565291 
L 86.8025 502.716538 
L 93.025 500.828314 
L 99.2475 498.882293 
L 105.47 496.926462 
L 111.6925 495.05213 
L 117.915 493.38401 
L 124.1375 491.738068 
L 130.36 489.920289 
L 136.5825 487.958899 
L 142.805 485.776889 
L 149.0275 483.955524 
L 155.25 481.845358 
L 161.4725 480.340553 
L 167.695 478.690721 
L 173.9175 476.761448 
L 180.14 473.932025 
L 186.3625 471.950062 
L 192.585 470.100411 
L 198.8075 467.836401 
L 205.03 465.723523 
L 211.2525 463.858579 
L 217.475 461.986015 
L 223.6975 460.150972 
L 229.92 457.824317 
L 236.1425 455.156247 
L 242.365 453.120985 
L 248.5875 450.671884 
L 254.81 448.770443 
L 261.0325 446.639891 
L 267.255 444.554487 
L 273.4775 441.807282 
L 279.7 439.135378 
L 285.9225 436.815394 
L 292.145 434.471486 
L 298.3675 432.042605 
L 304.59 429.861705 
L 310.8125 427.175392 
L 317.035 424.313663 
L 323.2575 420.816152 
L 329.48 417.424235 
L 335.7025 414.392362 
L 341.925 411.601292 
L 348.1475 407.823886 
L 354.37 404.672677 
L 360.5925 401.010004 
L 366.815 396.277614 
L 373.0375 391.622714 
L 379.26 388.057579 
L 385.4825 384.055646 
L 391.705 379.358506 
L 397.9275 373.519091 
L 404.15 366.97108 
L 410.3725 360.251612 
L 416.595 353.527054 
L 422.8175 347.630766 
L 429.04 342.817638 
L 435.2625 336.224158 
L 441.485 327.029048 
" style="fill:none;stroke:#2ca02c;stroke-linecap:square;stroke-width:1.5;"/>
   </g>
   <g id="patch_13">
    <path d="M 55.69 572.51 
L 55.69 314.755 
" style="fill:none;stroke:#000000;stroke-linecap:square;stroke-linejoin:miter;stroke-width:0.8;"/>
   </g>
   <g id="patch_14">
    <path d="M 441.485 572.51 
L 441.485 314.755 
" style="fill:none;stroke:#000000;stroke-linecap:square;stroke-linejoin:miter;stroke-width:0.8;"/>
   </g>
   <g id="patch_15">
    <path d="M 55.69 572.51 
L 441.485 572.51 
" style="fill:none;stroke:#000000;stroke-linecap:square;stroke-linejoin:miter;stroke-width:0.8;"/>
   </g>
   <g id="patch_16">
    <path d="M 55.69 314.755 
L 441.485 314.755 
" style="fill:none;stroke:#000000;stroke-linecap:square;stroke-linejoin:miter;stroke-width:0.8;"/>
   </g>
   <g id="text_25">
    <!-- South -->
    <defs>
     <path d="M 53.515625 70.515625 
L 53.515625 60.890625 
Q 47.90625 63.578125 42.921875 64.890625 
Q 37.9375 66.21875 33.296875 66.21875 
Q 25.25 66.21875 20.875 63.09375 
Q 16.5 59.96875 16.5 54.203125 
Q 16.5 49.359375 19.40625 46.890625 
Q 22.3125 44.4375 30.421875 42.921875 
L 36.375 41.703125 
Q 47.40625 39.59375 52.65625 34.296875 
Q 57.90625 29 57.90625 20.125 
Q 57.90625 9.515625 50.796875 4.046875 
Q 43.703125 -1.421875 29.984375 -1.421875 
Q 24.8125 -1.421875 18.96875 -0.25 
Q 13.140625 0.921875 6.890625 3.21875 
L 6.890625 13.375 
Q 12.890625 10.015625 18.65625 8.296875 
Q 24.421875 6.59375 29.984375 6.59375 
Q 38.421875 6.59375 43.015625 9.90625 
Q 47.609375 13.234375 47.609375 19.390625 
Q 47.609375 24.75 44.3125 27.78125 
Q 41.015625 30.8125 33.5 32.328125 
L 27.484375 33.5 
Q 16.453125 35.6875 11.515625 40.375 
Q 6.59375 45.0625 6.59375 53.421875 
Q 6.59375 63.09375 13.40625 68.65625 
Q 20.21875 74.21875 32.171875 74.21875 
Q 37.3125 74.21875 42.625 73.28125 
Q 47.953125 72.359375 53.515625 70.515625 
z
" id="DejaVuSans-53"/>
     <path d="M 8.5 21.578125 
L 8.5 54.6875 
L 17.484375 54.6875 
L 17.484375 21.921875 
Q 17.484375 14.15625 20.5 10.265625 
Q 23.53125 6.390625 29.59375 6.390625 
Q 36.859375 6.390625 41.078125 11.03125 
Q 45.3125 15.671875 45.3125 23.6875 
L 45.3125 54.6875 
L 54.296875 54.6875 
L 54.296875 0 
L 45.3125 0 
L 45.3125 8.40625 
Q 42.046875 3.421875 37.71875 1 
Q 33.40625 -1.421875 27.6875 -1.421875 
Q 18.265625 -1.421875 13.375 4.4375 
Q 8.5 10.296875 8.5 21.578125 
z
M 31.109375 56 
z
" id="DejaVuSans-75"/>
    </defs>
    <g transform="translate(231.15 308.755)scale(0.12 -0.12)">
     <use xlink:href="#DejaVuSans-53"/>
     <use x="63.476562" xlink:href="#DejaVuSans-6f"/>
     <use x="124.658203" xlink:href="#DejaVuSans-75"/>
     <use x="188.037109" xlink:href="#DejaVuSans-74"/>
     <use x="227.246094" xlink:href="#DejaVuSans-68"/>
    </g>
   </g>
  </g>
  <g id="axes_4">
   <g id="patch_17">
    <path d="M 462.365 572.51 
L 848.16 572.51 
L 848.16 314.755 
L 462.365 314.755 
z
" style="fill:#ffffff;"/>
   </g>
   <g id="PolyCollection_4">
    <defs>
     <path d="M 462.365 -104.510009 
L 462.365 -75.49 
L 468.5875 -75.49 
L 474.81 -75.49 
L 481.0325 -75.49 
L 487.255 -75.49 
L 493.4775 -75.49 
L 499.7 -75.49 
L 505.9225 -75.49 
L 512.145 -75.49 
L 518.3675 -75.49 
L 524.59 -75.49 
L 530.8125 -75.49 
L 537.035 -75.49 
L 543.2575 -75.49 
L 549.48 -75.49 
L 555.7025 -75.49 
L 561.925 -75.49 
L 568.1475 -75.49 
L 574.37 -75.49 
L 580.5925 -75.49 
L 586.815 -75.49 
L 593.0375 -75.49 
L 599.26 -75.49 
L 605.4825 -75.49 
L 611.705 -75.49 
L 617.9275 -75.49 
L 624.15 -75.49 
L 630.3725 -75.49 
L 636.595 -75.49 
L 642.8175 -75.49 
L 649.04 -75.49 
L 655.2625 -75.49 
L 661.485 -75.49 
L 667.7075 -75.49 
L 673.93 -75.49 
L 680.1525 -75.49 
L 686.375 -75.49 
L 692.5975 -75.49 
L 698.82 -75.49 
L 705.0425 -75.49 
L 711.265 -75.49 
L 717.4875 -75.49 
L 723.71 -75.49 
L 729.9325 -75.49 
L 736.155 -75.49 
L 742.3775 -75.49 
L 748.6 -75.49 
L 754.8225 -75.49 
L 761.045 -75.49 
L 767.2675 -75.49 
L 773.49 -75.49 
L 779.7125 -75.49 
L 785.935 -75.49 
L 792.1575 -75.49 
L 798.38 -75.49 
L 804.6025 -75.49 
L 810.825 -75.49 
L 817.0475 -75.49 
L 823.27 -75.49 
L 829.4925 -75.49 
L 835.715 -75.49 
L 841.9375 -75.49 
L 848.16 -75.49 
L 848.16 -200.806109 
L 848.16 -200.806109 
L 841.9375 -196.149268 
L 835.715 -192.371218 
L 829.4925 -189.71852 
L 823.27 -186.521908 
L 817.0475 -183.213213 
L 810.825 -179.718151 
L 804.6025 -176.613 
L 798.38 -173.843655 
L 792.1575 -171.318443 
L 785.935 -168.93475 
L 779.7125 -166.598447 
L 773.49 -163.535995 
L 767.2675 -160.871546 
L 761.045 -158.774353 
L 754.8225 -156.841821 
L 748.6 -155.268293 
L 742.3775 -154.069221 
L 736.155 -152.201427 
L 729.9325 -150.388232 
L 723.71 -148.706233 
L 717.4875 -147.144121 
L 711.265 -145.93561 
L 705.0425 -144.783194 
L 698.82 -143.546103 
L 692.5975 -141.997682 
L 686.375 -140.384047 
L 680.1525 -138.653227 
L 673.93 -137.521222 
L 667.7075 -136.19021 
L 661.485 -135.027851 
L 655.2625 -134.170787 
L 649.04 -132.66571 
L 642.8175 -131.103895 
L 636.595 -129.59444 
L 630.3725 -128.677952 
L 624.15 -127.709856 
L 617.9275 -126.968927 
L 611.705 -126.191147 
L 605.4825 -125.208011 
L 599.26 -123.971469 
L 593.0375 -123.110805 
L 586.815 -122.166967 
L 580.5925 -121.30126 
L 574.37 -120.430097 
L 568.1475 -119.691143 
L 561.925 -118.913331 
L 555.7025 -117.78764 
L 549.48 -116.866924 
L 543.2575 -115.972528 
L 537.035 -115.106319 
L 530.8125 -114.256965 
L 524.59 -113.589333 
L 518.3675 -112.735205 
L 512.145 -111.654415 
L 505.9225 -110.73611 
L 499.7 -109.617009 
L 493.4775 -108.622649 
L 487.255 -107.794571 
L 481.0325 -107.077596 
L 474.81 -106.349807 
L 468.5875 -105.419584 
L 462.365 -104.510009 
z
" id="mad93c89091" style="stroke:#d62728;"/>
    </defs>
    <g clip-path="url(#p50f2e1a027)">
     <use style="fill:#d62728;stroke:#d62728;" x="0" xlink:href="#mad93c89091" y="648"/>
    </g>
   </g>
   <g id="matplotlib.axis_7">
    <g id="xtick_37">
     <g id="line2d_55">
      <g>
       <use style="stroke:#000000;stroke-width:0.8;" x="462.365" xlink:href="#m46e1ed2849" y="572.51"/>
      </g>
     </g>
     <g id="text_26">
      <!-- 2020-05-01 -->
      <g transform="translate(465.124375 637.625625)rotate(-90)scale(0.1 -0.1)">
       <use xlink:href="#DejaVuSans-32"/>
       <use x="63.623047" xlink:href="#DejaVuSans-30"/>
       <use x="127.246094" xlink:href="#DejaVuSans-32"/>
       <use x="190.869141" xlink:href="#DejaVuSans-30"/>
       <use x="254.492188" xlink:href="#DejaVuSans-2d"/>
       <use x="290.576172" xlink:href="#DejaVuSans-30"/>
       <use x="354.199219" xlink:href="#DejaVuSans-35"/>
       <use x="417.822266" xlink:href="#DejaVuSans-2d"/>
       <use x="453.90625" xlink:href="#DejaVuSans-30"/>
       <use x="517.529297" xlink:href="#DejaVuSans-31"/>
      </g>
     </g>
    </g>
    <g id="xtick_38">
     <g id="line2d_56">
      <g>
       <use style="stroke:#000000;stroke-width:0.8;" x="497.437273" xlink:href="#m46e1ed2849" y="572.51"/>
      </g>
     </g>
     <g id="text_27">
      <!-- 2020-05-06 -->
      <g transform="translate(500.196648 637.625625)rotate(-90)scale(0.1 -0.1)">
       <use xlink:href="#DejaVuSans-32"/>
       <use x="63.623047" xlink:href="#DejaVuSans-30"/>
       <use x="127.246094" xlink:href="#DejaVuSans-32"/>
       <use x="190.869141" xlink:href="#DejaVuSans-30"/>
       <use x="254.492188" xlink:href="#DejaVuSans-2d"/>
       <use x="290.576172" xlink:href="#DejaVuSans-30"/>
       <use x="354.199219" xlink:href="#DejaVuSans-35"/>
       <use x="417.822266" xlink:href="#DejaVuSans-2d"/>
       <use x="453.90625" xlink:href="#DejaVuSans-30"/>
       <use x="517.529297" xlink:href="#DejaVuSans-36"/>
      </g>
     </g>
    </g>
    <g id="xtick_39">
     <g id="line2d_57">
      <g>
       <use style="stroke:#000000;stroke-width:0.8;" x="532.509545" xlink:href="#m46e1ed2849" y="572.51"/>
      </g>
     </g>
     <g id="text_28">
      <!-- 2020-05-12 -->
      <g transform="translate(535.26892 637.625625)rotate(-90)scale(0.1 -0.1)">
       <use xlink:href="#DejaVuSans-32"/>
       <use x="63.623047" xlink:href="#DejaVuSans-30"/>
       <use x="127.246094" xlink:href="#DejaVuSans-32"/>
       <use x="190.869141" xlink:href="#DejaVuSans-30"/>
       <use x="254.492188" xlink:href="#DejaVuSans-2d"/>
       <use x="290.576172" xlink:href="#DejaVuSans-30"/>
       <use x="354.199219" xlink:href="#DejaVuSans-35"/>
       <use x="417.822266" xlink:href="#DejaVuSans-2d"/>
       <use x="453.90625" xlink:href="#DejaVuSans-31"/>
       <use x="517.529297" xlink:href="#DejaVuSans-32"/>
      </g>
     </g>
    </g>
    <g id="xtick_40">
     <g id="line2d_58">
      <g>
       <use style="stroke:#000000;stroke-width:0.8;" x="567.581818" xlink:href="#m46e1ed2849" y="572.51"/>
      </g>
     </g>
     <g id="text_29">
      <!-- 2020-05-17 -->
      <g transform="translate(570.341193 637.625625)rotate(-90)scale(0.1 -0.1)">
       <use xlink:href="#DejaVuSans-32"/>
       <use x="63.623047" xlink:href="#DejaVuSans-30"/>
       <use x="127.246094" xlink:href="#DejaVuSans-32"/>
       <use x="190.869141" xlink:href="#DejaVuSans-30"/>
       <use x="254.492188" xlink:href="#DejaVuSans-2d"/>
       <use x="290.576172" xlink:href="#DejaVuSans-30"/>
       <use x="354.199219" xlink:href="#DejaVuSans-35"/>
       <use x="417.822266" xlink:href="#DejaVuSans-2d"/>
       <use x="453.90625" xlink:href="#DejaVuSans-31"/>
       <use x="517.529297" xlink:href="#DejaVuSans-37"/>
      </g>
     </g>
    </g>
    <g id="xtick_41">
     <g id="line2d_59">
      <g>
       <use style="stroke:#000000;stroke-width:0.8;" x="602.654091" xlink:href="#m46e1ed2849" y="572.51"/>
      </g>
     </g>
     <g id="text_30">
      <!-- 2020-05-23 -->
      <g transform="translate(605.413466 637.625625)rotate(-90)scale(0.1 -0.1)">
       <use xlink:href="#DejaVuSans-32"/>
       <use x="63.623047" xlink:href="#DejaVuSans-30"/>
       <use x="127.246094" xlink:href="#DejaVuSans-32"/>
       <use x="190.869141" xlink:href="#DejaVuSans-30"/>
       <use x="254.492188" xlink:href="#DejaVuSans-2d"/>
       <use x="290.576172" xlink:href="#DejaVuSans-30"/>
       <use x="354.199219" xlink:href="#DejaVuSans-35"/>
       <use x="417.822266" xlink:href="#DejaVuSans-2d"/>
       <use x="453.90625" xlink:href="#DejaVuSans-32"/>
       <use x="517.529297" xlink:href="#DejaVuSans-33"/>
      </g>
     </g>
    </g>
    <g id="xtick_42">
     <g id="line2d_60">
      <g>
       <use style="stroke:#000000;stroke-width:0.8;" x="637.726364" xlink:href="#m46e1ed2849" y="572.51"/>
      </g>
     </g>
     <g id="text_31">
      <!-- 2020-05-29 -->
      <g transform="translate(640.485739 637.625625)rotate(-90)scale(0.1 -0.1)">
       <use xlink:href="#DejaVuSans-32"/>
       <use x="63.623047" xlink:href="#DejaVuSans-30"/>
       <use x="127.246094" xlink:href="#DejaVuSans-32"/>
       <use x="190.869141" xlink:href="#DejaVuSans-30"/>
       <use x="254.492188" xlink:href="#DejaVuSans-2d"/>
       <use x="290.576172" xlink:href="#DejaVuSans-30"/>
       <use x="354.199219" xlink:href="#DejaVuSans-35"/>
       <use x="417.822266" xlink:href="#DejaVuSans-2d"/>
       <use x="453.90625" xlink:href="#DejaVuSans-32"/>
       <use x="517.529297" xlink:href="#DejaVuSans-39"/>
      </g>
     </g>
    </g>
    <g id="xtick_43">
     <g id="line2d_61">
      <g>
       <use style="stroke:#000000;stroke-width:0.8;" x="672.798636" xlink:href="#m46e1ed2849" y="572.51"/>
      </g>
     </g>
     <g id="text_32">
      <!-- 2020-06-03 -->
      <g transform="translate(675.558011 637.625625)rotate(-90)scale(0.1 -0.1)">
       <use xlink:href="#DejaVuSans-32"/>
       <use x="63.623047" xlink:href="#DejaVuSans-30"/>
       <use x="127.246094" xlink:href="#DejaVuSans-32"/>
       <use x="190.869141" xlink:href="#DejaVuSans-30"/>
       <use x="254.492188" xlink:href="#DejaVuSans-2d"/>
       <use x="290.576172" xlink:href="#DejaVuSans-30"/>
       <use x="354.199219" xlink:href="#DejaVuSans-36"/>
       <use x="417.822266" xlink:href="#DejaVuSans-2d"/>
       <use x="453.90625" xlink:href="#DejaVuSans-30"/>
       <use x="517.529297" xlink:href="#DejaVuSans-33"/>
      </g>
     </g>
    </g>
    <g id="xtick_44">
     <g id="line2d_62">
      <g>
       <use style="stroke:#000000;stroke-width:0.8;" x="707.870909" xlink:href="#m46e1ed2849" y="572.51"/>
      </g>
     </g>
     <g id="text_33">
      <!-- 2020-06-09 -->
      <g transform="translate(710.630284 637.625625)rotate(-90)scale(0.1 -0.1)">
       <use xlink:href="#DejaVuSans-32"/>
       <use x="63.623047" xlink:href="#DejaVuSans-30"/>
       <use x="127.246094" xlink:href="#DejaVuSans-32"/>
       <use x="190.869141" xlink:href="#DejaVuSans-30"/>
       <use x="254.492188" xlink:href="#DejaVuSans-2d"/>
       <use x="290.576172" xlink:href="#DejaVuSans-30"/>
       <use x="354.199219" xlink:href="#DejaVuSans-36"/>
       <use x="417.822266" xlink:href="#DejaVuSans-2d"/>
       <use x="453.90625" xlink:href="#DejaVuSans-30"/>
       <use x="517.529297" xlink:href="#DejaVuSans-39"/>
      </g>
     </g>
    </g>
    <g id="xtick_45">
     <g id="line2d_63">
      <g>
       <use style="stroke:#000000;stroke-width:0.8;" x="742.943182" xlink:href="#m46e1ed2849" y="572.51"/>
      </g>
     </g>
     <g id="text_34">
      <!-- 2020-06-15 -->
      <g transform="translate(745.702557 637.625625)rotate(-90)scale(0.1 -0.1)">
       <use xlink:href="#DejaVuSans-32"/>
       <use x="63.623047" xlink:href="#DejaVuSans-30"/>
       <use x="127.246094" xlink:href="#DejaVuSans-32"/>
       <use x="190.869141" xlink:href="#DejaVuSans-30"/>
       <use x="254.492188" xlink:href="#DejaVuSans-2d"/>
       <use x="290.576172" xlink:href="#DejaVuSans-30"/>
       <use x="354.199219" xlink:href="#DejaVuSans-36"/>
       <use x="417.822266" xlink:href="#DejaVuSans-2d"/>
       <use x="453.90625" xlink:href="#DejaVuSans-31"/>
       <use x="517.529297" xlink:href="#DejaVuSans-35"/>
      </g>
     </g>
    </g>
    <g id="xtick_46">
     <g id="line2d_64">
      <g>
       <use style="stroke:#000000;stroke-width:0.8;" x="778.015455" xlink:href="#m46e1ed2849" y="572.51"/>
      </g>
     </g>
     <g id="text_35">
      <!-- 2020-06-20 -->
      <g transform="translate(780.77483 637.625625)rotate(-90)scale(0.1 -0.1)">
       <use xlink:href="#DejaVuSans-32"/>
       <use x="63.623047" xlink:href="#DejaVuSans-30"/>
       <use x="127.246094" xlink:href="#DejaVuSans-32"/>
       <use x="190.869141" xlink:href="#DejaVuSans-30"/>
       <use x="254.492188" xlink:href="#DejaVuSans-2d"/>
       <use x="290.576172" xlink:href="#DejaVuSans-30"/>
       <use x="354.199219" xlink:href="#DejaVuSans-36"/>
       <use x="417.822266" xlink:href="#DejaVuSans-2d"/>
       <use x="453.90625" xlink:href="#DejaVuSans-32"/>
       <use x="517.529297" xlink:href="#DejaVuSans-30"/>
      </g>
     </g>
    </g>
    <g id="xtick_47">
     <g id="line2d_65">
      <g>
       <use style="stroke:#000000;stroke-width:0.8;" x="813.087727" xlink:href="#m46e1ed2849" y="572.51"/>
      </g>
     </g>
     <g id="text_36">
      <!-- 2020-06-26 -->
      <g transform="translate(815.847102 637.625625)rotate(-90)scale(0.1 -0.1)">
       <use xlink:href="#DejaVuSans-32"/>
       <use x="63.623047" xlink:href="#DejaVuSans-30"/>
       <use x="127.246094" xlink:href="#DejaVuSans-32"/>
       <use x="190.869141" xlink:href="#DejaVuSans-30"/>
       <use x="254.492188" xlink:href="#DejaVuSans-2d"/>
       <use x="290.576172" xlink:href="#DejaVuSans-30"/>
       <use x="354.199219" xlink:href="#DejaVuSans-36"/>
       <use x="417.822266" xlink:href="#DejaVuSans-2d"/>
       <use x="453.90625" xlink:href="#DejaVuSans-32"/>
       <use x="517.529297" xlink:href="#DejaVuSans-36"/>
      </g>
     </g>
    </g>
    <g id="xtick_48">
     <g id="line2d_66">
      <g>
       <use style="stroke:#000000;stroke-width:0.8;" x="848.16" xlink:href="#m46e1ed2849" y="572.51"/>
      </g>
     </g>
     <g id="text_37">
      <!-- 2020-07-02 -->
      <g transform="translate(850.919375 637.625625)rotate(-90)scale(0.1 -0.1)">
       <use xlink:href="#DejaVuSans-32"/>
       <use x="63.623047" xlink:href="#DejaVuSans-30"/>
       <use x="127.246094" xlink:href="#DejaVuSans-32"/>
       <use x="190.869141" xlink:href="#DejaVuSans-30"/>
       <use x="254.492188" xlink:href="#DejaVuSans-2d"/>
       <use x="290.576172" xlink:href="#DejaVuSans-30"/>
       <use x="354.199219" xlink:href="#DejaVuSans-37"/>
       <use x="417.822266" xlink:href="#DejaVuSans-2d"/>
       <use x="453.90625" xlink:href="#DejaVuSans-30"/>
       <use x="517.529297" xlink:href="#DejaVuSans-32"/>
      </g>
     </g>
    </g>
   </g>
   <g id="matplotlib.axis_8">
    <g id="ytick_16">
     <g id="line2d_67">
      <g>
       <use style="stroke:#000000;stroke-width:0.8;" x="462.365" xlink:href="#made4a82c76" y="572.51"/>
      </g>
     </g>
    </g>
    <g id="ytick_17">
     <g id="line2d_68">
      <g>
       <use style="stroke:#000000;stroke-width:0.8;" x="462.365" xlink:href="#made4a82c76" y="517.759994"/>
      </g>
     </g>
    </g>
    <g id="ytick_18">
     <g id="line2d_69">
      <g>
       <use style="stroke:#000000;stroke-width:0.8;" x="462.365" xlink:href="#made4a82c76" y="463.009988"/>
      </g>
     </g>
    </g>
    <g id="ytick_19">
     <g id="line2d_70">
      <g>
       <use style="stroke:#000000;stroke-width:0.8;" x="462.365" xlink:href="#made4a82c76" y="408.259982"/>
      </g>
     </g>
    </g>
    <g id="ytick_20">
     <g id="line2d_71">
      <g>
       <use style="stroke:#000000;stroke-width:0.8;" x="462.365" xlink:href="#made4a82c76" y="353.509976"/>
      </g>
     </g>
    </g>
   </g>
   <g id="line2d_72">
    <path clip-path="url(#p50f2e1a027)" d="M 462.365 543.489991 
L 468.5875 542.580416 
L 474.81 541.650193 
L 481.0325 540.922404 
L 487.255 540.205429 
L 493.4775 539.377351 
L 499.7 538.382991 
L 505.9225 537.26389 
L 512.145 536.345585 
L 518.3675 535.264795 
L 524.59 534.410667 
L 530.8125 533.743035 
L 537.035 532.893681 
L 543.2575 532.027472 
L 549.48 531.133076 
L 555.7025 530.21236 
L 561.925 529.086669 
L 568.1475 528.308857 
L 574.37 527.569903 
L 580.5925 526.69874 
L 586.815 525.833033 
L 593.0375 524.889195 
L 599.26 524.028531 
L 605.4825 522.791989 
L 611.705 521.808853 
L 617.9275 521.031073 
L 624.15 520.290144 
L 630.3725 519.322048 
L 636.595 518.40556 
L 642.8175 516.896105 
L 649.04 515.33429 
L 655.2625 513.829213 
L 661.485 512.972149 
L 667.7075 511.80979 
L 673.93 510.478778 
L 680.1525 509.346773 
L 686.375 507.615953 
L 692.5975 506.002318 
L 698.82 504.453897 
L 705.0425 503.216806 
L 711.265 502.06439 
L 717.4875 500.855879 
L 723.71 499.293767 
L 729.9325 497.611768 
L 736.155 495.798573 
L 742.3775 493.930779 
L 748.6 492.731707 
L 754.8225 491.158179 
L 761.045 489.225647 
L 767.2675 487.128454 
L 773.49 484.464005 
L 779.7125 481.401553 
L 785.935 479.06525 
L 792.1575 476.681557 
L 798.38 474.156345 
L 804.6025 471.387 
L 810.825 468.281849 
L 817.0475 464.786787 
L 823.27 461.478092 
L 829.4925 458.28148 
L 835.715 455.628782 
L 841.9375 451.850732 
L 848.16 447.193891 
" style="fill:none;stroke:#d62728;stroke-linecap:square;stroke-width:1.5;"/>
   </g>
   <g id="patch_18">
    <path d="M 462.365 572.51 
L 462.365 314.755 
" style="fill:none;stroke:#000000;stroke-linecap:square;stroke-linejoin:miter;stroke-width:0.8;"/>
   </g>
   <g id="patch_19">
    <path d="M 848.16 572.51 
L 848.16 314.755 
" style="fill:none;stroke:#000000;stroke-linecap:square;stroke-linejoin:miter;stroke-width:0.8;"/>
   </g>
   <g id="patch_20">
    <path d="M 462.365 572.51 
L 848.16 572.51 
" style="fill:none;stroke:#000000;stroke-linecap:square;stroke-linejoin:miter;stroke-width:0.8;"/>
   </g>
   <g id="patch_21">
    <path d="M 462.365 314.755 
L 848.16 314.755 
" style="fill:none;stroke:#000000;stroke-linecap:square;stroke-linejoin:miter;stroke-width:0.8;"/>
   </g>
   <g id="text_38">
    <!-- West -->
    <defs>
     <path d="M 3.328125 72.90625 
L 13.28125 72.90625 
L 28.609375 11.28125 
L 43.890625 72.90625 
L 54.984375 72.90625 
L 70.3125 11.28125 
L 85.59375 72.90625 
L 95.609375 72.90625 
L 77.296875 0 
L 64.890625 0 
L 49.515625 63.28125 
L 33.984375 0 
L 21.578125 0 
z
" id="DejaVuSans-57"/>
    </defs>
    <g transform="translate(640.165 308.755)scale(0.12 -0.12)">
     <use xlink:href="#DejaVuSans-57"/>
     <use x="98.798828" xlink:href="#DejaVuSans-65"/>
     <use x="160.322266" xlink:href="#DejaVuSans-73"/>
     <use x="212.421875" xlink:href="#DejaVuSans-74"/>
    </g>
   </g>
  </g>
 </g>
 <defs>
  <clipPath id="p43b08e9b80">
   <rect height="257.755" width="385.795" x="55.69" y="25.44"/>
  </clipPath>
  <clipPath id="p822653ff6b">
   <rect height="257.755" width="385.795" x="462.365" y="25.44"/>
  </clipPath>
  <clipPath id="p865a309af4">
   <rect height="257.755" width="385.795" x="55.69" y="314.755"/>
  </clipPath>
  <clipPath id="p50f2e1a027">
   <rect height="257.755" width="385.795" x="462.365" y="314.755"/>
  </clipPath>
 </defs>
</svg>
