<?xml version="1.0" encoding="utf-8" standalone="no"?>
<!DOCTYPE svg PUBLIC "-//W3C//DTD SVG 1.1//EN"
  "http://www.w3.org/Graphics/SVG/1.1/DTD/svg11.dtd">
<!-- Created with matplotlib (http://matplotlib.org/) -->
<svg height="648pt" version="1.1" viewBox="0 0 864 648" width="864pt" xmlns="http://www.w3.org/2000/svg" xmlns:xlink="http://www.w3.org/1999/xlink">
 <defs>
  <style type="text/css">
*{stroke-linecap:butt;stroke-linejoin:round;}
  </style>
 </defs>
 <g id="figure_1">
  <g id="patch_1">
   <path d="M 0 648 
L 864 648 
L 864 0 
L 0 0 
z
" style="fill:#ffffff;"/>
  </g>
  <g id="axes_1">
   <g id="patch_2">
    <path d="M 43.18 283.195 
L 435.23 283.195 
L 435.23 25.44 
L 43.18 25.44 
z
" style="fill:#ffffff;"/>
   </g>
   <g id="PolyCollection_1">
    <defs>
     <path d="M 43.18 -423.412785 
L 43.18 -364.805 
L 49.607049 -364.805 
L 56.034098 -364.805 
L 62.461148 -364.805 
L 68.888197 -364.805 
L 75.315246 -364.805 
L 81.742295 -364.805 
L 88.169344 -364.805 
L 94.596393 -364.805 
L 101.023443 -364.805 
L 107.450492 -364.805 
L 113.877541 -364.805 
L 120.30459 -364.805 
L 126.731639 -364.805 
L 133.158689 -364.805 
L 139.585738 -364.805 
L 146.012787 -364.805 
L 152.439836 -364.805 
L 158.866885 -364.805 
L 165.293934 -364.805 
L 171.720984 -364.805 
L 178.148033 -364.805 
L 184.575082 -364.805 
L 191.002131 -364.805 
L 197.42918 -364.805 
L 203.85623 -364.805 
L 210.283279 -364.805 
L 216.710328 -364.805 
L 223.137377 -364.805 
L 229.564426 -364.805 
L 235.991475 -364.805 
L 242.418525 -364.805 
L 248.845574 -364.805 
L 255.272623 -364.805 
L 261.699672 -364.805 
L 268.126721 -364.805 
L 274.55377 -364.805 
L 280.98082 -364.805 
L 287.407869 -364.805 
L 293.834918 -364.805 
L 300.261967 -364.805 
L 306.689016 -364.805 
L 313.116066 -364.805 
L 319.543115 -364.805 
L 325.970164 -364.805 
L 332.397213 -364.805 
L 338.824262 -364.805 
L 345.251311 -364.805 
L 351.678361 -364.805 
L 358.10541 -364.805 
L 364.532459 -364.805 
L 370.959508 -364.805 
L 377.386557 -364.805 
L 383.813607 -364.805 
L 390.240656 -364.805 
L 396.667705 -364.805 
L 403.094754 -364.805 
L 409.521803 -364.805 
L 415.948852 -364.805 
L 422.375902 -364.805 
L 428.802951 -364.805 
L 435.23 -364.805 
L 435.23 -380.768614 
L 435.23 -380.768614 
L 428.802951 -383.464726 
L 422.375902 -376.363827 
L 415.948852 -390.253646 
L 409.521803 -380.767156 
L 403.094754 -383.585818 
L 396.667705 -382.210157 
L 390.240656 -382.343467 
L 383.813607 -384.315241 
L 377.386557 -378.666765 
L 370.959508 -377.382639 
L 364.532459 -387.541204 
L 358.10541 -389.009729 
L 351.678361 -390.922003 
L 345.251311 -388.587509 
L 338.824262 -387.823782 
L 332.397213 -379.453731 
L 325.970164 -380.665 
L 319.543115 -385.671233 
L 313.116066 -397.846812 
L 306.689016 -401.377015 
L 300.261967 -394.832656 
L 293.834918 -385.656154 
L 287.407869 -389.854558 
L 280.98082 -384.455973 
L 274.55377 -387.959323 
L 268.126721 -421.794755 
L 261.699672 -413.000453 
L 255.272623 -396.911538 
L 248.845574 -400.320967 
L 242.418525 -392.105435 
L 235.991475 -390.687305 
L 229.564426 -400.063536 
L 223.137377 -415.425548 
L 216.710328 -398.211026 
L 210.283279 -419.493003 
L 203.85623 -396.082669 
L 197.42918 -381.514439 
L 191.002131 -384.949755 
L 184.575082 -400.364288 
L 178.148033 -414.308034 
L 171.720984 -410.121461 
L 165.293934 -422.775134 
L 158.866885 -425.483036 
L 152.439836 -400.263769 
L 146.012787 -387.878224 
L 139.585738 -404.026027 
L 133.158689 -409.248286 
L 126.731639 -417.855757 
L 120.30459 -418.659244 
L 113.877541 -431.026306 
L 107.450492 -406.398905 
L 101.023443 -399.029702 
L 94.596393 -405.345819 
L 88.169344 -414.075784 
L 81.742295 -420.822572 
L 75.315246 -428.581453 
L 68.888197 -431.555254 
L 62.461148 -402.714267 
L 56.034098 -392.360994 
L 49.607049 -415.398871 
L 43.18 -423.412785 
z
" id="m3160ecbbb9" style="stroke:#1f77b4;"/>
    </defs>
    <g clip-path="url(#p1185006a8b)">
     <use style="fill:#1f77b4;stroke:#1f77b4;" x="0" xlink:href="#m3160ecbbb9" y="648"/>
    </g>
   </g>
   <g id="matplotlib.axis_1">
    <g id="xtick_1">
     <g id="line2d_1">
      <defs>
       <path d="M 0 0 
L 0 3.5 
" id="m9714dd94b7" style="stroke:#000000;stroke-width:0.8;"/>
      </defs>
      <g>
       <use style="stroke:#000000;stroke-width:0.8;" x="43.18" xlink:href="#m9714dd94b7" y="283.195"/>
      </g>
     </g>
    </g>
    <g id="xtick_2">
     <g id="line2d_2">
      <g>
       <use style="stroke:#000000;stroke-width:0.8;" x="78.820909" xlink:href="#m9714dd94b7" y="283.195"/>
      </g>
     </g>
    </g>
    <g id="xtick_3">
     <g id="line2d_3">
      <g>
       <use style="stroke:#000000;stroke-width:0.8;" x="114.461818" xlink:href="#m9714dd94b7" y="283.195"/>
      </g>
     </g>
    </g>
    <g id="xtick_4">
     <g id="line2d_4">
      <g>
       <use style="stroke:#000000;stroke-width:0.8;" x="150.102727" xlink:href="#m9714dd94b7" y="283.195"/>
      </g>
     </g>
    </g>
    <g id="xtick_5">
     <g id="line2d_5">
      <g>
       <use style="stroke:#000000;stroke-width:0.8;" x="185.743636" xlink:href="#m9714dd94b7" y="283.195"/>
      </g>
     </g>
    </g>
    <g id="xtick_6">
     <g id="line2d_6">
      <g>
       <use style="stroke:#000000;stroke-width:0.8;" x="221.384545" xlink:href="#m9714dd94b7" y="283.195"/>
      </g>
     </g>
    </g>
    <g id="xtick_7">
     <g id="line2d_7">
      <g>
       <use style="stroke:#000000;stroke-width:0.8;" x="257.025455" xlink:href="#m9714dd94b7" y="283.195"/>
      </g>
     </g>
    </g>
    <g id="xtick_8">
     <g id="line2d_8">
      <g>
       <use style="stroke:#000000;stroke-width:0.8;" x="292.666364" xlink:href="#m9714dd94b7" y="283.195"/>
      </g>
     </g>
    </g>
    <g id="xtick_9">
     <g id="line2d_9">
      <g>
       <use style="stroke:#000000;stroke-width:0.8;" x="328.307273" xlink:href="#m9714dd94b7" y="283.195"/>
      </g>
     </g>
    </g>
    <g id="xtick_10">
     <g id="line2d_10">
      <g>
       <use style="stroke:#000000;stroke-width:0.8;" x="363.948182" xlink:href="#m9714dd94b7" y="283.195"/>
      </g>
     </g>
    </g>
    <g id="xtick_11">
     <g id="line2d_11">
      <g>
       <use style="stroke:#000000;stroke-width:0.8;" x="399.589091" xlink:href="#m9714dd94b7" y="283.195"/>
      </g>
     </g>
    </g>
    <g id="xtick_12">
     <g id="line2d_12">
      <g>
       <use style="stroke:#000000;stroke-width:0.8;" x="435.23" xlink:href="#m9714dd94b7" y="283.195"/>
      </g>
     </g>
    </g>
   </g>
   <g id="matplotlib.axis_2">
    <g id="ytick_1">
     <g id="line2d_13">
      <defs>
       <path d="M 0 0 
L -3.5 0 
" id="mc0d18b650b" style="stroke:#000000;stroke-width:0.8;"/>
      </defs>
      <g>
       <use style="stroke:#000000;stroke-width:0.8;" x="43.18" xlink:href="#mc0d18b650b" y="283.195"/>
      </g>
     </g>
     <g id="text_1">
      <!-- 0 -->
      <defs>
       <path d="M 31.78125 66.40625 
Q 24.171875 66.40625 20.328125 58.90625 
Q 16.5 51.421875 16.5 36.375 
Q 16.5 21.390625 20.328125 13.890625 
Q 24.171875 6.390625 31.78125 6.390625 
Q 39.453125 6.390625 43.28125 13.890625 
Q 47.125 21.390625 47.125 36.375 
Q 47.125 51.421875 43.28125 58.90625 
Q 39.453125 66.40625 31.78125 66.40625 
z
M 31.78125 74.21875 
Q 44.046875 74.21875 50.515625 64.515625 
Q 56.984375 54.828125 56.984375 36.375 
Q 56.984375 17.96875 50.515625 8.265625 
Q 44.046875 -1.421875 31.78125 -1.421875 
Q 19.53125 -1.421875 13.0625 8.265625 
Q 6.59375 17.96875 6.59375 36.375 
Q 6.59375 54.828125 13.0625 64.515625 
Q 19.53125 74.21875 31.78125 74.21875 
z
" id="DejaVuSans-30"/>
      </defs>
      <g transform="translate(29.8175 286.994219)scale(0.1 -0.1)">
       <use xlink:href="#DejaVuSans-30"/>
      </g>
     </g>
    </g>
    <g id="ytick_2">
     <g id="line2d_14">
      <g>
       <use style="stroke:#000000;stroke-width:0.8;" x="43.18" xlink:href="#mc0d18b650b" y="252.775859"/>
      </g>
     </g>
     <g id="text_2">
      <!-- 200 -->
      <defs>
       <path d="M 19.1875 8.296875 
L 53.609375 8.296875 
L 53.609375 0 
L 7.328125 0 
L 7.328125 8.296875 
Q 12.9375 14.109375 22.625 23.890625 
Q 32.328125 33.6875 34.8125 36.53125 
Q 39.546875 41.84375 41.421875 45.53125 
Q 43.3125 49.21875 43.3125 52.78125 
Q 43.3125 58.59375 39.234375 62.25 
Q 35.15625 65.921875 28.609375 65.921875 
Q 23.96875 65.921875 18.8125 64.3125 
Q 13.671875 62.703125 7.8125 59.421875 
L 7.8125 69.390625 
Q 13.765625 71.78125 18.9375 73 
Q 24.125 74.21875 28.421875 74.21875 
Q 39.75 74.21875 46.484375 68.546875 
Q 53.21875 62.890625 53.21875 53.421875 
Q 53.21875 48.921875 51.53125 44.890625 
Q 49.859375 40.875 45.40625 35.40625 
Q 44.1875 33.984375 37.640625 27.21875 
Q 31.109375 20.453125 19.1875 8.296875 
z
" id="DejaVuSans-32"/>
      </defs>
      <g transform="translate(17.0925 256.575078)scale(0.1 -0.1)">
       <use xlink:href="#DejaVuSans-32"/>
       <use x="63.623047" xlink:href="#DejaVuSans-30"/>
       <use x="127.246094" xlink:href="#DejaVuSans-30"/>
      </g>
     </g>
    </g>
    <g id="ytick_3">
     <g id="line2d_15">
      <g>
       <use style="stroke:#000000;stroke-width:0.8;" x="43.18" xlink:href="#mc0d18b650b" y="222.356718"/>
      </g>
     </g>
     <g id="text_3">
      <!-- 400 -->
      <defs>
       <path d="M 37.796875 64.3125 
L 12.890625 25.390625 
L 37.796875 25.390625 
z
M 35.203125 72.90625 
L 47.609375 72.90625 
L 47.609375 25.390625 
L 58.015625 25.390625 
L 58.015625 17.1875 
L 47.609375 17.1875 
L 47.609375 0 
L 37.796875 0 
L 37.796875 17.1875 
L 4.890625 17.1875 
L 4.890625 26.703125 
z
" id="DejaVuSans-34"/>
      </defs>
      <g transform="translate(17.0925 226.155937)scale(0.1 -0.1)">
       <use xlink:href="#DejaVuSans-34"/>
       <use x="63.623047" xlink:href="#DejaVuSans-30"/>
       <use x="127.246094" xlink:href="#DejaVuSans-30"/>
      </g>
     </g>
    </g>
    <g id="ytick_4">
     <g id="line2d_16">
      <g>
       <use style="stroke:#000000;stroke-width:0.8;" x="43.18" xlink:href="#mc0d18b650b" y="191.937577"/>
      </g>
     </g>
     <g id="text_4">
      <!-- 600 -->
      <defs>
       <path d="M 33.015625 40.375 
Q 26.375 40.375 22.484375 35.828125 
Q 18.609375 31.296875 18.609375 23.390625 
Q 18.609375 15.53125 22.484375 10.953125 
Q 26.375 6.390625 33.015625 6.390625 
Q 39.65625 6.390625 43.53125 10.953125 
Q 47.40625 15.53125 47.40625 23.390625 
Q 47.40625 31.296875 43.53125 35.828125 
Q 39.65625 40.375 33.015625 40.375 
z
M 52.59375 71.296875 
L 52.59375 62.3125 
Q 48.875 64.0625 45.09375 64.984375 
Q 41.3125 65.921875 37.59375 65.921875 
Q 27.828125 65.921875 22.671875 59.328125 
Q 17.53125 52.734375 16.796875 39.40625 
Q 19.671875 43.65625 24.015625 45.921875 
Q 28.375 48.1875 33.59375 48.1875 
Q 44.578125 48.1875 50.953125 41.515625 
Q 57.328125 34.859375 57.328125 23.390625 
Q 57.328125 12.15625 50.6875 5.359375 
Q 44.046875 -1.421875 33.015625 -1.421875 
Q 20.359375 -1.421875 13.671875 8.265625 
Q 6.984375 17.96875 6.984375 36.375 
Q 6.984375 53.65625 15.1875 63.9375 
Q 23.390625 74.21875 37.203125 74.21875 
Q 40.921875 74.21875 44.703125 73.484375 
Q 48.484375 72.75 52.59375 71.296875 
z
" id="DejaVuSans-36"/>
      </defs>
      <g transform="translate(17.0925 195.736796)scale(0.1 -0.1)">
       <use xlink:href="#DejaVuSans-36"/>
       <use x="63.623047" xlink:href="#DejaVuSans-30"/>
       <use x="127.246094" xlink:href="#DejaVuSans-30"/>
      </g>
     </g>
    </g>
    <g id="ytick_5">
     <g id="line2d_17">
      <g>
       <use style="stroke:#000000;stroke-width:0.8;" x="43.18" xlink:href="#mc0d18b650b" y="161.518436"/>
      </g>
     </g>
     <g id="text_5">
      <!-- 800 -->
      <defs>
       <path d="M 31.78125 34.625 
Q 24.75 34.625 20.71875 30.859375 
Q 16.703125 27.09375 16.703125 20.515625 
Q 16.703125 13.921875 20.71875 10.15625 
Q 24.75 6.390625 31.78125 6.390625 
Q 38.8125 6.390625 42.859375 10.171875 
Q 46.921875 13.96875 46.921875 20.515625 
Q 46.921875 27.09375 42.890625 30.859375 
Q 38.875 34.625 31.78125 34.625 
z
M 21.921875 38.8125 
Q 15.578125 40.375 12.03125 44.71875 
Q 8.5 49.078125 8.5 55.328125 
Q 8.5 64.0625 14.71875 69.140625 
Q 20.953125 74.21875 31.78125 74.21875 
Q 42.671875 74.21875 48.875 69.140625 
Q 55.078125 64.0625 55.078125 55.328125 
Q 55.078125 49.078125 51.53125 44.71875 
Q 48 40.375 41.703125 38.8125 
Q 48.828125 37.15625 52.796875 32.3125 
Q 56.78125 27.484375 56.78125 20.515625 
Q 56.78125 9.90625 50.3125 4.234375 
Q 43.84375 -1.421875 31.78125 -1.421875 
Q 19.734375 -1.421875 13.25 4.234375 
Q 6.78125 9.90625 6.78125 20.515625 
Q 6.78125 27.484375 10.78125 32.3125 
Q 14.796875 37.15625 21.921875 38.8125 
z
M 18.3125 54.390625 
Q 18.3125 48.734375 21.84375 45.5625 
Q 25.390625 42.390625 31.78125 42.390625 
Q 38.140625 42.390625 41.71875 45.5625 
Q 45.3125 48.734375 45.3125 54.390625 
Q 45.3125 60.0625 41.71875 63.234375 
Q 38.140625 66.40625 31.78125 66.40625 
Q 25.390625 66.40625 21.84375 63.234375 
Q 18.3125 60.0625 18.3125 54.390625 
z
" id="DejaVuSans-38"/>
      </defs>
      <g transform="translate(17.0925 165.317655)scale(0.1 -0.1)">
       <use xlink:href="#DejaVuSans-38"/>
       <use x="63.623047" xlink:href="#DejaVuSans-30"/>
       <use x="127.246094" xlink:href="#DejaVuSans-30"/>
      </g>
     </g>
    </g>
    <g id="ytick_6">
     <g id="line2d_18">
      <g>
       <use style="stroke:#000000;stroke-width:0.8;" x="43.18" xlink:href="#mc0d18b650b" y="131.099295"/>
      </g>
     </g>
     <g id="text_6">
      <!-- 1000 -->
      <defs>
       <path d="M 12.40625 8.296875 
L 28.515625 8.296875 
L 28.515625 63.921875 
L 10.984375 60.40625 
L 10.984375 69.390625 
L 28.421875 72.90625 
L 38.28125 72.90625 
L 38.28125 8.296875 
L 54.390625 8.296875 
L 54.390625 0 
L 12.40625 0 
z
" id="DejaVuSans-31"/>
      </defs>
      <g transform="translate(10.73 134.898514)scale(0.1 -0.1)">
       <use xlink:href="#DejaVuSans-31"/>
       <use x="63.623047" xlink:href="#DejaVuSans-30"/>
       <use x="127.246094" xlink:href="#DejaVuSans-30"/>
       <use x="190.869141" xlink:href="#DejaVuSans-30"/>
      </g>
     </g>
    </g>
    <g id="ytick_7">
     <g id="line2d_19">
      <g>
       <use style="stroke:#000000;stroke-width:0.8;" x="43.18" xlink:href="#mc0d18b650b" y="100.680154"/>
      </g>
     </g>
     <g id="text_7">
      <!-- 1200 -->
      <g transform="translate(10.73 104.479373)scale(0.1 -0.1)">
       <use xlink:href="#DejaVuSans-31"/>
       <use x="63.623047" xlink:href="#DejaVuSans-32"/>
       <use x="127.246094" xlink:href="#DejaVuSans-30"/>
       <use x="190.869141" xlink:href="#DejaVuSans-30"/>
      </g>
     </g>
    </g>
    <g id="ytick_8">
     <g id="line2d_20">
      <g>
       <use style="stroke:#000000;stroke-width:0.8;" x="43.18" xlink:href="#mc0d18b650b" y="70.261013"/>
      </g>
     </g>
     <g id="text_8">
      <!-- 1400 -->
      <g transform="translate(10.73 74.060232)scale(0.1 -0.1)">
       <use xlink:href="#DejaVuSans-31"/>
       <use x="63.623047" xlink:href="#DejaVuSans-34"/>
       <use x="127.246094" xlink:href="#DejaVuSans-30"/>
       <use x="190.869141" xlink:href="#DejaVuSans-30"/>
      </g>
     </g>
    </g>
    <g id="ytick_9">
     <g id="line2d_21">
      <g>
       <use style="stroke:#000000;stroke-width:0.8;" x="43.18" xlink:href="#mc0d18b650b" y="39.841873"/>
      </g>
     </g>
     <g id="text_9">
      <!-- 1600 -->
      <g transform="translate(10.73 43.641091)scale(0.1 -0.1)">
       <use xlink:href="#DejaVuSans-31"/>
       <use x="63.623047" xlink:href="#DejaVuSans-36"/>
       <use x="127.246094" xlink:href="#DejaVuSans-30"/>
       <use x="190.869141" xlink:href="#DejaVuSans-30"/>
      </g>
     </g>
    </g>
   </g>
   <g id="line2d_22">
    <path clip-path="url(#p1185006a8b)" d="M 43.18 224.587215 
L 49.607049 232.601129 
L 56.034098 255.639006 
L 62.461148 245.285733 
L 68.888197 216.444746 
L 75.315246 219.418547 
L 81.742295 227.177428 
L 88.169344 233.924216 
L 94.596393 242.654181 
L 101.023443 248.970298 
L 107.450492 241.601095 
L 113.877541 216.973694 
L 120.30459 229.340756 
L 126.731639 230.144243 
L 133.158689 238.751714 
L 139.585738 243.973973 
L 146.012787 260.121776 
L 152.439836 247.736231 
L 158.866885 222.516964 
L 165.293934 225.224866 
L 171.720984 237.878539 
L 178.148033 233.691966 
L 184.575082 247.635712 
L 191.002131 263.050245 
L 197.42918 266.485561 
L 203.85623 251.917331 
L 210.283279 228.506997 
L 216.710328 249.788974 
L 223.137377 232.574452 
L 229.564426 247.936464 
L 235.991475 257.312695 
L 242.418525 255.894565 
L 248.845574 247.679033 
L 255.272623 251.088462 
L 261.699672 234.999547 
L 268.126721 226.205245 
L 274.55377 260.040677 
L 280.98082 263.544027 
L 287.407869 258.145442 
L 293.834918 262.343846 
L 300.261967 253.167344 
L 306.689016 246.622985 
L 313.116066 250.153188 
L 319.543115 262.328767 
L 325.970164 267.335 
L 332.397213 268.546269 
L 338.824262 260.176218 
L 345.251311 259.412491 
L 351.678361 257.077997 
L 358.10541 258.990271 
L 364.532459 260.458796 
L 370.959508 270.617361 
L 377.386557 269.333235 
L 383.813607 263.684759 
L 390.240656 265.656533 
L 396.667705 265.789843 
L 403.094754 264.414182 
L 409.521803 267.232844 
L 415.948852 257.746354 
L 422.375902 271.636173 
L 428.802951 264.535274 
L 435.23 267.231386 
" style="fill:none;stroke:#1f77b4;stroke-linecap:square;stroke-width:1.5;"/>
   </g>
   <g id="patch_3">
    <path d="M 43.18 283.195 
L 43.18 25.44 
" style="fill:none;stroke:#000000;stroke-linecap:square;stroke-linejoin:miter;stroke-width:0.8;"/>
   </g>
   <g id="patch_4">
    <path d="M 435.23 283.195 
L 435.23 25.44 
" style="fill:none;stroke:#000000;stroke-linecap:square;stroke-linejoin:miter;stroke-width:0.8;"/>
   </g>
   <g id="patch_5">
    <path d="M 43.18 283.195 
L 435.23 283.195 
" style="fill:none;stroke:#000000;stroke-linecap:square;stroke-linejoin:miter;stroke-width:0.8;"/>
   </g>
   <g id="patch_6">
    <path d="M 43.18 25.44 
L 435.23 25.44 
" style="fill:none;stroke:#000000;stroke-linecap:square;stroke-linejoin:miter;stroke-width:0.8;"/>
   </g>
   <g id="text_10">
    <!-- Midwest -->
    <defs>
     <path d="M 9.8125 72.90625 
L 24.515625 72.90625 
L 43.109375 23.296875 
L 61.8125 72.90625 
L 76.515625 72.90625 
L 76.515625 0 
L 66.890625 0 
L 66.890625 64.015625 
L 48.09375 14.015625 
L 38.1875 14.015625 
L 19.390625 64.015625 
L 19.390625 0 
L 9.8125 0 
z
" id="DejaVuSans-4d"/>
     <path d="M 9.421875 54.6875 
L 18.40625 54.6875 
L 18.40625 0 
L 9.421875 0 
z
M 9.421875 75.984375 
L 18.40625 75.984375 
L 18.40625 64.59375 
L 9.421875 64.59375 
z
" id="DejaVuSans-69"/>
     <path d="M 45.40625 46.390625 
L 45.40625 75.984375 
L 54.390625 75.984375 
L 54.390625 0 
L 45.40625 0 
L 45.40625 8.203125 
Q 42.578125 3.328125 38.25 0.953125 
Q 33.9375 -1.421875 27.875 -1.421875 
Q 17.96875 -1.421875 11.734375 6.484375 
Q 5.515625 14.40625 5.515625 27.296875 
Q 5.515625 40.1875 11.734375 48.09375 
Q 17.96875 56 27.875 56 
Q 33.9375 56 38.25 53.625 
Q 42.578125 51.265625 45.40625 46.390625 
z
M 14.796875 27.296875 
Q 14.796875 17.390625 18.875 11.75 
Q 22.953125 6.109375 30.078125 6.109375 
Q 37.203125 6.109375 41.296875 11.75 
Q 45.40625 17.390625 45.40625 27.296875 
Q 45.40625 37.203125 41.296875 42.84375 
Q 37.203125 48.484375 30.078125 48.484375 
Q 22.953125 48.484375 18.875 42.84375 
Q 14.796875 37.203125 14.796875 27.296875 
z
" id="DejaVuSans-64"/>
     <path d="M 4.203125 54.6875 
L 13.1875 54.6875 
L 24.421875 12.015625 
L 35.59375 54.6875 
L 46.1875 54.6875 
L 57.421875 12.015625 
L 68.609375 54.6875 
L 77.59375 54.6875 
L 63.28125 0 
L 52.6875 0 
L 40.921875 44.828125 
L 29.109375 0 
L 18.5 0 
z
" id="DejaVuSans-77"/>
     <path d="M 56.203125 29.59375 
L 56.203125 25.203125 
L 14.890625 25.203125 
Q 15.484375 15.921875 20.484375 11.0625 
Q 25.484375 6.203125 34.421875 6.203125 
Q 39.59375 6.203125 44.453125 7.46875 
Q 49.3125 8.734375 54.109375 11.28125 
L 54.109375 2.78125 
Q 49.265625 0.734375 44.1875 -0.34375 
Q 39.109375 -1.421875 33.890625 -1.421875 
Q 20.796875 -1.421875 13.15625 6.1875 
Q 5.515625 13.8125 5.515625 26.8125 
Q 5.515625 40.234375 12.765625 48.109375 
Q 20.015625 56 32.328125 56 
Q 43.359375 56 49.78125 48.890625 
Q 56.203125 41.796875 56.203125 29.59375 
z
M 47.21875 32.234375 
Q 47.125 39.59375 43.09375 43.984375 
Q 39.0625 48.390625 32.421875 48.390625 
Q 24.90625 48.390625 20.390625 44.140625 
Q 15.875 39.890625 15.1875 32.171875 
z
" id="DejaVuSans-65"/>
     <path d="M 44.28125 53.078125 
L 44.28125 44.578125 
Q 40.484375 46.53125 36.375 47.5 
Q 32.28125 48.484375 27.875 48.484375 
Q 21.1875 48.484375 17.84375 46.4375 
Q 14.5 44.390625 14.5 40.28125 
Q 14.5 37.15625 16.890625 35.375 
Q 19.28125 33.59375 26.515625 31.984375 
L 29.59375 31.296875 
Q 39.15625 29.25 43.1875 25.515625 
Q 47.21875 21.78125 47.21875 15.09375 
Q 47.21875 7.46875 41.1875 3.015625 
Q 35.15625 -1.421875 24.609375 -1.421875 
Q 20.21875 -1.421875 15.453125 -0.5625 
Q 10.6875 0.296875 5.421875 2 
L 5.421875 11.28125 
Q 10.40625 8.6875 15.234375 7.390625 
Q 20.0625 6.109375 24.8125 6.109375 
Q 31.15625 6.109375 34.5625 8.28125 
Q 37.984375 10.453125 37.984375 14.40625 
Q 37.984375 18.0625 35.515625 20.015625 
Q 33.0625 21.96875 24.703125 23.78125 
L 21.578125 24.515625 
Q 13.234375 26.265625 9.515625 29.90625 
Q 5.8125 33.546875 5.8125 39.890625 
Q 5.8125 47.609375 11.28125 51.796875 
Q 16.75 56 26.8125 56 
Q 31.78125 56 36.171875 55.265625 
Q 40.578125 54.546875 44.28125 53.078125 
z
" id="DejaVuSans-73"/>
     <path d="M 18.3125 70.21875 
L 18.3125 54.6875 
L 36.8125 54.6875 
L 36.8125 47.703125 
L 18.3125 47.703125 
L 18.3125 18.015625 
Q 18.3125 11.328125 20.140625 9.421875 
Q 21.96875 7.515625 27.59375 7.515625 
L 36.8125 7.515625 
L 36.8125 0 
L 27.59375 0 
Q 17.1875 0 13.234375 3.875 
Q 9.28125 7.765625 9.28125 18.015625 
L 9.28125 47.703125 
L 2.6875 47.703125 
L 2.6875 54.6875 
L 9.28125 54.6875 
L 9.28125 70.21875 
z
" id="DejaVuSans-74"/>
    </defs>
    <g transform="translate(214.475625 19.44)scale(0.12 -0.12)">
     <use xlink:href="#DejaVuSans-4d"/>
     <use x="86.279297" xlink:href="#DejaVuSans-69"/>
     <use x="114.0625" xlink:href="#DejaVuSans-64"/>
     <use x="177.539062" xlink:href="#DejaVuSans-77"/>
     <use x="259.326172" xlink:href="#DejaVuSans-65"/>
     <use x="320.849609" xlink:href="#DejaVuSans-73"/>
     <use x="372.949219" xlink:href="#DejaVuSans-74"/>
    </g>
   </g>
  </g>
  <g id="axes_2">
   <g id="patch_7">
    <path d="M 456.11 283.195 
L 848.16 283.195 
L 848.16 25.44 
L 456.11 25.44 
z
" style="fill:#ffffff;"/>
   </g>
   <g id="PolyCollection_2">
    <defs>
     <path d="M 456.11 -485.440662 
L 456.11 -364.805 
L 462.537049 -364.805 
L 468.964098 -364.805 
L 475.391148 -364.805 
L 481.818197 -364.805 
L 488.245246 -364.805 
L 494.672295 -364.805 
L 501.099344 -364.805 
L 507.526393 -364.805 
L 513.953443 -364.805 
L 520.380492 -364.805 
L 526.807541 -364.805 
L 533.23459 -364.805 
L 539.661639 -364.805 
L 546.088689 -364.805 
L 552.515738 -364.805 
L 558.942787 -364.805 
L 565.369836 -364.805 
L 571.796885 -364.805 
L 578.223934 -364.805 
L 584.650984 -364.805 
L 591.078033 -364.805 
L 597.505082 -364.805 
L 603.932131 -364.805 
L 610.35918 -364.805 
L 616.78623 -364.805 
L 623.213279 -364.805 
L 629.640328 -364.805 
L 636.067377 -364.805 
L 642.494426 -364.805 
L 648.921475 -364.805 
L 655.348525 -364.805 
L 661.775574 -364.805 
L 668.202623 -364.805 
L 674.629672 -364.805 
L 681.056721 -364.805 
L 687.48377 -364.805 
L 693.91082 -364.805 
L 700.337869 -364.805 
L 706.764918 -364.805 
L 713.191967 -364.805 
L 719.619016 -364.805 
L 726.046066 -364.805 
L 732.473115 -364.805 
L 738.900164 -364.805 
L 745.327213 -364.805 
L 751.754262 -364.805 
L 758.181311 -364.805 
L 764.608361 -364.805 
L 771.03541 -364.805 
L 777.462459 -364.805 
L 783.889508 -364.805 
L 790.316557 -364.805 
L 796.743607 -364.805 
L 803.170656 -364.805 
L 809.597705 -364.805 
L 816.024754 -364.805 
L 822.451803 -364.805 
L 828.878852 -364.805 
L 835.305902 -364.805 
L 841.732951 -364.805 
L 848.16 -364.805 
L 848.16 -377.15685 
L 848.16 -377.15685 
L 841.732951 -379.294387 
L 835.305902 -377.948757 
L 828.878852 -379.484284 
L 822.451803 -379.586643 
L 816.024754 -391.141729 
L 809.597705 -385.039479 
L 803.170656 -389.56713 
L 796.743607 -381.470031 
L 790.316557 -382.541501 
L 783.889508 -375.478793 
L 777.462459 -384.399883 
L 771.03541 -388.819745 
L 764.608361 -389.194532 
L 758.181311 -394.169297 
L 751.754262 -386.490019 
L 745.327213 -385.964281 
L 738.900164 -389.972773 
L 732.473115 -397.404269 
L 726.046066 -405.675438 
L 719.619016 -399.072712 
L 713.191967 -402.621692 
L 706.764918 -401.37261 
L 700.337869 -398.764983 
L 693.91082 -397.512217 
L 687.48377 -390.662111 
L 681.056721 -407.896032 
L 674.629672 -411.480926 
L 668.202623 -410.154911 
L 661.775574 -410.221921 
L 655.348525 -417.04744 
L 648.921475 -405.022169 
L 642.494426 -420.072845 
L 636.067377 -435.522152 
L 629.640328 -412.798862 
L 623.213279 -427.088997 
L 616.78623 -407.61787 
L 610.35918 -402.295229 
L 603.932131 -404.401709 
L 597.505082 -442.628201 
L 591.078033 -434.335245 
L 584.650984 -432.175622 
L 578.223934 -452.343737 
L 571.796885 -451.931155 
L 565.369836 -421.063813 
L 558.942787 -429.173905 
L 552.515738 -451.176337 
L 546.088689 -452.757492 
L 539.661639 -505.023129 
L 533.23459 -487.018296 
L 526.807541 -464.670101 
L 520.380492 -429.859696 
L 513.953443 -436.490007 
L 507.526393 -467.033656 
L 501.099344 -476.857982 
L 494.672295 -510.695016 
L 488.245246 -604.743326 
L 481.818197 -536.511093 
L 475.391148 -529.121283 
L 468.964098 -440.287709 
L 462.537049 -493.422806 
L 456.11 -485.440662 
z
" id="mc458fd68a1" style="stroke:#ff7f0e;"/>
    </defs>
    <g clip-path="url(#p5c67784af2)">
     <use style="fill:#ff7f0e;stroke:#ff7f0e;" x="0" xlink:href="#mc458fd68a1" y="648"/>
    </g>
   </g>
   <g id="matplotlib.axis_3">
    <g id="xtick_13">
     <g id="line2d_23">
      <g>
       <use style="stroke:#000000;stroke-width:0.8;" x="456.11" xlink:href="#m9714dd94b7" y="283.195"/>
      </g>
     </g>
    </g>
    <g id="xtick_14">
     <g id="line2d_24">
      <g>
       <use style="stroke:#000000;stroke-width:0.8;" x="491.750909" xlink:href="#m9714dd94b7" y="283.195"/>
      </g>
     </g>
    </g>
    <g id="xtick_15">
     <g id="line2d_25">
      <g>
       <use style="stroke:#000000;stroke-width:0.8;" x="527.391818" xlink:href="#m9714dd94b7" y="283.195"/>
      </g>
     </g>
    </g>
    <g id="xtick_16">
     <g id="line2d_26">
      <g>
       <use style="stroke:#000000;stroke-width:0.8;" x="563.032727" xlink:href="#m9714dd94b7" y="283.195"/>
      </g>
     </g>
    </g>
    <g id="xtick_17">
     <g id="line2d_27">
      <g>
       <use style="stroke:#000000;stroke-width:0.8;" x="598.673636" xlink:href="#m9714dd94b7" y="283.195"/>
      </g>
     </g>
    </g>
    <g id="xtick_18">
     <g id="line2d_28">
      <g>
       <use style="stroke:#000000;stroke-width:0.8;" x="634.314545" xlink:href="#m9714dd94b7" y="283.195"/>
      </g>
     </g>
    </g>
    <g id="xtick_19">
     <g id="line2d_29">
      <g>
       <use style="stroke:#000000;stroke-width:0.8;" x="669.955455" xlink:href="#m9714dd94b7" y="283.195"/>
      </g>
     </g>
    </g>
    <g id="xtick_20">
     <g id="line2d_30">
      <g>
       <use style="stroke:#000000;stroke-width:0.8;" x="705.596364" xlink:href="#m9714dd94b7" y="283.195"/>
      </g>
     </g>
    </g>
    <g id="xtick_21">
     <g id="line2d_31">
      <g>
       <use style="stroke:#000000;stroke-width:0.8;" x="741.237273" xlink:href="#m9714dd94b7" y="283.195"/>
      </g>
     </g>
    </g>
    <g id="xtick_22">
     <g id="line2d_32">
      <g>
       <use style="stroke:#000000;stroke-width:0.8;" x="776.878182" xlink:href="#m9714dd94b7" y="283.195"/>
      </g>
     </g>
    </g>
    <g id="xtick_23">
     <g id="line2d_33">
      <g>
       <use style="stroke:#000000;stroke-width:0.8;" x="812.519091" xlink:href="#m9714dd94b7" y="283.195"/>
      </g>
     </g>
    </g>
    <g id="xtick_24">
     <g id="line2d_34">
      <g>
       <use style="stroke:#000000;stroke-width:0.8;" x="848.16" xlink:href="#m9714dd94b7" y="283.195"/>
      </g>
     </g>
    </g>
   </g>
   <g id="matplotlib.axis_4">
    <g id="ytick_10">
     <g id="line2d_35">
      <g>
       <use style="stroke:#000000;stroke-width:0.8;" x="456.11" xlink:href="#mc0d18b650b" y="283.195"/>
      </g>
     </g>
    </g>
    <g id="ytick_11">
     <g id="line2d_36">
      <g>
       <use style="stroke:#000000;stroke-width:0.8;" x="456.11" xlink:href="#mc0d18b650b" y="252.775859"/>
      </g>
     </g>
    </g>
    <g id="ytick_12">
     <g id="line2d_37">
      <g>
       <use style="stroke:#000000;stroke-width:0.8;" x="456.11" xlink:href="#mc0d18b650b" y="222.356718"/>
      </g>
     </g>
    </g>
    <g id="ytick_13">
     <g id="line2d_38">
      <g>
       <use style="stroke:#000000;stroke-width:0.8;" x="456.11" xlink:href="#mc0d18b650b" y="191.937577"/>
      </g>
     </g>
    </g>
    <g id="ytick_14">
     <g id="line2d_39">
      <g>
       <use style="stroke:#000000;stroke-width:0.8;" x="456.11" xlink:href="#mc0d18b650b" y="161.518436"/>
      </g>
     </g>
    </g>
    <g id="ytick_15">
     <g id="line2d_40">
      <g>
       <use style="stroke:#000000;stroke-width:0.8;" x="456.11" xlink:href="#mc0d18b650b" y="131.099295"/>
      </g>
     </g>
    </g>
    <g id="ytick_16">
     <g id="line2d_41">
      <g>
       <use style="stroke:#000000;stroke-width:0.8;" x="456.11" xlink:href="#mc0d18b650b" y="100.680154"/>
      </g>
     </g>
    </g>
    <g id="ytick_17">
     <g id="line2d_42">
      <g>
       <use style="stroke:#000000;stroke-width:0.8;" x="456.11" xlink:href="#mc0d18b650b" y="70.261013"/>
      </g>
     </g>
    </g>
    <g id="ytick_18">
     <g id="line2d_43">
      <g>
       <use style="stroke:#000000;stroke-width:0.8;" x="456.11" xlink:href="#mc0d18b650b" y="39.841873"/>
      </g>
     </g>
    </g>
   </g>
   <g id="line2d_44">
    <path clip-path="url(#p5c67784af2)" d="M 456.11 162.559338 
L 462.537049 154.577194 
L 468.964098 207.712291 
L 475.391148 118.878717 
L 481.818197 111.488907 
L 488.245246 43.256674 
L 494.672295 137.304984 
L 501.099344 171.142018 
L 507.526393 180.966344 
L 513.953443 211.509993 
L 520.380492 218.140304 
L 526.807541 183.329899 
L 533.23459 160.981704 
L 539.661639 142.976871 
L 546.088689 195.242508 
L 552.515738 196.823663 
L 558.942787 218.826095 
L 565.369836 226.936187 
L 571.796885 196.068845 
L 578.223934 195.656263 
L 584.650984 215.824378 
L 591.078033 213.664755 
L 597.505082 205.371799 
L 603.932131 243.598291 
L 610.35918 245.704771 
L 616.78623 240.38213 
L 623.213279 220.911003 
L 629.640328 235.201138 
L 636.067377 212.477848 
L 642.494426 227.927155 
L 648.921475 242.977831 
L 655.348525 230.95256 
L 661.775574 237.778079 
L 668.202623 237.845089 
L 674.629672 236.519074 
L 681.056721 240.103968 
L 687.48377 257.337889 
L 693.91082 250.487783 
L 700.337869 249.235017 
L 706.764918 246.62739 
L 713.191967 245.378308 
L 719.619016 248.927288 
L 726.046066 242.324562 
L 732.473115 250.595731 
L 738.900164 258.027227 
L 745.327213 262.035719 
L 751.754262 261.509981 
L 758.181311 253.830703 
L 764.608361 258.805468 
L 771.03541 259.180255 
L 777.462459 263.600117 
L 783.889508 272.521207 
L 790.316557 265.458499 
L 796.743607 266.529969 
L 803.170656 258.43287 
L 809.597705 262.960521 
L 816.024754 256.858271 
L 822.451803 268.413357 
L 828.878852 268.515716 
L 835.305902 270.051243 
L 841.732951 268.705613 
L 848.16 270.84315 
" style="fill:none;stroke:#ff7f0e;stroke-linecap:square;stroke-width:1.5;"/>
   </g>
   <g id="patch_8">
    <path d="M 456.11 283.195 
L 456.11 25.44 
" style="fill:none;stroke:#000000;stroke-linecap:square;stroke-linejoin:miter;stroke-width:0.8;"/>
   </g>
   <g id="patch_9">
    <path d="M 848.16 283.195 
L 848.16 25.44 
" style="fill:none;stroke:#000000;stroke-linecap:square;stroke-linejoin:miter;stroke-width:0.8;"/>
   </g>
   <g id="patch_10">
    <path d="M 456.11 283.195 
L 848.16 283.195 
" style="fill:none;stroke:#000000;stroke-linecap:square;stroke-linejoin:miter;stroke-width:0.8;"/>
   </g>
   <g id="patch_11">
    <path d="M 456.11 25.44 
L 848.16 25.44 
" style="fill:none;stroke:#000000;stroke-linecap:square;stroke-linejoin:miter;stroke-width:0.8;"/>
   </g>
   <g id="text_11">
    <!-- Northeast -->
    <defs>
     <path d="M 9.8125 72.90625 
L 23.09375 72.90625 
L 55.421875 11.921875 
L 55.421875 72.90625 
L 64.984375 72.90625 
L 64.984375 0 
L 51.703125 0 
L 19.390625 60.984375 
L 19.390625 0 
L 9.8125 0 
z
" id="DejaVuSans-4e"/>
     <path d="M 30.609375 48.390625 
Q 23.390625 48.390625 19.1875 42.75 
Q 14.984375 37.109375 14.984375 27.296875 
Q 14.984375 17.484375 19.15625 11.84375 
Q 23.34375 6.203125 30.609375 6.203125 
Q 37.796875 6.203125 41.984375 11.859375 
Q 46.1875 17.53125 46.1875 27.296875 
Q 46.1875 37.015625 41.984375 42.703125 
Q 37.796875 48.390625 30.609375 48.390625 
z
M 30.609375 56 
Q 42.328125 56 49.015625 48.375 
Q 55.71875 40.765625 55.71875 27.296875 
Q 55.71875 13.875 49.015625 6.21875 
Q 42.328125 -1.421875 30.609375 -1.421875 
Q 18.84375 -1.421875 12.171875 6.21875 
Q 5.515625 13.875 5.515625 27.296875 
Q 5.515625 40.765625 12.171875 48.375 
Q 18.84375 56 30.609375 56 
z
" id="DejaVuSans-6f"/>
     <path d="M 41.109375 46.296875 
Q 39.59375 47.171875 37.8125 47.578125 
Q 36.03125 48 33.890625 48 
Q 26.265625 48 22.1875 43.046875 
Q 18.109375 38.09375 18.109375 28.8125 
L 18.109375 0 
L 9.078125 0 
L 9.078125 54.6875 
L 18.109375 54.6875 
L 18.109375 46.1875 
Q 20.953125 51.171875 25.484375 53.578125 
Q 30.03125 56 36.53125 56 
Q 37.453125 56 38.578125 55.875 
Q 39.703125 55.765625 41.0625 55.515625 
z
" id="DejaVuSans-72"/>
     <path d="M 54.890625 33.015625 
L 54.890625 0 
L 45.90625 0 
L 45.90625 32.71875 
Q 45.90625 40.484375 42.875 44.328125 
Q 39.84375 48.1875 33.796875 48.1875 
Q 26.515625 48.1875 22.3125 43.546875 
Q 18.109375 38.921875 18.109375 30.90625 
L 18.109375 0 
L 9.078125 0 
L 9.078125 75.984375 
L 18.109375 75.984375 
L 18.109375 46.1875 
Q 21.34375 51.125 25.703125 53.5625 
Q 30.078125 56 35.796875 56 
Q 45.21875 56 50.046875 50.171875 
Q 54.890625 44.34375 54.890625 33.015625 
z
" id="DejaVuSans-68"/>
     <path d="M 34.28125 27.484375 
Q 23.390625 27.484375 19.1875 25 
Q 14.984375 22.515625 14.984375 16.5 
Q 14.984375 11.71875 18.140625 8.90625 
Q 21.296875 6.109375 26.703125 6.109375 
Q 34.1875 6.109375 38.703125 11.40625 
Q 43.21875 16.703125 43.21875 25.484375 
L 43.21875 27.484375 
z
M 52.203125 31.203125 
L 52.203125 0 
L 43.21875 0 
L 43.21875 8.296875 
Q 40.140625 3.328125 35.546875 0.953125 
Q 30.953125 -1.421875 24.3125 -1.421875 
Q 15.921875 -1.421875 10.953125 3.296875 
Q 6 8.015625 6 15.921875 
Q 6 25.140625 12.171875 29.828125 
Q 18.359375 34.515625 30.609375 34.515625 
L 43.21875 34.515625 
L 43.21875 35.40625 
Q 43.21875 41.609375 39.140625 45 
Q 35.0625 48.390625 27.6875 48.390625 
Q 23 48.390625 18.546875 47.265625 
Q 14.109375 46.140625 10.015625 43.890625 
L 10.015625 52.203125 
Q 14.9375 54.109375 19.578125 55.046875 
Q 24.21875 56 28.609375 56 
Q 40.484375 56 46.34375 49.84375 
Q 52.203125 43.703125 52.203125 31.203125 
z
" id="DejaVuSans-61"/>
    </defs>
    <g transform="translate(622.507188 19.44)scale(0.12 -0.12)">
     <use xlink:href="#DejaVuSans-4e"/>
     <use x="74.804688" xlink:href="#DejaVuSans-6f"/>
     <use x="135.986328" xlink:href="#DejaVuSans-72"/>
     <use x="177.099609" xlink:href="#DejaVuSans-74"/>
     <use x="216.308594" xlink:href="#DejaVuSans-68"/>
     <use x="279.6875" xlink:href="#DejaVuSans-65"/>
     <use x="341.210938" xlink:href="#DejaVuSans-61"/>
     <use x="402.490234" xlink:href="#DejaVuSans-73"/>
     <use x="454.589844" xlink:href="#DejaVuSans-74"/>
    </g>
   </g>
  </g>
  <g id="axes_3">
   <g id="patch_12">
    <path d="M 43.18 572.51 
L 435.23 572.51 
L 435.23 314.755 
L 43.18 314.755 
z
" style="fill:#ffffff;"/>
   </g>
   <g id="PolyCollection_3">
    <defs>
     <path d="M 43.18 -128.122283 
L 43.18 -75.49 
L 49.607049 -75.49 
L 56.034098 -75.49 
L 62.461148 -75.49 
L 68.888197 -75.49 
L 75.315246 -75.49 
L 81.742295 -75.49 
L 88.169344 -75.49 
L 94.596393 -75.49 
L 101.023443 -75.49 
L 107.450492 -75.49 
L 113.877541 -75.49 
L 120.30459 -75.49 
L 126.731639 -75.49 
L 133.158689 -75.49 
L 139.585738 -75.49 
L 146.012787 -75.49 
L 152.439836 -75.49 
L 158.866885 -75.49 
L 165.293934 -75.49 
L 171.720984 -75.49 
L 178.148033 -75.49 
L 184.575082 -75.49 
L 191.002131 -75.49 
L 197.42918 -75.49 
L 203.85623 -75.49 
L 210.283279 -75.49 
L 216.710328 -75.49 
L 223.137377 -75.49 
L 229.564426 -75.49 
L 235.991475 -75.49 
L 242.418525 -75.49 
L 248.845574 -75.49 
L 255.272623 -75.49 
L 261.699672 -75.49 
L 268.126721 -75.49 
L 274.55377 -75.49 
L 280.98082 -75.49 
L 287.407869 -75.49 
L 293.834918 -75.49 
L 300.261967 -75.49 
L 306.689016 -75.49 
L 313.116066 -75.49 
L 319.543115 -75.49 
L 325.970164 -75.49 
L 332.397213 -75.49 
L 338.824262 -75.49 
L 345.251311 -75.49 
L 351.678361 -75.49 
L 358.10541 -75.49 
L 364.532459 -75.49 
L 370.959508 -75.49 
L 377.386557 -75.49 
L 383.813607 -75.49 
L 390.240656 -75.49 
L 396.667705 -75.49 
L 403.094754 -75.49 
L 409.521803 -75.49 
L 415.948852 -75.49 
L 422.375902 -75.49 
L 428.802951 -75.49 
L 435.23 -75.49 
L 435.23 -118.368987 
L 435.23 -118.368987 
L 428.802951 -112.884829 
L 422.375902 -95.411581 
L 415.948852 -96.881839 
L 409.521803 -99.378552 
L 403.094754 -109.967807 
L 396.667705 -112.336258 
L 390.240656 -110.036519 
L 383.813607 -112.302605 
L 377.386557 -102.647649 
L 370.959508 -96.524662 
L 364.532459 -107.842046 
L 358.10541 -107.473818 
L 351.678361 -110.281726 
L 345.251311 -108.802308 
L 338.824262 -119.791926 
L 332.397213 -98.251113 
L 325.970164 -93.323074 
L 319.543115 -101.23938 
L 313.116066 -107.687078 
L 306.689016 -111.7994 
L 300.261967 -116.179913 
L 293.834918 -117.533219 
L 287.407869 -104.290522 
L 280.98082 -98.364144 
L 274.55377 -97.239625 
L 268.126721 -112.794413 
L 261.699672 -116.70154 
L 255.272623 -111.336024 
L 248.845574 -139.788648 
L 242.418525 -98.450069 
L 235.991475 -102.483515 
L 229.564426 -105.825911 
L 223.137377 -118.969214 
L 216.710328 -112.331848 
L 210.283279 -119.917471 
L 203.85623 -105.918316 
L 197.42918 -101.551169 
L 191.002131 -100.966826 
L 184.575082 -112.221103 
L 178.148033 -115.434899 
L 171.720984 -122.447974 
L 165.293934 -119.517309 
L 158.866885 -122.142555 
L 152.439836 -106.348468 
L 146.012787 -98.952623 
L 139.585738 -116.065853 
L 133.158689 -119.306526 
L 126.731639 -128.109422 
L 120.30459 -121.401021 
L 113.877541 -133.560627 
L 107.450492 -116.721003 
L 101.023443 -100.906665 
L 94.596393 -111.674916 
L 88.169344 -133.50247 
L 81.742295 -128.641718 
L 75.315246 -139.866127 
L 68.888197 -138.176128 
L 62.461148 -124.501647 
L 56.034098 -104.698188 
L 49.607049 -111.392637 
L 43.18 -128.122283 
z
" id="md06108800c" style="stroke:#2ca02c;"/>
    </defs>
    <g clip-path="url(#pa511fc028a)">
     <use style="fill:#2ca02c;stroke:#2ca02c;" x="0" xlink:href="#md06108800c" y="648"/>
    </g>
   </g>
   <g id="matplotlib.axis_5">
    <g id="xtick_25">
     <g id="line2d_45">
      <g>
       <use style="stroke:#000000;stroke-width:0.8;" x="43.18" xlink:href="#m9714dd94b7" y="572.51"/>
      </g>
     </g>
     <g id="text_12">
      <!-- 2020-05-02 -->
      <defs>
       <path d="M 4.890625 31.390625 
L 31.203125 31.390625 
L 31.203125 23.390625 
L 4.890625 23.390625 
z
" id="DejaVuSans-2d"/>
       <path d="M 10.796875 72.90625 
L 49.515625 72.90625 
L 49.515625 64.59375 
L 19.828125 64.59375 
L 19.828125 46.734375 
Q 21.96875 47.46875 24.109375 47.828125 
Q 26.265625 48.1875 28.421875 48.1875 
Q 40.625 48.1875 47.75 41.5 
Q 54.890625 34.8125 54.890625 23.390625 
Q 54.890625 11.625 47.5625 5.09375 
Q 40.234375 -1.421875 26.90625 -1.421875 
Q 22.3125 -1.421875 17.546875 -0.640625 
Q 12.796875 0.140625 7.71875 1.703125 
L 7.71875 11.625 
Q 12.109375 9.234375 16.796875 8.0625 
Q 21.484375 6.890625 26.703125 6.890625 
Q 35.15625 6.890625 40.078125 11.328125 
Q 45.015625 15.765625 45.015625 23.390625 
Q 45.015625 31 40.078125 35.4375 
Q 35.15625 39.890625 26.703125 39.890625 
Q 22.75 39.890625 18.8125 39.015625 
Q 14.890625 38.140625 10.796875 36.28125 
z
" id="DejaVuSans-35"/>
      </defs>
      <g transform="translate(45.939375 637.625625)rotate(-90)scale(0.1 -0.1)">
       <use xlink:href="#DejaVuSans-32"/>
       <use x="63.623047" xlink:href="#DejaVuSans-30"/>
       <use x="127.246094" xlink:href="#DejaVuSans-32"/>
       <use x="190.869141" xlink:href="#DejaVuSans-30"/>
       <use x="254.492188" xlink:href="#DejaVuSans-2d"/>
       <use x="290.576172" xlink:href="#DejaVuSans-30"/>
       <use x="354.199219" xlink:href="#DejaVuSans-35"/>
       <use x="417.822266" xlink:href="#DejaVuSans-2d"/>
       <use x="453.90625" xlink:href="#DejaVuSans-30"/>
       <use x="517.529297" xlink:href="#DejaVuSans-32"/>
      </g>
     </g>
    </g>
    <g id="xtick_26">
     <g id="line2d_46">
      <g>
       <use style="stroke:#000000;stroke-width:0.8;" x="78.820909" xlink:href="#m9714dd94b7" y="572.51"/>
      </g>
     </g>
     <g id="text_13">
      <!-- 2020-05-07 -->
      <defs>
       <path d="M 8.203125 72.90625 
L 55.078125 72.90625 
L 55.078125 68.703125 
L 28.609375 0 
L 18.3125 0 
L 43.21875 64.59375 
L 8.203125 64.59375 
z
" id="DejaVuSans-37"/>
      </defs>
      <g transform="translate(81.580284 637.625625)rotate(-90)scale(0.1 -0.1)">
       <use xlink:href="#DejaVuSans-32"/>
       <use x="63.623047" xlink:href="#DejaVuSans-30"/>
       <use x="127.246094" xlink:href="#DejaVuSans-32"/>
       <use x="190.869141" xlink:href="#DejaVuSans-30"/>
       <use x="254.492188" xlink:href="#DejaVuSans-2d"/>
       <use x="290.576172" xlink:href="#DejaVuSans-30"/>
       <use x="354.199219" xlink:href="#DejaVuSans-35"/>
       <use x="417.822266" xlink:href="#DejaVuSans-2d"/>
       <use x="453.90625" xlink:href="#DejaVuSans-30"/>
       <use x="517.529297" xlink:href="#DejaVuSans-37"/>
      </g>
     </g>
    </g>
    <g id="xtick_27">
     <g id="line2d_47">
      <g>
       <use style="stroke:#000000;stroke-width:0.8;" x="114.461818" xlink:href="#m9714dd94b7" y="572.51"/>
      </g>
     </g>
     <g id="text_14">
      <!-- 2020-05-13 -->
      <defs>
       <path d="M 40.578125 39.3125 
Q 47.65625 37.796875 51.625 33 
Q 55.609375 28.21875 55.609375 21.1875 
Q 55.609375 10.40625 48.1875 4.484375 
Q 40.765625 -1.421875 27.09375 -1.421875 
Q 22.515625 -1.421875 17.65625 -0.515625 
Q 12.796875 0.390625 7.625 2.203125 
L 7.625 11.71875 
Q 11.71875 9.328125 16.59375 8.109375 
Q 21.484375 6.890625 26.8125 6.890625 
Q 36.078125 6.890625 40.9375 10.546875 
Q 45.796875 14.203125 45.796875 21.1875 
Q 45.796875 27.640625 41.28125 31.265625 
Q 36.765625 34.90625 28.71875 34.90625 
L 20.21875 34.90625 
L 20.21875 43.015625 
L 29.109375 43.015625 
Q 36.375 43.015625 40.234375 45.921875 
Q 44.09375 48.828125 44.09375 54.296875 
Q 44.09375 59.90625 40.109375 62.90625 
Q 36.140625 65.921875 28.71875 65.921875 
Q 24.65625 65.921875 20.015625 65.03125 
Q 15.375 64.15625 9.8125 62.3125 
L 9.8125 71.09375 
Q 15.4375 72.65625 20.34375 73.4375 
Q 25.25 74.21875 29.59375 74.21875 
Q 40.828125 74.21875 47.359375 69.109375 
Q 53.90625 64.015625 53.90625 55.328125 
Q 53.90625 49.265625 50.4375 45.09375 
Q 46.96875 40.921875 40.578125 39.3125 
z
" id="DejaVuSans-33"/>
      </defs>
      <g transform="translate(117.221193 637.625625)rotate(-90)scale(0.1 -0.1)">
       <use xlink:href="#DejaVuSans-32"/>
       <use x="63.623047" xlink:href="#DejaVuSans-30"/>
       <use x="127.246094" xlink:href="#DejaVuSans-32"/>
       <use x="190.869141" xlink:href="#DejaVuSans-30"/>
       <use x="254.492188" xlink:href="#DejaVuSans-2d"/>
       <use x="290.576172" xlink:href="#DejaVuSans-30"/>
       <use x="354.199219" xlink:href="#DejaVuSans-35"/>
       <use x="417.822266" xlink:href="#DejaVuSans-2d"/>
       <use x="453.90625" xlink:href="#DejaVuSans-31"/>
       <use x="517.529297" xlink:href="#DejaVuSans-33"/>
      </g>
     </g>
    </g>
    <g id="xtick_28">
     <g id="line2d_48">
      <g>
       <use style="stroke:#000000;stroke-width:0.8;" x="150.102727" xlink:href="#m9714dd94b7" y="572.51"/>
      </g>
     </g>
     <g id="text_15">
      <!-- 2020-05-18 -->
      <g transform="translate(152.862102 637.625625)rotate(-90)scale(0.1 -0.1)">
       <use xlink:href="#DejaVuSans-32"/>
       <use x="63.623047" xlink:href="#DejaVuSans-30"/>
       <use x="127.246094" xlink:href="#DejaVuSans-32"/>
       <use x="190.869141" xlink:href="#DejaVuSans-30"/>
       <use x="254.492188" xlink:href="#DejaVuSans-2d"/>
       <use x="290.576172" xlink:href="#DejaVuSans-30"/>
       <use x="354.199219" xlink:href="#DejaVuSans-35"/>
       <use x="417.822266" xlink:href="#DejaVuSans-2d"/>
       <use x="453.90625" xlink:href="#DejaVuSans-31"/>
       <use x="517.529297" xlink:href="#DejaVuSans-38"/>
      </g>
     </g>
    </g>
    <g id="xtick_29">
     <g id="line2d_49">
      <g>
       <use style="stroke:#000000;stroke-width:0.8;" x="185.743636" xlink:href="#m9714dd94b7" y="572.51"/>
      </g>
     </g>
     <g id="text_16">
      <!-- 2020-05-24 -->
      <g transform="translate(188.503011 637.625625)rotate(-90)scale(0.1 -0.1)">
       <use xlink:href="#DejaVuSans-32"/>
       <use x="63.623047" xlink:href="#DejaVuSans-30"/>
       <use x="127.246094" xlink:href="#DejaVuSans-32"/>
       <use x="190.869141" xlink:href="#DejaVuSans-30"/>
       <use x="254.492188" xlink:href="#DejaVuSans-2d"/>
       <use x="290.576172" xlink:href="#DejaVuSans-30"/>
       <use x="354.199219" xlink:href="#DejaVuSans-35"/>
       <use x="417.822266" xlink:href="#DejaVuSans-2d"/>
       <use x="453.90625" xlink:href="#DejaVuSans-32"/>
       <use x="517.529297" xlink:href="#DejaVuSans-34"/>
      </g>
     </g>
    </g>
    <g id="xtick_30">
     <g id="line2d_50">
      <g>
       <use style="stroke:#000000;stroke-width:0.8;" x="221.384545" xlink:href="#m9714dd94b7" y="572.51"/>
      </g>
     </g>
     <g id="text_17">
      <!-- 2020-05-29 -->
      <defs>
       <path d="M 10.984375 1.515625 
L 10.984375 10.5 
Q 14.703125 8.734375 18.5 7.8125 
Q 22.3125 6.890625 25.984375 6.890625 
Q 35.75 6.890625 40.890625 13.453125 
Q 46.046875 20.015625 46.78125 33.40625 
Q 43.953125 29.203125 39.59375 26.953125 
Q 35.25 24.703125 29.984375 24.703125 
Q 19.046875 24.703125 12.671875 31.3125 
Q 6.296875 37.9375 6.296875 49.421875 
Q 6.296875 60.640625 12.9375 67.421875 
Q 19.578125 74.21875 30.609375 74.21875 
Q 43.265625 74.21875 49.921875 64.515625 
Q 56.59375 54.828125 56.59375 36.375 
Q 56.59375 19.140625 48.40625 8.859375 
Q 40.234375 -1.421875 26.421875 -1.421875 
Q 22.703125 -1.421875 18.890625 -0.6875 
Q 15.09375 0.046875 10.984375 1.515625 
z
M 30.609375 32.421875 
Q 37.25 32.421875 41.125 36.953125 
Q 45.015625 41.5 45.015625 49.421875 
Q 45.015625 57.28125 41.125 61.84375 
Q 37.25 66.40625 30.609375 66.40625 
Q 23.96875 66.40625 20.09375 61.84375 
Q 16.21875 57.28125 16.21875 49.421875 
Q 16.21875 41.5 20.09375 36.953125 
Q 23.96875 32.421875 30.609375 32.421875 
z
" id="DejaVuSans-39"/>
      </defs>
      <g transform="translate(224.14392 637.625625)rotate(-90)scale(0.1 -0.1)">
       <use xlink:href="#DejaVuSans-32"/>
       <use x="63.623047" xlink:href="#DejaVuSans-30"/>
       <use x="127.246094" xlink:href="#DejaVuSans-32"/>
       <use x="190.869141" xlink:href="#DejaVuSans-30"/>
       <use x="254.492188" xlink:href="#DejaVuSans-2d"/>
       <use x="290.576172" xlink:href="#DejaVuSans-30"/>
       <use x="354.199219" xlink:href="#DejaVuSans-35"/>
       <use x="417.822266" xlink:href="#DejaVuSans-2d"/>
       <use x="453.90625" xlink:href="#DejaVuSans-32"/>
       <use x="517.529297" xlink:href="#DejaVuSans-39"/>
      </g>
     </g>
    </g>
    <g id="xtick_31">
     <g id="line2d_51">
      <g>
       <use style="stroke:#000000;stroke-width:0.8;" x="257.025455" xlink:href="#m9714dd94b7" y="572.51"/>
      </g>
     </g>
     <g id="text_18">
      <!-- 2020-06-04 -->
      <g transform="translate(259.78483 637.625625)rotate(-90)scale(0.1 -0.1)">
       <use xlink:href="#DejaVuSans-32"/>
       <use x="63.623047" xlink:href="#DejaVuSans-30"/>
       <use x="127.246094" xlink:href="#DejaVuSans-32"/>
       <use x="190.869141" xlink:href="#DejaVuSans-30"/>
       <use x="254.492188" xlink:href="#DejaVuSans-2d"/>
       <use x="290.576172" xlink:href="#DejaVuSans-30"/>
       <use x="354.199219" xlink:href="#DejaVuSans-36"/>
       <use x="417.822266" xlink:href="#DejaVuSans-2d"/>
       <use x="453.90625" xlink:href="#DejaVuSans-30"/>
       <use x="517.529297" xlink:href="#DejaVuSans-34"/>
      </g>
     </g>
    </g>
    <g id="xtick_32">
     <g id="line2d_52">
      <g>
       <use style="stroke:#000000;stroke-width:0.8;" x="292.666364" xlink:href="#m9714dd94b7" y="572.51"/>
      </g>
     </g>
     <g id="text_19">
      <!-- 2020-06-09 -->
      <g transform="translate(295.425739 637.625625)rotate(-90)scale(0.1 -0.1)">
       <use xlink:href="#DejaVuSans-32"/>
       <use x="63.623047" xlink:href="#DejaVuSans-30"/>
       <use x="127.246094" xlink:href="#DejaVuSans-32"/>
       <use x="190.869141" xlink:href="#DejaVuSans-30"/>
       <use x="254.492188" xlink:href="#DejaVuSans-2d"/>
       <use x="290.576172" xlink:href="#DejaVuSans-30"/>
       <use x="354.199219" xlink:href="#DejaVuSans-36"/>
       <use x="417.822266" xlink:href="#DejaVuSans-2d"/>
       <use x="453.90625" xlink:href="#DejaVuSans-30"/>
       <use x="517.529297" xlink:href="#DejaVuSans-39"/>
      </g>
     </g>
    </g>
    <g id="xtick_33">
     <g id="line2d_53">
      <g>
       <use style="stroke:#000000;stroke-width:0.8;" x="328.307273" xlink:href="#m9714dd94b7" y="572.51"/>
      </g>
     </g>
     <g id="text_20">
      <!-- 2020-06-15 -->
      <g transform="translate(331.066648 637.625625)rotate(-90)scale(0.1 -0.1)">
       <use xlink:href="#DejaVuSans-32"/>
       <use x="63.623047" xlink:href="#DejaVuSans-30"/>
       <use x="127.246094" xlink:href="#DejaVuSans-32"/>
       <use x="190.869141" xlink:href="#DejaVuSans-30"/>
       <use x="254.492188" xlink:href="#DejaVuSans-2d"/>
       <use x="290.576172" xlink:href="#DejaVuSans-30"/>
       <use x="354.199219" xlink:href="#DejaVuSans-36"/>
       <use x="417.822266" xlink:href="#DejaVuSans-2d"/>
       <use x="453.90625" xlink:href="#DejaVuSans-31"/>
       <use x="517.529297" xlink:href="#DejaVuSans-35"/>
      </g>
     </g>
    </g>
    <g id="xtick_34">
     <g id="line2d_54">
      <g>
       <use style="stroke:#000000;stroke-width:0.8;" x="363.948182" xlink:href="#m9714dd94b7" y="572.51"/>
      </g>
     </g>
     <g id="text_21">
      <!-- 2020-06-20 -->
      <g transform="translate(366.707557 637.625625)rotate(-90)scale(0.1 -0.1)">
       <use xlink:href="#DejaVuSans-32"/>
       <use x="63.623047" xlink:href="#DejaVuSans-30"/>
       <use x="127.246094" xlink:href="#DejaVuSans-32"/>
       <use x="190.869141" xlink:href="#DejaVuSans-30"/>
       <use x="254.492188" xlink:href="#DejaVuSans-2d"/>
       <use x="290.576172" xlink:href="#DejaVuSans-30"/>
       <use x="354.199219" xlink:href="#DejaVuSans-36"/>
       <use x="417.822266" xlink:href="#DejaVuSans-2d"/>
       <use x="453.90625" xlink:href="#DejaVuSans-32"/>
       <use x="517.529297" xlink:href="#DejaVuSans-30"/>
      </g>
     </g>
    </g>
    <g id="xtick_35">
     <g id="line2d_55">
      <g>
       <use style="stroke:#000000;stroke-width:0.8;" x="399.589091" xlink:href="#m9714dd94b7" y="572.51"/>
      </g>
     </g>
     <g id="text_22">
      <!-- 2020-06-26 -->
      <g transform="translate(402.348466 637.625625)rotate(-90)scale(0.1 -0.1)">
       <use xlink:href="#DejaVuSans-32"/>
       <use x="63.623047" xlink:href="#DejaVuSans-30"/>
       <use x="127.246094" xlink:href="#DejaVuSans-32"/>
       <use x="190.869141" xlink:href="#DejaVuSans-30"/>
       <use x="254.492188" xlink:href="#DejaVuSans-2d"/>
       <use x="290.576172" xlink:href="#DejaVuSans-30"/>
       <use x="354.199219" xlink:href="#DejaVuSans-36"/>
       <use x="417.822266" xlink:href="#DejaVuSans-2d"/>
       <use x="453.90625" xlink:href="#DejaVuSans-32"/>
       <use x="517.529297" xlink:href="#DejaVuSans-36"/>
      </g>
     </g>
    </g>
    <g id="xtick_36">
     <g id="line2d_56">
      <g>
       <use style="stroke:#000000;stroke-width:0.8;" x="435.23" xlink:href="#m9714dd94b7" y="572.51"/>
      </g>
     </g>
     <g id="text_23">
      <!-- 2020-07-02 -->
      <g transform="translate(437.989375 637.625625)rotate(-90)scale(0.1 -0.1)">
       <use xlink:href="#DejaVuSans-32"/>
       <use x="63.623047" xlink:href="#DejaVuSans-30"/>
       <use x="127.246094" xlink:href="#DejaVuSans-32"/>
       <use x="190.869141" xlink:href="#DejaVuSans-30"/>
       <use x="254.492188" xlink:href="#DejaVuSans-2d"/>
       <use x="290.576172" xlink:href="#DejaVuSans-30"/>
       <use x="354.199219" xlink:href="#DejaVuSans-37"/>
       <use x="417.822266" xlink:href="#DejaVuSans-2d"/>
       <use x="453.90625" xlink:href="#DejaVuSans-30"/>
       <use x="517.529297" xlink:href="#DejaVuSans-32"/>
      </g>
     </g>
    </g>
   </g>
   <g id="matplotlib.axis_6">
    <g id="ytick_19">
     <g id="line2d_57">
      <g>
       <use style="stroke:#000000;stroke-width:0.8;" x="43.18" xlink:href="#mc0d18b650b" y="572.51"/>
      </g>
     </g>
     <g id="text_24">
      <!-- 0 -->
      <g transform="translate(29.8175 576.309219)scale(0.1 -0.1)">
       <use xlink:href="#DejaVuSans-30"/>
      </g>
     </g>
    </g>
    <g id="ytick_20">
     <g id="line2d_58">
      <g>
       <use style="stroke:#000000;stroke-width:0.8;" x="43.18" xlink:href="#mc0d18b650b" y="542.090859"/>
      </g>
     </g>
     <g id="text_25">
      <!-- 200 -->
      <g transform="translate(17.0925 545.890078)scale(0.1 -0.1)">
       <use xlink:href="#DejaVuSans-32"/>
       <use x="63.623047" xlink:href="#DejaVuSans-30"/>
       <use x="127.246094" xlink:href="#DejaVuSans-30"/>
      </g>
     </g>
    </g>
    <g id="ytick_21">
     <g id="line2d_59">
      <g>
       <use style="stroke:#000000;stroke-width:0.8;" x="43.18" xlink:href="#mc0d18b650b" y="511.671718"/>
      </g>
     </g>
     <g id="text_26">
      <!-- 400 -->
      <g transform="translate(17.0925 515.470937)scale(0.1 -0.1)">
       <use xlink:href="#DejaVuSans-34"/>
       <use x="63.623047" xlink:href="#DejaVuSans-30"/>
       <use x="127.246094" xlink:href="#DejaVuSans-30"/>
      </g>
     </g>
    </g>
    <g id="ytick_22">
     <g id="line2d_60">
      <g>
       <use style="stroke:#000000;stroke-width:0.8;" x="43.18" xlink:href="#mc0d18b650b" y="481.252577"/>
      </g>
     </g>
     <g id="text_27">
      <!-- 600 -->
      <g transform="translate(17.0925 485.051796)scale(0.1 -0.1)">
       <use xlink:href="#DejaVuSans-36"/>
       <use x="63.623047" xlink:href="#DejaVuSans-30"/>
       <use x="127.246094" xlink:href="#DejaVuSans-30"/>
      </g>
     </g>
    </g>
    <g id="ytick_23">
     <g id="line2d_61">
      <g>
       <use style="stroke:#000000;stroke-width:0.8;" x="43.18" xlink:href="#mc0d18b650b" y="450.833436"/>
      </g>
     </g>
     <g id="text_28">
      <!-- 800 -->
      <g transform="translate(17.0925 454.632655)scale(0.1 -0.1)">
       <use xlink:href="#DejaVuSans-38"/>
       <use x="63.623047" xlink:href="#DejaVuSans-30"/>
       <use x="127.246094" xlink:href="#DejaVuSans-30"/>
      </g>
     </g>
    </g>
    <g id="ytick_24">
     <g id="line2d_62">
      <g>
       <use style="stroke:#000000;stroke-width:0.8;" x="43.18" xlink:href="#mc0d18b650b" y="420.414295"/>
      </g>
     </g>
     <g id="text_29">
      <!-- 1000 -->
      <g transform="translate(10.73 424.213514)scale(0.1 -0.1)">
       <use xlink:href="#DejaVuSans-31"/>
       <use x="63.623047" xlink:href="#DejaVuSans-30"/>
       <use x="127.246094" xlink:href="#DejaVuSans-30"/>
       <use x="190.869141" xlink:href="#DejaVuSans-30"/>
      </g>
     </g>
    </g>
    <g id="ytick_25">
     <g id="line2d_63">
      <g>
       <use style="stroke:#000000;stroke-width:0.8;" x="43.18" xlink:href="#mc0d18b650b" y="389.995154"/>
      </g>
     </g>
     <g id="text_30">
      <!-- 1200 -->
      <g transform="translate(10.73 393.794373)scale(0.1 -0.1)">
       <use xlink:href="#DejaVuSans-31"/>
       <use x="63.623047" xlink:href="#DejaVuSans-32"/>
       <use x="127.246094" xlink:href="#DejaVuSans-30"/>
       <use x="190.869141" xlink:href="#DejaVuSans-30"/>
      </g>
     </g>
    </g>
    <g id="ytick_26">
     <g id="line2d_64">
      <g>
       <use style="stroke:#000000;stroke-width:0.8;" x="43.18" xlink:href="#mc0d18b650b" y="359.576013"/>
      </g>
     </g>
     <g id="text_31">
      <!-- 1400 -->
      <g transform="translate(10.73 363.375232)scale(0.1 -0.1)">
       <use xlink:href="#DejaVuSans-31"/>
       <use x="63.623047" xlink:href="#DejaVuSans-34"/>
       <use x="127.246094" xlink:href="#DejaVuSans-30"/>
       <use x="190.869141" xlink:href="#DejaVuSans-30"/>
      </g>
     </g>
    </g>
    <g id="ytick_27">
     <g id="line2d_65">
      <g>
       <use style="stroke:#000000;stroke-width:0.8;" x="43.18" xlink:href="#mc0d18b650b" y="329.156873"/>
      </g>
     </g>
     <g id="text_32">
      <!-- 1600 -->
      <g transform="translate(10.73 332.956091)scale(0.1 -0.1)">
       <use xlink:href="#DejaVuSans-31"/>
       <use x="63.623047" xlink:href="#DejaVuSans-36"/>
       <use x="127.246094" xlink:href="#DejaVuSans-30"/>
       <use x="190.869141" xlink:href="#DejaVuSans-30"/>
      </g>
     </g>
    </g>
   </g>
   <g id="line2d_66">
    <path clip-path="url(#pa511fc028a)" d="M 43.18 519.877717 
L 49.607049 536.607363 
L 56.034098 543.301812 
L 62.461148 523.498353 
L 68.888197 509.823872 
L 75.315246 508.133873 
L 81.742295 519.358282 
L 88.169344 514.49753 
L 94.596393 536.325084 
L 101.023443 547.093335 
L 107.450492 531.278997 
L 113.877541 514.439373 
L 120.30459 526.598979 
L 126.731639 519.890578 
L 133.158689 528.693474 
L 139.585738 531.934147 
L 146.012787 549.047377 
L 152.439836 541.651532 
L 158.866885 525.857445 
L 165.293934 528.482691 
L 171.720984 525.552026 
L 178.148033 532.565101 
L 184.575082 535.778897 
L 191.002131 547.033174 
L 197.42918 546.448831 
L 203.85623 542.081684 
L 210.283279 528.082529 
L 216.710328 535.668152 
L 223.137377 529.030786 
L 229.564426 542.174089 
L 235.991475 545.516485 
L 242.418525 549.549931 
L 248.845574 508.211352 
L 255.272623 536.663976 
L 261.699672 531.29846 
L 268.126721 535.205587 
L 274.55377 550.760375 
L 280.98082 549.635856 
L 287.407869 543.709478 
L 293.834918 530.466781 
L 300.261967 531.820087 
L 306.689016 536.2006 
L 313.116066 540.312922 
L 319.543115 546.76062 
L 325.970164 554.676926 
L 332.397213 549.748887 
L 338.824262 528.208074 
L 345.251311 539.197692 
L 351.678361 537.718274 
L 358.10541 540.526182 
L 364.532459 540.157954 
L 370.959508 551.475338 
L 377.386557 545.352351 
L 383.813607 535.697395 
L 390.240656 537.963481 
L 396.667705 535.663742 
L 403.094754 538.032193 
L 409.521803 548.621448 
L 415.948852 551.118161 
L 422.375902 552.588419 
L 428.802951 535.115171 
L 435.23 529.631013 
" style="fill:none;stroke:#2ca02c;stroke-linecap:square;stroke-width:1.5;"/>
   </g>
   <g id="patch_13">
    <path d="M 43.18 572.51 
L 43.18 314.755 
" style="fill:none;stroke:#000000;stroke-linecap:square;stroke-linejoin:miter;stroke-width:0.8;"/>
   </g>
   <g id="patch_14">
    <path d="M 435.23 572.51 
L 435.23 314.755 
" style="fill:none;stroke:#000000;stroke-linecap:square;stroke-linejoin:miter;stroke-width:0.8;"/>
   </g>
   <g id="patch_15">
    <path d="M 43.18 572.51 
L 435.23 572.51 
" style="fill:none;stroke:#000000;stroke-linecap:square;stroke-linejoin:miter;stroke-width:0.8;"/>
   </g>
   <g id="patch_16">
    <path d="M 43.18 314.755 
L 435.23 314.755 
" style="fill:none;stroke:#000000;stroke-linecap:square;stroke-linejoin:miter;stroke-width:0.8;"/>
   </g>
   <g id="text_33">
    <!-- South -->
    <defs>
     <path d="M 53.515625 70.515625 
L 53.515625 60.890625 
Q 47.90625 63.578125 42.921875 64.890625 
Q 37.9375 66.21875 33.296875 66.21875 
Q 25.25 66.21875 20.875 63.09375 
Q 16.5 59.96875 16.5 54.203125 
Q 16.5 49.359375 19.40625 46.890625 
Q 22.3125 44.4375 30.421875 42.921875 
L 36.375 41.703125 
Q 47.40625 39.59375 52.65625 34.296875 
Q 57.90625 29 57.90625 20.125 
Q 57.90625 9.515625 50.796875 4.046875 
Q 43.703125 -1.421875 29.984375 -1.421875 
Q 24.8125 -1.421875 18.96875 -0.25 
Q 13.140625 0.921875 6.890625 3.21875 
L 6.890625 13.375 
Q 12.890625 10.015625 18.65625 8.296875 
Q 24.421875 6.59375 29.984375 6.59375 
Q 38.421875 6.59375 43.015625 9.90625 
Q 47.609375 13.234375 47.609375 19.390625 
Q 47.609375 24.75 44.3125 27.78125 
Q 41.015625 30.8125 33.5 32.328125 
L 27.484375 33.5 
Q 16.453125 35.6875 11.515625 40.375 
Q 6.59375 45.0625 6.59375 53.421875 
Q 6.59375 63.09375 13.40625 68.65625 
Q 20.21875 74.21875 32.171875 74.21875 
Q 37.3125 74.21875 42.625 73.28125 
Q 47.953125 72.359375 53.515625 70.515625 
z
" id="DejaVuSans-53"/>
     <path d="M 8.5 21.578125 
L 8.5 54.6875 
L 17.484375 54.6875 
L 17.484375 21.921875 
Q 17.484375 14.15625 20.5 10.265625 
Q 23.53125 6.390625 29.59375 6.390625 
Q 36.859375 6.390625 41.078125 11.03125 
Q 45.3125 15.671875 45.3125 23.6875 
L 45.3125 54.6875 
L 54.296875 54.6875 
L 54.296875 0 
L 45.3125 0 
L 45.3125 8.40625 
Q 42.046875 3.421875 37.71875 1 
Q 33.40625 -1.421875 27.6875 -1.421875 
Q 18.265625 -1.421875 13.375 4.4375 
Q 8.5 10.296875 8.5 21.578125 
z
M 31.109375 56 
z
" id="DejaVuSans-75"/>
    </defs>
    <g transform="translate(221.7675 308.755)scale(0.12 -0.12)">
     <use xlink:href="#DejaVuSans-53"/>
     <use x="63.476562" xlink:href="#DejaVuSans-6f"/>
     <use x="124.658203" xlink:href="#DejaVuSans-75"/>
     <use x="188.037109" xlink:href="#DejaVuSans-74"/>
     <use x="227.246094" xlink:href="#DejaVuSans-68"/>
    </g>
   </g>
  </g>
  <g id="axes_4">
   <g id="patch_17">
    <path d="M 456.11 572.51 
L 848.16 572.51 
L 848.16 314.755 
L 456.11 314.755 
z
" style="fill:#ffffff;"/>
   </g>
   <g id="PolyCollection_4">
    <defs>
     <path d="M 456.11 -97.754753 
L 456.11 -75.49 
L 462.537049 -75.49 
L 468.964098 -75.49 
L 475.391148 -75.49 
L 481.818197 -75.49 
L 488.245246 -75.49 
L 494.672295 -75.49 
L 501.099344 -75.49 
L 507.526393 -75.49 
L 513.953443 -75.49 
L 520.380492 -75.49 
L 526.807541 -75.49 
L 533.23459 -75.49 
L 539.661639 -75.49 
L 546.088689 -75.49 
L 552.515738 -75.49 
L 558.942787 -75.49 
L 565.369836 -75.49 
L 571.796885 -75.49 
L 578.223934 -75.49 
L 584.650984 -75.49 
L 591.078033 -75.49 
L 597.505082 -75.49 
L 603.932131 -75.49 
L 610.35918 -75.49 
L 616.78623 -75.49 
L 623.213279 -75.49 
L 629.640328 -75.49 
L 636.067377 -75.49 
L 642.494426 -75.49 
L 648.921475 -75.49 
L 655.348525 -75.49 
L 661.775574 -75.49 
L 668.202623 -75.49 
L 674.629672 -75.49 
L 681.056721 -75.49 
L 687.48377 -75.49 
L 693.91082 -75.49 
L 700.337869 -75.49 
L 706.764918 -75.49 
L 713.191967 -75.49 
L 719.619016 -75.49 
L 726.046066 -75.49 
L 732.473115 -75.49 
L 738.900164 -75.49 
L 745.327213 -75.49 
L 751.754262 -75.49 
L 758.181311 -75.49 
L 764.608361 -75.49 
L 771.03541 -75.49 
L 777.462459 -75.49 
L 783.889508 -75.49 
L 790.316557 -75.49 
L 796.743607 -75.49 
L 803.170656 -75.49 
L 809.597705 -75.49 
L 816.024754 -75.49 
L 822.451803 -75.49 
L 828.878852 -75.49 
L 835.305902 -75.49 
L 841.732951 -75.49 
L 848.16 -75.49 
L 848.16 -102.441173 
L 848.16 -102.441173 
L 841.732951 -93.785552 
L 835.305902 -88.05197 
L 828.878852 -87.638473 
L 822.451803 -88.172488 
L 816.024754 -101.218073 
L 809.597705 -101.315773 
L 803.170656 -100.020458 
L 796.743607 -85.957252 
L 790.316557 -84.581769 
L 783.889508 -84.515564 
L 777.462459 -101.725729 
L 771.03541 -93.628898 
L 764.608361 -91.412372 
L 758.181311 -95.444313 
L 751.754262 -86.838806 
L 745.327213 -88.322924 
L 738.900164 -88.424788 
L 732.473115 -89.024669 
L 726.046066 -95.340782 
L 719.619016 -101.658464 
L 713.191967 -96.601676 
L 706.764918 -90.160187 
L 700.337869 -85.061657 
L 693.91082 -90.958308 
L 687.48377 -92.184481 
L 681.056721 -92.700347 
L 674.629672 -92.18648 
L 668.202623 -99.685505 
L 661.775574 -89.049282 
L 655.348525 -85.982864 
L 648.921475 -90.077987 
L 642.494426 -94.320349 
L 636.067377 -106.415226 
L 629.640328 -95.484211 
L 623.213279 -99.392846 
L 616.78623 -83.657044 
L 610.35918 -82.061637 
L 603.932131 -90.104218 
L 597.505082 -97.341015 
L 591.078033 -233.109199 
L 584.650984 40.905161 
L 578.223934 -103.435974 
L 571.796885 -99.83573 
L 565.369836 -88.647908 
L 558.942787 -88.274724 
L 552.515738 -106.748886 
L 546.088689 -102.077644 
L 539.661639 -103.331757 
L 533.23459 -105.496004 
L 526.807541 -103.069886 
L 520.380492 -88.14136 
L 513.953443 -92.329483 
L 507.526393 -97.278739 
L 501.099344 -102.465171 
L 494.672295 -105.638429 
L 488.245246 -101.517811 
L 481.818197 -95.97122 
L 475.391148 -92.602114 
L 468.964098 -91.418287 
L 462.537049 -101.766425 
L 456.11 -97.754753 
z
" id="med2d878cee" style="stroke:#d62728;"/>
    </defs>
    <g clip-path="url(#p9a108463d8)">
     <use style="fill:#d62728;stroke:#d62728;" x="0" xlink:href="#med2d878cee" y="648"/>
    </g>
   </g>
   <g id="matplotlib.axis_7">
    <g id="xtick_37">
     <g id="line2d_67">
      <g>
       <use style="stroke:#000000;stroke-width:0.8;" x="456.11" xlink:href="#m9714dd94b7" y="572.51"/>
      </g>
     </g>
     <g id="text_34">
      <!-- 2020-05-02 -->
      <g transform="translate(458.869375 637.625625)rotate(-90)scale(0.1 -0.1)">
       <use xlink:href="#DejaVuSans-32"/>
       <use x="63.623047" xlink:href="#DejaVuSans-30"/>
       <use x="127.246094" xlink:href="#DejaVuSans-32"/>
       <use x="190.869141" xlink:href="#DejaVuSans-30"/>
       <use x="254.492188" xlink:href="#DejaVuSans-2d"/>
       <use x="290.576172" xlink:href="#DejaVuSans-30"/>
       <use x="354.199219" xlink:href="#DejaVuSans-35"/>
       <use x="417.822266" xlink:href="#DejaVuSans-2d"/>
       <use x="453.90625" xlink:href="#DejaVuSans-30"/>
       <use x="517.529297" xlink:href="#DejaVuSans-32"/>
      </g>
     </g>
    </g>
    <g id="xtick_38">
     <g id="line2d_68">
      <g>
       <use style="stroke:#000000;stroke-width:0.8;" x="491.750909" xlink:href="#m9714dd94b7" y="572.51"/>
      </g>
     </g>
     <g id="text_35">
      <!-- 2020-05-07 -->
      <g transform="translate(494.510284 637.625625)rotate(-90)scale(0.1 -0.1)">
       <use xlink:href="#DejaVuSans-32"/>
       <use x="63.623047" xlink:href="#DejaVuSans-30"/>
       <use x="127.246094" xlink:href="#DejaVuSans-32"/>
       <use x="190.869141" xlink:href="#DejaVuSans-30"/>
       <use x="254.492188" xlink:href="#DejaVuSans-2d"/>
       <use x="290.576172" xlink:href="#DejaVuSans-30"/>
       <use x="354.199219" xlink:href="#DejaVuSans-35"/>
       <use x="417.822266" xlink:href="#DejaVuSans-2d"/>
       <use x="453.90625" xlink:href="#DejaVuSans-30"/>
       <use x="517.529297" xlink:href="#DejaVuSans-37"/>
      </g>
     </g>
    </g>
    <g id="xtick_39">
     <g id="line2d_69">
      <g>
       <use style="stroke:#000000;stroke-width:0.8;" x="527.391818" xlink:href="#m9714dd94b7" y="572.51"/>
      </g>
     </g>
     <g id="text_36">
      <!-- 2020-05-13 -->
      <g transform="translate(530.151193 637.625625)rotate(-90)scale(0.1 -0.1)">
       <use xlink:href="#DejaVuSans-32"/>
       <use x="63.623047" xlink:href="#DejaVuSans-30"/>
       <use x="127.246094" xlink:href="#DejaVuSans-32"/>
       <use x="190.869141" xlink:href="#DejaVuSans-30"/>
       <use x="254.492188" xlink:href="#DejaVuSans-2d"/>
       <use x="290.576172" xlink:href="#DejaVuSans-30"/>
       <use x="354.199219" xlink:href="#DejaVuSans-35"/>
       <use x="417.822266" xlink:href="#DejaVuSans-2d"/>
       <use x="453.90625" xlink:href="#DejaVuSans-31"/>
       <use x="517.529297" xlink:href="#DejaVuSans-33"/>
      </g>
     </g>
    </g>
    <g id="xtick_40">
     <g id="line2d_70">
      <g>
       <use style="stroke:#000000;stroke-width:0.8;" x="563.032727" xlink:href="#m9714dd94b7" y="572.51"/>
      </g>
     </g>
     <g id="text_37">
      <!-- 2020-05-18 -->
      <g transform="translate(565.792102 637.625625)rotate(-90)scale(0.1 -0.1)">
       <use xlink:href="#DejaVuSans-32"/>
       <use x="63.623047" xlink:href="#DejaVuSans-30"/>
       <use x="127.246094" xlink:href="#DejaVuSans-32"/>
       <use x="190.869141" xlink:href="#DejaVuSans-30"/>
       <use x="254.492188" xlink:href="#DejaVuSans-2d"/>
       <use x="290.576172" xlink:href="#DejaVuSans-30"/>
       <use x="354.199219" xlink:href="#DejaVuSans-35"/>
       <use x="417.822266" xlink:href="#DejaVuSans-2d"/>
       <use x="453.90625" xlink:href="#DejaVuSans-31"/>
       <use x="517.529297" xlink:href="#DejaVuSans-38"/>
      </g>
     </g>
    </g>
    <g id="xtick_41">
     <g id="line2d_71">
      <g>
       <use style="stroke:#000000;stroke-width:0.8;" x="598.673636" xlink:href="#m9714dd94b7" y="572.51"/>
      </g>
     </g>
     <g id="text_38">
      <!-- 2020-05-24 -->
      <g transform="translate(601.433011 637.625625)rotate(-90)scale(0.1 -0.1)">
       <use xlink:href="#DejaVuSans-32"/>
       <use x="63.623047" xlink:href="#DejaVuSans-30"/>
       <use x="127.246094" xlink:href="#DejaVuSans-32"/>
       <use x="190.869141" xlink:href="#DejaVuSans-30"/>
       <use x="254.492188" xlink:href="#DejaVuSans-2d"/>
       <use x="290.576172" xlink:href="#DejaVuSans-30"/>
       <use x="354.199219" xlink:href="#DejaVuSans-35"/>
       <use x="417.822266" xlink:href="#DejaVuSans-2d"/>
       <use x="453.90625" xlink:href="#DejaVuSans-32"/>
       <use x="517.529297" xlink:href="#DejaVuSans-34"/>
      </g>
     </g>
    </g>
    <g id="xtick_42">
     <g id="line2d_72">
      <g>
       <use style="stroke:#000000;stroke-width:0.8;" x="634.314545" xlink:href="#m9714dd94b7" y="572.51"/>
      </g>
     </g>
     <g id="text_39">
      <!-- 2020-05-29 -->
      <g transform="translate(637.07392 637.625625)rotate(-90)scale(0.1 -0.1)">
       <use xlink:href="#DejaVuSans-32"/>
       <use x="63.623047" xlink:href="#DejaVuSans-30"/>
       <use x="127.246094" xlink:href="#DejaVuSans-32"/>
       <use x="190.869141" xlink:href="#DejaVuSans-30"/>
       <use x="254.492188" xlink:href="#DejaVuSans-2d"/>
       <use x="290.576172" xlink:href="#DejaVuSans-30"/>
       <use x="354.199219" xlink:href="#DejaVuSans-35"/>
       <use x="417.822266" xlink:href="#DejaVuSans-2d"/>
       <use x="453.90625" xlink:href="#DejaVuSans-32"/>
       <use x="517.529297" xlink:href="#DejaVuSans-39"/>
      </g>
     </g>
    </g>
    <g id="xtick_43">
     <g id="line2d_73">
      <g>
       <use style="stroke:#000000;stroke-width:0.8;" x="669.955455" xlink:href="#m9714dd94b7" y="572.51"/>
      </g>
     </g>
     <g id="text_40">
      <!-- 2020-06-04 -->
      <g transform="translate(672.71483 637.625625)rotate(-90)scale(0.1 -0.1)">
       <use xlink:href="#DejaVuSans-32"/>
       <use x="63.623047" xlink:href="#DejaVuSans-30"/>
       <use x="127.246094" xlink:href="#DejaVuSans-32"/>
       <use x="190.869141" xlink:href="#DejaVuSans-30"/>
       <use x="254.492188" xlink:href="#DejaVuSans-2d"/>
       <use x="290.576172" xlink:href="#DejaVuSans-30"/>
       <use x="354.199219" xlink:href="#DejaVuSans-36"/>
       <use x="417.822266" xlink:href="#DejaVuSans-2d"/>
       <use x="453.90625" xlink:href="#DejaVuSans-30"/>
       <use x="517.529297" xlink:href="#DejaVuSans-34"/>
      </g>
     </g>
    </g>
    <g id="xtick_44">
     <g id="line2d_74">
      <g>
       <use style="stroke:#000000;stroke-width:0.8;" x="705.596364" xlink:href="#m9714dd94b7" y="572.51"/>
      </g>
     </g>
     <g id="text_41">
      <!-- 2020-06-09 -->
      <g transform="translate(708.355739 637.625625)rotate(-90)scale(0.1 -0.1)">
       <use xlink:href="#DejaVuSans-32"/>
       <use x="63.623047" xlink:href="#DejaVuSans-30"/>
       <use x="127.246094" xlink:href="#DejaVuSans-32"/>
       <use x="190.869141" xlink:href="#DejaVuSans-30"/>
       <use x="254.492188" xlink:href="#DejaVuSans-2d"/>
       <use x="290.576172" xlink:href="#DejaVuSans-30"/>
       <use x="354.199219" xlink:href="#DejaVuSans-36"/>
       <use x="417.822266" xlink:href="#DejaVuSans-2d"/>
       <use x="453.90625" xlink:href="#DejaVuSans-30"/>
       <use x="517.529297" xlink:href="#DejaVuSans-39"/>
      </g>
     </g>
    </g>
    <g id="xtick_45">
     <g id="line2d_75">
      <g>
       <use style="stroke:#000000;stroke-width:0.8;" x="741.237273" xlink:href="#m9714dd94b7" y="572.51"/>
      </g>
     </g>
     <g id="text_42">
      <!-- 2020-06-15 -->
      <g transform="translate(743.996648 637.625625)rotate(-90)scale(0.1 -0.1)">
       <use xlink:href="#DejaVuSans-32"/>
       <use x="63.623047" xlink:href="#DejaVuSans-30"/>
       <use x="127.246094" xlink:href="#DejaVuSans-32"/>
       <use x="190.869141" xlink:href="#DejaVuSans-30"/>
       <use x="254.492188" xlink:href="#DejaVuSans-2d"/>
       <use x="290.576172" xlink:href="#DejaVuSans-30"/>
       <use x="354.199219" xlink:href="#DejaVuSans-36"/>
       <use x="417.822266" xlink:href="#DejaVuSans-2d"/>
       <use x="453.90625" xlink:href="#DejaVuSans-31"/>
       <use x="517.529297" xlink:href="#DejaVuSans-35"/>
      </g>
     </g>
    </g>
    <g id="xtick_46">
     <g id="line2d_76">
      <g>
       <use style="stroke:#000000;stroke-width:0.8;" x="776.878182" xlink:href="#m9714dd94b7" y="572.51"/>
      </g>
     </g>
     <g id="text_43">
      <!-- 2020-06-20 -->
      <g transform="translate(779.637557 637.625625)rotate(-90)scale(0.1 -0.1)">
       <use xlink:href="#DejaVuSans-32"/>
       <use x="63.623047" xlink:href="#DejaVuSans-30"/>
       <use x="127.246094" xlink:href="#DejaVuSans-32"/>
       <use x="190.869141" xlink:href="#DejaVuSans-30"/>
       <use x="254.492188" xlink:href="#DejaVuSans-2d"/>
       <use x="290.576172" xlink:href="#DejaVuSans-30"/>
       <use x="354.199219" xlink:href="#DejaVuSans-36"/>
       <use x="417.822266" xlink:href="#DejaVuSans-2d"/>
       <use x="453.90625" xlink:href="#DejaVuSans-32"/>
       <use x="517.529297" xlink:href="#DejaVuSans-30"/>
      </g>
     </g>
    </g>
    <g id="xtick_47">
     <g id="line2d_77">
      <g>
       <use style="stroke:#000000;stroke-width:0.8;" x="812.519091" xlink:href="#m9714dd94b7" y="572.51"/>
      </g>
     </g>
     <g id="text_44">
      <!-- 2020-06-26 -->
      <g transform="translate(815.278466 637.625625)rotate(-90)scale(0.1 -0.1)">
       <use xlink:href="#DejaVuSans-32"/>
       <use x="63.623047" xlink:href="#DejaVuSans-30"/>
       <use x="127.246094" xlink:href="#DejaVuSans-32"/>
       <use x="190.869141" xlink:href="#DejaVuSans-30"/>
       <use x="254.492188" xlink:href="#DejaVuSans-2d"/>
       <use x="290.576172" xlink:href="#DejaVuSans-30"/>
       <use x="354.199219" xlink:href="#DejaVuSans-36"/>
       <use x="417.822266" xlink:href="#DejaVuSans-2d"/>
       <use x="453.90625" xlink:href="#DejaVuSans-32"/>
       <use x="517.529297" xlink:href="#DejaVuSans-36"/>
      </g>
     </g>
    </g>
    <g id="xtick_48">
     <g id="line2d_78">
      <g>
       <use style="stroke:#000000;stroke-width:0.8;" x="848.16" xlink:href="#m9714dd94b7" y="572.51"/>
      </g>
     </g>
     <g id="text_45">
      <!-- 2020-07-02 -->
      <g transform="translate(850.919375 637.625625)rotate(-90)scale(0.1 -0.1)">
       <use xlink:href="#DejaVuSans-32"/>
       <use x="63.623047" xlink:href="#DejaVuSans-30"/>
       <use x="127.246094" xlink:href="#DejaVuSans-32"/>
       <use x="190.869141" xlink:href="#DejaVuSans-30"/>
       <use x="254.492188" xlink:href="#DejaVuSans-2d"/>
       <use x="290.576172" xlink:href="#DejaVuSans-30"/>
       <use x="354.199219" xlink:href="#DejaVuSans-37"/>
       <use x="417.822266" xlink:href="#DejaVuSans-2d"/>
       <use x="453.90625" xlink:href="#DejaVuSans-30"/>
       <use x="517.529297" xlink:href="#DejaVuSans-32"/>
      </g>
     </g>
    </g>
   </g>
   <g id="matplotlib.axis_8">
    <g id="ytick_28">
     <g id="line2d_79">
      <g>
       <use style="stroke:#000000;stroke-width:0.8;" x="456.11" xlink:href="#mc0d18b650b" y="572.51"/>
      </g>
     </g>
    </g>
    <g id="ytick_29">
     <g id="line2d_80">
      <g>
       <use style="stroke:#000000;stroke-width:0.8;" x="456.11" xlink:href="#mc0d18b650b" y="542.090859"/>
      </g>
     </g>
    </g>
    <g id="ytick_30">
     <g id="line2d_81">
      <g>
       <use style="stroke:#000000;stroke-width:0.8;" x="456.11" xlink:href="#mc0d18b650b" y="511.671718"/>
      </g>
     </g>
    </g>
    <g id="ytick_31">
     <g id="line2d_82">
      <g>
       <use style="stroke:#000000;stroke-width:0.8;" x="456.11" xlink:href="#mc0d18b650b" y="481.252577"/>
      </g>
     </g>
    </g>
    <g id="ytick_32">
     <g id="line2d_83">
      <g>
       <use style="stroke:#000000;stroke-width:0.8;" x="456.11" xlink:href="#mc0d18b650b" y="450.833436"/>
      </g>
     </g>
    </g>
    <g id="ytick_33">
     <g id="line2d_84">
      <g>
       <use style="stroke:#000000;stroke-width:0.8;" x="456.11" xlink:href="#mc0d18b650b" y="420.414295"/>
      </g>
     </g>
    </g>
    <g id="ytick_34">
     <g id="line2d_85">
      <g>
       <use style="stroke:#000000;stroke-width:0.8;" x="456.11" xlink:href="#mc0d18b650b" y="389.995154"/>
      </g>
     </g>
    </g>
    <g id="ytick_35">
     <g id="line2d_86">
      <g>
       <use style="stroke:#000000;stroke-width:0.8;" x="456.11" xlink:href="#mc0d18b650b" y="359.576013"/>
      </g>
     </g>
    </g>
    <g id="ytick_36">
     <g id="line2d_87">
      <g>
       <use style="stroke:#000000;stroke-width:0.8;" x="456.11" xlink:href="#mc0d18b650b" y="329.156873"/>
      </g>
     </g>
    </g>
   </g>
   <g id="line2d_88">
    <path clip-path="url(#p9a108463d8)" d="M 456.11 550.245247 
L 462.537049 546.233575 
L 468.964098 556.581713 
L 475.391148 555.397886 
L 481.818197 552.02878 
L 488.245246 546.482189 
L 494.672295 542.361571 
L 501.099344 545.534829 
L 507.526393 550.721261 
L 513.953443 555.670517 
L 520.380492 559.85864 
L 526.807541 544.930114 
L 533.23459 542.503996 
L 539.661639 544.668243 
L 546.088689 545.922356 
L 552.515738 541.251114 
L 558.942787 559.725276 
L 565.369836 559.352092 
L 571.796885 548.16427 
L 578.223934 544.564026 
L 582.874134 649 
M 585.586965 649 
L 591.078033 414.890801 
L 597.505082 550.658985 
L 603.932131 557.895782 
L 610.35918 565.938363 
L 616.78623 564.342956 
L 623.213279 548.607154 
L 629.640328 552.515789 
L 636.067377 541.584774 
L 642.494426 553.679651 
L 648.921475 557.922013 
L 655.348525 562.017136 
L 661.775574 558.950718 
L 668.202623 548.314495 
L 674.629672 555.81352 
L 681.056721 555.299653 
L 687.48377 555.815519 
L 693.91082 557.041692 
L 700.337869 562.938343 
L 706.764918 557.839813 
L 713.191967 551.398324 
L 719.619016 546.341536 
L 726.046066 552.659218 
L 732.473115 558.975331 
L 738.900164 559.575212 
L 745.327213 559.677076 
L 751.754262 561.161194 
L 758.181311 552.555687 
L 764.608361 556.587628 
L 771.03541 554.371102 
L 777.462459 546.274271 
L 783.889508 563.484436 
L 790.316557 563.418231 
L 796.743607 562.042748 
L 803.170656 547.979542 
L 809.597705 546.684227 
L 816.024754 546.781927 
L 822.451803 559.827512 
L 828.878852 560.361527 
L 835.305902 559.94803 
L 841.732951 554.214448 
L 848.16 545.558827 
" style="fill:none;stroke:#d62728;stroke-linecap:square;stroke-width:1.5;"/>
   </g>
   <g id="patch_18">
    <path d="M 456.11 572.51 
L 456.11 314.755 
" style="fill:none;stroke:#000000;stroke-linecap:square;stroke-linejoin:miter;stroke-width:0.8;"/>
   </g>
   <g id="patch_19">
    <path d="M 848.16 572.51 
L 848.16 314.755 
" style="fill:none;stroke:#000000;stroke-linecap:square;stroke-linejoin:miter;stroke-width:0.8;"/>
   </g>
   <g id="patch_20">
    <path d="M 456.11 572.51 
L 848.16 572.51 
" style="fill:none;stroke:#000000;stroke-linecap:square;stroke-linejoin:miter;stroke-width:0.8;"/>
   </g>
   <g id="patch_21">
    <path d="M 456.11 314.755 
L 848.16 314.755 
" style="fill:none;stroke:#000000;stroke-linecap:square;stroke-linejoin:miter;stroke-width:0.8;"/>
   </g>
   <g id="text_46">
    <!-- West -->
    <defs>
     <path d="M 3.328125 72.90625 
L 13.28125 72.90625 
L 28.609375 11.28125 
L 43.890625 72.90625 
L 54.984375 72.90625 
L 70.3125 11.28125 
L 85.59375 72.90625 
L 95.609375 72.90625 
L 77.296875 0 
L 64.890625 0 
L 49.515625 63.28125 
L 33.984375 0 
L 21.578125 0 
z
" id="DejaVuSans-57"/>
    </defs>
    <g transform="translate(637.0375 308.755)scale(0.12 -0.12)">
     <use xlink:href="#DejaVuSans-57"/>
     <use x="98.798828" xlink:href="#DejaVuSans-65"/>
     <use x="160.322266" xlink:href="#DejaVuSans-73"/>
     <use x="212.421875" xlink:href="#DejaVuSans-74"/>
    </g>
   </g>
  </g>
 </g>
 <defs>
  <clipPath id="p1185006a8b">
   <rect height="257.755" width="392.05" x="43.18" y="25.44"/>
  </clipPath>
  <clipPath id="p5c67784af2">
   <rect height="257.755" width="392.05" x="456.11" y="25.44"/>
  </clipPath>
  <clipPath id="pa511fc028a">
   <rect height="257.755" width="392.05" x="43.18" y="314.755"/>
  </clipPath>
  <clipPath id="p9a108463d8">
   <rect height="257.755" width="392.05" x="456.11" y="314.755"/>
  </clipPath>
 </defs>
</svg>
