<?xml version="1.0" encoding="utf-8" standalone="no"?>
<!DOCTYPE svg PUBLIC "-//W3C//DTD SVG 1.1//EN"
  "http://www.w3.org/Graphics/SVG/1.1/DTD/svg11.dtd">
<!-- Created with matplotlib (http://matplotlib.org/) -->
<svg height="648pt" version="1.1" viewBox="0 0 864 648" width="864pt" xmlns="http://www.w3.org/2000/svg" xmlns:xlink="http://www.w3.org/1999/xlink">
 <defs>
  <style type="text/css">
*{stroke-linecap:butt;stroke-linejoin:round;}
  </style>
 </defs>
 <g id="figure_1">
  <g id="patch_1">
   <path d="M 0 648 
L 864 648 
L 864 0 
L 0 0 
z
" style="fill:#ffffff;"/>
  </g>
  <g id="axes_1">
   <g id="patch_2">
    <path d="M 55.69 283.195 
L 441.485 283.195 
L 441.485 25.44 
L 55.69 25.44 
z
" style="fill:#ffffff;"/>
   </g>
   <g id="PolyCollection_1">
    <defs>
     <path d="M 55.69 -373.146518 
L 55.69 -364.805 
L 60.228765 -364.805 
L 64.767529 -364.805 
L 69.306294 -364.805 
L 73.845059 -364.805 
L 78.383824 -364.805 
L 82.922588 -364.805 
L 87.461353 -364.805 
L 92.000118 -364.805 
L 96.538882 -364.805 
L 101.077647 -364.805 
L 105.616412 -364.805 
L 110.155176 -364.805 
L 114.693941 -364.805 
L 119.232706 -364.805 
L 123.771471 -364.805 
L 128.310235 -364.805 
L 132.849 -364.805 
L 137.387765 -364.805 
L 141.926529 -364.805 
L 146.465294 -364.805 
L 151.004059 -364.805 
L 155.542824 -364.805 
L 160.081588 -364.805 
L 164.620353 -364.805 
L 169.159118 -364.805 
L 173.697882 -364.805 
L 178.236647 -364.805 
L 182.775412 -364.805 
L 187.314176 -364.805 
L 191.852941 -364.805 
L 196.391706 -364.805 
L 200.930471 -364.805 
L 205.469235 -364.805 
L 210.008 -364.805 
L 214.546765 -364.805 
L 219.085529 -364.805 
L 223.624294 -364.805 
L 228.163059 -364.805 
L 232.701824 -364.805 
L 237.240588 -364.805 
L 241.779353 -364.805 
L 246.318118 -364.805 
L 250.856882 -364.805 
L 255.395647 -364.805 
L 259.934412 -364.805 
L 264.473176 -364.805 
L 269.011941 -364.805 
L 273.550706 -364.805 
L 278.089471 -364.805 
L 282.628235 -364.805 
L 287.167 -364.805 
L 291.705765 -364.805 
L 296.244529 -364.805 
L 300.783294 -364.805 
L 305.322059 -364.805 
L 309.860824 -364.805 
L 314.399588 -364.805 
L 318.938353 -364.805 
L 323.477118 -364.805 
L 328.015882 -364.805 
L 332.554647 -364.805 
L 337.093412 -364.805 
L 341.632176 -364.805 
L 346.170941 -364.805 
L 350.709706 -364.805 
L 355.248471 -364.805 
L 359.787235 -364.805 
L 364.326 -364.805 
L 368.864765 -364.805 
L 373.403529 -364.805 
L 377.942294 -364.805 
L 382.481059 -364.805 
L 387.019824 -364.805 
L 391.558588 -364.805 
L 396.097353 -364.805 
L 400.636118 -364.805 
L 405.174882 -364.805 
L 409.713647 -364.805 
L 414.252412 -364.805 
L 418.791176 -364.805 
L 423.329941 -364.805 
L 427.868706 -364.805 
L 432.407471 -364.805 
L 436.946235 -364.805 
L 441.485 -364.805 
L 441.485 -495.751528 
L 441.485 -495.751528 
L 436.946235 -494.542759 
L 432.407471 -493.453565 
L 427.868706 -492.691472 
L 423.329941 -491.892047 
L 418.791176 -491.174001 
L 414.252412 -490.170879 
L 409.713647 -489.239802 
L 405.174882 -488.371532 
L 400.636118 -487.616105 
L 396.097353 -486.939937 
L 391.558588 -486.263448 
L 387.019824 -485.61798 
L 382.481059 -484.916902 
L 377.942294 -483.807035 
L 373.403529 -482.885753 
L 368.864765 -481.885972 
L 364.326 -481.190378 
L 359.787235 -480.290616 
L 355.248471 -479.296296 
L 350.709706 -478.089443 
L 346.170941 -475.474905 
L 341.632176 -473.955134 
L 337.093412 -472.740879 
L 332.554647 -470.408305 
L 328.015882 -469.534649 
L 323.477118 -468.283525 
L 318.938353 -467.052654 
L 314.399588 -465.261389 
L 309.860824 -464.26857 
L 305.322059 -463.115942 
L 300.783294 -462.015663 
L 296.244529 -460.800686 
L 291.705765 -459.236946 
L 287.167 -457.429162 
L 282.628235 -455.180209 
L 278.089471 -453.448357 
L 273.550706 -451.57193 
L 269.011941 -450.101982 
L 264.473176 -448.42827 
L 259.934412 -446.82346 
L 255.395647 -444.541364 
L 250.856882 -442.69934 
L 246.318118 -440.670923 
L 241.779353 -439.206056 
L 237.240588 -437.09338 
L 232.701824 -434.931332 
L 228.163059 -433.62693 
L 223.624294 -432.053383 
L 219.085529 -429.965803 
L 214.546765 -427.585952 
L 210.008 -425.711771 
L 205.469235 -423.917065 
L 200.930471 -422.015307 
L 196.391706 -420.156224 
L 191.852941 -417.824984 
L 187.314176 -415.540988 
L 182.775412 -413.201198 
L 178.236647 -411.323141 
L 173.697882 -409.491823 
L 169.159118 -407.810983 
L 164.620353 -406.354247 
L 160.081588 -404.645718 
L 155.542824 -402.486618 
L 151.004059 -400.73076 
L 146.465294 -399.265748 
L 141.926529 -397.790148 
L 137.387765 -396.532666 
L 132.849 -395.151224 
L 128.310235 -393.590054 
L 123.771471 -392.149518 
L 119.232706 -390.794082 
L 114.693941 -389.492539 
L 110.155176 -388.25218 
L 105.616412 -387.139258 
L 101.077647 -386.047346 
L 96.538882 -384.806238 
L 92.000118 -383.479641 
L 87.461353 -382.202489 
L 82.922588 -380.929774 
L 78.383824 -379.503388 
L 73.845059 -378.158844 
L 69.306294 -377.020304 
L 64.767529 -375.743529 
L 60.228765 -374.358588 
L 55.69 -373.146518 
z
" id="m00316711ca" style="stroke:#1f77b4;"/>
    </defs>
    <g clip-path="url(#p53038fe2db)">
     <use style="fill:#1f77b4;stroke:#1f77b4;" x="0" xlink:href="#m00316711ca" y="648"/>
    </g>
   </g>
   <g id="matplotlib.axis_1">
    <g id="xtick_1">
     <g id="line2d_1">
      <defs>
       <path d="M 0 0 
L 0 3.5 
" id="mcee4ca011e" style="stroke:#000000;stroke-width:0.8;"/>
      </defs>
      <g>
       <use style="stroke:#000000;stroke-width:0.8;" x="55.69" xlink:href="#mcee4ca011e" y="283.195"/>
      </g>
     </g>
    </g>
    <g id="xtick_2">
     <g id="line2d_2">
      <g>
       <use style="stroke:#000000;stroke-width:0.8;" x="90.762273" xlink:href="#mcee4ca011e" y="283.195"/>
      </g>
     </g>
    </g>
    <g id="xtick_3">
     <g id="line2d_3">
      <g>
       <use style="stroke:#000000;stroke-width:0.8;" x="125.834545" xlink:href="#mcee4ca011e" y="283.195"/>
      </g>
     </g>
    </g>
    <g id="xtick_4">
     <g id="line2d_4">
      <g>
       <use style="stroke:#000000;stroke-width:0.8;" x="160.906818" xlink:href="#mcee4ca011e" y="283.195"/>
      </g>
     </g>
    </g>
    <g id="xtick_5">
     <g id="line2d_5">
      <g>
       <use style="stroke:#000000;stroke-width:0.8;" x="195.979091" xlink:href="#mcee4ca011e" y="283.195"/>
      </g>
     </g>
    </g>
    <g id="xtick_6">
     <g id="line2d_6">
      <g>
       <use style="stroke:#000000;stroke-width:0.8;" x="231.051364" xlink:href="#mcee4ca011e" y="283.195"/>
      </g>
     </g>
    </g>
    <g id="xtick_7">
     <g id="line2d_7">
      <g>
       <use style="stroke:#000000;stroke-width:0.8;" x="266.123636" xlink:href="#mcee4ca011e" y="283.195"/>
      </g>
     </g>
    </g>
    <g id="xtick_8">
     <g id="line2d_8">
      <g>
       <use style="stroke:#000000;stroke-width:0.8;" x="301.195909" xlink:href="#mcee4ca011e" y="283.195"/>
      </g>
     </g>
    </g>
    <g id="xtick_9">
     <g id="line2d_9">
      <g>
       <use style="stroke:#000000;stroke-width:0.8;" x="336.268182" xlink:href="#mcee4ca011e" y="283.195"/>
      </g>
     </g>
    </g>
    <g id="xtick_10">
     <g id="line2d_10">
      <g>
       <use style="stroke:#000000;stroke-width:0.8;" x="371.340455" xlink:href="#mcee4ca011e" y="283.195"/>
      </g>
     </g>
    </g>
    <g id="xtick_11">
     <g id="line2d_11">
      <g>
       <use style="stroke:#000000;stroke-width:0.8;" x="406.412727" xlink:href="#mcee4ca011e" y="283.195"/>
      </g>
     </g>
    </g>
    <g id="xtick_12">
     <g id="line2d_12">
      <g>
       <use style="stroke:#000000;stroke-width:0.8;" x="441.485" xlink:href="#mcee4ca011e" y="283.195"/>
      </g>
     </g>
    </g>
   </g>
   <g id="matplotlib.axis_2">
    <g id="ytick_1">
     <g id="line2d_13">
      <defs>
       <path d="M 0 0 
L -3.5 0 
" id="m12c82ef056" style="stroke:#000000;stroke-width:0.8;"/>
      </defs>
      <g>
       <use style="stroke:#000000;stroke-width:0.8;" x="55.69" xlink:href="#m12c82ef056" y="283.195"/>
      </g>
     </g>
     <g id="text_1">
      <!-- 0 -->
      <defs>
       <path d="M 31.78125 66.40625 
Q 24.171875 66.40625 20.328125 58.90625 
Q 16.5 51.421875 16.5 36.375 
Q 16.5 21.390625 20.328125 13.890625 
Q 24.171875 6.390625 31.78125 6.390625 
Q 39.453125 6.390625 43.28125 13.890625 
Q 47.125 21.390625 47.125 36.375 
Q 47.125 51.421875 43.28125 58.90625 
Q 39.453125 66.40625 31.78125 66.40625 
z
M 31.78125 74.21875 
Q 44.046875 74.21875 50.515625 64.515625 
Q 56.984375 54.828125 56.984375 36.375 
Q 56.984375 17.96875 50.515625 8.265625 
Q 44.046875 -1.421875 31.78125 -1.421875 
Q 19.53125 -1.421875 13.0625 8.265625 
Q 6.59375 17.96875 6.59375 36.375 
Q 6.59375 54.828125 13.0625 64.515625 
Q 19.53125 74.21875 31.78125 74.21875 
z
" id="DejaVuSans-30"/>
      </defs>
      <g transform="translate(42.3275 286.994219)scale(0.1 -0.1)">
       <use xlink:href="#DejaVuSans-30"/>
      </g>
     </g>
    </g>
    <g id="ytick_2">
     <g id="line2d_14">
      <g>
       <use style="stroke:#000000;stroke-width:0.8;" x="55.69" xlink:href="#m12c82ef056" y="253.411378"/>
      </g>
     </g>
     <g id="text_2">
      <!-- 100000 -->
      <defs>
       <path d="M 12.40625 8.296875 
L 28.515625 8.296875 
L 28.515625 63.921875 
L 10.984375 60.40625 
L 10.984375 69.390625 
L 28.421875 72.90625 
L 38.28125 72.90625 
L 38.28125 8.296875 
L 54.390625 8.296875 
L 54.390625 0 
L 12.40625 0 
z
" id="DejaVuSans-31"/>
      </defs>
      <g transform="translate(10.515 257.210596)scale(0.1 -0.1)">
       <use xlink:href="#DejaVuSans-31"/>
       <use x="63.623047" xlink:href="#DejaVuSans-30"/>
       <use x="127.246094" xlink:href="#DejaVuSans-30"/>
       <use x="190.869141" xlink:href="#DejaVuSans-30"/>
       <use x="254.492188" xlink:href="#DejaVuSans-30"/>
       <use x="318.115234" xlink:href="#DejaVuSans-30"/>
      </g>
     </g>
    </g>
    <g id="ytick_3">
     <g id="line2d_15">
      <g>
       <use style="stroke:#000000;stroke-width:0.8;" x="55.69" xlink:href="#m12c82ef056" y="223.627755"/>
      </g>
     </g>
     <g id="text_3">
      <!-- 200000 -->
      <defs>
       <path d="M 19.1875 8.296875 
L 53.609375 8.296875 
L 53.609375 0 
L 7.328125 0 
L 7.328125 8.296875 
Q 12.9375 14.109375 22.625 23.890625 
Q 32.328125 33.6875 34.8125 36.53125 
Q 39.546875 41.84375 41.421875 45.53125 
Q 43.3125 49.21875 43.3125 52.78125 
Q 43.3125 58.59375 39.234375 62.25 
Q 35.15625 65.921875 28.609375 65.921875 
Q 23.96875 65.921875 18.8125 64.3125 
Q 13.671875 62.703125 7.8125 59.421875 
L 7.8125 69.390625 
Q 13.765625 71.78125 18.9375 73 
Q 24.125 74.21875 28.421875 74.21875 
Q 39.75 74.21875 46.484375 68.546875 
Q 53.21875 62.890625 53.21875 53.421875 
Q 53.21875 48.921875 51.53125 44.890625 
Q 49.859375 40.875 45.40625 35.40625 
Q 44.1875 33.984375 37.640625 27.21875 
Q 31.109375 20.453125 19.1875 8.296875 
z
" id="DejaVuSans-32"/>
      </defs>
      <g transform="translate(10.515 227.426974)scale(0.1 -0.1)">
       <use xlink:href="#DejaVuSans-32"/>
       <use x="63.623047" xlink:href="#DejaVuSans-30"/>
       <use x="127.246094" xlink:href="#DejaVuSans-30"/>
       <use x="190.869141" xlink:href="#DejaVuSans-30"/>
       <use x="254.492188" xlink:href="#DejaVuSans-30"/>
       <use x="318.115234" xlink:href="#DejaVuSans-30"/>
      </g>
     </g>
    </g>
    <g id="ytick_4">
     <g id="line2d_16">
      <g>
       <use style="stroke:#000000;stroke-width:0.8;" x="55.69" xlink:href="#m12c82ef056" y="193.844133"/>
      </g>
     </g>
     <g id="text_4">
      <!-- 300000 -->
      <defs>
       <path d="M 40.578125 39.3125 
Q 47.65625 37.796875 51.625 33 
Q 55.609375 28.21875 55.609375 21.1875 
Q 55.609375 10.40625 48.1875 4.484375 
Q 40.765625 -1.421875 27.09375 -1.421875 
Q 22.515625 -1.421875 17.65625 -0.515625 
Q 12.796875 0.390625 7.625 2.203125 
L 7.625 11.71875 
Q 11.71875 9.328125 16.59375 8.109375 
Q 21.484375 6.890625 26.8125 6.890625 
Q 36.078125 6.890625 40.9375 10.546875 
Q 45.796875 14.203125 45.796875 21.1875 
Q 45.796875 27.640625 41.28125 31.265625 
Q 36.765625 34.90625 28.71875 34.90625 
L 20.21875 34.90625 
L 20.21875 43.015625 
L 29.109375 43.015625 
Q 36.375 43.015625 40.234375 45.921875 
Q 44.09375 48.828125 44.09375 54.296875 
Q 44.09375 59.90625 40.109375 62.90625 
Q 36.140625 65.921875 28.71875 65.921875 
Q 24.65625 65.921875 20.015625 65.03125 
Q 15.375 64.15625 9.8125 62.3125 
L 9.8125 71.09375 
Q 15.4375 72.65625 20.34375 73.4375 
Q 25.25 74.21875 29.59375 74.21875 
Q 40.828125 74.21875 47.359375 69.109375 
Q 53.90625 64.015625 53.90625 55.328125 
Q 53.90625 49.265625 50.4375 45.09375 
Q 46.96875 40.921875 40.578125 39.3125 
z
" id="DejaVuSans-33"/>
      </defs>
      <g transform="translate(10.515 197.643352)scale(0.1 -0.1)">
       <use xlink:href="#DejaVuSans-33"/>
       <use x="63.623047" xlink:href="#DejaVuSans-30"/>
       <use x="127.246094" xlink:href="#DejaVuSans-30"/>
       <use x="190.869141" xlink:href="#DejaVuSans-30"/>
       <use x="254.492188" xlink:href="#DejaVuSans-30"/>
       <use x="318.115234" xlink:href="#DejaVuSans-30"/>
      </g>
     </g>
    </g>
    <g id="ytick_5">
     <g id="line2d_17">
      <g>
       <use style="stroke:#000000;stroke-width:0.8;" x="55.69" xlink:href="#m12c82ef056" y="164.06051"/>
      </g>
     </g>
     <g id="text_5">
      <!-- 400000 -->
      <defs>
       <path d="M 37.796875 64.3125 
L 12.890625 25.390625 
L 37.796875 25.390625 
z
M 35.203125 72.90625 
L 47.609375 72.90625 
L 47.609375 25.390625 
L 58.015625 25.390625 
L 58.015625 17.1875 
L 47.609375 17.1875 
L 47.609375 0 
L 37.796875 0 
L 37.796875 17.1875 
L 4.890625 17.1875 
L 4.890625 26.703125 
z
" id="DejaVuSans-34"/>
      </defs>
      <g transform="translate(10.515 167.859729)scale(0.1 -0.1)">
       <use xlink:href="#DejaVuSans-34"/>
       <use x="63.623047" xlink:href="#DejaVuSans-30"/>
       <use x="127.246094" xlink:href="#DejaVuSans-30"/>
       <use x="190.869141" xlink:href="#DejaVuSans-30"/>
       <use x="254.492188" xlink:href="#DejaVuSans-30"/>
       <use x="318.115234" xlink:href="#DejaVuSans-30"/>
      </g>
     </g>
    </g>
    <g id="ytick_6">
     <g id="line2d_18">
      <g>
       <use style="stroke:#000000;stroke-width:0.8;" x="55.69" xlink:href="#m12c82ef056" y="134.276888"/>
      </g>
     </g>
     <g id="text_6">
      <!-- 500000 -->
      <defs>
       <path d="M 10.796875 72.90625 
L 49.515625 72.90625 
L 49.515625 64.59375 
L 19.828125 64.59375 
L 19.828125 46.734375 
Q 21.96875 47.46875 24.109375 47.828125 
Q 26.265625 48.1875 28.421875 48.1875 
Q 40.625 48.1875 47.75 41.5 
Q 54.890625 34.8125 54.890625 23.390625 
Q 54.890625 11.625 47.5625 5.09375 
Q 40.234375 -1.421875 26.90625 -1.421875 
Q 22.3125 -1.421875 17.546875 -0.640625 
Q 12.796875 0.140625 7.71875 1.703125 
L 7.71875 11.625 
Q 12.109375 9.234375 16.796875 8.0625 
Q 21.484375 6.890625 26.703125 6.890625 
Q 35.15625 6.890625 40.078125 11.328125 
Q 45.015625 15.765625 45.015625 23.390625 
Q 45.015625 31 40.078125 35.4375 
Q 35.15625 39.890625 26.703125 39.890625 
Q 22.75 39.890625 18.8125 39.015625 
Q 14.890625 38.140625 10.796875 36.28125 
z
" id="DejaVuSans-35"/>
      </defs>
      <g transform="translate(10.515 138.076107)scale(0.1 -0.1)">
       <use xlink:href="#DejaVuSans-35"/>
       <use x="63.623047" xlink:href="#DejaVuSans-30"/>
       <use x="127.246094" xlink:href="#DejaVuSans-30"/>
       <use x="190.869141" xlink:href="#DejaVuSans-30"/>
       <use x="254.492188" xlink:href="#DejaVuSans-30"/>
       <use x="318.115234" xlink:href="#DejaVuSans-30"/>
      </g>
     </g>
    </g>
    <g id="ytick_7">
     <g id="line2d_19">
      <g>
       <use style="stroke:#000000;stroke-width:0.8;" x="55.69" xlink:href="#m12c82ef056" y="104.493266"/>
      </g>
     </g>
     <g id="text_7">
      <!-- 600000 -->
      <defs>
       <path d="M 33.015625 40.375 
Q 26.375 40.375 22.484375 35.828125 
Q 18.609375 31.296875 18.609375 23.390625 
Q 18.609375 15.53125 22.484375 10.953125 
Q 26.375 6.390625 33.015625 6.390625 
Q 39.65625 6.390625 43.53125 10.953125 
Q 47.40625 15.53125 47.40625 23.390625 
Q 47.40625 31.296875 43.53125 35.828125 
Q 39.65625 40.375 33.015625 40.375 
z
M 52.59375 71.296875 
L 52.59375 62.3125 
Q 48.875 64.0625 45.09375 64.984375 
Q 41.3125 65.921875 37.59375 65.921875 
Q 27.828125 65.921875 22.671875 59.328125 
Q 17.53125 52.734375 16.796875 39.40625 
Q 19.671875 43.65625 24.015625 45.921875 
Q 28.375 48.1875 33.59375 48.1875 
Q 44.578125 48.1875 50.953125 41.515625 
Q 57.328125 34.859375 57.328125 23.390625 
Q 57.328125 12.15625 50.6875 5.359375 
Q 44.046875 -1.421875 33.015625 -1.421875 
Q 20.359375 -1.421875 13.671875 8.265625 
Q 6.984375 17.96875 6.984375 36.375 
Q 6.984375 53.65625 15.1875 63.9375 
Q 23.390625 74.21875 37.203125 74.21875 
Q 40.921875 74.21875 44.703125 73.484375 
Q 48.484375 72.75 52.59375 71.296875 
z
" id="DejaVuSans-36"/>
      </defs>
      <g transform="translate(10.515 108.292484)scale(0.1 -0.1)">
       <use xlink:href="#DejaVuSans-36"/>
       <use x="63.623047" xlink:href="#DejaVuSans-30"/>
       <use x="127.246094" xlink:href="#DejaVuSans-30"/>
       <use x="190.869141" xlink:href="#DejaVuSans-30"/>
       <use x="254.492188" xlink:href="#DejaVuSans-30"/>
       <use x="318.115234" xlink:href="#DejaVuSans-30"/>
      </g>
     </g>
    </g>
    <g id="ytick_8">
     <g id="line2d_20">
      <g>
       <use style="stroke:#000000;stroke-width:0.8;" x="55.69" xlink:href="#m12c82ef056" y="74.709643"/>
      </g>
     </g>
     <g id="text_8">
      <!-- 700000 -->
      <defs>
       <path d="M 8.203125 72.90625 
L 55.078125 72.90625 
L 55.078125 68.703125 
L 28.609375 0 
L 18.3125 0 
L 43.21875 64.59375 
L 8.203125 64.59375 
z
" id="DejaVuSans-37"/>
      </defs>
      <g transform="translate(10.515 78.508862)scale(0.1 -0.1)">
       <use xlink:href="#DejaVuSans-37"/>
       <use x="63.623047" xlink:href="#DejaVuSans-30"/>
       <use x="127.246094" xlink:href="#DejaVuSans-30"/>
       <use x="190.869141" xlink:href="#DejaVuSans-30"/>
       <use x="254.492188" xlink:href="#DejaVuSans-30"/>
       <use x="318.115234" xlink:href="#DejaVuSans-30"/>
      </g>
     </g>
    </g>
    <g id="ytick_9">
     <g id="line2d_21">
      <g>
       <use style="stroke:#000000;stroke-width:0.8;" x="55.69" xlink:href="#m12c82ef056" y="44.926021"/>
      </g>
     </g>
     <g id="text_9">
      <!-- 800000 -->
      <defs>
       <path d="M 31.78125 34.625 
Q 24.75 34.625 20.71875 30.859375 
Q 16.703125 27.09375 16.703125 20.515625 
Q 16.703125 13.921875 20.71875 10.15625 
Q 24.75 6.390625 31.78125 6.390625 
Q 38.8125 6.390625 42.859375 10.171875 
Q 46.921875 13.96875 46.921875 20.515625 
Q 46.921875 27.09375 42.890625 30.859375 
Q 38.875 34.625 31.78125 34.625 
z
M 21.921875 38.8125 
Q 15.578125 40.375 12.03125 44.71875 
Q 8.5 49.078125 8.5 55.328125 
Q 8.5 64.0625 14.71875 69.140625 
Q 20.953125 74.21875 31.78125 74.21875 
Q 42.671875 74.21875 48.875 69.140625 
Q 55.078125 64.0625 55.078125 55.328125 
Q 55.078125 49.078125 51.53125 44.71875 
Q 48 40.375 41.703125 38.8125 
Q 48.828125 37.15625 52.796875 32.3125 
Q 56.78125 27.484375 56.78125 20.515625 
Q 56.78125 9.90625 50.3125 4.234375 
Q 43.84375 -1.421875 31.78125 -1.421875 
Q 19.734375 -1.421875 13.25 4.234375 
Q 6.78125 9.90625 6.78125 20.515625 
Q 6.78125 27.484375 10.78125 32.3125 
Q 14.796875 37.15625 21.921875 38.8125 
z
M 18.3125 54.390625 
Q 18.3125 48.734375 21.84375 45.5625 
Q 25.390625 42.390625 31.78125 42.390625 
Q 38.140625 42.390625 41.71875 45.5625 
Q 45.3125 48.734375 45.3125 54.390625 
Q 45.3125 60.0625 41.71875 63.234375 
Q 38.140625 66.40625 31.78125 66.40625 
Q 25.390625 66.40625 21.84375 63.234375 
Q 18.3125 60.0625 18.3125 54.390625 
z
" id="DejaVuSans-38"/>
      </defs>
      <g transform="translate(10.515 48.725239)scale(0.1 -0.1)">
       <use xlink:href="#DejaVuSans-38"/>
       <use x="63.623047" xlink:href="#DejaVuSans-30"/>
       <use x="127.246094" xlink:href="#DejaVuSans-30"/>
       <use x="190.869141" xlink:href="#DejaVuSans-30"/>
       <use x="254.492188" xlink:href="#DejaVuSans-30"/>
       <use x="318.115234" xlink:href="#DejaVuSans-30"/>
      </g>
     </g>
    </g>
   </g>
   <g id="line2d_22">
    <path clip-path="url(#p53038fe2db)" d="M 55.69 274.853482 
L 60.228765 273.641412 
L 64.767529 272.256471 
L 69.306294 270.979696 
L 73.845059 269.841156 
L 78.383824 268.496612 
L 82.922588 267.070226 
L 87.461353 265.797511 
L 92.000118 264.520359 
L 96.538882 263.193762 
L 101.077647 261.952654 
L 105.616412 260.860742 
L 110.155176 259.74782 
L 114.693941 258.507461 
L 119.232706 257.205918 
L 123.771471 255.850482 
L 128.310235 254.409946 
L 132.849 252.848776 
L 137.387765 251.467334 
L 141.926529 250.209852 
L 146.465294 248.734252 
L 151.004059 247.26924 
L 155.542824 245.513382 
L 160.081588 243.354282 
L 164.620353 241.645753 
L 169.159118 240.189017 
L 173.697882 238.508177 
L 178.236647 236.676859 
L 182.775412 234.798802 
L 187.314176 232.459012 
L 191.852941 230.175016 
L 196.391706 227.843776 
L 200.930471 225.984693 
L 205.469235 224.082935 
L 210.008 222.288229 
L 214.546765 220.414048 
L 219.085529 218.034197 
L 223.624294 215.946617 
L 228.163059 214.37307 
L 232.701824 213.068668 
L 237.240588 210.90662 
L 241.779353 208.793944 
L 246.318118 207.329077 
L 250.856882 205.30066 
L 255.395647 203.458636 
L 259.934412 201.17654 
L 264.473176 199.57173 
L 269.011941 197.898018 
L 273.550706 196.42807 
L 278.089471 194.551643 
L 282.628235 192.819791 
L 287.167 190.570838 
L 291.705765 188.763054 
L 296.244529 187.199314 
L 300.783294 185.984337 
L 305.322059 184.884058 
L 309.860824 183.73143 
L 314.399588 182.738611 
L 318.938353 180.947346 
L 323.477118 179.716475 
L 328.015882 178.465351 
L 332.554647 177.591695 
L 337.093412 175.259121 
L 341.632176 174.044866 
L 346.170941 172.525095 
L 350.709706 169.910557 
L 355.248471 168.703704 
L 359.787235 167.709384 
L 364.326 166.809622 
L 368.864765 166.114028 
L 373.403529 165.114247 
L 377.942294 164.192965 
L 382.481059 163.083098 
L 387.019824 162.38202 
L 391.558588 161.736552 
L 396.097353 161.060063 
L 400.636118 160.383895 
L 405.174882 159.628468 
L 409.713647 158.760198 
L 414.252412 157.829121 
L 418.791176 156.825999 
L 423.329941 156.107953 
L 427.868706 155.308528 
L 432.407471 154.546435 
L 436.946235 153.457241 
L 441.485 152.248472 
" style="fill:none;stroke:#1f77b4;stroke-linecap:square;stroke-width:1.5;"/>
   </g>
   <g id="patch_3">
    <path d="M 55.69 283.195 
L 55.69 25.44 
" style="fill:none;stroke:#000000;stroke-linecap:square;stroke-linejoin:miter;stroke-width:0.8;"/>
   </g>
   <g id="patch_4">
    <path d="M 441.485 283.195 
L 441.485 25.44 
" style="fill:none;stroke:#000000;stroke-linecap:square;stroke-linejoin:miter;stroke-width:0.8;"/>
   </g>
   <g id="patch_5">
    <path d="M 55.69 283.195 
L 441.485 283.195 
" style="fill:none;stroke:#000000;stroke-linecap:square;stroke-linejoin:miter;stroke-width:0.8;"/>
   </g>
   <g id="patch_6">
    <path d="M 55.69 25.44 
L 441.485 25.44 
" style="fill:none;stroke:#000000;stroke-linecap:square;stroke-linejoin:miter;stroke-width:0.8;"/>
   </g>
   <g id="text_10">
    <!-- Midwest -->
    <defs>
     <path d="M 9.8125 72.90625 
L 24.515625 72.90625 
L 43.109375 23.296875 
L 61.8125 72.90625 
L 76.515625 72.90625 
L 76.515625 0 
L 66.890625 0 
L 66.890625 64.015625 
L 48.09375 14.015625 
L 38.1875 14.015625 
L 19.390625 64.015625 
L 19.390625 0 
L 9.8125 0 
z
" id="DejaVuSans-4d"/>
     <path d="M 9.421875 54.6875 
L 18.40625 54.6875 
L 18.40625 0 
L 9.421875 0 
z
M 9.421875 75.984375 
L 18.40625 75.984375 
L 18.40625 64.59375 
L 9.421875 64.59375 
z
" id="DejaVuSans-69"/>
     <path d="M 45.40625 46.390625 
L 45.40625 75.984375 
L 54.390625 75.984375 
L 54.390625 0 
L 45.40625 0 
L 45.40625 8.203125 
Q 42.578125 3.328125 38.25 0.953125 
Q 33.9375 -1.421875 27.875 -1.421875 
Q 17.96875 -1.421875 11.734375 6.484375 
Q 5.515625 14.40625 5.515625 27.296875 
Q 5.515625 40.1875 11.734375 48.09375 
Q 17.96875 56 27.875 56 
Q 33.9375 56 38.25 53.625 
Q 42.578125 51.265625 45.40625 46.390625 
z
M 14.796875 27.296875 
Q 14.796875 17.390625 18.875 11.75 
Q 22.953125 6.109375 30.078125 6.109375 
Q 37.203125 6.109375 41.296875 11.75 
Q 45.40625 17.390625 45.40625 27.296875 
Q 45.40625 37.203125 41.296875 42.84375 
Q 37.203125 48.484375 30.078125 48.484375 
Q 22.953125 48.484375 18.875 42.84375 
Q 14.796875 37.203125 14.796875 27.296875 
z
" id="DejaVuSans-64"/>
     <path d="M 4.203125 54.6875 
L 13.1875 54.6875 
L 24.421875 12.015625 
L 35.59375 54.6875 
L 46.1875 54.6875 
L 57.421875 12.015625 
L 68.609375 54.6875 
L 77.59375 54.6875 
L 63.28125 0 
L 52.6875 0 
L 40.921875 44.828125 
L 29.109375 0 
L 18.5 0 
z
" id="DejaVuSans-77"/>
     <path d="M 56.203125 29.59375 
L 56.203125 25.203125 
L 14.890625 25.203125 
Q 15.484375 15.921875 20.484375 11.0625 
Q 25.484375 6.203125 34.421875 6.203125 
Q 39.59375 6.203125 44.453125 7.46875 
Q 49.3125 8.734375 54.109375 11.28125 
L 54.109375 2.78125 
Q 49.265625 0.734375 44.1875 -0.34375 
Q 39.109375 -1.421875 33.890625 -1.421875 
Q 20.796875 -1.421875 13.15625 6.1875 
Q 5.515625 13.8125 5.515625 26.8125 
Q 5.515625 40.234375 12.765625 48.109375 
Q 20.015625 56 32.328125 56 
Q 43.359375 56 49.78125 48.890625 
Q 56.203125 41.796875 56.203125 29.59375 
z
M 47.21875 32.234375 
Q 47.125 39.59375 43.09375 43.984375 
Q 39.0625 48.390625 32.421875 48.390625 
Q 24.90625 48.390625 20.390625 44.140625 
Q 15.875 39.890625 15.1875 32.171875 
z
" id="DejaVuSans-65"/>
     <path d="M 44.28125 53.078125 
L 44.28125 44.578125 
Q 40.484375 46.53125 36.375 47.5 
Q 32.28125 48.484375 27.875 48.484375 
Q 21.1875 48.484375 17.84375 46.4375 
Q 14.5 44.390625 14.5 40.28125 
Q 14.5 37.15625 16.890625 35.375 
Q 19.28125 33.59375 26.515625 31.984375 
L 29.59375 31.296875 
Q 39.15625 29.25 43.1875 25.515625 
Q 47.21875 21.78125 47.21875 15.09375 
Q 47.21875 7.46875 41.1875 3.015625 
Q 35.15625 -1.421875 24.609375 -1.421875 
Q 20.21875 -1.421875 15.453125 -0.5625 
Q 10.6875 0.296875 5.421875 2 
L 5.421875 11.28125 
Q 10.40625 8.6875 15.234375 7.390625 
Q 20.0625 6.109375 24.8125 6.109375 
Q 31.15625 6.109375 34.5625 8.28125 
Q 37.984375 10.453125 37.984375 14.40625 
Q 37.984375 18.0625 35.515625 20.015625 
Q 33.0625 21.96875 24.703125 23.78125 
L 21.578125 24.515625 
Q 13.234375 26.265625 9.515625 29.90625 
Q 5.8125 33.546875 5.8125 39.890625 
Q 5.8125 47.609375 11.28125 51.796875 
Q 16.75 56 26.8125 56 
Q 31.78125 56 36.171875 55.265625 
Q 40.578125 54.546875 44.28125 53.078125 
z
" id="DejaVuSans-73"/>
     <path d="M 18.3125 70.21875 
L 18.3125 54.6875 
L 36.8125 54.6875 
L 36.8125 47.703125 
L 18.3125 47.703125 
L 18.3125 18.015625 
Q 18.3125 11.328125 20.140625 9.421875 
Q 21.96875 7.515625 27.59375 7.515625 
L 36.8125 7.515625 
L 36.8125 0 
L 27.59375 0 
Q 17.1875 0 13.234375 3.875 
Q 9.28125 7.765625 9.28125 18.015625 
L 9.28125 47.703125 
L 2.6875 47.703125 
L 2.6875 54.6875 
L 9.28125 54.6875 
L 9.28125 70.21875 
z
" id="DejaVuSans-74"/>
    </defs>
    <g transform="translate(223.858125 19.44)scale(0.12 -0.12)">
     <use xlink:href="#DejaVuSans-4d"/>
     <use x="86.279297" xlink:href="#DejaVuSans-69"/>
     <use x="114.0625" xlink:href="#DejaVuSans-64"/>
     <use x="177.539062" xlink:href="#DejaVuSans-77"/>
     <use x="259.326172" xlink:href="#DejaVuSans-65"/>
     <use x="320.849609" xlink:href="#DejaVuSans-73"/>
     <use x="372.949219" xlink:href="#DejaVuSans-74"/>
    </g>
   </g>
  </g>
  <g id="axes_2">
   <g id="patch_7">
    <path d="M 462.365 283.195 
L 848.16 283.195 
L 848.16 25.44 
L 462.365 25.44 
z
" style="fill:#ffffff;"/>
   </g>
   <g id="PolyCollection_2">
    <defs>
     <path d="M 462.365 -402.706353 
L 462.365 -364.805 
L 466.903765 -364.805 
L 471.442529 -364.805 
L 475.981294 -364.805 
L 480.520059 -364.805 
L 485.058824 -364.805 
L 489.597588 -364.805 
L 494.136353 -364.805 
L 498.675118 -364.805 
L 503.213882 -364.805 
L 507.752647 -364.805 
L 512.291412 -364.805 
L 516.830176 -364.805 
L 521.368941 -364.805 
L 525.907706 -364.805 
L 530.446471 -364.805 
L 534.985235 -364.805 
L 539.524 -364.805 
L 544.062765 -364.805 
L 548.601529 -364.805 
L 553.140294 -364.805 
L 557.679059 -364.805 
L 562.217824 -364.805 
L 566.756588 -364.805 
L 571.295353 -364.805 
L 575.834118 -364.805 
L 580.372882 -364.805 
L 584.911647 -364.805 
L 589.450412 -364.805 
L 593.989176 -364.805 
L 598.527941 -364.805 
L 603.066706 -364.805 
L 607.605471 -364.805 
L 612.144235 -364.805 
L 616.683 -364.805 
L 621.221765 -364.805 
L 625.760529 -364.805 
L 630.299294 -364.805 
L 634.838059 -364.805 
L 639.376824 -364.805 
L 643.915588 -364.805 
L 648.454353 -364.805 
L 652.993118 -364.805 
L 657.531882 -364.805 
L 662.070647 -364.805 
L 666.609412 -364.805 
L 671.148176 -364.805 
L 675.686941 -364.805 
L 680.225706 -364.805 
L 684.764471 -364.805 
L 689.303235 -364.805 
L 693.842 -364.805 
L 698.380765 -364.805 
L 702.919529 -364.805 
L 707.458294 -364.805 
L 711.997059 -364.805 
L 716.535824 -364.805 
L 721.074588 -364.805 
L 725.613353 -364.805 
L 730.152118 -364.805 
L 734.690882 -364.805 
L 739.229647 -364.805 
L 743.768412 -364.805 
L 748.307176 -364.805 
L 752.845941 -364.805 
L 757.384706 -364.805 
L 761.923471 -364.805 
L 766.462235 -364.805 
L 771.001 -364.805 
L 775.539765 -364.805 
L 780.078529 -364.805 
L 784.617294 -364.805 
L 789.156059 -364.805 
L 793.694824 -364.805 
L 798.233588 -364.805 
L 802.772353 -364.805 
L 807.311118 -364.805 
L 811.849882 -364.805 
L 816.388647 -364.805 
L 820.927412 -364.805 
L 825.466176 -364.805 
L 830.004941 -364.805 
L 834.543706 -364.805 
L 839.082471 -364.805 
L 843.621235 -364.805 
L 848.16 -364.805 
L 848.16 -610.285952 
L 848.16 -610.285952 
L 843.621235 -609.431158 
L 839.082471 -609.178116 
L 834.543706 -608.756697 
L 830.004941 -608.282812 
L 825.466176 -607.886491 
L 820.927412 -607.143808 
L 816.388647 -606.307244 
L 811.849882 -605.88001 
L 807.311118 -605.394423 
L 802.772353 -604.356086 
L 798.233588 -603.91039 
L 793.694824 -603.282258 
L 789.156059 -602.558675 
L 784.617294 -601.748451 
L 780.078529 -601.096115 
L 775.539765 -600.500103 
L 771.001 -600.106606 
L 766.462235 -599.497562 
L 761.923471 -598.761742 
L 757.384706 -598.242789 
L 752.845941 -597.278473 
L 748.307176 -596.383833 
L 743.768412 -595.670005 
L 739.229647 -594.533897 
L 734.690882 -592.690805 
L 730.152118 -591.656715 
L 725.613353 -590.419419 
L 721.074588 -588.877285 
L 716.535824 -587.83728 
L 711.997059 -586.852519 
L 707.458294 -585.894556 
L 702.919529 -584.736764 
L 698.380765 -583.337546 
L 693.842 -581.767066 
L 689.303235 -580.249575 
L 684.764471 -578.698002 
L 680.225706 -577.046186 
L 675.686941 -575.491012 
L 671.148176 -574.035866 
L 666.609412 -572.366979 
L 662.070647 -570.11342 
L 657.531882 -567.99094 
L 652.993118 -565.797689 
L 648.454353 -564.14429 
L 643.915588 -562.617968 
L 639.376824 -561.239059 
L 634.838059 -559.501319 
L 630.299294 -557.270703 
L 625.760529 -554.824289 
L 621.221765 -551.856022 
L 616.683 -549.550833 
L 612.144235 -547.436307 
L 607.605471 -544.874642 
L 603.066706 -542.733838 
L 598.527941 -539.573159 
L 593.989176 -536.147173 
L 589.450412 -532.72285 
L 584.911647 -529.480226 
L 580.372882 -526.285039 
L 575.834118 -523.431093 
L 571.295353 -520.084096 
L 566.756588 -515.027742 
L 562.217824 -509.271612 
L 557.679059 -504.419264 
L 553.140294 -500.039775 
L 548.601529 -496.045002 
L 544.062765 -492.435409 
L 539.524 -488.650299 
L 534.985235 -484.053661 
L 530.446471 -479.616324 
L 525.907706 -474.396336 
L 521.368941 -469.513189 
L 516.830176 -464.77687 
L 512.291412 -460.566621 
L 507.752647 -456.030978 
L 503.213882 -450.811385 
L 498.675118 -445.198108 
L 494.136353 -439.237468 
L 489.597588 -433.753902 
L 485.058824 -428.729093 
L 480.520059 -423.841785 
L 475.981294 -418.26426 
L 471.442529 -414.000962 
L 466.903765 -408.348256 
L 462.365 -402.706353 
z
" id="m8c9017b1db" style="stroke:#ff7f0e;"/>
    </defs>
    <g clip-path="url(#p3d88f69ffd)">
     <use style="fill:#ff7f0e;stroke:#ff7f0e;" x="0" xlink:href="#m8c9017b1db" y="648"/>
    </g>
   </g>
   <g id="matplotlib.axis_3">
    <g id="xtick_13">
     <g id="line2d_23">
      <g>
       <use style="stroke:#000000;stroke-width:0.8;" x="462.365" xlink:href="#mcee4ca011e" y="283.195"/>
      </g>
     </g>
    </g>
    <g id="xtick_14">
     <g id="line2d_24">
      <g>
       <use style="stroke:#000000;stroke-width:0.8;" x="497.437273" xlink:href="#mcee4ca011e" y="283.195"/>
      </g>
     </g>
    </g>
    <g id="xtick_15">
     <g id="line2d_25">
      <g>
       <use style="stroke:#000000;stroke-width:0.8;" x="532.509545" xlink:href="#mcee4ca011e" y="283.195"/>
      </g>
     </g>
    </g>
    <g id="xtick_16">
     <g id="line2d_26">
      <g>
       <use style="stroke:#000000;stroke-width:0.8;" x="567.581818" xlink:href="#mcee4ca011e" y="283.195"/>
      </g>
     </g>
    </g>
    <g id="xtick_17">
     <g id="line2d_27">
      <g>
       <use style="stroke:#000000;stroke-width:0.8;" x="602.654091" xlink:href="#mcee4ca011e" y="283.195"/>
      </g>
     </g>
    </g>
    <g id="xtick_18">
     <g id="line2d_28">
      <g>
       <use style="stroke:#000000;stroke-width:0.8;" x="637.726364" xlink:href="#mcee4ca011e" y="283.195"/>
      </g>
     </g>
    </g>
    <g id="xtick_19">
     <g id="line2d_29">
      <g>
       <use style="stroke:#000000;stroke-width:0.8;" x="672.798636" xlink:href="#mcee4ca011e" y="283.195"/>
      </g>
     </g>
    </g>
    <g id="xtick_20">
     <g id="line2d_30">
      <g>
       <use style="stroke:#000000;stroke-width:0.8;" x="707.870909" xlink:href="#mcee4ca011e" y="283.195"/>
      </g>
     </g>
    </g>
    <g id="xtick_21">
     <g id="line2d_31">
      <g>
       <use style="stroke:#000000;stroke-width:0.8;" x="742.943182" xlink:href="#mcee4ca011e" y="283.195"/>
      </g>
     </g>
    </g>
    <g id="xtick_22">
     <g id="line2d_32">
      <g>
       <use style="stroke:#000000;stroke-width:0.8;" x="778.015455" xlink:href="#mcee4ca011e" y="283.195"/>
      </g>
     </g>
    </g>
    <g id="xtick_23">
     <g id="line2d_33">
      <g>
       <use style="stroke:#000000;stroke-width:0.8;" x="813.087727" xlink:href="#mcee4ca011e" y="283.195"/>
      </g>
     </g>
    </g>
    <g id="xtick_24">
     <g id="line2d_34">
      <g>
       <use style="stroke:#000000;stroke-width:0.8;" x="848.16" xlink:href="#mcee4ca011e" y="283.195"/>
      </g>
     </g>
    </g>
   </g>
   <g id="matplotlib.axis_4">
    <g id="ytick_10">
     <g id="line2d_35">
      <g>
       <use style="stroke:#000000;stroke-width:0.8;" x="462.365" xlink:href="#m12c82ef056" y="283.195"/>
      </g>
     </g>
    </g>
    <g id="ytick_11">
     <g id="line2d_36">
      <g>
       <use style="stroke:#000000;stroke-width:0.8;" x="462.365" xlink:href="#m12c82ef056" y="253.411378"/>
      </g>
     </g>
    </g>
    <g id="ytick_12">
     <g id="line2d_37">
      <g>
       <use style="stroke:#000000;stroke-width:0.8;" x="462.365" xlink:href="#m12c82ef056" y="223.627755"/>
      </g>
     </g>
    </g>
    <g id="ytick_13">
     <g id="line2d_38">
      <g>
       <use style="stroke:#000000;stroke-width:0.8;" x="462.365" xlink:href="#m12c82ef056" y="193.844133"/>
      </g>
     </g>
    </g>
    <g id="ytick_14">
     <g id="line2d_39">
      <g>
       <use style="stroke:#000000;stroke-width:0.8;" x="462.365" xlink:href="#m12c82ef056" y="164.06051"/>
      </g>
     </g>
    </g>
    <g id="ytick_15">
     <g id="line2d_40">
      <g>
       <use style="stroke:#000000;stroke-width:0.8;" x="462.365" xlink:href="#m12c82ef056" y="134.276888"/>
      </g>
     </g>
    </g>
    <g id="ytick_16">
     <g id="line2d_41">
      <g>
       <use style="stroke:#000000;stroke-width:0.8;" x="462.365" xlink:href="#m12c82ef056" y="104.493266"/>
      </g>
     </g>
    </g>
    <g id="ytick_17">
     <g id="line2d_42">
      <g>
       <use style="stroke:#000000;stroke-width:0.8;" x="462.365" xlink:href="#m12c82ef056" y="74.709643"/>
      </g>
     </g>
    </g>
    <g id="ytick_18">
     <g id="line2d_43">
      <g>
       <use style="stroke:#000000;stroke-width:0.8;" x="462.365" xlink:href="#m12c82ef056" y="44.926021"/>
      </g>
     </g>
    </g>
   </g>
   <g id="line2d_44">
    <path clip-path="url(#p3d88f69ffd)" d="M 462.365 245.293647 
L 466.903765 239.651744 
L 471.442529 233.999038 
L 475.981294 229.73574 
L 480.520059 224.158215 
L 485.058824 219.270907 
L 489.597588 214.246098 
L 494.136353 208.762532 
L 498.675118 202.801892 
L 503.213882 197.188615 
L 507.752647 191.969022 
L 512.291412 187.433379 
L 516.830176 183.22313 
L 521.368941 178.486811 
L 525.907706 173.603664 
L 530.446471 168.383676 
L 534.985235 163.946339 
L 539.524 159.349701 
L 544.062765 155.564591 
L 548.601529 151.954998 
L 553.140294 147.960225 
L 557.679059 143.580736 
L 562.217824 138.728388 
L 566.756588 132.972258 
L 571.295353 127.915904 
L 575.834118 124.568907 
L 580.372882 121.714961 
L 584.911647 118.519774 
L 589.450412 115.27715 
L 593.989176 111.852827 
L 598.527941 108.426841 
L 603.066706 105.266162 
L 607.605471 103.125358 
L 612.144235 100.563693 
L 616.683 98.449167 
L 621.221765 96.143978 
L 625.760529 93.175711 
L 630.299294 90.729297 
L 634.838059 88.498681 
L 639.376824 86.760941 
L 643.915588 85.382032 
L 648.454353 83.85571 
L 652.993118 82.202311 
L 657.531882 80.00906 
L 662.070647 77.88658 
L 666.609412 75.633021 
L 671.148176 73.964134 
L 675.686941 72.508988 
L 680.225706 70.953814 
L 684.764471 69.301998 
L 689.303235 67.750425 
L 693.842 66.232934 
L 698.380765 64.662454 
L 702.919529 63.263236 
L 707.458294 62.105444 
L 711.997059 61.147481 
L 716.535824 60.16272 
L 721.074588 59.122715 
L 725.613353 57.580581 
L 730.152118 56.343285 
L 734.690882 55.309195 
L 739.229647 53.466103 
L 743.768412 52.329995 
L 748.307176 51.616167 
L 752.845941 50.721527 
L 757.384706 49.757211 
L 761.923471 49.238258 
L 766.462235 48.502438 
L 771.001 47.893394 
L 775.539765 47.499897 
L 780.078529 46.903885 
L 784.617294 46.251549 
L 789.156059 45.441325 
L 793.694824 44.717742 
L 798.233588 44.08961 
L 802.772353 43.643914 
L 807.311118 42.605577 
L 811.849882 42.11999 
L 816.388647 41.692756 
L 820.927412 40.856192 
L 825.466176 40.113509 
L 830.004941 39.717188 
L 834.543706 39.243303 
L 839.082471 38.821884 
L 843.621235 38.568842 
L 848.16 37.714048 
" style="fill:none;stroke:#ff7f0e;stroke-linecap:square;stroke-width:1.5;"/>
   </g>
   <g id="patch_8">
    <path d="M 462.365 283.195 
L 462.365 25.44 
" style="fill:none;stroke:#000000;stroke-linecap:square;stroke-linejoin:miter;stroke-width:0.8;"/>
   </g>
   <g id="patch_9">
    <path d="M 848.16 283.195 
L 848.16 25.44 
" style="fill:none;stroke:#000000;stroke-linecap:square;stroke-linejoin:miter;stroke-width:0.8;"/>
   </g>
   <g id="patch_10">
    <path d="M 462.365 283.195 
L 848.16 283.195 
" style="fill:none;stroke:#000000;stroke-linecap:square;stroke-linejoin:miter;stroke-width:0.8;"/>
   </g>
   <g id="patch_11">
    <path d="M 462.365 25.44 
L 848.16 25.44 
" style="fill:none;stroke:#000000;stroke-linecap:square;stroke-linejoin:miter;stroke-width:0.8;"/>
   </g>
   <g id="text_11">
    <!-- Northeast -->
    <defs>
     <path d="M 9.8125 72.90625 
L 23.09375 72.90625 
L 55.421875 11.921875 
L 55.421875 72.90625 
L 64.984375 72.90625 
L 64.984375 0 
L 51.703125 0 
L 19.390625 60.984375 
L 19.390625 0 
L 9.8125 0 
z
" id="DejaVuSans-4e"/>
     <path d="M 30.609375 48.390625 
Q 23.390625 48.390625 19.1875 42.75 
Q 14.984375 37.109375 14.984375 27.296875 
Q 14.984375 17.484375 19.15625 11.84375 
Q 23.34375 6.203125 30.609375 6.203125 
Q 37.796875 6.203125 41.984375 11.859375 
Q 46.1875 17.53125 46.1875 27.296875 
Q 46.1875 37.015625 41.984375 42.703125 
Q 37.796875 48.390625 30.609375 48.390625 
z
M 30.609375 56 
Q 42.328125 56 49.015625 48.375 
Q 55.71875 40.765625 55.71875 27.296875 
Q 55.71875 13.875 49.015625 6.21875 
Q 42.328125 -1.421875 30.609375 -1.421875 
Q 18.84375 -1.421875 12.171875 6.21875 
Q 5.515625 13.875 5.515625 27.296875 
Q 5.515625 40.765625 12.171875 48.375 
Q 18.84375 56 30.609375 56 
z
" id="DejaVuSans-6f"/>
     <path d="M 41.109375 46.296875 
Q 39.59375 47.171875 37.8125 47.578125 
Q 36.03125 48 33.890625 48 
Q 26.265625 48 22.1875 43.046875 
Q 18.109375 38.09375 18.109375 28.8125 
L 18.109375 0 
L 9.078125 0 
L 9.078125 54.6875 
L 18.109375 54.6875 
L 18.109375 46.1875 
Q 20.953125 51.171875 25.484375 53.578125 
Q 30.03125 56 36.53125 56 
Q 37.453125 56 38.578125 55.875 
Q 39.703125 55.765625 41.0625 55.515625 
z
" id="DejaVuSans-72"/>
     <path d="M 54.890625 33.015625 
L 54.890625 0 
L 45.90625 0 
L 45.90625 32.71875 
Q 45.90625 40.484375 42.875 44.328125 
Q 39.84375 48.1875 33.796875 48.1875 
Q 26.515625 48.1875 22.3125 43.546875 
Q 18.109375 38.921875 18.109375 30.90625 
L 18.109375 0 
L 9.078125 0 
L 9.078125 75.984375 
L 18.109375 75.984375 
L 18.109375 46.1875 
Q 21.34375 51.125 25.703125 53.5625 
Q 30.078125 56 35.796875 56 
Q 45.21875 56 50.046875 50.171875 
Q 54.890625 44.34375 54.890625 33.015625 
z
" id="DejaVuSans-68"/>
     <path d="M 34.28125 27.484375 
Q 23.390625 27.484375 19.1875 25 
Q 14.984375 22.515625 14.984375 16.5 
Q 14.984375 11.71875 18.140625 8.90625 
Q 21.296875 6.109375 26.703125 6.109375 
Q 34.1875 6.109375 38.703125 11.40625 
Q 43.21875 16.703125 43.21875 25.484375 
L 43.21875 27.484375 
z
M 52.203125 31.203125 
L 52.203125 0 
L 43.21875 0 
L 43.21875 8.296875 
Q 40.140625 3.328125 35.546875 0.953125 
Q 30.953125 -1.421875 24.3125 -1.421875 
Q 15.921875 -1.421875 10.953125 3.296875 
Q 6 8.015625 6 15.921875 
Q 6 25.140625 12.171875 29.828125 
Q 18.359375 34.515625 30.609375 34.515625 
L 43.21875 34.515625 
L 43.21875 35.40625 
Q 43.21875 41.609375 39.140625 45 
Q 35.0625 48.390625 27.6875 48.390625 
Q 23 48.390625 18.546875 47.265625 
Q 14.109375 46.140625 10.015625 43.890625 
L 10.015625 52.203125 
Q 14.9375 54.109375 19.578125 55.046875 
Q 24.21875 56 28.609375 56 
Q 40.484375 56 46.34375 49.84375 
Q 52.203125 43.703125 52.203125 31.203125 
z
" id="DejaVuSans-61"/>
    </defs>
    <g transform="translate(625.634687 19.44)scale(0.12 -0.12)">
     <use xlink:href="#DejaVuSans-4e"/>
     <use x="74.804688" xlink:href="#DejaVuSans-6f"/>
     <use x="135.986328" xlink:href="#DejaVuSans-72"/>
     <use x="177.099609" xlink:href="#DejaVuSans-74"/>
     <use x="216.308594" xlink:href="#DejaVuSans-68"/>
     <use x="279.6875" xlink:href="#DejaVuSans-65"/>
     <use x="341.210938" xlink:href="#DejaVuSans-61"/>
     <use x="402.490234" xlink:href="#DejaVuSans-73"/>
     <use x="454.589844" xlink:href="#DejaVuSans-74"/>
    </g>
   </g>
  </g>
  <g id="axes_3">
   <g id="patch_12">
    <path d="M 55.69 572.51 
L 441.485 572.51 
L 441.485 314.755 
L 55.69 314.755 
z
" style="fill:#ffffff;"/>
   </g>
   <g id="PolyCollection_3">
    <defs>
     <path d="M 55.69 -87.275645 
L 55.69 -75.49 
L 60.228765 -75.49 
L 64.767529 -75.49 
L 69.306294 -75.49 
L 73.845059 -75.49 
L 78.383824 -75.49 
L 82.922588 -75.49 
L 87.461353 -75.49 
L 92.000118 -75.49 
L 96.538882 -75.49 
L 101.077647 -75.49 
L 105.616412 -75.49 
L 110.155176 -75.49 
L 114.693941 -75.49 
L 119.232706 -75.49 
L 123.771471 -75.49 
L 128.310235 -75.49 
L 132.849 -75.49 
L 137.387765 -75.49 
L 141.926529 -75.49 
L 146.465294 -75.49 
L 151.004059 -75.49 
L 155.542824 -75.49 
L 160.081588 -75.49 
L 164.620353 -75.49 
L 169.159118 -75.49 
L 173.697882 -75.49 
L 178.236647 -75.49 
L 182.775412 -75.49 
L 187.314176 -75.49 
L 191.852941 -75.49 
L 196.391706 -75.49 
L 200.930471 -75.49 
L 205.469235 -75.49 
L 210.008 -75.49 
L 214.546765 -75.49 
L 219.085529 -75.49 
L 223.624294 -75.49 
L 228.163059 -75.49 
L 232.701824 -75.49 
L 237.240588 -75.49 
L 241.779353 -75.49 
L 246.318118 -75.49 
L 250.856882 -75.49 
L 255.395647 -75.49 
L 259.934412 -75.49 
L 264.473176 -75.49 
L 269.011941 -75.49 
L 273.550706 -75.49 
L 278.089471 -75.49 
L 282.628235 -75.49 
L 287.167 -75.49 
L 291.705765 -75.49 
L 296.244529 -75.49 
L 300.783294 -75.49 
L 305.322059 -75.49 
L 309.860824 -75.49 
L 314.399588 -75.49 
L 318.938353 -75.49 
L 323.477118 -75.49 
L 328.015882 -75.49 
L 332.554647 -75.49 
L 337.093412 -75.49 
L 341.632176 -75.49 
L 346.170941 -75.49 
L 350.709706 -75.49 
L 355.248471 -75.49 
L 359.787235 -75.49 
L 364.326 -75.49 
L 368.864765 -75.49 
L 373.403529 -75.49 
L 377.942294 -75.49 
L 382.481059 -75.49 
L 387.019824 -75.49 
L 391.558588 -75.49 
L 396.097353 -75.49 
L 400.636118 -75.49 
L 405.174882 -75.49 
L 409.713647 -75.49 
L 414.252412 -75.49 
L 418.791176 -75.49 
L 423.329941 -75.49 
L 427.868706 -75.49 
L 432.407471 -75.49 
L 436.946235 -75.49 
L 441.485 -75.49 
L 441.485 -298.99656 
L 441.485 -298.99656 
L 436.946235 -291.962751 
L 432.407471 -285.636139 
L 427.868706 -280.525692 
L 423.329941 -276.166271 
L 418.791176 -272.282081 
L 414.252412 -267.153508 
L 409.713647 -262.056588 
L 405.174882 -258.188615 
L 400.636118 -254.751489 
L 396.097353 -250.556436 
L 391.558588 -247.519791 
L 387.019824 -244.221155 
L 382.481059 -240.527339 
L 377.942294 -236.463018 
L 373.403529 -233.498787 
L 368.864765 -230.627302 
L 364.326 -228.389983 
L 359.787235 -225.472954 
L 355.248471 -223.008794 
L 350.709706 -220.650606 
L 346.170941 -217.699476 
L 341.632176 -214.535069 
L 337.093412 -212.470498 
L 332.554647 -209.504683 
L 328.015882 -207.479819 
L 323.477118 -205.201029 
L 318.938353 -202.995753 
L 314.399588 -199.962773 
L 309.860824 -197.476151 
L 305.322059 -195.638476 
L 300.783294 -193.686769 
L 296.244529 -191.650716 
L 291.705765 -189.393366 
L 287.167 -186.694403 
L 282.628235 -184.723015 
L 278.089471 -182.641168 
L 273.550706 -180.030543 
L 269.011941 -177.506935 
L 264.473176 -175.853582 
L 259.934412 -174.15964 
L 255.395647 -171.809979 
L 250.856882 -169.588927 
L 246.318118 -167.298701 
L 241.779353 -165.330569 
L 237.240588 -163.331962 
L 232.701824 -161.565738 
L 228.163059 -159.763014 
L 223.624294 -157.59983 
L 219.085529 -155.481418 
L 214.546765 -153.395744 
L 210.008 -151.42584 
L 205.469235 -149.423557 
L 200.930471 -147.658175 
L 196.391706 -145.844734 
L 191.852941 -143.596515 
L 187.314176 -140.60508 
L 182.775412 -138.576165 
L 178.236647 -136.736555 
L 173.697882 -134.882622 
L 169.159118 -133.477542 
L 164.620353 -131.957625 
L 160.081588 -130.013715 
L 155.542824 -128.035502 
L 151.004059 -125.872212 
L 146.465294 -123.980454 
L 141.926529 -122.231251 
L 137.387765 -120.573965 
L 132.849 -118.924951 
L 128.310235 -117.406671 
L 123.771471 -115.342788 
L 119.232706 -113.355866 
L 114.693941 -111.716195 
L 110.155176 -110.166315 
L 105.616412 -108.452922 
L 101.077647 -106.914381 
L 96.538882 -105.204307 
L 92.000118 -103.088933 
L 87.461353 -100.813552 
L 82.922588 -98.852444 
L 78.383824 -96.603483 
L 73.845059 -94.604034 
L 69.306294 -92.993865 
L 64.767529 -91.175291 
L 60.228765 -89.3005 
L 55.69 -87.275645 
z
" id="med665e0e41" style="stroke:#2ca02c;"/>
    </defs>
    <g clip-path="url(#p749730a88a)">
     <use style="fill:#2ca02c;stroke:#2ca02c;" x="0" xlink:href="#med665e0e41" y="648"/>
    </g>
   </g>
   <g id="matplotlib.axis_5">
    <g id="xtick_25">
     <g id="line2d_45">
      <g>
       <use style="stroke:#000000;stroke-width:0.8;" x="55.69" xlink:href="#mcee4ca011e" y="572.51"/>
      </g>
     </g>
     <g id="text_12">
      <!-- 2020-04-02 -->
      <defs>
       <path d="M 4.890625 31.390625 
L 31.203125 31.390625 
L 31.203125 23.390625 
L 4.890625 23.390625 
z
" id="DejaVuSans-2d"/>
      </defs>
      <g transform="translate(58.449375 637.625625)rotate(-90)scale(0.1 -0.1)">
       <use xlink:href="#DejaVuSans-32"/>
       <use x="63.623047" xlink:href="#DejaVuSans-30"/>
       <use x="127.246094" xlink:href="#DejaVuSans-32"/>
       <use x="190.869141" xlink:href="#DejaVuSans-30"/>
       <use x="254.492188" xlink:href="#DejaVuSans-2d"/>
       <use x="290.576172" xlink:href="#DejaVuSans-30"/>
       <use x="354.199219" xlink:href="#DejaVuSans-34"/>
       <use x="417.822266" xlink:href="#DejaVuSans-2d"/>
       <use x="453.90625" xlink:href="#DejaVuSans-30"/>
       <use x="517.529297" xlink:href="#DejaVuSans-32"/>
      </g>
     </g>
    </g>
    <g id="xtick_26">
     <g id="line2d_46">
      <g>
       <use style="stroke:#000000;stroke-width:0.8;" x="90.762273" xlink:href="#mcee4ca011e" y="572.51"/>
      </g>
     </g>
     <g id="text_13">
      <!-- 2020-04-09 -->
      <defs>
       <path d="M 10.984375 1.515625 
L 10.984375 10.5 
Q 14.703125 8.734375 18.5 7.8125 
Q 22.3125 6.890625 25.984375 6.890625 
Q 35.75 6.890625 40.890625 13.453125 
Q 46.046875 20.015625 46.78125 33.40625 
Q 43.953125 29.203125 39.59375 26.953125 
Q 35.25 24.703125 29.984375 24.703125 
Q 19.046875 24.703125 12.671875 31.3125 
Q 6.296875 37.9375 6.296875 49.421875 
Q 6.296875 60.640625 12.9375 67.421875 
Q 19.578125 74.21875 30.609375 74.21875 
Q 43.265625 74.21875 49.921875 64.515625 
Q 56.59375 54.828125 56.59375 36.375 
Q 56.59375 19.140625 48.40625 8.859375 
Q 40.234375 -1.421875 26.421875 -1.421875 
Q 22.703125 -1.421875 18.890625 -0.6875 
Q 15.09375 0.046875 10.984375 1.515625 
z
M 30.609375 32.421875 
Q 37.25 32.421875 41.125 36.953125 
Q 45.015625 41.5 45.015625 49.421875 
Q 45.015625 57.28125 41.125 61.84375 
Q 37.25 66.40625 30.609375 66.40625 
Q 23.96875 66.40625 20.09375 61.84375 
Q 16.21875 57.28125 16.21875 49.421875 
Q 16.21875 41.5 20.09375 36.953125 
Q 23.96875 32.421875 30.609375 32.421875 
z
" id="DejaVuSans-39"/>
      </defs>
      <g transform="translate(93.521648 637.625625)rotate(-90)scale(0.1 -0.1)">
       <use xlink:href="#DejaVuSans-32"/>
       <use x="63.623047" xlink:href="#DejaVuSans-30"/>
       <use x="127.246094" xlink:href="#DejaVuSans-32"/>
       <use x="190.869141" xlink:href="#DejaVuSans-30"/>
       <use x="254.492188" xlink:href="#DejaVuSans-2d"/>
       <use x="290.576172" xlink:href="#DejaVuSans-30"/>
       <use x="354.199219" xlink:href="#DejaVuSans-34"/>
       <use x="417.822266" xlink:href="#DejaVuSans-2d"/>
       <use x="453.90625" xlink:href="#DejaVuSans-30"/>
       <use x="517.529297" xlink:href="#DejaVuSans-39"/>
      </g>
     </g>
    </g>
    <g id="xtick_27">
     <g id="line2d_47">
      <g>
       <use style="stroke:#000000;stroke-width:0.8;" x="125.834545" xlink:href="#mcee4ca011e" y="572.51"/>
      </g>
     </g>
     <g id="text_14">
      <!-- 2020-04-17 -->
      <g transform="translate(128.59392 637.625625)rotate(-90)scale(0.1 -0.1)">
       <use xlink:href="#DejaVuSans-32"/>
       <use x="63.623047" xlink:href="#DejaVuSans-30"/>
       <use x="127.246094" xlink:href="#DejaVuSans-32"/>
       <use x="190.869141" xlink:href="#DejaVuSans-30"/>
       <use x="254.492188" xlink:href="#DejaVuSans-2d"/>
       <use x="290.576172" xlink:href="#DejaVuSans-30"/>
       <use x="354.199219" xlink:href="#DejaVuSans-34"/>
       <use x="417.822266" xlink:href="#DejaVuSans-2d"/>
       <use x="453.90625" xlink:href="#DejaVuSans-31"/>
       <use x="517.529297" xlink:href="#DejaVuSans-37"/>
      </g>
     </g>
    </g>
    <g id="xtick_28">
     <g id="line2d_48">
      <g>
       <use style="stroke:#000000;stroke-width:0.8;" x="160.906818" xlink:href="#mcee4ca011e" y="572.51"/>
      </g>
     </g>
     <g id="text_15">
      <!-- 2020-04-25 -->
      <g transform="translate(163.666193 637.625625)rotate(-90)scale(0.1 -0.1)">
       <use xlink:href="#DejaVuSans-32"/>
       <use x="63.623047" xlink:href="#DejaVuSans-30"/>
       <use x="127.246094" xlink:href="#DejaVuSans-32"/>
       <use x="190.869141" xlink:href="#DejaVuSans-30"/>
       <use x="254.492188" xlink:href="#DejaVuSans-2d"/>
       <use x="290.576172" xlink:href="#DejaVuSans-30"/>
       <use x="354.199219" xlink:href="#DejaVuSans-34"/>
       <use x="417.822266" xlink:href="#DejaVuSans-2d"/>
       <use x="453.90625" xlink:href="#DejaVuSans-32"/>
       <use x="517.529297" xlink:href="#DejaVuSans-35"/>
      </g>
     </g>
    </g>
    <g id="xtick_29">
     <g id="line2d_49">
      <g>
       <use style="stroke:#000000;stroke-width:0.8;" x="195.979091" xlink:href="#mcee4ca011e" y="572.51"/>
      </g>
     </g>
     <g id="text_16">
      <!-- 2020-05-02 -->
      <g transform="translate(198.738466 637.625625)rotate(-90)scale(0.1 -0.1)">
       <use xlink:href="#DejaVuSans-32"/>
       <use x="63.623047" xlink:href="#DejaVuSans-30"/>
       <use x="127.246094" xlink:href="#DejaVuSans-32"/>
       <use x="190.869141" xlink:href="#DejaVuSans-30"/>
       <use x="254.492188" xlink:href="#DejaVuSans-2d"/>
       <use x="290.576172" xlink:href="#DejaVuSans-30"/>
       <use x="354.199219" xlink:href="#DejaVuSans-35"/>
       <use x="417.822266" xlink:href="#DejaVuSans-2d"/>
       <use x="453.90625" xlink:href="#DejaVuSans-30"/>
       <use x="517.529297" xlink:href="#DejaVuSans-32"/>
      </g>
     </g>
    </g>
    <g id="xtick_30">
     <g id="line2d_50">
      <g>
       <use style="stroke:#000000;stroke-width:0.8;" x="231.051364" xlink:href="#mcee4ca011e" y="572.51"/>
      </g>
     </g>
     <g id="text_17">
      <!-- 2020-05-10 -->
      <g transform="translate(233.810739 637.625625)rotate(-90)scale(0.1 -0.1)">
       <use xlink:href="#DejaVuSans-32"/>
       <use x="63.623047" xlink:href="#DejaVuSans-30"/>
       <use x="127.246094" xlink:href="#DejaVuSans-32"/>
       <use x="190.869141" xlink:href="#DejaVuSans-30"/>
       <use x="254.492188" xlink:href="#DejaVuSans-2d"/>
       <use x="290.576172" xlink:href="#DejaVuSans-30"/>
       <use x="354.199219" xlink:href="#DejaVuSans-35"/>
       <use x="417.822266" xlink:href="#DejaVuSans-2d"/>
       <use x="453.90625" xlink:href="#DejaVuSans-31"/>
       <use x="517.529297" xlink:href="#DejaVuSans-30"/>
      </g>
     </g>
    </g>
    <g id="xtick_31">
     <g id="line2d_51">
      <g>
       <use style="stroke:#000000;stroke-width:0.8;" x="266.123636" xlink:href="#mcee4ca011e" y="572.51"/>
      </g>
     </g>
     <g id="text_18">
      <!-- 2020-05-18 -->
      <g transform="translate(268.883011 637.625625)rotate(-90)scale(0.1 -0.1)">
       <use xlink:href="#DejaVuSans-32"/>
       <use x="63.623047" xlink:href="#DejaVuSans-30"/>
       <use x="127.246094" xlink:href="#DejaVuSans-32"/>
       <use x="190.869141" xlink:href="#DejaVuSans-30"/>
       <use x="254.492188" xlink:href="#DejaVuSans-2d"/>
       <use x="290.576172" xlink:href="#DejaVuSans-30"/>
       <use x="354.199219" xlink:href="#DejaVuSans-35"/>
       <use x="417.822266" xlink:href="#DejaVuSans-2d"/>
       <use x="453.90625" xlink:href="#DejaVuSans-31"/>
       <use x="517.529297" xlink:href="#DejaVuSans-38"/>
      </g>
     </g>
    </g>
    <g id="xtick_32">
     <g id="line2d_52">
      <g>
       <use style="stroke:#000000;stroke-width:0.8;" x="301.195909" xlink:href="#mcee4ca011e" y="572.51"/>
      </g>
     </g>
     <g id="text_19">
      <!-- 2020-05-26 -->
      <g transform="translate(303.955284 637.625625)rotate(-90)scale(0.1 -0.1)">
       <use xlink:href="#DejaVuSans-32"/>
       <use x="63.623047" xlink:href="#DejaVuSans-30"/>
       <use x="127.246094" xlink:href="#DejaVuSans-32"/>
       <use x="190.869141" xlink:href="#DejaVuSans-30"/>
       <use x="254.492188" xlink:href="#DejaVuSans-2d"/>
       <use x="290.576172" xlink:href="#DejaVuSans-30"/>
       <use x="354.199219" xlink:href="#DejaVuSans-35"/>
       <use x="417.822266" xlink:href="#DejaVuSans-2d"/>
       <use x="453.90625" xlink:href="#DejaVuSans-32"/>
       <use x="517.529297" xlink:href="#DejaVuSans-36"/>
      </g>
     </g>
    </g>
    <g id="xtick_33">
     <g id="line2d_53">
      <g>
       <use style="stroke:#000000;stroke-width:0.8;" x="336.268182" xlink:href="#mcee4ca011e" y="572.51"/>
      </g>
     </g>
     <g id="text_20">
      <!-- 2020-06-02 -->
      <g transform="translate(339.027557 637.625625)rotate(-90)scale(0.1 -0.1)">
       <use xlink:href="#DejaVuSans-32"/>
       <use x="63.623047" xlink:href="#DejaVuSans-30"/>
       <use x="127.246094" xlink:href="#DejaVuSans-32"/>
       <use x="190.869141" xlink:href="#DejaVuSans-30"/>
       <use x="254.492188" xlink:href="#DejaVuSans-2d"/>
       <use x="290.576172" xlink:href="#DejaVuSans-30"/>
       <use x="354.199219" xlink:href="#DejaVuSans-36"/>
       <use x="417.822266" xlink:href="#DejaVuSans-2d"/>
       <use x="453.90625" xlink:href="#DejaVuSans-30"/>
       <use x="517.529297" xlink:href="#DejaVuSans-32"/>
      </g>
     </g>
    </g>
    <g id="xtick_34">
     <g id="line2d_54">
      <g>
       <use style="stroke:#000000;stroke-width:0.8;" x="371.340455" xlink:href="#mcee4ca011e" y="572.51"/>
      </g>
     </g>
     <g id="text_21">
      <!-- 2020-06-10 -->
      <g transform="translate(374.09983 637.625625)rotate(-90)scale(0.1 -0.1)">
       <use xlink:href="#DejaVuSans-32"/>
       <use x="63.623047" xlink:href="#DejaVuSans-30"/>
       <use x="127.246094" xlink:href="#DejaVuSans-32"/>
       <use x="190.869141" xlink:href="#DejaVuSans-30"/>
       <use x="254.492188" xlink:href="#DejaVuSans-2d"/>
       <use x="290.576172" xlink:href="#DejaVuSans-30"/>
       <use x="354.199219" xlink:href="#DejaVuSans-36"/>
       <use x="417.822266" xlink:href="#DejaVuSans-2d"/>
       <use x="453.90625" xlink:href="#DejaVuSans-31"/>
       <use x="517.529297" xlink:href="#DejaVuSans-30"/>
      </g>
     </g>
    </g>
    <g id="xtick_35">
     <g id="line2d_55">
      <g>
       <use style="stroke:#000000;stroke-width:0.8;" x="406.412727" xlink:href="#mcee4ca011e" y="572.51"/>
      </g>
     </g>
     <g id="text_22">
      <!-- 2020-06-18 -->
      <g transform="translate(409.172102 637.625625)rotate(-90)scale(0.1 -0.1)">
       <use xlink:href="#DejaVuSans-32"/>
       <use x="63.623047" xlink:href="#DejaVuSans-30"/>
       <use x="127.246094" xlink:href="#DejaVuSans-32"/>
       <use x="190.869141" xlink:href="#DejaVuSans-30"/>
       <use x="254.492188" xlink:href="#DejaVuSans-2d"/>
       <use x="290.576172" xlink:href="#DejaVuSans-30"/>
       <use x="354.199219" xlink:href="#DejaVuSans-36"/>
       <use x="417.822266" xlink:href="#DejaVuSans-2d"/>
       <use x="453.90625" xlink:href="#DejaVuSans-31"/>
       <use x="517.529297" xlink:href="#DejaVuSans-38"/>
      </g>
     </g>
    </g>
    <g id="xtick_36">
     <g id="line2d_56">
      <g>
       <use style="stroke:#000000;stroke-width:0.8;" x="441.485" xlink:href="#mcee4ca011e" y="572.51"/>
      </g>
     </g>
     <g id="text_23">
      <!-- 2020-06-26 -->
      <g transform="translate(444.244375 637.625625)rotate(-90)scale(0.1 -0.1)">
       <use xlink:href="#DejaVuSans-32"/>
       <use x="63.623047" xlink:href="#DejaVuSans-30"/>
       <use x="127.246094" xlink:href="#DejaVuSans-32"/>
       <use x="190.869141" xlink:href="#DejaVuSans-30"/>
       <use x="254.492188" xlink:href="#DejaVuSans-2d"/>
       <use x="290.576172" xlink:href="#DejaVuSans-30"/>
       <use x="354.199219" xlink:href="#DejaVuSans-36"/>
       <use x="417.822266" xlink:href="#DejaVuSans-2d"/>
       <use x="453.90625" xlink:href="#DejaVuSans-32"/>
       <use x="517.529297" xlink:href="#DejaVuSans-36"/>
      </g>
     </g>
    </g>
   </g>
   <g id="matplotlib.axis_6">
    <g id="ytick_19">
     <g id="line2d_57">
      <g>
       <use style="stroke:#000000;stroke-width:0.8;" x="55.69" xlink:href="#m12c82ef056" y="572.51"/>
      </g>
     </g>
     <g id="text_24">
      <!-- 0 -->
      <g transform="translate(42.3275 576.309219)scale(0.1 -0.1)">
       <use xlink:href="#DejaVuSans-30"/>
      </g>
     </g>
    </g>
    <g id="ytick_20">
     <g id="line2d_58">
      <g>
       <use style="stroke:#000000;stroke-width:0.8;" x="55.69" xlink:href="#m12c82ef056" y="542.726378"/>
      </g>
     </g>
     <g id="text_25">
      <!-- 100000 -->
      <g transform="translate(10.515 546.525596)scale(0.1 -0.1)">
       <use xlink:href="#DejaVuSans-31"/>
       <use x="63.623047" xlink:href="#DejaVuSans-30"/>
       <use x="127.246094" xlink:href="#DejaVuSans-30"/>
       <use x="190.869141" xlink:href="#DejaVuSans-30"/>
       <use x="254.492188" xlink:href="#DejaVuSans-30"/>
       <use x="318.115234" xlink:href="#DejaVuSans-30"/>
      </g>
     </g>
    </g>
    <g id="ytick_21">
     <g id="line2d_59">
      <g>
       <use style="stroke:#000000;stroke-width:0.8;" x="55.69" xlink:href="#m12c82ef056" y="512.942755"/>
      </g>
     </g>
     <g id="text_26">
      <!-- 200000 -->
      <g transform="translate(10.515 516.741974)scale(0.1 -0.1)">
       <use xlink:href="#DejaVuSans-32"/>
       <use x="63.623047" xlink:href="#DejaVuSans-30"/>
       <use x="127.246094" xlink:href="#DejaVuSans-30"/>
       <use x="190.869141" xlink:href="#DejaVuSans-30"/>
       <use x="254.492188" xlink:href="#DejaVuSans-30"/>
       <use x="318.115234" xlink:href="#DejaVuSans-30"/>
      </g>
     </g>
    </g>
    <g id="ytick_22">
     <g id="line2d_60">
      <g>
       <use style="stroke:#000000;stroke-width:0.8;" x="55.69" xlink:href="#m12c82ef056" y="483.159133"/>
      </g>
     </g>
     <g id="text_27">
      <!-- 300000 -->
      <g transform="translate(10.515 486.958352)scale(0.1 -0.1)">
       <use xlink:href="#DejaVuSans-33"/>
       <use x="63.623047" xlink:href="#DejaVuSans-30"/>
       <use x="127.246094" xlink:href="#DejaVuSans-30"/>
       <use x="190.869141" xlink:href="#DejaVuSans-30"/>
       <use x="254.492188" xlink:href="#DejaVuSans-30"/>
       <use x="318.115234" xlink:href="#DejaVuSans-30"/>
      </g>
     </g>
    </g>
    <g id="ytick_23">
     <g id="line2d_61">
      <g>
       <use style="stroke:#000000;stroke-width:0.8;" x="55.69" xlink:href="#m12c82ef056" y="453.37551"/>
      </g>
     </g>
     <g id="text_28">
      <!-- 400000 -->
      <g transform="translate(10.515 457.174729)scale(0.1 -0.1)">
       <use xlink:href="#DejaVuSans-34"/>
       <use x="63.623047" xlink:href="#DejaVuSans-30"/>
       <use x="127.246094" xlink:href="#DejaVuSans-30"/>
       <use x="190.869141" xlink:href="#DejaVuSans-30"/>
       <use x="254.492188" xlink:href="#DejaVuSans-30"/>
       <use x="318.115234" xlink:href="#DejaVuSans-30"/>
      </g>
     </g>
    </g>
    <g id="ytick_24">
     <g id="line2d_62">
      <g>
       <use style="stroke:#000000;stroke-width:0.8;" x="55.69" xlink:href="#m12c82ef056" y="423.591888"/>
      </g>
     </g>
     <g id="text_29">
      <!-- 500000 -->
      <g transform="translate(10.515 427.391107)scale(0.1 -0.1)">
       <use xlink:href="#DejaVuSans-35"/>
       <use x="63.623047" xlink:href="#DejaVuSans-30"/>
       <use x="127.246094" xlink:href="#DejaVuSans-30"/>
       <use x="190.869141" xlink:href="#DejaVuSans-30"/>
       <use x="254.492188" xlink:href="#DejaVuSans-30"/>
       <use x="318.115234" xlink:href="#DejaVuSans-30"/>
      </g>
     </g>
    </g>
    <g id="ytick_25">
     <g id="line2d_63">
      <g>
       <use style="stroke:#000000;stroke-width:0.8;" x="55.69" xlink:href="#m12c82ef056" y="393.808266"/>
      </g>
     </g>
     <g id="text_30">
      <!-- 600000 -->
      <g transform="translate(10.515 397.607484)scale(0.1 -0.1)">
       <use xlink:href="#DejaVuSans-36"/>
       <use x="63.623047" xlink:href="#DejaVuSans-30"/>
       <use x="127.246094" xlink:href="#DejaVuSans-30"/>
       <use x="190.869141" xlink:href="#DejaVuSans-30"/>
       <use x="254.492188" xlink:href="#DejaVuSans-30"/>
       <use x="318.115234" xlink:href="#DejaVuSans-30"/>
      </g>
     </g>
    </g>
    <g id="ytick_26">
     <g id="line2d_64">
      <g>
       <use style="stroke:#000000;stroke-width:0.8;" x="55.69" xlink:href="#m12c82ef056" y="364.024643"/>
      </g>
     </g>
     <g id="text_31">
      <!-- 700000 -->
      <g transform="translate(10.515 367.823862)scale(0.1 -0.1)">
       <use xlink:href="#DejaVuSans-37"/>
       <use x="63.623047" xlink:href="#DejaVuSans-30"/>
       <use x="127.246094" xlink:href="#DejaVuSans-30"/>
       <use x="190.869141" xlink:href="#DejaVuSans-30"/>
       <use x="254.492188" xlink:href="#DejaVuSans-30"/>
       <use x="318.115234" xlink:href="#DejaVuSans-30"/>
      </g>
     </g>
    </g>
    <g id="ytick_27">
     <g id="line2d_65">
      <g>
       <use style="stroke:#000000;stroke-width:0.8;" x="55.69" xlink:href="#m12c82ef056" y="334.241021"/>
      </g>
     </g>
     <g id="text_32">
      <!-- 800000 -->
      <g transform="translate(10.515 338.040239)scale(0.1 -0.1)">
       <use xlink:href="#DejaVuSans-38"/>
       <use x="63.623047" xlink:href="#DejaVuSans-30"/>
       <use x="127.246094" xlink:href="#DejaVuSans-30"/>
       <use x="190.869141" xlink:href="#DejaVuSans-30"/>
       <use x="254.492188" xlink:href="#DejaVuSans-30"/>
       <use x="318.115234" xlink:href="#DejaVuSans-30"/>
      </g>
     </g>
    </g>
   </g>
   <g id="line2d_66">
    <path clip-path="url(#p749730a88a)" d="M 55.69 560.724355 
L 60.228765 558.6995 
L 64.767529 556.824709 
L 69.306294 555.006135 
L 73.845059 553.395966 
L 78.383824 551.396517 
L 82.922588 549.147556 
L 87.461353 547.186448 
L 92.000118 544.911067 
L 96.538882 542.795693 
L 101.077647 541.085619 
L 105.616412 539.547078 
L 110.155176 537.833685 
L 114.693941 536.283805 
L 119.232706 534.644134 
L 123.771471 532.657212 
L 128.310235 530.593329 
L 132.849 529.075049 
L 137.387765 527.426035 
L 141.926529 525.768749 
L 146.465294 524.019546 
L 151.004059 522.127788 
L 155.542824 519.964498 
L 160.081588 517.986285 
L 164.620353 516.042375 
L 169.159118 514.522458 
L 173.697882 513.117378 
L 178.236647 511.263445 
L 182.775412 509.423835 
L 187.314176 507.39492 
L 191.852941 504.403485 
L 196.391706 502.155266 
L 200.930471 500.341825 
L 205.469235 498.576443 
L 210.008 496.57416 
L 214.546765 494.604256 
L 219.085529 492.518582 
L 223.624294 490.40017 
L 228.163059 488.236986 
L 232.701824 486.434262 
L 237.240588 484.668038 
L 241.779353 482.669431 
L 246.318118 480.701299 
L 250.856882 478.411073 
L 255.395647 476.190021 
L 259.934412 473.84036 
L 264.473176 472.146418 
L 269.011941 470.493065 
L 273.550706 467.969457 
L 278.089471 465.358832 
L 282.628235 463.276985 
L 287.167 461.305597 
L 291.705765 458.606634 
L 296.244529 456.349284 
L 300.783294 454.313231 
L 305.322059 452.361524 
L 309.860824 450.523849 
L 314.399588 448.037227 
L 318.938353 445.004247 
L 323.477118 442.798971 
L 328.015882 440.520181 
L 332.554647 438.495317 
L 337.093412 435.529502 
L 341.632176 433.464931 
L 346.170941 430.300524 
L 350.709706 427.349394 
L 355.248471 424.991206 
L 359.787235 422.527046 
L 364.326 419.610017 
L 368.864765 417.372698 
L 373.403529 414.501213 
L 377.942294 411.536982 
L 382.481059 407.472661 
L 387.019824 403.778845 
L 391.558588 400.480209 
L 396.097353 397.443564 
L 400.636118 393.248511 
L 405.174882 389.811385 
L 409.713647 385.943412 
L 414.252412 380.846492 
L 418.791176 375.717919 
L 423.329941 371.833729 
L 427.868706 367.474308 
L 432.407471 362.363861 
L 436.946235 356.037249 
L 441.485 349.00344 
" style="fill:none;stroke:#2ca02c;stroke-linecap:square;stroke-width:1.5;"/>
   </g>
   <g id="patch_13">
    <path d="M 55.69 572.51 
L 55.69 314.755 
" style="fill:none;stroke:#000000;stroke-linecap:square;stroke-linejoin:miter;stroke-width:0.8;"/>
   </g>
   <g id="patch_14">
    <path d="M 441.485 572.51 
L 441.485 314.755 
" style="fill:none;stroke:#000000;stroke-linecap:square;stroke-linejoin:miter;stroke-width:0.8;"/>
   </g>
   <g id="patch_15">
    <path d="M 55.69 572.51 
L 441.485 572.51 
" style="fill:none;stroke:#000000;stroke-linecap:square;stroke-linejoin:miter;stroke-width:0.8;"/>
   </g>
   <g id="patch_16">
    <path d="M 55.69 314.755 
L 441.485 314.755 
" style="fill:none;stroke:#000000;stroke-linecap:square;stroke-linejoin:miter;stroke-width:0.8;"/>
   </g>
   <g id="text_33">
    <!-- South -->
    <defs>
     <path d="M 53.515625 70.515625 
L 53.515625 60.890625 
Q 47.90625 63.578125 42.921875 64.890625 
Q 37.9375 66.21875 33.296875 66.21875 
Q 25.25 66.21875 20.875 63.09375 
Q 16.5 59.96875 16.5 54.203125 
Q 16.5 49.359375 19.40625 46.890625 
Q 22.3125 44.4375 30.421875 42.921875 
L 36.375 41.703125 
Q 47.40625 39.59375 52.65625 34.296875 
Q 57.90625 29 57.90625 20.125 
Q 57.90625 9.515625 50.796875 4.046875 
Q 43.703125 -1.421875 29.984375 -1.421875 
Q 24.8125 -1.421875 18.96875 -0.25 
Q 13.140625 0.921875 6.890625 3.21875 
L 6.890625 13.375 
Q 12.890625 10.015625 18.65625 8.296875 
Q 24.421875 6.59375 29.984375 6.59375 
Q 38.421875 6.59375 43.015625 9.90625 
Q 47.609375 13.234375 47.609375 19.390625 
Q 47.609375 24.75 44.3125 27.78125 
Q 41.015625 30.8125 33.5 32.328125 
L 27.484375 33.5 
Q 16.453125 35.6875 11.515625 40.375 
Q 6.59375 45.0625 6.59375 53.421875 
Q 6.59375 63.09375 13.40625 68.65625 
Q 20.21875 74.21875 32.171875 74.21875 
Q 37.3125 74.21875 42.625 73.28125 
Q 47.953125 72.359375 53.515625 70.515625 
z
" id="DejaVuSans-53"/>
     <path d="M 8.5 21.578125 
L 8.5 54.6875 
L 17.484375 54.6875 
L 17.484375 21.921875 
Q 17.484375 14.15625 20.5 10.265625 
Q 23.53125 6.390625 29.59375 6.390625 
Q 36.859375 6.390625 41.078125 11.03125 
Q 45.3125 15.671875 45.3125 23.6875 
L 45.3125 54.6875 
L 54.296875 54.6875 
L 54.296875 0 
L 45.3125 0 
L 45.3125 8.40625 
Q 42.046875 3.421875 37.71875 1 
Q 33.40625 -1.421875 27.6875 -1.421875 
Q 18.265625 -1.421875 13.375 4.4375 
Q 8.5 10.296875 8.5 21.578125 
z
M 31.109375 56 
z
" id="DejaVuSans-75"/>
    </defs>
    <g transform="translate(231.15 308.755)scale(0.12 -0.12)">
     <use xlink:href="#DejaVuSans-53"/>
     <use x="63.476562" xlink:href="#DejaVuSans-6f"/>
     <use x="124.658203" xlink:href="#DejaVuSans-75"/>
     <use x="188.037109" xlink:href="#DejaVuSans-74"/>
     <use x="227.246094" xlink:href="#DejaVuSans-68"/>
    </g>
   </g>
  </g>
  <g id="axes_4">
   <g id="patch_17">
    <path d="M 462.365 572.51 
L 848.16 572.51 
L 848.16 314.755 
L 462.365 314.755 
z
" style="fill:#ffffff;"/>
   </g>
   <g id="PolyCollection_4">
    <defs>
     <path d="M 462.365 -82.691124 
L 462.365 -75.49 
L 466.903765 -75.49 
L 471.442529 -75.49 
L 475.981294 -75.49 
L 480.520059 -75.49 
L 485.058824 -75.49 
L 489.597588 -75.49 
L 494.136353 -75.49 
L 498.675118 -75.49 
L 503.213882 -75.49 
L 507.752647 -75.49 
L 512.291412 -75.49 
L 516.830176 -75.49 
L 521.368941 -75.49 
L 525.907706 -75.49 
L 530.446471 -75.49 
L 534.985235 -75.49 
L 539.524 -75.49 
L 544.062765 -75.49 
L 548.601529 -75.49 
L 553.140294 -75.49 
L 557.679059 -75.49 
L 562.217824 -75.49 
L 566.756588 -75.49 
L 571.295353 -75.49 
L 575.834118 -75.49 
L 580.372882 -75.49 
L 584.911647 -75.49 
L 589.450412 -75.49 
L 593.989176 -75.49 
L 598.527941 -75.49 
L 603.066706 -75.49 
L 607.605471 -75.49 
L 612.144235 -75.49 
L 616.683 -75.49 
L 621.221765 -75.49 
L 625.760529 -75.49 
L 630.299294 -75.49 
L 634.838059 -75.49 
L 639.376824 -75.49 
L 643.915588 -75.49 
L 648.454353 -75.49 
L 652.993118 -75.49 
L 657.531882 -75.49 
L 662.070647 -75.49 
L 666.609412 -75.49 
L 671.148176 -75.49 
L 675.686941 -75.49 
L 680.225706 -75.49 
L 684.764471 -75.49 
L 689.303235 -75.49 
L 693.842 -75.49 
L 698.380765 -75.49 
L 702.919529 -75.49 
L 707.458294 -75.49 
L 711.997059 -75.49 
L 716.535824 -75.49 
L 721.074588 -75.49 
L 725.613353 -75.49 
L 730.152118 -75.49 
L 734.690882 -75.49 
L 739.229647 -75.49 
L 743.768412 -75.49 
L 748.307176 -75.49 
L 752.845941 -75.49 
L 757.384706 -75.49 
L 761.923471 -75.49 
L 766.462235 -75.49 
L 771.001 -75.49 
L 775.539765 -75.49 
L 780.078529 -75.49 
L 784.617294 -75.49 
L 789.156059 -75.49 
L 793.694824 -75.49 
L 798.233588 -75.49 
L 802.772353 -75.49 
L 807.311118 -75.49 
L 811.849882 -75.49 
L 816.388647 -75.49 
L 820.927412 -75.49 
L 825.466176 -75.49 
L 830.004941 -75.49 
L 834.543706 -75.49 
L 839.082471 -75.49 
L 843.621235 -75.49 
L 848.16 -75.49 
L 848.16 -188.862345 
L 848.16 -188.862345 
L 843.621235 -185.912966 
L 839.082471 -182.485006 
L 834.543706 -179.586884 
L 830.004941 -177.151622 
L 825.466176 -174.618437 
L 820.927412 -171.282817 
L 816.388647 -168.383935 
L 811.849882 -166.102217 
L 807.311118 -163.99965 
L 802.772353 -162.286325 
L 798.233588 -160.971158 
L 793.694824 -158.951264 
L 789.156059 -156.978116 
L 784.617294 -155.147202 
L 780.078529 -153.447983 
L 775.539765 -152.13321 
L 771.001 -150.892687 
L 766.462235 -149.538854 
L 761.923471 -147.849432 
L 757.384706 -146.09382 
L 752.845941 -144.209809 
L 748.307176 -142.979106 
L 743.768412 -141.531006 
L 739.229647 -140.246233 
L 734.690882 -139.303485 
L 730.152118 -137.676474 
L 725.613353 -135.979264 
L 721.074588 -134.337395 
L 716.535824 -133.342748 
L 711.997059 -132.292621 
L 707.458294 -131.489201 
L 702.919529 -130.646001 
L 698.380765 -129.579368 
L 693.842 -128.236985 
L 689.303235 -127.310793 
L 684.764471 -126.272228 
L 680.225706 -125.332079 
L 675.686941 -124.385659 
L 671.148176 -123.598161 
L 666.609412 -122.756055 
L 662.070647 -121.51413 
L 657.531882 -120.459329 
L 652.993118 -119.430081 
L 648.454353 -118.579865 
L 643.915588 -117.668377 
L 639.376824 -116.734588 
L 634.838059 -115.851903 
L 630.299294 -114.717062 
L 625.760529 -113.74972 
L 621.221765 -112.655622 
L 616.683 -111.515973 
L 612.144235 -110.625444 
L 607.605471 -109.83872 
L 603.066706 -109.083126 
L 598.527941 -107.978186 
L 593.989176 -107.096497 
L 589.450412 -105.894271 
L 584.911647 -104.955939 
L 580.372882 -104.105928 
L 575.834118 -103.330613 
L 571.295353 -102.639595 
L 566.756588 -101.606866 
L 562.217824 -100.423298 
L 557.679059 -99.200028 
L 553.140294 -98.292731 
L 548.601529 -97.192968 
L 544.062765 -96.273983 
L 539.524 -95.91211 
L 534.985235 -95.199616 
L 530.446471 -94.332594 
L 525.907706 -93.279614 
L 521.368941 -92.659991 
L 516.830176 -92.088198 
L 512.291412 -91.620018 
L 507.752647 -90.961741 
L 503.213882 -90.189876 
L 498.675118 -89.451302 
L 494.136353 -88.499933 
L 489.597588 -87.742603 
L 485.058824 -86.956585 
L 480.520059 -86.350314 
L 475.981294 -85.55113 
L 471.442529 -84.58603 
L 466.903765 -83.576389 
L 462.365 -82.691124 
z
" id="m08d9f13f9e" style="stroke:#d62728;"/>
    </defs>
    <g clip-path="url(#pb1b79abd0f)">
     <use style="fill:#d62728;stroke:#d62728;" x="0" xlink:href="#m08d9f13f9e" y="648"/>
    </g>
   </g>
   <g id="matplotlib.axis_7">
    <g id="xtick_37">
     <g id="line2d_67">
      <g>
       <use style="stroke:#000000;stroke-width:0.8;" x="462.365" xlink:href="#mcee4ca011e" y="572.51"/>
      </g>
     </g>
     <g id="text_34">
      <!-- 2020-04-02 -->
      <g transform="translate(465.124375 637.625625)rotate(-90)scale(0.1 -0.1)">
       <use xlink:href="#DejaVuSans-32"/>
       <use x="63.623047" xlink:href="#DejaVuSans-30"/>
       <use x="127.246094" xlink:href="#DejaVuSans-32"/>
       <use x="190.869141" xlink:href="#DejaVuSans-30"/>
       <use x="254.492188" xlink:href="#DejaVuSans-2d"/>
       <use x="290.576172" xlink:href="#DejaVuSans-30"/>
       <use x="354.199219" xlink:href="#DejaVuSans-34"/>
       <use x="417.822266" xlink:href="#DejaVuSans-2d"/>
       <use x="453.90625" xlink:href="#DejaVuSans-30"/>
       <use x="517.529297" xlink:href="#DejaVuSans-32"/>
      </g>
     </g>
    </g>
    <g id="xtick_38">
     <g id="line2d_68">
      <g>
       <use style="stroke:#000000;stroke-width:0.8;" x="497.437273" xlink:href="#mcee4ca011e" y="572.51"/>
      </g>
     </g>
     <g id="text_35">
      <!-- 2020-04-09 -->
      <g transform="translate(500.196648 637.625625)rotate(-90)scale(0.1 -0.1)">
       <use xlink:href="#DejaVuSans-32"/>
       <use x="63.623047" xlink:href="#DejaVuSans-30"/>
       <use x="127.246094" xlink:href="#DejaVuSans-32"/>
       <use x="190.869141" xlink:href="#DejaVuSans-30"/>
       <use x="254.492188" xlink:href="#DejaVuSans-2d"/>
       <use x="290.576172" xlink:href="#DejaVuSans-30"/>
       <use x="354.199219" xlink:href="#DejaVuSans-34"/>
       <use x="417.822266" xlink:href="#DejaVuSans-2d"/>
       <use x="453.90625" xlink:href="#DejaVuSans-30"/>
       <use x="517.529297" xlink:href="#DejaVuSans-39"/>
      </g>
     </g>
    </g>
    <g id="xtick_39">
     <g id="line2d_69">
      <g>
       <use style="stroke:#000000;stroke-width:0.8;" x="532.509545" xlink:href="#mcee4ca011e" y="572.51"/>
      </g>
     </g>
     <g id="text_36">
      <!-- 2020-04-17 -->
      <g transform="translate(535.26892 637.625625)rotate(-90)scale(0.1 -0.1)">
       <use xlink:href="#DejaVuSans-32"/>
       <use x="63.623047" xlink:href="#DejaVuSans-30"/>
       <use x="127.246094" xlink:href="#DejaVuSans-32"/>
       <use x="190.869141" xlink:href="#DejaVuSans-30"/>
       <use x="254.492188" xlink:href="#DejaVuSans-2d"/>
       <use x="290.576172" xlink:href="#DejaVuSans-30"/>
       <use x="354.199219" xlink:href="#DejaVuSans-34"/>
       <use x="417.822266" xlink:href="#DejaVuSans-2d"/>
       <use x="453.90625" xlink:href="#DejaVuSans-31"/>
       <use x="517.529297" xlink:href="#DejaVuSans-37"/>
      </g>
     </g>
    </g>
    <g id="xtick_40">
     <g id="line2d_70">
      <g>
       <use style="stroke:#000000;stroke-width:0.8;" x="567.581818" xlink:href="#mcee4ca011e" y="572.51"/>
      </g>
     </g>
     <g id="text_37">
      <!-- 2020-04-25 -->
      <g transform="translate(570.341193 637.625625)rotate(-90)scale(0.1 -0.1)">
       <use xlink:href="#DejaVuSans-32"/>
       <use x="63.623047" xlink:href="#DejaVuSans-30"/>
       <use x="127.246094" xlink:href="#DejaVuSans-32"/>
       <use x="190.869141" xlink:href="#DejaVuSans-30"/>
       <use x="254.492188" xlink:href="#DejaVuSans-2d"/>
       <use x="290.576172" xlink:href="#DejaVuSans-30"/>
       <use x="354.199219" xlink:href="#DejaVuSans-34"/>
       <use x="417.822266" xlink:href="#DejaVuSans-2d"/>
       <use x="453.90625" xlink:href="#DejaVuSans-32"/>
       <use x="517.529297" xlink:href="#DejaVuSans-35"/>
      </g>
     </g>
    </g>
    <g id="xtick_41">
     <g id="line2d_71">
      <g>
       <use style="stroke:#000000;stroke-width:0.8;" x="602.654091" xlink:href="#mcee4ca011e" y="572.51"/>
      </g>
     </g>
     <g id="text_38">
      <!-- 2020-05-02 -->
      <g transform="translate(605.413466 637.625625)rotate(-90)scale(0.1 -0.1)">
       <use xlink:href="#DejaVuSans-32"/>
       <use x="63.623047" xlink:href="#DejaVuSans-30"/>
       <use x="127.246094" xlink:href="#DejaVuSans-32"/>
       <use x="190.869141" xlink:href="#DejaVuSans-30"/>
       <use x="254.492188" xlink:href="#DejaVuSans-2d"/>
       <use x="290.576172" xlink:href="#DejaVuSans-30"/>
       <use x="354.199219" xlink:href="#DejaVuSans-35"/>
       <use x="417.822266" xlink:href="#DejaVuSans-2d"/>
       <use x="453.90625" xlink:href="#DejaVuSans-30"/>
       <use x="517.529297" xlink:href="#DejaVuSans-32"/>
      </g>
     </g>
    </g>
    <g id="xtick_42">
     <g id="line2d_72">
      <g>
       <use style="stroke:#000000;stroke-width:0.8;" x="637.726364" xlink:href="#mcee4ca011e" y="572.51"/>
      </g>
     </g>
     <g id="text_39">
      <!-- 2020-05-10 -->
      <g transform="translate(640.485739 637.625625)rotate(-90)scale(0.1 -0.1)">
       <use xlink:href="#DejaVuSans-32"/>
       <use x="63.623047" xlink:href="#DejaVuSans-30"/>
       <use x="127.246094" xlink:href="#DejaVuSans-32"/>
       <use x="190.869141" xlink:href="#DejaVuSans-30"/>
       <use x="254.492188" xlink:href="#DejaVuSans-2d"/>
       <use x="290.576172" xlink:href="#DejaVuSans-30"/>
       <use x="354.199219" xlink:href="#DejaVuSans-35"/>
       <use x="417.822266" xlink:href="#DejaVuSans-2d"/>
       <use x="453.90625" xlink:href="#DejaVuSans-31"/>
       <use x="517.529297" xlink:href="#DejaVuSans-30"/>
      </g>
     </g>
    </g>
    <g id="xtick_43">
     <g id="line2d_73">
      <g>
       <use style="stroke:#000000;stroke-width:0.8;" x="672.798636" xlink:href="#mcee4ca011e" y="572.51"/>
      </g>
     </g>
     <g id="text_40">
      <!-- 2020-05-18 -->
      <g transform="translate(675.558011 637.625625)rotate(-90)scale(0.1 -0.1)">
       <use xlink:href="#DejaVuSans-32"/>
       <use x="63.623047" xlink:href="#DejaVuSans-30"/>
       <use x="127.246094" xlink:href="#DejaVuSans-32"/>
       <use x="190.869141" xlink:href="#DejaVuSans-30"/>
       <use x="254.492188" xlink:href="#DejaVuSans-2d"/>
       <use x="290.576172" xlink:href="#DejaVuSans-30"/>
       <use x="354.199219" xlink:href="#DejaVuSans-35"/>
       <use x="417.822266" xlink:href="#DejaVuSans-2d"/>
       <use x="453.90625" xlink:href="#DejaVuSans-31"/>
       <use x="517.529297" xlink:href="#DejaVuSans-38"/>
      </g>
     </g>
    </g>
    <g id="xtick_44">
     <g id="line2d_74">
      <g>
       <use style="stroke:#000000;stroke-width:0.8;" x="707.870909" xlink:href="#mcee4ca011e" y="572.51"/>
      </g>
     </g>
     <g id="text_41">
      <!-- 2020-05-26 -->
      <g transform="translate(710.630284 637.625625)rotate(-90)scale(0.1 -0.1)">
       <use xlink:href="#DejaVuSans-32"/>
       <use x="63.623047" xlink:href="#DejaVuSans-30"/>
       <use x="127.246094" xlink:href="#DejaVuSans-32"/>
       <use x="190.869141" xlink:href="#DejaVuSans-30"/>
       <use x="254.492188" xlink:href="#DejaVuSans-2d"/>
       <use x="290.576172" xlink:href="#DejaVuSans-30"/>
       <use x="354.199219" xlink:href="#DejaVuSans-35"/>
       <use x="417.822266" xlink:href="#DejaVuSans-2d"/>
       <use x="453.90625" xlink:href="#DejaVuSans-32"/>
       <use x="517.529297" xlink:href="#DejaVuSans-36"/>
      </g>
     </g>
    </g>
    <g id="xtick_45">
     <g id="line2d_75">
      <g>
       <use style="stroke:#000000;stroke-width:0.8;" x="742.943182" xlink:href="#mcee4ca011e" y="572.51"/>
      </g>
     </g>
     <g id="text_42">
      <!-- 2020-06-02 -->
      <g transform="translate(745.702557 637.625625)rotate(-90)scale(0.1 -0.1)">
       <use xlink:href="#DejaVuSans-32"/>
       <use x="63.623047" xlink:href="#DejaVuSans-30"/>
       <use x="127.246094" xlink:href="#DejaVuSans-32"/>
       <use x="190.869141" xlink:href="#DejaVuSans-30"/>
       <use x="254.492188" xlink:href="#DejaVuSans-2d"/>
       <use x="290.576172" xlink:href="#DejaVuSans-30"/>
       <use x="354.199219" xlink:href="#DejaVuSans-36"/>
       <use x="417.822266" xlink:href="#DejaVuSans-2d"/>
       <use x="453.90625" xlink:href="#DejaVuSans-30"/>
       <use x="517.529297" xlink:href="#DejaVuSans-32"/>
      </g>
     </g>
    </g>
    <g id="xtick_46">
     <g id="line2d_76">
      <g>
       <use style="stroke:#000000;stroke-width:0.8;" x="778.015455" xlink:href="#mcee4ca011e" y="572.51"/>
      </g>
     </g>
     <g id="text_43">
      <!-- 2020-06-10 -->
      <g transform="translate(780.77483 637.625625)rotate(-90)scale(0.1 -0.1)">
       <use xlink:href="#DejaVuSans-32"/>
       <use x="63.623047" xlink:href="#DejaVuSans-30"/>
       <use x="127.246094" xlink:href="#DejaVuSans-32"/>
       <use x="190.869141" xlink:href="#DejaVuSans-30"/>
       <use x="254.492188" xlink:href="#DejaVuSans-2d"/>
       <use x="290.576172" xlink:href="#DejaVuSans-30"/>
       <use x="354.199219" xlink:href="#DejaVuSans-36"/>
       <use x="417.822266" xlink:href="#DejaVuSans-2d"/>
       <use x="453.90625" xlink:href="#DejaVuSans-31"/>
       <use x="517.529297" xlink:href="#DejaVuSans-30"/>
      </g>
     </g>
    </g>
    <g id="xtick_47">
     <g id="line2d_77">
      <g>
       <use style="stroke:#000000;stroke-width:0.8;" x="813.087727" xlink:href="#mcee4ca011e" y="572.51"/>
      </g>
     </g>
     <g id="text_44">
      <!-- 2020-06-18 -->
      <g transform="translate(815.847102 637.625625)rotate(-90)scale(0.1 -0.1)">
       <use xlink:href="#DejaVuSans-32"/>
       <use x="63.623047" xlink:href="#DejaVuSans-30"/>
       <use x="127.246094" xlink:href="#DejaVuSans-32"/>
       <use x="190.869141" xlink:href="#DejaVuSans-30"/>
       <use x="254.492188" xlink:href="#DejaVuSans-2d"/>
       <use x="290.576172" xlink:href="#DejaVuSans-30"/>
       <use x="354.199219" xlink:href="#DejaVuSans-36"/>
       <use x="417.822266" xlink:href="#DejaVuSans-2d"/>
       <use x="453.90625" xlink:href="#DejaVuSans-31"/>
       <use x="517.529297" xlink:href="#DejaVuSans-38"/>
      </g>
     </g>
    </g>
    <g id="xtick_48">
     <g id="line2d_78">
      <g>
       <use style="stroke:#000000;stroke-width:0.8;" x="848.16" xlink:href="#mcee4ca011e" y="572.51"/>
      </g>
     </g>
     <g id="text_45">
      <!-- 2020-06-26 -->
      <g transform="translate(850.919375 637.625625)rotate(-90)scale(0.1 -0.1)">
       <use xlink:href="#DejaVuSans-32"/>
       <use x="63.623047" xlink:href="#DejaVuSans-30"/>
       <use x="127.246094" xlink:href="#DejaVuSans-32"/>
       <use x="190.869141" xlink:href="#DejaVuSans-30"/>
       <use x="254.492188" xlink:href="#DejaVuSans-2d"/>
       <use x="290.576172" xlink:href="#DejaVuSans-30"/>
       <use x="354.199219" xlink:href="#DejaVuSans-36"/>
       <use x="417.822266" xlink:href="#DejaVuSans-2d"/>
       <use x="453.90625" xlink:href="#DejaVuSans-32"/>
       <use x="517.529297" xlink:href="#DejaVuSans-36"/>
      </g>
     </g>
    </g>
   </g>
   <g id="matplotlib.axis_8">
    <g id="ytick_28">
     <g id="line2d_79">
      <g>
       <use style="stroke:#000000;stroke-width:0.8;" x="462.365" xlink:href="#m12c82ef056" y="572.51"/>
      </g>
     </g>
    </g>
    <g id="ytick_29">
     <g id="line2d_80">
      <g>
       <use style="stroke:#000000;stroke-width:0.8;" x="462.365" xlink:href="#m12c82ef056" y="542.726378"/>
      </g>
     </g>
    </g>
    <g id="ytick_30">
     <g id="line2d_81">
      <g>
       <use style="stroke:#000000;stroke-width:0.8;" x="462.365" xlink:href="#m12c82ef056" y="512.942755"/>
      </g>
     </g>
    </g>
    <g id="ytick_31">
     <g id="line2d_82">
      <g>
       <use style="stroke:#000000;stroke-width:0.8;" x="462.365" xlink:href="#m12c82ef056" y="483.159133"/>
      </g>
     </g>
    </g>
    <g id="ytick_32">
     <g id="line2d_83">
      <g>
       <use style="stroke:#000000;stroke-width:0.8;" x="462.365" xlink:href="#m12c82ef056" y="453.37551"/>
      </g>
     </g>
    </g>
    <g id="ytick_33">
     <g id="line2d_84">
      <g>
       <use style="stroke:#000000;stroke-width:0.8;" x="462.365" xlink:href="#m12c82ef056" y="423.591888"/>
      </g>
     </g>
    </g>
    <g id="ytick_34">
     <g id="line2d_85">
      <g>
       <use style="stroke:#000000;stroke-width:0.8;" x="462.365" xlink:href="#m12c82ef056" y="393.808266"/>
      </g>
     </g>
    </g>
    <g id="ytick_35">
     <g id="line2d_86">
      <g>
       <use style="stroke:#000000;stroke-width:0.8;" x="462.365" xlink:href="#m12c82ef056" y="364.024643"/>
      </g>
     </g>
    </g>
    <g id="ytick_36">
     <g id="line2d_87">
      <g>
       <use style="stroke:#000000;stroke-width:0.8;" x="462.365" xlink:href="#m12c82ef056" y="334.241021"/>
      </g>
     </g>
    </g>
   </g>
   <g id="line2d_88">
    <path clip-path="url(#pb1b79abd0f)" d="M 462.365 565.308876 
L 466.903765 564.423611 
L 471.442529 563.41397 
L 475.981294 562.44887 
L 480.520059 561.649686 
L 485.058824 561.043415 
L 489.597588 560.257397 
L 494.136353 559.500067 
L 498.675118 558.548698 
L 503.213882 557.810124 
L 507.752647 557.038259 
L 512.291412 556.379982 
L 516.830176 555.911802 
L 521.368941 555.340009 
L 525.907706 554.720386 
L 530.446471 553.667406 
L 534.985235 552.800384 
L 539.524 552.08789 
L 544.062765 551.726017 
L 548.601529 550.807032 
L 553.140294 549.707269 
L 557.679059 548.799972 
L 562.217824 547.576702 
L 566.756588 546.393134 
L 571.295353 545.360405 
L 575.834118 544.669387 
L 580.372882 543.894072 
L 584.911647 543.044061 
L 589.450412 542.105729 
L 593.989176 540.903503 
L 598.527941 540.021814 
L 603.066706 538.916874 
L 607.605471 538.16128 
L 612.144235 537.374556 
L 616.683 536.484027 
L 621.221765 535.344378 
L 625.760529 534.25028 
L 630.299294 533.282938 
L 634.838059 532.148097 
L 639.376824 531.265412 
L 643.915588 530.331623 
L 648.454353 529.420135 
L 652.993118 528.569919 
L 657.531882 527.540671 
L 662.070647 526.48587 
L 666.609412 525.243945 
L 671.148176 524.401839 
L 675.686941 523.614341 
L 680.225706 522.667921 
L 684.764471 521.727772 
L 689.303235 520.689207 
L 693.842 519.763015 
L 698.380765 518.420632 
L 702.919529 517.353999 
L 707.458294 516.510799 
L 711.997059 515.707379 
L 716.535824 514.657252 
L 721.074588 513.662605 
L 725.613353 512.020736 
L 730.152118 510.323526 
L 734.690882 508.696515 
L 739.229647 507.753767 
L 743.768412 506.468994 
L 748.307176 505.020894 
L 752.845941 503.790191 
L 757.384706 501.90618 
L 761.923471 500.150568 
L 766.462235 498.461146 
L 771.001 497.107313 
L 775.539765 495.86679 
L 780.078529 494.552017 
L 784.617294 492.852798 
L 789.156059 491.021884 
L 793.694824 489.048736 
L 798.233588 487.028842 
L 802.772353 485.713675 
L 807.311118 484.00035 
L 811.849882 481.897783 
L 816.388647 479.616065 
L 820.927412 476.717183 
L 825.466176 473.381563 
L 830.004941 470.848378 
L 834.543706 468.413116 
L 839.082471 465.514994 
L 843.621235 462.087034 
L 848.16 459.137655 
" style="fill:none;stroke:#d62728;stroke-linecap:square;stroke-width:1.5;"/>
   </g>
   <g id="patch_18">
    <path d="M 462.365 572.51 
L 462.365 314.755 
" style="fill:none;stroke:#000000;stroke-linecap:square;stroke-linejoin:miter;stroke-width:0.8;"/>
   </g>
   <g id="patch_19">
    <path d="M 848.16 572.51 
L 848.16 314.755 
" style="fill:none;stroke:#000000;stroke-linecap:square;stroke-linejoin:miter;stroke-width:0.8;"/>
   </g>
   <g id="patch_20">
    <path d="M 462.365 572.51 
L 848.16 572.51 
" style="fill:none;stroke:#000000;stroke-linecap:square;stroke-linejoin:miter;stroke-width:0.8;"/>
   </g>
   <g id="patch_21">
    <path d="M 462.365 314.755 
L 848.16 314.755 
" style="fill:none;stroke:#000000;stroke-linecap:square;stroke-linejoin:miter;stroke-width:0.8;"/>
   </g>
   <g id="text_46">
    <!-- West -->
    <defs>
     <path d="M 3.328125 72.90625 
L 13.28125 72.90625 
L 28.609375 11.28125 
L 43.890625 72.90625 
L 54.984375 72.90625 
L 70.3125 11.28125 
L 85.59375 72.90625 
L 95.609375 72.90625 
L 77.296875 0 
L 64.890625 0 
L 49.515625 63.28125 
L 33.984375 0 
L 21.578125 0 
z
" id="DejaVuSans-57"/>
    </defs>
    <g transform="translate(640.165 308.755)scale(0.12 -0.12)">
     <use xlink:href="#DejaVuSans-57"/>
     <use x="98.798828" xlink:href="#DejaVuSans-65"/>
     <use x="160.322266" xlink:href="#DejaVuSans-73"/>
     <use x="212.421875" xlink:href="#DejaVuSans-74"/>
    </g>
   </g>
  </g>
 </g>
 <defs>
  <clipPath id="p53038fe2db">
   <rect height="257.755" width="385.795" x="55.69" y="25.44"/>
  </clipPath>
  <clipPath id="p3d88f69ffd">
   <rect height="257.755" width="385.795" x="462.365" y="25.44"/>
  </clipPath>
  <clipPath id="p749730a88a">
   <rect height="257.755" width="385.795" x="55.69" y="314.755"/>
  </clipPath>
  <clipPath id="pb1b79abd0f">
   <rect height="257.755" width="385.795" x="462.365" y="314.755"/>
  </clipPath>
 </defs>
</svg>
