<?xml version="1.0" encoding="utf-8" standalone="no"?>
<!DOCTYPE svg PUBLIC "-//W3C//DTD SVG 1.1//EN"
  "http://www.w3.org/Graphics/SVG/1.1/DTD/svg11.dtd">
<!-- Created with matplotlib (http://matplotlib.org/) -->
<svg height="648pt" version="1.1" viewBox="0 0 864 648" width="864pt" xmlns="http://www.w3.org/2000/svg" xmlns:xlink="http://www.w3.org/1999/xlink">
 <defs>
  <style type="text/css">
*{stroke-linecap:butt;stroke-linejoin:round;}
  </style>
 </defs>
 <g id="figure_1">
  <g id="patch_1">
   <path d="M 0 648 
L 864 648 
L 864 0 
L 0 0 
z
" style="fill:#ffffff;"/>
  </g>
  <g id="axes_1">
   <g id="patch_2">
    <path d="M 49.39 283.195 
L 438.335 283.195 
L 438.335 25.44 
L 49.39 25.44 
z
" style="fill:#ffffff;"/>
   </g>
   <g id="PolyCollection_1">
    <defs>
     <path d="M 49.39 -367.94121 
L 49.39 -364.805 
L 53.965824 -364.805 
L 58.541647 -364.805 
L 63.117471 -364.805 
L 67.693294 -364.805 
L 72.269118 -364.805 
L 76.844941 -364.805 
L 81.420765 -364.805 
L 85.996588 -364.805 
L 90.572412 -364.805 
L 95.148235 -364.805 
L 99.724059 -364.805 
L 104.299882 -364.805 
L 108.875706 -364.805 
L 113.451529 -364.805 
L 118.027353 -364.805 
L 122.603176 -364.805 
L 127.179 -364.805 
L 131.754824 -364.805 
L 136.330647 -364.805 
L 140.906471 -364.805 
L 145.482294 -364.805 
L 150.058118 -364.805 
L 154.633941 -364.805 
L 159.209765 -364.805 
L 163.785588 -364.805 
L 168.361412 -364.805 
L 172.937235 -364.805 
L 177.513059 -364.805 
L 182.088882 -364.805 
L 186.664706 -364.805 
L 191.240529 -364.805 
L 195.816353 -364.805 
L 200.392176 -364.805 
L 204.968 -364.805 
L 209.543824 -364.805 
L 214.119647 -364.805 
L 218.695471 -364.805 
L 223.271294 -364.805 
L 227.847118 -364.805 
L 232.422941 -364.805 
L 236.998765 -364.805 
L 241.574588 -364.805 
L 246.150412 -364.805 
L 250.726235 -364.805 
L 255.302059 -364.805 
L 259.877882 -364.805 
L 264.453706 -364.805 
L 269.029529 -364.805 
L 273.605353 -364.805 
L 278.181176 -364.805 
L 282.757 -364.805 
L 287.332824 -364.805 
L 291.908647 -364.805 
L 296.484471 -364.805 
L 301.060294 -364.805 
L 305.636118 -364.805 
L 310.211941 -364.805 
L 314.787765 -364.805 
L 319.363588 -364.805 
L 323.939412 -364.805 
L 328.515235 -364.805 
L 333.091059 -364.805 
L 337.666882 -364.805 
L 342.242706 -364.805 
L 346.818529 -364.805 
L 351.394353 -364.805 
L 355.970176 -364.805 
L 360.546 -364.805 
L 365.121824 -364.805 
L 369.697647 -364.805 
L 374.273471 -364.805 
L 378.849294 -364.805 
L 383.425118 -364.805 
L 388.000941 -364.805 
L 392.576765 -364.805 
L 397.152588 -364.805 
L 401.728412 -364.805 
L 406.304235 -364.805 
L 410.880059 -364.805 
L 415.455882 -364.805 
L 420.031706 -364.805 
L 424.607529 -364.805 
L 429.183353 -364.805 
L 433.759176 -364.805 
L 438.335 -364.805 
L 438.335 -457.884862 
L 438.335 -457.884862 
L 433.759176 -457.612774 
L 429.183353 -457.334531 
L 424.607529 -456.99838 
L 420.031706 -456.801687 
L 415.455882 -456.675108 
L 410.880059 -456.26587 
L 406.304235 -455.796653 
L 401.728412 -455.275508 
L 397.152588 -454.825443 
L 392.576765 -454.395114 
L 388.000941 -454.174353 
L 383.425118 -453.955634 
L 378.849294 -453.601008 
L 374.273471 -452.730961 
L 369.697647 -452.036992 
L 365.121824 -451.032597 
L 360.546 -450.385488 
L 355.970176 -449.884087 
L 351.394353 -449.29778 
L 346.818529 -448.576231 
L 342.242706 -446.965538 
L 337.666882 -445.63328 
L 333.091059 -444.733833 
L 328.515235 -443.742706 
L 323.939412 -442.969544 
L 319.363588 -442.267692 
L 314.787765 -441.297439 
L 310.211941 -439.870874 
L 305.636118 -438.941561 
L 301.060294 -437.413714 
L 296.484471 -436.551043 
L 291.908647 -436.088994 
L 287.332824 -435.536056 
L 282.757 -434.553879 
L 278.181176 -433.163255 
L 273.605353 -431.898237 
L 269.029529 -430.289332 
L 264.453706 -428.604352 
L 259.877882 -427.563472 
L 255.302059 -427.045655 
L 250.726235 -426.031959 
L 246.150412 -424.654262 
L 241.574588 -423.189041 
L 236.998765 -421.712464 
L 232.422941 -419.614688 
L 227.847118 -418.087221 
L 223.271294 -417.446208 
L 218.695471 -416.543452 
L 214.119647 -415.28807 
L 209.543824 -413.553388 
L 204.968 -411.888068 
L 200.392176 -410.009573 
L 195.816353 -408.830184 
L 191.240529 -408.221486 
L 186.664706 -406.70158 
L 182.088882 -405.42933 
L 177.513059 -403.685831 
L 172.937235 -401.956431 
L 168.361412 -399.97542 
L 163.785588 -398.567086 
L 159.209765 -397.769523 
L 154.633941 -396.378474 
L 150.058118 -394.632184 
L 145.482294 -392.991098 
L 140.906471 -391.433733 
L 136.330647 -389.415781 
L 131.754824 -388.166735 
L 127.179 -387.345786 
L 122.603176 -386.217726 
L 118.027353 -384.932939 
L 113.451529 -383.346299 
L 108.875706 -381.742394 
L 104.299882 -380.09853 
L 99.724059 -378.848335 
L 95.148235 -378.084757 
L 90.572412 -377.047461 
L 85.996588 -375.480382 
L 81.420765 -374.145465 
L 76.844941 -372.92811 
L 72.269118 -371.673669 
L 67.693294 -370.68007 
L 63.117471 -369.908724 
L 58.541647 -369.238734 
L 53.965824 -368.57638 
L 49.39 -367.94121 
z
" id="m8cbff834e0" style="stroke:#1f77b4;"/>
    </defs>
    <g clip-path="url(#pa36046c7d2)">
     <use style="fill:#1f77b4;stroke:#1f77b4;" x="0" xlink:href="#m8cbff834e0" y="648"/>
    </g>
   </g>
   <g id="matplotlib.axis_1">
    <g id="xtick_1">
     <g id="line2d_1">
      <defs>
       <path d="M 0 0 
L 0 3.5 
" id="md294ac678c" style="stroke:#000000;stroke-width:0.8;"/>
      </defs>
      <g>
       <use style="stroke:#000000;stroke-width:0.8;" x="49.39" xlink:href="#md294ac678c" y="283.195"/>
      </g>
     </g>
    </g>
    <g id="xtick_2">
     <g id="line2d_2">
      <g>
       <use style="stroke:#000000;stroke-width:0.8;" x="84.748636" xlink:href="#md294ac678c" y="283.195"/>
      </g>
     </g>
    </g>
    <g id="xtick_3">
     <g id="line2d_3">
      <g>
       <use style="stroke:#000000;stroke-width:0.8;" x="120.107273" xlink:href="#md294ac678c" y="283.195"/>
      </g>
     </g>
    </g>
    <g id="xtick_4">
     <g id="line2d_4">
      <g>
       <use style="stroke:#000000;stroke-width:0.8;" x="155.465909" xlink:href="#md294ac678c" y="283.195"/>
      </g>
     </g>
    </g>
    <g id="xtick_5">
     <g id="line2d_5">
      <g>
       <use style="stroke:#000000;stroke-width:0.8;" x="190.824545" xlink:href="#md294ac678c" y="283.195"/>
      </g>
     </g>
    </g>
    <g id="xtick_6">
     <g id="line2d_6">
      <g>
       <use style="stroke:#000000;stroke-width:0.8;" x="226.183182" xlink:href="#md294ac678c" y="283.195"/>
      </g>
     </g>
    </g>
    <g id="xtick_7">
     <g id="line2d_7">
      <g>
       <use style="stroke:#000000;stroke-width:0.8;" x="261.541818" xlink:href="#md294ac678c" y="283.195"/>
      </g>
     </g>
    </g>
    <g id="xtick_8">
     <g id="line2d_8">
      <g>
       <use style="stroke:#000000;stroke-width:0.8;" x="296.900455" xlink:href="#md294ac678c" y="283.195"/>
      </g>
     </g>
    </g>
    <g id="xtick_9">
     <g id="line2d_9">
      <g>
       <use style="stroke:#000000;stroke-width:0.8;" x="332.259091" xlink:href="#md294ac678c" y="283.195"/>
      </g>
     </g>
    </g>
    <g id="xtick_10">
     <g id="line2d_10">
      <g>
       <use style="stroke:#000000;stroke-width:0.8;" x="367.617727" xlink:href="#md294ac678c" y="283.195"/>
      </g>
     </g>
    </g>
    <g id="xtick_11">
     <g id="line2d_11">
      <g>
       <use style="stroke:#000000;stroke-width:0.8;" x="402.976364" xlink:href="#md294ac678c" y="283.195"/>
      </g>
     </g>
    </g>
    <g id="xtick_12">
     <g id="line2d_12">
      <g>
       <use style="stroke:#000000;stroke-width:0.8;" x="438.335" xlink:href="#md294ac678c" y="283.195"/>
      </g>
     </g>
    </g>
   </g>
   <g id="matplotlib.axis_2">
    <g id="ytick_1">
     <g id="line2d_13">
      <defs>
       <path d="M 0 0 
L -3.5 0 
" id="m7ae615f2ae" style="stroke:#000000;stroke-width:0.8;"/>
      </defs>
      <g>
       <use style="stroke:#000000;stroke-width:0.8;" x="49.39" xlink:href="#m7ae615f2ae" y="283.195"/>
      </g>
     </g>
     <g id="text_1">
      <!-- 0 -->
      <defs>
       <path d="M 31.78125 66.40625 
Q 24.171875 66.40625 20.328125 58.90625 
Q 16.5 51.421875 16.5 36.375 
Q 16.5 21.390625 20.328125 13.890625 
Q 24.171875 6.390625 31.78125 6.390625 
Q 39.453125 6.390625 43.28125 13.890625 
Q 47.125 21.390625 47.125 36.375 
Q 47.125 51.421875 43.28125 58.90625 
Q 39.453125 66.40625 31.78125 66.40625 
z
M 31.78125 74.21875 
Q 44.046875 74.21875 50.515625 64.515625 
Q 56.984375 54.828125 56.984375 36.375 
Q 56.984375 17.96875 50.515625 8.265625 
Q 44.046875 -1.421875 31.78125 -1.421875 
Q 19.53125 -1.421875 13.0625 8.265625 
Q 6.59375 17.96875 6.59375 36.375 
Q 6.59375 54.828125 13.0625 64.515625 
Q 19.53125 74.21875 31.78125 74.21875 
z
" id="DejaVuSans-30"/>
      </defs>
      <g transform="translate(36.0275 286.994219)scale(0.1 -0.1)">
       <use xlink:href="#DejaVuSans-30"/>
      </g>
     </g>
    </g>
    <g id="ytick_2">
     <g id="line2d_14">
      <g>
       <use style="stroke:#000000;stroke-width:0.8;" x="49.39" xlink:href="#m7ae615f2ae" y="240.912622"/>
      </g>
     </g>
     <g id="text_2">
      <!-- 10000 -->
      <defs>
       <path d="M 12.40625 8.296875 
L 28.515625 8.296875 
L 28.515625 63.921875 
L 10.984375 60.40625 
L 10.984375 69.390625 
L 28.421875 72.90625 
L 38.28125 72.90625 
L 38.28125 8.296875 
L 54.390625 8.296875 
L 54.390625 0 
L 12.40625 0 
z
" id="DejaVuSans-31"/>
      </defs>
      <g transform="translate(10.5775 244.711841)scale(0.1 -0.1)">
       <use xlink:href="#DejaVuSans-31"/>
       <use x="63.623047" xlink:href="#DejaVuSans-30"/>
       <use x="127.246094" xlink:href="#DejaVuSans-30"/>
       <use x="190.869141" xlink:href="#DejaVuSans-30"/>
       <use x="254.492188" xlink:href="#DejaVuSans-30"/>
      </g>
     </g>
    </g>
    <g id="ytick_3">
     <g id="line2d_15">
      <g>
       <use style="stroke:#000000;stroke-width:0.8;" x="49.39" xlink:href="#m7ae615f2ae" y="198.630244"/>
      </g>
     </g>
     <g id="text_3">
      <!-- 20000 -->
      <defs>
       <path d="M 19.1875 8.296875 
L 53.609375 8.296875 
L 53.609375 0 
L 7.328125 0 
L 7.328125 8.296875 
Q 12.9375 14.109375 22.625 23.890625 
Q 32.328125 33.6875 34.8125 36.53125 
Q 39.546875 41.84375 41.421875 45.53125 
Q 43.3125 49.21875 43.3125 52.78125 
Q 43.3125 58.59375 39.234375 62.25 
Q 35.15625 65.921875 28.609375 65.921875 
Q 23.96875 65.921875 18.8125 64.3125 
Q 13.671875 62.703125 7.8125 59.421875 
L 7.8125 69.390625 
Q 13.765625 71.78125 18.9375 73 
Q 24.125 74.21875 28.421875 74.21875 
Q 39.75 74.21875 46.484375 68.546875 
Q 53.21875 62.890625 53.21875 53.421875 
Q 53.21875 48.921875 51.53125 44.890625 
Q 49.859375 40.875 45.40625 35.40625 
Q 44.1875 33.984375 37.640625 27.21875 
Q 31.109375 20.453125 19.1875 8.296875 
z
" id="DejaVuSans-32"/>
      </defs>
      <g transform="translate(10.5775 202.429463)scale(0.1 -0.1)">
       <use xlink:href="#DejaVuSans-32"/>
       <use x="63.623047" xlink:href="#DejaVuSans-30"/>
       <use x="127.246094" xlink:href="#DejaVuSans-30"/>
       <use x="190.869141" xlink:href="#DejaVuSans-30"/>
       <use x="254.492188" xlink:href="#DejaVuSans-30"/>
      </g>
     </g>
    </g>
    <g id="ytick_4">
     <g id="line2d_16">
      <g>
       <use style="stroke:#000000;stroke-width:0.8;" x="49.39" xlink:href="#m7ae615f2ae" y="156.347866"/>
      </g>
     </g>
     <g id="text_4">
      <!-- 30000 -->
      <defs>
       <path d="M 40.578125 39.3125 
Q 47.65625 37.796875 51.625 33 
Q 55.609375 28.21875 55.609375 21.1875 
Q 55.609375 10.40625 48.1875 4.484375 
Q 40.765625 -1.421875 27.09375 -1.421875 
Q 22.515625 -1.421875 17.65625 -0.515625 
Q 12.796875 0.390625 7.625 2.203125 
L 7.625 11.71875 
Q 11.71875 9.328125 16.59375 8.109375 
Q 21.484375 6.890625 26.8125 6.890625 
Q 36.078125 6.890625 40.9375 10.546875 
Q 45.796875 14.203125 45.796875 21.1875 
Q 45.796875 27.640625 41.28125 31.265625 
Q 36.765625 34.90625 28.71875 34.90625 
L 20.21875 34.90625 
L 20.21875 43.015625 
L 29.109375 43.015625 
Q 36.375 43.015625 40.234375 45.921875 
Q 44.09375 48.828125 44.09375 54.296875 
Q 44.09375 59.90625 40.109375 62.90625 
Q 36.140625 65.921875 28.71875 65.921875 
Q 24.65625 65.921875 20.015625 65.03125 
Q 15.375 64.15625 9.8125 62.3125 
L 9.8125 71.09375 
Q 15.4375 72.65625 20.34375 73.4375 
Q 25.25 74.21875 29.59375 74.21875 
Q 40.828125 74.21875 47.359375 69.109375 
Q 53.90625 64.015625 53.90625 55.328125 
Q 53.90625 49.265625 50.4375 45.09375 
Q 46.96875 40.921875 40.578125 39.3125 
z
" id="DejaVuSans-33"/>
      </defs>
      <g transform="translate(10.5775 160.147085)scale(0.1 -0.1)">
       <use xlink:href="#DejaVuSans-33"/>
       <use x="63.623047" xlink:href="#DejaVuSans-30"/>
       <use x="127.246094" xlink:href="#DejaVuSans-30"/>
       <use x="190.869141" xlink:href="#DejaVuSans-30"/>
       <use x="254.492188" xlink:href="#DejaVuSans-30"/>
      </g>
     </g>
    </g>
    <g id="ytick_5">
     <g id="line2d_17">
      <g>
       <use style="stroke:#000000;stroke-width:0.8;" x="49.39" xlink:href="#m7ae615f2ae" y="114.065488"/>
      </g>
     </g>
     <g id="text_5">
      <!-- 40000 -->
      <defs>
       <path d="M 37.796875 64.3125 
L 12.890625 25.390625 
L 37.796875 25.390625 
z
M 35.203125 72.90625 
L 47.609375 72.90625 
L 47.609375 25.390625 
L 58.015625 25.390625 
L 58.015625 17.1875 
L 47.609375 17.1875 
L 47.609375 0 
L 37.796875 0 
L 37.796875 17.1875 
L 4.890625 17.1875 
L 4.890625 26.703125 
z
" id="DejaVuSans-34"/>
      </defs>
      <g transform="translate(10.5775 117.864707)scale(0.1 -0.1)">
       <use xlink:href="#DejaVuSans-34"/>
       <use x="63.623047" xlink:href="#DejaVuSans-30"/>
       <use x="127.246094" xlink:href="#DejaVuSans-30"/>
       <use x="190.869141" xlink:href="#DejaVuSans-30"/>
       <use x="254.492188" xlink:href="#DejaVuSans-30"/>
      </g>
     </g>
    </g>
    <g id="ytick_6">
     <g id="line2d_18">
      <g>
       <use style="stroke:#000000;stroke-width:0.8;" x="49.39" xlink:href="#m7ae615f2ae" y="71.78311"/>
      </g>
     </g>
     <g id="text_6">
      <!-- 50000 -->
      <defs>
       <path d="M 10.796875 72.90625 
L 49.515625 72.90625 
L 49.515625 64.59375 
L 19.828125 64.59375 
L 19.828125 46.734375 
Q 21.96875 47.46875 24.109375 47.828125 
Q 26.265625 48.1875 28.421875 48.1875 
Q 40.625 48.1875 47.75 41.5 
Q 54.890625 34.8125 54.890625 23.390625 
Q 54.890625 11.625 47.5625 5.09375 
Q 40.234375 -1.421875 26.90625 -1.421875 
Q 22.3125 -1.421875 17.546875 -0.640625 
Q 12.796875 0.140625 7.71875 1.703125 
L 7.71875 11.625 
Q 12.109375 9.234375 16.796875 8.0625 
Q 21.484375 6.890625 26.703125 6.890625 
Q 35.15625 6.890625 40.078125 11.328125 
Q 45.015625 15.765625 45.015625 23.390625 
Q 45.015625 31 40.078125 35.4375 
Q 35.15625 39.890625 26.703125 39.890625 
Q 22.75 39.890625 18.8125 39.015625 
Q 14.890625 38.140625 10.796875 36.28125 
z
" id="DejaVuSans-35"/>
      </defs>
      <g transform="translate(10.5775 75.582329)scale(0.1 -0.1)">
       <use xlink:href="#DejaVuSans-35"/>
       <use x="63.623047" xlink:href="#DejaVuSans-30"/>
       <use x="127.246094" xlink:href="#DejaVuSans-30"/>
       <use x="190.869141" xlink:href="#DejaVuSans-30"/>
       <use x="254.492188" xlink:href="#DejaVuSans-30"/>
      </g>
     </g>
    </g>
    <g id="ytick_7">
     <g id="line2d_19">
      <g>
       <use style="stroke:#000000;stroke-width:0.8;" x="49.39" xlink:href="#m7ae615f2ae" y="29.500733"/>
      </g>
     </g>
     <g id="text_7">
      <!-- 60000 -->
      <defs>
       <path d="M 33.015625 40.375 
Q 26.375 40.375 22.484375 35.828125 
Q 18.609375 31.296875 18.609375 23.390625 
Q 18.609375 15.53125 22.484375 10.953125 
Q 26.375 6.390625 33.015625 6.390625 
Q 39.65625 6.390625 43.53125 10.953125 
Q 47.40625 15.53125 47.40625 23.390625 
Q 47.40625 31.296875 43.53125 35.828125 
Q 39.65625 40.375 33.015625 40.375 
z
M 52.59375 71.296875 
L 52.59375 62.3125 
Q 48.875 64.0625 45.09375 64.984375 
Q 41.3125 65.921875 37.59375 65.921875 
Q 27.828125 65.921875 22.671875 59.328125 
Q 17.53125 52.734375 16.796875 39.40625 
Q 19.671875 43.65625 24.015625 45.921875 
Q 28.375 48.1875 33.59375 48.1875 
Q 44.578125 48.1875 50.953125 41.515625 
Q 57.328125 34.859375 57.328125 23.390625 
Q 57.328125 12.15625 50.6875 5.359375 
Q 44.046875 -1.421875 33.015625 -1.421875 
Q 20.359375 -1.421875 13.671875 8.265625 
Q 6.984375 17.96875 6.984375 36.375 
Q 6.984375 53.65625 15.1875 63.9375 
Q 23.390625 74.21875 37.203125 74.21875 
Q 40.921875 74.21875 44.703125 73.484375 
Q 48.484375 72.75 52.59375 71.296875 
z
" id="DejaVuSans-36"/>
      </defs>
      <g transform="translate(10.5775 33.299951)scale(0.1 -0.1)">
       <use xlink:href="#DejaVuSans-36"/>
       <use x="63.623047" xlink:href="#DejaVuSans-30"/>
       <use x="127.246094" xlink:href="#DejaVuSans-30"/>
       <use x="190.869141" xlink:href="#DejaVuSans-30"/>
       <use x="254.492188" xlink:href="#DejaVuSans-30"/>
      </g>
     </g>
    </g>
   </g>
   <g id="line2d_20">
    <path clip-path="url(#pa36046c7d2)" d="M 49.39 280.05879 
L 53.965824 279.42362 
L 58.541647 278.761266 
L 63.117471 278.091276 
L 67.693294 277.31993 
L 72.269118 276.326331 
L 76.844941 275.07189 
L 81.420765 273.854535 
L 85.996588 272.519618 
L 90.572412 270.952539 
L 95.148235 269.915243 
L 99.724059 269.151665 
L 104.299882 267.90147 
L 108.875706 266.257606 
L 113.451529 264.653701 
L 118.027353 263.067061 
L 122.603176 261.782274 
L 127.179 260.654214 
L 131.754824 259.833265 
L 136.330647 258.584219 
L 140.906471 256.566267 
L 145.482294 255.008902 
L 150.058118 253.367816 
L 154.633941 251.621526 
L 159.209765 250.230477 
L 163.785588 249.432914 
L 168.361412 248.02458 
L 172.937235 246.043569 
L 177.513059 244.314169 
L 182.088882 242.57067 
L 186.664706 241.29842 
L 191.240529 239.778514 
L 195.816353 239.169816 
L 200.392176 237.990427 
L 204.968 236.111932 
L 209.543824 234.446612 
L 214.119647 232.71193 
L 218.695471 231.456548 
L 223.271294 230.553792 
L 227.847118 229.912779 
L 232.422941 228.385312 
L 236.998765 226.287536 
L 241.574588 224.810959 
L 246.150412 223.345738 
L 250.726235 221.968041 
L 255.302059 220.954345 
L 259.877882 220.436528 
L 264.453706 219.395648 
L 269.029529 217.710668 
L 273.605353 216.101763 
L 278.181176 214.836745 
L 282.757 213.446121 
L 287.332824 212.463944 
L 291.908647 211.911006 
L 296.484471 211.448957 
L 301.060294 210.586286 
L 305.636118 209.058439 
L 310.211941 208.129126 
L 314.787765 206.702561 
L 319.363588 205.732308 
L 323.939412 205.030456 
L 328.515235 204.257294 
L 333.091059 203.266167 
L 337.666882 202.36672 
L 342.242706 201.034462 
L 346.818529 199.423769 
L 351.394353 198.70222 
L 355.970176 198.115913 
L 360.546 197.614512 
L 365.121824 196.967403 
L 369.697647 195.963008 
L 374.273471 195.269039 
L 378.849294 194.398992 
L 383.425118 194.044366 
L 388.000941 193.825647 
L 392.576765 193.604886 
L 397.152588 193.174557 
L 401.728412 192.724492 
L 406.304235 192.203347 
L 410.880059 191.73413 
L 415.455882 191.324892 
L 420.031706 191.198313 
L 424.607529 191.00162 
L 429.183353 190.665469 
L 433.759176 190.387226 
L 438.335 190.115138 
" style="fill:none;stroke:#1f77b4;stroke-linecap:square;stroke-width:1.5;"/>
   </g>
   <g id="patch_3">
    <path d="M 49.39 283.195 
L 49.39 25.44 
" style="fill:none;stroke:#000000;stroke-linecap:square;stroke-linejoin:miter;stroke-width:0.8;"/>
   </g>
   <g id="patch_4">
    <path d="M 438.335 283.195 
L 438.335 25.44 
" style="fill:none;stroke:#000000;stroke-linecap:square;stroke-linejoin:miter;stroke-width:0.8;"/>
   </g>
   <g id="patch_5">
    <path d="M 49.39 283.195 
L 438.335 283.195 
" style="fill:none;stroke:#000000;stroke-linecap:square;stroke-linejoin:miter;stroke-width:0.8;"/>
   </g>
   <g id="patch_6">
    <path d="M 49.39 25.44 
L 438.335 25.44 
" style="fill:none;stroke:#000000;stroke-linecap:square;stroke-linejoin:miter;stroke-width:0.8;"/>
   </g>
   <g id="text_8">
    <!-- Midwest -->
    <defs>
     <path d="M 9.8125 72.90625 
L 24.515625 72.90625 
L 43.109375 23.296875 
L 61.8125 72.90625 
L 76.515625 72.90625 
L 76.515625 0 
L 66.890625 0 
L 66.890625 64.015625 
L 48.09375 14.015625 
L 38.1875 14.015625 
L 19.390625 64.015625 
L 19.390625 0 
L 9.8125 0 
z
" id="DejaVuSans-4d"/>
     <path d="M 9.421875 54.6875 
L 18.40625 54.6875 
L 18.40625 0 
L 9.421875 0 
z
M 9.421875 75.984375 
L 18.40625 75.984375 
L 18.40625 64.59375 
L 9.421875 64.59375 
z
" id="DejaVuSans-69"/>
     <path d="M 45.40625 46.390625 
L 45.40625 75.984375 
L 54.390625 75.984375 
L 54.390625 0 
L 45.40625 0 
L 45.40625 8.203125 
Q 42.578125 3.328125 38.25 0.953125 
Q 33.9375 -1.421875 27.875 -1.421875 
Q 17.96875 -1.421875 11.734375 6.484375 
Q 5.515625 14.40625 5.515625 27.296875 
Q 5.515625 40.1875 11.734375 48.09375 
Q 17.96875 56 27.875 56 
Q 33.9375 56 38.25 53.625 
Q 42.578125 51.265625 45.40625 46.390625 
z
M 14.796875 27.296875 
Q 14.796875 17.390625 18.875 11.75 
Q 22.953125 6.109375 30.078125 6.109375 
Q 37.203125 6.109375 41.296875 11.75 
Q 45.40625 17.390625 45.40625 27.296875 
Q 45.40625 37.203125 41.296875 42.84375 
Q 37.203125 48.484375 30.078125 48.484375 
Q 22.953125 48.484375 18.875 42.84375 
Q 14.796875 37.203125 14.796875 27.296875 
z
" id="DejaVuSans-64"/>
     <path d="M 4.203125 54.6875 
L 13.1875 54.6875 
L 24.421875 12.015625 
L 35.59375 54.6875 
L 46.1875 54.6875 
L 57.421875 12.015625 
L 68.609375 54.6875 
L 77.59375 54.6875 
L 63.28125 0 
L 52.6875 0 
L 40.921875 44.828125 
L 29.109375 0 
L 18.5 0 
z
" id="DejaVuSans-77"/>
     <path d="M 56.203125 29.59375 
L 56.203125 25.203125 
L 14.890625 25.203125 
Q 15.484375 15.921875 20.484375 11.0625 
Q 25.484375 6.203125 34.421875 6.203125 
Q 39.59375 6.203125 44.453125 7.46875 
Q 49.3125 8.734375 54.109375 11.28125 
L 54.109375 2.78125 
Q 49.265625 0.734375 44.1875 -0.34375 
Q 39.109375 -1.421875 33.890625 -1.421875 
Q 20.796875 -1.421875 13.15625 6.1875 
Q 5.515625 13.8125 5.515625 26.8125 
Q 5.515625 40.234375 12.765625 48.109375 
Q 20.015625 56 32.328125 56 
Q 43.359375 56 49.78125 48.890625 
Q 56.203125 41.796875 56.203125 29.59375 
z
M 47.21875 32.234375 
Q 47.125 39.59375 43.09375 43.984375 
Q 39.0625 48.390625 32.421875 48.390625 
Q 24.90625 48.390625 20.390625 44.140625 
Q 15.875 39.890625 15.1875 32.171875 
z
" id="DejaVuSans-65"/>
     <path d="M 44.28125 53.078125 
L 44.28125 44.578125 
Q 40.484375 46.53125 36.375 47.5 
Q 32.28125 48.484375 27.875 48.484375 
Q 21.1875 48.484375 17.84375 46.4375 
Q 14.5 44.390625 14.5 40.28125 
Q 14.5 37.15625 16.890625 35.375 
Q 19.28125 33.59375 26.515625 31.984375 
L 29.59375 31.296875 
Q 39.15625 29.25 43.1875 25.515625 
Q 47.21875 21.78125 47.21875 15.09375 
Q 47.21875 7.46875 41.1875 3.015625 
Q 35.15625 -1.421875 24.609375 -1.421875 
Q 20.21875 -1.421875 15.453125 -0.5625 
Q 10.6875 0.296875 5.421875 2 
L 5.421875 11.28125 
Q 10.40625 8.6875 15.234375 7.390625 
Q 20.0625 6.109375 24.8125 6.109375 
Q 31.15625 6.109375 34.5625 8.28125 
Q 37.984375 10.453125 37.984375 14.40625 
Q 37.984375 18.0625 35.515625 20.015625 
Q 33.0625 21.96875 24.703125 23.78125 
L 21.578125 24.515625 
Q 13.234375 26.265625 9.515625 29.90625 
Q 5.8125 33.546875 5.8125 39.890625 
Q 5.8125 47.609375 11.28125 51.796875 
Q 16.75 56 26.8125 56 
Q 31.78125 56 36.171875 55.265625 
Q 40.578125 54.546875 44.28125 53.078125 
z
" id="DejaVuSans-73"/>
     <path d="M 18.3125 70.21875 
L 18.3125 54.6875 
L 36.8125 54.6875 
L 36.8125 47.703125 
L 18.3125 47.703125 
L 18.3125 18.015625 
Q 18.3125 11.328125 20.140625 9.421875 
Q 21.96875 7.515625 27.59375 7.515625 
L 36.8125 7.515625 
L 36.8125 0 
L 27.59375 0 
Q 17.1875 0 13.234375 3.875 
Q 9.28125 7.765625 9.28125 18.015625 
L 9.28125 47.703125 
L 2.6875 47.703125 
L 2.6875 54.6875 
L 9.28125 54.6875 
L 9.28125 70.21875 
z
" id="DejaVuSans-74"/>
    </defs>
    <g transform="translate(219.133125 19.44)scale(0.12 -0.12)">
     <use xlink:href="#DejaVuSans-4d"/>
     <use x="86.279297" xlink:href="#DejaVuSans-69"/>
     <use x="114.0625" xlink:href="#DejaVuSans-64"/>
     <use x="177.539062" xlink:href="#DejaVuSans-77"/>
     <use x="259.326172" xlink:href="#DejaVuSans-65"/>
     <use x="320.849609" xlink:href="#DejaVuSans-73"/>
     <use x="372.949219" xlink:href="#DejaVuSans-74"/>
    </g>
   </g>
  </g>
  <g id="axes_2">
   <g id="patch_7">
    <path d="M 459.215 283.195 
L 848.16 283.195 
L 848.16 25.44 
L 459.215 25.44 
z
" style="fill:#ffffff;"/>
   </g>
   <g id="PolyCollection_2">
    <defs>
     <path d="M 459.215 -373.156218 
L 459.215 -364.805 
L 463.790824 -364.805 
L 468.366647 -364.805 
L 472.942471 -364.805 
L 477.518294 -364.805 
L 482.094118 -364.805 
L 486.669941 -364.805 
L 491.245765 -364.805 
L 495.821588 -364.805 
L 500.397412 -364.805 
L 504.973235 -364.805 
L 509.549059 -364.805 
L 514.124882 -364.805 
L 518.700706 -364.805 
L 523.276529 -364.805 
L 527.852353 -364.805 
L 532.428176 -364.805 
L 537.004 -364.805 
L 541.579824 -364.805 
L 546.155647 -364.805 
L 550.731471 -364.805 
L 555.307294 -364.805 
L 559.883118 -364.805 
L 564.458941 -364.805 
L 569.034765 -364.805 
L 573.610588 -364.805 
L 578.186412 -364.805 
L 582.762235 -364.805 
L 587.338059 -364.805 
L 591.913882 -364.805 
L 596.489706 -364.805 
L 601.065529 -364.805 
L 605.641353 -364.805 
L 610.217176 -364.805 
L 614.793 -364.805 
L 619.368824 -364.805 
L 623.944647 -364.805 
L 628.520471 -364.805 
L 633.096294 -364.805 
L 637.672118 -364.805 
L 642.247941 -364.805 
L 646.823765 -364.805 
L 651.399588 -364.805 
L 655.975412 -364.805 
L 660.551235 -364.805 
L 665.127059 -364.805 
L 669.702882 -364.805 
L 674.278706 -364.805 
L 678.854529 -364.805 
L 683.430353 -364.805 
L 688.006176 -364.805 
L 692.582 -364.805 
L 697.157824 -364.805 
L 701.733647 -364.805 
L 706.309471 -364.805 
L 710.885294 -364.805 
L 715.461118 -364.805 
L 720.036941 -364.805 
L 724.612765 -364.805 
L 729.188588 -364.805 
L 733.764412 -364.805 
L 738.340235 -364.805 
L 742.916059 -364.805 
L 747.491882 -364.805 
L 752.067706 -364.805 
L 756.643529 -364.805 
L 761.219353 -364.805 
L 765.795176 -364.805 
L 770.371 -364.805 
L 774.946824 -364.805 
L 779.522647 -364.805 
L 784.098471 -364.805 
L 788.674294 -364.805 
L 793.250118 -364.805 
L 797.825941 -364.805 
L 802.401765 -364.805 
L 806.977588 -364.805 
L 811.553412 -364.805 
L 816.129235 -364.805 
L 820.705059 -364.805 
L 825.280882 -364.805 
L 829.856706 -364.805 
L 834.432529 -364.805 
L 839.008353 -364.805 
L 843.584176 -364.805 
L 848.16 -364.805 
L 848.16 -610.285952 
L 848.16 -610.285952 
L 843.584176 -609.723437 
L 839.008353 -609.034593 
L 834.432529 -608.560581 
L 829.856706 -608.077032 
L 825.280882 -607.789084 
L 820.705059 -607.24146 
L 816.129235 -606.573853 
L 811.553412 -605.895679 
L 806.977588 -605.077248 
L 802.401765 -604.461809 
L 797.825941 -603.882769 
L 793.250118 -603.184551 
L 788.674294 -602.27914 
L 784.098471 -601.150032 
L 779.522647 -600.193695 
L 774.946824 -599.141982 
L 770.371 -598.108602 
L 765.795176 -597.174725 
L 761.219353 -596.268256 
L 756.643529 -595.549433 
L 752.067706 -594.351987 
L 747.491882 -593.054941 
L 742.916059 -591.751761 
L 738.340235 -590.419917 
L 733.764412 -589.095246 
L 729.188588 -587.967555 
L 724.612765 -586.423819 
L 720.036941 -584.457893 
L 715.461118 -583.123671 
L 710.885294 -581.392185 
L 706.309471 -580.201994 
L 701.733647 -579.159771 
L 697.157824 -578.058988 
L 692.582 -575.89492 
L 688.006176 -573.958436 
L 683.430353 -572.094681 
L 678.854529 -569.659715 
L 674.278706 -567.206351 
L 669.702882 -565.65168 
L 665.127059 -563.879737 
L 660.551235 -561.481411 
L 655.975412 -559.034425 
L 651.399588 -555.136382 
L 646.823765 -551.738871 
L 642.247941 -548.936511 
L 637.672118 -547.145326 
L 633.096294 -545.165018 
L 628.520471 -542.565942 
L 623.944647 -539.400917 
L 619.368824 -535.14869 
L 614.793 -528.74148 
L 610.217176 -523.237072 
L 605.641353 -519.253824 
L 601.065529 -517.036445 
L 596.489706 -513.986433 
L 591.913882 -510.134107 
L 587.338059 -505.882526 
L 582.762235 -500.318647 
L 578.186412 -494.668489 
L 573.610588 -491.304804 
L 569.034765 -488.652483 
L 564.458941 -484.912816 
L 559.883118 -480.448808 
L 555.307294 -475.898836 
L 550.731471 -470.742044 
L 546.155647 -465.071595 
L 541.579824 -460.475658 
L 537.004 -453.297597 
L 532.428176 -447.853099 
L 527.852353 -445.398685 
L 523.276529 -440.775343 
L 518.700706 -435.068381 
L 514.124882 -429.055494 
L 509.549059 -424.340058 
L 504.973235 -420.085915 
L 500.397412 -415.160862 
L 495.821588 -409.821924 
L 491.245765 -404.624592 
L 486.669941 -399.536153 
L 482.094118 -394.235776 
L 477.518294 -390.214374 
L 472.942471 -384.228751 
L 468.366647 -376.671083 
L 463.790824 -375.141867 
L 459.215 -373.156218 
z
" id="m4c0f8182e2" style="stroke:#ff7f0e;"/>
    </defs>
    <g clip-path="url(#p79803f5630)">
     <use style="fill:#ff7f0e;stroke:#ff7f0e;" x="0" xlink:href="#m4c0f8182e2" y="648"/>
    </g>
   </g>
   <g id="matplotlib.axis_3">
    <g id="xtick_13">
     <g id="line2d_21">
      <g>
       <use style="stroke:#000000;stroke-width:0.8;" x="459.215" xlink:href="#md294ac678c" y="283.195"/>
      </g>
     </g>
    </g>
    <g id="xtick_14">
     <g id="line2d_22">
      <g>
       <use style="stroke:#000000;stroke-width:0.8;" x="494.573636" xlink:href="#md294ac678c" y="283.195"/>
      </g>
     </g>
    </g>
    <g id="xtick_15">
     <g id="line2d_23">
      <g>
       <use style="stroke:#000000;stroke-width:0.8;" x="529.932273" xlink:href="#md294ac678c" y="283.195"/>
      </g>
     </g>
    </g>
    <g id="xtick_16">
     <g id="line2d_24">
      <g>
       <use style="stroke:#000000;stroke-width:0.8;" x="565.290909" xlink:href="#md294ac678c" y="283.195"/>
      </g>
     </g>
    </g>
    <g id="xtick_17">
     <g id="line2d_25">
      <g>
       <use style="stroke:#000000;stroke-width:0.8;" x="600.649545" xlink:href="#md294ac678c" y="283.195"/>
      </g>
     </g>
    </g>
    <g id="xtick_18">
     <g id="line2d_26">
      <g>
       <use style="stroke:#000000;stroke-width:0.8;" x="636.008182" xlink:href="#md294ac678c" y="283.195"/>
      </g>
     </g>
    </g>
    <g id="xtick_19">
     <g id="line2d_27">
      <g>
       <use style="stroke:#000000;stroke-width:0.8;" x="671.366818" xlink:href="#md294ac678c" y="283.195"/>
      </g>
     </g>
    </g>
    <g id="xtick_20">
     <g id="line2d_28">
      <g>
       <use style="stroke:#000000;stroke-width:0.8;" x="706.725455" xlink:href="#md294ac678c" y="283.195"/>
      </g>
     </g>
    </g>
    <g id="xtick_21">
     <g id="line2d_29">
      <g>
       <use style="stroke:#000000;stroke-width:0.8;" x="742.084091" xlink:href="#md294ac678c" y="283.195"/>
      </g>
     </g>
    </g>
    <g id="xtick_22">
     <g id="line2d_30">
      <g>
       <use style="stroke:#000000;stroke-width:0.8;" x="777.442727" xlink:href="#md294ac678c" y="283.195"/>
      </g>
     </g>
    </g>
    <g id="xtick_23">
     <g id="line2d_31">
      <g>
       <use style="stroke:#000000;stroke-width:0.8;" x="812.801364" xlink:href="#md294ac678c" y="283.195"/>
      </g>
     </g>
    </g>
    <g id="xtick_24">
     <g id="line2d_32">
      <g>
       <use style="stroke:#000000;stroke-width:0.8;" x="848.16" xlink:href="#md294ac678c" y="283.195"/>
      </g>
     </g>
    </g>
   </g>
   <g id="matplotlib.axis_4">
    <g id="ytick_8">
     <g id="line2d_33">
      <g>
       <use style="stroke:#000000;stroke-width:0.8;" x="459.215" xlink:href="#m7ae615f2ae" y="283.195"/>
      </g>
     </g>
    </g>
    <g id="ytick_9">
     <g id="line2d_34">
      <g>
       <use style="stroke:#000000;stroke-width:0.8;" x="459.215" xlink:href="#m7ae615f2ae" y="240.912622"/>
      </g>
     </g>
    </g>
    <g id="ytick_10">
     <g id="line2d_35">
      <g>
       <use style="stroke:#000000;stroke-width:0.8;" x="459.215" xlink:href="#m7ae615f2ae" y="198.630244"/>
      </g>
     </g>
    </g>
    <g id="ytick_11">
     <g id="line2d_36">
      <g>
       <use style="stroke:#000000;stroke-width:0.8;" x="459.215" xlink:href="#m7ae615f2ae" y="156.347866"/>
      </g>
     </g>
    </g>
    <g id="ytick_12">
     <g id="line2d_37">
      <g>
       <use style="stroke:#000000;stroke-width:0.8;" x="459.215" xlink:href="#m7ae615f2ae" y="114.065488"/>
      </g>
     </g>
    </g>
    <g id="ytick_13">
     <g id="line2d_38">
      <g>
       <use style="stroke:#000000;stroke-width:0.8;" x="459.215" xlink:href="#m7ae615f2ae" y="71.78311"/>
      </g>
     </g>
    </g>
    <g id="ytick_14">
     <g id="line2d_39">
      <g>
       <use style="stroke:#000000;stroke-width:0.8;" x="459.215" xlink:href="#m7ae615f2ae" y="29.500733"/>
      </g>
     </g>
    </g>
   </g>
   <g id="line2d_40">
    <path clip-path="url(#p79803f5630)" d="M 459.215 274.843782 
L 463.790824 272.858133 
L 468.366647 271.328917 
L 472.942471 263.771249 
L 477.518294 257.785626 
L 482.094118 253.764224 
L 486.669941 248.463847 
L 491.245765 243.375408 
L 495.821588 238.178076 
L 500.397412 232.839138 
L 504.973235 227.914085 
L 509.549059 223.659942 
L 514.124882 218.944506 
L 518.700706 212.931619 
L 523.276529 207.224657 
L 527.852353 202.601315 
L 532.428176 200.146901 
L 537.004 194.702403 
L 541.579824 187.524342 
L 546.155647 182.928405 
L 550.731471 177.257956 
L 555.307294 172.101164 
L 559.883118 167.551192 
L 564.458941 163.087184 
L 569.034765 159.347517 
L 573.610588 156.695196 
L 578.186412 153.331511 
L 582.762235 147.681353 
L 587.338059 142.117474 
L 591.913882 137.865893 
L 596.489706 134.013567 
L 601.065529 130.963555 
L 605.641353 128.746176 
L 610.217176 124.762928 
L 614.793 119.25852 
L 619.368824 112.85131 
L 623.944647 108.599083 
L 628.520471 105.434058 
L 633.096294 102.834982 
L 637.672118 100.854674 
L 642.247941 99.063489 
L 646.823765 96.261129 
L 651.399588 92.863618 
L 655.975412 88.965575 
L 660.551235 86.518589 
L 665.127059 84.120263 
L 669.702882 82.34832 
L 674.278706 80.793649 
L 678.854529 78.340285 
L 683.430353 75.905319 
L 688.006176 74.041564 
L 692.582 72.10508 
L 697.157824 69.941012 
L 701.733647 68.840229 
L 706.309471 67.798006 
L 710.885294 66.607815 
L 715.461118 64.876329 
L 720.036941 63.542107 
L 724.612765 61.576181 
L 729.188588 60.032445 
L 733.764412 58.904754 
L 738.340235 57.580083 
L 742.916059 56.248239 
L 747.491882 54.945059 
L 752.067706 53.648013 
L 756.643529 52.450567 
L 761.219353 51.731744 
L 765.795176 50.825275 
L 770.371 49.891398 
L 774.946824 48.858018 
L 779.522647 47.806305 
L 784.098471 46.849968 
L 788.674294 45.72086 
L 793.250118 44.815449 
L 797.825941 44.117231 
L 802.401765 43.538191 
L 806.977588 42.922752 
L 811.553412 42.104321 
L 816.129235 41.426147 
L 820.705059 40.75854 
L 825.280882 40.210916 
L 829.856706 39.922968 
L 834.432529 39.439419 
L 839.008353 38.965407 
L 843.584176 38.276563 
L 848.16 37.714048 
" style="fill:none;stroke:#ff7f0e;stroke-linecap:square;stroke-width:1.5;"/>
   </g>
   <g id="patch_8">
    <path d="M 459.215 283.195 
L 459.215 25.44 
" style="fill:none;stroke:#000000;stroke-linecap:square;stroke-linejoin:miter;stroke-width:0.8;"/>
   </g>
   <g id="patch_9">
    <path d="M 848.16 283.195 
L 848.16 25.44 
" style="fill:none;stroke:#000000;stroke-linecap:square;stroke-linejoin:miter;stroke-width:0.8;"/>
   </g>
   <g id="patch_10">
    <path d="M 459.215 283.195 
L 848.16 283.195 
" style="fill:none;stroke:#000000;stroke-linecap:square;stroke-linejoin:miter;stroke-width:0.8;"/>
   </g>
   <g id="patch_11">
    <path d="M 459.215 25.44 
L 848.16 25.44 
" style="fill:none;stroke:#000000;stroke-linecap:square;stroke-linejoin:miter;stroke-width:0.8;"/>
   </g>
   <g id="text_9">
    <!-- Northeast -->
    <defs>
     <path d="M 9.8125 72.90625 
L 23.09375 72.90625 
L 55.421875 11.921875 
L 55.421875 72.90625 
L 64.984375 72.90625 
L 64.984375 0 
L 51.703125 0 
L 19.390625 60.984375 
L 19.390625 0 
L 9.8125 0 
z
" id="DejaVuSans-4e"/>
     <path d="M 30.609375 48.390625 
Q 23.390625 48.390625 19.1875 42.75 
Q 14.984375 37.109375 14.984375 27.296875 
Q 14.984375 17.484375 19.15625 11.84375 
Q 23.34375 6.203125 30.609375 6.203125 
Q 37.796875 6.203125 41.984375 11.859375 
Q 46.1875 17.53125 46.1875 27.296875 
Q 46.1875 37.015625 41.984375 42.703125 
Q 37.796875 48.390625 30.609375 48.390625 
z
M 30.609375 56 
Q 42.328125 56 49.015625 48.375 
Q 55.71875 40.765625 55.71875 27.296875 
Q 55.71875 13.875 49.015625 6.21875 
Q 42.328125 -1.421875 30.609375 -1.421875 
Q 18.84375 -1.421875 12.171875 6.21875 
Q 5.515625 13.875 5.515625 27.296875 
Q 5.515625 40.765625 12.171875 48.375 
Q 18.84375 56 30.609375 56 
z
" id="DejaVuSans-6f"/>
     <path d="M 41.109375 46.296875 
Q 39.59375 47.171875 37.8125 47.578125 
Q 36.03125 48 33.890625 48 
Q 26.265625 48 22.1875 43.046875 
Q 18.109375 38.09375 18.109375 28.8125 
L 18.109375 0 
L 9.078125 0 
L 9.078125 54.6875 
L 18.109375 54.6875 
L 18.109375 46.1875 
Q 20.953125 51.171875 25.484375 53.578125 
Q 30.03125 56 36.53125 56 
Q 37.453125 56 38.578125 55.875 
Q 39.703125 55.765625 41.0625 55.515625 
z
" id="DejaVuSans-72"/>
     <path d="M 54.890625 33.015625 
L 54.890625 0 
L 45.90625 0 
L 45.90625 32.71875 
Q 45.90625 40.484375 42.875 44.328125 
Q 39.84375 48.1875 33.796875 48.1875 
Q 26.515625 48.1875 22.3125 43.546875 
Q 18.109375 38.921875 18.109375 30.90625 
L 18.109375 0 
L 9.078125 0 
L 9.078125 75.984375 
L 18.109375 75.984375 
L 18.109375 46.1875 
Q 21.34375 51.125 25.703125 53.5625 
Q 30.078125 56 35.796875 56 
Q 45.21875 56 50.046875 50.171875 
Q 54.890625 44.34375 54.890625 33.015625 
z
" id="DejaVuSans-68"/>
     <path d="M 34.28125 27.484375 
Q 23.390625 27.484375 19.1875 25 
Q 14.984375 22.515625 14.984375 16.5 
Q 14.984375 11.71875 18.140625 8.90625 
Q 21.296875 6.109375 26.703125 6.109375 
Q 34.1875 6.109375 38.703125 11.40625 
Q 43.21875 16.703125 43.21875 25.484375 
L 43.21875 27.484375 
z
M 52.203125 31.203125 
L 52.203125 0 
L 43.21875 0 
L 43.21875 8.296875 
Q 40.140625 3.328125 35.546875 0.953125 
Q 30.953125 -1.421875 24.3125 -1.421875 
Q 15.921875 -1.421875 10.953125 3.296875 
Q 6 8.015625 6 15.921875 
Q 6 25.140625 12.171875 29.828125 
Q 18.359375 34.515625 30.609375 34.515625 
L 43.21875 34.515625 
L 43.21875 35.40625 
Q 43.21875 41.609375 39.140625 45 
Q 35.0625 48.390625 27.6875 48.390625 
Q 23 48.390625 18.546875 47.265625 
Q 14.109375 46.140625 10.015625 43.890625 
L 10.015625 52.203125 
Q 14.9375 54.109375 19.578125 55.046875 
Q 24.21875 56 28.609375 56 
Q 40.484375 56 46.34375 49.84375 
Q 52.203125 43.703125 52.203125 31.203125 
z
" id="DejaVuSans-61"/>
    </defs>
    <g transform="translate(624.059687 19.44)scale(0.12 -0.12)">
     <use xlink:href="#DejaVuSans-4e"/>
     <use x="74.804688" xlink:href="#DejaVuSans-6f"/>
     <use x="135.986328" xlink:href="#DejaVuSans-72"/>
     <use x="177.099609" xlink:href="#DejaVuSans-74"/>
     <use x="216.308594" xlink:href="#DejaVuSans-68"/>
     <use x="279.6875" xlink:href="#DejaVuSans-65"/>
     <use x="341.210938" xlink:href="#DejaVuSans-61"/>
     <use x="402.490234" xlink:href="#DejaVuSans-73"/>
     <use x="454.589844" xlink:href="#DejaVuSans-74"/>
    </g>
   </g>
  </g>
  <g id="axes_3">
   <g id="patch_12">
    <path d="M 49.39 572.51 
L 438.335 572.51 
L 438.335 314.755 
L 49.39 314.755 
z
" style="fill:#ffffff;"/>
   </g>
   <g id="PolyCollection_3">
    <defs>
     <path d="M 49.39 -79.251116 
L 49.39 -75.49 
L 53.965824 -75.49 
L 58.541647 -75.49 
L 63.117471 -75.49 
L 67.693294 -75.49 
L 72.269118 -75.49 
L 76.844941 -75.49 
L 81.420765 -75.49 
L 85.996588 -75.49 
L 90.572412 -75.49 
L 95.148235 -75.49 
L 99.724059 -75.49 
L 104.299882 -75.49 
L 108.875706 -75.49 
L 113.451529 -75.49 
L 118.027353 -75.49 
L 122.603176 -75.49 
L 127.179 -75.49 
L 131.754824 -75.49 
L 136.330647 -75.49 
L 140.906471 -75.49 
L 145.482294 -75.49 
L 150.058118 -75.49 
L 154.633941 -75.49 
L 159.209765 -75.49 
L 163.785588 -75.49 
L 168.361412 -75.49 
L 172.937235 -75.49 
L 177.513059 -75.49 
L 182.088882 -75.49 
L 186.664706 -75.49 
L 191.240529 -75.49 
L 195.816353 -75.49 
L 200.392176 -75.49 
L 204.968 -75.49 
L 209.543824 -75.49 
L 214.119647 -75.49 
L 218.695471 -75.49 
L 223.271294 -75.49 
L 227.847118 -75.49 
L 232.422941 -75.49 
L 236.998765 -75.49 
L 241.574588 -75.49 
L 246.150412 -75.49 
L 250.726235 -75.49 
L 255.302059 -75.49 
L 259.877882 -75.49 
L 264.453706 -75.49 
L 269.029529 -75.49 
L 273.605353 -75.49 
L 278.181176 -75.49 
L 282.757 -75.49 
L 287.332824 -75.49 
L 291.908647 -75.49 
L 296.484471 -75.49 
L 301.060294 -75.49 
L 305.636118 -75.49 
L 310.211941 -75.49 
L 314.787765 -75.49 
L 319.363588 -75.49 
L 323.939412 -75.49 
L 328.515235 -75.49 
L 333.091059 -75.49 
L 337.666882 -75.49 
L 342.242706 -75.49 
L 346.818529 -75.49 
L 351.394353 -75.49 
L 355.970176 -75.49 
L 360.546 -75.49 
L 365.121824 -75.49 
L 369.697647 -75.49 
L 374.273471 -75.49 
L 378.849294 -75.49 
L 383.425118 -75.49 
L 388.000941 -75.49 
L 392.576765 -75.49 
L 397.152588 -75.49 
L 401.728412 -75.49 
L 406.304235 -75.49 
L 410.880059 -75.49 
L 415.455882 -75.49 
L 420.031706 -75.49 
L 424.607529 -75.49 
L 429.183353 -75.49 
L 433.759176 -75.49 
L 438.335 -75.49 
L 438.335 -172.691927 
L 438.335 -172.691927 
L 433.759176 -171.669246 
L 429.183353 -170.704906 
L 424.607529 -169.609398 
L 420.031706 -168.89602 
L 415.455882 -168.343639 
L 410.880059 -167.448841 
L 406.304235 -166.497695 
L 401.728412 -165.474184 
L 397.152588 -164.727978 
L 392.576765 -163.396184 
L 388.000941 -162.776504 
L 383.425118 -162.299416 
L 378.849294 -161.554419 
L 374.273471 -160.673519 
L 369.697647 -159.680282 
L 365.121824 -158.544168 
L 360.546 -157.394864 
L 355.970176 -156.552038 
L 351.394353 -155.952474 
L 346.818529 -155.390823 
L 342.242706 -154.25682 
L 337.666882 -153.114604 
L 333.091059 -152.141027 
L 328.515235 -150.380304 
L 323.939412 -149.629681 
L 319.363588 -148.947322 
L 314.787765 -148.129868 
L 310.211941 -146.616736 
L 305.636118 -145.255316 
L 301.060294 -144.181294 
L 296.484471 -143.44817 
L 291.908647 -142.768773 
L 287.332824 -142.003455 
L 282.757 -141.093302 
L 278.181176 -140.167952 
L 273.605353 -138.911838 
L 269.029529 -137.736292 
L 264.453706 -136.39467 
L 259.877882 -135.563383 
L 255.302059 -134.939531 
L 250.726235 -133.933506 
L 246.150412 -132.596372 
L 241.574588 -131.062936 
L 236.998765 -129.834565 
L 232.422941 -128.181997 
L 227.847118 -126.989791 
L 223.271294 -126.373773 
L 218.695471 -125.390892 
L 214.119647 -123.832892 
L 209.543824 -122.273459 
L 204.968 -120.672517 
L 200.392176 -118.725736 
L 195.816353 -117.32646 
L 191.240529 -116.704733 
L 186.664706 -115.589225 
L 182.088882 -114.006599 
L 177.513059 -112.478376 
L 172.937235 -110.733839 
L 168.361412 -108.312035 
L 163.785588 -107.231295 
L 159.209765 -106.558547 
L 154.633941 -105.522477 
L 150.058118 -104.099385 
L 145.482294 -102.719647 
L 140.906471 -101.224797 
L 136.330647 -99.551706 
L 131.754824 -98.046463 
L 127.179 -97.242016 
L 122.603176 -96.420942 
L 118.027353 -95.056852 
L 113.451529 -93.69955 
L 108.875706 -92.188351 
L 104.299882 -90.37207 
L 99.724059 -89.112354 
L 95.148235 -88.473914 
L 90.572412 -87.643833 
L 85.996588 -86.606905 
L 81.420765 -85.384093 
L 76.844941 -84.419042 
L 72.269118 -83.292011 
L 67.693294 -82.149193 
L 63.117471 -81.42028 
L 58.541647 -80.728808 
L 53.965824 -80.029828 
L 49.39 -79.251116 
z
" id="md5fd364810" style="stroke:#2ca02c;"/>
    </defs>
    <g clip-path="url(#p5e557521bd)">
     <use style="fill:#2ca02c;stroke:#2ca02c;" x="0" xlink:href="#md5fd364810" y="648"/>
    </g>
   </g>
   <g id="matplotlib.axis_5">
    <g id="xtick_25">
     <g id="line2d_41">
      <g>
       <use style="stroke:#000000;stroke-width:0.8;" x="49.39" xlink:href="#md294ac678c" y="572.51"/>
      </g>
     </g>
     <g id="text_10">
      <!-- 2020-04-02 -->
      <defs>
       <path d="M 4.890625 31.390625 
L 31.203125 31.390625 
L 31.203125 23.390625 
L 4.890625 23.390625 
z
" id="DejaVuSans-2d"/>
      </defs>
      <g transform="translate(52.149375 637.625625)rotate(-90)scale(0.1 -0.1)">
       <use xlink:href="#DejaVuSans-32"/>
       <use x="63.623047" xlink:href="#DejaVuSans-30"/>
       <use x="127.246094" xlink:href="#DejaVuSans-32"/>
       <use x="190.869141" xlink:href="#DejaVuSans-30"/>
       <use x="254.492188" xlink:href="#DejaVuSans-2d"/>
       <use x="290.576172" xlink:href="#DejaVuSans-30"/>
       <use x="354.199219" xlink:href="#DejaVuSans-34"/>
       <use x="417.822266" xlink:href="#DejaVuSans-2d"/>
       <use x="453.90625" xlink:href="#DejaVuSans-30"/>
       <use x="517.529297" xlink:href="#DejaVuSans-32"/>
      </g>
     </g>
    </g>
    <g id="xtick_26">
     <g id="line2d_42">
      <g>
       <use style="stroke:#000000;stroke-width:0.8;" x="84.748636" xlink:href="#md294ac678c" y="572.51"/>
      </g>
     </g>
     <g id="text_11">
      <!-- 2020-04-09 -->
      <defs>
       <path d="M 10.984375 1.515625 
L 10.984375 10.5 
Q 14.703125 8.734375 18.5 7.8125 
Q 22.3125 6.890625 25.984375 6.890625 
Q 35.75 6.890625 40.890625 13.453125 
Q 46.046875 20.015625 46.78125 33.40625 
Q 43.953125 29.203125 39.59375 26.953125 
Q 35.25 24.703125 29.984375 24.703125 
Q 19.046875 24.703125 12.671875 31.3125 
Q 6.296875 37.9375 6.296875 49.421875 
Q 6.296875 60.640625 12.9375 67.421875 
Q 19.578125 74.21875 30.609375 74.21875 
Q 43.265625 74.21875 49.921875 64.515625 
Q 56.59375 54.828125 56.59375 36.375 
Q 56.59375 19.140625 48.40625 8.859375 
Q 40.234375 -1.421875 26.421875 -1.421875 
Q 22.703125 -1.421875 18.890625 -0.6875 
Q 15.09375 0.046875 10.984375 1.515625 
z
M 30.609375 32.421875 
Q 37.25 32.421875 41.125 36.953125 
Q 45.015625 41.5 45.015625 49.421875 
Q 45.015625 57.28125 41.125 61.84375 
Q 37.25 66.40625 30.609375 66.40625 
Q 23.96875 66.40625 20.09375 61.84375 
Q 16.21875 57.28125 16.21875 49.421875 
Q 16.21875 41.5 20.09375 36.953125 
Q 23.96875 32.421875 30.609375 32.421875 
z
" id="DejaVuSans-39"/>
      </defs>
      <g transform="translate(87.508011 637.625625)rotate(-90)scale(0.1 -0.1)">
       <use xlink:href="#DejaVuSans-32"/>
       <use x="63.623047" xlink:href="#DejaVuSans-30"/>
       <use x="127.246094" xlink:href="#DejaVuSans-32"/>
       <use x="190.869141" xlink:href="#DejaVuSans-30"/>
       <use x="254.492188" xlink:href="#DejaVuSans-2d"/>
       <use x="290.576172" xlink:href="#DejaVuSans-30"/>
       <use x="354.199219" xlink:href="#DejaVuSans-34"/>
       <use x="417.822266" xlink:href="#DejaVuSans-2d"/>
       <use x="453.90625" xlink:href="#DejaVuSans-30"/>
       <use x="517.529297" xlink:href="#DejaVuSans-39"/>
      </g>
     </g>
    </g>
    <g id="xtick_27">
     <g id="line2d_43">
      <g>
       <use style="stroke:#000000;stroke-width:0.8;" x="120.107273" xlink:href="#md294ac678c" y="572.51"/>
      </g>
     </g>
     <g id="text_12">
      <!-- 2020-04-17 -->
      <defs>
       <path d="M 8.203125 72.90625 
L 55.078125 72.90625 
L 55.078125 68.703125 
L 28.609375 0 
L 18.3125 0 
L 43.21875 64.59375 
L 8.203125 64.59375 
z
" id="DejaVuSans-37"/>
      </defs>
      <g transform="translate(122.866648 637.625625)rotate(-90)scale(0.1 -0.1)">
       <use xlink:href="#DejaVuSans-32"/>
       <use x="63.623047" xlink:href="#DejaVuSans-30"/>
       <use x="127.246094" xlink:href="#DejaVuSans-32"/>
       <use x="190.869141" xlink:href="#DejaVuSans-30"/>
       <use x="254.492188" xlink:href="#DejaVuSans-2d"/>
       <use x="290.576172" xlink:href="#DejaVuSans-30"/>
       <use x="354.199219" xlink:href="#DejaVuSans-34"/>
       <use x="417.822266" xlink:href="#DejaVuSans-2d"/>
       <use x="453.90625" xlink:href="#DejaVuSans-31"/>
       <use x="517.529297" xlink:href="#DejaVuSans-37"/>
      </g>
     </g>
    </g>
    <g id="xtick_28">
     <g id="line2d_44">
      <g>
       <use style="stroke:#000000;stroke-width:0.8;" x="155.465909" xlink:href="#md294ac678c" y="572.51"/>
      </g>
     </g>
     <g id="text_13">
      <!-- 2020-04-25 -->
      <g transform="translate(158.225284 637.625625)rotate(-90)scale(0.1 -0.1)">
       <use xlink:href="#DejaVuSans-32"/>
       <use x="63.623047" xlink:href="#DejaVuSans-30"/>
       <use x="127.246094" xlink:href="#DejaVuSans-32"/>
       <use x="190.869141" xlink:href="#DejaVuSans-30"/>
       <use x="254.492188" xlink:href="#DejaVuSans-2d"/>
       <use x="290.576172" xlink:href="#DejaVuSans-30"/>
       <use x="354.199219" xlink:href="#DejaVuSans-34"/>
       <use x="417.822266" xlink:href="#DejaVuSans-2d"/>
       <use x="453.90625" xlink:href="#DejaVuSans-32"/>
       <use x="517.529297" xlink:href="#DejaVuSans-35"/>
      </g>
     </g>
    </g>
    <g id="xtick_29">
     <g id="line2d_45">
      <g>
       <use style="stroke:#000000;stroke-width:0.8;" x="190.824545" xlink:href="#md294ac678c" y="572.51"/>
      </g>
     </g>
     <g id="text_14">
      <!-- 2020-05-02 -->
      <g transform="translate(193.58392 637.625625)rotate(-90)scale(0.1 -0.1)">
       <use xlink:href="#DejaVuSans-32"/>
       <use x="63.623047" xlink:href="#DejaVuSans-30"/>
       <use x="127.246094" xlink:href="#DejaVuSans-32"/>
       <use x="190.869141" xlink:href="#DejaVuSans-30"/>
       <use x="254.492188" xlink:href="#DejaVuSans-2d"/>
       <use x="290.576172" xlink:href="#DejaVuSans-30"/>
       <use x="354.199219" xlink:href="#DejaVuSans-35"/>
       <use x="417.822266" xlink:href="#DejaVuSans-2d"/>
       <use x="453.90625" xlink:href="#DejaVuSans-30"/>
       <use x="517.529297" xlink:href="#DejaVuSans-32"/>
      </g>
     </g>
    </g>
    <g id="xtick_30">
     <g id="line2d_46">
      <g>
       <use style="stroke:#000000;stroke-width:0.8;" x="226.183182" xlink:href="#md294ac678c" y="572.51"/>
      </g>
     </g>
     <g id="text_15">
      <!-- 2020-05-10 -->
      <g transform="translate(228.942557 637.625625)rotate(-90)scale(0.1 -0.1)">
       <use xlink:href="#DejaVuSans-32"/>
       <use x="63.623047" xlink:href="#DejaVuSans-30"/>
       <use x="127.246094" xlink:href="#DejaVuSans-32"/>
       <use x="190.869141" xlink:href="#DejaVuSans-30"/>
       <use x="254.492188" xlink:href="#DejaVuSans-2d"/>
       <use x="290.576172" xlink:href="#DejaVuSans-30"/>
       <use x="354.199219" xlink:href="#DejaVuSans-35"/>
       <use x="417.822266" xlink:href="#DejaVuSans-2d"/>
       <use x="453.90625" xlink:href="#DejaVuSans-31"/>
       <use x="517.529297" xlink:href="#DejaVuSans-30"/>
      </g>
     </g>
    </g>
    <g id="xtick_31">
     <g id="line2d_47">
      <g>
       <use style="stroke:#000000;stroke-width:0.8;" x="261.541818" xlink:href="#md294ac678c" y="572.51"/>
      </g>
     </g>
     <g id="text_16">
      <!-- 2020-05-18 -->
      <defs>
       <path d="M 31.78125 34.625 
Q 24.75 34.625 20.71875 30.859375 
Q 16.703125 27.09375 16.703125 20.515625 
Q 16.703125 13.921875 20.71875 10.15625 
Q 24.75 6.390625 31.78125 6.390625 
Q 38.8125 6.390625 42.859375 10.171875 
Q 46.921875 13.96875 46.921875 20.515625 
Q 46.921875 27.09375 42.890625 30.859375 
Q 38.875 34.625 31.78125 34.625 
z
M 21.921875 38.8125 
Q 15.578125 40.375 12.03125 44.71875 
Q 8.5 49.078125 8.5 55.328125 
Q 8.5 64.0625 14.71875 69.140625 
Q 20.953125 74.21875 31.78125 74.21875 
Q 42.671875 74.21875 48.875 69.140625 
Q 55.078125 64.0625 55.078125 55.328125 
Q 55.078125 49.078125 51.53125 44.71875 
Q 48 40.375 41.703125 38.8125 
Q 48.828125 37.15625 52.796875 32.3125 
Q 56.78125 27.484375 56.78125 20.515625 
Q 56.78125 9.90625 50.3125 4.234375 
Q 43.84375 -1.421875 31.78125 -1.421875 
Q 19.734375 -1.421875 13.25 4.234375 
Q 6.78125 9.90625 6.78125 20.515625 
Q 6.78125 27.484375 10.78125 32.3125 
Q 14.796875 37.15625 21.921875 38.8125 
z
M 18.3125 54.390625 
Q 18.3125 48.734375 21.84375 45.5625 
Q 25.390625 42.390625 31.78125 42.390625 
Q 38.140625 42.390625 41.71875 45.5625 
Q 45.3125 48.734375 45.3125 54.390625 
Q 45.3125 60.0625 41.71875 63.234375 
Q 38.140625 66.40625 31.78125 66.40625 
Q 25.390625 66.40625 21.84375 63.234375 
Q 18.3125 60.0625 18.3125 54.390625 
z
" id="DejaVuSans-38"/>
      </defs>
      <g transform="translate(264.301193 637.625625)rotate(-90)scale(0.1 -0.1)">
       <use xlink:href="#DejaVuSans-32"/>
       <use x="63.623047" xlink:href="#DejaVuSans-30"/>
       <use x="127.246094" xlink:href="#DejaVuSans-32"/>
       <use x="190.869141" xlink:href="#DejaVuSans-30"/>
       <use x="254.492188" xlink:href="#DejaVuSans-2d"/>
       <use x="290.576172" xlink:href="#DejaVuSans-30"/>
       <use x="354.199219" xlink:href="#DejaVuSans-35"/>
       <use x="417.822266" xlink:href="#DejaVuSans-2d"/>
       <use x="453.90625" xlink:href="#DejaVuSans-31"/>
       <use x="517.529297" xlink:href="#DejaVuSans-38"/>
      </g>
     </g>
    </g>
    <g id="xtick_32">
     <g id="line2d_48">
      <g>
       <use style="stroke:#000000;stroke-width:0.8;" x="296.900455" xlink:href="#md294ac678c" y="572.51"/>
      </g>
     </g>
     <g id="text_17">
      <!-- 2020-05-26 -->
      <g transform="translate(299.65983 637.625625)rotate(-90)scale(0.1 -0.1)">
       <use xlink:href="#DejaVuSans-32"/>
       <use x="63.623047" xlink:href="#DejaVuSans-30"/>
       <use x="127.246094" xlink:href="#DejaVuSans-32"/>
       <use x="190.869141" xlink:href="#DejaVuSans-30"/>
       <use x="254.492188" xlink:href="#DejaVuSans-2d"/>
       <use x="290.576172" xlink:href="#DejaVuSans-30"/>
       <use x="354.199219" xlink:href="#DejaVuSans-35"/>
       <use x="417.822266" xlink:href="#DejaVuSans-2d"/>
       <use x="453.90625" xlink:href="#DejaVuSans-32"/>
       <use x="517.529297" xlink:href="#DejaVuSans-36"/>
      </g>
     </g>
    </g>
    <g id="xtick_33">
     <g id="line2d_49">
      <g>
       <use style="stroke:#000000;stroke-width:0.8;" x="332.259091" xlink:href="#md294ac678c" y="572.51"/>
      </g>
     </g>
     <g id="text_18">
      <!-- 2020-06-02 -->
      <g transform="translate(335.018466 637.625625)rotate(-90)scale(0.1 -0.1)">
       <use xlink:href="#DejaVuSans-32"/>
       <use x="63.623047" xlink:href="#DejaVuSans-30"/>
       <use x="127.246094" xlink:href="#DejaVuSans-32"/>
       <use x="190.869141" xlink:href="#DejaVuSans-30"/>
       <use x="254.492188" xlink:href="#DejaVuSans-2d"/>
       <use x="290.576172" xlink:href="#DejaVuSans-30"/>
       <use x="354.199219" xlink:href="#DejaVuSans-36"/>
       <use x="417.822266" xlink:href="#DejaVuSans-2d"/>
       <use x="453.90625" xlink:href="#DejaVuSans-30"/>
       <use x="517.529297" xlink:href="#DejaVuSans-32"/>
      </g>
     </g>
    </g>
    <g id="xtick_34">
     <g id="line2d_50">
      <g>
       <use style="stroke:#000000;stroke-width:0.8;" x="367.617727" xlink:href="#md294ac678c" y="572.51"/>
      </g>
     </g>
     <g id="text_19">
      <!-- 2020-06-10 -->
      <g transform="translate(370.377102 637.625625)rotate(-90)scale(0.1 -0.1)">
       <use xlink:href="#DejaVuSans-32"/>
       <use x="63.623047" xlink:href="#DejaVuSans-30"/>
       <use x="127.246094" xlink:href="#DejaVuSans-32"/>
       <use x="190.869141" xlink:href="#DejaVuSans-30"/>
       <use x="254.492188" xlink:href="#DejaVuSans-2d"/>
       <use x="290.576172" xlink:href="#DejaVuSans-30"/>
       <use x="354.199219" xlink:href="#DejaVuSans-36"/>
       <use x="417.822266" xlink:href="#DejaVuSans-2d"/>
       <use x="453.90625" xlink:href="#DejaVuSans-31"/>
       <use x="517.529297" xlink:href="#DejaVuSans-30"/>
      </g>
     </g>
    </g>
    <g id="xtick_35">
     <g id="line2d_51">
      <g>
       <use style="stroke:#000000;stroke-width:0.8;" x="402.976364" xlink:href="#md294ac678c" y="572.51"/>
      </g>
     </g>
     <g id="text_20">
      <!-- 2020-06-18 -->
      <g transform="translate(405.735739 637.625625)rotate(-90)scale(0.1 -0.1)">
       <use xlink:href="#DejaVuSans-32"/>
       <use x="63.623047" xlink:href="#DejaVuSans-30"/>
       <use x="127.246094" xlink:href="#DejaVuSans-32"/>
       <use x="190.869141" xlink:href="#DejaVuSans-30"/>
       <use x="254.492188" xlink:href="#DejaVuSans-2d"/>
       <use x="290.576172" xlink:href="#DejaVuSans-30"/>
       <use x="354.199219" xlink:href="#DejaVuSans-36"/>
       <use x="417.822266" xlink:href="#DejaVuSans-2d"/>
       <use x="453.90625" xlink:href="#DejaVuSans-31"/>
       <use x="517.529297" xlink:href="#DejaVuSans-38"/>
      </g>
     </g>
    </g>
    <g id="xtick_36">
     <g id="line2d_52">
      <g>
       <use style="stroke:#000000;stroke-width:0.8;" x="438.335" xlink:href="#md294ac678c" y="572.51"/>
      </g>
     </g>
     <g id="text_21">
      <!-- 2020-06-26 -->
      <g transform="translate(441.094375 637.625625)rotate(-90)scale(0.1 -0.1)">
       <use xlink:href="#DejaVuSans-32"/>
       <use x="63.623047" xlink:href="#DejaVuSans-30"/>
       <use x="127.246094" xlink:href="#DejaVuSans-32"/>
       <use x="190.869141" xlink:href="#DejaVuSans-30"/>
       <use x="254.492188" xlink:href="#DejaVuSans-2d"/>
       <use x="290.576172" xlink:href="#DejaVuSans-30"/>
       <use x="354.199219" xlink:href="#DejaVuSans-36"/>
       <use x="417.822266" xlink:href="#DejaVuSans-2d"/>
       <use x="453.90625" xlink:href="#DejaVuSans-32"/>
       <use x="517.529297" xlink:href="#DejaVuSans-36"/>
      </g>
     </g>
    </g>
   </g>
   <g id="matplotlib.axis_6">
    <g id="ytick_15">
     <g id="line2d_53">
      <g>
       <use style="stroke:#000000;stroke-width:0.8;" x="49.39" xlink:href="#m7ae615f2ae" y="572.51"/>
      </g>
     </g>
     <g id="text_22">
      <!-- 0 -->
      <g transform="translate(36.0275 576.309219)scale(0.1 -0.1)">
       <use xlink:href="#DejaVuSans-30"/>
      </g>
     </g>
    </g>
    <g id="ytick_16">
     <g id="line2d_54">
      <g>
       <use style="stroke:#000000;stroke-width:0.8;" x="49.39" xlink:href="#m7ae615f2ae" y="530.227622"/>
      </g>
     </g>
     <g id="text_23">
      <!-- 10000 -->
      <g transform="translate(10.5775 534.026841)scale(0.1 -0.1)">
       <use xlink:href="#DejaVuSans-31"/>
       <use x="63.623047" xlink:href="#DejaVuSans-30"/>
       <use x="127.246094" xlink:href="#DejaVuSans-30"/>
       <use x="190.869141" xlink:href="#DejaVuSans-30"/>
       <use x="254.492188" xlink:href="#DejaVuSans-30"/>
      </g>
     </g>
    </g>
    <g id="ytick_17">
     <g id="line2d_55">
      <g>
       <use style="stroke:#000000;stroke-width:0.8;" x="49.39" xlink:href="#m7ae615f2ae" y="487.945244"/>
      </g>
     </g>
     <g id="text_24">
      <!-- 20000 -->
      <g transform="translate(10.5775 491.744463)scale(0.1 -0.1)">
       <use xlink:href="#DejaVuSans-32"/>
       <use x="63.623047" xlink:href="#DejaVuSans-30"/>
       <use x="127.246094" xlink:href="#DejaVuSans-30"/>
       <use x="190.869141" xlink:href="#DejaVuSans-30"/>
       <use x="254.492188" xlink:href="#DejaVuSans-30"/>
      </g>
     </g>
    </g>
    <g id="ytick_18">
     <g id="line2d_56">
      <g>
       <use style="stroke:#000000;stroke-width:0.8;" x="49.39" xlink:href="#m7ae615f2ae" y="445.662866"/>
      </g>
     </g>
     <g id="text_25">
      <!-- 30000 -->
      <g transform="translate(10.5775 449.462085)scale(0.1 -0.1)">
       <use xlink:href="#DejaVuSans-33"/>
       <use x="63.623047" xlink:href="#DejaVuSans-30"/>
       <use x="127.246094" xlink:href="#DejaVuSans-30"/>
       <use x="190.869141" xlink:href="#DejaVuSans-30"/>
       <use x="254.492188" xlink:href="#DejaVuSans-30"/>
      </g>
     </g>
    </g>
    <g id="ytick_19">
     <g id="line2d_57">
      <g>
       <use style="stroke:#000000;stroke-width:0.8;" x="49.39" xlink:href="#m7ae615f2ae" y="403.380488"/>
      </g>
     </g>
     <g id="text_26">
      <!-- 40000 -->
      <g transform="translate(10.5775 407.179707)scale(0.1 -0.1)">
       <use xlink:href="#DejaVuSans-34"/>
       <use x="63.623047" xlink:href="#DejaVuSans-30"/>
       <use x="127.246094" xlink:href="#DejaVuSans-30"/>
       <use x="190.869141" xlink:href="#DejaVuSans-30"/>
       <use x="254.492188" xlink:href="#DejaVuSans-30"/>
      </g>
     </g>
    </g>
    <g id="ytick_20">
     <g id="line2d_58">
      <g>
       <use style="stroke:#000000;stroke-width:0.8;" x="49.39" xlink:href="#m7ae615f2ae" y="361.09811"/>
      </g>
     </g>
     <g id="text_27">
      <!-- 50000 -->
      <g transform="translate(10.5775 364.897329)scale(0.1 -0.1)">
       <use xlink:href="#DejaVuSans-35"/>
       <use x="63.623047" xlink:href="#DejaVuSans-30"/>
       <use x="127.246094" xlink:href="#DejaVuSans-30"/>
       <use x="190.869141" xlink:href="#DejaVuSans-30"/>
       <use x="254.492188" xlink:href="#DejaVuSans-30"/>
      </g>
     </g>
    </g>
    <g id="ytick_21">
     <g id="line2d_59">
      <g>
       <use style="stroke:#000000;stroke-width:0.8;" x="49.39" xlink:href="#m7ae615f2ae" y="318.815733"/>
      </g>
     </g>
     <g id="text_28">
      <!-- 60000 -->
      <g transform="translate(10.5775 322.614951)scale(0.1 -0.1)">
       <use xlink:href="#DejaVuSans-36"/>
       <use x="63.623047" xlink:href="#DejaVuSans-30"/>
       <use x="127.246094" xlink:href="#DejaVuSans-30"/>
       <use x="190.869141" xlink:href="#DejaVuSans-30"/>
       <use x="254.492188" xlink:href="#DejaVuSans-30"/>
      </g>
     </g>
    </g>
   </g>
   <g id="line2d_60">
    <path clip-path="url(#p5e557521bd)" d="M 49.39 568.748884 
L 53.965824 567.970172 
L 58.541647 567.271192 
L 63.117471 566.57972 
L 67.693294 565.850807 
L 72.269118 564.707989 
L 76.844941 563.580958 
L 81.420765 562.615907 
L 85.996588 561.393095 
L 90.572412 560.356167 
L 95.148235 559.526086 
L 99.724059 558.887646 
L 104.299882 557.62793 
L 108.875706 555.811649 
L 113.451529 554.30045 
L 118.027353 552.943148 
L 122.603176 551.579058 
L 127.179 550.757984 
L 131.754824 549.953537 
L 136.330647 548.448294 
L 140.906471 546.775203 
L 145.482294 545.280353 
L 150.058118 543.900615 
L 154.633941 542.477523 
L 159.209765 541.441453 
L 163.785588 540.768705 
L 168.361412 539.687965 
L 172.937235 537.266161 
L 177.513059 535.521624 
L 182.088882 533.993401 
L 186.664706 532.410775 
L 191.240529 531.295267 
L 195.816353 530.67354 
L 200.392176 529.274264 
L 204.968 527.327483 
L 209.543824 525.726541 
L 214.119647 524.167108 
L 218.695471 522.609108 
L 223.271294 521.626227 
L 227.847118 521.010209 
L 232.422941 519.818003 
L 236.998765 518.165435 
L 241.574588 516.937064 
L 246.150412 515.403628 
L 250.726235 514.066494 
L 255.302059 513.060469 
L 259.877882 512.436617 
L 264.453706 511.60533 
L 269.029529 510.263708 
L 273.605353 509.088162 
L 278.181176 507.832048 
L 282.757 506.906698 
L 287.332824 505.996545 
L 291.908647 505.231227 
L 296.484471 504.55183 
L 301.060294 503.818706 
L 305.636118 502.744684 
L 310.211941 501.383264 
L 314.787765 499.870132 
L 319.363588 499.052678 
L 323.939412 498.370319 
L 328.515235 497.619696 
L 333.091059 495.858973 
L 337.666882 494.885396 
L 342.242706 493.74318 
L 346.818529 492.609177 
L 351.394353 492.047526 
L 355.970176 491.447962 
L 360.546 490.605136 
L 365.121824 489.455832 
L 369.697647 488.319718 
L 374.273471 487.326481 
L 378.849294 486.445581 
L 383.425118 485.700584 
L 388.000941 485.223496 
L 392.576765 484.603816 
L 397.152588 483.272022 
L 401.728412 482.525816 
L 406.304235 481.502305 
L 410.880059 480.551159 
L 415.455882 479.656361 
L 420.031706 479.10398 
L 424.607529 478.390602 
L 429.183353 477.295094 
L 433.759176 476.330754 
L 438.335 475.308073 
" style="fill:none;stroke:#2ca02c;stroke-linecap:square;stroke-width:1.5;"/>
   </g>
   <g id="patch_13">
    <path d="M 49.39 572.51 
L 49.39 314.755 
" style="fill:none;stroke:#000000;stroke-linecap:square;stroke-linejoin:miter;stroke-width:0.8;"/>
   </g>
   <g id="patch_14">
    <path d="M 438.335 572.51 
L 438.335 314.755 
" style="fill:none;stroke:#000000;stroke-linecap:square;stroke-linejoin:miter;stroke-width:0.8;"/>
   </g>
   <g id="patch_15">
    <path d="M 49.39 572.51 
L 438.335 572.51 
" style="fill:none;stroke:#000000;stroke-linecap:square;stroke-linejoin:miter;stroke-width:0.8;"/>
   </g>
   <g id="patch_16">
    <path d="M 49.39 314.755 
L 438.335 314.755 
" style="fill:none;stroke:#000000;stroke-linecap:square;stroke-linejoin:miter;stroke-width:0.8;"/>
   </g>
   <g id="text_29">
    <!-- South -->
    <defs>
     <path d="M 53.515625 70.515625 
L 53.515625 60.890625 
Q 47.90625 63.578125 42.921875 64.890625 
Q 37.9375 66.21875 33.296875 66.21875 
Q 25.25 66.21875 20.875 63.09375 
Q 16.5 59.96875 16.5 54.203125 
Q 16.5 49.359375 19.40625 46.890625 
Q 22.3125 44.4375 30.421875 42.921875 
L 36.375 41.703125 
Q 47.40625 39.59375 52.65625 34.296875 
Q 57.90625 29 57.90625 20.125 
Q 57.90625 9.515625 50.796875 4.046875 
Q 43.703125 -1.421875 29.984375 -1.421875 
Q 24.8125 -1.421875 18.96875 -0.25 
Q 13.140625 0.921875 6.890625 3.21875 
L 6.890625 13.375 
Q 12.890625 10.015625 18.65625 8.296875 
Q 24.421875 6.59375 29.984375 6.59375 
Q 38.421875 6.59375 43.015625 9.90625 
Q 47.609375 13.234375 47.609375 19.390625 
Q 47.609375 24.75 44.3125 27.78125 
Q 41.015625 30.8125 33.5 32.328125 
L 27.484375 33.5 
Q 16.453125 35.6875 11.515625 40.375 
Q 6.59375 45.0625 6.59375 53.421875 
Q 6.59375 63.09375 13.40625 68.65625 
Q 20.21875 74.21875 32.171875 74.21875 
Q 37.3125 74.21875 42.625 73.28125 
Q 47.953125 72.359375 53.515625 70.515625 
z
" id="DejaVuSans-53"/>
     <path d="M 8.5 21.578125 
L 8.5 54.6875 
L 17.484375 54.6875 
L 17.484375 21.921875 
Q 17.484375 14.15625 20.5 10.265625 
Q 23.53125 6.390625 29.59375 6.390625 
Q 36.859375 6.390625 41.078125 11.03125 
Q 45.3125 15.671875 45.3125 23.6875 
L 45.3125 54.6875 
L 54.296875 54.6875 
L 54.296875 0 
L 45.3125 0 
L 45.3125 8.40625 
Q 42.046875 3.421875 37.71875 1 
Q 33.40625 -1.421875 27.6875 -1.421875 
Q 18.265625 -1.421875 13.375 4.4375 
Q 8.5 10.296875 8.5 21.578125 
z
M 31.109375 56 
z
" id="DejaVuSans-75"/>
    </defs>
    <g transform="translate(226.425 308.755)scale(0.12 -0.12)">
     <use xlink:href="#DejaVuSans-53"/>
     <use x="63.476562" xlink:href="#DejaVuSans-6f"/>
     <use x="124.658203" xlink:href="#DejaVuSans-75"/>
     <use x="188.037109" xlink:href="#DejaVuSans-74"/>
     <use x="227.246094" xlink:href="#DejaVuSans-68"/>
    </g>
   </g>
  </g>
  <g id="axes_4">
   <g id="patch_17">
    <path d="M 459.215 572.51 
L 848.16 572.51 
L 848.16 314.755 
L 459.215 314.755 
z
" style="fill:#ffffff;"/>
   </g>
   <g id="PolyCollection_4">
    <defs>
     <path d="M 459.215 -78.113416 
L 459.215 -75.49 
L 463.790824 -75.49 
L 468.366647 -75.49 
L 472.942471 -75.49 
L 477.518294 -75.49 
L 482.094118 -75.49 
L 486.669941 -75.49 
L 491.245765 -75.49 
L 495.821588 -75.49 
L 500.397412 -75.49 
L 504.973235 -75.49 
L 509.549059 -75.49 
L 514.124882 -75.49 
L 518.700706 -75.49 
L 523.276529 -75.49 
L 527.852353 -75.49 
L 532.428176 -75.49 
L 537.004 -75.49 
L 541.579824 -75.49 
L 546.155647 -75.49 
L 550.731471 -75.49 
L 555.307294 -75.49 
L 559.883118 -75.49 
L 564.458941 -75.49 
L 569.034765 -75.49 
L 573.610588 -75.49 
L 578.186412 -75.49 
L 582.762235 -75.49 
L 587.338059 -75.49 
L 591.913882 -75.49 
L 596.489706 -75.49 
L 601.065529 -75.49 
L 605.641353 -75.49 
L 610.217176 -75.49 
L 614.793 -75.49 
L 619.368824 -75.49 
L 623.944647 -75.49 
L 628.520471 -75.49 
L 633.096294 -75.49 
L 637.672118 -75.49 
L 642.247941 -75.49 
L 646.823765 -75.49 
L 651.399588 -75.49 
L 655.975412 -75.49 
L 660.551235 -75.49 
L 665.127059 -75.49 
L 669.702882 -75.49 
L 674.278706 -75.49 
L 678.854529 -75.49 
L 683.430353 -75.49 
L 688.006176 -75.49 
L 692.582 -75.49 
L 697.157824 -75.49 
L 701.733647 -75.49 
L 706.309471 -75.49 
L 710.885294 -75.49 
L 715.461118 -75.49 
L 720.036941 -75.49 
L 724.612765 -75.49 
L 729.188588 -75.49 
L 733.764412 -75.49 
L 738.340235 -75.49 
L 742.916059 -75.49 
L 747.491882 -75.49 
L 752.067706 -75.49 
L 756.643529 -75.49 
L 761.219353 -75.49 
L 765.795176 -75.49 
L 770.371 -75.49 
L 774.946824 -75.49 
L 779.522647 -75.49 
L 784.098471 -75.49 
L 788.674294 -75.49 
L 793.250118 -75.49 
L 797.825941 -75.49 
L 802.401765 -75.49 
L 806.977588 -75.49 
L 811.553412 -75.49 
L 816.129235 -75.49 
L 820.705059 -75.49 
L 825.280882 -75.49 
L 829.856706 -75.49 
L 834.432529 -75.49 
L 839.008353 -75.49 
L 843.584176 -75.49 
L 848.16 -75.49 
L 848.16 -124.554045 
L 848.16 -124.554045 
L 843.584176 -123.626134 
L 839.008353 -123.281539 
L 834.432529 -122.545592 
L 829.856706 -122.456396 
L 825.280882 -122.343512 
L 820.705059 -121.525806 
L 816.129235 -121.211278 
L 811.553412 -120.655752 
L 806.977588 -120.132099 
L 802.401765 -119.806961 
L 797.825941 -119.335386 
L 793.250118 -119.120013 
L 788.674294 -118.737797 
L 784.098471 -118.163722 
L 779.522647 -117.433832 
L 774.946824 -116.856139 
L 770.371 -116.437094 
L 765.795176 -116.147738 
L 761.219353 -115.732116 
L 756.643529 -115.291415 
L 752.067706 -114.783383 
L 747.491882 -114.337916 
L 742.916059 -113.643109 
L 738.340235 -113.275361 
L 733.764412 -112.990857 
L 729.188588 -112.595576 
L 724.612765 -112.064669 
L 720.036941 -111.205108 
L 715.461118 -110.649776 
L 710.885294 -109.980424 
L 706.309471 -109.756223 
L 701.733647 -109.57765 
L 697.157824 -109.182252 
L 692.582 -108.57565 
L 688.006176 -104.188082 
L 683.430353 -107.423609 
L 678.854529 -106.649526 
L 674.278706 -105.953029 
L 669.702882 -105.59335 
L 665.127059 -105.223827 
L 660.551235 -104.158462 
L 655.975412 -103.553532 
L 651.399588 -102.804228 
L 646.823765 -101.980771 
L 642.247941 -101.255552 
L 637.672118 -100.890849 
L 633.096294 -100.440689 
L 628.520471 -99.828652 
L 623.944647 -99.083646 
L 619.368824 -98.252749 
L 614.793 -97.531797 
L 610.217176 -96.68308 
L 605.641353 -96.382917 
L 601.065529 -96.032006 
L 596.489706 -95.175767 
L 591.913882 -94.66932 
L 587.338059 -94.038465 
L 582.762235 -93.244065 
L 578.186412 -92.744442 
L 573.610588 -92.25868 
L 569.034765 -91.884621 
L 564.458941 -91.365545 
L 559.883118 -90.320956 
L 555.307294 -89.252338 
L 550.731471 -88.598566 
L 546.155647 -87.792961 
L 541.579824 -87.038672 
L 537.004 -86.769752 
L 532.428176 -86.222622 
L 527.852353 -85.495709 
L 523.276529 -84.863903 
L 518.700706 -84.304757 
L 514.124882 -83.656899 
L 509.549059 -83.272363 
L 504.973235 -82.894287 
L 500.397412 -82.335227 
L 495.821588 -81.722074 
L 491.245765 -81.153667 
L 486.669941 -80.579841 
L 482.094118 -80.062868 
L 477.518294 -79.703367 
L 472.942471 -79.318303 
L 468.366647 -78.872486 
L 463.790824 -78.451733 
L 459.215 -78.113416 
z
" id="m470587b3d1" style="stroke:#d62728;"/>
    </defs>
    <g clip-path="url(#pfb0779a06e)">
     <use style="fill:#d62728;stroke:#d62728;" x="0" xlink:href="#m470587b3d1" y="648"/>
    </g>
   </g>
   <g id="matplotlib.axis_7">
    <g id="xtick_37">
     <g id="line2d_61">
      <g>
       <use style="stroke:#000000;stroke-width:0.8;" x="459.215" xlink:href="#md294ac678c" y="572.51"/>
      </g>
     </g>
     <g id="text_30">
      <!-- 2020-04-02 -->
      <g transform="translate(461.974375 637.625625)rotate(-90)scale(0.1 -0.1)">
       <use xlink:href="#DejaVuSans-32"/>
       <use x="63.623047" xlink:href="#DejaVuSans-30"/>
       <use x="127.246094" xlink:href="#DejaVuSans-32"/>
       <use x="190.869141" xlink:href="#DejaVuSans-30"/>
       <use x="254.492188" xlink:href="#DejaVuSans-2d"/>
       <use x="290.576172" xlink:href="#DejaVuSans-30"/>
       <use x="354.199219" xlink:href="#DejaVuSans-34"/>
       <use x="417.822266" xlink:href="#DejaVuSans-2d"/>
       <use x="453.90625" xlink:href="#DejaVuSans-30"/>
       <use x="517.529297" xlink:href="#DejaVuSans-32"/>
      </g>
     </g>
    </g>
    <g id="xtick_38">
     <g id="line2d_62">
      <g>
       <use style="stroke:#000000;stroke-width:0.8;" x="494.573636" xlink:href="#md294ac678c" y="572.51"/>
      </g>
     </g>
     <g id="text_31">
      <!-- 2020-04-09 -->
      <g transform="translate(497.333011 637.625625)rotate(-90)scale(0.1 -0.1)">
       <use xlink:href="#DejaVuSans-32"/>
       <use x="63.623047" xlink:href="#DejaVuSans-30"/>
       <use x="127.246094" xlink:href="#DejaVuSans-32"/>
       <use x="190.869141" xlink:href="#DejaVuSans-30"/>
       <use x="254.492188" xlink:href="#DejaVuSans-2d"/>
       <use x="290.576172" xlink:href="#DejaVuSans-30"/>
       <use x="354.199219" xlink:href="#DejaVuSans-34"/>
       <use x="417.822266" xlink:href="#DejaVuSans-2d"/>
       <use x="453.90625" xlink:href="#DejaVuSans-30"/>
       <use x="517.529297" xlink:href="#DejaVuSans-39"/>
      </g>
     </g>
    </g>
    <g id="xtick_39">
     <g id="line2d_63">
      <g>
       <use style="stroke:#000000;stroke-width:0.8;" x="529.932273" xlink:href="#md294ac678c" y="572.51"/>
      </g>
     </g>
     <g id="text_32">
      <!-- 2020-04-17 -->
      <g transform="translate(532.691648 637.625625)rotate(-90)scale(0.1 -0.1)">
       <use xlink:href="#DejaVuSans-32"/>
       <use x="63.623047" xlink:href="#DejaVuSans-30"/>
       <use x="127.246094" xlink:href="#DejaVuSans-32"/>
       <use x="190.869141" xlink:href="#DejaVuSans-30"/>
       <use x="254.492188" xlink:href="#DejaVuSans-2d"/>
       <use x="290.576172" xlink:href="#DejaVuSans-30"/>
       <use x="354.199219" xlink:href="#DejaVuSans-34"/>
       <use x="417.822266" xlink:href="#DejaVuSans-2d"/>
       <use x="453.90625" xlink:href="#DejaVuSans-31"/>
       <use x="517.529297" xlink:href="#DejaVuSans-37"/>
      </g>
     </g>
    </g>
    <g id="xtick_40">
     <g id="line2d_64">
      <g>
       <use style="stroke:#000000;stroke-width:0.8;" x="565.290909" xlink:href="#md294ac678c" y="572.51"/>
      </g>
     </g>
     <g id="text_33">
      <!-- 2020-04-25 -->
      <g transform="translate(568.050284 637.625625)rotate(-90)scale(0.1 -0.1)">
       <use xlink:href="#DejaVuSans-32"/>
       <use x="63.623047" xlink:href="#DejaVuSans-30"/>
       <use x="127.246094" xlink:href="#DejaVuSans-32"/>
       <use x="190.869141" xlink:href="#DejaVuSans-30"/>
       <use x="254.492188" xlink:href="#DejaVuSans-2d"/>
       <use x="290.576172" xlink:href="#DejaVuSans-30"/>
       <use x="354.199219" xlink:href="#DejaVuSans-34"/>
       <use x="417.822266" xlink:href="#DejaVuSans-2d"/>
       <use x="453.90625" xlink:href="#DejaVuSans-32"/>
       <use x="517.529297" xlink:href="#DejaVuSans-35"/>
      </g>
     </g>
    </g>
    <g id="xtick_41">
     <g id="line2d_65">
      <g>
       <use style="stroke:#000000;stroke-width:0.8;" x="600.649545" xlink:href="#md294ac678c" y="572.51"/>
      </g>
     </g>
     <g id="text_34">
      <!-- 2020-05-02 -->
      <g transform="translate(603.40892 637.625625)rotate(-90)scale(0.1 -0.1)">
       <use xlink:href="#DejaVuSans-32"/>
       <use x="63.623047" xlink:href="#DejaVuSans-30"/>
       <use x="127.246094" xlink:href="#DejaVuSans-32"/>
       <use x="190.869141" xlink:href="#DejaVuSans-30"/>
       <use x="254.492188" xlink:href="#DejaVuSans-2d"/>
       <use x="290.576172" xlink:href="#DejaVuSans-30"/>
       <use x="354.199219" xlink:href="#DejaVuSans-35"/>
       <use x="417.822266" xlink:href="#DejaVuSans-2d"/>
       <use x="453.90625" xlink:href="#DejaVuSans-30"/>
       <use x="517.529297" xlink:href="#DejaVuSans-32"/>
      </g>
     </g>
    </g>
    <g id="xtick_42">
     <g id="line2d_66">
      <g>
       <use style="stroke:#000000;stroke-width:0.8;" x="636.008182" xlink:href="#md294ac678c" y="572.51"/>
      </g>
     </g>
     <g id="text_35">
      <!-- 2020-05-10 -->
      <g transform="translate(638.767557 637.625625)rotate(-90)scale(0.1 -0.1)">
       <use xlink:href="#DejaVuSans-32"/>
       <use x="63.623047" xlink:href="#DejaVuSans-30"/>
       <use x="127.246094" xlink:href="#DejaVuSans-32"/>
       <use x="190.869141" xlink:href="#DejaVuSans-30"/>
       <use x="254.492188" xlink:href="#DejaVuSans-2d"/>
       <use x="290.576172" xlink:href="#DejaVuSans-30"/>
       <use x="354.199219" xlink:href="#DejaVuSans-35"/>
       <use x="417.822266" xlink:href="#DejaVuSans-2d"/>
       <use x="453.90625" xlink:href="#DejaVuSans-31"/>
       <use x="517.529297" xlink:href="#DejaVuSans-30"/>
      </g>
     </g>
    </g>
    <g id="xtick_43">
     <g id="line2d_67">
      <g>
       <use style="stroke:#000000;stroke-width:0.8;" x="671.366818" xlink:href="#md294ac678c" y="572.51"/>
      </g>
     </g>
     <g id="text_36">
      <!-- 2020-05-18 -->
      <g transform="translate(674.126193 637.625625)rotate(-90)scale(0.1 -0.1)">
       <use xlink:href="#DejaVuSans-32"/>
       <use x="63.623047" xlink:href="#DejaVuSans-30"/>
       <use x="127.246094" xlink:href="#DejaVuSans-32"/>
       <use x="190.869141" xlink:href="#DejaVuSans-30"/>
       <use x="254.492188" xlink:href="#DejaVuSans-2d"/>
       <use x="290.576172" xlink:href="#DejaVuSans-30"/>
       <use x="354.199219" xlink:href="#DejaVuSans-35"/>
       <use x="417.822266" xlink:href="#DejaVuSans-2d"/>
       <use x="453.90625" xlink:href="#DejaVuSans-31"/>
       <use x="517.529297" xlink:href="#DejaVuSans-38"/>
      </g>
     </g>
    </g>
    <g id="xtick_44">
     <g id="line2d_68">
      <g>
       <use style="stroke:#000000;stroke-width:0.8;" x="706.725455" xlink:href="#md294ac678c" y="572.51"/>
      </g>
     </g>
     <g id="text_37">
      <!-- 2020-05-26 -->
      <g transform="translate(709.48483 637.625625)rotate(-90)scale(0.1 -0.1)">
       <use xlink:href="#DejaVuSans-32"/>
       <use x="63.623047" xlink:href="#DejaVuSans-30"/>
       <use x="127.246094" xlink:href="#DejaVuSans-32"/>
       <use x="190.869141" xlink:href="#DejaVuSans-30"/>
       <use x="254.492188" xlink:href="#DejaVuSans-2d"/>
       <use x="290.576172" xlink:href="#DejaVuSans-30"/>
       <use x="354.199219" xlink:href="#DejaVuSans-35"/>
       <use x="417.822266" xlink:href="#DejaVuSans-2d"/>
       <use x="453.90625" xlink:href="#DejaVuSans-32"/>
       <use x="517.529297" xlink:href="#DejaVuSans-36"/>
      </g>
     </g>
    </g>
    <g id="xtick_45">
     <g id="line2d_69">
      <g>
       <use style="stroke:#000000;stroke-width:0.8;" x="742.084091" xlink:href="#md294ac678c" y="572.51"/>
      </g>
     </g>
     <g id="text_38">
      <!-- 2020-06-02 -->
      <g transform="translate(744.843466 637.625625)rotate(-90)scale(0.1 -0.1)">
       <use xlink:href="#DejaVuSans-32"/>
       <use x="63.623047" xlink:href="#DejaVuSans-30"/>
       <use x="127.246094" xlink:href="#DejaVuSans-32"/>
       <use x="190.869141" xlink:href="#DejaVuSans-30"/>
       <use x="254.492188" xlink:href="#DejaVuSans-2d"/>
       <use x="290.576172" xlink:href="#DejaVuSans-30"/>
       <use x="354.199219" xlink:href="#DejaVuSans-36"/>
       <use x="417.822266" xlink:href="#DejaVuSans-2d"/>
       <use x="453.90625" xlink:href="#DejaVuSans-30"/>
       <use x="517.529297" xlink:href="#DejaVuSans-32"/>
      </g>
     </g>
    </g>
    <g id="xtick_46">
     <g id="line2d_70">
      <g>
       <use style="stroke:#000000;stroke-width:0.8;" x="777.442727" xlink:href="#md294ac678c" y="572.51"/>
      </g>
     </g>
     <g id="text_39">
      <!-- 2020-06-10 -->
      <g transform="translate(780.202102 637.625625)rotate(-90)scale(0.1 -0.1)">
       <use xlink:href="#DejaVuSans-32"/>
       <use x="63.623047" xlink:href="#DejaVuSans-30"/>
       <use x="127.246094" xlink:href="#DejaVuSans-32"/>
       <use x="190.869141" xlink:href="#DejaVuSans-30"/>
       <use x="254.492188" xlink:href="#DejaVuSans-2d"/>
       <use x="290.576172" xlink:href="#DejaVuSans-30"/>
       <use x="354.199219" xlink:href="#DejaVuSans-36"/>
       <use x="417.822266" xlink:href="#DejaVuSans-2d"/>
       <use x="453.90625" xlink:href="#DejaVuSans-31"/>
       <use x="517.529297" xlink:href="#DejaVuSans-30"/>
      </g>
     </g>
    </g>
    <g id="xtick_47">
     <g id="line2d_71">
      <g>
       <use style="stroke:#000000;stroke-width:0.8;" x="812.801364" xlink:href="#md294ac678c" y="572.51"/>
      </g>
     </g>
     <g id="text_40">
      <!-- 2020-06-18 -->
      <g transform="translate(815.560739 637.625625)rotate(-90)scale(0.1 -0.1)">
       <use xlink:href="#DejaVuSans-32"/>
       <use x="63.623047" xlink:href="#DejaVuSans-30"/>
       <use x="127.246094" xlink:href="#DejaVuSans-32"/>
       <use x="190.869141" xlink:href="#DejaVuSans-30"/>
       <use x="254.492188" xlink:href="#DejaVuSans-2d"/>
       <use x="290.576172" xlink:href="#DejaVuSans-30"/>
       <use x="354.199219" xlink:href="#DejaVuSans-36"/>
       <use x="417.822266" xlink:href="#DejaVuSans-2d"/>
       <use x="453.90625" xlink:href="#DejaVuSans-31"/>
       <use x="517.529297" xlink:href="#DejaVuSans-38"/>
      </g>
     </g>
    </g>
    <g id="xtick_48">
     <g id="line2d_72">
      <g>
       <use style="stroke:#000000;stroke-width:0.8;" x="848.16" xlink:href="#md294ac678c" y="572.51"/>
      </g>
     </g>
     <g id="text_41">
      <!-- 2020-06-26 -->
      <g transform="translate(850.919375 637.625625)rotate(-90)scale(0.1 -0.1)">
       <use xlink:href="#DejaVuSans-32"/>
       <use x="63.623047" xlink:href="#DejaVuSans-30"/>
       <use x="127.246094" xlink:href="#DejaVuSans-32"/>
       <use x="190.869141" xlink:href="#DejaVuSans-30"/>
       <use x="254.492188" xlink:href="#DejaVuSans-2d"/>
       <use x="290.576172" xlink:href="#DejaVuSans-30"/>
       <use x="354.199219" xlink:href="#DejaVuSans-36"/>
       <use x="417.822266" xlink:href="#DejaVuSans-2d"/>
       <use x="453.90625" xlink:href="#DejaVuSans-32"/>
       <use x="517.529297" xlink:href="#DejaVuSans-36"/>
      </g>
     </g>
    </g>
   </g>
   <g id="matplotlib.axis_8">
    <g id="ytick_22">
     <g id="line2d_73">
      <g>
       <use style="stroke:#000000;stroke-width:0.8;" x="459.215" xlink:href="#m7ae615f2ae" y="572.51"/>
      </g>
     </g>
    </g>
    <g id="ytick_23">
     <g id="line2d_74">
      <g>
       <use style="stroke:#000000;stroke-width:0.8;" x="459.215" xlink:href="#m7ae615f2ae" y="530.227622"/>
      </g>
     </g>
    </g>
    <g id="ytick_24">
     <g id="line2d_75">
      <g>
       <use style="stroke:#000000;stroke-width:0.8;" x="459.215" xlink:href="#m7ae615f2ae" y="487.945244"/>
      </g>
     </g>
    </g>
    <g id="ytick_25">
     <g id="line2d_76">
      <g>
       <use style="stroke:#000000;stroke-width:0.8;" x="459.215" xlink:href="#m7ae615f2ae" y="445.662866"/>
      </g>
     </g>
    </g>
    <g id="ytick_26">
     <g id="line2d_77">
      <g>
       <use style="stroke:#000000;stroke-width:0.8;" x="459.215" xlink:href="#m7ae615f2ae" y="403.380488"/>
      </g>
     </g>
    </g>
    <g id="ytick_27">
     <g id="line2d_78">
      <g>
       <use style="stroke:#000000;stroke-width:0.8;" x="459.215" xlink:href="#m7ae615f2ae" y="361.09811"/>
      </g>
     </g>
    </g>
    <g id="ytick_28">
     <g id="line2d_79">
      <g>
       <use style="stroke:#000000;stroke-width:0.8;" x="459.215" xlink:href="#m7ae615f2ae" y="318.815733"/>
      </g>
     </g>
    </g>
   </g>
   <g id="line2d_80">
    <path clip-path="url(#pfb0779a06e)" d="M 459.215 569.886584 
L 463.790824 569.548267 
L 468.366647 569.127514 
L 472.942471 568.681697 
L 477.518294 568.296633 
L 482.094118 567.937132 
L 486.669941 567.420159 
L 491.245765 566.846333 
L 495.821588 566.277926 
L 500.397412 565.664773 
L 504.973235 565.105713 
L 509.549059 564.727637 
L 514.124882 564.343101 
L 518.700706 563.695243 
L 523.276529 563.136097 
L 527.852353 562.504291 
L 532.428176 561.777378 
L 537.004 561.230248 
L 541.579824 560.961328 
L 546.155647 560.207039 
L 550.731471 559.401434 
L 555.307294 558.747662 
L 559.883118 557.679044 
L 564.458941 556.634455 
L 569.034765 556.115379 
L 573.610588 555.74132 
L 578.186412 555.255558 
L 582.762235 554.755935 
L 587.338059 553.961535 
L 591.913882 553.33068 
L 596.489706 552.824233 
L 601.065529 551.967994 
L 605.641353 551.617083 
L 610.217176 551.31692 
L 614.793 550.468203 
L 619.368824 549.747251 
L 623.944647 548.916354 
L 628.520471 548.171348 
L 633.096294 547.559311 
L 637.672118 547.109151 
L 642.247941 546.744448 
L 646.823765 546.019229 
L 651.399588 545.195772 
L 655.975412 544.446468 
L 660.551235 543.841538 
L 665.127059 542.776173 
L 669.702882 542.40665 
L 674.278706 542.046971 
L 678.854529 541.350474 
L 683.430353 540.576391 
L 688.006176 543.811918 
L 692.582 539.42435 
L 697.157824 538.817748 
L 701.733647 538.42235 
L 706.309471 538.243777 
L 710.885294 538.019576 
L 715.461118 537.350224 
L 720.036941 536.794892 
L 724.612765 535.935331 
L 729.188588 535.404424 
L 733.764412 535.009143 
L 738.340235 534.724639 
L 742.916059 534.356891 
L 747.491882 533.662084 
L 752.067706 533.216617 
L 756.643529 532.708585 
L 761.219353 532.267884 
L 765.795176 531.852262 
L 770.371 531.562906 
L 774.946824 531.143861 
L 779.522647 530.566168 
L 784.098471 529.836278 
L 788.674294 529.262203 
L 793.250118 528.879987 
L 797.825941 528.664614 
L 802.401765 528.193039 
L 806.977588 527.867901 
L 811.553412 527.344248 
L 816.129235 526.788722 
L 820.705059 526.474194 
L 825.280882 525.656488 
L 829.856706 525.543604 
L 834.432529 525.454408 
L 839.008353 524.718461 
L 843.584176 524.373866 
L 848.16 523.445955 
" style="fill:none;stroke:#d62728;stroke-linecap:square;stroke-width:1.5;"/>
   </g>
   <g id="patch_18">
    <path d="M 459.215 572.51 
L 459.215 314.755 
" style="fill:none;stroke:#000000;stroke-linecap:square;stroke-linejoin:miter;stroke-width:0.8;"/>
   </g>
   <g id="patch_19">
    <path d="M 848.16 572.51 
L 848.16 314.755 
" style="fill:none;stroke:#000000;stroke-linecap:square;stroke-linejoin:miter;stroke-width:0.8;"/>
   </g>
   <g id="patch_20">
    <path d="M 459.215 572.51 
L 848.16 572.51 
" style="fill:none;stroke:#000000;stroke-linecap:square;stroke-linejoin:miter;stroke-width:0.8;"/>
   </g>
   <g id="patch_21">
    <path d="M 459.215 314.755 
L 848.16 314.755 
" style="fill:none;stroke:#000000;stroke-linecap:square;stroke-linejoin:miter;stroke-width:0.8;"/>
   </g>
   <g id="text_42">
    <!-- West -->
    <defs>
     <path d="M 3.328125 72.90625 
L 13.28125 72.90625 
L 28.609375 11.28125 
L 43.890625 72.90625 
L 54.984375 72.90625 
L 70.3125 11.28125 
L 85.59375 72.90625 
L 95.609375 72.90625 
L 77.296875 0 
L 64.890625 0 
L 49.515625 63.28125 
L 33.984375 0 
L 21.578125 0 
z
" id="DejaVuSans-57"/>
    </defs>
    <g transform="translate(638.59 308.755)scale(0.12 -0.12)">
     <use xlink:href="#DejaVuSans-57"/>
     <use x="98.798828" xlink:href="#DejaVuSans-65"/>
     <use x="160.322266" xlink:href="#DejaVuSans-73"/>
     <use x="212.421875" xlink:href="#DejaVuSans-74"/>
    </g>
   </g>
  </g>
 </g>
 <defs>
  <clipPath id="pa36046c7d2">
   <rect height="257.755" width="388.945" x="49.39" y="25.44"/>
  </clipPath>
  <clipPath id="p79803f5630">
   <rect height="257.755" width="388.945" x="459.215" y="25.44"/>
  </clipPath>
  <clipPath id="p5e557521bd">
   <rect height="257.755" width="388.945" x="49.39" y="314.755"/>
  </clipPath>
  <clipPath id="pfb0779a06e">
   <rect height="257.755" width="388.945" x="459.215" y="314.755"/>
  </clipPath>
 </defs>
</svg>
