<?xml version="1.0" encoding="utf-8" standalone="no"?>
<!DOCTYPE svg PUBLIC "-//W3C//DTD SVG 1.1//EN"
  "http://www.w3.org/Graphics/SVG/1.1/DTD/svg11.dtd">
<!-- Created with matplotlib (http://matplotlib.org/) -->
<svg height="642.205625pt" version="1.1" viewBox="0 0 856.731562 642.205625" width="856.731562pt" xmlns="http://www.w3.org/2000/svg" xmlns:xlink="http://www.w3.org/1999/xlink">
 <defs>
  <style type="text/css">
*{stroke-linecap:butt;stroke-linejoin:round;}
  </style>
 </defs>
 <g id="figure_1">
  <g id="patch_1">
   <path d="M 0 642.205625 
L 856.731562 642.205625 
L 856.731562 0 
L 0 0 
z
" style="fill:#ffffff;"/>
  </g>
  <g id="axes_1">
   <g id="patch_2">
    <path d="M 46.0125 569.89 
L 844.6925 569.89 
L 844.6925 10.7 
L 46.0125 10.7 
z
" style="fill:#ffffff;"/>
   </g>
   <g id="PolyCollection_1">
    <path clip-path="url(#p170d680810)" d="M 46.0125 516.306909 
L 46.0125 569.89 
L 55.520595 569.89 
L 65.02869 569.89 
L 74.536786 569.89 
L 84.044881 569.89 
L 93.552976 569.89 
L 103.061071 569.89 
L 112.569167 569.89 
L 122.077262 569.89 
L 131.585357 569.89 
L 141.093452 569.89 
L 150.601548 569.89 
L 160.109643 569.89 
L 169.617738 569.89 
L 179.125833 569.89 
L 188.633929 569.89 
L 198.142024 569.89 
L 207.650119 569.89 
L 217.158214 569.89 
L 226.66631 569.89 
L 236.174405 569.89 
L 245.6825 569.89 
L 255.190595 569.89 
L 264.69869 569.89 
L 274.206786 569.89 
L 283.714881 569.89 
L 293.222976 569.89 
L 302.731071 569.89 
L 312.239167 569.89 
L 321.747262 569.89 
L 331.255357 569.89 
L 340.763452 569.89 
L 350.271548 569.89 
L 359.779643 569.89 
L 369.287738 569.89 
L 378.795833 569.89 
L 388.303929 569.89 
L 397.812024 569.89 
L 407.320119 569.89 
L 416.828214 569.89 
L 426.33631 569.89 
L 435.844405 569.89 
L 445.3525 569.89 
L 454.860595 569.89 
L 464.36869 569.89 
L 473.876786 569.89 
L 483.384881 569.89 
L 492.892976 569.89 
L 502.401071 569.89 
L 511.909167 569.89 
L 521.417262 569.89 
L 530.925357 569.89 
L 540.433452 569.89 
L 549.941548 569.89 
L 559.449643 569.89 
L 568.957738 569.89 
L 578.465833 569.89 
L 587.973929 569.89 
L 597.482024 569.89 
L 606.990119 569.89 
L 616.498214 569.89 
L 626.00631 569.89 
L 635.514405 569.89 
L 645.0225 569.89 
L 654.530595 569.89 
L 664.03869 569.89 
L 673.546786 569.89 
L 683.054881 569.89 
L 692.562976 569.89 
L 702.071071 569.89 
L 711.579167 569.89 
L 721.087262 569.89 
L 730.595357 569.89 
L 740.103452 569.89 
L 749.611548 569.89 
L 759.119643 569.89 
L 768.627738 569.89 
L 778.135833 569.89 
L 787.643929 569.89 
L 797.152024 569.89 
L 806.660119 569.89 
L 816.168214 569.89 
L 825.67631 569.89 
L 835.184405 569.89 
L 844.6925 569.89 
L 844.6925 516.452831 
L 844.6925 516.452831 
L 835.184405 521.73899 
L 825.67631 536.199446 
L 816.168214 534.549092 
L 806.660119 538.146687 
L 797.152024 525.544046 
L 787.643929 528.729042 
L 778.135833 531.50559 
L 768.627738 536.494147 
L 759.119643 539.997999 
L 749.611548 539.983825 
L 740.103452 541.355192 
L 730.595357 538.896832 
L 721.087262 520.825058 
L 711.579167 529.162074 
L 702.071071 525.691738 
L 692.562976 539.139249 
L 683.054881 530.113366 
L 673.546786 525.933213 
L 664.03869 516.537519 
L 654.530595 454.306707 
L 645.0225 502.704079 
L 635.514405 516.210338 
L 626.00631 466.771742 
L 616.498214 531.267481 
L 606.990119 514.580406 
L 597.482024 515.475752 
L 587.973929 490.701914 
L 578.465833 525.999529 
L 568.957738 518.934703 
L 559.449643 521.248977 
L 549.941548 516.178385 
L 540.433452 500.760314 
L 530.925357 489.971602 
L 521.417262 470.4685 
L 511.909167 493.328386 
L 502.401071 486.937096 
L 492.892976 504.906645 
L 483.384881 495.898676 
L 473.876786 498.944678 
L 464.36869 469.003301 
L 454.860595 488.457917 
L 445.3525 480.217903 
L 435.844405 505.131285 
L 426.33631 476.492982 
L 416.828214 474.310365 
L 407.320119 512.22509 
L 397.812024 500.326752 
L 388.303929 477.602469 
L 378.795833 464.681724 
L 369.287738 487.036358 
L 359.779643 490.549772 
L 350.271548 485.817215 
L 340.763452 487.703808 
L 331.255357 466.830753 
L 321.747262 468.919263 
L 312.239167 466.45276 
L 302.731071 486.864987 
L 293.222976 488.931248 
L 283.714881 495.583588 
L 274.206786 505.490693 
L 264.69869 494.359494 
L 255.190595 474.440697 
L 245.6825 492.267155 
L 236.174405 505.124862 
L 226.66631 504.656784 
L 217.158214 514.299359 
L 207.650119 508.819325 
L 198.142024 500.873936 
L 188.633929 506.206882 
L 179.125833 509.968997 
L 169.617738 512.351488 
L 160.109643 515.056288 
L 150.601548 520.690048 
L 141.093452 521.618845 
L 131.585357 515.023194 
L 122.077262 511.243891 
L 112.569167 513.429792 
L 103.061071 513.625899 
L 93.552976 506.832432 
L 84.044881 510.450511 
L 74.536786 519.557503 
L 65.02869 513.44646 
L 55.520595 508.66463 
L 46.0125 516.306909 
z
" style="fill:#1f77b4;"/>
   </g>
   <g id="PolyCollection_2">
    <path clip-path="url(#p170d680810)" d="M 46.0125 266.890121 
L 46.0125 516.306909 
L 55.520595 508.66463 
L 65.02869 513.44646 
L 74.536786 519.557503 
L 84.044881 510.450511 
L 93.552976 506.832432 
L 103.061071 513.625899 
L 112.569167 513.429792 
L 122.077262 511.243891 
L 131.585357 515.023194 
L 141.093452 521.618845 
L 150.601548 520.690048 
L 160.109643 515.056288 
L 169.617738 512.351488 
L 179.125833 509.968997 
L 188.633929 506.206882 
L 198.142024 500.873936 
L 207.650119 508.819325 
L 217.158214 514.299359 
L 226.66631 504.656784 
L 236.174405 505.124862 
L 245.6825 492.267155 
L 255.190595 474.440697 
L 264.69869 494.359494 
L 274.206786 505.490693 
L 283.714881 495.583588 
L 293.222976 488.931248 
L 302.731071 486.864987 
L 312.239167 466.45276 
L 321.747262 468.919263 
L 331.255357 466.830753 
L 340.763452 487.703808 
L 350.271548 485.817215 
L 359.779643 490.549772 
L 369.287738 487.036358 
L 378.795833 464.681724 
L 388.303929 477.602469 
L 397.812024 500.326752 
L 407.320119 512.22509 
L 416.828214 474.310365 
L 426.33631 476.492982 
L 435.844405 505.131285 
L 445.3525 480.217903 
L 454.860595 488.457917 
L 464.36869 469.003301 
L 473.876786 498.944678 
L 483.384881 495.898676 
L 492.892976 504.906645 
L 502.401071 486.937096 
L 511.909167 493.328386 
L 521.417262 470.4685 
L 530.925357 489.971602 
L 540.433452 500.760314 
L 549.941548 516.178385 
L 559.449643 521.248977 
L 568.957738 518.934703 
L 578.465833 525.999529 
L 587.973929 490.701914 
L 597.482024 515.475752 
L 606.990119 514.580406 
L 616.498214 531.267481 
L 626.00631 466.771742 
L 635.514405 516.210338 
L 645.0225 502.704079 
L 654.530595 454.306707 
L 664.03869 516.537519 
L 673.546786 525.933213 
L 683.054881 530.113366 
L 692.562976 539.139249 
L 702.071071 525.691738 
L 711.579167 529.162074 
L 721.087262 520.825058 
L 730.595357 538.896832 
L 740.103452 541.355192 
L 749.611548 539.983825 
L 759.119643 539.997999 
L 768.627738 536.494147 
L 778.135833 531.50559 
L 787.643929 528.729042 
L 797.152024 525.544046 
L 806.660119 538.146687 
L 816.168214 534.549092 
L 825.67631 536.199446 
L 835.184405 521.73899 
L 844.6925 516.452831 
L 844.6925 478.664135 
L 844.6925 478.664135 
L 835.184405 510.552523 
L 825.67631 517.569391 
L 816.168214 513.599629 
L 806.660119 520.626191 
L 797.152024 492.711565 
L 787.643929 491.746301 
L 778.135833 512.618431 
L 768.627738 515.027366 
L 759.119643 494.095259 
L 749.611548 520.280538 
L 740.103452 513.586783 
L 730.595357 506.908765 
L 721.087262 485.006714 
L 711.579167 500.323685 
L 702.071071 499.343285 
L 692.562976 521.743531 
L 683.054881 503.188813 
L 673.546786 493.404117 
L 664.03869 493.595699 
L 654.530595 411.676322 
L 645.0225 463.153882 
L 635.514405 484.653509 
L 626.00631 416.546773 
L 616.498214 449.788202 
L 606.990119 468.865447 
L 597.482024 460.777449 
L 587.973929 422.527373 
L 578.465833 480.023094 
L 568.957738 475.400453 
L 559.449643 478.899412 
L 549.941548 464.99483 
L 540.433452 438.903775 
L 530.925357 420.543944 
L 521.417262 403.383393 
L 511.909167 424.73658 
L 502.401071 413.913745 
L 492.892976 436.155619 
L 483.384881 431.569724 
L 473.876786 425.166625 
L 464.36869 369.378182 
L 454.860595 394.627452 
L 445.3525 383.258864 
L 435.844405 432.037958 
L 426.33631 409.017438 
L 416.828214 413.351685 
L 407.320119 435.403203 
L 397.812024 401.715849 
L 388.303929 369.451614 
L 378.795833 333.460818 
L 369.287738 385.128739 
L 359.779643 397.070962 
L 350.271548 372.571329 
L 340.763452 393.063321 
L 331.255357 327.103722 
L 321.747262 317.463522 
L 312.239167 315.070561 
L 302.731071 343.515345 
L 293.222976 347.678658 
L 283.714881 369.416566 
L 274.206786 357.526945 
L 264.69869 270.828571 
L 255.190595 219.974178 
L 245.6825 277.754947 
L 236.174405 311.516728 
L 226.66631 328.056215 
L 217.158214 354.726743 
L 207.650119 341.487498 
L 198.142024 297.666107 
L 188.633929 310.041441 
L 179.125833 279.204203 
L 169.617738 296.477707 
L 160.109643 305.673449 
L 150.601548 334.563697 
L 141.093452 321.107512 
L 131.585357 284.275837 
L 122.077262 263.092604 
L 112.569167 249.922293 
L 103.061071 271.208843 
L 93.552976 284.696077 
L 84.044881 294.392762 
L 74.536786 272.986749 
L 65.02869 324.974897 
L 55.520595 258.770281 
L 46.0125 266.890121 
z
" style="fill:#ff7f0e;"/>
   </g>
   <g id="PolyCollection_3">
    <path clip-path="url(#p170d680810)" d="M 46.0125 177.37547 
L 46.0125 266.890121 
L 55.520595 258.770281 
L 65.02869 324.974897 
L 74.536786 272.986749 
L 84.044881 294.392762 
L 93.552976 284.696077 
L 103.061071 271.208843 
L 112.569167 249.922293 
L 122.077262 263.092604 
L 131.585357 284.275837 
L 141.093452 321.107512 
L 150.601548 334.563697 
L 160.109643 305.673449 
L 169.617738 296.477707 
L 179.125833 279.204203 
L 188.633929 310.041441 
L 198.142024 297.666107 
L 207.650119 341.487498 
L 217.158214 354.726743 
L 226.66631 328.056215 
L 236.174405 311.516728 
L 245.6825 277.754947 
L 255.190595 219.974178 
L 264.69869 270.828571 
L 274.206786 357.526945 
L 283.714881 369.416566 
L 293.222976 347.678658 
L 302.731071 343.515345 
L 312.239167 315.070561 
L 321.747262 317.463522 
L 331.255357 327.103722 
L 340.763452 393.063321 
L 350.271548 372.571329 
L 359.779643 397.070962 
L 369.287738 385.128739 
L 378.795833 333.460818 
L 388.303929 369.451614 
L 397.812024 401.715849 
L 407.320119 435.403203 
L 416.828214 413.351685 
L 426.33631 409.017438 
L 435.844405 432.037958 
L 445.3525 383.258864 
L 454.860595 394.627452 
L 464.36869 369.378182 
L 473.876786 425.166625 
L 483.384881 431.569724 
L 492.892976 436.155619 
L 502.401071 413.913745 
L 511.909167 424.73658 
L 521.417262 403.383393 
L 530.925357 420.543944 
L 540.433452 438.903775 
L 549.941548 464.99483 
L 559.449643 478.899412 
L 568.957738 475.400453 
L 578.465833 480.023094 
L 587.973929 422.527373 
L 597.482024 460.777449 
L 606.990119 468.865447 
L 616.498214 449.788202 
L 626.00631 416.546773 
L 635.514405 484.653509 
L 645.0225 463.153882 
L 654.530595 411.676322 
L 664.03869 493.595699 
L 673.546786 493.404117 
L 683.054881 503.188813 
L 692.562976 521.743531 
L 702.071071 499.343285 
L 711.579167 500.323685 
L 721.087262 485.006714 
L 730.595357 506.908765 
L 740.103452 513.586783 
L 749.611548 520.280538 
L 759.119643 494.095259 
L 768.627738 515.027366 
L 778.135833 512.618431 
L 787.643929 491.746301 
L 797.152024 492.711565 
L 806.660119 520.626191 
L 816.168214 513.599629 
L 825.67631 517.569391 
L 835.184405 510.552523 
L 844.6925 478.664135 
L 844.6925 167.714027 
L 844.6925 167.714027 
L 835.184405 230.866179 
L 825.67631 291.647138 
L 816.168214 320.878719 
L 806.660119 348.914241 
L 797.152024 265.988006 
L 787.643929 266.422046 
L 778.135833 341.623382 
L 768.627738 363.079183 
L 759.119643 308.640704 
L 749.611548 386.036767 
L 740.103452 367.760961 
L 730.595357 343.612827 
L 721.087262 305.331556 
L 711.579167 369.28117 
L 702.071071 372.400908 
L 692.562976 422.8363 
L 683.054881 374.233032 
L 673.546786 384.468736 
L 664.03869 389.34513 
L 654.530595 281.212979 
L 645.0225 323.26203 
L 635.514405 393.383129 
L 626.00631 285.434271 
L 616.498214 360.27316 
L 606.990119 368.124866 
L 597.482024 363.286812 
L 587.973929 288.445631 
L 578.465833 370.094683 
L 568.957738 394.16066 
L 559.449643 392.6185 
L 549.941548 374.985156 
L 540.433452 339.111062 
L 530.925357 301.228394 
L 521.417262 316.232409 
L 511.909167 332.702475 
L 502.401071 298.503449 
L 492.892976 324.592132 
L 483.384881 358.478451 
L 473.876786 350.280973 
L 464.36869 265.504562 
L 454.860595 296.439327 
L 445.3525 282.01274 
L 435.844405 345.030938 
L 426.33631 320.663173 
L 416.828214 335.270607 
L 407.320119 355.708516 
L 397.812024 306.085989 
L 388.303929 275.801043 
L 378.795833 241.257514 
L 369.287738 298.04334 
L 359.779643 308.554213 
L 350.271548 294.527474 
L 340.763452 312.89487 
L 331.255357 227.714607 
L 321.747262 185.218417 
L 312.239167 225.376443 
L 302.731071 262.190008 
L 293.222976 265.720119 
L 283.714881 307.300943 
L 274.206786 290.334533 
L 264.69869 184.892363 
L 255.190595 132.521514 
L 245.6825 182.120369 
L 236.174405 227.886039 
L 226.66631 250.727601 
L 217.158214 281.461576 
L 207.650119 268.588017 
L 198.142024 230.546107 
L 188.633929 218.80149 
L 179.125833 191.366487 
L 169.617738 223.991274 
L 160.109643 237.156459 
L 150.601548 258.818189 
L 141.093452 253.091786 
L 131.585357 208.677047 
L 122.077262 169.576309 
L 112.569167 149.332431 
L 103.061071 184.512324 
L 93.552976 185.274188 
L 84.044881 206.001274 
L 74.536786 201.804523 
L 65.02869 244.57952 
L 55.520595 175.889706 
L 46.0125 177.37547 
z
" style="fill:#2ca02c;"/>
   </g>
   <g id="PolyCollection_4">
    <path clip-path="url(#p170d680810)" d="M 46.0125 138.239755 
L 46.0125 177.37547 
L 55.520595 175.889706 
L 65.02869 244.57952 
L 74.536786 201.804523 
L 84.044881 206.001274 
L 93.552976 185.274188 
L 103.061071 184.512324 
L 112.569167 149.332431 
L 122.077262 169.576309 
L 131.585357 208.677047 
L 141.093452 253.091786 
L 150.601548 258.818189 
L 160.109643 237.156459 
L 169.617738 223.991274 
L 179.125833 191.366487 
L 188.633929 218.80149 
L 198.142024 230.546107 
L 207.650119 268.588017 
L 217.158214 281.461576 
L 226.66631 250.727601 
L 236.174405 227.886039 
L 245.6825 182.120369 
L 255.190595 132.521514 
L 264.69869 184.892363 
L 274.206786 290.334533 
L 283.714881 307.300943 
L 293.222976 265.720119 
L 302.731071 262.190008 
L 312.239167 225.376443 
L 321.747262 185.218417 
L 331.255357 227.714607 
L 340.763452 312.89487 
L 350.271548 294.527474 
L 359.779643 308.554213 
L 369.287738 298.04334 
L 378.795833 241.257514 
L 388.303929 275.801043 
L 397.812024 306.085989 
L 407.320119 355.708516 
L 416.828214 335.270607 
L 426.33631 320.663173 
L 435.844405 345.030938 
L 445.3525 282.01274 
L 454.860595 296.439327 
L 464.36869 265.504562 
L 473.876786 350.280973 
L 483.384881 358.478451 
L 492.892976 324.592132 
L 502.401071 298.503449 
L 511.909167 332.702475 
L 521.417262 316.232409 
L 530.925357 301.228394 
L 540.433452 339.111062 
L 549.941548 374.985156 
L 559.449643 392.6185 
L 568.957738 394.16066 
L 578.465833 370.094683 
L 587.973929 288.445631 
L 597.482024 363.286812 
L 606.990119 368.124866 
L 616.498214 360.27316 
L 626.00631 285.434271 
L 635.514405 393.383129 
L 645.0225 323.26203 
L 654.530595 281.212979 
L 664.03869 389.34513 
L 673.546786 384.468736 
L 683.054881 374.233032 
L 692.562976 422.8363 
L 702.071071 372.400908 
L 711.579167 369.28117 
L 721.087262 305.331556 
L 730.595357 343.612827 
L 740.103452 367.760961 
L 749.611548 386.036767 
L 759.119643 308.640704 
L 768.627738 363.079183 
L 778.135833 341.623382 
L 787.643929 266.422046 
L 797.152024 265.988006 
L 806.660119 348.914241 
L 816.168214 320.878719 
L 825.67631 291.647138 
L 835.184405 230.866179 
L 844.6925 167.714027 
L 844.6925 37.328095 
L 844.6925 37.328095 
L 835.184405 79.323193 
L 825.67631 163.527183 
L 816.168214 213.22087 
L 806.660119 236.927409 
L 797.152024 118.527187 
L 787.643929 138.268478 
L 778.135833 240.753393 
L 768.627738 270.129058 
L 759.119643 232.898176 
L 749.611548 327.895963 
L 740.103452 278.465626 
L 730.595357 256.384063 
L 721.087262 224.390669 
L 711.579167 294.162221 
L 702.071071 314.277527 
L 692.562976 367.995377 
L 683.054881 314.382866 
L 673.546786 309.782934 
L 664.03869 311.733165 
L 654.530595 197.924744 
L 645.0225 268.855246 
L 635.514405 329.365635 
L 626.00631 228.637134 
L 616.498214 318.596226 
L 606.990119 296.198064 
L 597.482024 288.2567 
L 587.973929 215.862021 
L 578.465833 326.12341 
L 568.957738 347.736733 
L 559.449643 357.100949 
L 549.941548 337.709073 
L 540.433452 291.957418 
L 530.925357 241.884436 
L 521.417262 275.287397 
L 511.909167 286.789642 
L 502.401071 256.941431 
L 492.892976 282.75286 
L 483.384881 323.664825 
L 473.876786 313.053204 
L 464.36869 210.601626 
L 454.860595 249.808794 
L 445.3525 236.511817 
L 435.844405 307.444647 
L 426.33631 280.368193 
L 416.828214 293.989742 
L 407.320119 316.686851 
L 397.812024 255.916999 
L 388.303929 233.036876 
L 378.795833 192.889734 
L 369.287738 247.661805 
L 359.779643 269.185782 
L 350.271548 259.748071 
L 340.763452 279.491591 
L 331.255357 178.867515 
L 321.747262 146.240804 
L 312.239167 172.22854 
L 302.731071 220.708268 
L 293.222976 228.142924 
L 283.714881 273.025874 
L 274.206786 259.786063 
L 264.69869 139.237581 
L 255.190595 80.198412 
L 245.6825 128.042149 
L 236.174405 187.776323 
L 226.66631 202.109378 
L 217.158214 240.835135 
L 207.650119 252.590377 
L 198.142024 199.04824 
L 188.633929 180.472248 
L 179.125833 144.816433 
L 169.617738 196.599039 
L 160.109643 211.878676 
L 150.601548 238.120892 
L 141.093452 223.990742 
L 131.585357 174.554486 
L 122.077262 136.925487 
L 112.569167 107.274397 
L 103.061071 151.032337 
L 93.552976 150.525989 
L 84.044881 179.199264 
L 74.536786 166.474291 
L 65.02869 201.91446 
L 55.520595 131.255539 
L 46.0125 138.239755 
z
" style="fill:#d62728;"/>
   </g>
   <g id="matplotlib.axis_1">
    <g id="xtick_1">
     <g id="line2d_1">
      <defs>
       <path d="M 0 0 
L 0 3.5 
" id="mea4c406740" style="stroke:#000000;stroke-width:0.8;"/>
      </defs>
      <g>
       <use style="stroke:#000000;stroke-width:0.8;" x="46.0125" xlink:href="#mea4c406740" y="569.89"/>
      </g>
     </g>
     <g id="text_1">
      <!-- 2020-04-03 -->
      <defs>
       <path d="M 19.1875 8.296875 
L 53.609375 8.296875 
L 53.609375 0 
L 7.328125 0 
L 7.328125 8.296875 
Q 12.9375 14.109375 22.625 23.890625 
Q 32.328125 33.6875 34.8125 36.53125 
Q 39.546875 41.84375 41.421875 45.53125 
Q 43.3125 49.21875 43.3125 52.78125 
Q 43.3125 58.59375 39.234375 62.25 
Q 35.15625 65.921875 28.609375 65.921875 
Q 23.96875 65.921875 18.8125 64.3125 
Q 13.671875 62.703125 7.8125 59.421875 
L 7.8125 69.390625 
Q 13.765625 71.78125 18.9375 73 
Q 24.125 74.21875 28.421875 74.21875 
Q 39.75 74.21875 46.484375 68.546875 
Q 53.21875 62.890625 53.21875 53.421875 
Q 53.21875 48.921875 51.53125 44.890625 
Q 49.859375 40.875 45.40625 35.40625 
Q 44.1875 33.984375 37.640625 27.21875 
Q 31.109375 20.453125 19.1875 8.296875 
z
" id="DejaVuSans-32"/>
       <path d="M 31.78125 66.40625 
Q 24.171875 66.40625 20.328125 58.90625 
Q 16.5 51.421875 16.5 36.375 
Q 16.5 21.390625 20.328125 13.890625 
Q 24.171875 6.390625 31.78125 6.390625 
Q 39.453125 6.390625 43.28125 13.890625 
Q 47.125 21.390625 47.125 36.375 
Q 47.125 51.421875 43.28125 58.90625 
Q 39.453125 66.40625 31.78125 66.40625 
z
M 31.78125 74.21875 
Q 44.046875 74.21875 50.515625 64.515625 
Q 56.984375 54.828125 56.984375 36.375 
Q 56.984375 17.96875 50.515625 8.265625 
Q 44.046875 -1.421875 31.78125 -1.421875 
Q 19.53125 -1.421875 13.0625 8.265625 
Q 6.59375 17.96875 6.59375 36.375 
Q 6.59375 54.828125 13.0625 64.515625 
Q 19.53125 74.21875 31.78125 74.21875 
z
" id="DejaVuSans-30"/>
       <path d="M 4.890625 31.390625 
L 31.203125 31.390625 
L 31.203125 23.390625 
L 4.890625 23.390625 
z
" id="DejaVuSans-2d"/>
       <path d="M 37.796875 64.3125 
L 12.890625 25.390625 
L 37.796875 25.390625 
z
M 35.203125 72.90625 
L 47.609375 72.90625 
L 47.609375 25.390625 
L 58.015625 25.390625 
L 58.015625 17.1875 
L 47.609375 17.1875 
L 47.609375 0 
L 37.796875 0 
L 37.796875 17.1875 
L 4.890625 17.1875 
L 4.890625 26.703125 
z
" id="DejaVuSans-34"/>
       <path d="M 40.578125 39.3125 
Q 47.65625 37.796875 51.625 33 
Q 55.609375 28.21875 55.609375 21.1875 
Q 55.609375 10.40625 48.1875 4.484375 
Q 40.765625 -1.421875 27.09375 -1.421875 
Q 22.515625 -1.421875 17.65625 -0.515625 
Q 12.796875 0.390625 7.625 2.203125 
L 7.625 11.71875 
Q 11.71875 9.328125 16.59375 8.109375 
Q 21.484375 6.890625 26.8125 6.890625 
Q 36.078125 6.890625 40.9375 10.546875 
Q 45.796875 14.203125 45.796875 21.1875 
Q 45.796875 27.640625 41.28125 31.265625 
Q 36.765625 34.90625 28.71875 34.90625 
L 20.21875 34.90625 
L 20.21875 43.015625 
L 29.109375 43.015625 
Q 36.375 43.015625 40.234375 45.921875 
Q 44.09375 48.828125 44.09375 54.296875 
Q 44.09375 59.90625 40.109375 62.90625 
Q 36.140625 65.921875 28.71875 65.921875 
Q 24.65625 65.921875 20.015625 65.03125 
Q 15.375 64.15625 9.8125 62.3125 
L 9.8125 71.09375 
Q 15.4375 72.65625 20.34375 73.4375 
Q 25.25 74.21875 29.59375 74.21875 
Q 40.828125 74.21875 47.359375 69.109375 
Q 53.90625 64.015625 53.90625 55.328125 
Q 53.90625 49.265625 50.4375 45.09375 
Q 46.96875 40.921875 40.578125 39.3125 
z
" id="DejaVuSans-33"/>
      </defs>
      <g transform="translate(48.771875 635.005625)rotate(-90)scale(0.1 -0.1)">
       <use xlink:href="#DejaVuSans-32"/>
       <use x="63.623047" xlink:href="#DejaVuSans-30"/>
       <use x="127.246094" xlink:href="#DejaVuSans-32"/>
       <use x="190.869141" xlink:href="#DejaVuSans-30"/>
       <use x="254.492188" xlink:href="#DejaVuSans-2d"/>
       <use x="290.576172" xlink:href="#DejaVuSans-30"/>
       <use x="354.199219" xlink:href="#DejaVuSans-34"/>
       <use x="417.822266" xlink:href="#DejaVuSans-2d"/>
       <use x="453.90625" xlink:href="#DejaVuSans-30"/>
       <use x="517.529297" xlink:href="#DejaVuSans-33"/>
      </g>
     </g>
    </g>
    <g id="xtick_2">
     <g id="line2d_2">
      <g>
       <use style="stroke:#000000;stroke-width:0.8;" x="118.619773" xlink:href="#mea4c406740" y="569.89"/>
      </g>
     </g>
     <g id="text_2">
      <!-- 2020-04-10 -->
      <defs>
       <path d="M 12.40625 8.296875 
L 28.515625 8.296875 
L 28.515625 63.921875 
L 10.984375 60.40625 
L 10.984375 69.390625 
L 28.421875 72.90625 
L 38.28125 72.90625 
L 38.28125 8.296875 
L 54.390625 8.296875 
L 54.390625 0 
L 12.40625 0 
z
" id="DejaVuSans-31"/>
      </defs>
      <g transform="translate(121.379148 635.005625)rotate(-90)scale(0.1 -0.1)">
       <use xlink:href="#DejaVuSans-32"/>
       <use x="63.623047" xlink:href="#DejaVuSans-30"/>
       <use x="127.246094" xlink:href="#DejaVuSans-32"/>
       <use x="190.869141" xlink:href="#DejaVuSans-30"/>
       <use x="254.492188" xlink:href="#DejaVuSans-2d"/>
       <use x="290.576172" xlink:href="#DejaVuSans-30"/>
       <use x="354.199219" xlink:href="#DejaVuSans-34"/>
       <use x="417.822266" xlink:href="#DejaVuSans-2d"/>
       <use x="453.90625" xlink:href="#DejaVuSans-31"/>
       <use x="517.529297" xlink:href="#DejaVuSans-30"/>
      </g>
     </g>
    </g>
    <g id="xtick_3">
     <g id="line2d_3">
      <g>
       <use style="stroke:#000000;stroke-width:0.8;" x="191.227045" xlink:href="#mea4c406740" y="569.89"/>
      </g>
     </g>
     <g id="text_3">
      <!-- 2020-04-18 -->
      <defs>
       <path d="M 31.78125 34.625 
Q 24.75 34.625 20.71875 30.859375 
Q 16.703125 27.09375 16.703125 20.515625 
Q 16.703125 13.921875 20.71875 10.15625 
Q 24.75 6.390625 31.78125 6.390625 
Q 38.8125 6.390625 42.859375 10.171875 
Q 46.921875 13.96875 46.921875 20.515625 
Q 46.921875 27.09375 42.890625 30.859375 
Q 38.875 34.625 31.78125 34.625 
z
M 21.921875 38.8125 
Q 15.578125 40.375 12.03125 44.71875 
Q 8.5 49.078125 8.5 55.328125 
Q 8.5 64.0625 14.71875 69.140625 
Q 20.953125 74.21875 31.78125 74.21875 
Q 42.671875 74.21875 48.875 69.140625 
Q 55.078125 64.0625 55.078125 55.328125 
Q 55.078125 49.078125 51.53125 44.71875 
Q 48 40.375 41.703125 38.8125 
Q 48.828125 37.15625 52.796875 32.3125 
Q 56.78125 27.484375 56.78125 20.515625 
Q 56.78125 9.90625 50.3125 4.234375 
Q 43.84375 -1.421875 31.78125 -1.421875 
Q 19.734375 -1.421875 13.25 4.234375 
Q 6.78125 9.90625 6.78125 20.515625 
Q 6.78125 27.484375 10.78125 32.3125 
Q 14.796875 37.15625 21.921875 38.8125 
z
M 18.3125 54.390625 
Q 18.3125 48.734375 21.84375 45.5625 
Q 25.390625 42.390625 31.78125 42.390625 
Q 38.140625 42.390625 41.71875 45.5625 
Q 45.3125 48.734375 45.3125 54.390625 
Q 45.3125 60.0625 41.71875 63.234375 
Q 38.140625 66.40625 31.78125 66.40625 
Q 25.390625 66.40625 21.84375 63.234375 
Q 18.3125 60.0625 18.3125 54.390625 
z
" id="DejaVuSans-38"/>
      </defs>
      <g transform="translate(193.98642 635.005625)rotate(-90)scale(0.1 -0.1)">
       <use xlink:href="#DejaVuSans-32"/>
       <use x="63.623047" xlink:href="#DejaVuSans-30"/>
       <use x="127.246094" xlink:href="#DejaVuSans-32"/>
       <use x="190.869141" xlink:href="#DejaVuSans-30"/>
       <use x="254.492188" xlink:href="#DejaVuSans-2d"/>
       <use x="290.576172" xlink:href="#DejaVuSans-30"/>
       <use x="354.199219" xlink:href="#DejaVuSans-34"/>
       <use x="417.822266" xlink:href="#DejaVuSans-2d"/>
       <use x="453.90625" xlink:href="#DejaVuSans-31"/>
       <use x="517.529297" xlink:href="#DejaVuSans-38"/>
      </g>
     </g>
    </g>
    <g id="xtick_4">
     <g id="line2d_4">
      <g>
       <use style="stroke:#000000;stroke-width:0.8;" x="263.834318" xlink:href="#mea4c406740" y="569.89"/>
      </g>
     </g>
     <g id="text_4">
      <!-- 2020-04-25 -->
      <defs>
       <path d="M 10.796875 72.90625 
L 49.515625 72.90625 
L 49.515625 64.59375 
L 19.828125 64.59375 
L 19.828125 46.734375 
Q 21.96875 47.46875 24.109375 47.828125 
Q 26.265625 48.1875 28.421875 48.1875 
Q 40.625 48.1875 47.75 41.5 
Q 54.890625 34.8125 54.890625 23.390625 
Q 54.890625 11.625 47.5625 5.09375 
Q 40.234375 -1.421875 26.90625 -1.421875 
Q 22.3125 -1.421875 17.546875 -0.640625 
Q 12.796875 0.140625 7.71875 1.703125 
L 7.71875 11.625 
Q 12.109375 9.234375 16.796875 8.0625 
Q 21.484375 6.890625 26.703125 6.890625 
Q 35.15625 6.890625 40.078125 11.328125 
Q 45.015625 15.765625 45.015625 23.390625 
Q 45.015625 31 40.078125 35.4375 
Q 35.15625 39.890625 26.703125 39.890625 
Q 22.75 39.890625 18.8125 39.015625 
Q 14.890625 38.140625 10.796875 36.28125 
z
" id="DejaVuSans-35"/>
      </defs>
      <g transform="translate(266.593693 635.005625)rotate(-90)scale(0.1 -0.1)">
       <use xlink:href="#DejaVuSans-32"/>
       <use x="63.623047" xlink:href="#DejaVuSans-30"/>
       <use x="127.246094" xlink:href="#DejaVuSans-32"/>
       <use x="190.869141" xlink:href="#DejaVuSans-30"/>
       <use x="254.492188" xlink:href="#DejaVuSans-2d"/>
       <use x="290.576172" xlink:href="#DejaVuSans-30"/>
       <use x="354.199219" xlink:href="#DejaVuSans-34"/>
       <use x="417.822266" xlink:href="#DejaVuSans-2d"/>
       <use x="453.90625" xlink:href="#DejaVuSans-32"/>
       <use x="517.529297" xlink:href="#DejaVuSans-35"/>
      </g>
     </g>
    </g>
    <g id="xtick_5">
     <g id="line2d_5">
      <g>
       <use style="stroke:#000000;stroke-width:0.8;" x="336.441591" xlink:href="#mea4c406740" y="569.89"/>
      </g>
     </g>
     <g id="text_5">
      <!-- 2020-05-03 -->
      <g transform="translate(339.200966 635.005625)rotate(-90)scale(0.1 -0.1)">
       <use xlink:href="#DejaVuSans-32"/>
       <use x="63.623047" xlink:href="#DejaVuSans-30"/>
       <use x="127.246094" xlink:href="#DejaVuSans-32"/>
       <use x="190.869141" xlink:href="#DejaVuSans-30"/>
       <use x="254.492188" xlink:href="#DejaVuSans-2d"/>
       <use x="290.576172" xlink:href="#DejaVuSans-30"/>
       <use x="354.199219" xlink:href="#DejaVuSans-35"/>
       <use x="417.822266" xlink:href="#DejaVuSans-2d"/>
       <use x="453.90625" xlink:href="#DejaVuSans-30"/>
       <use x="517.529297" xlink:href="#DejaVuSans-33"/>
      </g>
     </g>
    </g>
    <g id="xtick_6">
     <g id="line2d_6">
      <g>
       <use style="stroke:#000000;stroke-width:0.8;" x="409.048864" xlink:href="#mea4c406740" y="569.89"/>
      </g>
     </g>
     <g id="text_6">
      <!-- 2020-05-11 -->
      <g transform="translate(411.808239 635.005625)rotate(-90)scale(0.1 -0.1)">
       <use xlink:href="#DejaVuSans-32"/>
       <use x="63.623047" xlink:href="#DejaVuSans-30"/>
       <use x="127.246094" xlink:href="#DejaVuSans-32"/>
       <use x="190.869141" xlink:href="#DejaVuSans-30"/>
       <use x="254.492188" xlink:href="#DejaVuSans-2d"/>
       <use x="290.576172" xlink:href="#DejaVuSans-30"/>
       <use x="354.199219" xlink:href="#DejaVuSans-35"/>
       <use x="417.822266" xlink:href="#DejaVuSans-2d"/>
       <use x="453.90625" xlink:href="#DejaVuSans-31"/>
       <use x="517.529297" xlink:href="#DejaVuSans-31"/>
      </g>
     </g>
    </g>
    <g id="xtick_7">
     <g id="line2d_7">
      <g>
       <use style="stroke:#000000;stroke-width:0.8;" x="481.656136" xlink:href="#mea4c406740" y="569.89"/>
      </g>
     </g>
     <g id="text_7">
      <!-- 2020-05-18 -->
      <g transform="translate(484.415511 635.005625)rotate(-90)scale(0.1 -0.1)">
       <use xlink:href="#DejaVuSans-32"/>
       <use x="63.623047" xlink:href="#DejaVuSans-30"/>
       <use x="127.246094" xlink:href="#DejaVuSans-32"/>
       <use x="190.869141" xlink:href="#DejaVuSans-30"/>
       <use x="254.492188" xlink:href="#DejaVuSans-2d"/>
       <use x="290.576172" xlink:href="#DejaVuSans-30"/>
       <use x="354.199219" xlink:href="#DejaVuSans-35"/>
       <use x="417.822266" xlink:href="#DejaVuSans-2d"/>
       <use x="453.90625" xlink:href="#DejaVuSans-31"/>
       <use x="517.529297" xlink:href="#DejaVuSans-38"/>
      </g>
     </g>
    </g>
    <g id="xtick_8">
     <g id="line2d_8">
      <g>
       <use style="stroke:#000000;stroke-width:0.8;" x="554.263409" xlink:href="#mea4c406740" y="569.89"/>
      </g>
     </g>
     <g id="text_8">
      <!-- 2020-05-26 -->
      <defs>
       <path d="M 33.015625 40.375 
Q 26.375 40.375 22.484375 35.828125 
Q 18.609375 31.296875 18.609375 23.390625 
Q 18.609375 15.53125 22.484375 10.953125 
Q 26.375 6.390625 33.015625 6.390625 
Q 39.65625 6.390625 43.53125 10.953125 
Q 47.40625 15.53125 47.40625 23.390625 
Q 47.40625 31.296875 43.53125 35.828125 
Q 39.65625 40.375 33.015625 40.375 
z
M 52.59375 71.296875 
L 52.59375 62.3125 
Q 48.875 64.0625 45.09375 64.984375 
Q 41.3125 65.921875 37.59375 65.921875 
Q 27.828125 65.921875 22.671875 59.328125 
Q 17.53125 52.734375 16.796875 39.40625 
Q 19.671875 43.65625 24.015625 45.921875 
Q 28.375 48.1875 33.59375 48.1875 
Q 44.578125 48.1875 50.953125 41.515625 
Q 57.328125 34.859375 57.328125 23.390625 
Q 57.328125 12.15625 50.6875 5.359375 
Q 44.046875 -1.421875 33.015625 -1.421875 
Q 20.359375 -1.421875 13.671875 8.265625 
Q 6.984375 17.96875 6.984375 36.375 
Q 6.984375 53.65625 15.1875 63.9375 
Q 23.390625 74.21875 37.203125 74.21875 
Q 40.921875 74.21875 44.703125 73.484375 
Q 48.484375 72.75 52.59375 71.296875 
z
" id="DejaVuSans-36"/>
      </defs>
      <g transform="translate(557.022784 635.005625)rotate(-90)scale(0.1 -0.1)">
       <use xlink:href="#DejaVuSans-32"/>
       <use x="63.623047" xlink:href="#DejaVuSans-30"/>
       <use x="127.246094" xlink:href="#DejaVuSans-32"/>
       <use x="190.869141" xlink:href="#DejaVuSans-30"/>
       <use x="254.492188" xlink:href="#DejaVuSans-2d"/>
       <use x="290.576172" xlink:href="#DejaVuSans-30"/>
       <use x="354.199219" xlink:href="#DejaVuSans-35"/>
       <use x="417.822266" xlink:href="#DejaVuSans-2d"/>
       <use x="453.90625" xlink:href="#DejaVuSans-32"/>
       <use x="517.529297" xlink:href="#DejaVuSans-36"/>
      </g>
     </g>
    </g>
    <g id="xtick_9">
     <g id="line2d_9">
      <g>
       <use style="stroke:#000000;stroke-width:0.8;" x="626.870682" xlink:href="#mea4c406740" y="569.89"/>
      </g>
     </g>
     <g id="text_9">
      <!-- 2020-06-03 -->
      <g transform="translate(629.630057 635.005625)rotate(-90)scale(0.1 -0.1)">
       <use xlink:href="#DejaVuSans-32"/>
       <use x="63.623047" xlink:href="#DejaVuSans-30"/>
       <use x="127.246094" xlink:href="#DejaVuSans-32"/>
       <use x="190.869141" xlink:href="#DejaVuSans-30"/>
       <use x="254.492188" xlink:href="#DejaVuSans-2d"/>
       <use x="290.576172" xlink:href="#DejaVuSans-30"/>
       <use x="354.199219" xlink:href="#DejaVuSans-36"/>
       <use x="417.822266" xlink:href="#DejaVuSans-2d"/>
       <use x="453.90625" xlink:href="#DejaVuSans-30"/>
       <use x="517.529297" xlink:href="#DejaVuSans-33"/>
      </g>
     </g>
    </g>
    <g id="xtick_10">
     <g id="line2d_10">
      <g>
       <use style="stroke:#000000;stroke-width:0.8;" x="699.477955" xlink:href="#mea4c406740" y="569.89"/>
      </g>
     </g>
     <g id="text_10">
      <!-- 2020-06-10 -->
      <g transform="translate(702.23733 635.005625)rotate(-90)scale(0.1 -0.1)">
       <use xlink:href="#DejaVuSans-32"/>
       <use x="63.623047" xlink:href="#DejaVuSans-30"/>
       <use x="127.246094" xlink:href="#DejaVuSans-32"/>
       <use x="190.869141" xlink:href="#DejaVuSans-30"/>
       <use x="254.492188" xlink:href="#DejaVuSans-2d"/>
       <use x="290.576172" xlink:href="#DejaVuSans-30"/>
       <use x="354.199219" xlink:href="#DejaVuSans-36"/>
       <use x="417.822266" xlink:href="#DejaVuSans-2d"/>
       <use x="453.90625" xlink:href="#DejaVuSans-31"/>
       <use x="517.529297" xlink:href="#DejaVuSans-30"/>
      </g>
     </g>
    </g>
    <g id="xtick_11">
     <g id="line2d_11">
      <g>
       <use style="stroke:#000000;stroke-width:0.8;" x="772.085227" xlink:href="#mea4c406740" y="569.89"/>
      </g>
     </g>
     <g id="text_11">
      <!-- 2020-06-18 -->
      <g transform="translate(774.844602 635.005625)rotate(-90)scale(0.1 -0.1)">
       <use xlink:href="#DejaVuSans-32"/>
       <use x="63.623047" xlink:href="#DejaVuSans-30"/>
       <use x="127.246094" xlink:href="#DejaVuSans-32"/>
       <use x="190.869141" xlink:href="#DejaVuSans-30"/>
       <use x="254.492188" xlink:href="#DejaVuSans-2d"/>
       <use x="290.576172" xlink:href="#DejaVuSans-30"/>
       <use x="354.199219" xlink:href="#DejaVuSans-36"/>
       <use x="417.822266" xlink:href="#DejaVuSans-2d"/>
       <use x="453.90625" xlink:href="#DejaVuSans-31"/>
       <use x="517.529297" xlink:href="#DejaVuSans-38"/>
      </g>
     </g>
    </g>
    <g id="xtick_12">
     <g id="line2d_12">
      <g>
       <use style="stroke:#000000;stroke-width:0.8;" x="844.6925" xlink:href="#mea4c406740" y="569.89"/>
      </g>
     </g>
     <g id="text_12">
      <!-- 2020-06-26 -->
      <g transform="translate(847.451875 635.005625)rotate(-90)scale(0.1 -0.1)">
       <use xlink:href="#DejaVuSans-32"/>
       <use x="63.623047" xlink:href="#DejaVuSans-30"/>
       <use x="127.246094" xlink:href="#DejaVuSans-32"/>
       <use x="190.869141" xlink:href="#DejaVuSans-30"/>
       <use x="254.492188" xlink:href="#DejaVuSans-2d"/>
       <use x="290.576172" xlink:href="#DejaVuSans-30"/>
       <use x="354.199219" xlink:href="#DejaVuSans-36"/>
       <use x="417.822266" xlink:href="#DejaVuSans-2d"/>
       <use x="453.90625" xlink:href="#DejaVuSans-32"/>
       <use x="517.529297" xlink:href="#DejaVuSans-36"/>
      </g>
     </g>
    </g>
   </g>
   <g id="matplotlib.axis_2">
    <g id="ytick_1">
     <g id="line2d_13">
      <defs>
       <path d="M 0 0 
L -3.5 0 
" id="m6f6fe49a68" style="stroke:#000000;stroke-width:0.8;"/>
      </defs>
      <g>
       <use style="stroke:#000000;stroke-width:0.8;" x="46.0125" xlink:href="#m6f6fe49a68" y="569.89"/>
      </g>
     </g>
     <g id="text_13">
      <!-- 0 -->
      <g transform="translate(32.65 573.689219)scale(0.1 -0.1)">
       <use xlink:href="#DejaVuSans-30"/>
      </g>
     </g>
    </g>
    <g id="ytick_2">
     <g id="line2d_14">
      <g>
       <use style="stroke:#000000;stroke-width:0.8;" x="46.0125" xlink:href="#m6f6fe49a68" y="504.056399"/>
      </g>
     </g>
     <g id="text_14">
      <!-- 5000 -->
      <g transform="translate(13.5625 507.855618)scale(0.1 -0.1)">
       <use xlink:href="#DejaVuSans-35"/>
       <use x="63.623047" xlink:href="#DejaVuSans-30"/>
       <use x="127.246094" xlink:href="#DejaVuSans-30"/>
       <use x="190.869141" xlink:href="#DejaVuSans-30"/>
      </g>
     </g>
    </g>
    <g id="ytick_3">
     <g id="line2d_15">
      <g>
       <use style="stroke:#000000;stroke-width:0.8;" x="46.0125" xlink:href="#m6f6fe49a68" y="438.222799"/>
      </g>
     </g>
     <g id="text_15">
      <!-- 10000 -->
      <g transform="translate(7.2 442.022018)scale(0.1 -0.1)">
       <use xlink:href="#DejaVuSans-31"/>
       <use x="63.623047" xlink:href="#DejaVuSans-30"/>
       <use x="127.246094" xlink:href="#DejaVuSans-30"/>
       <use x="190.869141" xlink:href="#DejaVuSans-30"/>
       <use x="254.492188" xlink:href="#DejaVuSans-30"/>
      </g>
     </g>
    </g>
    <g id="ytick_4">
     <g id="line2d_16">
      <g>
       <use style="stroke:#000000;stroke-width:0.8;" x="46.0125" xlink:href="#m6f6fe49a68" y="372.389198"/>
      </g>
     </g>
     <g id="text_16">
      <!-- 15000 -->
      <g transform="translate(7.2 376.188417)scale(0.1 -0.1)">
       <use xlink:href="#DejaVuSans-31"/>
       <use x="63.623047" xlink:href="#DejaVuSans-35"/>
       <use x="127.246094" xlink:href="#DejaVuSans-30"/>
       <use x="190.869141" xlink:href="#DejaVuSans-30"/>
       <use x="254.492188" xlink:href="#DejaVuSans-30"/>
      </g>
     </g>
    </g>
    <g id="ytick_5">
     <g id="line2d_17">
      <g>
       <use style="stroke:#000000;stroke-width:0.8;" x="46.0125" xlink:href="#m6f6fe49a68" y="306.555598"/>
      </g>
     </g>
     <g id="text_17">
      <!-- 20000 -->
      <g transform="translate(7.2 310.354817)scale(0.1 -0.1)">
       <use xlink:href="#DejaVuSans-32"/>
       <use x="63.623047" xlink:href="#DejaVuSans-30"/>
       <use x="127.246094" xlink:href="#DejaVuSans-30"/>
       <use x="190.869141" xlink:href="#DejaVuSans-30"/>
       <use x="254.492188" xlink:href="#DejaVuSans-30"/>
      </g>
     </g>
    </g>
    <g id="ytick_6">
     <g id="line2d_18">
      <g>
       <use style="stroke:#000000;stroke-width:0.8;" x="46.0125" xlink:href="#m6f6fe49a68" y="240.721997"/>
      </g>
     </g>
     <g id="text_18">
      <!-- 25000 -->
      <g transform="translate(7.2 244.521216)scale(0.1 -0.1)">
       <use xlink:href="#DejaVuSans-32"/>
       <use x="63.623047" xlink:href="#DejaVuSans-35"/>
       <use x="127.246094" xlink:href="#DejaVuSans-30"/>
       <use x="190.869141" xlink:href="#DejaVuSans-30"/>
       <use x="254.492188" xlink:href="#DejaVuSans-30"/>
      </g>
     </g>
    </g>
    <g id="ytick_7">
     <g id="line2d_19">
      <g>
       <use style="stroke:#000000;stroke-width:0.8;" x="46.0125" xlink:href="#m6f6fe49a68" y="174.888397"/>
      </g>
     </g>
     <g id="text_19">
      <!-- 30000 -->
      <g transform="translate(7.2 178.687616)scale(0.1 -0.1)">
       <use xlink:href="#DejaVuSans-33"/>
       <use x="63.623047" xlink:href="#DejaVuSans-30"/>
       <use x="127.246094" xlink:href="#DejaVuSans-30"/>
       <use x="190.869141" xlink:href="#DejaVuSans-30"/>
       <use x="254.492188" xlink:href="#DejaVuSans-30"/>
      </g>
     </g>
    </g>
    <g id="ytick_8">
     <g id="line2d_20">
      <g>
       <use style="stroke:#000000;stroke-width:0.8;" x="46.0125" xlink:href="#m6f6fe49a68" y="109.054796"/>
      </g>
     </g>
     <g id="text_20">
      <!-- 35000 -->
      <g transform="translate(7.2 112.854015)scale(0.1 -0.1)">
       <use xlink:href="#DejaVuSans-33"/>
       <use x="63.623047" xlink:href="#DejaVuSans-35"/>
       <use x="127.246094" xlink:href="#DejaVuSans-30"/>
       <use x="190.869141" xlink:href="#DejaVuSans-30"/>
       <use x="254.492188" xlink:href="#DejaVuSans-30"/>
      </g>
     </g>
    </g>
    <g id="ytick_9">
     <g id="line2d_21">
      <g>
       <use style="stroke:#000000;stroke-width:0.8;" x="46.0125" xlink:href="#m6f6fe49a68" y="43.221196"/>
      </g>
     </g>
     <g id="text_21">
      <!-- 40000 -->
      <g transform="translate(7.2 47.020414)scale(0.1 -0.1)">
       <use xlink:href="#DejaVuSans-34"/>
       <use x="63.623047" xlink:href="#DejaVuSans-30"/>
       <use x="127.246094" xlink:href="#DejaVuSans-30"/>
       <use x="190.869141" xlink:href="#DejaVuSans-30"/>
       <use x="254.492188" xlink:href="#DejaVuSans-30"/>
      </g>
     </g>
    </g>
   </g>
   <g id="patch_3">
    <path d="M 46.0125 569.89 
L 46.0125 10.7 
" style="fill:none;stroke:#000000;stroke-linecap:square;stroke-linejoin:miter;stroke-width:0.8;"/>
   </g>
   <g id="patch_4">
    <path d="M 844.6925 569.89 
L 844.6925 10.7 
" style="fill:none;stroke:#000000;stroke-linecap:square;stroke-linejoin:miter;stroke-width:0.8;"/>
   </g>
   <g id="patch_5">
    <path d="M 46.0125 569.89 
L 844.6925 569.89 
" style="fill:none;stroke:#000000;stroke-linecap:square;stroke-linejoin:miter;stroke-width:0.8;"/>
   </g>
   <g id="patch_6">
    <path d="M 46.0125 10.7 
L 844.6925 10.7 
" style="fill:none;stroke:#000000;stroke-linecap:square;stroke-linejoin:miter;stroke-width:0.8;"/>
   </g>
   <g id="legend_1">
    <g id="patch_7">
     <path d="M 404.662656 77.4125 
L 486.042344 77.4125 
Q 488.042344 77.4125 488.042344 75.4125 
L 488.042344 17.7 
Q 488.042344 15.7 486.042344 15.7 
L 404.662656 15.7 
Q 402.662656 15.7 402.662656 17.7 
L 402.662656 75.4125 
Q 402.662656 77.4125 404.662656 77.4125 
z
" style="fill:#ffffff;opacity:0.8;stroke:#cccccc;stroke-linejoin:miter;"/>
    </g>
    <g id="patch_8">
     <path d="M 406.662656 27.298437 
L 426.662656 27.298437 
L 426.662656 20.298437 
L 406.662656 20.298437 
z
" style="fill:#1f77b4;"/>
    </g>
    <g id="text_22">
     <!-- Midwest -->
     <defs>
      <path d="M 9.8125 72.90625 
L 24.515625 72.90625 
L 43.109375 23.296875 
L 61.8125 72.90625 
L 76.515625 72.90625 
L 76.515625 0 
L 66.890625 0 
L 66.890625 64.015625 
L 48.09375 14.015625 
L 38.1875 14.015625 
L 19.390625 64.015625 
L 19.390625 0 
L 9.8125 0 
z
" id="DejaVuSans-4d"/>
      <path d="M 9.421875 54.6875 
L 18.40625 54.6875 
L 18.40625 0 
L 9.421875 0 
z
M 9.421875 75.984375 
L 18.40625 75.984375 
L 18.40625 64.59375 
L 9.421875 64.59375 
z
" id="DejaVuSans-69"/>
      <path d="M 45.40625 46.390625 
L 45.40625 75.984375 
L 54.390625 75.984375 
L 54.390625 0 
L 45.40625 0 
L 45.40625 8.203125 
Q 42.578125 3.328125 38.25 0.953125 
Q 33.9375 -1.421875 27.875 -1.421875 
Q 17.96875 -1.421875 11.734375 6.484375 
Q 5.515625 14.40625 5.515625 27.296875 
Q 5.515625 40.1875 11.734375 48.09375 
Q 17.96875 56 27.875 56 
Q 33.9375 56 38.25 53.625 
Q 42.578125 51.265625 45.40625 46.390625 
z
M 14.796875 27.296875 
Q 14.796875 17.390625 18.875 11.75 
Q 22.953125 6.109375 30.078125 6.109375 
Q 37.203125 6.109375 41.296875 11.75 
Q 45.40625 17.390625 45.40625 27.296875 
Q 45.40625 37.203125 41.296875 42.84375 
Q 37.203125 48.484375 30.078125 48.484375 
Q 22.953125 48.484375 18.875 42.84375 
Q 14.796875 37.203125 14.796875 27.296875 
z
" id="DejaVuSans-64"/>
      <path d="M 4.203125 54.6875 
L 13.1875 54.6875 
L 24.421875 12.015625 
L 35.59375 54.6875 
L 46.1875 54.6875 
L 57.421875 12.015625 
L 68.609375 54.6875 
L 77.59375 54.6875 
L 63.28125 0 
L 52.6875 0 
L 40.921875 44.828125 
L 29.109375 0 
L 18.5 0 
z
" id="DejaVuSans-77"/>
      <path d="M 56.203125 29.59375 
L 56.203125 25.203125 
L 14.890625 25.203125 
Q 15.484375 15.921875 20.484375 11.0625 
Q 25.484375 6.203125 34.421875 6.203125 
Q 39.59375 6.203125 44.453125 7.46875 
Q 49.3125 8.734375 54.109375 11.28125 
L 54.109375 2.78125 
Q 49.265625 0.734375 44.1875 -0.34375 
Q 39.109375 -1.421875 33.890625 -1.421875 
Q 20.796875 -1.421875 13.15625 6.1875 
Q 5.515625 13.8125 5.515625 26.8125 
Q 5.515625 40.234375 12.765625 48.109375 
Q 20.015625 56 32.328125 56 
Q 43.359375 56 49.78125 48.890625 
Q 56.203125 41.796875 56.203125 29.59375 
z
M 47.21875 32.234375 
Q 47.125 39.59375 43.09375 43.984375 
Q 39.0625 48.390625 32.421875 48.390625 
Q 24.90625 48.390625 20.390625 44.140625 
Q 15.875 39.890625 15.1875 32.171875 
z
" id="DejaVuSans-65"/>
      <path d="M 44.28125 53.078125 
L 44.28125 44.578125 
Q 40.484375 46.53125 36.375 47.5 
Q 32.28125 48.484375 27.875 48.484375 
Q 21.1875 48.484375 17.84375 46.4375 
Q 14.5 44.390625 14.5 40.28125 
Q 14.5 37.15625 16.890625 35.375 
Q 19.28125 33.59375 26.515625 31.984375 
L 29.59375 31.296875 
Q 39.15625 29.25 43.1875 25.515625 
Q 47.21875 21.78125 47.21875 15.09375 
Q 47.21875 7.46875 41.1875 3.015625 
Q 35.15625 -1.421875 24.609375 -1.421875 
Q 20.21875 -1.421875 15.453125 -0.5625 
Q 10.6875 0.296875 5.421875 2 
L 5.421875 11.28125 
Q 10.40625 8.6875 15.234375 7.390625 
Q 20.0625 6.109375 24.8125 6.109375 
Q 31.15625 6.109375 34.5625 8.28125 
Q 37.984375 10.453125 37.984375 14.40625 
Q 37.984375 18.0625 35.515625 20.015625 
Q 33.0625 21.96875 24.703125 23.78125 
L 21.578125 24.515625 
Q 13.234375 26.265625 9.515625 29.90625 
Q 5.8125 33.546875 5.8125 39.890625 
Q 5.8125 47.609375 11.28125 51.796875 
Q 16.75 56 26.8125 56 
Q 31.78125 56 36.171875 55.265625 
Q 40.578125 54.546875 44.28125 53.078125 
z
" id="DejaVuSans-73"/>
      <path d="M 18.3125 70.21875 
L 18.3125 54.6875 
L 36.8125 54.6875 
L 36.8125 47.703125 
L 18.3125 47.703125 
L 18.3125 18.015625 
Q 18.3125 11.328125 20.140625 9.421875 
Q 21.96875 7.515625 27.59375 7.515625 
L 36.8125 7.515625 
L 36.8125 0 
L 27.59375 0 
Q 17.1875 0 13.234375 3.875 
Q 9.28125 7.765625 9.28125 18.015625 
L 9.28125 47.703125 
L 2.6875 47.703125 
L 2.6875 54.6875 
L 9.28125 54.6875 
L 9.28125 70.21875 
z
" id="DejaVuSans-74"/>
     </defs>
     <g transform="translate(434.662656 27.298437)scale(0.1 -0.1)">
      <use xlink:href="#DejaVuSans-4d"/>
      <use x="86.279297" xlink:href="#DejaVuSans-69"/>
      <use x="114.0625" xlink:href="#DejaVuSans-64"/>
      <use x="177.539062" xlink:href="#DejaVuSans-77"/>
      <use x="259.326172" xlink:href="#DejaVuSans-65"/>
      <use x="320.849609" xlink:href="#DejaVuSans-73"/>
      <use x="372.949219" xlink:href="#DejaVuSans-74"/>
     </g>
    </g>
    <g id="patch_9">
     <path d="M 406.662656 41.976562 
L 426.662656 41.976562 
L 426.662656 34.976562 
L 406.662656 34.976562 
z
" style="fill:#ff7f0e;"/>
    </g>
    <g id="text_23">
     <!-- Northeast -->
     <defs>
      <path d="M 9.8125 72.90625 
L 23.09375 72.90625 
L 55.421875 11.921875 
L 55.421875 72.90625 
L 64.984375 72.90625 
L 64.984375 0 
L 51.703125 0 
L 19.390625 60.984375 
L 19.390625 0 
L 9.8125 0 
z
" id="DejaVuSans-4e"/>
      <path d="M 30.609375 48.390625 
Q 23.390625 48.390625 19.1875 42.75 
Q 14.984375 37.109375 14.984375 27.296875 
Q 14.984375 17.484375 19.15625 11.84375 
Q 23.34375 6.203125 30.609375 6.203125 
Q 37.796875 6.203125 41.984375 11.859375 
Q 46.1875 17.53125 46.1875 27.296875 
Q 46.1875 37.015625 41.984375 42.703125 
Q 37.796875 48.390625 30.609375 48.390625 
z
M 30.609375 56 
Q 42.328125 56 49.015625 48.375 
Q 55.71875 40.765625 55.71875 27.296875 
Q 55.71875 13.875 49.015625 6.21875 
Q 42.328125 -1.421875 30.609375 -1.421875 
Q 18.84375 -1.421875 12.171875 6.21875 
Q 5.515625 13.875 5.515625 27.296875 
Q 5.515625 40.765625 12.171875 48.375 
Q 18.84375 56 30.609375 56 
z
" id="DejaVuSans-6f"/>
      <path d="M 41.109375 46.296875 
Q 39.59375 47.171875 37.8125 47.578125 
Q 36.03125 48 33.890625 48 
Q 26.265625 48 22.1875 43.046875 
Q 18.109375 38.09375 18.109375 28.8125 
L 18.109375 0 
L 9.078125 0 
L 9.078125 54.6875 
L 18.109375 54.6875 
L 18.109375 46.1875 
Q 20.953125 51.171875 25.484375 53.578125 
Q 30.03125 56 36.53125 56 
Q 37.453125 56 38.578125 55.875 
Q 39.703125 55.765625 41.0625 55.515625 
z
" id="DejaVuSans-72"/>
      <path d="M 54.890625 33.015625 
L 54.890625 0 
L 45.90625 0 
L 45.90625 32.71875 
Q 45.90625 40.484375 42.875 44.328125 
Q 39.84375 48.1875 33.796875 48.1875 
Q 26.515625 48.1875 22.3125 43.546875 
Q 18.109375 38.921875 18.109375 30.90625 
L 18.109375 0 
L 9.078125 0 
L 9.078125 75.984375 
L 18.109375 75.984375 
L 18.109375 46.1875 
Q 21.34375 51.125 25.703125 53.5625 
Q 30.078125 56 35.796875 56 
Q 45.21875 56 50.046875 50.171875 
Q 54.890625 44.34375 54.890625 33.015625 
z
" id="DejaVuSans-68"/>
      <path d="M 34.28125 27.484375 
Q 23.390625 27.484375 19.1875 25 
Q 14.984375 22.515625 14.984375 16.5 
Q 14.984375 11.71875 18.140625 8.90625 
Q 21.296875 6.109375 26.703125 6.109375 
Q 34.1875 6.109375 38.703125 11.40625 
Q 43.21875 16.703125 43.21875 25.484375 
L 43.21875 27.484375 
z
M 52.203125 31.203125 
L 52.203125 0 
L 43.21875 0 
L 43.21875 8.296875 
Q 40.140625 3.328125 35.546875 0.953125 
Q 30.953125 -1.421875 24.3125 -1.421875 
Q 15.921875 -1.421875 10.953125 3.296875 
Q 6 8.015625 6 15.921875 
Q 6 25.140625 12.171875 29.828125 
Q 18.359375 34.515625 30.609375 34.515625 
L 43.21875 34.515625 
L 43.21875 35.40625 
Q 43.21875 41.609375 39.140625 45 
Q 35.0625 48.390625 27.6875 48.390625 
Q 23 48.390625 18.546875 47.265625 
Q 14.109375 46.140625 10.015625 43.890625 
L 10.015625 52.203125 
Q 14.9375 54.109375 19.578125 55.046875 
Q 24.21875 56 28.609375 56 
Q 40.484375 56 46.34375 49.84375 
Q 52.203125 43.703125 52.203125 31.203125 
z
" id="DejaVuSans-61"/>
     </defs>
     <g transform="translate(434.662656 41.976562)scale(0.1 -0.1)">
      <use xlink:href="#DejaVuSans-4e"/>
      <use x="74.804688" xlink:href="#DejaVuSans-6f"/>
      <use x="135.986328" xlink:href="#DejaVuSans-72"/>
      <use x="177.099609" xlink:href="#DejaVuSans-74"/>
      <use x="216.308594" xlink:href="#DejaVuSans-68"/>
      <use x="279.6875" xlink:href="#DejaVuSans-65"/>
      <use x="341.210938" xlink:href="#DejaVuSans-61"/>
      <use x="402.490234" xlink:href="#DejaVuSans-73"/>
      <use x="454.589844" xlink:href="#DejaVuSans-74"/>
     </g>
    </g>
    <g id="patch_10">
     <path d="M 406.662656 56.654687 
L 426.662656 56.654687 
L 426.662656 49.654687 
L 406.662656 49.654687 
z
" style="fill:#2ca02c;"/>
    </g>
    <g id="text_24">
     <!-- South -->
     <defs>
      <path d="M 53.515625 70.515625 
L 53.515625 60.890625 
Q 47.90625 63.578125 42.921875 64.890625 
Q 37.9375 66.21875 33.296875 66.21875 
Q 25.25 66.21875 20.875 63.09375 
Q 16.5 59.96875 16.5 54.203125 
Q 16.5 49.359375 19.40625 46.890625 
Q 22.3125 44.4375 30.421875 42.921875 
L 36.375 41.703125 
Q 47.40625 39.59375 52.65625 34.296875 
Q 57.90625 29 57.90625 20.125 
Q 57.90625 9.515625 50.796875 4.046875 
Q 43.703125 -1.421875 29.984375 -1.421875 
Q 24.8125 -1.421875 18.96875 -0.25 
Q 13.140625 0.921875 6.890625 3.21875 
L 6.890625 13.375 
Q 12.890625 10.015625 18.65625 8.296875 
Q 24.421875 6.59375 29.984375 6.59375 
Q 38.421875 6.59375 43.015625 9.90625 
Q 47.609375 13.234375 47.609375 19.390625 
Q 47.609375 24.75 44.3125 27.78125 
Q 41.015625 30.8125 33.5 32.328125 
L 27.484375 33.5 
Q 16.453125 35.6875 11.515625 40.375 
Q 6.59375 45.0625 6.59375 53.421875 
Q 6.59375 63.09375 13.40625 68.65625 
Q 20.21875 74.21875 32.171875 74.21875 
Q 37.3125 74.21875 42.625 73.28125 
Q 47.953125 72.359375 53.515625 70.515625 
z
" id="DejaVuSans-53"/>
      <path d="M 8.5 21.578125 
L 8.5 54.6875 
L 17.484375 54.6875 
L 17.484375 21.921875 
Q 17.484375 14.15625 20.5 10.265625 
Q 23.53125 6.390625 29.59375 6.390625 
Q 36.859375 6.390625 41.078125 11.03125 
Q 45.3125 15.671875 45.3125 23.6875 
L 45.3125 54.6875 
L 54.296875 54.6875 
L 54.296875 0 
L 45.3125 0 
L 45.3125 8.40625 
Q 42.046875 3.421875 37.71875 1 
Q 33.40625 -1.421875 27.6875 -1.421875 
Q 18.265625 -1.421875 13.375 4.4375 
Q 8.5 10.296875 8.5 21.578125 
z
M 31.109375 56 
z
" id="DejaVuSans-75"/>
     </defs>
     <g transform="translate(434.662656 56.654687)scale(0.1 -0.1)">
      <use xlink:href="#DejaVuSans-53"/>
      <use x="63.476562" xlink:href="#DejaVuSans-6f"/>
      <use x="124.658203" xlink:href="#DejaVuSans-75"/>
      <use x="188.037109" xlink:href="#DejaVuSans-74"/>
      <use x="227.246094" xlink:href="#DejaVuSans-68"/>
     </g>
    </g>
    <g id="patch_11">
     <path d="M 406.662656 71.332812 
L 426.662656 71.332812 
L 426.662656 64.332812 
L 406.662656 64.332812 
z
" style="fill:#d62728;"/>
    </g>
    <g id="text_25">
     <!-- West -->
     <defs>
      <path d="M 3.328125 72.90625 
L 13.28125 72.90625 
L 28.609375 11.28125 
L 43.890625 72.90625 
L 54.984375 72.90625 
L 70.3125 11.28125 
L 85.59375 72.90625 
L 95.609375 72.90625 
L 77.296875 0 
L 64.890625 0 
L 49.515625 63.28125 
L 33.984375 0 
L 21.578125 0 
z
" id="DejaVuSans-57"/>
     </defs>
     <g transform="translate(434.662656 71.332812)scale(0.1 -0.1)">
      <use xlink:href="#DejaVuSans-57"/>
      <use x="98.798828" xlink:href="#DejaVuSans-65"/>
      <use x="160.322266" xlink:href="#DejaVuSans-73"/>
      <use x="212.421875" xlink:href="#DejaVuSans-74"/>
     </g>
    </g>
   </g>
  </g>
 </g>
 <defs>
  <clipPath id="p170d680810">
   <rect height="559.19" width="798.68" x="46.0125" y="10.7"/>
  </clipPath>
 </defs>
</svg>
