<?xml version="1.0" encoding="utf-8" standalone="no"?>
<!DOCTYPE svg PUBLIC "-//W3C//DTD SVG 1.1//EN"
  "http://www.w3.org/Graphics/SVG/1.1/DTD/svg11.dtd">
<!-- Created with matplotlib (http://matplotlib.org/) -->
<svg height="648pt" version="1.1" viewBox="0 0 864 648" width="864pt" xmlns="http://www.w3.org/2000/svg" xmlns:xlink="http://www.w3.org/1999/xlink">
 <defs>
  <style type="text/css">
*{stroke-linecap:butt;stroke-linejoin:round;}
  </style>
 </defs>
 <g id="figure_1">
  <g id="patch_1">
   <path d="M 0 648 
L 864 648 
L 864 0 
L 0 0 
z
" style="fill:#ffffff;"/>
  </g>
  <g id="axes_1">
   <g id="patch_2">
    <path d="M 49.39 283.195 
L 438.335 283.195 
L 438.335 25.44 
L 49.39 25.44 
z
" style="fill:#ffffff;"/>
   </g>
   <g id="PolyCollection_1">
    <defs>
     <path d="M 49.39 -404.759484 
L 49.39 -364.805 
L 55.663306 -364.805 
L 61.936613 -364.805 
L 68.209919 -364.805 
L 74.483226 -364.805 
L 80.756532 -364.805 
L 87.029839 -364.805 
L 93.303145 -364.805 
L 99.576452 -364.805 
L 105.849758 -364.805 
L 112.123065 -364.805 
L 118.396371 -364.805 
L 124.669677 -364.805 
L 130.942984 -364.805 
L 137.21629 -364.805 
L 143.489597 -364.805 
L 149.762903 -364.805 
L 156.03621 -364.805 
L 162.309516 -364.805 
L 168.582823 -364.805 
L 174.856129 -364.805 
L 181.129435 -364.805 
L 187.402742 -364.805 
L 193.676048 -364.805 
L 199.949355 -364.805 
L 206.222661 -364.805 
L 212.495968 -364.805 
L 218.769274 -364.805 
L 225.042581 -364.805 
L 231.315887 -364.805 
L 237.589194 -364.805 
L 243.8625 -364.805 
L 250.135806 -364.805 
L 256.409113 -364.805 
L 262.682419 -364.805 
L 268.955726 -364.805 
L 275.229032 -364.805 
L 281.502339 -364.805 
L 287.775645 -364.805 
L 294.048952 -364.805 
L 300.322258 -364.805 
L 306.595565 -364.805 
L 312.868871 -364.805 
L 319.142177 -364.805 
L 325.415484 -364.805 
L 331.68879 -364.805 
L 337.962097 -364.805 
L 344.235403 -364.805 
L 350.50871 -364.805 
L 356.782016 -364.805 
L 363.055323 -364.805 
L 369.328629 -364.805 
L 375.601935 -364.805 
L 381.875242 -364.805 
L 388.148548 -364.805 
L 394.421855 -364.805 
L 400.695161 -364.805 
L 406.968468 -364.805 
L 413.241774 -364.805 
L 419.515081 -364.805 
L 425.788387 -364.805 
L 432.061694 -364.805 
L 438.335 -364.805 
L 438.335 -462.681443 
L 438.335 -462.681443 
L 432.061694 -462.242419 
L 425.788387 -461.729248 
L 419.515081 -461.411363 
L 413.241774 -460.711486 
L 406.968468 -460.272502 
L 400.695161 -459.756 
L 394.421855 -459.277332 
L 388.148548 -458.794997 
L 381.875242 -458.258435 
L 375.601935 -457.877215 
L 369.328629 -457.531311 
L 363.055323 -456.90603 
L 356.782016 -456.240363 
L 350.50871 -455.522105 
L 344.235403 -454.86805 
L 337.962097 -454.234998 
L 331.68879 -453.832135 
L 325.415484 -453.395961 
L 319.142177 -452.822107 
L 312.868871 -451.913406 
L 306.595565 -450.90762 
L 300.322258 -450.081813 
L 294.048952 -449.508374 
L 287.775645 -448.819473 
L 281.502339 -448.279041 
L 275.229032 -447.642261 
L 268.955726 -446.074955 
L 262.682419 -444.749506 
L 256.409113 -443.866527 
L 250.135806 -442.889783 
L 243.8625 -442.138979 
L 237.589194 -441.427176 
L 231.315887 -440.457512 
L 225.042581 -439.065369 
L 218.769274 -438.146651 
L 212.495968 -436.642647 
L 206.222661 -435.782463 
L 199.949355 -435.322928 
L 193.676048 -434.768916 
L 187.402742 -433.790981 
L 181.129435 -432.429571 
L 174.856129 -431.183299 
L 168.582823 -429.589031 
L 162.309516 -427.920291 
L 156.03621 -426.945121 
L 149.762903 -426.310572 
L 143.489597 -425.231933 
L 137.21629 -424.009674 
L 130.942984 -422.550697 
L 124.669677 -421.069622 
L 118.396371 -419.248434 
L 112.123065 -418.104538 
L 105.849758 -417.163306 
L 99.576452 -416.048371 
L 93.303145 -414.693348 
L 87.029839 -413.152779 
L 80.756532 -411.398828 
L 74.483226 -409.563093 
L 68.209919 -408.52053 
L 61.936613 -407.762698 
L 55.663306 -406.371289 
L 49.39 -404.759484 
z
" id="m554c3caa53" style="stroke:#1f77b4;"/>
    </defs>
    <g clip-path="url(#p36f18103ca)">
     <use style="fill:#1f77b4;stroke:#1f77b4;" x="0" xlink:href="#m554c3caa53" y="648"/>
    </g>
   </g>
   <g id="matplotlib.axis_1">
    <g id="xtick_1">
     <g id="line2d_1">
      <defs>
       <path d="M 0 0 
L 0 3.5 
" id="m54df4e32f2" style="stroke:#000000;stroke-width:0.8;"/>
      </defs>
      <g>
       <use style="stroke:#000000;stroke-width:0.8;" x="49.39" xlink:href="#m54df4e32f2" y="283.195"/>
      </g>
     </g>
    </g>
    <g id="xtick_2">
     <g id="line2d_2">
      <g>
       <use style="stroke:#000000;stroke-width:0.8;" x="84.748636" xlink:href="#m54df4e32f2" y="283.195"/>
      </g>
     </g>
    </g>
    <g id="xtick_3">
     <g id="line2d_3">
      <g>
       <use style="stroke:#000000;stroke-width:0.8;" x="120.107273" xlink:href="#m54df4e32f2" y="283.195"/>
      </g>
     </g>
    </g>
    <g id="xtick_4">
     <g id="line2d_4">
      <g>
       <use style="stroke:#000000;stroke-width:0.8;" x="155.465909" xlink:href="#m54df4e32f2" y="283.195"/>
      </g>
     </g>
    </g>
    <g id="xtick_5">
     <g id="line2d_5">
      <g>
       <use style="stroke:#000000;stroke-width:0.8;" x="190.824545" xlink:href="#m54df4e32f2" y="283.195"/>
      </g>
     </g>
    </g>
    <g id="xtick_6">
     <g id="line2d_6">
      <g>
       <use style="stroke:#000000;stroke-width:0.8;" x="226.183182" xlink:href="#m54df4e32f2" y="283.195"/>
      </g>
     </g>
    </g>
    <g id="xtick_7">
     <g id="line2d_7">
      <g>
       <use style="stroke:#000000;stroke-width:0.8;" x="261.541818" xlink:href="#m54df4e32f2" y="283.195"/>
      </g>
     </g>
    </g>
    <g id="xtick_8">
     <g id="line2d_8">
      <g>
       <use style="stroke:#000000;stroke-width:0.8;" x="296.900455" xlink:href="#m54df4e32f2" y="283.195"/>
      </g>
     </g>
    </g>
    <g id="xtick_9">
     <g id="line2d_9">
      <g>
       <use style="stroke:#000000;stroke-width:0.8;" x="332.259091" xlink:href="#m54df4e32f2" y="283.195"/>
      </g>
     </g>
    </g>
    <g id="xtick_10">
     <g id="line2d_10">
      <g>
       <use style="stroke:#000000;stroke-width:0.8;" x="367.617727" xlink:href="#m54df4e32f2" y="283.195"/>
      </g>
     </g>
    </g>
    <g id="xtick_11">
     <g id="line2d_11">
      <g>
       <use style="stroke:#000000;stroke-width:0.8;" x="402.976364" xlink:href="#m54df4e32f2" y="283.195"/>
      </g>
     </g>
    </g>
    <g id="xtick_12">
     <g id="line2d_12">
      <g>
       <use style="stroke:#000000;stroke-width:0.8;" x="438.335" xlink:href="#m54df4e32f2" y="283.195"/>
      </g>
     </g>
    </g>
   </g>
   <g id="matplotlib.axis_2">
    <g id="ytick_1">
     <g id="line2d_13">
      <defs>
       <path d="M 0 0 
L -3.5 0 
" id="m608e6b4842" style="stroke:#000000;stroke-width:0.8;"/>
      </defs>
      <g>
       <use style="stroke:#000000;stroke-width:0.8;" x="49.39" xlink:href="#m608e6b4842" y="283.195"/>
      </g>
     </g>
     <g id="text_1">
      <!-- 0 -->
      <defs>
       <path d="M 31.78125 66.40625 
Q 24.171875 66.40625 20.328125 58.90625 
Q 16.5 51.421875 16.5 36.375 
Q 16.5 21.390625 20.328125 13.890625 
Q 24.171875 6.390625 31.78125 6.390625 
Q 39.453125 6.390625 43.28125 13.890625 
Q 47.125 21.390625 47.125 36.375 
Q 47.125 51.421875 43.28125 58.90625 
Q 39.453125 66.40625 31.78125 66.40625 
z
M 31.78125 74.21875 
Q 44.046875 74.21875 50.515625 64.515625 
Q 56.984375 54.828125 56.984375 36.375 
Q 56.984375 17.96875 50.515625 8.265625 
Q 44.046875 -1.421875 31.78125 -1.421875 
Q 19.53125 -1.421875 13.0625 8.265625 
Q 6.59375 17.96875 6.59375 36.375 
Q 6.59375 54.828125 13.0625 64.515625 
Q 19.53125 74.21875 31.78125 74.21875 
z
" id="DejaVuSans-30"/>
      </defs>
      <g transform="translate(36.0275 286.994219)scale(0.1 -0.1)">
       <use xlink:href="#DejaVuSans-30"/>
      </g>
     </g>
    </g>
    <g id="ytick_2">
     <g id="line2d_14">
      <g>
       <use style="stroke:#000000;stroke-width:0.8;" x="49.39" xlink:href="#m608e6b4842" y="241.36634"/>
      </g>
     </g>
     <g id="text_2">
      <!-- 10000 -->
      <defs>
       <path d="M 12.40625 8.296875 
L 28.515625 8.296875 
L 28.515625 63.921875 
L 10.984375 60.40625 
L 10.984375 69.390625 
L 28.421875 72.90625 
L 38.28125 72.90625 
L 38.28125 8.296875 
L 54.390625 8.296875 
L 54.390625 0 
L 12.40625 0 
z
" id="DejaVuSans-31"/>
      </defs>
      <g transform="translate(10.5775 245.165558)scale(0.1 -0.1)">
       <use xlink:href="#DejaVuSans-31"/>
       <use x="63.623047" xlink:href="#DejaVuSans-30"/>
       <use x="127.246094" xlink:href="#DejaVuSans-30"/>
       <use x="190.869141" xlink:href="#DejaVuSans-30"/>
       <use x="254.492188" xlink:href="#DejaVuSans-30"/>
      </g>
     </g>
    </g>
    <g id="ytick_3">
     <g id="line2d_15">
      <g>
       <use style="stroke:#000000;stroke-width:0.8;" x="49.39" xlink:href="#m608e6b4842" y="199.537679"/>
      </g>
     </g>
     <g id="text_3">
      <!-- 20000 -->
      <defs>
       <path d="M 19.1875 8.296875 
L 53.609375 8.296875 
L 53.609375 0 
L 7.328125 0 
L 7.328125 8.296875 
Q 12.9375 14.109375 22.625 23.890625 
Q 32.328125 33.6875 34.8125 36.53125 
Q 39.546875 41.84375 41.421875 45.53125 
Q 43.3125 49.21875 43.3125 52.78125 
Q 43.3125 58.59375 39.234375 62.25 
Q 35.15625 65.921875 28.609375 65.921875 
Q 23.96875 65.921875 18.8125 64.3125 
Q 13.671875 62.703125 7.8125 59.421875 
L 7.8125 69.390625 
Q 13.765625 71.78125 18.9375 73 
Q 24.125 74.21875 28.421875 74.21875 
Q 39.75 74.21875 46.484375 68.546875 
Q 53.21875 62.890625 53.21875 53.421875 
Q 53.21875 48.921875 51.53125 44.890625 
Q 49.859375 40.875 45.40625 35.40625 
Q 44.1875 33.984375 37.640625 27.21875 
Q 31.109375 20.453125 19.1875 8.296875 
z
" id="DejaVuSans-32"/>
      </defs>
      <g transform="translate(10.5775 203.336898)scale(0.1 -0.1)">
       <use xlink:href="#DejaVuSans-32"/>
       <use x="63.623047" xlink:href="#DejaVuSans-30"/>
       <use x="127.246094" xlink:href="#DejaVuSans-30"/>
       <use x="190.869141" xlink:href="#DejaVuSans-30"/>
       <use x="254.492188" xlink:href="#DejaVuSans-30"/>
      </g>
     </g>
    </g>
    <g id="ytick_4">
     <g id="line2d_16">
      <g>
       <use style="stroke:#000000;stroke-width:0.8;" x="49.39" xlink:href="#m608e6b4842" y="157.709019"/>
      </g>
     </g>
     <g id="text_4">
      <!-- 30000 -->
      <defs>
       <path d="M 40.578125 39.3125 
Q 47.65625 37.796875 51.625 33 
Q 55.609375 28.21875 55.609375 21.1875 
Q 55.609375 10.40625 48.1875 4.484375 
Q 40.765625 -1.421875 27.09375 -1.421875 
Q 22.515625 -1.421875 17.65625 -0.515625 
Q 12.796875 0.390625 7.625 2.203125 
L 7.625 11.71875 
Q 11.71875 9.328125 16.59375 8.109375 
Q 21.484375 6.890625 26.8125 6.890625 
Q 36.078125 6.890625 40.9375 10.546875 
Q 45.796875 14.203125 45.796875 21.1875 
Q 45.796875 27.640625 41.28125 31.265625 
Q 36.765625 34.90625 28.71875 34.90625 
L 20.21875 34.90625 
L 20.21875 43.015625 
L 29.109375 43.015625 
Q 36.375 43.015625 40.234375 45.921875 
Q 44.09375 48.828125 44.09375 54.296875 
Q 44.09375 59.90625 40.109375 62.90625 
Q 36.140625 65.921875 28.71875 65.921875 
Q 24.65625 65.921875 20.015625 65.03125 
Q 15.375 64.15625 9.8125 62.3125 
L 9.8125 71.09375 
Q 15.4375 72.65625 20.34375 73.4375 
Q 25.25 74.21875 29.59375 74.21875 
Q 40.828125 74.21875 47.359375 69.109375 
Q 53.90625 64.015625 53.90625 55.328125 
Q 53.90625 49.265625 50.4375 45.09375 
Q 46.96875 40.921875 40.578125 39.3125 
z
" id="DejaVuSans-33"/>
      </defs>
      <g transform="translate(10.5775 161.508237)scale(0.1 -0.1)">
       <use xlink:href="#DejaVuSans-33"/>
       <use x="63.623047" xlink:href="#DejaVuSans-30"/>
       <use x="127.246094" xlink:href="#DejaVuSans-30"/>
       <use x="190.869141" xlink:href="#DejaVuSans-30"/>
       <use x="254.492188" xlink:href="#DejaVuSans-30"/>
      </g>
     </g>
    </g>
    <g id="ytick_5">
     <g id="line2d_17">
      <g>
       <use style="stroke:#000000;stroke-width:0.8;" x="49.39" xlink:href="#m608e6b4842" y="115.880358"/>
      </g>
     </g>
     <g id="text_5">
      <!-- 40000 -->
      <defs>
       <path d="M 37.796875 64.3125 
L 12.890625 25.390625 
L 37.796875 25.390625 
z
M 35.203125 72.90625 
L 47.609375 72.90625 
L 47.609375 25.390625 
L 58.015625 25.390625 
L 58.015625 17.1875 
L 47.609375 17.1875 
L 47.609375 0 
L 37.796875 0 
L 37.796875 17.1875 
L 4.890625 17.1875 
L 4.890625 26.703125 
z
" id="DejaVuSans-34"/>
      </defs>
      <g transform="translate(10.5775 119.679577)scale(0.1 -0.1)">
       <use xlink:href="#DejaVuSans-34"/>
       <use x="63.623047" xlink:href="#DejaVuSans-30"/>
       <use x="127.246094" xlink:href="#DejaVuSans-30"/>
       <use x="190.869141" xlink:href="#DejaVuSans-30"/>
       <use x="254.492188" xlink:href="#DejaVuSans-30"/>
      </g>
     </g>
    </g>
    <g id="ytick_6">
     <g id="line2d_18">
      <g>
       <use style="stroke:#000000;stroke-width:0.8;" x="49.39" xlink:href="#m608e6b4842" y="74.051698"/>
      </g>
     </g>
     <g id="text_6">
      <!-- 50000 -->
      <defs>
       <path d="M 10.796875 72.90625 
L 49.515625 72.90625 
L 49.515625 64.59375 
L 19.828125 64.59375 
L 19.828125 46.734375 
Q 21.96875 47.46875 24.109375 47.828125 
Q 26.265625 48.1875 28.421875 48.1875 
Q 40.625 48.1875 47.75 41.5 
Q 54.890625 34.8125 54.890625 23.390625 
Q 54.890625 11.625 47.5625 5.09375 
Q 40.234375 -1.421875 26.90625 -1.421875 
Q 22.3125 -1.421875 17.546875 -0.640625 
Q 12.796875 0.140625 7.71875 1.703125 
L 7.71875 11.625 
Q 12.109375 9.234375 16.796875 8.0625 
Q 21.484375 6.890625 26.703125 6.890625 
Q 35.15625 6.890625 40.078125 11.328125 
Q 45.015625 15.765625 45.015625 23.390625 
Q 45.015625 31 40.078125 35.4375 
Q 35.15625 39.890625 26.703125 39.890625 
Q 22.75 39.890625 18.8125 39.015625 
Q 14.890625 38.140625 10.796875 36.28125 
z
" id="DejaVuSans-35"/>
      </defs>
      <g transform="translate(10.5775 77.850916)scale(0.1 -0.1)">
       <use xlink:href="#DejaVuSans-35"/>
       <use x="63.623047" xlink:href="#DejaVuSans-30"/>
       <use x="127.246094" xlink:href="#DejaVuSans-30"/>
       <use x="190.869141" xlink:href="#DejaVuSans-30"/>
       <use x="254.492188" xlink:href="#DejaVuSans-30"/>
      </g>
     </g>
    </g>
    <g id="ytick_7">
     <g id="line2d_19">
      <g>
       <use style="stroke:#000000;stroke-width:0.8;" x="49.39" xlink:href="#m608e6b4842" y="32.223037"/>
      </g>
     </g>
     <g id="text_7">
      <!-- 60000 -->
      <defs>
       <path d="M 33.015625 40.375 
Q 26.375 40.375 22.484375 35.828125 
Q 18.609375 31.296875 18.609375 23.390625 
Q 18.609375 15.53125 22.484375 10.953125 
Q 26.375 6.390625 33.015625 6.390625 
Q 39.65625 6.390625 43.53125 10.953125 
Q 47.40625 15.53125 47.40625 23.390625 
Q 47.40625 31.296875 43.53125 35.828125 
Q 39.65625 40.375 33.015625 40.375 
z
M 52.59375 71.296875 
L 52.59375 62.3125 
Q 48.875 64.0625 45.09375 64.984375 
Q 41.3125 65.921875 37.59375 65.921875 
Q 27.828125 65.921875 22.671875 59.328125 
Q 17.53125 52.734375 16.796875 39.40625 
Q 19.671875 43.65625 24.015625 45.921875 
Q 28.375 48.1875 33.59375 48.1875 
Q 44.578125 48.1875 50.953125 41.515625 
Q 57.328125 34.859375 57.328125 23.390625 
Q 57.328125 12.15625 50.6875 5.359375 
Q 44.046875 -1.421875 33.015625 -1.421875 
Q 20.359375 -1.421875 13.671875 8.265625 
Q 6.984375 17.96875 6.984375 36.375 
Q 6.984375 53.65625 15.1875 63.9375 
Q 23.390625 74.21875 37.203125 74.21875 
Q 40.921875 74.21875 44.703125 73.484375 
Q 48.484375 72.75 52.59375 71.296875 
z
" id="DejaVuSans-36"/>
      </defs>
      <g transform="translate(10.5775 36.022256)scale(0.1 -0.1)">
       <use xlink:href="#DejaVuSans-36"/>
       <use x="63.623047" xlink:href="#DejaVuSans-30"/>
       <use x="127.246094" xlink:href="#DejaVuSans-30"/>
       <use x="190.869141" xlink:href="#DejaVuSans-30"/>
       <use x="254.492188" xlink:href="#DejaVuSans-30"/>
      </g>
     </g>
    </g>
   </g>
   <g id="line2d_20">
    <path clip-path="url(#p36f18103ca)" d="M 49.39 243.240516 
L 55.663306 241.628711 
L 61.936613 240.237302 
L 68.209919 239.47947 
L 74.483226 238.436907 
L 80.756532 236.601172 
L 87.029839 234.847221 
L 93.303145 233.306652 
L 99.576452 231.951629 
L 105.849758 230.836694 
L 112.123065 229.895462 
L 118.396371 228.751566 
L 124.669677 226.930378 
L 130.942984 225.449303 
L 137.21629 223.990326 
L 143.489597 222.768067 
L 149.762903 221.689428 
L 156.03621 221.054879 
L 162.309516 220.079709 
L 168.582823 218.410969 
L 174.856129 216.816701 
L 181.129435 215.570429 
L 187.402742 214.209019 
L 193.676048 213.231084 
L 199.949355 212.677072 
L 206.222661 212.217537 
L 212.495968 211.357353 
L 218.769274 209.853349 
L 225.042581 208.934631 
L 231.315887 207.542488 
L 237.589194 206.572824 
L 243.8625 205.861021 
L 250.135806 205.110217 
L 256.409113 204.133473 
L 262.682419 203.250494 
L 268.955726 201.925045 
L 275.229032 200.357739 
L 281.502339 199.720959 
L 287.775645 199.180527 
L 294.048952 198.491626 
L 300.322258 197.918187 
L 306.595565 197.09238 
L 312.868871 196.086594 
L 319.142177 195.177893 
L 325.415484 194.604039 
L 331.68879 194.167865 
L 337.962097 193.765002 
L 344.235403 193.13195 
L 350.50871 192.477895 
L 356.782016 191.759637 
L 363.055323 191.09397 
L 369.328629 190.468689 
L 375.601935 190.122785 
L 381.875242 189.741565 
L 388.148548 189.205003 
L 394.421855 188.722668 
L 400.695161 188.244 
L 406.968468 187.727498 
L 413.241774 187.288514 
L 419.515081 186.588637 
L 425.788387 186.270752 
L 432.061694 185.757581 
L 438.335 185.318557 
" style="fill:none;stroke:#1f77b4;stroke-linecap:square;stroke-width:1.5;"/>
   </g>
   <g id="patch_3">
    <path d="M 49.39 283.195 
L 49.39 25.44 
" style="fill:none;stroke:#000000;stroke-linecap:square;stroke-linejoin:miter;stroke-width:0.8;"/>
   </g>
   <g id="patch_4">
    <path d="M 438.335 283.195 
L 438.335 25.44 
" style="fill:none;stroke:#000000;stroke-linecap:square;stroke-linejoin:miter;stroke-width:0.8;"/>
   </g>
   <g id="patch_5">
    <path d="M 49.39 283.195 
L 438.335 283.195 
" style="fill:none;stroke:#000000;stroke-linecap:square;stroke-linejoin:miter;stroke-width:0.8;"/>
   </g>
   <g id="patch_6">
    <path d="M 49.39 25.44 
L 438.335 25.44 
" style="fill:none;stroke:#000000;stroke-linecap:square;stroke-linejoin:miter;stroke-width:0.8;"/>
   </g>
   <g id="text_8">
    <!-- Midwest -->
    <defs>
     <path d="M 9.8125 72.90625 
L 24.515625 72.90625 
L 43.109375 23.296875 
L 61.8125 72.90625 
L 76.515625 72.90625 
L 76.515625 0 
L 66.890625 0 
L 66.890625 64.015625 
L 48.09375 14.015625 
L 38.1875 14.015625 
L 19.390625 64.015625 
L 19.390625 0 
L 9.8125 0 
z
" id="DejaVuSans-4d"/>
     <path d="M 9.421875 54.6875 
L 18.40625 54.6875 
L 18.40625 0 
L 9.421875 0 
z
M 9.421875 75.984375 
L 18.40625 75.984375 
L 18.40625 64.59375 
L 9.421875 64.59375 
z
" id="DejaVuSans-69"/>
     <path d="M 45.40625 46.390625 
L 45.40625 75.984375 
L 54.390625 75.984375 
L 54.390625 0 
L 45.40625 0 
L 45.40625 8.203125 
Q 42.578125 3.328125 38.25 0.953125 
Q 33.9375 -1.421875 27.875 -1.421875 
Q 17.96875 -1.421875 11.734375 6.484375 
Q 5.515625 14.40625 5.515625 27.296875 
Q 5.515625 40.1875 11.734375 48.09375 
Q 17.96875 56 27.875 56 
Q 33.9375 56 38.25 53.625 
Q 42.578125 51.265625 45.40625 46.390625 
z
M 14.796875 27.296875 
Q 14.796875 17.390625 18.875 11.75 
Q 22.953125 6.109375 30.078125 6.109375 
Q 37.203125 6.109375 41.296875 11.75 
Q 45.40625 17.390625 45.40625 27.296875 
Q 45.40625 37.203125 41.296875 42.84375 
Q 37.203125 48.484375 30.078125 48.484375 
Q 22.953125 48.484375 18.875 42.84375 
Q 14.796875 37.203125 14.796875 27.296875 
z
" id="DejaVuSans-64"/>
     <path d="M 4.203125 54.6875 
L 13.1875 54.6875 
L 24.421875 12.015625 
L 35.59375 54.6875 
L 46.1875 54.6875 
L 57.421875 12.015625 
L 68.609375 54.6875 
L 77.59375 54.6875 
L 63.28125 0 
L 52.6875 0 
L 40.921875 44.828125 
L 29.109375 0 
L 18.5 0 
z
" id="DejaVuSans-77"/>
     <path d="M 56.203125 29.59375 
L 56.203125 25.203125 
L 14.890625 25.203125 
Q 15.484375 15.921875 20.484375 11.0625 
Q 25.484375 6.203125 34.421875 6.203125 
Q 39.59375 6.203125 44.453125 7.46875 
Q 49.3125 8.734375 54.109375 11.28125 
L 54.109375 2.78125 
Q 49.265625 0.734375 44.1875 -0.34375 
Q 39.109375 -1.421875 33.890625 -1.421875 
Q 20.796875 -1.421875 13.15625 6.1875 
Q 5.515625 13.8125 5.515625 26.8125 
Q 5.515625 40.234375 12.765625 48.109375 
Q 20.015625 56 32.328125 56 
Q 43.359375 56 49.78125 48.890625 
Q 56.203125 41.796875 56.203125 29.59375 
z
M 47.21875 32.234375 
Q 47.125 39.59375 43.09375 43.984375 
Q 39.0625 48.390625 32.421875 48.390625 
Q 24.90625 48.390625 20.390625 44.140625 
Q 15.875 39.890625 15.1875 32.171875 
z
" id="DejaVuSans-65"/>
     <path d="M 44.28125 53.078125 
L 44.28125 44.578125 
Q 40.484375 46.53125 36.375 47.5 
Q 32.28125 48.484375 27.875 48.484375 
Q 21.1875 48.484375 17.84375 46.4375 
Q 14.5 44.390625 14.5 40.28125 
Q 14.5 37.15625 16.890625 35.375 
Q 19.28125 33.59375 26.515625 31.984375 
L 29.59375 31.296875 
Q 39.15625 29.25 43.1875 25.515625 
Q 47.21875 21.78125 47.21875 15.09375 
Q 47.21875 7.46875 41.1875 3.015625 
Q 35.15625 -1.421875 24.609375 -1.421875 
Q 20.21875 -1.421875 15.453125 -0.5625 
Q 10.6875 0.296875 5.421875 2 
L 5.421875 11.28125 
Q 10.40625 8.6875 15.234375 7.390625 
Q 20.0625 6.109375 24.8125 6.109375 
Q 31.15625 6.109375 34.5625 8.28125 
Q 37.984375 10.453125 37.984375 14.40625 
Q 37.984375 18.0625 35.515625 20.015625 
Q 33.0625 21.96875 24.703125 23.78125 
L 21.578125 24.515625 
Q 13.234375 26.265625 9.515625 29.90625 
Q 5.8125 33.546875 5.8125 39.890625 
Q 5.8125 47.609375 11.28125 51.796875 
Q 16.75 56 26.8125 56 
Q 31.78125 56 36.171875 55.265625 
Q 40.578125 54.546875 44.28125 53.078125 
z
" id="DejaVuSans-73"/>
     <path d="M 18.3125 70.21875 
L 18.3125 54.6875 
L 36.8125 54.6875 
L 36.8125 47.703125 
L 18.3125 47.703125 
L 18.3125 18.015625 
Q 18.3125 11.328125 20.140625 9.421875 
Q 21.96875 7.515625 27.59375 7.515625 
L 36.8125 7.515625 
L 36.8125 0 
L 27.59375 0 
Q 17.1875 0 13.234375 3.875 
Q 9.28125 7.765625 9.28125 18.015625 
L 9.28125 47.703125 
L 2.6875 47.703125 
L 2.6875 54.6875 
L 9.28125 54.6875 
L 9.28125 70.21875 
z
" id="DejaVuSans-74"/>
    </defs>
    <g transform="translate(219.133125 19.44)scale(0.12 -0.12)">
     <use xlink:href="#DejaVuSans-4d"/>
     <use x="86.279297" xlink:href="#DejaVuSans-69"/>
     <use x="114.0625" xlink:href="#DejaVuSans-64"/>
     <use x="177.539062" xlink:href="#DejaVuSans-77"/>
     <use x="259.326172" xlink:href="#DejaVuSans-65"/>
     <use x="320.849609" xlink:href="#DejaVuSans-73"/>
     <use x="372.949219" xlink:href="#DejaVuSans-74"/>
    </g>
   </g>
  </g>
  <g id="axes_2">
   <g id="patch_7">
    <path d="M 459.215 283.195 
L 848.16 283.195 
L 848.16 25.44 
L 459.215 25.44 
z
" style="fill:#ffffff;"/>
   </g>
   <g id="PolyCollection_2">
    <defs>
     <path d="M 459.215 -508.550126 
L 459.215 -364.805 
L 465.488306 -364.805 
L 471.761613 -364.805 
L 478.034919 -364.805 
L 484.308226 -364.805 
L 490.581532 -364.805 
L 496.854839 -364.805 
L 503.128145 -364.805 
L 509.401452 -364.805 
L 515.674758 -364.805 
L 521.948065 -364.805 
L 528.221371 -364.805 
L 534.494677 -364.805 
L 540.767984 -364.805 
L 547.04129 -364.805 
L 553.314597 -364.805 
L 559.587903 -364.805 
L 565.86121 -364.805 
L 572.134516 -364.805 
L 578.407823 -364.805 
L 584.681129 -364.805 
L 590.954435 -364.805 
L 597.227742 -364.805 
L 603.501048 -364.805 
L 609.774355 -364.805 
L 616.047661 -364.805 
L 622.320968 -364.805 
L 628.594274 -364.805 
L 634.867581 -364.805 
L 641.140887 -364.805 
L 647.414194 -364.805 
L 653.6875 -364.805 
L 659.960806 -364.805 
L 666.234113 -364.805 
L 672.507419 -364.805 
L 678.780726 -364.805 
L 685.054032 -364.805 
L 691.327339 -364.805 
L 697.600645 -364.805 
L 703.873952 -364.805 
L 710.147258 -364.805 
L 716.420565 -364.805 
L 722.693871 -364.805 
L 728.967177 -364.805 
L 735.240484 -364.805 
L 741.51379 -364.805 
L 747.787097 -364.805 
L 754.060403 -364.805 
L 760.33371 -364.805 
L 766.607016 -364.805 
L 772.880323 -364.805 
L 779.153629 -364.805 
L 785.426935 -364.805 
L 791.700242 -364.805 
L 797.973548 -364.805 
L 804.246855 -364.805 
L 810.520161 -364.805 
L 816.793468 -364.805 
L 823.066774 -364.805 
L 829.340081 -364.805 
L 835.613387 -364.805 
L 841.886694 -364.805 
L 848.16 -364.805 
L 848.16 -610.285952 
L 848.16 -610.285952 
L 841.886694 -609.946257 
L 835.613387 -609.547777 
L 829.340081 -609.186303 
L 823.066774 -608.782601 
L 816.793468 -608.376083 
L 810.520161 -607.651782 
L 804.246855 -607.095303 
L 797.973548 -606.414306 
L 791.700242 -605.955992 
L 785.426935 -605.468211 
L 779.153629 -605.174665 
L 772.880323 -604.635776 
L 766.607016 -603.975333 
L 760.33371 -603.304584 
L 754.060403 -602.49702 
L 747.787097 -601.900649 
L 741.51379 -601.318736 
L 735.240484 -600.626583 
L 728.967177 -599.730053 
L 722.693871 -598.606053 
L 716.420565 -597.663639 
L 710.147258 -596.623621 
L 703.873952 -595.617956 
L 697.600645 -594.684004 
L 691.327339 -593.784505 
L 685.054032 -593.073395 
L 678.780726 -591.888325 
L 672.507419 -590.604665 
L 666.234113 -589.357473 
L 659.960806 -588.108438 
L 653.6875 -586.67169 
L 647.414194 -585.565656 
L 641.140887 -584.045705 
L 634.867581 -582.100875 
L 628.594274 -580.780969 
L 622.320968 -579.068064 
L 616.047661 -577.890644 
L 609.774355 -576.859605 
L 603.501048 -575.770634 
L 597.227742 -573.630376 
L 590.954435 -571.718188 
L 584.681129 -569.865392 
L 578.407823 -567.457942 
L 572.134516 -565.061838 
L 565.86121 -563.514634 
L 559.587903 -561.74439 
L 553.314597 -559.369046 
L 547.04129 -556.950217 
L 540.767984 -553.094002 
L 534.494677 -549.732949 
L 528.221371 -546.986504 
L 521.948065 -545.1974 
L 515.674758 -543.225952 
L 509.401452 -540.414507 
L 503.128145 -537.332877 
L 496.854839 -533.320677 
L 490.581532 -526.722004 
L 484.308226 -521.999822 
L 478.034919 -517.480871 
L 471.761613 -515.40498 
L 465.488306 -511.867793 
L 459.215 -508.550126 
z
" id="m6f9fc4c422" style="stroke:#ff7f0e;"/>
    </defs>
    <g clip-path="url(#pa22d2b93b3)">
     <use style="fill:#ff7f0e;stroke:#ff7f0e;" x="0" xlink:href="#m6f9fc4c422" y="648"/>
    </g>
   </g>
   <g id="matplotlib.axis_3">
    <g id="xtick_13">
     <g id="line2d_21">
      <g>
       <use style="stroke:#000000;stroke-width:0.8;" x="459.215" xlink:href="#m54df4e32f2" y="283.195"/>
      </g>
     </g>
    </g>
    <g id="xtick_14">
     <g id="line2d_22">
      <g>
       <use style="stroke:#000000;stroke-width:0.8;" x="494.573636" xlink:href="#m54df4e32f2" y="283.195"/>
      </g>
     </g>
    </g>
    <g id="xtick_15">
     <g id="line2d_23">
      <g>
       <use style="stroke:#000000;stroke-width:0.8;" x="529.932273" xlink:href="#m54df4e32f2" y="283.195"/>
      </g>
     </g>
    </g>
    <g id="xtick_16">
     <g id="line2d_24">
      <g>
       <use style="stroke:#000000;stroke-width:0.8;" x="565.290909" xlink:href="#m54df4e32f2" y="283.195"/>
      </g>
     </g>
    </g>
    <g id="xtick_17">
     <g id="line2d_25">
      <g>
       <use style="stroke:#000000;stroke-width:0.8;" x="600.649545" xlink:href="#m54df4e32f2" y="283.195"/>
      </g>
     </g>
    </g>
    <g id="xtick_18">
     <g id="line2d_26">
      <g>
       <use style="stroke:#000000;stroke-width:0.8;" x="636.008182" xlink:href="#m54df4e32f2" y="283.195"/>
      </g>
     </g>
    </g>
    <g id="xtick_19">
     <g id="line2d_27">
      <g>
       <use style="stroke:#000000;stroke-width:0.8;" x="671.366818" xlink:href="#m54df4e32f2" y="283.195"/>
      </g>
     </g>
    </g>
    <g id="xtick_20">
     <g id="line2d_28">
      <g>
       <use style="stroke:#000000;stroke-width:0.8;" x="706.725455" xlink:href="#m54df4e32f2" y="283.195"/>
      </g>
     </g>
    </g>
    <g id="xtick_21">
     <g id="line2d_29">
      <g>
       <use style="stroke:#000000;stroke-width:0.8;" x="742.084091" xlink:href="#m54df4e32f2" y="283.195"/>
      </g>
     </g>
    </g>
    <g id="xtick_22">
     <g id="line2d_30">
      <g>
       <use style="stroke:#000000;stroke-width:0.8;" x="777.442727" xlink:href="#m54df4e32f2" y="283.195"/>
      </g>
     </g>
    </g>
    <g id="xtick_23">
     <g id="line2d_31">
      <g>
       <use style="stroke:#000000;stroke-width:0.8;" x="812.801364" xlink:href="#m54df4e32f2" y="283.195"/>
      </g>
     </g>
    </g>
    <g id="xtick_24">
     <g id="line2d_32">
      <g>
       <use style="stroke:#000000;stroke-width:0.8;" x="848.16" xlink:href="#m54df4e32f2" y="283.195"/>
      </g>
     </g>
    </g>
   </g>
   <g id="matplotlib.axis_4">
    <g id="ytick_8">
     <g id="line2d_33">
      <g>
       <use style="stroke:#000000;stroke-width:0.8;" x="459.215" xlink:href="#m608e6b4842" y="283.195"/>
      </g>
     </g>
    </g>
    <g id="ytick_9">
     <g id="line2d_34">
      <g>
       <use style="stroke:#000000;stroke-width:0.8;" x="459.215" xlink:href="#m608e6b4842" y="241.36634"/>
      </g>
     </g>
    </g>
    <g id="ytick_10">
     <g id="line2d_35">
      <g>
       <use style="stroke:#000000;stroke-width:0.8;" x="459.215" xlink:href="#m608e6b4842" y="199.537679"/>
      </g>
     </g>
    </g>
    <g id="ytick_11">
     <g id="line2d_36">
      <g>
       <use style="stroke:#000000;stroke-width:0.8;" x="459.215" xlink:href="#m608e6b4842" y="157.709019"/>
      </g>
     </g>
    </g>
    <g id="ytick_12">
     <g id="line2d_37">
      <g>
       <use style="stroke:#000000;stroke-width:0.8;" x="459.215" xlink:href="#m608e6b4842" y="115.880358"/>
      </g>
     </g>
    </g>
    <g id="ytick_13">
     <g id="line2d_38">
      <g>
       <use style="stroke:#000000;stroke-width:0.8;" x="459.215" xlink:href="#m608e6b4842" y="74.051698"/>
      </g>
     </g>
    </g>
    <g id="ytick_14">
     <g id="line2d_39">
      <g>
       <use style="stroke:#000000;stroke-width:0.8;" x="459.215" xlink:href="#m608e6b4842" y="32.223037"/>
      </g>
     </g>
    </g>
   </g>
   <g id="line2d_40">
    <path clip-path="url(#pa22d2b93b3)" d="M 459.215 139.449874 
L 465.488306 136.132207 
L 471.761613 132.59502 
L 478.034919 130.519129 
L 484.308226 126.000178 
L 490.581532 121.277996 
L 496.854839 114.679323 
L 503.128145 110.667123 
L 509.401452 107.585493 
L 515.674758 104.774048 
L 521.948065 102.8026 
L 528.221371 101.013496 
L 534.494677 98.267051 
L 540.767984 94.905998 
L 547.04129 91.049783 
L 553.314597 88.630954 
L 559.587903 86.25561 
L 565.86121 84.485366 
L 572.134516 82.938162 
L 578.407823 80.542058 
L 584.681129 78.134608 
L 590.954435 76.281812 
L 597.227742 74.369624 
L 603.501048 72.229366 
L 609.774355 71.140395 
L 616.047661 70.109356 
L 622.320968 68.931936 
L 628.594274 67.219031 
L 634.867581 65.899125 
L 641.140887 63.954295 
L 647.414194 62.434344 
L 653.6875 61.32831 
L 659.960806 59.891562 
L 666.234113 58.642527 
L 672.507419 57.395335 
L 678.780726 56.111675 
L 685.054032 54.926605 
L 691.327339 54.215495 
L 697.600645 53.315996 
L 703.873952 52.382044 
L 710.147258 51.376379 
L 716.420565 50.336361 
L 722.693871 49.393947 
L 728.967177 48.269947 
L 735.240484 47.373417 
L 741.51379 46.681264 
L 747.787097 46.099351 
L 754.060403 45.50298 
L 760.33371 44.695416 
L 766.607016 44.024667 
L 772.880323 43.364224 
L 779.153629 42.825335 
L 785.426935 42.531789 
L 791.700242 42.044008 
L 797.973548 41.585694 
L 804.246855 40.904697 
L 810.520161 40.348218 
L 816.793468 39.623917 
L 823.066774 39.217399 
L 829.340081 38.813697 
L 835.613387 38.452223 
L 841.886694 38.053743 
L 848.16 37.714048 
" style="fill:none;stroke:#ff7f0e;stroke-linecap:square;stroke-width:1.5;"/>
   </g>
   <g id="patch_8">
    <path d="M 459.215 283.195 
L 459.215 25.44 
" style="fill:none;stroke:#000000;stroke-linecap:square;stroke-linejoin:miter;stroke-width:0.8;"/>
   </g>
   <g id="patch_9">
    <path d="M 848.16 283.195 
L 848.16 25.44 
" style="fill:none;stroke:#000000;stroke-linecap:square;stroke-linejoin:miter;stroke-width:0.8;"/>
   </g>
   <g id="patch_10">
    <path d="M 459.215 283.195 
L 848.16 283.195 
" style="fill:none;stroke:#000000;stroke-linecap:square;stroke-linejoin:miter;stroke-width:0.8;"/>
   </g>
   <g id="patch_11">
    <path d="M 459.215 25.44 
L 848.16 25.44 
" style="fill:none;stroke:#000000;stroke-linecap:square;stroke-linejoin:miter;stroke-width:0.8;"/>
   </g>
   <g id="text_9">
    <!-- Northeast -->
    <defs>
     <path d="M 9.8125 72.90625 
L 23.09375 72.90625 
L 55.421875 11.921875 
L 55.421875 72.90625 
L 64.984375 72.90625 
L 64.984375 0 
L 51.703125 0 
L 19.390625 60.984375 
L 19.390625 0 
L 9.8125 0 
z
" id="DejaVuSans-4e"/>
     <path d="M 30.609375 48.390625 
Q 23.390625 48.390625 19.1875 42.75 
Q 14.984375 37.109375 14.984375 27.296875 
Q 14.984375 17.484375 19.15625 11.84375 
Q 23.34375 6.203125 30.609375 6.203125 
Q 37.796875 6.203125 41.984375 11.859375 
Q 46.1875 17.53125 46.1875 27.296875 
Q 46.1875 37.015625 41.984375 42.703125 
Q 37.796875 48.390625 30.609375 48.390625 
z
M 30.609375 56 
Q 42.328125 56 49.015625 48.375 
Q 55.71875 40.765625 55.71875 27.296875 
Q 55.71875 13.875 49.015625 6.21875 
Q 42.328125 -1.421875 30.609375 -1.421875 
Q 18.84375 -1.421875 12.171875 6.21875 
Q 5.515625 13.875 5.515625 27.296875 
Q 5.515625 40.765625 12.171875 48.375 
Q 18.84375 56 30.609375 56 
z
" id="DejaVuSans-6f"/>
     <path d="M 41.109375 46.296875 
Q 39.59375 47.171875 37.8125 47.578125 
Q 36.03125 48 33.890625 48 
Q 26.265625 48 22.1875 43.046875 
Q 18.109375 38.09375 18.109375 28.8125 
L 18.109375 0 
L 9.078125 0 
L 9.078125 54.6875 
L 18.109375 54.6875 
L 18.109375 46.1875 
Q 20.953125 51.171875 25.484375 53.578125 
Q 30.03125 56 36.53125 56 
Q 37.453125 56 38.578125 55.875 
Q 39.703125 55.765625 41.0625 55.515625 
z
" id="DejaVuSans-72"/>
     <path d="M 54.890625 33.015625 
L 54.890625 0 
L 45.90625 0 
L 45.90625 32.71875 
Q 45.90625 40.484375 42.875 44.328125 
Q 39.84375 48.1875 33.796875 48.1875 
Q 26.515625 48.1875 22.3125 43.546875 
Q 18.109375 38.921875 18.109375 30.90625 
L 18.109375 0 
L 9.078125 0 
L 9.078125 75.984375 
L 18.109375 75.984375 
L 18.109375 46.1875 
Q 21.34375 51.125 25.703125 53.5625 
Q 30.078125 56 35.796875 56 
Q 45.21875 56 50.046875 50.171875 
Q 54.890625 44.34375 54.890625 33.015625 
z
" id="DejaVuSans-68"/>
     <path d="M 34.28125 27.484375 
Q 23.390625 27.484375 19.1875 25 
Q 14.984375 22.515625 14.984375 16.5 
Q 14.984375 11.71875 18.140625 8.90625 
Q 21.296875 6.109375 26.703125 6.109375 
Q 34.1875 6.109375 38.703125 11.40625 
Q 43.21875 16.703125 43.21875 25.484375 
L 43.21875 27.484375 
z
M 52.203125 31.203125 
L 52.203125 0 
L 43.21875 0 
L 43.21875 8.296875 
Q 40.140625 3.328125 35.546875 0.953125 
Q 30.953125 -1.421875 24.3125 -1.421875 
Q 15.921875 -1.421875 10.953125 3.296875 
Q 6 8.015625 6 15.921875 
Q 6 25.140625 12.171875 29.828125 
Q 18.359375 34.515625 30.609375 34.515625 
L 43.21875 34.515625 
L 43.21875 35.40625 
Q 43.21875 41.609375 39.140625 45 
Q 35.0625 48.390625 27.6875 48.390625 
Q 23 48.390625 18.546875 47.265625 
Q 14.109375 46.140625 10.015625 43.890625 
L 10.015625 52.203125 
Q 14.9375 54.109375 19.578125 55.046875 
Q 24.21875 56 28.609375 56 
Q 40.484375 56 46.34375 49.84375 
Q 52.203125 43.703125 52.203125 31.203125 
z
" id="DejaVuSans-61"/>
    </defs>
    <g transform="translate(624.059688 19.44)scale(0.12 -0.12)">
     <use xlink:href="#DejaVuSans-4e"/>
     <use x="74.804688" xlink:href="#DejaVuSans-6f"/>
     <use x="135.986328" xlink:href="#DejaVuSans-72"/>
     <use x="177.099609" xlink:href="#DejaVuSans-74"/>
     <use x="216.308594" xlink:href="#DejaVuSans-68"/>
     <use x="279.6875" xlink:href="#DejaVuSans-65"/>
     <use x="341.210938" xlink:href="#DejaVuSans-61"/>
     <use x="402.490234" xlink:href="#DejaVuSans-73"/>
     <use x="454.589844" xlink:href="#DejaVuSans-74"/>
    </g>
   </g>
  </g>
  <g id="axes_3">
   <g id="patch_12">
    <path d="M 49.39 572.51 
L 438.335 572.51 
L 438.335 314.755 
L 49.39 314.755 
z
" style="fill:#ffffff;"/>
   </g>
   <g id="PolyCollection_3">
    <defs>
     <path d="M 49.39 -113.694015 
L 49.39 -75.49 
L 55.663306 -75.49 
L 61.936613 -75.49 
L 68.209919 -75.49 
L 74.483226 -75.49 
L 80.756532 -75.49 
L 87.029839 -75.49 
L 93.303145 -75.49 
L 99.576452 -75.49 
L 105.849758 -75.49 
L 112.123065 -75.49 
L 118.396371 -75.49 
L 124.669677 -75.49 
L 130.942984 -75.49 
L 137.21629 -75.49 
L 143.489597 -75.49 
L 149.762903 -75.49 
L 156.03621 -75.49 
L 162.309516 -75.49 
L 168.582823 -75.49 
L 174.856129 -75.49 
L 181.129435 -75.49 
L 187.402742 -75.49 
L 193.676048 -75.49 
L 199.949355 -75.49 
L 206.222661 -75.49 
L 212.495968 -75.49 
L 218.769274 -75.49 
L 225.042581 -75.49 
L 231.315887 -75.49 
L 237.589194 -75.49 
L 243.8625 -75.49 
L 250.135806 -75.49 
L 256.409113 -75.49 
L 262.682419 -75.49 
L 268.955726 -75.49 
L 275.229032 -75.49 
L 281.502339 -75.49 
L 287.775645 -75.49 
L 294.048952 -75.49 
L 300.322258 -75.49 
L 306.595565 -75.49 
L 312.868871 -75.49 
L 319.142177 -75.49 
L 325.415484 -75.49 
L 331.68879 -75.49 
L 337.962097 -75.49 
L 344.235403 -75.49 
L 350.50871 -75.49 
L 356.782016 -75.49 
L 363.055323 -75.49 
L 369.328629 -75.49 
L 375.601935 -75.49 
L 381.875242 -75.49 
L 388.148548 -75.49 
L 394.421855 -75.49 
L 400.695161 -75.49 
L 406.968468 -75.49 
L 413.241774 -75.49 
L 419.515081 -75.49 
L 425.788387 -75.49 
L 432.061694 -75.49 
L 438.335 -75.49 
L 438.335 -176.595748 
L 438.335 -176.595748 
L 432.061694 -175.41651 
L 425.788387 -174.388095 
L 419.515081 -173.84022 
L 413.241774 -173.251912 
L 406.968468 -172.59494 
L 400.695161 -171.646747 
L 394.421855 -170.633418 
L 388.148548 -169.683336 
L 381.875242 -168.670933 
L 375.601935 -167.924055 
L 369.328629 -167.34557 
L 363.055323 -166.455839 
L 356.782016 -165.576235 
L 350.50871 -164.619408 
L 344.235403 -163.703269 
L 337.962097 -162.484898 
L 331.68879 -161.858932 
L 325.415484 -161.368495 
L 319.142177 -160.660347 
L 312.868871 -159.774878 
L 306.595565 -158.776314 
L 300.322258 -157.657278 
L 294.048952 -156.501025 
L 287.775645 -155.708966 
L 281.502339 -155.079892 
L 275.229032 -154.481744 
L 268.955726 -153.455815 
L 262.682419 -152.322435 
L 256.409113 -151.336614 
L 250.135806 -149.568302 
L 243.8625 -148.936865 
L 237.589194 -148.194501 
L 231.315887 -147.360217 
L 225.042581 -146.164472 
L 218.769274 -145.151264 
L 212.495968 -143.92944 
L 206.222661 -143.092615 
L 199.949355 -142.375893 
L 193.676048 -141.675241 
L 187.402742 -140.665079 
L 181.129435 -139.566533 
L 174.856129 -138.275116 
L 168.582823 -137.064297 
L 162.309516 -135.78128 
L 156.03621 -134.932625 
L 149.762903 -134.287367 
L 143.489597 -133.171468 
L 137.21629 -131.966446 
L 130.942984 -130.519331 
L 124.669677 -129.256707 
L 118.396371 -127.659676 
L 112.123065 -126.52576 
L 105.849758 -125.826762 
L 99.576452 -124.831621 
L 93.303145 -123.236189 
L 87.029839 -121.774435 
L 80.756532 -120.003992 
L 74.483226 -118.280027 
L 68.209919 -116.932132 
L 61.936613 -116.128861 
L 55.663306 -115.141484 
L 49.39 -113.694015 
z
" id="mc840cd931a" style="stroke:#2ca02c;"/>
    </defs>
    <g clip-path="url(#pcc8c3b3f99)">
     <use style="fill:#2ca02c;stroke:#2ca02c;" x="0" xlink:href="#mc840cd931a" y="648"/>
    </g>
   </g>
   <g id="matplotlib.axis_5">
    <g id="xtick_25">
     <g id="line2d_41">
      <g>
       <use style="stroke:#000000;stroke-width:0.8;" x="49.39" xlink:href="#m54df4e32f2" y="572.51"/>
      </g>
     </g>
     <g id="text_10">
      <!-- 2020-05-01 -->
      <defs>
       <path d="M 4.890625 31.390625 
L 31.203125 31.390625 
L 31.203125 23.390625 
L 4.890625 23.390625 
z
" id="DejaVuSans-2d"/>
      </defs>
      <g transform="translate(52.149375 637.625625)rotate(-90)scale(0.1 -0.1)">
       <use xlink:href="#DejaVuSans-32"/>
       <use x="63.623047" xlink:href="#DejaVuSans-30"/>
       <use x="127.246094" xlink:href="#DejaVuSans-32"/>
       <use x="190.869141" xlink:href="#DejaVuSans-30"/>
       <use x="254.492188" xlink:href="#DejaVuSans-2d"/>
       <use x="290.576172" xlink:href="#DejaVuSans-30"/>
       <use x="354.199219" xlink:href="#DejaVuSans-35"/>
       <use x="417.822266" xlink:href="#DejaVuSans-2d"/>
       <use x="453.90625" xlink:href="#DejaVuSans-30"/>
       <use x="517.529297" xlink:href="#DejaVuSans-31"/>
      </g>
     </g>
    </g>
    <g id="xtick_26">
     <g id="line2d_42">
      <g>
       <use style="stroke:#000000;stroke-width:0.8;" x="84.748636" xlink:href="#m54df4e32f2" y="572.51"/>
      </g>
     </g>
     <g id="text_11">
      <!-- 2020-05-06 -->
      <g transform="translate(87.508011 637.625625)rotate(-90)scale(0.1 -0.1)">
       <use xlink:href="#DejaVuSans-32"/>
       <use x="63.623047" xlink:href="#DejaVuSans-30"/>
       <use x="127.246094" xlink:href="#DejaVuSans-32"/>
       <use x="190.869141" xlink:href="#DejaVuSans-30"/>
       <use x="254.492188" xlink:href="#DejaVuSans-2d"/>
       <use x="290.576172" xlink:href="#DejaVuSans-30"/>
       <use x="354.199219" xlink:href="#DejaVuSans-35"/>
       <use x="417.822266" xlink:href="#DejaVuSans-2d"/>
       <use x="453.90625" xlink:href="#DejaVuSans-30"/>
       <use x="517.529297" xlink:href="#DejaVuSans-36"/>
      </g>
     </g>
    </g>
    <g id="xtick_27">
     <g id="line2d_43">
      <g>
       <use style="stroke:#000000;stroke-width:0.8;" x="120.107273" xlink:href="#m54df4e32f2" y="572.51"/>
      </g>
     </g>
     <g id="text_12">
      <!-- 2020-05-12 -->
      <g transform="translate(122.866648 637.625625)rotate(-90)scale(0.1 -0.1)">
       <use xlink:href="#DejaVuSans-32"/>
       <use x="63.623047" xlink:href="#DejaVuSans-30"/>
       <use x="127.246094" xlink:href="#DejaVuSans-32"/>
       <use x="190.869141" xlink:href="#DejaVuSans-30"/>
       <use x="254.492188" xlink:href="#DejaVuSans-2d"/>
       <use x="290.576172" xlink:href="#DejaVuSans-30"/>
       <use x="354.199219" xlink:href="#DejaVuSans-35"/>
       <use x="417.822266" xlink:href="#DejaVuSans-2d"/>
       <use x="453.90625" xlink:href="#DejaVuSans-31"/>
       <use x="517.529297" xlink:href="#DejaVuSans-32"/>
      </g>
     </g>
    </g>
    <g id="xtick_28">
     <g id="line2d_44">
      <g>
       <use style="stroke:#000000;stroke-width:0.8;" x="155.465909" xlink:href="#m54df4e32f2" y="572.51"/>
      </g>
     </g>
     <g id="text_13">
      <!-- 2020-05-17 -->
      <defs>
       <path d="M 8.203125 72.90625 
L 55.078125 72.90625 
L 55.078125 68.703125 
L 28.609375 0 
L 18.3125 0 
L 43.21875 64.59375 
L 8.203125 64.59375 
z
" id="DejaVuSans-37"/>
      </defs>
      <g transform="translate(158.225284 637.625625)rotate(-90)scale(0.1 -0.1)">
       <use xlink:href="#DejaVuSans-32"/>
       <use x="63.623047" xlink:href="#DejaVuSans-30"/>
       <use x="127.246094" xlink:href="#DejaVuSans-32"/>
       <use x="190.869141" xlink:href="#DejaVuSans-30"/>
       <use x="254.492188" xlink:href="#DejaVuSans-2d"/>
       <use x="290.576172" xlink:href="#DejaVuSans-30"/>
       <use x="354.199219" xlink:href="#DejaVuSans-35"/>
       <use x="417.822266" xlink:href="#DejaVuSans-2d"/>
       <use x="453.90625" xlink:href="#DejaVuSans-31"/>
       <use x="517.529297" xlink:href="#DejaVuSans-37"/>
      </g>
     </g>
    </g>
    <g id="xtick_29">
     <g id="line2d_45">
      <g>
       <use style="stroke:#000000;stroke-width:0.8;" x="190.824545" xlink:href="#m54df4e32f2" y="572.51"/>
      </g>
     </g>
     <g id="text_14">
      <!-- 2020-05-23 -->
      <g transform="translate(193.58392 637.625625)rotate(-90)scale(0.1 -0.1)">
       <use xlink:href="#DejaVuSans-32"/>
       <use x="63.623047" xlink:href="#DejaVuSans-30"/>
       <use x="127.246094" xlink:href="#DejaVuSans-32"/>
       <use x="190.869141" xlink:href="#DejaVuSans-30"/>
       <use x="254.492188" xlink:href="#DejaVuSans-2d"/>
       <use x="290.576172" xlink:href="#DejaVuSans-30"/>
       <use x="354.199219" xlink:href="#DejaVuSans-35"/>
       <use x="417.822266" xlink:href="#DejaVuSans-2d"/>
       <use x="453.90625" xlink:href="#DejaVuSans-32"/>
       <use x="517.529297" xlink:href="#DejaVuSans-33"/>
      </g>
     </g>
    </g>
    <g id="xtick_30">
     <g id="line2d_46">
      <g>
       <use style="stroke:#000000;stroke-width:0.8;" x="226.183182" xlink:href="#m54df4e32f2" y="572.51"/>
      </g>
     </g>
     <g id="text_15">
      <!-- 2020-05-29 -->
      <defs>
       <path d="M 10.984375 1.515625 
L 10.984375 10.5 
Q 14.703125 8.734375 18.5 7.8125 
Q 22.3125 6.890625 25.984375 6.890625 
Q 35.75 6.890625 40.890625 13.453125 
Q 46.046875 20.015625 46.78125 33.40625 
Q 43.953125 29.203125 39.59375 26.953125 
Q 35.25 24.703125 29.984375 24.703125 
Q 19.046875 24.703125 12.671875 31.3125 
Q 6.296875 37.9375 6.296875 49.421875 
Q 6.296875 60.640625 12.9375 67.421875 
Q 19.578125 74.21875 30.609375 74.21875 
Q 43.265625 74.21875 49.921875 64.515625 
Q 56.59375 54.828125 56.59375 36.375 
Q 56.59375 19.140625 48.40625 8.859375 
Q 40.234375 -1.421875 26.421875 -1.421875 
Q 22.703125 -1.421875 18.890625 -0.6875 
Q 15.09375 0.046875 10.984375 1.515625 
z
M 30.609375 32.421875 
Q 37.25 32.421875 41.125 36.953125 
Q 45.015625 41.5 45.015625 49.421875 
Q 45.015625 57.28125 41.125 61.84375 
Q 37.25 66.40625 30.609375 66.40625 
Q 23.96875 66.40625 20.09375 61.84375 
Q 16.21875 57.28125 16.21875 49.421875 
Q 16.21875 41.5 20.09375 36.953125 
Q 23.96875 32.421875 30.609375 32.421875 
z
" id="DejaVuSans-39"/>
      </defs>
      <g transform="translate(228.942557 637.625625)rotate(-90)scale(0.1 -0.1)">
       <use xlink:href="#DejaVuSans-32"/>
       <use x="63.623047" xlink:href="#DejaVuSans-30"/>
       <use x="127.246094" xlink:href="#DejaVuSans-32"/>
       <use x="190.869141" xlink:href="#DejaVuSans-30"/>
       <use x="254.492188" xlink:href="#DejaVuSans-2d"/>
       <use x="290.576172" xlink:href="#DejaVuSans-30"/>
       <use x="354.199219" xlink:href="#DejaVuSans-35"/>
       <use x="417.822266" xlink:href="#DejaVuSans-2d"/>
       <use x="453.90625" xlink:href="#DejaVuSans-32"/>
       <use x="517.529297" xlink:href="#DejaVuSans-39"/>
      </g>
     </g>
    </g>
    <g id="xtick_31">
     <g id="line2d_47">
      <g>
       <use style="stroke:#000000;stroke-width:0.8;" x="261.541818" xlink:href="#m54df4e32f2" y="572.51"/>
      </g>
     </g>
     <g id="text_16">
      <!-- 2020-06-03 -->
      <g transform="translate(264.301193 637.625625)rotate(-90)scale(0.1 -0.1)">
       <use xlink:href="#DejaVuSans-32"/>
       <use x="63.623047" xlink:href="#DejaVuSans-30"/>
       <use x="127.246094" xlink:href="#DejaVuSans-32"/>
       <use x="190.869141" xlink:href="#DejaVuSans-30"/>
       <use x="254.492188" xlink:href="#DejaVuSans-2d"/>
       <use x="290.576172" xlink:href="#DejaVuSans-30"/>
       <use x="354.199219" xlink:href="#DejaVuSans-36"/>
       <use x="417.822266" xlink:href="#DejaVuSans-2d"/>
       <use x="453.90625" xlink:href="#DejaVuSans-30"/>
       <use x="517.529297" xlink:href="#DejaVuSans-33"/>
      </g>
     </g>
    </g>
    <g id="xtick_32">
     <g id="line2d_48">
      <g>
       <use style="stroke:#000000;stroke-width:0.8;" x="296.900455" xlink:href="#m54df4e32f2" y="572.51"/>
      </g>
     </g>
     <g id="text_17">
      <!-- 2020-06-09 -->
      <g transform="translate(299.65983 637.625625)rotate(-90)scale(0.1 -0.1)">
       <use xlink:href="#DejaVuSans-32"/>
       <use x="63.623047" xlink:href="#DejaVuSans-30"/>
       <use x="127.246094" xlink:href="#DejaVuSans-32"/>
       <use x="190.869141" xlink:href="#DejaVuSans-30"/>
       <use x="254.492188" xlink:href="#DejaVuSans-2d"/>
       <use x="290.576172" xlink:href="#DejaVuSans-30"/>
       <use x="354.199219" xlink:href="#DejaVuSans-36"/>
       <use x="417.822266" xlink:href="#DejaVuSans-2d"/>
       <use x="453.90625" xlink:href="#DejaVuSans-30"/>
       <use x="517.529297" xlink:href="#DejaVuSans-39"/>
      </g>
     </g>
    </g>
    <g id="xtick_33">
     <g id="line2d_49">
      <g>
       <use style="stroke:#000000;stroke-width:0.8;" x="332.259091" xlink:href="#m54df4e32f2" y="572.51"/>
      </g>
     </g>
     <g id="text_18">
      <!-- 2020-06-15 -->
      <g transform="translate(335.018466 637.625625)rotate(-90)scale(0.1 -0.1)">
       <use xlink:href="#DejaVuSans-32"/>
       <use x="63.623047" xlink:href="#DejaVuSans-30"/>
       <use x="127.246094" xlink:href="#DejaVuSans-32"/>
       <use x="190.869141" xlink:href="#DejaVuSans-30"/>
       <use x="254.492188" xlink:href="#DejaVuSans-2d"/>
       <use x="290.576172" xlink:href="#DejaVuSans-30"/>
       <use x="354.199219" xlink:href="#DejaVuSans-36"/>
       <use x="417.822266" xlink:href="#DejaVuSans-2d"/>
       <use x="453.90625" xlink:href="#DejaVuSans-31"/>
       <use x="517.529297" xlink:href="#DejaVuSans-35"/>
      </g>
     </g>
    </g>
    <g id="xtick_34">
     <g id="line2d_50">
      <g>
       <use style="stroke:#000000;stroke-width:0.8;" x="367.617727" xlink:href="#m54df4e32f2" y="572.51"/>
      </g>
     </g>
     <g id="text_19">
      <!-- 2020-06-20 -->
      <g transform="translate(370.377102 637.625625)rotate(-90)scale(0.1 -0.1)">
       <use xlink:href="#DejaVuSans-32"/>
       <use x="63.623047" xlink:href="#DejaVuSans-30"/>
       <use x="127.246094" xlink:href="#DejaVuSans-32"/>
       <use x="190.869141" xlink:href="#DejaVuSans-30"/>
       <use x="254.492188" xlink:href="#DejaVuSans-2d"/>
       <use x="290.576172" xlink:href="#DejaVuSans-30"/>
       <use x="354.199219" xlink:href="#DejaVuSans-36"/>
       <use x="417.822266" xlink:href="#DejaVuSans-2d"/>
       <use x="453.90625" xlink:href="#DejaVuSans-32"/>
       <use x="517.529297" xlink:href="#DejaVuSans-30"/>
      </g>
     </g>
    </g>
    <g id="xtick_35">
     <g id="line2d_51">
      <g>
       <use style="stroke:#000000;stroke-width:0.8;" x="402.976364" xlink:href="#m54df4e32f2" y="572.51"/>
      </g>
     </g>
     <g id="text_20">
      <!-- 2020-06-26 -->
      <g transform="translate(405.735739 637.625625)rotate(-90)scale(0.1 -0.1)">
       <use xlink:href="#DejaVuSans-32"/>
       <use x="63.623047" xlink:href="#DejaVuSans-30"/>
       <use x="127.246094" xlink:href="#DejaVuSans-32"/>
       <use x="190.869141" xlink:href="#DejaVuSans-30"/>
       <use x="254.492188" xlink:href="#DejaVuSans-2d"/>
       <use x="290.576172" xlink:href="#DejaVuSans-30"/>
       <use x="354.199219" xlink:href="#DejaVuSans-36"/>
       <use x="417.822266" xlink:href="#DejaVuSans-2d"/>
       <use x="453.90625" xlink:href="#DejaVuSans-32"/>
       <use x="517.529297" xlink:href="#DejaVuSans-36"/>
      </g>
     </g>
    </g>
    <g id="xtick_36">
     <g id="line2d_52">
      <g>
       <use style="stroke:#000000;stroke-width:0.8;" x="438.335" xlink:href="#m54df4e32f2" y="572.51"/>
      </g>
     </g>
     <g id="text_21">
      <!-- 2020-07-02 -->
      <g transform="translate(441.094375 637.625625)rotate(-90)scale(0.1 -0.1)">
       <use xlink:href="#DejaVuSans-32"/>
       <use x="63.623047" xlink:href="#DejaVuSans-30"/>
       <use x="127.246094" xlink:href="#DejaVuSans-32"/>
       <use x="190.869141" xlink:href="#DejaVuSans-30"/>
       <use x="254.492188" xlink:href="#DejaVuSans-2d"/>
       <use x="290.576172" xlink:href="#DejaVuSans-30"/>
       <use x="354.199219" xlink:href="#DejaVuSans-37"/>
       <use x="417.822266" xlink:href="#DejaVuSans-2d"/>
       <use x="453.90625" xlink:href="#DejaVuSans-30"/>
       <use x="517.529297" xlink:href="#DejaVuSans-32"/>
      </g>
     </g>
    </g>
   </g>
   <g id="matplotlib.axis_6">
    <g id="ytick_15">
     <g id="line2d_53">
      <g>
       <use style="stroke:#000000;stroke-width:0.8;" x="49.39" xlink:href="#m608e6b4842" y="572.51"/>
      </g>
     </g>
     <g id="text_22">
      <!-- 0 -->
      <g transform="translate(36.0275 576.309219)scale(0.1 -0.1)">
       <use xlink:href="#DejaVuSans-30"/>
      </g>
     </g>
    </g>
    <g id="ytick_16">
     <g id="line2d_54">
      <g>
       <use style="stroke:#000000;stroke-width:0.8;" x="49.39" xlink:href="#m608e6b4842" y="530.68134"/>
      </g>
     </g>
     <g id="text_23">
      <!-- 10000 -->
      <g transform="translate(10.5775 534.480558)scale(0.1 -0.1)">
       <use xlink:href="#DejaVuSans-31"/>
       <use x="63.623047" xlink:href="#DejaVuSans-30"/>
       <use x="127.246094" xlink:href="#DejaVuSans-30"/>
       <use x="190.869141" xlink:href="#DejaVuSans-30"/>
       <use x="254.492188" xlink:href="#DejaVuSans-30"/>
      </g>
     </g>
    </g>
    <g id="ytick_17">
     <g id="line2d_55">
      <g>
       <use style="stroke:#000000;stroke-width:0.8;" x="49.39" xlink:href="#m608e6b4842" y="488.852679"/>
      </g>
     </g>
     <g id="text_24">
      <!-- 20000 -->
      <g transform="translate(10.5775 492.651898)scale(0.1 -0.1)">
       <use xlink:href="#DejaVuSans-32"/>
       <use x="63.623047" xlink:href="#DejaVuSans-30"/>
       <use x="127.246094" xlink:href="#DejaVuSans-30"/>
       <use x="190.869141" xlink:href="#DejaVuSans-30"/>
       <use x="254.492188" xlink:href="#DejaVuSans-30"/>
      </g>
     </g>
    </g>
    <g id="ytick_18">
     <g id="line2d_56">
      <g>
       <use style="stroke:#000000;stroke-width:0.8;" x="49.39" xlink:href="#m608e6b4842" y="447.024019"/>
      </g>
     </g>
     <g id="text_25">
      <!-- 30000 -->
      <g transform="translate(10.5775 450.823237)scale(0.1 -0.1)">
       <use xlink:href="#DejaVuSans-33"/>
       <use x="63.623047" xlink:href="#DejaVuSans-30"/>
       <use x="127.246094" xlink:href="#DejaVuSans-30"/>
       <use x="190.869141" xlink:href="#DejaVuSans-30"/>
       <use x="254.492188" xlink:href="#DejaVuSans-30"/>
      </g>
     </g>
    </g>
    <g id="ytick_19">
     <g id="line2d_57">
      <g>
       <use style="stroke:#000000;stroke-width:0.8;" x="49.39" xlink:href="#m608e6b4842" y="405.195358"/>
      </g>
     </g>
     <g id="text_26">
      <!-- 40000 -->
      <g transform="translate(10.5775 408.994577)scale(0.1 -0.1)">
       <use xlink:href="#DejaVuSans-34"/>
       <use x="63.623047" xlink:href="#DejaVuSans-30"/>
       <use x="127.246094" xlink:href="#DejaVuSans-30"/>
       <use x="190.869141" xlink:href="#DejaVuSans-30"/>
       <use x="254.492188" xlink:href="#DejaVuSans-30"/>
      </g>
     </g>
    </g>
    <g id="ytick_20">
     <g id="line2d_58">
      <g>
       <use style="stroke:#000000;stroke-width:0.8;" x="49.39" xlink:href="#m608e6b4842" y="363.366698"/>
      </g>
     </g>
     <g id="text_27">
      <!-- 50000 -->
      <g transform="translate(10.5775 367.165916)scale(0.1 -0.1)">
       <use xlink:href="#DejaVuSans-35"/>
       <use x="63.623047" xlink:href="#DejaVuSans-30"/>
       <use x="127.246094" xlink:href="#DejaVuSans-30"/>
       <use x="190.869141" xlink:href="#DejaVuSans-30"/>
       <use x="254.492188" xlink:href="#DejaVuSans-30"/>
      </g>
     </g>
    </g>
    <g id="ytick_21">
     <g id="line2d_59">
      <g>
       <use style="stroke:#000000;stroke-width:0.8;" x="49.39" xlink:href="#m608e6b4842" y="321.538037"/>
      </g>
     </g>
     <g id="text_28">
      <!-- 60000 -->
      <g transform="translate(10.5775 325.337256)scale(0.1 -0.1)">
       <use xlink:href="#DejaVuSans-36"/>
       <use x="63.623047" xlink:href="#DejaVuSans-30"/>
       <use x="127.246094" xlink:href="#DejaVuSans-30"/>
       <use x="190.869141" xlink:href="#DejaVuSans-30"/>
       <use x="254.492188" xlink:href="#DejaVuSans-30"/>
      </g>
     </g>
    </g>
   </g>
   <g id="line2d_60">
    <path clip-path="url(#pcc8c3b3f99)" d="M 49.39 534.305985 
L 55.663306 532.858516 
L 61.936613 531.871139 
L 68.209919 531.067868 
L 74.483226 529.719973 
L 80.756532 527.996008 
L 87.029839 526.225565 
L 93.303145 524.763811 
L 99.576452 523.168379 
L 105.849758 522.173238 
L 112.123065 521.47424 
L 118.396371 520.340324 
L 124.669677 518.743293 
L 130.942984 517.480669 
L 137.21629 516.033554 
L 143.489597 514.828532 
L 149.762903 513.712633 
L 156.03621 513.067375 
L 162.309516 512.21872 
L 168.582823 510.935703 
L 174.856129 509.724884 
L 181.129435 508.433467 
L 187.402742 507.334921 
L 193.676048 506.324759 
L 199.949355 505.624107 
L 206.222661 504.907385 
L 212.495968 504.07056 
L 218.769274 502.848736 
L 225.042581 501.835528 
L 231.315887 500.639783 
L 237.589194 499.805499 
L 243.8625 499.063135 
L 250.135806 498.431698 
L 256.409113 496.663386 
L 262.682419 495.677565 
L 268.955726 494.544185 
L 275.229032 493.518256 
L 281.502339 492.920108 
L 287.775645 492.291034 
L 294.048952 491.498975 
L 300.322258 490.342722 
L 306.595565 489.223686 
L 312.868871 488.225122 
L 319.142177 487.339653 
L 325.415484 486.631505 
L 331.68879 486.141068 
L 337.962097 485.515102 
L 344.235403 484.296731 
L 350.50871 483.380592 
L 356.782016 482.423765 
L 363.055323 481.544161 
L 369.328629 480.65443 
L 375.601935 480.075945 
L 381.875242 479.329067 
L 388.148548 478.316664 
L 394.421855 477.366582 
L 400.695161 476.353253 
L 406.968468 475.40506 
L 413.241774 474.748088 
L 419.515081 474.15978 
L 425.788387 473.611905 
L 432.061694 472.58349 
L 438.335 471.404252 
" style="fill:none;stroke:#2ca02c;stroke-linecap:square;stroke-width:1.5;"/>
   </g>
   <g id="patch_13">
    <path d="M 49.39 572.51 
L 49.39 314.755 
" style="fill:none;stroke:#000000;stroke-linecap:square;stroke-linejoin:miter;stroke-width:0.8;"/>
   </g>
   <g id="patch_14">
    <path d="M 438.335 572.51 
L 438.335 314.755 
" style="fill:none;stroke:#000000;stroke-linecap:square;stroke-linejoin:miter;stroke-width:0.8;"/>
   </g>
   <g id="patch_15">
    <path d="M 49.39 572.51 
L 438.335 572.51 
" style="fill:none;stroke:#000000;stroke-linecap:square;stroke-linejoin:miter;stroke-width:0.8;"/>
   </g>
   <g id="patch_16">
    <path d="M 49.39 314.755 
L 438.335 314.755 
" style="fill:none;stroke:#000000;stroke-linecap:square;stroke-linejoin:miter;stroke-width:0.8;"/>
   </g>
   <g id="text_29">
    <!-- South -->
    <defs>
     <path d="M 53.515625 70.515625 
L 53.515625 60.890625 
Q 47.90625 63.578125 42.921875 64.890625 
Q 37.9375 66.21875 33.296875 66.21875 
Q 25.25 66.21875 20.875 63.09375 
Q 16.5 59.96875 16.5 54.203125 
Q 16.5 49.359375 19.40625 46.890625 
Q 22.3125 44.4375 30.421875 42.921875 
L 36.375 41.703125 
Q 47.40625 39.59375 52.65625 34.296875 
Q 57.90625 29 57.90625 20.125 
Q 57.90625 9.515625 50.796875 4.046875 
Q 43.703125 -1.421875 29.984375 -1.421875 
Q 24.8125 -1.421875 18.96875 -0.25 
Q 13.140625 0.921875 6.890625 3.21875 
L 6.890625 13.375 
Q 12.890625 10.015625 18.65625 8.296875 
Q 24.421875 6.59375 29.984375 6.59375 
Q 38.421875 6.59375 43.015625 9.90625 
Q 47.609375 13.234375 47.609375 19.390625 
Q 47.609375 24.75 44.3125 27.78125 
Q 41.015625 30.8125 33.5 32.328125 
L 27.484375 33.5 
Q 16.453125 35.6875 11.515625 40.375 
Q 6.59375 45.0625 6.59375 53.421875 
Q 6.59375 63.09375 13.40625 68.65625 
Q 20.21875 74.21875 32.171875 74.21875 
Q 37.3125 74.21875 42.625 73.28125 
Q 47.953125 72.359375 53.515625 70.515625 
z
" id="DejaVuSans-53"/>
     <path d="M 8.5 21.578125 
L 8.5 54.6875 
L 17.484375 54.6875 
L 17.484375 21.921875 
Q 17.484375 14.15625 20.5 10.265625 
Q 23.53125 6.390625 29.59375 6.390625 
Q 36.859375 6.390625 41.078125 11.03125 
Q 45.3125 15.671875 45.3125 23.6875 
L 45.3125 54.6875 
L 54.296875 54.6875 
L 54.296875 0 
L 45.3125 0 
L 45.3125 8.40625 
Q 42.046875 3.421875 37.71875 1 
Q 33.40625 -1.421875 27.6875 -1.421875 
Q 18.265625 -1.421875 13.375 4.4375 
Q 8.5 10.296875 8.5 21.578125 
z
M 31.109375 56 
z
" id="DejaVuSans-75"/>
    </defs>
    <g transform="translate(226.425 308.755)scale(0.12 -0.12)">
     <use xlink:href="#DejaVuSans-53"/>
     <use x="63.476562" xlink:href="#DejaVuSans-6f"/>
     <use x="124.658203" xlink:href="#DejaVuSans-75"/>
     <use x="188.037109" xlink:href="#DejaVuSans-74"/>
     <use x="227.246094" xlink:href="#DejaVuSans-68"/>
    </g>
   </g>
  </g>
  <g id="axes_4">
   <g id="patch_17">
    <path d="M 459.215 572.51 
L 848.16 572.51 
L 848.16 314.755 
L 459.215 314.755 
z
" style="fill:#ffffff;"/>
   </g>
   <g id="PolyCollection_4">
    <defs>
     <path d="M 459.215 -94.476823 
L 459.215 -75.49 
L 465.488306 -75.49 
L 471.761613 -75.49 
L 478.034919 -75.49 
L 484.308226 -75.49 
L 490.581532 -75.49 
L 496.854839 -75.49 
L 503.128145 -75.49 
L 509.401452 -75.49 
L 515.674758 -75.49 
L 521.948065 -75.49 
L 528.221371 -75.49 
L 534.494677 -75.49 
L 540.767984 -75.49 
L 547.04129 -75.49 
L 553.314597 -75.49 
L 559.587903 -75.49 
L 565.86121 -75.49 
L 572.134516 -75.49 
L 578.407823 -75.49 
L 584.681129 -75.49 
L 590.954435 -75.49 
L 597.227742 -75.49 
L 603.501048 -75.49 
L 609.774355 -75.49 
L 616.047661 -75.49 
L 622.320968 -75.49 
L 628.594274 -75.49 
L 634.867581 -75.49 
L 641.140887 -75.49 
L 647.414194 -75.49 
L 653.6875 -75.49 
L 659.960806 -75.49 
L 666.234113 -75.49 
L 672.507419 -75.49 
L 678.780726 -75.49 
L 685.054032 -75.49 
L 691.327339 -75.49 
L 697.600645 -75.49 
L 703.873952 -75.49 
L 710.147258 -75.49 
L 716.420565 -75.49 
L 722.693871 -75.49 
L 728.967177 -75.49 
L 735.240484 -75.49 
L 741.51379 -75.49 
L 747.787097 -75.49 
L 754.060403 -75.49 
L 760.33371 -75.49 
L 766.607016 -75.49 
L 772.880323 -75.49 
L 779.153629 -75.49 
L 785.426935 -75.49 
L 791.700242 -75.49 
L 797.973548 -75.49 
L 804.246855 -75.49 
L 810.520161 -75.49 
L 816.793468 -75.49 
L 823.066774 -75.49 
L 829.340081 -75.49 
L 835.613387 -75.49 
L 841.886694 -75.49 
L 848.16 -75.49 
L 848.16 -126.999372 
L 848.16 -126.999372 
L 841.886694 -126.258174 
L 835.613387 -125.755018 
L 829.340081 -125.409544 
L 823.066774 -125.075443 
L 816.793468 -124.726655 
L 810.520161 -124.019093 
L 804.246855 -123.308844 
L 797.973548 -122.634219 
L 791.700242 -122.346354 
L 785.426935 -122.096316 
L 779.153629 -121.848099 
L 772.880323 -121.126576 
L 766.607016 -120.627728 
L 760.33371 -120.189839 
L 754.060403 -119.641064 
L 747.787097 -119.328955 
L 741.51379 -118.97603 
L 735.240484 -118.620303 
L 728.967177 -118.248079 
L 722.693871 -117.702152 
L 716.420565 -116.982479 
L 710.147258 -116.401875 
L 703.873952 -115.998422 
L 697.600645 -115.735187 
L 691.327339 -115.309785 
L 685.054032 -114.850661 
L 678.780726 -114.37735 
L 672.507419 -113.918171 
L 666.234113 -113.252757 
L 659.960806 -112.879856 
L 653.6875 -112.591286 
L 647.414194 -112.190094 
L 641.140887 -111.67223 
L 634.867581 -110.821739 
L 628.594274 -110.271868 
L 622.320968 -109.614502 
L 616.047661 -109.389896 
L 609.774355 -109.209166 
L 603.501048 -108.807252 
L 597.227742 -108.206316 
L 590.954435 -103.871545 
L 584.681129 -107.072591 
L 578.407823 -106.304034 
L 572.134516 -105.634489 
L 565.86121 -105.272626 
L 559.587903 -104.921027 
L 553.314597 -104.061359 
L 547.04129 -103.330158 
L 540.767984 -102.564467 
L 534.494677 -101.739256 
L 528.221371 -100.980766 
L 521.948065 -100.632834 
L 515.674758 -100.169723 
L 509.401452 -99.570499 
L 503.128145 -98.82864 
L 496.854839 -97.999512 
L 490.581532 -97.283707 
L 484.308226 -96.720442 
L 478.034919 -96.249832 
L 471.761613 -95.81178 
L 465.488306 -95.089138 
L 459.215 -94.476823 
z
" id="me13a9ca7e2" style="stroke:#d62728;"/>
    </defs>
    <g clip-path="url(#p7e526aeece)">
     <use style="fill:#d62728;stroke:#d62728;" x="0" xlink:href="#me13a9ca7e2" y="648"/>
    </g>
   </g>
   <g id="matplotlib.axis_7">
    <g id="xtick_37">
     <g id="line2d_61">
      <g>
       <use style="stroke:#000000;stroke-width:0.8;" x="459.215" xlink:href="#m54df4e32f2" y="572.51"/>
      </g>
     </g>
     <g id="text_30">
      <!-- 2020-05-01 -->
      <g transform="translate(461.974375 637.625625)rotate(-90)scale(0.1 -0.1)">
       <use xlink:href="#DejaVuSans-32"/>
       <use x="63.623047" xlink:href="#DejaVuSans-30"/>
       <use x="127.246094" xlink:href="#DejaVuSans-32"/>
       <use x="190.869141" xlink:href="#DejaVuSans-30"/>
       <use x="254.492188" xlink:href="#DejaVuSans-2d"/>
       <use x="290.576172" xlink:href="#DejaVuSans-30"/>
       <use x="354.199219" xlink:href="#DejaVuSans-35"/>
       <use x="417.822266" xlink:href="#DejaVuSans-2d"/>
       <use x="453.90625" xlink:href="#DejaVuSans-30"/>
       <use x="517.529297" xlink:href="#DejaVuSans-31"/>
      </g>
     </g>
    </g>
    <g id="xtick_38">
     <g id="line2d_62">
      <g>
       <use style="stroke:#000000;stroke-width:0.8;" x="494.573636" xlink:href="#m54df4e32f2" y="572.51"/>
      </g>
     </g>
     <g id="text_31">
      <!-- 2020-05-06 -->
      <g transform="translate(497.333011 637.625625)rotate(-90)scale(0.1 -0.1)">
       <use xlink:href="#DejaVuSans-32"/>
       <use x="63.623047" xlink:href="#DejaVuSans-30"/>
       <use x="127.246094" xlink:href="#DejaVuSans-32"/>
       <use x="190.869141" xlink:href="#DejaVuSans-30"/>
       <use x="254.492188" xlink:href="#DejaVuSans-2d"/>
       <use x="290.576172" xlink:href="#DejaVuSans-30"/>
       <use x="354.199219" xlink:href="#DejaVuSans-35"/>
       <use x="417.822266" xlink:href="#DejaVuSans-2d"/>
       <use x="453.90625" xlink:href="#DejaVuSans-30"/>
       <use x="517.529297" xlink:href="#DejaVuSans-36"/>
      </g>
     </g>
    </g>
    <g id="xtick_39">
     <g id="line2d_63">
      <g>
       <use style="stroke:#000000;stroke-width:0.8;" x="529.932273" xlink:href="#m54df4e32f2" y="572.51"/>
      </g>
     </g>
     <g id="text_32">
      <!-- 2020-05-12 -->
      <g transform="translate(532.691648 637.625625)rotate(-90)scale(0.1 -0.1)">
       <use xlink:href="#DejaVuSans-32"/>
       <use x="63.623047" xlink:href="#DejaVuSans-30"/>
       <use x="127.246094" xlink:href="#DejaVuSans-32"/>
       <use x="190.869141" xlink:href="#DejaVuSans-30"/>
       <use x="254.492188" xlink:href="#DejaVuSans-2d"/>
       <use x="290.576172" xlink:href="#DejaVuSans-30"/>
       <use x="354.199219" xlink:href="#DejaVuSans-35"/>
       <use x="417.822266" xlink:href="#DejaVuSans-2d"/>
       <use x="453.90625" xlink:href="#DejaVuSans-31"/>
       <use x="517.529297" xlink:href="#DejaVuSans-32"/>
      </g>
     </g>
    </g>
    <g id="xtick_40">
     <g id="line2d_64">
      <g>
       <use style="stroke:#000000;stroke-width:0.8;" x="565.290909" xlink:href="#m54df4e32f2" y="572.51"/>
      </g>
     </g>
     <g id="text_33">
      <!-- 2020-05-17 -->
      <g transform="translate(568.050284 637.625625)rotate(-90)scale(0.1 -0.1)">
       <use xlink:href="#DejaVuSans-32"/>
       <use x="63.623047" xlink:href="#DejaVuSans-30"/>
       <use x="127.246094" xlink:href="#DejaVuSans-32"/>
       <use x="190.869141" xlink:href="#DejaVuSans-30"/>
       <use x="254.492188" xlink:href="#DejaVuSans-2d"/>
       <use x="290.576172" xlink:href="#DejaVuSans-30"/>
       <use x="354.199219" xlink:href="#DejaVuSans-35"/>
       <use x="417.822266" xlink:href="#DejaVuSans-2d"/>
       <use x="453.90625" xlink:href="#DejaVuSans-31"/>
       <use x="517.529297" xlink:href="#DejaVuSans-37"/>
      </g>
     </g>
    </g>
    <g id="xtick_41">
     <g id="line2d_65">
      <g>
       <use style="stroke:#000000;stroke-width:0.8;" x="600.649545" xlink:href="#m54df4e32f2" y="572.51"/>
      </g>
     </g>
     <g id="text_34">
      <!-- 2020-05-23 -->
      <g transform="translate(603.40892 637.625625)rotate(-90)scale(0.1 -0.1)">
       <use xlink:href="#DejaVuSans-32"/>
       <use x="63.623047" xlink:href="#DejaVuSans-30"/>
       <use x="127.246094" xlink:href="#DejaVuSans-32"/>
       <use x="190.869141" xlink:href="#DejaVuSans-30"/>
       <use x="254.492188" xlink:href="#DejaVuSans-2d"/>
       <use x="290.576172" xlink:href="#DejaVuSans-30"/>
       <use x="354.199219" xlink:href="#DejaVuSans-35"/>
       <use x="417.822266" xlink:href="#DejaVuSans-2d"/>
       <use x="453.90625" xlink:href="#DejaVuSans-32"/>
       <use x="517.529297" xlink:href="#DejaVuSans-33"/>
      </g>
     </g>
    </g>
    <g id="xtick_42">
     <g id="line2d_66">
      <g>
       <use style="stroke:#000000;stroke-width:0.8;" x="636.008182" xlink:href="#m54df4e32f2" y="572.51"/>
      </g>
     </g>
     <g id="text_35">
      <!-- 2020-05-29 -->
      <g transform="translate(638.767557 637.625625)rotate(-90)scale(0.1 -0.1)">
       <use xlink:href="#DejaVuSans-32"/>
       <use x="63.623047" xlink:href="#DejaVuSans-30"/>
       <use x="127.246094" xlink:href="#DejaVuSans-32"/>
       <use x="190.869141" xlink:href="#DejaVuSans-30"/>
       <use x="254.492188" xlink:href="#DejaVuSans-2d"/>
       <use x="290.576172" xlink:href="#DejaVuSans-30"/>
       <use x="354.199219" xlink:href="#DejaVuSans-35"/>
       <use x="417.822266" xlink:href="#DejaVuSans-2d"/>
       <use x="453.90625" xlink:href="#DejaVuSans-32"/>
       <use x="517.529297" xlink:href="#DejaVuSans-39"/>
      </g>
     </g>
    </g>
    <g id="xtick_43">
     <g id="line2d_67">
      <g>
       <use style="stroke:#000000;stroke-width:0.8;" x="671.366818" xlink:href="#m54df4e32f2" y="572.51"/>
      </g>
     </g>
     <g id="text_36">
      <!-- 2020-06-03 -->
      <g transform="translate(674.126193 637.625625)rotate(-90)scale(0.1 -0.1)">
       <use xlink:href="#DejaVuSans-32"/>
       <use x="63.623047" xlink:href="#DejaVuSans-30"/>
       <use x="127.246094" xlink:href="#DejaVuSans-32"/>
       <use x="190.869141" xlink:href="#DejaVuSans-30"/>
       <use x="254.492188" xlink:href="#DejaVuSans-2d"/>
       <use x="290.576172" xlink:href="#DejaVuSans-30"/>
       <use x="354.199219" xlink:href="#DejaVuSans-36"/>
       <use x="417.822266" xlink:href="#DejaVuSans-2d"/>
       <use x="453.90625" xlink:href="#DejaVuSans-30"/>
       <use x="517.529297" xlink:href="#DejaVuSans-33"/>
      </g>
     </g>
    </g>
    <g id="xtick_44">
     <g id="line2d_68">
      <g>
       <use style="stroke:#000000;stroke-width:0.8;" x="706.725455" xlink:href="#m54df4e32f2" y="572.51"/>
      </g>
     </g>
     <g id="text_37">
      <!-- 2020-06-09 -->
      <g transform="translate(709.48483 637.625625)rotate(-90)scale(0.1 -0.1)">
       <use xlink:href="#DejaVuSans-32"/>
       <use x="63.623047" xlink:href="#DejaVuSans-30"/>
       <use x="127.246094" xlink:href="#DejaVuSans-32"/>
       <use x="190.869141" xlink:href="#DejaVuSans-30"/>
       <use x="254.492188" xlink:href="#DejaVuSans-2d"/>
       <use x="290.576172" xlink:href="#DejaVuSans-30"/>
       <use x="354.199219" xlink:href="#DejaVuSans-36"/>
       <use x="417.822266" xlink:href="#DejaVuSans-2d"/>
       <use x="453.90625" xlink:href="#DejaVuSans-30"/>
       <use x="517.529297" xlink:href="#DejaVuSans-39"/>
      </g>
     </g>
    </g>
    <g id="xtick_45">
     <g id="line2d_69">
      <g>
       <use style="stroke:#000000;stroke-width:0.8;" x="742.084091" xlink:href="#m54df4e32f2" y="572.51"/>
      </g>
     </g>
     <g id="text_38">
      <!-- 2020-06-15 -->
      <g transform="translate(744.843466 637.625625)rotate(-90)scale(0.1 -0.1)">
       <use xlink:href="#DejaVuSans-32"/>
       <use x="63.623047" xlink:href="#DejaVuSans-30"/>
       <use x="127.246094" xlink:href="#DejaVuSans-32"/>
       <use x="190.869141" xlink:href="#DejaVuSans-30"/>
       <use x="254.492188" xlink:href="#DejaVuSans-2d"/>
       <use x="290.576172" xlink:href="#DejaVuSans-30"/>
       <use x="354.199219" xlink:href="#DejaVuSans-36"/>
       <use x="417.822266" xlink:href="#DejaVuSans-2d"/>
       <use x="453.90625" xlink:href="#DejaVuSans-31"/>
       <use x="517.529297" xlink:href="#DejaVuSans-35"/>
      </g>
     </g>
    </g>
    <g id="xtick_46">
     <g id="line2d_70">
      <g>
       <use style="stroke:#000000;stroke-width:0.8;" x="777.442727" xlink:href="#m54df4e32f2" y="572.51"/>
      </g>
     </g>
     <g id="text_39">
      <!-- 2020-06-20 -->
      <g transform="translate(780.202102 637.625625)rotate(-90)scale(0.1 -0.1)">
       <use xlink:href="#DejaVuSans-32"/>
       <use x="63.623047" xlink:href="#DejaVuSans-30"/>
       <use x="127.246094" xlink:href="#DejaVuSans-32"/>
       <use x="190.869141" xlink:href="#DejaVuSans-30"/>
       <use x="254.492188" xlink:href="#DejaVuSans-2d"/>
       <use x="290.576172" xlink:href="#DejaVuSans-30"/>
       <use x="354.199219" xlink:href="#DejaVuSans-36"/>
       <use x="417.822266" xlink:href="#DejaVuSans-2d"/>
       <use x="453.90625" xlink:href="#DejaVuSans-32"/>
       <use x="517.529297" xlink:href="#DejaVuSans-30"/>
      </g>
     </g>
    </g>
    <g id="xtick_47">
     <g id="line2d_71">
      <g>
       <use style="stroke:#000000;stroke-width:0.8;" x="812.801364" xlink:href="#m54df4e32f2" y="572.51"/>
      </g>
     </g>
     <g id="text_40">
      <!-- 2020-06-26 -->
      <g transform="translate(815.560739 637.625625)rotate(-90)scale(0.1 -0.1)">
       <use xlink:href="#DejaVuSans-32"/>
       <use x="63.623047" xlink:href="#DejaVuSans-30"/>
       <use x="127.246094" xlink:href="#DejaVuSans-32"/>
       <use x="190.869141" xlink:href="#DejaVuSans-30"/>
       <use x="254.492188" xlink:href="#DejaVuSans-2d"/>
       <use x="290.576172" xlink:href="#DejaVuSans-30"/>
       <use x="354.199219" xlink:href="#DejaVuSans-36"/>
       <use x="417.822266" xlink:href="#DejaVuSans-2d"/>
       <use x="453.90625" xlink:href="#DejaVuSans-32"/>
       <use x="517.529297" xlink:href="#DejaVuSans-36"/>
      </g>
     </g>
    </g>
    <g id="xtick_48">
     <g id="line2d_72">
      <g>
       <use style="stroke:#000000;stroke-width:0.8;" x="848.16" xlink:href="#m54df4e32f2" y="572.51"/>
      </g>
     </g>
     <g id="text_41">
      <!-- 2020-07-02 -->
      <g transform="translate(850.919375 637.625625)rotate(-90)scale(0.1 -0.1)">
       <use xlink:href="#DejaVuSans-32"/>
       <use x="63.623047" xlink:href="#DejaVuSans-30"/>
       <use x="127.246094" xlink:href="#DejaVuSans-32"/>
       <use x="190.869141" xlink:href="#DejaVuSans-30"/>
       <use x="254.492188" xlink:href="#DejaVuSans-2d"/>
       <use x="290.576172" xlink:href="#DejaVuSans-30"/>
       <use x="354.199219" xlink:href="#DejaVuSans-37"/>
       <use x="417.822266" xlink:href="#DejaVuSans-2d"/>
       <use x="453.90625" xlink:href="#DejaVuSans-30"/>
       <use x="517.529297" xlink:href="#DejaVuSans-32"/>
      </g>
     </g>
    </g>
   </g>
   <g id="matplotlib.axis_8">
    <g id="ytick_22">
     <g id="line2d_73">
      <g>
       <use style="stroke:#000000;stroke-width:0.8;" x="459.215" xlink:href="#m608e6b4842" y="572.51"/>
      </g>
     </g>
    </g>
    <g id="ytick_23">
     <g id="line2d_74">
      <g>
       <use style="stroke:#000000;stroke-width:0.8;" x="459.215" xlink:href="#m608e6b4842" y="530.68134"/>
      </g>
     </g>
    </g>
    <g id="ytick_24">
     <g id="line2d_75">
      <g>
       <use style="stroke:#000000;stroke-width:0.8;" x="459.215" xlink:href="#m608e6b4842" y="488.852679"/>
      </g>
     </g>
    </g>
    <g id="ytick_25">
     <g id="line2d_76">
      <g>
       <use style="stroke:#000000;stroke-width:0.8;" x="459.215" xlink:href="#m608e6b4842" y="447.024019"/>
      </g>
     </g>
    </g>
    <g id="ytick_26">
     <g id="line2d_77">
      <g>
       <use style="stroke:#000000;stroke-width:0.8;" x="459.215" xlink:href="#m608e6b4842" y="405.195358"/>
      </g>
     </g>
    </g>
    <g id="ytick_27">
     <g id="line2d_78">
      <g>
       <use style="stroke:#000000;stroke-width:0.8;" x="459.215" xlink:href="#m608e6b4842" y="363.366698"/>
      </g>
     </g>
    </g>
    <g id="ytick_28">
     <g id="line2d_79">
      <g>
       <use style="stroke:#000000;stroke-width:0.8;" x="459.215" xlink:href="#m608e6b4842" y="321.538037"/>
      </g>
     </g>
    </g>
   </g>
   <g id="line2d_80">
    <path clip-path="url(#p7e526aeece)" d="M 459.215 553.523177 
L 465.488306 552.910862 
L 471.761613 552.18822 
L 478.034919 551.750168 
L 484.308226 551.279558 
L 490.581532 550.716293 
L 496.854839 550.000488 
L 503.128145 549.17136 
L 509.401452 548.429501 
L 515.674758 547.830277 
L 521.948065 547.367166 
L 528.221371 547.019234 
L 534.494677 546.260744 
L 540.767984 545.435533 
L 547.04129 544.669842 
L 553.314597 543.938641 
L 559.587903 543.078973 
L 565.86121 542.727374 
L 572.134516 542.365511 
L 578.407823 541.695966 
L 584.681129 540.927409 
L 590.954435 544.128455 
L 597.227742 539.793684 
L 603.501048 539.192748 
L 609.774355 538.790834 
L 616.047661 538.610104 
L 622.320968 538.385498 
L 628.594274 537.728132 
L 634.867581 537.178261 
L 641.140887 536.32777 
L 647.414194 535.809906 
L 653.6875 535.408714 
L 659.960806 535.120144 
L 666.234113 534.747243 
L 672.507419 534.081829 
L 678.780726 533.62265 
L 685.054032 533.149339 
L 691.327339 532.690215 
L 697.600645 532.264813 
L 703.873952 532.001578 
L 710.147258 531.598125 
L 716.420565 531.017521 
L 722.693871 530.297848 
L 728.967177 529.751921 
L 735.240484 529.379697 
L 741.51379 529.02397 
L 747.787097 528.671045 
L 754.060403 528.358936 
L 760.33371 527.810161 
L 766.607016 527.372272 
L 772.880323 526.873424 
L 779.153629 526.151901 
L 785.426935 525.903684 
L 791.700242 525.653646 
L 797.973548 525.365781 
L 804.246855 524.691156 
L 810.520161 523.980907 
L 816.793468 523.273345 
L 823.066774 522.924557 
L 829.340081 522.590456 
L 835.613387 522.244982 
L 841.886694 521.741826 
L 848.16 521.000628 
" style="fill:none;stroke:#d62728;stroke-linecap:square;stroke-width:1.5;"/>
   </g>
   <g id="patch_18">
    <path d="M 459.215 572.51 
L 459.215 314.755 
" style="fill:none;stroke:#000000;stroke-linecap:square;stroke-linejoin:miter;stroke-width:0.8;"/>
   </g>
   <g id="patch_19">
    <path d="M 848.16 572.51 
L 848.16 314.755 
" style="fill:none;stroke:#000000;stroke-linecap:square;stroke-linejoin:miter;stroke-width:0.8;"/>
   </g>
   <g id="patch_20">
    <path d="M 459.215 572.51 
L 848.16 572.51 
" style="fill:none;stroke:#000000;stroke-linecap:square;stroke-linejoin:miter;stroke-width:0.8;"/>
   </g>
   <g id="patch_21">
    <path d="M 459.215 314.755 
L 848.16 314.755 
" style="fill:none;stroke:#000000;stroke-linecap:square;stroke-linejoin:miter;stroke-width:0.8;"/>
   </g>
   <g id="text_42">
    <!-- West -->
    <defs>
     <path d="M 3.328125 72.90625 
L 13.28125 72.90625 
L 28.609375 11.28125 
L 43.890625 72.90625 
L 54.984375 72.90625 
L 70.3125 11.28125 
L 85.59375 72.90625 
L 95.609375 72.90625 
L 77.296875 0 
L 64.890625 0 
L 49.515625 63.28125 
L 33.984375 0 
L 21.578125 0 
z
" id="DejaVuSans-57"/>
    </defs>
    <g transform="translate(638.59 308.755)scale(0.12 -0.12)">
     <use xlink:href="#DejaVuSans-57"/>
     <use x="98.798828" xlink:href="#DejaVuSans-65"/>
     <use x="160.322266" xlink:href="#DejaVuSans-73"/>
     <use x="212.421875" xlink:href="#DejaVuSans-74"/>
    </g>
   </g>
  </g>
 </g>
 <defs>
  <clipPath id="p36f18103ca">
   <rect height="257.755" width="388.945" x="49.39" y="25.44"/>
  </clipPath>
  <clipPath id="pa22d2b93b3">
   <rect height="257.755" width="388.945" x="459.215" y="25.44"/>
  </clipPath>
  <clipPath id="pcc8c3b3f99">
   <rect height="257.755" width="388.945" x="49.39" y="314.755"/>
  </clipPath>
  <clipPath id="p7e526aeece">
   <rect height="257.755" width="388.945" x="459.215" y="314.755"/>
  </clipPath>
 </defs>
</svg>
