<?xml version="1.0" encoding="utf-8" standalone="no"?>
<!DOCTYPE svg PUBLIC "-//W3C//DTD SVG 1.1//EN"
  "http://www.w3.org/Graphics/SVG/1.1/DTD/svg11.dtd">
<!-- Created with matplotlib (https://matplotlib.org/) -->
<svg height="640.775625pt" version="1.1" viewBox="0 0 856.461563 640.775625" width="856.461563pt" xmlns="http://www.w3.org/2000/svg" xmlns:xlink="http://www.w3.org/1999/xlink">
 <defs>
  <style type="text/css">
*{stroke-linecap:butt;stroke-linejoin:round;}
  </style>
 </defs>
 <g id="figure_1">
  <g id="patch_1">
   <path d="M 0 640.775625 
L 856.461563 640.775625 
L 856.461563 0 
L 0 0 
z
" style="fill:#ffffff;"/>
  </g>
  <g id="axes_1">
   <g id="patch_2">
    <path d="M 46.0125 568.46 
L 844.4225 568.46 
L 844.4225 7.2 
L 46.0125 7.2 
z
" style="fill:#ffffff;"/>
   </g>
   <g id="PolyCollection_1">
    <path clip-path="url(#p69c8bb317d)" d="M 46.0125 511.289334 
L 46.0125 568.46 
L 59.101189 568.46 
L 72.189877 568.46 
L 85.278566 568.46 
L 98.367254 568.46 
L 111.455943 568.46 
L 124.544631 568.46 
L 137.63332 568.46 
L 150.722008 568.46 
L 163.810697 568.46 
L 176.899385 568.46 
L 189.988074 568.46 
L 203.076762 568.46 
L 216.165451 568.46 
L 229.254139 568.46 
L 242.342828 568.46 
L 255.431516 568.46 
L 268.520205 568.46 
L 281.608893 568.46 
L 294.697582 568.46 
L 307.78627 568.46 
L 320.874959 568.46 
L 333.963648 568.46 
L 347.052336 568.46 
L 360.141025 568.46 
L 373.229713 568.46 
L 386.318402 568.46 
L 399.40709 568.46 
L 412.495779 568.46 
L 425.584467 568.46 
L 438.673156 568.46 
L 451.761844 568.46 
L 464.850533 568.46 
L 477.939221 568.46 
L 491.02791 568.46 
L 504.116598 568.46 
L 517.205287 568.46 
L 530.293975 568.46 
L 543.382664 568.46 
L 556.471352 568.46 
L 569.560041 568.46 
L 582.64873 568.46 
L 595.737418 568.46 
L 608.826107 568.46 
L 621.914795 568.46 
L 635.003484 568.46 
L 648.092172 568.46 
L 661.180861 568.46 
L 674.269549 568.46 
L 687.358238 568.46 
L 700.446926 568.46 
L 713.535615 568.46 
L 726.624303 568.46 
L 739.712992 568.46 
L 752.80168 568.46 
L 765.890369 568.46 
L 778.979057 568.46 
L 792.067746 568.46 
L 805.156434 568.46 
L 818.245123 568.46 
L 831.333811 568.46 
L 844.4225 568.46 
L 844.4225 524.010093 
L 844.4225 524.010093 
L 831.333811 530.696996 
L 818.245123 539.87816 
L 805.156434 423.313097 
L 792.067746 534.537771 
L 778.979057 525.567381 
L 765.890369 530.828715 
L 752.80168 534.55131 
L 739.712992 544.734588 
L 726.624303 543.572383 
L 713.535615 546.105865 
L 700.446926 537.23089 
L 687.358238 539.473813 
L 674.269549 541.429101 
L 661.180861 544.942121 
L 648.092172 547.409588 
L 635.003484 547.399606 
L 621.914795 548.365344 
L 608.826107 546.634129 
L 595.737418 533.907705 
L 582.64873 539.778761 
L 569.560041 537.334896 
L 556.471352 546.804843 
L 543.382664 540.448676 
L 530.293975 537.504947 
L 517.205287 530.888353 
L 504.116598 487.064447 
L 491.02791 521.146629 
L 477.939221 530.657947 
L 464.850533 495.842519 
L 451.761844 541.261421 
L 438.673156 529.510123 
L 425.584467 530.14064 
L 412.495779 512.694518 
L 399.40709 537.551648 
L 386.318402 532.576487 
L 373.229713 534.206235 
L 360.141025 530.635445 
L 347.052336 519.7778 
L 333.963648 512.180221 
L 320.874959 498.445833 
L 307.78627 514.544121 
L 294.697582 510.043274 
L 281.608893 522.69771 
L 268.520205 516.354158 
L 255.431516 518.499201 
L 242.342828 497.414017 
L 229.254139 511.114261 
L 216.165451 505.311514 
L 203.076762 522.855905 
L 189.988074 502.688367 
L 176.899385 501.151334 
L 163.810697 527.851473 
L 150.722008 519.472479 
L 137.63332 503.469685 
L 124.544631 494.370695 
L 111.455943 510.113176 
L 98.367254 512.587377 
L 85.278566 509.254637 
L 72.189877 510.583205 
L 59.101189 495.884075 
L 46.0125 511.289334 
z
" style="fill:#1f77b4;"/>
   </g>
   <g id="PolyCollection_2">
    <path clip-path="url(#p69c8bb317d)" d="M 46.0125 419.152252 
L 46.0125 511.289334 
L 59.101189 495.884075 
L 72.189877 510.583205 
L 85.278566 509.254637 
L 98.367254 512.587377 
L 111.455943 510.113176 
L 124.544631 494.370695 
L 137.63332 503.469685 
L 150.722008 519.472479 
L 163.810697 527.851473 
L 176.899385 501.151334 
L 189.988074 502.688367 
L 203.076762 522.855905 
L 216.165451 505.311514 
L 229.254139 511.114261 
L 242.342828 497.414017 
L 255.431516 518.499201 
L 268.520205 516.354158 
L 281.608893 522.69771 
L 294.697582 510.043274 
L 307.78627 514.544121 
L 320.874959 498.445833 
L 333.963648 512.180221 
L 347.052336 519.7778 
L 360.141025 530.635445 
L 373.229713 534.206235 
L 386.318402 532.576487 
L 399.40709 537.551648 
L 412.495779 512.694518 
L 425.584467 530.14064 
L 438.673156 529.510123 
L 451.761844 541.261421 
L 464.850533 495.842519 
L 477.939221 530.657947 
L 491.02791 521.146629 
L 504.116598 487.064447 
L 517.205287 530.888353 
L 530.293975 537.504947 
L 543.382664 540.448676 
L 556.471352 546.804843 
L 569.560041 537.334896 
L 582.64873 539.778761 
L 595.737418 533.907705 
L 608.826107 546.634129 
L 621.914795 548.365344 
L 635.003484 547.399606 
L 648.092172 547.409588 
L 661.180861 544.942121 
L 674.269549 541.429101 
L 687.358238 539.473813 
L 700.446926 537.23089 
L 713.535615 546.105865 
L 726.624303 543.572383 
L 739.712992 544.734588 
L 752.80168 534.55131 
L 765.890369 530.828715 
L 778.979057 525.567381 
L 792.067746 534.537771 
L 805.156434 423.313097 
L 818.245123 539.87816 
L 831.333811 530.696996 
L 844.4225 524.010093 
L 844.4225 507.33511 
L 844.4225 507.33511 
L 831.333811 519.391367 
L 818.245123 533.09087 
L 805.156434 410.294886 
L 792.067746 521.088655 
L 778.979057 494.471056 
L 765.890369 504.217326 
L 752.80168 526.673625 
L 739.712992 531.615013 
L 726.624303 528.819445 
L 713.535615 533.767659 
L 700.446926 514.109745 
L 687.358238 513.429991 
L 674.269549 528.12847 
L 661.180861 529.824879 
L 648.092172 515.084164 
L 635.003484 533.524245 
L 621.914795 528.810399 
L 608.826107 524.107634 
L 595.737418 508.683869 
L 582.64873 519.470319 
L 569.560041 518.779906 
L 556.471352 534.554508 
L 543.382664 521.487987 
L 530.293975 514.597451 
L 517.205287 514.732366 
L 504.116598 457.043466 
L 491.02791 493.294765 
L 477.939221 508.435137 
L 464.850533 460.473314 
L 451.761844 483.882445 
L 438.673156 497.316938 
L 425.584467 491.621244 
L 412.495779 464.684946 
L 399.40709 505.174327 
L 386.318402 501.918991 
L 373.229713 504.383012 
L 360.141025 494.59119 
L 347.052336 476.217463 
L 333.963648 463.288184 
L 320.874959 451.203457 
L 307.78627 466.240704 
L 294.697582 458.619095 
L 281.608893 474.282168 
L 268.520205 471.05271 
L 255.431516 466.543548 
L 242.342828 427.256459 
L 229.254139 445.037387 
L 216.165451 437.031451 
L 203.076762 471.382448 
L 189.988074 455.171039 
L 176.899385 458.223283 
L 163.810697 473.752305 
L 150.722008 450.029147 
L 137.63332 427.308171 
L 124.544631 401.962892 
L 111.455943 438.348246 
L 98.367254 446.758145 
L 85.278566 429.505122 
L 72.189877 443.935902 
L 59.101189 397.486126 
L 46.0125 419.152252 
z
" style="fill:#ff7f0e;"/>
   </g>
   <g id="PolyCollection_3">
    <path clip-path="url(#p69c8bb317d)" d="M 46.0125 328.804482 
L 46.0125 419.152252 
L 59.101189 397.486126 
L 72.189877 443.935902 
L 85.278566 429.505122 
L 98.367254 446.758145 
L 111.455943 438.348246 
L 124.544631 401.962892 
L 137.63332 427.308171 
L 150.722008 450.029147 
L 163.810697 473.752305 
L 176.899385 458.223283 
L 189.988074 455.171039 
L 203.076762 471.382448 
L 216.165451 437.031451 
L 229.254139 445.037387 
L 242.342828 427.256459 
L 255.431516 466.543548 
L 268.520205 471.05271 
L 281.608893 474.282168 
L 294.697582 458.619095 
L 307.78627 466.240704 
L 320.874959 451.203457 
L 333.963648 463.288184 
L 347.052336 476.217463 
L 360.141025 494.59119 
L 373.229713 504.383012 
L 386.318402 501.918991 
L 399.40709 505.174327 
L 412.495779 464.684946 
L 425.584467 491.621244 
L 438.673156 497.316938 
L 451.761844 483.882445 
L 464.850533 460.473314 
L 477.939221 508.435137 
L 491.02791 493.294765 
L 504.116598 457.043466 
L 517.205287 514.732366 
L 530.293975 514.597451 
L 543.382664 521.487987 
L 556.471352 534.554508 
L 569.560041 518.779906 
L 582.64873 519.470319 
L 595.737418 508.683869 
L 608.826107 524.107634 
L 621.914795 528.810399 
L 635.003484 533.524245 
L 648.092172 515.084164 
L 661.180861 529.824879 
L 674.269549 528.12847 
L 687.358238 513.429991 
L 700.446926 514.109745 
L 713.535615 533.767659 
L 726.624303 528.819445 
L 739.712992 531.615013 
L 752.80168 526.673625 
L 765.890369 504.217326 
L 778.979057 494.471056 
L 792.067746 521.088655 
L 805.156434 410.294886 
L 818.245123 533.09087 
L 831.333811 519.391367 
L 844.4225 507.33511 
L 844.4225 191.658918 
L 844.4225 191.658918 
L 831.333811 276.249252 
L 818.245123 301.134481 
L 805.156434 251.592445 
L 792.067746 341.274534 
L 778.979057 265.299441 
L 765.890369 285.241423 
L 752.80168 329.714151 
L 739.712992 372.517048 
L 726.624303 393.102382 
L 713.535615 412.845433 
L 700.446926 354.447488 
L 687.358238 354.753146 
L 674.269549 407.711097 
L 661.180861 422.820605 
L 648.092172 384.484181 
L 635.003484 438.987693 
L 621.914795 426.117586 
L 608.826107 409.112095 
L 595.737418 382.153828 
L 582.64873 427.188141 
L 569.560041 429.385109 
L 556.471352 464.902497 
L 543.382664 430.675319 
L 530.293975 437.883461 
L 517.205287 441.317494 
L 504.116598 365.16915 
L 491.02791 394.780747 
L 477.939221 444.161116 
L 464.850533 368.14185 
L 451.761844 420.84456 
L 438.673156 426.373853 
L 425.584467 422.966821 
L 412.495779 370.262497 
L 399.40709 427.761029 
L 386.318402 444.708665 
L 373.229713 443.622652 
L 360.141025 431.204977 
L 347.052336 405.941881 
L 333.963648 379.264317 
L 320.874959 389.830378 
L 307.78627 401.428855 
L 294.697582 377.345369 
L 281.608893 395.717425 
L 268.520205 419.580698 
L 255.431516 413.807907 
L 242.342828 354.107039 
L 229.254139 375.891782 
L 216.165451 365.732355 
L 203.076762 410.110751 
L 189.988074 392.950591 
L 176.899385 403.237373 
L 163.810697 417.630067 
L 150.722008 382.685111 
L 137.63332 361.357981 
L 124.544631 337.031891 
L 111.455943 377.021353 
L 98.367254 384.423273 
L 85.278566 374.545425 
L 72.189877 387.480031 
L 59.101189 327.494765 
L 46.0125 328.804482 
z
" style="fill:#2ca02c;"/>
   </g>
   <g id="PolyCollection_4">
    <path clip-path="url(#p69c8bb317d)" d="M 46.0125 300.28022 
L 46.0125 328.804482 
L 59.101189 327.494765 
L 72.189877 387.480031 
L 85.278566 374.545425 
L 98.367254 384.423273 
L 111.455943 377.021353 
L 124.544631 337.031891 
L 137.63332 361.357981 
L 150.722008 382.685111 
L 163.810697 417.630067 
L 176.899385 403.237373 
L 189.988074 392.950591 
L 203.076762 410.110751 
L 216.165451 365.732355 
L 229.254139 375.891782 
L 242.342828 354.107039 
L 255.431516 413.807907 
L 268.520205 419.580698 
L 281.608893 395.717425 
L 294.697582 377.345369 
L 307.78627 401.428855 
L 320.874959 389.830378 
L 333.963648 379.264317 
L 347.052336 405.941881 
L 360.141025 431.204977 
L 373.229713 443.622652 
L 386.318402 444.708665 
L 399.40709 427.761029 
L 412.495779 370.262497 
L 425.584467 422.966821 
L 438.673156 426.373853 
L 451.761844 420.84456 
L 464.850533 368.14185 
L 477.939221 444.161116 
L 491.02791 394.780747 
L 504.116598 365.16915 
L 517.205287 441.317494 
L 530.293975 437.883461 
L 543.382664 430.675319 
L 556.471352 464.902497 
L 569.560041 429.385109 
L 582.64873 427.188141 
L 595.737418 382.153828 
L 608.826107 409.112095 
L 621.914795 426.117586 
L 635.003484 438.987693 
L 648.092172 384.484181 
L 661.180861 422.820605 
L 674.269549 407.711097 
L 687.358238 354.753146 
L 700.446926 354.447488 
L 713.535615 412.845433 
L 726.624303 393.102382 
L 739.712992 372.517048 
L 752.80168 329.714151 
L 765.890369 285.241423 
L 778.979057 265.299441 
L 792.067746 341.274534 
L 805.156434 251.592445 
L 818.245123 301.134481 
L 831.333811 276.249252 
L 844.4225 191.658918 
L 844.4225 33.926667 
L 844.4225 33.926667 
L 831.333811 147.585997 
L 818.245123 209.465944 
L 805.156434 144.430342 
L 792.067746 230.968142 
L 778.979057 145.737145 
L 765.890369 193.421621 
L 752.80168 222.995223 
L 739.712992 282.292982 
L 726.624303 317.28805 
L 713.535615 333.982564 
L 700.446926 250.603285 
L 687.358238 264.505409 
L 674.269549 336.676881 
L 661.180861 357.363681 
L 648.092172 331.145115 
L 635.003484 398.044034 
L 621.914795 363.234422 
L 608.826107 347.684242 
L 595.737418 325.153996 
L 582.64873 374.288209 
L 569.560041 388.45372 
L 556.471352 426.282666 
L 543.382664 388.527901 
L 530.293975 385.288557 
L 517.205287 386.66194 
L 504.116598 306.51628 
L 491.02791 356.466643 
L 477.939221 399.079 
L 464.850533 328.144423 
L 451.761844 391.495015 
L 438.673156 375.721881 
L 425.584467 370.129449 
L 412.495779 319.14799 
L 399.40709 396.795775 
L 386.318402 412.016214 
L 373.229713 418.61064 
L 360.141025 404.954579 
L 347.052336 372.735552 
L 333.963648 337.473379 
L 320.874959 360.996264 
L 307.78627 369.096324 
L 294.697582 348.076749 
L 281.608893 366.253559 
L 268.520205 395.064401 
L 255.431516 387.591533 
L 242.342828 315.443537 
L 229.254139 343.053835 
L 216.165451 333.689897 
L 203.076762 383.6419 
L 189.988074 364.574239 
L 176.899385 374.166746 
L 163.810697 390.150404 
L 150.722008 347.355328 
L 137.63332 331.24279 
L 124.544631 302.970548 
L 111.455943 341.541892 
L 98.367254 356.699412 
L 85.278566 350.053228 
L 72.189877 363.956923 
L 59.101189 293.095883 
L 46.0125 300.28022 
z
" style="fill:#d62728;"/>
   </g>
   <g id="matplotlib.axis_1">
    <g id="xtick_1">
     <g id="line2d_1">
      <defs>
       <path d="M 0 0 
L 0 3.5 
" id="md967448b4c" style="stroke:#000000;stroke-width:0.8;"/>
      </defs>
      <g>
       <use style="stroke:#000000;stroke-width:0.8;" x="46.0125" xlink:href="#md967448b4c" y="568.46"/>
      </g>
     </g>
     <g id="text_1">
      <!-- 2020-05-02 -->
      <defs>
       <path d="M 19.1875 8.296875 
L 53.609375 8.296875 
L 53.609375 0 
L 7.328125 0 
L 7.328125 8.296875 
Q 12.9375 14.109375 22.625 23.890625 
Q 32.328125 33.6875 34.8125 36.53125 
Q 39.546875 41.84375 41.421875 45.53125 
Q 43.3125 49.21875 43.3125 52.78125 
Q 43.3125 58.59375 39.234375 62.25 
Q 35.15625 65.921875 28.609375 65.921875 
Q 23.96875 65.921875 18.8125 64.3125 
Q 13.671875 62.703125 7.8125 59.421875 
L 7.8125 69.390625 
Q 13.765625 71.78125 18.9375 73 
Q 24.125 74.21875 28.421875 74.21875 
Q 39.75 74.21875 46.484375 68.546875 
Q 53.21875 62.890625 53.21875 53.421875 
Q 53.21875 48.921875 51.53125 44.890625 
Q 49.859375 40.875 45.40625 35.40625 
Q 44.1875 33.984375 37.640625 27.21875 
Q 31.109375 20.453125 19.1875 8.296875 
z
" id="DejaVuSans-50"/>
       <path d="M 31.78125 66.40625 
Q 24.171875 66.40625 20.328125 58.90625 
Q 16.5 51.421875 16.5 36.375 
Q 16.5 21.390625 20.328125 13.890625 
Q 24.171875 6.390625 31.78125 6.390625 
Q 39.453125 6.390625 43.28125 13.890625 
Q 47.125 21.390625 47.125 36.375 
Q 47.125 51.421875 43.28125 58.90625 
Q 39.453125 66.40625 31.78125 66.40625 
z
M 31.78125 74.21875 
Q 44.046875 74.21875 50.515625 64.515625 
Q 56.984375 54.828125 56.984375 36.375 
Q 56.984375 17.96875 50.515625 8.265625 
Q 44.046875 -1.421875 31.78125 -1.421875 
Q 19.53125 -1.421875 13.0625 8.265625 
Q 6.59375 17.96875 6.59375 36.375 
Q 6.59375 54.828125 13.0625 64.515625 
Q 19.53125 74.21875 31.78125 74.21875 
z
" id="DejaVuSans-48"/>
       <path d="M 4.890625 31.390625 
L 31.203125 31.390625 
L 31.203125 23.390625 
L 4.890625 23.390625 
z
" id="DejaVuSans-45"/>
       <path d="M 10.796875 72.90625 
L 49.515625 72.90625 
L 49.515625 64.59375 
L 19.828125 64.59375 
L 19.828125 46.734375 
Q 21.96875 47.46875 24.109375 47.828125 
Q 26.265625 48.1875 28.421875 48.1875 
Q 40.625 48.1875 47.75 41.5 
Q 54.890625 34.8125 54.890625 23.390625 
Q 54.890625 11.625 47.5625 5.09375 
Q 40.234375 -1.421875 26.90625 -1.421875 
Q 22.3125 -1.421875 17.546875 -0.640625 
Q 12.796875 0.140625 7.71875 1.703125 
L 7.71875 11.625 
Q 12.109375 9.234375 16.796875 8.0625 
Q 21.484375 6.890625 26.703125 6.890625 
Q 35.15625 6.890625 40.078125 11.328125 
Q 45.015625 15.765625 45.015625 23.390625 
Q 45.015625 31 40.078125 35.4375 
Q 35.15625 39.890625 26.703125 39.890625 
Q 22.75 39.890625 18.8125 39.015625 
Q 14.890625 38.140625 10.796875 36.28125 
z
" id="DejaVuSans-53"/>
      </defs>
      <g transform="translate(48.771875 633.575625)rotate(-90)scale(0.1 -0.1)">
       <use xlink:href="#DejaVuSans-50"/>
       <use x="63.623047" xlink:href="#DejaVuSans-48"/>
       <use x="127.246094" xlink:href="#DejaVuSans-50"/>
       <use x="190.869141" xlink:href="#DejaVuSans-48"/>
       <use x="254.492188" xlink:href="#DejaVuSans-45"/>
       <use x="290.576172" xlink:href="#DejaVuSans-48"/>
       <use x="354.199219" xlink:href="#DejaVuSans-53"/>
       <use x="417.822266" xlink:href="#DejaVuSans-45"/>
       <use x="453.90625" xlink:href="#DejaVuSans-48"/>
       <use x="517.529297" xlink:href="#DejaVuSans-50"/>
      </g>
     </g>
    </g>
    <g id="xtick_2">
     <g id="line2d_2">
      <g>
       <use style="stroke:#000000;stroke-width:0.8;" x="118.595227" xlink:href="#md967448b4c" y="568.46"/>
      </g>
     </g>
     <g id="text_2">
      <!-- 2020-05-07 -->
      <defs>
       <path d="M 8.203125 72.90625 
L 55.078125 72.90625 
L 55.078125 68.703125 
L 28.609375 0 
L 18.3125 0 
L 43.21875 64.59375 
L 8.203125 64.59375 
z
" id="DejaVuSans-55"/>
      </defs>
      <g transform="translate(121.354602 633.575625)rotate(-90)scale(0.1 -0.1)">
       <use xlink:href="#DejaVuSans-50"/>
       <use x="63.623047" xlink:href="#DejaVuSans-48"/>
       <use x="127.246094" xlink:href="#DejaVuSans-50"/>
       <use x="190.869141" xlink:href="#DejaVuSans-48"/>
       <use x="254.492188" xlink:href="#DejaVuSans-45"/>
       <use x="290.576172" xlink:href="#DejaVuSans-48"/>
       <use x="354.199219" xlink:href="#DejaVuSans-53"/>
       <use x="417.822266" xlink:href="#DejaVuSans-45"/>
       <use x="453.90625" xlink:href="#DejaVuSans-48"/>
       <use x="517.529297" xlink:href="#DejaVuSans-55"/>
      </g>
     </g>
    </g>
    <g id="xtick_3">
     <g id="line2d_3">
      <g>
       <use style="stroke:#000000;stroke-width:0.8;" x="191.177955" xlink:href="#md967448b4c" y="568.46"/>
      </g>
     </g>
     <g id="text_3">
      <!-- 2020-05-13 -->
      <defs>
       <path d="M 12.40625 8.296875 
L 28.515625 8.296875 
L 28.515625 63.921875 
L 10.984375 60.40625 
L 10.984375 69.390625 
L 28.421875 72.90625 
L 38.28125 72.90625 
L 38.28125 8.296875 
L 54.390625 8.296875 
L 54.390625 0 
L 12.40625 0 
z
" id="DejaVuSans-49"/>
       <path d="M 40.578125 39.3125 
Q 47.65625 37.796875 51.625 33 
Q 55.609375 28.21875 55.609375 21.1875 
Q 55.609375 10.40625 48.1875 4.484375 
Q 40.765625 -1.421875 27.09375 -1.421875 
Q 22.515625 -1.421875 17.65625 -0.515625 
Q 12.796875 0.390625 7.625 2.203125 
L 7.625 11.71875 
Q 11.71875 9.328125 16.59375 8.109375 
Q 21.484375 6.890625 26.8125 6.890625 
Q 36.078125 6.890625 40.9375 10.546875 
Q 45.796875 14.203125 45.796875 21.1875 
Q 45.796875 27.640625 41.28125 31.265625 
Q 36.765625 34.90625 28.71875 34.90625 
L 20.21875 34.90625 
L 20.21875 43.015625 
L 29.109375 43.015625 
Q 36.375 43.015625 40.234375 45.921875 
Q 44.09375 48.828125 44.09375 54.296875 
Q 44.09375 59.90625 40.109375 62.90625 
Q 36.140625 65.921875 28.71875 65.921875 
Q 24.65625 65.921875 20.015625 65.03125 
Q 15.375 64.15625 9.8125 62.3125 
L 9.8125 71.09375 
Q 15.4375 72.65625 20.34375 73.4375 
Q 25.25 74.21875 29.59375 74.21875 
Q 40.828125 74.21875 47.359375 69.109375 
Q 53.90625 64.015625 53.90625 55.328125 
Q 53.90625 49.265625 50.4375 45.09375 
Q 46.96875 40.921875 40.578125 39.3125 
z
" id="DejaVuSans-51"/>
      </defs>
      <g transform="translate(193.93733 633.575625)rotate(-90)scale(0.1 -0.1)">
       <use xlink:href="#DejaVuSans-50"/>
       <use x="63.623047" xlink:href="#DejaVuSans-48"/>
       <use x="127.246094" xlink:href="#DejaVuSans-50"/>
       <use x="190.869141" xlink:href="#DejaVuSans-48"/>
       <use x="254.492188" xlink:href="#DejaVuSans-45"/>
       <use x="290.576172" xlink:href="#DejaVuSans-48"/>
       <use x="354.199219" xlink:href="#DejaVuSans-53"/>
       <use x="417.822266" xlink:href="#DejaVuSans-45"/>
       <use x="453.90625" xlink:href="#DejaVuSans-49"/>
       <use x="517.529297" xlink:href="#DejaVuSans-51"/>
      </g>
     </g>
    </g>
    <g id="xtick_4">
     <g id="line2d_4">
      <g>
       <use style="stroke:#000000;stroke-width:0.8;" x="263.760682" xlink:href="#md967448b4c" y="568.46"/>
      </g>
     </g>
     <g id="text_4">
      <!-- 2020-05-18 -->
      <defs>
       <path d="M 31.78125 34.625 
Q 24.75 34.625 20.71875 30.859375 
Q 16.703125 27.09375 16.703125 20.515625 
Q 16.703125 13.921875 20.71875 10.15625 
Q 24.75 6.390625 31.78125 6.390625 
Q 38.8125 6.390625 42.859375 10.171875 
Q 46.921875 13.96875 46.921875 20.515625 
Q 46.921875 27.09375 42.890625 30.859375 
Q 38.875 34.625 31.78125 34.625 
z
M 21.921875 38.8125 
Q 15.578125 40.375 12.03125 44.71875 
Q 8.5 49.078125 8.5 55.328125 
Q 8.5 64.0625 14.71875 69.140625 
Q 20.953125 74.21875 31.78125 74.21875 
Q 42.671875 74.21875 48.875 69.140625 
Q 55.078125 64.0625 55.078125 55.328125 
Q 55.078125 49.078125 51.53125 44.71875 
Q 48 40.375 41.703125 38.8125 
Q 48.828125 37.15625 52.796875 32.3125 
Q 56.78125 27.484375 56.78125 20.515625 
Q 56.78125 9.90625 50.3125 4.234375 
Q 43.84375 -1.421875 31.78125 -1.421875 
Q 19.734375 -1.421875 13.25 4.234375 
Q 6.78125 9.90625 6.78125 20.515625 
Q 6.78125 27.484375 10.78125 32.3125 
Q 14.796875 37.15625 21.921875 38.8125 
z
M 18.3125 54.390625 
Q 18.3125 48.734375 21.84375 45.5625 
Q 25.390625 42.390625 31.78125 42.390625 
Q 38.140625 42.390625 41.71875 45.5625 
Q 45.3125 48.734375 45.3125 54.390625 
Q 45.3125 60.0625 41.71875 63.234375 
Q 38.140625 66.40625 31.78125 66.40625 
Q 25.390625 66.40625 21.84375 63.234375 
Q 18.3125 60.0625 18.3125 54.390625 
z
" id="DejaVuSans-56"/>
      </defs>
      <g transform="translate(266.520057 633.575625)rotate(-90)scale(0.1 -0.1)">
       <use xlink:href="#DejaVuSans-50"/>
       <use x="63.623047" xlink:href="#DejaVuSans-48"/>
       <use x="127.246094" xlink:href="#DejaVuSans-50"/>
       <use x="190.869141" xlink:href="#DejaVuSans-48"/>
       <use x="254.492188" xlink:href="#DejaVuSans-45"/>
       <use x="290.576172" xlink:href="#DejaVuSans-48"/>
       <use x="354.199219" xlink:href="#DejaVuSans-53"/>
       <use x="417.822266" xlink:href="#DejaVuSans-45"/>
       <use x="453.90625" xlink:href="#DejaVuSans-49"/>
       <use x="517.529297" xlink:href="#DejaVuSans-56"/>
      </g>
     </g>
    </g>
    <g id="xtick_5">
     <g id="line2d_5">
      <g>
       <use style="stroke:#000000;stroke-width:0.8;" x="336.343409" xlink:href="#md967448b4c" y="568.46"/>
      </g>
     </g>
     <g id="text_5">
      <!-- 2020-05-24 -->
      <defs>
       <path d="M 37.796875 64.3125 
L 12.890625 25.390625 
L 37.796875 25.390625 
z
M 35.203125 72.90625 
L 47.609375 72.90625 
L 47.609375 25.390625 
L 58.015625 25.390625 
L 58.015625 17.1875 
L 47.609375 17.1875 
L 47.609375 0 
L 37.796875 0 
L 37.796875 17.1875 
L 4.890625 17.1875 
L 4.890625 26.703125 
z
" id="DejaVuSans-52"/>
      </defs>
      <g transform="translate(339.102784 633.575625)rotate(-90)scale(0.1 -0.1)">
       <use xlink:href="#DejaVuSans-50"/>
       <use x="63.623047" xlink:href="#DejaVuSans-48"/>
       <use x="127.246094" xlink:href="#DejaVuSans-50"/>
       <use x="190.869141" xlink:href="#DejaVuSans-48"/>
       <use x="254.492188" xlink:href="#DejaVuSans-45"/>
       <use x="290.576172" xlink:href="#DejaVuSans-48"/>
       <use x="354.199219" xlink:href="#DejaVuSans-53"/>
       <use x="417.822266" xlink:href="#DejaVuSans-45"/>
       <use x="453.90625" xlink:href="#DejaVuSans-50"/>
       <use x="517.529297" xlink:href="#DejaVuSans-52"/>
      </g>
     </g>
    </g>
    <g id="xtick_6">
     <g id="line2d_6">
      <g>
       <use style="stroke:#000000;stroke-width:0.8;" x="408.926136" xlink:href="#md967448b4c" y="568.46"/>
      </g>
     </g>
     <g id="text_6">
      <!-- 2020-05-29 -->
      <defs>
       <path d="M 10.984375 1.515625 
L 10.984375 10.5 
Q 14.703125 8.734375 18.5 7.8125 
Q 22.3125 6.890625 25.984375 6.890625 
Q 35.75 6.890625 40.890625 13.453125 
Q 46.046875 20.015625 46.78125 33.40625 
Q 43.953125 29.203125 39.59375 26.953125 
Q 35.25 24.703125 29.984375 24.703125 
Q 19.046875 24.703125 12.671875 31.3125 
Q 6.296875 37.9375 6.296875 49.421875 
Q 6.296875 60.640625 12.9375 67.421875 
Q 19.578125 74.21875 30.609375 74.21875 
Q 43.265625 74.21875 49.921875 64.515625 
Q 56.59375 54.828125 56.59375 36.375 
Q 56.59375 19.140625 48.40625 8.859375 
Q 40.234375 -1.421875 26.421875 -1.421875 
Q 22.703125 -1.421875 18.890625 -0.6875 
Q 15.09375 0.046875 10.984375 1.515625 
z
M 30.609375 32.421875 
Q 37.25 32.421875 41.125 36.953125 
Q 45.015625 41.5 45.015625 49.421875 
Q 45.015625 57.28125 41.125 61.84375 
Q 37.25 66.40625 30.609375 66.40625 
Q 23.96875 66.40625 20.09375 61.84375 
Q 16.21875 57.28125 16.21875 49.421875 
Q 16.21875 41.5 20.09375 36.953125 
Q 23.96875 32.421875 30.609375 32.421875 
z
" id="DejaVuSans-57"/>
      </defs>
      <g transform="translate(411.685511 633.575625)rotate(-90)scale(0.1 -0.1)">
       <use xlink:href="#DejaVuSans-50"/>
       <use x="63.623047" xlink:href="#DejaVuSans-48"/>
       <use x="127.246094" xlink:href="#DejaVuSans-50"/>
       <use x="190.869141" xlink:href="#DejaVuSans-48"/>
       <use x="254.492188" xlink:href="#DejaVuSans-45"/>
       <use x="290.576172" xlink:href="#DejaVuSans-48"/>
       <use x="354.199219" xlink:href="#DejaVuSans-53"/>
       <use x="417.822266" xlink:href="#DejaVuSans-45"/>
       <use x="453.90625" xlink:href="#DejaVuSans-50"/>
       <use x="517.529297" xlink:href="#DejaVuSans-57"/>
      </g>
     </g>
    </g>
    <g id="xtick_7">
     <g id="line2d_7">
      <g>
       <use style="stroke:#000000;stroke-width:0.8;" x="481.508864" xlink:href="#md967448b4c" y="568.46"/>
      </g>
     </g>
     <g id="text_7">
      <!-- 2020-06-04 -->
      <defs>
       <path d="M 33.015625 40.375 
Q 26.375 40.375 22.484375 35.828125 
Q 18.609375 31.296875 18.609375 23.390625 
Q 18.609375 15.53125 22.484375 10.953125 
Q 26.375 6.390625 33.015625 6.390625 
Q 39.65625 6.390625 43.53125 10.953125 
Q 47.40625 15.53125 47.40625 23.390625 
Q 47.40625 31.296875 43.53125 35.828125 
Q 39.65625 40.375 33.015625 40.375 
z
M 52.59375 71.296875 
L 52.59375 62.3125 
Q 48.875 64.0625 45.09375 64.984375 
Q 41.3125 65.921875 37.59375 65.921875 
Q 27.828125 65.921875 22.671875 59.328125 
Q 17.53125 52.734375 16.796875 39.40625 
Q 19.671875 43.65625 24.015625 45.921875 
Q 28.375 48.1875 33.59375 48.1875 
Q 44.578125 48.1875 50.953125 41.515625 
Q 57.328125 34.859375 57.328125 23.390625 
Q 57.328125 12.15625 50.6875 5.359375 
Q 44.046875 -1.421875 33.015625 -1.421875 
Q 20.359375 -1.421875 13.671875 8.265625 
Q 6.984375 17.96875 6.984375 36.375 
Q 6.984375 53.65625 15.1875 63.9375 
Q 23.390625 74.21875 37.203125 74.21875 
Q 40.921875 74.21875 44.703125 73.484375 
Q 48.484375 72.75 52.59375 71.296875 
z
" id="DejaVuSans-54"/>
      </defs>
      <g transform="translate(484.268239 633.575625)rotate(-90)scale(0.1 -0.1)">
       <use xlink:href="#DejaVuSans-50"/>
       <use x="63.623047" xlink:href="#DejaVuSans-48"/>
       <use x="127.246094" xlink:href="#DejaVuSans-50"/>
       <use x="190.869141" xlink:href="#DejaVuSans-48"/>
       <use x="254.492188" xlink:href="#DejaVuSans-45"/>
       <use x="290.576172" xlink:href="#DejaVuSans-48"/>
       <use x="354.199219" xlink:href="#DejaVuSans-54"/>
       <use x="417.822266" xlink:href="#DejaVuSans-45"/>
       <use x="453.90625" xlink:href="#DejaVuSans-48"/>
       <use x="517.529297" xlink:href="#DejaVuSans-52"/>
      </g>
     </g>
    </g>
    <g id="xtick_8">
     <g id="line2d_8">
      <g>
       <use style="stroke:#000000;stroke-width:0.8;" x="554.091591" xlink:href="#md967448b4c" y="568.46"/>
      </g>
     </g>
     <g id="text_8">
      <!-- 2020-06-09 -->
      <g transform="translate(556.850966 633.575625)rotate(-90)scale(0.1 -0.1)">
       <use xlink:href="#DejaVuSans-50"/>
       <use x="63.623047" xlink:href="#DejaVuSans-48"/>
       <use x="127.246094" xlink:href="#DejaVuSans-50"/>
       <use x="190.869141" xlink:href="#DejaVuSans-48"/>
       <use x="254.492188" xlink:href="#DejaVuSans-45"/>
       <use x="290.576172" xlink:href="#DejaVuSans-48"/>
       <use x="354.199219" xlink:href="#DejaVuSans-54"/>
       <use x="417.822266" xlink:href="#DejaVuSans-45"/>
       <use x="453.90625" xlink:href="#DejaVuSans-48"/>
       <use x="517.529297" xlink:href="#DejaVuSans-57"/>
      </g>
     </g>
    </g>
    <g id="xtick_9">
     <g id="line2d_9">
      <g>
       <use style="stroke:#000000;stroke-width:0.8;" x="626.674318" xlink:href="#md967448b4c" y="568.46"/>
      </g>
     </g>
     <g id="text_9">
      <!-- 2020-06-15 -->
      <g transform="translate(629.433693 633.575625)rotate(-90)scale(0.1 -0.1)">
       <use xlink:href="#DejaVuSans-50"/>
       <use x="63.623047" xlink:href="#DejaVuSans-48"/>
       <use x="127.246094" xlink:href="#DejaVuSans-50"/>
       <use x="190.869141" xlink:href="#DejaVuSans-48"/>
       <use x="254.492188" xlink:href="#DejaVuSans-45"/>
       <use x="290.576172" xlink:href="#DejaVuSans-48"/>
       <use x="354.199219" xlink:href="#DejaVuSans-54"/>
       <use x="417.822266" xlink:href="#DejaVuSans-45"/>
       <use x="453.90625" xlink:href="#DejaVuSans-49"/>
       <use x="517.529297" xlink:href="#DejaVuSans-53"/>
      </g>
     </g>
    </g>
    <g id="xtick_10">
     <g id="line2d_10">
      <g>
       <use style="stroke:#000000;stroke-width:0.8;" x="699.257045" xlink:href="#md967448b4c" y="568.46"/>
      </g>
     </g>
     <g id="text_10">
      <!-- 2020-06-20 -->
      <g transform="translate(702.01642 633.575625)rotate(-90)scale(0.1 -0.1)">
       <use xlink:href="#DejaVuSans-50"/>
       <use x="63.623047" xlink:href="#DejaVuSans-48"/>
       <use x="127.246094" xlink:href="#DejaVuSans-50"/>
       <use x="190.869141" xlink:href="#DejaVuSans-48"/>
       <use x="254.492188" xlink:href="#DejaVuSans-45"/>
       <use x="290.576172" xlink:href="#DejaVuSans-48"/>
       <use x="354.199219" xlink:href="#DejaVuSans-54"/>
       <use x="417.822266" xlink:href="#DejaVuSans-45"/>
       <use x="453.90625" xlink:href="#DejaVuSans-50"/>
       <use x="517.529297" xlink:href="#DejaVuSans-48"/>
      </g>
     </g>
    </g>
    <g id="xtick_11">
     <g id="line2d_11">
      <g>
       <use style="stroke:#000000;stroke-width:0.8;" x="771.839773" xlink:href="#md967448b4c" y="568.46"/>
      </g>
     </g>
     <g id="text_11">
      <!-- 2020-06-26 -->
      <g transform="translate(774.599148 633.575625)rotate(-90)scale(0.1 -0.1)">
       <use xlink:href="#DejaVuSans-50"/>
       <use x="63.623047" xlink:href="#DejaVuSans-48"/>
       <use x="127.246094" xlink:href="#DejaVuSans-50"/>
       <use x="190.869141" xlink:href="#DejaVuSans-48"/>
       <use x="254.492188" xlink:href="#DejaVuSans-45"/>
       <use x="290.576172" xlink:href="#DejaVuSans-48"/>
       <use x="354.199219" xlink:href="#DejaVuSans-54"/>
       <use x="417.822266" xlink:href="#DejaVuSans-45"/>
       <use x="453.90625" xlink:href="#DejaVuSans-50"/>
       <use x="517.529297" xlink:href="#DejaVuSans-54"/>
      </g>
     </g>
    </g>
    <g id="xtick_12">
     <g id="line2d_12">
      <g>
       <use style="stroke:#000000;stroke-width:0.8;" x="844.4225" xlink:href="#md967448b4c" y="568.46"/>
      </g>
     </g>
     <g id="text_12">
      <!-- 2020-07-02 -->
      <g transform="translate(847.181875 633.575625)rotate(-90)scale(0.1 -0.1)">
       <use xlink:href="#DejaVuSans-50"/>
       <use x="63.623047" xlink:href="#DejaVuSans-48"/>
       <use x="127.246094" xlink:href="#DejaVuSans-50"/>
       <use x="190.869141" xlink:href="#DejaVuSans-48"/>
       <use x="254.492188" xlink:href="#DejaVuSans-45"/>
       <use x="290.576172" xlink:href="#DejaVuSans-48"/>
       <use x="354.199219" xlink:href="#DejaVuSans-55"/>
       <use x="417.822266" xlink:href="#DejaVuSans-45"/>
       <use x="453.90625" xlink:href="#DejaVuSans-48"/>
       <use x="517.529297" xlink:href="#DejaVuSans-50"/>
      </g>
     </g>
    </g>
   </g>
   <g id="matplotlib.axis_2">
    <g id="ytick_1">
     <g id="line2d_13">
      <defs>
       <path d="M 0 0 
L -3.5 0 
" id="mfbc32f58ee" style="stroke:#000000;stroke-width:0.8;"/>
      </defs>
      <g>
       <use style="stroke:#000000;stroke-width:0.8;" x="46.0125" xlink:href="#mfbc32f58ee" y="568.46"/>
      </g>
     </g>
     <g id="text_13">
      <!-- 0 -->
      <g transform="translate(32.65 572.259219)scale(0.1 -0.1)">
       <use xlink:href="#DejaVuSans-48"/>
      </g>
     </g>
    </g>
    <g id="ytick_2">
     <g id="line2d_14">
      <g>
       <use style="stroke:#000000;stroke-width:0.8;" x="46.0125" xlink:href="#mfbc32f58ee" y="475.737909"/>
      </g>
     </g>
     <g id="text_14">
      <!-- 10000 -->
      <g transform="translate(7.2 479.537127)scale(0.1 -0.1)">
       <use xlink:href="#DejaVuSans-49"/>
       <use x="63.623047" xlink:href="#DejaVuSans-48"/>
       <use x="127.246094" xlink:href="#DejaVuSans-48"/>
       <use x="190.869141" xlink:href="#DejaVuSans-48"/>
       <use x="254.492188" xlink:href="#DejaVuSans-48"/>
      </g>
     </g>
    </g>
    <g id="ytick_3">
     <g id="line2d_15">
      <g>
       <use style="stroke:#000000;stroke-width:0.8;" x="46.0125" xlink:href="#mfbc32f58ee" y="383.015817"/>
      </g>
     </g>
     <g id="text_15">
      <!-- 20000 -->
      <g transform="translate(7.2 386.815036)scale(0.1 -0.1)">
       <use xlink:href="#DejaVuSans-50"/>
       <use x="63.623047" xlink:href="#DejaVuSans-48"/>
       <use x="127.246094" xlink:href="#DejaVuSans-48"/>
       <use x="190.869141" xlink:href="#DejaVuSans-48"/>
       <use x="254.492188" xlink:href="#DejaVuSans-48"/>
      </g>
     </g>
    </g>
    <g id="ytick_4">
     <g id="line2d_16">
      <g>
       <use style="stroke:#000000;stroke-width:0.8;" x="46.0125" xlink:href="#mfbc32f58ee" y="290.293726"/>
      </g>
     </g>
     <g id="text_16">
      <!-- 30000 -->
      <g transform="translate(7.2 294.092945)scale(0.1 -0.1)">
       <use xlink:href="#DejaVuSans-51"/>
       <use x="63.623047" xlink:href="#DejaVuSans-48"/>
       <use x="127.246094" xlink:href="#DejaVuSans-48"/>
       <use x="190.869141" xlink:href="#DejaVuSans-48"/>
       <use x="254.492188" xlink:href="#DejaVuSans-48"/>
      </g>
     </g>
    </g>
    <g id="ytick_5">
     <g id="line2d_17">
      <g>
       <use style="stroke:#000000;stroke-width:0.8;" x="46.0125" xlink:href="#mfbc32f58ee" y="197.571634"/>
      </g>
     </g>
     <g id="text_17">
      <!-- 40000 -->
      <g transform="translate(7.2 201.370853)scale(0.1 -0.1)">
       <use xlink:href="#DejaVuSans-52"/>
       <use x="63.623047" xlink:href="#DejaVuSans-48"/>
       <use x="127.246094" xlink:href="#DejaVuSans-48"/>
       <use x="190.869141" xlink:href="#DejaVuSans-48"/>
       <use x="254.492188" xlink:href="#DejaVuSans-48"/>
      </g>
     </g>
    </g>
    <g id="ytick_6">
     <g id="line2d_18">
      <g>
       <use style="stroke:#000000;stroke-width:0.8;" x="46.0125" xlink:href="#mfbc32f58ee" y="104.849543"/>
      </g>
     </g>
     <g id="text_18">
      <!-- 50000 -->
      <g transform="translate(7.2 108.648762)scale(0.1 -0.1)">
       <use xlink:href="#DejaVuSans-53"/>
       <use x="63.623047" xlink:href="#DejaVuSans-48"/>
       <use x="127.246094" xlink:href="#DejaVuSans-48"/>
       <use x="190.869141" xlink:href="#DejaVuSans-48"/>
       <use x="254.492188" xlink:href="#DejaVuSans-48"/>
      </g>
     </g>
    </g>
    <g id="ytick_7">
     <g id="line2d_19">
      <g>
       <use style="stroke:#000000;stroke-width:0.8;" x="46.0125" xlink:href="#mfbc32f58ee" y="12.127452"/>
      </g>
     </g>
     <g id="text_19">
      <!-- 60000 -->
      <g transform="translate(7.2 15.92667)scale(0.1 -0.1)">
       <use xlink:href="#DejaVuSans-54"/>
       <use x="63.623047" xlink:href="#DejaVuSans-48"/>
       <use x="127.246094" xlink:href="#DejaVuSans-48"/>
       <use x="190.869141" xlink:href="#DejaVuSans-48"/>
       <use x="254.492188" xlink:href="#DejaVuSans-48"/>
      </g>
     </g>
    </g>
   </g>
   <g id="patch_3">
    <path d="M 46.0125 568.46 
L 46.0125 7.2 
" style="fill:none;stroke:#000000;stroke-linecap:square;stroke-linejoin:miter;stroke-width:0.8;"/>
   </g>
   <g id="patch_4">
    <path d="M 844.4225 568.46 
L 844.4225 7.2 
" style="fill:none;stroke:#000000;stroke-linecap:square;stroke-linejoin:miter;stroke-width:0.8;"/>
   </g>
   <g id="patch_5">
    <path d="M 46.0125 568.46 
L 844.4225 568.46 
" style="fill:none;stroke:#000000;stroke-linecap:square;stroke-linejoin:miter;stroke-width:0.8;"/>
   </g>
   <g id="patch_6">
    <path d="M 46.0125 7.2 
L 844.4225 7.2 
" style="fill:none;stroke:#000000;stroke-linecap:square;stroke-linejoin:miter;stroke-width:0.8;"/>
   </g>
   <g id="legend_1">
    <g id="patch_7">
     <path d="M 404.527656 73.9125 
L 485.907344 73.9125 
Q 487.907344 73.9125 487.907344 71.9125 
L 487.907344 14.2 
Q 487.907344 12.2 485.907344 12.2 
L 404.527656 12.2 
Q 402.527656 12.2 402.527656 14.2 
L 402.527656 71.9125 
Q 402.527656 73.9125 404.527656 73.9125 
z
" style="fill:#ffffff;opacity:0.8;stroke:#cccccc;stroke-linejoin:miter;"/>
    </g>
    <g id="patch_8">
     <path d="M 406.527656 23.798437 
L 426.527656 23.798437 
L 426.527656 16.798437 
L 406.527656 16.798437 
z
" style="fill:#1f77b4;"/>
    </g>
    <g id="text_20">
     <!-- Midwest -->
     <defs>
      <path d="M 9.8125 72.90625 
L 24.515625 72.90625 
L 43.109375 23.296875 
L 61.8125 72.90625 
L 76.515625 72.90625 
L 76.515625 0 
L 66.890625 0 
L 66.890625 64.015625 
L 48.09375 14.015625 
L 38.1875 14.015625 
L 19.390625 64.015625 
L 19.390625 0 
L 9.8125 0 
z
" id="DejaVuSans-77"/>
      <path d="M 9.421875 54.6875 
L 18.40625 54.6875 
L 18.40625 0 
L 9.421875 0 
z
M 9.421875 75.984375 
L 18.40625 75.984375 
L 18.40625 64.59375 
L 9.421875 64.59375 
z
" id="DejaVuSans-105"/>
      <path d="M 45.40625 46.390625 
L 45.40625 75.984375 
L 54.390625 75.984375 
L 54.390625 0 
L 45.40625 0 
L 45.40625 8.203125 
Q 42.578125 3.328125 38.25 0.953125 
Q 33.9375 -1.421875 27.875 -1.421875 
Q 17.96875 -1.421875 11.734375 6.484375 
Q 5.515625 14.40625 5.515625 27.296875 
Q 5.515625 40.1875 11.734375 48.09375 
Q 17.96875 56 27.875 56 
Q 33.9375 56 38.25 53.625 
Q 42.578125 51.265625 45.40625 46.390625 
z
M 14.796875 27.296875 
Q 14.796875 17.390625 18.875 11.75 
Q 22.953125 6.109375 30.078125 6.109375 
Q 37.203125 6.109375 41.296875 11.75 
Q 45.40625 17.390625 45.40625 27.296875 
Q 45.40625 37.203125 41.296875 42.84375 
Q 37.203125 48.484375 30.078125 48.484375 
Q 22.953125 48.484375 18.875 42.84375 
Q 14.796875 37.203125 14.796875 27.296875 
z
" id="DejaVuSans-100"/>
      <path d="M 4.203125 54.6875 
L 13.1875 54.6875 
L 24.421875 12.015625 
L 35.59375 54.6875 
L 46.1875 54.6875 
L 57.421875 12.015625 
L 68.609375 54.6875 
L 77.59375 54.6875 
L 63.28125 0 
L 52.6875 0 
L 40.921875 44.828125 
L 29.109375 0 
L 18.5 0 
z
" id="DejaVuSans-119"/>
      <path d="M 56.203125 29.59375 
L 56.203125 25.203125 
L 14.890625 25.203125 
Q 15.484375 15.921875 20.484375 11.0625 
Q 25.484375 6.203125 34.421875 6.203125 
Q 39.59375 6.203125 44.453125 7.46875 
Q 49.3125 8.734375 54.109375 11.28125 
L 54.109375 2.78125 
Q 49.265625 0.734375 44.1875 -0.34375 
Q 39.109375 -1.421875 33.890625 -1.421875 
Q 20.796875 -1.421875 13.15625 6.1875 
Q 5.515625 13.8125 5.515625 26.8125 
Q 5.515625 40.234375 12.765625 48.109375 
Q 20.015625 56 32.328125 56 
Q 43.359375 56 49.78125 48.890625 
Q 56.203125 41.796875 56.203125 29.59375 
z
M 47.21875 32.234375 
Q 47.125 39.59375 43.09375 43.984375 
Q 39.0625 48.390625 32.421875 48.390625 
Q 24.90625 48.390625 20.390625 44.140625 
Q 15.875 39.890625 15.1875 32.171875 
z
" id="DejaVuSans-101"/>
      <path d="M 44.28125 53.078125 
L 44.28125 44.578125 
Q 40.484375 46.53125 36.375 47.5 
Q 32.28125 48.484375 27.875 48.484375 
Q 21.1875 48.484375 17.84375 46.4375 
Q 14.5 44.390625 14.5 40.28125 
Q 14.5 37.15625 16.890625 35.375 
Q 19.28125 33.59375 26.515625 31.984375 
L 29.59375 31.296875 
Q 39.15625 29.25 43.1875 25.515625 
Q 47.21875 21.78125 47.21875 15.09375 
Q 47.21875 7.46875 41.1875 3.015625 
Q 35.15625 -1.421875 24.609375 -1.421875 
Q 20.21875 -1.421875 15.453125 -0.5625 
Q 10.6875 0.296875 5.421875 2 
L 5.421875 11.28125 
Q 10.40625 8.6875 15.234375 7.390625 
Q 20.0625 6.109375 24.8125 6.109375 
Q 31.15625 6.109375 34.5625 8.28125 
Q 37.984375 10.453125 37.984375 14.40625 
Q 37.984375 18.0625 35.515625 20.015625 
Q 33.0625 21.96875 24.703125 23.78125 
L 21.578125 24.515625 
Q 13.234375 26.265625 9.515625 29.90625 
Q 5.8125 33.546875 5.8125 39.890625 
Q 5.8125 47.609375 11.28125 51.796875 
Q 16.75 56 26.8125 56 
Q 31.78125 56 36.171875 55.265625 
Q 40.578125 54.546875 44.28125 53.078125 
z
" id="DejaVuSans-115"/>
      <path d="M 18.3125 70.21875 
L 18.3125 54.6875 
L 36.8125 54.6875 
L 36.8125 47.703125 
L 18.3125 47.703125 
L 18.3125 18.015625 
Q 18.3125 11.328125 20.140625 9.421875 
Q 21.96875 7.515625 27.59375 7.515625 
L 36.8125 7.515625 
L 36.8125 0 
L 27.59375 0 
Q 17.1875 0 13.234375 3.875 
Q 9.28125 7.765625 9.28125 18.015625 
L 9.28125 47.703125 
L 2.6875 47.703125 
L 2.6875 54.6875 
L 9.28125 54.6875 
L 9.28125 70.21875 
z
" id="DejaVuSans-116"/>
     </defs>
     <g transform="translate(434.527656 23.798437)scale(0.1 -0.1)">
      <use xlink:href="#DejaVuSans-77"/>
      <use x="86.279297" xlink:href="#DejaVuSans-105"/>
      <use x="114.0625" xlink:href="#DejaVuSans-100"/>
      <use x="177.539062" xlink:href="#DejaVuSans-119"/>
      <use x="259.326172" xlink:href="#DejaVuSans-101"/>
      <use x="320.849609" xlink:href="#DejaVuSans-115"/>
      <use x="372.949219" xlink:href="#DejaVuSans-116"/>
     </g>
    </g>
    <g id="patch_9">
     <path d="M 406.527656 38.476562 
L 426.527656 38.476562 
L 426.527656 31.476562 
L 406.527656 31.476562 
z
" style="fill:#ff7f0e;"/>
    </g>
    <g id="text_21">
     <!-- Northeast -->
     <defs>
      <path d="M 9.8125 72.90625 
L 23.09375 72.90625 
L 55.421875 11.921875 
L 55.421875 72.90625 
L 64.984375 72.90625 
L 64.984375 0 
L 51.703125 0 
L 19.390625 60.984375 
L 19.390625 0 
L 9.8125 0 
z
" id="DejaVuSans-78"/>
      <path d="M 30.609375 48.390625 
Q 23.390625 48.390625 19.1875 42.75 
Q 14.984375 37.109375 14.984375 27.296875 
Q 14.984375 17.484375 19.15625 11.84375 
Q 23.34375 6.203125 30.609375 6.203125 
Q 37.796875 6.203125 41.984375 11.859375 
Q 46.1875 17.53125 46.1875 27.296875 
Q 46.1875 37.015625 41.984375 42.703125 
Q 37.796875 48.390625 30.609375 48.390625 
z
M 30.609375 56 
Q 42.328125 56 49.015625 48.375 
Q 55.71875 40.765625 55.71875 27.296875 
Q 55.71875 13.875 49.015625 6.21875 
Q 42.328125 -1.421875 30.609375 -1.421875 
Q 18.84375 -1.421875 12.171875 6.21875 
Q 5.515625 13.875 5.515625 27.296875 
Q 5.515625 40.765625 12.171875 48.375 
Q 18.84375 56 30.609375 56 
z
" id="DejaVuSans-111"/>
      <path d="M 41.109375 46.296875 
Q 39.59375 47.171875 37.8125 47.578125 
Q 36.03125 48 33.890625 48 
Q 26.265625 48 22.1875 43.046875 
Q 18.109375 38.09375 18.109375 28.8125 
L 18.109375 0 
L 9.078125 0 
L 9.078125 54.6875 
L 18.109375 54.6875 
L 18.109375 46.1875 
Q 20.953125 51.171875 25.484375 53.578125 
Q 30.03125 56 36.53125 56 
Q 37.453125 56 38.578125 55.875 
Q 39.703125 55.765625 41.0625 55.515625 
z
" id="DejaVuSans-114"/>
      <path d="M 54.890625 33.015625 
L 54.890625 0 
L 45.90625 0 
L 45.90625 32.71875 
Q 45.90625 40.484375 42.875 44.328125 
Q 39.84375 48.1875 33.796875 48.1875 
Q 26.515625 48.1875 22.3125 43.546875 
Q 18.109375 38.921875 18.109375 30.90625 
L 18.109375 0 
L 9.078125 0 
L 9.078125 75.984375 
L 18.109375 75.984375 
L 18.109375 46.1875 
Q 21.34375 51.125 25.703125 53.5625 
Q 30.078125 56 35.796875 56 
Q 45.21875 56 50.046875 50.171875 
Q 54.890625 44.34375 54.890625 33.015625 
z
" id="DejaVuSans-104"/>
      <path d="M 34.28125 27.484375 
Q 23.390625 27.484375 19.1875 25 
Q 14.984375 22.515625 14.984375 16.5 
Q 14.984375 11.71875 18.140625 8.90625 
Q 21.296875 6.109375 26.703125 6.109375 
Q 34.1875 6.109375 38.703125 11.40625 
Q 43.21875 16.703125 43.21875 25.484375 
L 43.21875 27.484375 
z
M 52.203125 31.203125 
L 52.203125 0 
L 43.21875 0 
L 43.21875 8.296875 
Q 40.140625 3.328125 35.546875 0.953125 
Q 30.953125 -1.421875 24.3125 -1.421875 
Q 15.921875 -1.421875 10.953125 3.296875 
Q 6 8.015625 6 15.921875 
Q 6 25.140625 12.171875 29.828125 
Q 18.359375 34.515625 30.609375 34.515625 
L 43.21875 34.515625 
L 43.21875 35.40625 
Q 43.21875 41.609375 39.140625 45 
Q 35.0625 48.390625 27.6875 48.390625 
Q 23 48.390625 18.546875 47.265625 
Q 14.109375 46.140625 10.015625 43.890625 
L 10.015625 52.203125 
Q 14.9375 54.109375 19.578125 55.046875 
Q 24.21875 56 28.609375 56 
Q 40.484375 56 46.34375 49.84375 
Q 52.203125 43.703125 52.203125 31.203125 
z
" id="DejaVuSans-97"/>
     </defs>
     <g transform="translate(434.527656 38.476562)scale(0.1 -0.1)">
      <use xlink:href="#DejaVuSans-78"/>
      <use x="74.804688" xlink:href="#DejaVuSans-111"/>
      <use x="135.986328" xlink:href="#DejaVuSans-114"/>
      <use x="177.099609" xlink:href="#DejaVuSans-116"/>
      <use x="216.308594" xlink:href="#DejaVuSans-104"/>
      <use x="279.6875" xlink:href="#DejaVuSans-101"/>
      <use x="341.210938" xlink:href="#DejaVuSans-97"/>
      <use x="402.490234" xlink:href="#DejaVuSans-115"/>
      <use x="454.589844" xlink:href="#DejaVuSans-116"/>
     </g>
    </g>
    <g id="patch_10">
     <path d="M 406.527656 53.154687 
L 426.527656 53.154687 
L 426.527656 46.154687 
L 406.527656 46.154687 
z
" style="fill:#2ca02c;"/>
    </g>
    <g id="text_22">
     <!-- South -->
     <defs>
      <path d="M 53.515625 70.515625 
L 53.515625 60.890625 
Q 47.90625 63.578125 42.921875 64.890625 
Q 37.9375 66.21875 33.296875 66.21875 
Q 25.25 66.21875 20.875 63.09375 
Q 16.5 59.96875 16.5 54.203125 
Q 16.5 49.359375 19.40625 46.890625 
Q 22.3125 44.4375 30.421875 42.921875 
L 36.375 41.703125 
Q 47.40625 39.59375 52.65625 34.296875 
Q 57.90625 29 57.90625 20.125 
Q 57.90625 9.515625 50.796875 4.046875 
Q 43.703125 -1.421875 29.984375 -1.421875 
Q 24.8125 -1.421875 18.96875 -0.25 
Q 13.140625 0.921875 6.890625 3.21875 
L 6.890625 13.375 
Q 12.890625 10.015625 18.65625 8.296875 
Q 24.421875 6.59375 29.984375 6.59375 
Q 38.421875 6.59375 43.015625 9.90625 
Q 47.609375 13.234375 47.609375 19.390625 
Q 47.609375 24.75 44.3125 27.78125 
Q 41.015625 30.8125 33.5 32.328125 
L 27.484375 33.5 
Q 16.453125 35.6875 11.515625 40.375 
Q 6.59375 45.0625 6.59375 53.421875 
Q 6.59375 63.09375 13.40625 68.65625 
Q 20.21875 74.21875 32.171875 74.21875 
Q 37.3125 74.21875 42.625 73.28125 
Q 47.953125 72.359375 53.515625 70.515625 
z
" id="DejaVuSans-83"/>
      <path d="M 8.5 21.578125 
L 8.5 54.6875 
L 17.484375 54.6875 
L 17.484375 21.921875 
Q 17.484375 14.15625 20.5 10.265625 
Q 23.53125 6.390625 29.59375 6.390625 
Q 36.859375 6.390625 41.078125 11.03125 
Q 45.3125 15.671875 45.3125 23.6875 
L 45.3125 54.6875 
L 54.296875 54.6875 
L 54.296875 0 
L 45.3125 0 
L 45.3125 8.40625 
Q 42.046875 3.421875 37.71875 1 
Q 33.40625 -1.421875 27.6875 -1.421875 
Q 18.265625 -1.421875 13.375 4.4375 
Q 8.5 10.296875 8.5 21.578125 
z
M 31.109375 56 
z
" id="DejaVuSans-117"/>
     </defs>
     <g transform="translate(434.527656 53.154687)scale(0.1 -0.1)">
      <use xlink:href="#DejaVuSans-83"/>
      <use x="63.476562" xlink:href="#DejaVuSans-111"/>
      <use x="124.658203" xlink:href="#DejaVuSans-117"/>
      <use x="188.037109" xlink:href="#DejaVuSans-116"/>
      <use x="227.246094" xlink:href="#DejaVuSans-104"/>
     </g>
    </g>
    <g id="patch_11">
     <path d="M 406.527656 67.832812 
L 426.527656 67.832812 
L 426.527656 60.832812 
L 406.527656 60.832812 
z
" style="fill:#d62728;"/>
    </g>
    <g id="text_23">
     <!-- West -->
     <defs>
      <path d="M 3.328125 72.90625 
L 13.28125 72.90625 
L 28.609375 11.28125 
L 43.890625 72.90625 
L 54.984375 72.90625 
L 70.3125 11.28125 
L 85.59375 72.90625 
L 95.609375 72.90625 
L 77.296875 0 
L 64.890625 0 
L 49.515625 63.28125 
L 33.984375 0 
L 21.578125 0 
z
" id="DejaVuSans-87"/>
     </defs>
     <g transform="translate(434.527656 67.832812)scale(0.1 -0.1)">
      <use xlink:href="#DejaVuSans-87"/>
      <use x="93.001953" xlink:href="#DejaVuSans-101"/>
      <use x="154.525391" xlink:href="#DejaVuSans-115"/>
      <use x="206.625" xlink:href="#DejaVuSans-116"/>
     </g>
    </g>
   </g>
  </g>
 </g>
 <defs>
  <clipPath id="p69c8bb317d">
   <rect height="561.26" width="798.41" x="46.0125" y="7.2"/>
  </clipPath>
 </defs>
</svg>
