<?xml version="1.0" encoding="utf-8" standalone="no"?>
<!DOCTYPE svg PUBLIC "-//W3C//DTD SVG 1.1//EN"
  "http://www.w3.org/Graphics/SVG/1.1/DTD/svg11.dtd">
<!-- Created with matplotlib (https://matplotlib.org/) -->
<svg height="648pt" version="1.1" viewBox="0 0 864 648" width="864pt" xmlns="http://www.w3.org/2000/svg" xmlns:xlink="http://www.w3.org/1999/xlink">
 <defs>
  <style type="text/css">
*{stroke-linecap:butt;stroke-linejoin:round;}
  </style>
 </defs>
 <g id="figure_1">
  <g id="patch_1">
   <path d="M 0 648 
L 864 648 
L 864 0 
L 0 0 
z
" style="fill:#ffffff;"/>
  </g>
  <g id="axes_1">
   <g id="patch_2">
    <path d="M 49.75 282.97 
L 438.515 282.97 
L 438.515 25.44 
L 49.75 25.44 
z
" style="fill:#ffffff;"/>
   </g>
   <g id="PolyCollection_1">
    <defs>
     <path d="M 49.75 -405.476556 
L 49.75 -365.03 
L 56.020403 -365.03 
L 62.290806 -365.03 
L 68.56121 -365.03 
L 74.831613 -365.03 
L 81.102016 -365.03 
L 87.372419 -365.03 
L 93.642823 -365.03 
L 99.913226 -365.03 
L 106.183629 -365.03 
L 112.454032 -365.03 
L 118.724435 -365.03 
L 124.994839 -365.03 
L 131.265242 -365.03 
L 137.535645 -365.03 
L 143.806048 -365.03 
L 150.076452 -365.03 
L 156.346855 -365.03 
L 162.617258 -365.03 
L 168.887661 -365.03 
L 175.158065 -365.03 
L 181.428468 -365.03 
L 187.698871 -365.03 
L 193.969274 -365.03 
L 200.239677 -365.03 
L 206.510081 -365.03 
L 212.780484 -365.03 
L 219.050887 -365.03 
L 225.32129 -365.03 
L 231.591694 -365.03 
L 237.862097 -365.03 
L 244.1325 -365.03 
L 250.402903 -365.03 
L 256.673306 -365.03 
L 262.94371 -365.03 
L 269.214113 -365.03 
L 275.484516 -365.03 
L 281.754919 -365.03 
L 288.025323 -365.03 
L 294.295726 -365.03 
L 300.566129 -365.03 
L 306.836532 -365.03 
L 313.106935 -365.03 
L 319.377339 -365.03 
L 325.647742 -365.03 
L 331.918145 -365.03 
L 338.188548 -365.03 
L 344.458952 -365.03 
L 350.729355 -365.03 
L 356.999758 -365.03 
L 363.270161 -365.03 
L 369.540565 -365.03 
L 375.810968 -365.03 
L 382.081371 -365.03 
L 388.351774 -365.03 
L 394.622177 -365.03 
L 400.892581 -365.03 
L 407.162984 -365.03 
L 413.433387 -365.03 
L 419.70379 -365.03 
L 425.974194 -365.03 
L 432.244597 -365.03 
L 438.515 -365.03 
L 438.515 -462.556659 
L 438.515 -462.556659 
L 432.244597 -462.227235 
L 425.974194 -461.825007 
L 419.70379 -461.614656 
L 413.433387 -457.636789 
L 407.162984 -457.404274 
L 400.892581 -457.09617 
L 394.622177 -456.827045 
L 388.351774 -456.551832 
L 382.081371 -456.219342 
L 375.810968 -456.024792 
L 369.540565 -455.899591 
L 363.270161 -455.49481 
L 356.999758 -455.030703 
L 350.729355 -454.515234 
L 344.458952 -454.070069 
L 338.188548 -453.644427 
L 331.918145 -453.42607 
L 325.647742 -453.209733 
L 319.377339 -452.858969 
L 313.106935 -451.998398 
L 306.836532 -451.311986 
L 300.566129 -450.31853 
L 294.295726 -449.678469 
L 288.025323 -449.182528 
L 281.754919 -448.602606 
L 275.484516 -447.888915 
L 269.214113 -446.295763 
L 262.94371 -444.978015 
L 256.673306 -444.088363 
L 250.402903 -443.10803 
L 244.1325 -442.343288 
L 237.862097 -441.64908 
L 231.591694 -440.689393 
L 225.32129 -439.278365 
L 219.050887 -438.359172 
L 212.780484 -436.847965 
L 206.510081 -435.994688 
L 200.239677 -435.537672 
L 193.969274 -434.990755 
L 187.698871 -434.019274 
L 181.428468 -432.643795 
L 175.158065 -431.392554 
L 168.887661 -429.801171 
L 162.617258 -428.134541 
L 156.346855 -427.104997 
L 150.076452 -426.59282 
L 143.806048 -425.590163 
L 137.535645 -424.22747 
L 131.265242 -422.778206 
L 124.994839 -421.317709 
L 118.724435 -419.24278 
L 112.454032 -417.731947 
L 106.183629 -417.097915 
L 99.913226 -416.204991 
L 93.642823 -414.963281 
L 87.372419 -413.247491 
L 81.102016 -411.600307 
L 74.831613 -409.74227 
L 68.56121 -408.575725 
L 62.290806 -407.973656 
L 56.020403 -406.470303 
L 49.75 -405.476556 
z
" id="m98a356669b" style="stroke:#1f77b4;"/>
    </defs>
    <g clip-path="url(#pa476b8b81d)">
     <use style="fill:#1f77b4;stroke:#1f77b4;" x="0" xlink:href="#m98a356669b" y="648"/>
    </g>
   </g>
   <g id="matplotlib.axis_1">
    <g id="xtick_1">
     <g id="line2d_1">
      <defs>
       <path d="M 0 0 
L 0 3.5 
" id="mf3c91e899c" style="stroke:#000000;stroke-width:0.8;"/>
      </defs>
      <g>
       <use style="stroke:#000000;stroke-width:0.8;" x="49.75" xlink:href="#mf3c91e899c" y="282.97"/>
      </g>
     </g>
    </g>
    <g id="xtick_2">
     <g id="line2d_2">
      <g>
       <use style="stroke:#000000;stroke-width:0.8;" x="85.092273" xlink:href="#mf3c91e899c" y="282.97"/>
      </g>
     </g>
    </g>
    <g id="xtick_3">
     <g id="line2d_3">
      <g>
       <use style="stroke:#000000;stroke-width:0.8;" x="120.434545" xlink:href="#mf3c91e899c" y="282.97"/>
      </g>
     </g>
    </g>
    <g id="xtick_4">
     <g id="line2d_4">
      <g>
       <use style="stroke:#000000;stroke-width:0.8;" x="155.776818" xlink:href="#mf3c91e899c" y="282.97"/>
      </g>
     </g>
    </g>
    <g id="xtick_5">
     <g id="line2d_5">
      <g>
       <use style="stroke:#000000;stroke-width:0.8;" x="191.119091" xlink:href="#mf3c91e899c" y="282.97"/>
      </g>
     </g>
    </g>
    <g id="xtick_6">
     <g id="line2d_6">
      <g>
       <use style="stroke:#000000;stroke-width:0.8;" x="226.461364" xlink:href="#mf3c91e899c" y="282.97"/>
      </g>
     </g>
    </g>
    <g id="xtick_7">
     <g id="line2d_7">
      <g>
       <use style="stroke:#000000;stroke-width:0.8;" x="261.803636" xlink:href="#mf3c91e899c" y="282.97"/>
      </g>
     </g>
    </g>
    <g id="xtick_8">
     <g id="line2d_8">
      <g>
       <use style="stroke:#000000;stroke-width:0.8;" x="297.145909" xlink:href="#mf3c91e899c" y="282.97"/>
      </g>
     </g>
    </g>
    <g id="xtick_9">
     <g id="line2d_9">
      <g>
       <use style="stroke:#000000;stroke-width:0.8;" x="332.488182" xlink:href="#mf3c91e899c" y="282.97"/>
      </g>
     </g>
    </g>
    <g id="xtick_10">
     <g id="line2d_10">
      <g>
       <use style="stroke:#000000;stroke-width:0.8;" x="367.830455" xlink:href="#mf3c91e899c" y="282.97"/>
      </g>
     </g>
    </g>
    <g id="xtick_11">
     <g id="line2d_11">
      <g>
       <use style="stroke:#000000;stroke-width:0.8;" x="403.172727" xlink:href="#mf3c91e899c" y="282.97"/>
      </g>
     </g>
    </g>
    <g id="xtick_12">
     <g id="line2d_12">
      <g>
       <use style="stroke:#000000;stroke-width:0.8;" x="438.515" xlink:href="#mf3c91e899c" y="282.97"/>
      </g>
     </g>
    </g>
   </g>
   <g id="matplotlib.axis_2">
    <g id="ytick_1">
     <g id="line2d_13">
      <defs>
       <path d="M 0 0 
L -3.5 0 
" id="m6491fcb9c3" style="stroke:#000000;stroke-width:0.8;"/>
      </defs>
      <g>
       <use style="stroke:#000000;stroke-width:0.8;" x="49.75" xlink:href="#m6491fcb9c3" y="282.97"/>
      </g>
     </g>
     <g id="text_1">
      <!-- 0 -->
      <defs>
       <path d="M 31.78125 66.40625 
Q 24.171875 66.40625 20.328125 58.90625 
Q 16.5 51.421875 16.5 36.375 
Q 16.5 21.390625 20.328125 13.890625 
Q 24.171875 6.390625 31.78125 6.390625 
Q 39.453125 6.390625 43.28125 13.890625 
Q 47.125 21.390625 47.125 36.375 
Q 47.125 51.421875 43.28125 58.90625 
Q 39.453125 66.40625 31.78125 66.40625 
z
M 31.78125 74.21875 
Q 44.046875 74.21875 50.515625 64.515625 
Q 56.984375 54.828125 56.984375 36.375 
Q 56.984375 17.96875 50.515625 8.265625 
Q 44.046875 -1.421875 31.78125 -1.421875 
Q 19.53125 -1.421875 13.0625 8.265625 
Q 6.59375 17.96875 6.59375 36.375 
Q 6.59375 54.828125 13.0625 64.515625 
Q 19.53125 74.21875 31.78125 74.21875 
z
" id="DejaVuSans-48"/>
      </defs>
      <g transform="translate(36.3875 286.769219)scale(0.1 -0.1)">
       <use xlink:href="#DejaVuSans-48"/>
      </g>
     </g>
    </g>
    <g id="ytick_2">
     <g id="line2d_14">
      <g>
       <use style="stroke:#000000;stroke-width:0.8;" x="49.75" xlink:href="#m6491fcb9c3" y="241.148101"/>
      </g>
     </g>
     <g id="text_2">
      <!-- 10000 -->
      <defs>
       <path d="M 12.40625 8.296875 
L 28.515625 8.296875 
L 28.515625 63.921875 
L 10.984375 60.40625 
L 10.984375 69.390625 
L 28.421875 72.90625 
L 38.28125 72.90625 
L 38.28125 8.296875 
L 54.390625 8.296875 
L 54.390625 0 
L 12.40625 0 
z
" id="DejaVuSans-49"/>
      </defs>
      <g transform="translate(10.9375 244.94732)scale(0.1 -0.1)">
       <use xlink:href="#DejaVuSans-49"/>
       <use x="63.623047" xlink:href="#DejaVuSans-48"/>
       <use x="127.246094" xlink:href="#DejaVuSans-48"/>
       <use x="190.869141" xlink:href="#DejaVuSans-48"/>
       <use x="254.492188" xlink:href="#DejaVuSans-48"/>
      </g>
     </g>
    </g>
    <g id="ytick_3">
     <g id="line2d_15">
      <g>
       <use style="stroke:#000000;stroke-width:0.8;" x="49.75" xlink:href="#m6491fcb9c3" y="199.326202"/>
      </g>
     </g>
     <g id="text_3">
      <!-- 20000 -->
      <defs>
       <path d="M 19.1875 8.296875 
L 53.609375 8.296875 
L 53.609375 0 
L 7.328125 0 
L 7.328125 8.296875 
Q 12.9375 14.109375 22.625 23.890625 
Q 32.328125 33.6875 34.8125 36.53125 
Q 39.546875 41.84375 41.421875 45.53125 
Q 43.3125 49.21875 43.3125 52.78125 
Q 43.3125 58.59375 39.234375 62.25 
Q 35.15625 65.921875 28.609375 65.921875 
Q 23.96875 65.921875 18.8125 64.3125 
Q 13.671875 62.703125 7.8125 59.421875 
L 7.8125 69.390625 
Q 13.765625 71.78125 18.9375 73 
Q 24.125 74.21875 28.421875 74.21875 
Q 39.75 74.21875 46.484375 68.546875 
Q 53.21875 62.890625 53.21875 53.421875 
Q 53.21875 48.921875 51.53125 44.890625 
Q 49.859375 40.875 45.40625 35.40625 
Q 44.1875 33.984375 37.640625 27.21875 
Q 31.109375 20.453125 19.1875 8.296875 
z
" id="DejaVuSans-50"/>
      </defs>
      <g transform="translate(10.9375 203.125421)scale(0.1 -0.1)">
       <use xlink:href="#DejaVuSans-50"/>
       <use x="63.623047" xlink:href="#DejaVuSans-48"/>
       <use x="127.246094" xlink:href="#DejaVuSans-48"/>
       <use x="190.869141" xlink:href="#DejaVuSans-48"/>
       <use x="254.492188" xlink:href="#DejaVuSans-48"/>
      </g>
     </g>
    </g>
    <g id="ytick_4">
     <g id="line2d_16">
      <g>
       <use style="stroke:#000000;stroke-width:0.8;" x="49.75" xlink:href="#m6491fcb9c3" y="157.504303"/>
      </g>
     </g>
     <g id="text_4">
      <!-- 30000 -->
      <defs>
       <path d="M 40.578125 39.3125 
Q 47.65625 37.796875 51.625 33 
Q 55.609375 28.21875 55.609375 21.1875 
Q 55.609375 10.40625 48.1875 4.484375 
Q 40.765625 -1.421875 27.09375 -1.421875 
Q 22.515625 -1.421875 17.65625 -0.515625 
Q 12.796875 0.390625 7.625 2.203125 
L 7.625 11.71875 
Q 11.71875 9.328125 16.59375 8.109375 
Q 21.484375 6.890625 26.8125 6.890625 
Q 36.078125 6.890625 40.9375 10.546875 
Q 45.796875 14.203125 45.796875 21.1875 
Q 45.796875 27.640625 41.28125 31.265625 
Q 36.765625 34.90625 28.71875 34.90625 
L 20.21875 34.90625 
L 20.21875 43.015625 
L 29.109375 43.015625 
Q 36.375 43.015625 40.234375 45.921875 
Q 44.09375 48.828125 44.09375 54.296875 
Q 44.09375 59.90625 40.109375 62.90625 
Q 36.140625 65.921875 28.71875 65.921875 
Q 24.65625 65.921875 20.015625 65.03125 
Q 15.375 64.15625 9.8125 62.3125 
L 9.8125 71.09375 
Q 15.4375 72.65625 20.34375 73.4375 
Q 25.25 74.21875 29.59375 74.21875 
Q 40.828125 74.21875 47.359375 69.109375 
Q 53.90625 64.015625 53.90625 55.328125 
Q 53.90625 49.265625 50.4375 45.09375 
Q 46.96875 40.921875 40.578125 39.3125 
z
" id="DejaVuSans-51"/>
      </defs>
      <g transform="translate(10.9375 161.303522)scale(0.1 -0.1)">
       <use xlink:href="#DejaVuSans-51"/>
       <use x="63.623047" xlink:href="#DejaVuSans-48"/>
       <use x="127.246094" xlink:href="#DejaVuSans-48"/>
       <use x="190.869141" xlink:href="#DejaVuSans-48"/>
       <use x="254.492188" xlink:href="#DejaVuSans-48"/>
      </g>
     </g>
    </g>
    <g id="ytick_5">
     <g id="line2d_17">
      <g>
       <use style="stroke:#000000;stroke-width:0.8;" x="49.75" xlink:href="#m6491fcb9c3" y="115.682404"/>
      </g>
     </g>
     <g id="text_5">
      <!-- 40000 -->
      <defs>
       <path d="M 37.796875 64.3125 
L 12.890625 25.390625 
L 37.796875 25.390625 
z
M 35.203125 72.90625 
L 47.609375 72.90625 
L 47.609375 25.390625 
L 58.015625 25.390625 
L 58.015625 17.1875 
L 47.609375 17.1875 
L 47.609375 0 
L 37.796875 0 
L 37.796875 17.1875 
L 4.890625 17.1875 
L 4.890625 26.703125 
z
" id="DejaVuSans-52"/>
      </defs>
      <g transform="translate(10.9375 119.481623)scale(0.1 -0.1)">
       <use xlink:href="#DejaVuSans-52"/>
       <use x="63.623047" xlink:href="#DejaVuSans-48"/>
       <use x="127.246094" xlink:href="#DejaVuSans-48"/>
       <use x="190.869141" xlink:href="#DejaVuSans-48"/>
       <use x="254.492188" xlink:href="#DejaVuSans-48"/>
      </g>
     </g>
    </g>
    <g id="ytick_6">
     <g id="line2d_18">
      <g>
       <use style="stroke:#000000;stroke-width:0.8;" x="49.75" xlink:href="#m6491fcb9c3" y="73.860505"/>
      </g>
     </g>
     <g id="text_6">
      <!-- 50000 -->
      <defs>
       <path d="M 10.796875 72.90625 
L 49.515625 72.90625 
L 49.515625 64.59375 
L 19.828125 64.59375 
L 19.828125 46.734375 
Q 21.96875 47.46875 24.109375 47.828125 
Q 26.265625 48.1875 28.421875 48.1875 
Q 40.625 48.1875 47.75 41.5 
Q 54.890625 34.8125 54.890625 23.390625 
Q 54.890625 11.625 47.5625 5.09375 
Q 40.234375 -1.421875 26.90625 -1.421875 
Q 22.3125 -1.421875 17.546875 -0.640625 
Q 12.796875 0.140625 7.71875 1.703125 
L 7.71875 11.625 
Q 12.109375 9.234375 16.796875 8.0625 
Q 21.484375 6.890625 26.703125 6.890625 
Q 35.15625 6.890625 40.078125 11.328125 
Q 45.015625 15.765625 45.015625 23.390625 
Q 45.015625 31 40.078125 35.4375 
Q 35.15625 39.890625 26.703125 39.890625 
Q 22.75 39.890625 18.8125 39.015625 
Q 14.890625 38.140625 10.796875 36.28125 
z
" id="DejaVuSans-53"/>
      </defs>
      <g transform="translate(10.9375 77.659724)scale(0.1 -0.1)">
       <use xlink:href="#DejaVuSans-53"/>
       <use x="63.623047" xlink:href="#DejaVuSans-48"/>
       <use x="127.246094" xlink:href="#DejaVuSans-48"/>
       <use x="190.869141" xlink:href="#DejaVuSans-48"/>
       <use x="254.492188" xlink:href="#DejaVuSans-48"/>
      </g>
     </g>
    </g>
    <g id="ytick_7">
     <g id="line2d_19">
      <g>
       <use style="stroke:#000000;stroke-width:0.8;" x="49.75" xlink:href="#m6491fcb9c3" y="32.038606"/>
      </g>
     </g>
     <g id="text_7">
      <!-- 60000 -->
      <defs>
       <path d="M 33.015625 40.375 
Q 26.375 40.375 22.484375 35.828125 
Q 18.609375 31.296875 18.609375 23.390625 
Q 18.609375 15.53125 22.484375 10.953125 
Q 26.375 6.390625 33.015625 6.390625 
Q 39.65625 6.390625 43.53125 10.953125 
Q 47.40625 15.53125 47.40625 23.390625 
Q 47.40625 31.296875 43.53125 35.828125 
Q 39.65625 40.375 33.015625 40.375 
z
M 52.59375 71.296875 
L 52.59375 62.3125 
Q 48.875 64.0625 45.09375 64.984375 
Q 41.3125 65.921875 37.59375 65.921875 
Q 27.828125 65.921875 22.671875 59.328125 
Q 17.53125 52.734375 16.796875 39.40625 
Q 19.671875 43.65625 24.015625 45.921875 
Q 28.375 48.1875 33.59375 48.1875 
Q 44.578125 48.1875 50.953125 41.515625 
Q 57.328125 34.859375 57.328125 23.390625 
Q 57.328125 12.15625 50.6875 5.359375 
Q 44.046875 -1.421875 33.015625 -1.421875 
Q 20.359375 -1.421875 13.671875 8.265625 
Q 6.984375 17.96875 6.984375 36.375 
Q 6.984375 53.65625 15.1875 63.9375 
Q 23.390625 74.21875 37.203125 74.21875 
Q 40.921875 74.21875 44.703125 73.484375 
Q 48.484375 72.75 52.59375 71.296875 
z
" id="DejaVuSans-54"/>
      </defs>
      <g transform="translate(10.9375 35.837824)scale(0.1 -0.1)">
       <use xlink:href="#DejaVuSans-54"/>
       <use x="63.623047" xlink:href="#DejaVuSans-48"/>
       <use x="127.246094" xlink:href="#DejaVuSans-48"/>
       <use x="190.869141" xlink:href="#DejaVuSans-48"/>
       <use x="254.492188" xlink:href="#DejaVuSans-48"/>
      </g>
     </g>
    </g>
   </g>
   <g id="line2d_20">
    <path clip-path="url(#pa476b8b81d)" d="M 49.75 242.523444 
L 56.020403 241.529697 
L 62.290806 240.026344 
L 68.56121 239.424275 
L 74.831613 238.25773 
L 81.102016 236.399693 
L 87.372419 234.752509 
L 93.642823 233.036719 
L 99.913226 231.795009 
L 106.183629 230.902085 
L 112.454032 230.268053 
L 118.724435 228.75722 
L 124.994839 226.682291 
L 131.265242 225.221794 
L 137.535645 223.77253 
L 143.806048 222.409837 
L 150.076452 221.40718 
L 156.346855 220.895003 
L 162.617258 219.865459 
L 168.887661 218.198829 
L 175.158065 216.607446 
L 181.428468 215.356205 
L 187.698871 213.980726 
L 193.969274 213.009245 
L 200.239677 212.462328 
L 206.510081 212.005312 
L 212.780484 211.152035 
L 219.050887 209.640828 
L 225.32129 208.721635 
L 231.591694 207.310607 
L 237.862097 206.35092 
L 244.1325 205.656712 
L 250.402903 204.89197 
L 256.673306 203.911637 
L 262.94371 203.021985 
L 269.214113 201.704237 
L 275.484516 200.111085 
L 281.754919 199.397394 
L 288.025323 198.817472 
L 294.295726 198.321531 
L 300.566129 197.68147 
L 306.836532 196.688014 
L 313.106935 196.001602 
L 319.377339 195.141031 
L 325.647742 194.790267 
L 331.918145 194.57393 
L 338.188548 194.355573 
L 344.458952 193.929931 
L 350.729355 193.484766 
L 356.999758 192.969297 
L 363.270161 192.50519 
L 369.540565 192.100409 
L 375.810968 191.975208 
L 382.081371 191.780658 
L 388.351774 191.448168 
L 394.622177 191.172955 
L 400.892581 190.90383 
L 407.162984 190.595726 
L 413.433387 190.363211 
L 419.70379 186.385344 
L 425.974194 186.174993 
L 432.244597 185.772765 
L 438.515 185.443341 
" style="fill:none;stroke:#1f77b4;stroke-linecap:square;stroke-width:1.5;"/>
   </g>
   <g id="patch_3">
    <path d="M 49.75 282.97 
L 49.75 25.44 
" style="fill:none;stroke:#000000;stroke-linecap:square;stroke-linejoin:miter;stroke-width:0.8;"/>
   </g>
   <g id="patch_4">
    <path d="M 438.515 282.97 
L 438.515 25.44 
" style="fill:none;stroke:#000000;stroke-linecap:square;stroke-linejoin:miter;stroke-width:0.8;"/>
   </g>
   <g id="patch_5">
    <path d="M 49.75 282.97 
L 438.515 282.97 
" style="fill:none;stroke:#000000;stroke-linecap:square;stroke-linejoin:miter;stroke-width:0.8;"/>
   </g>
   <g id="patch_6">
    <path d="M 49.75 25.44 
L 438.515 25.44 
" style="fill:none;stroke:#000000;stroke-linecap:square;stroke-linejoin:miter;stroke-width:0.8;"/>
   </g>
   <g id="text_8">
    <!-- Midwest -->
    <defs>
     <path d="M 9.8125 72.90625 
L 24.515625 72.90625 
L 43.109375 23.296875 
L 61.8125 72.90625 
L 76.515625 72.90625 
L 76.515625 0 
L 66.890625 0 
L 66.890625 64.015625 
L 48.09375 14.015625 
L 38.1875 14.015625 
L 19.390625 64.015625 
L 19.390625 0 
L 9.8125 0 
z
" id="DejaVuSans-77"/>
     <path d="M 9.421875 54.6875 
L 18.40625 54.6875 
L 18.40625 0 
L 9.421875 0 
z
M 9.421875 75.984375 
L 18.40625 75.984375 
L 18.40625 64.59375 
L 9.421875 64.59375 
z
" id="DejaVuSans-105"/>
     <path d="M 45.40625 46.390625 
L 45.40625 75.984375 
L 54.390625 75.984375 
L 54.390625 0 
L 45.40625 0 
L 45.40625 8.203125 
Q 42.578125 3.328125 38.25 0.953125 
Q 33.9375 -1.421875 27.875 -1.421875 
Q 17.96875 -1.421875 11.734375 6.484375 
Q 5.515625 14.40625 5.515625 27.296875 
Q 5.515625 40.1875 11.734375 48.09375 
Q 17.96875 56 27.875 56 
Q 33.9375 56 38.25 53.625 
Q 42.578125 51.265625 45.40625 46.390625 
z
M 14.796875 27.296875 
Q 14.796875 17.390625 18.875 11.75 
Q 22.953125 6.109375 30.078125 6.109375 
Q 37.203125 6.109375 41.296875 11.75 
Q 45.40625 17.390625 45.40625 27.296875 
Q 45.40625 37.203125 41.296875 42.84375 
Q 37.203125 48.484375 30.078125 48.484375 
Q 22.953125 48.484375 18.875 42.84375 
Q 14.796875 37.203125 14.796875 27.296875 
z
" id="DejaVuSans-100"/>
     <path d="M 4.203125 54.6875 
L 13.1875 54.6875 
L 24.421875 12.015625 
L 35.59375 54.6875 
L 46.1875 54.6875 
L 57.421875 12.015625 
L 68.609375 54.6875 
L 77.59375 54.6875 
L 63.28125 0 
L 52.6875 0 
L 40.921875 44.828125 
L 29.109375 0 
L 18.5 0 
z
" id="DejaVuSans-119"/>
     <path d="M 56.203125 29.59375 
L 56.203125 25.203125 
L 14.890625 25.203125 
Q 15.484375 15.921875 20.484375 11.0625 
Q 25.484375 6.203125 34.421875 6.203125 
Q 39.59375 6.203125 44.453125 7.46875 
Q 49.3125 8.734375 54.109375 11.28125 
L 54.109375 2.78125 
Q 49.265625 0.734375 44.1875 -0.34375 
Q 39.109375 -1.421875 33.890625 -1.421875 
Q 20.796875 -1.421875 13.15625 6.1875 
Q 5.515625 13.8125 5.515625 26.8125 
Q 5.515625 40.234375 12.765625 48.109375 
Q 20.015625 56 32.328125 56 
Q 43.359375 56 49.78125 48.890625 
Q 56.203125 41.796875 56.203125 29.59375 
z
M 47.21875 32.234375 
Q 47.125 39.59375 43.09375 43.984375 
Q 39.0625 48.390625 32.421875 48.390625 
Q 24.90625 48.390625 20.390625 44.140625 
Q 15.875 39.890625 15.1875 32.171875 
z
" id="DejaVuSans-101"/>
     <path d="M 44.28125 53.078125 
L 44.28125 44.578125 
Q 40.484375 46.53125 36.375 47.5 
Q 32.28125 48.484375 27.875 48.484375 
Q 21.1875 48.484375 17.84375 46.4375 
Q 14.5 44.390625 14.5 40.28125 
Q 14.5 37.15625 16.890625 35.375 
Q 19.28125 33.59375 26.515625 31.984375 
L 29.59375 31.296875 
Q 39.15625 29.25 43.1875 25.515625 
Q 47.21875 21.78125 47.21875 15.09375 
Q 47.21875 7.46875 41.1875 3.015625 
Q 35.15625 -1.421875 24.609375 -1.421875 
Q 20.21875 -1.421875 15.453125 -0.5625 
Q 10.6875 0.296875 5.421875 2 
L 5.421875 11.28125 
Q 10.40625 8.6875 15.234375 7.390625 
Q 20.0625 6.109375 24.8125 6.109375 
Q 31.15625 6.109375 34.5625 8.28125 
Q 37.984375 10.453125 37.984375 14.40625 
Q 37.984375 18.0625 35.515625 20.015625 
Q 33.0625 21.96875 24.703125 23.78125 
L 21.578125 24.515625 
Q 13.234375 26.265625 9.515625 29.90625 
Q 5.8125 33.546875 5.8125 39.890625 
Q 5.8125 47.609375 11.28125 51.796875 
Q 16.75 56 26.8125 56 
Q 31.78125 56 36.171875 55.265625 
Q 40.578125 54.546875 44.28125 53.078125 
z
" id="DejaVuSans-115"/>
     <path d="M 18.3125 70.21875 
L 18.3125 54.6875 
L 36.8125 54.6875 
L 36.8125 47.703125 
L 18.3125 47.703125 
L 18.3125 18.015625 
Q 18.3125 11.328125 20.140625 9.421875 
Q 21.96875 7.515625 27.59375 7.515625 
L 36.8125 7.515625 
L 36.8125 0 
L 27.59375 0 
Q 17.1875 0 13.234375 3.875 
Q 9.28125 7.765625 9.28125 18.015625 
L 9.28125 47.703125 
L 2.6875 47.703125 
L 2.6875 54.6875 
L 9.28125 54.6875 
L 9.28125 70.21875 
z
" id="DejaVuSans-116"/>
    </defs>
    <g transform="translate(219.403125 19.44)scale(0.12 -0.12)">
     <use xlink:href="#DejaVuSans-77"/>
     <use x="86.279297" xlink:href="#DejaVuSans-105"/>
     <use x="114.0625" xlink:href="#DejaVuSans-100"/>
     <use x="177.539062" xlink:href="#DejaVuSans-119"/>
     <use x="259.326172" xlink:href="#DejaVuSans-101"/>
     <use x="320.849609" xlink:href="#DejaVuSans-115"/>
     <use x="372.949219" xlink:href="#DejaVuSans-116"/>
    </g>
   </g>
  </g>
  <g id="axes_2">
   <g id="patch_7">
    <path d="M 459.395 282.97 
L 848.16 282.97 
L 848.16 25.44 
L 459.395 25.44 
z
" style="fill:#ffffff;"/>
   </g>
   <g id="PolyCollection_2">
    <defs>
     <path d="M 459.395 -506.840557 
L 459.395 -365.03 
L 465.665403 -365.03 
L 471.935806 -365.03 
L 478.20621 -365.03 
L 484.476613 -365.03 
L 490.747016 -365.03 
L 497.017419 -365.03 
L 503.287823 -365.03 
L 509.558226 -365.03 
L 515.828629 -365.03 
L 522.099032 -365.03 
L 528.369435 -365.03 
L 534.639839 -365.03 
L 540.910242 -365.03 
L 547.180645 -365.03 
L 553.451048 -365.03 
L 559.721452 -365.03 
L 565.991855 -365.03 
L 572.262258 -365.03 
L 578.532661 -365.03 
L 584.803065 -365.03 
L 591.073468 -365.03 
L 597.343871 -365.03 
L 603.614274 -365.03 
L 609.884677 -365.03 
L 616.155081 -365.03 
L 622.425484 -365.03 
L 628.695887 -365.03 
L 634.96629 -365.03 
L 641.236694 -365.03 
L 647.507097 -365.03 
L 653.7775 -365.03 
L 660.047903 -365.03 
L 666.318306 -365.03 
L 672.58871 -365.03 
L 678.859113 -365.03 
L 685.129516 -365.03 
L 691.399919 -365.03 
L 697.670323 -365.03 
L 703.940726 -365.03 
L 710.211129 -365.03 
L 716.481532 -365.03 
L 722.751935 -365.03 
L 729.022339 -365.03 
L 735.292742 -365.03 
L 741.563145 -365.03 
L 747.833548 -365.03 
L 754.103952 -365.03 
L 760.374355 -365.03 
L 766.644758 -365.03 
L 772.915161 -365.03 
L 779.185565 -365.03 
L 785.455968 -365.03 
L 791.726371 -365.03 
L 797.996774 -365.03 
L 804.267177 -365.03 
L 810.537581 -365.03 
L 816.807984 -365.03 
L 823.078387 -365.03 
L 829.34879 -365.03 
L 835.619194 -365.03 
L 841.889597 -365.03 
L 848.16 -365.03 
L 848.16 -610.296667 
L 848.16 -610.296667 
L 841.889597 -609.869737 
L 835.619194 -609.607132 
L 829.34879 -609.352108 
L 823.078387 -608.961232 
L 816.807984 -608.561214 
L 810.537581 -607.837527 
L 804.267177 -607.281137 
L 797.996774 -606.599795 
L 791.726371 -606.130946 
L 785.455968 -605.652663 
L 779.185565 -605.36785 
L 772.915161 -604.82619 
L 766.644758 -604.165854 
L 760.374355 -603.495066 
L 754.103952 -602.685548 
L 747.833548 -602.076812 
L 741.563145 -601.504078 
L 735.292742 -600.813464 
L 729.022339 -599.917913 
L 722.751935 -598.801101 
L 716.481532 -597.85518 
L 710.211129 -596.81492 
L 703.940726 -595.792795 
L 697.670323 -594.869088 
L 691.399919 -593.972491 
L 685.129516 -593.261496 
L 678.859113 -592.077092 
L 672.58871 -590.794171 
L 666.318306 -589.505183 
L 660.047903 -588.187844 
L 653.7775 -586.877599 
L 647.507097 -585.762189 
L 641.236694 -584.235266 
L 634.96629 -582.290749 
L 628.695887 -580.971058 
L 622.425484 -579.258429 
L 616.155081 -578.081199 
L 609.884677 -577.050327 
L 603.614274 -575.961532 
L 597.343871 -573.821032 
L 591.073468 -571.905638 
L 584.803065 -570.06218 
L 578.532661 -567.653732 
L 572.262258 -565.227087 
L 565.991855 -563.689347 
L 559.721452 -561.936701 
L 553.451048 -559.564494 
L 547.180645 -557.144157 
L 540.910242 -553.288566 
L 534.639839 -549.928056 
L 528.369435 -547.156216 
L 522.099032 -545.384537 
L 515.828629 -543.425796 
L 509.558226 -540.855025 
L 503.287823 -537.724469 
L 497.017419 -533.518551 
L 490.747016 -527.18112 
L 484.476613 -521.736657 
L 478.20621 -517.796789 
L 471.935806 -515.603559 
L 465.665403 -512.586764 
L 459.395 -506.840557 
z
" id="m1e5a2b39fe" style="stroke:#ff7f0e;"/>
    </defs>
    <g clip-path="url(#p50a206860c)">
     <use style="fill:#ff7f0e;stroke:#ff7f0e;" x="0" xlink:href="#m1e5a2b39fe" y="648"/>
    </g>
   </g>
   <g id="matplotlib.axis_3">
    <g id="xtick_13">
     <g id="line2d_21">
      <g>
       <use style="stroke:#000000;stroke-width:0.8;" x="459.395" xlink:href="#mf3c91e899c" y="282.97"/>
      </g>
     </g>
    </g>
    <g id="xtick_14">
     <g id="line2d_22">
      <g>
       <use style="stroke:#000000;stroke-width:0.8;" x="494.737273" xlink:href="#mf3c91e899c" y="282.97"/>
      </g>
     </g>
    </g>
    <g id="xtick_15">
     <g id="line2d_23">
      <g>
       <use style="stroke:#000000;stroke-width:0.8;" x="530.079545" xlink:href="#mf3c91e899c" y="282.97"/>
      </g>
     </g>
    </g>
    <g id="xtick_16">
     <g id="line2d_24">
      <g>
       <use style="stroke:#000000;stroke-width:0.8;" x="565.421818" xlink:href="#mf3c91e899c" y="282.97"/>
      </g>
     </g>
    </g>
    <g id="xtick_17">
     <g id="line2d_25">
      <g>
       <use style="stroke:#000000;stroke-width:0.8;" x="600.764091" xlink:href="#mf3c91e899c" y="282.97"/>
      </g>
     </g>
    </g>
    <g id="xtick_18">
     <g id="line2d_26">
      <g>
       <use style="stroke:#000000;stroke-width:0.8;" x="636.106364" xlink:href="#mf3c91e899c" y="282.97"/>
      </g>
     </g>
    </g>
    <g id="xtick_19">
     <g id="line2d_27">
      <g>
       <use style="stroke:#000000;stroke-width:0.8;" x="671.448636" xlink:href="#mf3c91e899c" y="282.97"/>
      </g>
     </g>
    </g>
    <g id="xtick_20">
     <g id="line2d_28">
      <g>
       <use style="stroke:#000000;stroke-width:0.8;" x="706.790909" xlink:href="#mf3c91e899c" y="282.97"/>
      </g>
     </g>
    </g>
    <g id="xtick_21">
     <g id="line2d_29">
      <g>
       <use style="stroke:#000000;stroke-width:0.8;" x="742.133182" xlink:href="#mf3c91e899c" y="282.97"/>
      </g>
     </g>
    </g>
    <g id="xtick_22">
     <g id="line2d_30">
      <g>
       <use style="stroke:#000000;stroke-width:0.8;" x="777.475455" xlink:href="#mf3c91e899c" y="282.97"/>
      </g>
     </g>
    </g>
    <g id="xtick_23">
     <g id="line2d_31">
      <g>
       <use style="stroke:#000000;stroke-width:0.8;" x="812.817727" xlink:href="#mf3c91e899c" y="282.97"/>
      </g>
     </g>
    </g>
    <g id="xtick_24">
     <g id="line2d_32">
      <g>
       <use style="stroke:#000000;stroke-width:0.8;" x="848.16" xlink:href="#mf3c91e899c" y="282.97"/>
      </g>
     </g>
    </g>
   </g>
   <g id="matplotlib.axis_4">
    <g id="ytick_8">
     <g id="line2d_33">
      <g>
       <use style="stroke:#000000;stroke-width:0.8;" x="459.395" xlink:href="#m6491fcb9c3" y="282.97"/>
      </g>
     </g>
    </g>
    <g id="ytick_9">
     <g id="line2d_34">
      <g>
       <use style="stroke:#000000;stroke-width:0.8;" x="459.395" xlink:href="#m6491fcb9c3" y="241.148101"/>
      </g>
     </g>
    </g>
    <g id="ytick_10">
     <g id="line2d_35">
      <g>
       <use style="stroke:#000000;stroke-width:0.8;" x="459.395" xlink:href="#m6491fcb9c3" y="199.326202"/>
      </g>
     </g>
    </g>
    <g id="ytick_11">
     <g id="line2d_36">
      <g>
       <use style="stroke:#000000;stroke-width:0.8;" x="459.395" xlink:href="#m6491fcb9c3" y="157.504303"/>
      </g>
     </g>
    </g>
    <g id="ytick_12">
     <g id="line2d_37">
      <g>
       <use style="stroke:#000000;stroke-width:0.8;" x="459.395" xlink:href="#m6491fcb9c3" y="115.682404"/>
      </g>
     </g>
    </g>
    <g id="ytick_13">
     <g id="line2d_38">
      <g>
       <use style="stroke:#000000;stroke-width:0.8;" x="459.395" xlink:href="#m6491fcb9c3" y="73.860505"/>
      </g>
     </g>
    </g>
    <g id="ytick_14">
     <g id="line2d_39">
      <g>
       <use style="stroke:#000000;stroke-width:0.8;" x="459.395" xlink:href="#m6491fcb9c3" y="32.038606"/>
      </g>
     </g>
    </g>
   </g>
   <g id="line2d_40">
    <path clip-path="url(#p50a206860c)" d="M 459.395 141.159443 
L 465.665403 135.413236 
L 471.935806 132.396441 
L 478.20621 130.203211 
L 484.476613 126.263343 
L 490.747016 120.81888 
L 497.017419 114.481449 
L 503.287823 110.275531 
L 509.558226 107.144975 
L 515.828629 104.574204 
L 522.099032 102.615463 
L 528.369435 100.843784 
L 534.639839 98.071944 
L 540.910242 94.711434 
L 547.180645 90.855843 
L 553.451048 88.435506 
L 559.721452 86.063299 
L 565.991855 84.310653 
L 572.262258 82.772913 
L 578.532661 80.346268 
L 584.803065 77.93782 
L 591.073468 76.094362 
L 597.343871 74.178968 
L 603.614274 72.038468 
L 609.884677 70.949673 
L 616.155081 69.918801 
L 622.425484 68.741571 
L 628.695887 67.028942 
L 634.96629 65.709251 
L 641.236694 63.764734 
L 647.507097 62.237811 
L 653.7775 61.122401 
L 660.047903 59.812156 
L 666.318306 58.494817 
L 672.58871 57.205829 
L 678.859113 55.922908 
L 685.129516 54.738504 
L 691.399919 54.027509 
L 697.670323 53.130912 
L 703.940726 52.207205 
L 710.211129 51.18508 
L 716.481532 50.14482 
L 722.751935 49.198899 
L 729.022339 48.082087 
L 735.292742 47.186536 
L 741.563145 46.495922 
L 747.833548 45.923188 
L 754.103952 45.314452 
L 760.374355 44.504934 
L 766.644758 43.834146 
L 772.915161 43.17381 
L 779.185565 42.63215 
L 785.455968 42.347337 
L 791.726371 41.869054 
L 797.996774 41.400205 
L 804.267177 40.718863 
L 810.537581 40.162473 
L 816.807984 39.438786 
L 823.078387 39.038768 
L 829.34879 38.647892 
L 835.619194 38.392868 
L 841.889597 38.130263 
L 848.16 37.703333 
" style="fill:none;stroke:#ff7f0e;stroke-linecap:square;stroke-width:1.5;"/>
   </g>
   <g id="patch_8">
    <path d="M 459.395 282.97 
L 459.395 25.44 
" style="fill:none;stroke:#000000;stroke-linecap:square;stroke-linejoin:miter;stroke-width:0.8;"/>
   </g>
   <g id="patch_9">
    <path d="M 848.16 282.97 
L 848.16 25.44 
" style="fill:none;stroke:#000000;stroke-linecap:square;stroke-linejoin:miter;stroke-width:0.8;"/>
   </g>
   <g id="patch_10">
    <path d="M 459.395 282.97 
L 848.16 282.97 
" style="fill:none;stroke:#000000;stroke-linecap:square;stroke-linejoin:miter;stroke-width:0.8;"/>
   </g>
   <g id="patch_11">
    <path d="M 459.395 25.44 
L 848.16 25.44 
" style="fill:none;stroke:#000000;stroke-linecap:square;stroke-linejoin:miter;stroke-width:0.8;"/>
   </g>
   <g id="text_9">
    <!-- Northeast -->
    <defs>
     <path d="M 9.8125 72.90625 
L 23.09375 72.90625 
L 55.421875 11.921875 
L 55.421875 72.90625 
L 64.984375 72.90625 
L 64.984375 0 
L 51.703125 0 
L 19.390625 60.984375 
L 19.390625 0 
L 9.8125 0 
z
" id="DejaVuSans-78"/>
     <path d="M 30.609375 48.390625 
Q 23.390625 48.390625 19.1875 42.75 
Q 14.984375 37.109375 14.984375 27.296875 
Q 14.984375 17.484375 19.15625 11.84375 
Q 23.34375 6.203125 30.609375 6.203125 
Q 37.796875 6.203125 41.984375 11.859375 
Q 46.1875 17.53125 46.1875 27.296875 
Q 46.1875 37.015625 41.984375 42.703125 
Q 37.796875 48.390625 30.609375 48.390625 
z
M 30.609375 56 
Q 42.328125 56 49.015625 48.375 
Q 55.71875 40.765625 55.71875 27.296875 
Q 55.71875 13.875 49.015625 6.21875 
Q 42.328125 -1.421875 30.609375 -1.421875 
Q 18.84375 -1.421875 12.171875 6.21875 
Q 5.515625 13.875 5.515625 27.296875 
Q 5.515625 40.765625 12.171875 48.375 
Q 18.84375 56 30.609375 56 
z
" id="DejaVuSans-111"/>
     <path d="M 41.109375 46.296875 
Q 39.59375 47.171875 37.8125 47.578125 
Q 36.03125 48 33.890625 48 
Q 26.265625 48 22.1875 43.046875 
Q 18.109375 38.09375 18.109375 28.8125 
L 18.109375 0 
L 9.078125 0 
L 9.078125 54.6875 
L 18.109375 54.6875 
L 18.109375 46.1875 
Q 20.953125 51.171875 25.484375 53.578125 
Q 30.03125 56 36.53125 56 
Q 37.453125 56 38.578125 55.875 
Q 39.703125 55.765625 41.0625 55.515625 
z
" id="DejaVuSans-114"/>
     <path d="M 54.890625 33.015625 
L 54.890625 0 
L 45.90625 0 
L 45.90625 32.71875 
Q 45.90625 40.484375 42.875 44.328125 
Q 39.84375 48.1875 33.796875 48.1875 
Q 26.515625 48.1875 22.3125 43.546875 
Q 18.109375 38.921875 18.109375 30.90625 
L 18.109375 0 
L 9.078125 0 
L 9.078125 75.984375 
L 18.109375 75.984375 
L 18.109375 46.1875 
Q 21.34375 51.125 25.703125 53.5625 
Q 30.078125 56 35.796875 56 
Q 45.21875 56 50.046875 50.171875 
Q 54.890625 44.34375 54.890625 33.015625 
z
" id="DejaVuSans-104"/>
     <path d="M 34.28125 27.484375 
Q 23.390625 27.484375 19.1875 25 
Q 14.984375 22.515625 14.984375 16.5 
Q 14.984375 11.71875 18.140625 8.90625 
Q 21.296875 6.109375 26.703125 6.109375 
Q 34.1875 6.109375 38.703125 11.40625 
Q 43.21875 16.703125 43.21875 25.484375 
L 43.21875 27.484375 
z
M 52.203125 31.203125 
L 52.203125 0 
L 43.21875 0 
L 43.21875 8.296875 
Q 40.140625 3.328125 35.546875 0.953125 
Q 30.953125 -1.421875 24.3125 -1.421875 
Q 15.921875 -1.421875 10.953125 3.296875 
Q 6 8.015625 6 15.921875 
Q 6 25.140625 12.171875 29.828125 
Q 18.359375 34.515625 30.609375 34.515625 
L 43.21875 34.515625 
L 43.21875 35.40625 
Q 43.21875 41.609375 39.140625 45 
Q 35.0625 48.390625 27.6875 48.390625 
Q 23 48.390625 18.546875 47.265625 
Q 14.109375 46.140625 10.015625 43.890625 
L 10.015625 52.203125 
Q 14.9375 54.109375 19.578125 55.046875 
Q 24.21875 56 28.609375 56 
Q 40.484375 56 46.34375 49.84375 
Q 52.203125 43.703125 52.203125 31.203125 
z
" id="DejaVuSans-97"/>
    </defs>
    <g transform="translate(624.149688 19.44)scale(0.12 -0.12)">
     <use xlink:href="#DejaVuSans-78"/>
     <use x="74.804688" xlink:href="#DejaVuSans-111"/>
     <use x="135.986328" xlink:href="#DejaVuSans-114"/>
     <use x="177.099609" xlink:href="#DejaVuSans-116"/>
     <use x="216.308594" xlink:href="#DejaVuSans-104"/>
     <use x="279.6875" xlink:href="#DejaVuSans-101"/>
     <use x="341.210938" xlink:href="#DejaVuSans-97"/>
     <use x="402.490234" xlink:href="#DejaVuSans-115"/>
     <use x="454.589844" xlink:href="#DejaVuSans-116"/>
    </g>
   </g>
  </g>
  <g id="axes_3">
   <g id="patch_12">
    <path d="M 49.75 572.06 
L 438.515 572.06 
L 438.515 314.53 
L 49.75 314.53 
z
" style="fill:#ffffff;"/>
   </g>
   <g id="PolyCollection_3">
    <defs>
     <path d="M 49.75 -114.112007 
L 49.75 -75.94 
L 56.020403 -75.94 
L 62.290806 -75.94 
L 68.56121 -75.94 
L 74.831613 -75.94 
L 81.102016 -75.94 
L 87.372419 -75.94 
L 93.642823 -75.94 
L 99.913226 -75.94 
L 106.183629 -75.94 
L 112.454032 -75.94 
L 118.724435 -75.94 
L 124.994839 -75.94 
L 131.265242 -75.94 
L 137.535645 -75.94 
L 143.806048 -75.94 
L 150.076452 -75.94 
L 156.346855 -75.94 
L 162.617258 -75.94 
L 168.887661 -75.94 
L 175.158065 -75.94 
L 181.428468 -75.94 
L 187.698871 -75.94 
L 193.969274 -75.94 
L 200.239677 -75.94 
L 206.510081 -75.94 
L 212.780484 -75.94 
L 219.050887 -75.94 
L 225.32129 -75.94 
L 231.591694 -75.94 
L 237.862097 -75.94 
L 244.1325 -75.94 
L 250.402903 -75.94 
L 256.673306 -75.94 
L 262.94371 -75.94 
L 269.214113 -75.94 
L 275.484516 -75.94 
L 281.754919 -75.94 
L 288.025323 -75.94 
L 294.295726 -75.94 
L 300.566129 -75.94 
L 306.836532 -75.94 
L 313.106935 -75.94 
L 319.377339 -75.94 
L 325.647742 -75.94 
L 331.918145 -75.94 
L 338.188548 -75.94 
L 344.458952 -75.94 
L 350.729355 -75.94 
L 356.999758 -75.94 
L 363.270161 -75.94 
L 369.540565 -75.94 
L 375.810968 -75.94 
L 382.081371 -75.94 
L 388.351774 -75.94 
L 394.622177 -75.94 
L 400.892581 -75.94 
L 407.162984 -75.94 
L 413.433387 -75.94 
L 419.70379 -75.94 
L 425.974194 -75.94 
L 432.244597 -75.94 
L 438.515 -75.94 
L 438.515 -177.040763 
L 438.515 -177.040763 
L 432.244597 -175.845661 
L 425.974194 -174.807603 
L 419.70379 -174.243784 
L 413.433387 -173.67954 
L 407.162984 -173.031054 
L 400.892581 -172.083343 
L 394.622177 -171.0718 
L 388.351774 -170.117962 
L 382.081371 -169.034385 
L 375.810968 -168.328776 
L 369.540565 -167.782411 
L 363.270161 -166.897358 
L 356.999758 -165.95657 
L 350.729355 -164.944205 
L 344.458952 -164.206127 
L 338.188548 -162.888836 
L 331.918145 -162.275905 
L 325.647742 -161.804013 
L 319.377339 -161.067129 
L 313.106935 -160.195823 
L 306.836532 -159.213403 
L 300.566129 -158.089661 
L 294.295726 -156.952874 
L 288.025323 -156.119227 
L 281.754919 -155.526192 
L 275.484516 -154.970658 
L 269.214113 -153.849005 
L 262.94371 -152.719229 
L 256.673306 -151.756255 
L 250.402903 -150.014707 
L 244.1325 -149.272258 
L 237.862097 -148.597331 
L 231.591694 -147.788779 
L 225.32129 -146.292125 
L 219.050887 -144.945533 
L 212.780484 -143.883207 
L 206.510081 -143.158067 
L 200.239677 -142.48607 
L 193.969274 -141.729086 
L 187.698871 -140.828845 
L 181.428468 -139.913573 
L 175.158065 -138.671138 
L 168.887661 -137.508395 
L 162.617258 -136.181384 
L 156.346855 -135.35915 
L 150.076452 -134.742092 
L 143.806048 -133.747024 
L 137.535645 -132.424452 
L 131.265242 -130.907715 
L 124.994839 -129.692722 
L 118.724435 -128.058151 
L 112.454032 -126.878929 
L 106.183629 -126.26962 
L 99.913226 -125.297443 
L 93.642823 -123.756411 
L 87.372419 -122.213961 
L 81.102016 -120.630454 
L 74.831613 -118.704875 
L 68.56121 -117.320838 
L 62.290806 -116.705881 
L 56.020403 -115.602521 
L 49.75 -114.112007 
z
" id="mc18c7f6151" style="stroke:#2ca02c;"/>
    </defs>
    <g clip-path="url(#p8c6a972853)">
     <use style="fill:#2ca02c;stroke:#2ca02c;" x="0" xlink:href="#mc18c7f6151" y="648"/>
    </g>
   </g>
   <g id="matplotlib.axis_5">
    <g id="xtick_25">
     <g id="line2d_41">
      <g>
       <use style="stroke:#000000;stroke-width:0.8;" x="49.75" xlink:href="#mf3c91e899c" y="572.06"/>
      </g>
     </g>
     <g id="text_10">
      <!-- 2020-05-01 -->
      <defs>
       <path d="M 4.890625 31.390625 
L 31.203125 31.390625 
L 31.203125 23.390625 
L 4.890625 23.390625 
z
" id="DejaVuSans-45"/>
      </defs>
      <g transform="translate(52.509375 637.175625)rotate(-90)scale(0.1 -0.1)">
       <use xlink:href="#DejaVuSans-50"/>
       <use x="63.623047" xlink:href="#DejaVuSans-48"/>
       <use x="127.246094" xlink:href="#DejaVuSans-50"/>
       <use x="190.869141" xlink:href="#DejaVuSans-48"/>
       <use x="254.492188" xlink:href="#DejaVuSans-45"/>
       <use x="290.576172" xlink:href="#DejaVuSans-48"/>
       <use x="354.199219" xlink:href="#DejaVuSans-53"/>
       <use x="417.822266" xlink:href="#DejaVuSans-45"/>
       <use x="453.90625" xlink:href="#DejaVuSans-48"/>
       <use x="517.529297" xlink:href="#DejaVuSans-49"/>
      </g>
     </g>
    </g>
    <g id="xtick_26">
     <g id="line2d_42">
      <g>
       <use style="stroke:#000000;stroke-width:0.8;" x="85.092273" xlink:href="#mf3c91e899c" y="572.06"/>
      </g>
     </g>
     <g id="text_11">
      <!-- 2020-05-06 -->
      <g transform="translate(87.851648 637.175625)rotate(-90)scale(0.1 -0.1)">
       <use xlink:href="#DejaVuSans-50"/>
       <use x="63.623047" xlink:href="#DejaVuSans-48"/>
       <use x="127.246094" xlink:href="#DejaVuSans-50"/>
       <use x="190.869141" xlink:href="#DejaVuSans-48"/>
       <use x="254.492188" xlink:href="#DejaVuSans-45"/>
       <use x="290.576172" xlink:href="#DejaVuSans-48"/>
       <use x="354.199219" xlink:href="#DejaVuSans-53"/>
       <use x="417.822266" xlink:href="#DejaVuSans-45"/>
       <use x="453.90625" xlink:href="#DejaVuSans-48"/>
       <use x="517.529297" xlink:href="#DejaVuSans-54"/>
      </g>
     </g>
    </g>
    <g id="xtick_27">
     <g id="line2d_43">
      <g>
       <use style="stroke:#000000;stroke-width:0.8;" x="120.434545" xlink:href="#mf3c91e899c" y="572.06"/>
      </g>
     </g>
     <g id="text_12">
      <!-- 2020-05-12 -->
      <g transform="translate(123.19392 637.175625)rotate(-90)scale(0.1 -0.1)">
       <use xlink:href="#DejaVuSans-50"/>
       <use x="63.623047" xlink:href="#DejaVuSans-48"/>
       <use x="127.246094" xlink:href="#DejaVuSans-50"/>
       <use x="190.869141" xlink:href="#DejaVuSans-48"/>
       <use x="254.492188" xlink:href="#DejaVuSans-45"/>
       <use x="290.576172" xlink:href="#DejaVuSans-48"/>
       <use x="354.199219" xlink:href="#DejaVuSans-53"/>
       <use x="417.822266" xlink:href="#DejaVuSans-45"/>
       <use x="453.90625" xlink:href="#DejaVuSans-49"/>
       <use x="517.529297" xlink:href="#DejaVuSans-50"/>
      </g>
     </g>
    </g>
    <g id="xtick_28">
     <g id="line2d_44">
      <g>
       <use style="stroke:#000000;stroke-width:0.8;" x="155.776818" xlink:href="#mf3c91e899c" y="572.06"/>
      </g>
     </g>
     <g id="text_13">
      <!-- 2020-05-17 -->
      <defs>
       <path d="M 8.203125 72.90625 
L 55.078125 72.90625 
L 55.078125 68.703125 
L 28.609375 0 
L 18.3125 0 
L 43.21875 64.59375 
L 8.203125 64.59375 
z
" id="DejaVuSans-55"/>
      </defs>
      <g transform="translate(158.536193 637.175625)rotate(-90)scale(0.1 -0.1)">
       <use xlink:href="#DejaVuSans-50"/>
       <use x="63.623047" xlink:href="#DejaVuSans-48"/>
       <use x="127.246094" xlink:href="#DejaVuSans-50"/>
       <use x="190.869141" xlink:href="#DejaVuSans-48"/>
       <use x="254.492188" xlink:href="#DejaVuSans-45"/>
       <use x="290.576172" xlink:href="#DejaVuSans-48"/>
       <use x="354.199219" xlink:href="#DejaVuSans-53"/>
       <use x="417.822266" xlink:href="#DejaVuSans-45"/>
       <use x="453.90625" xlink:href="#DejaVuSans-49"/>
       <use x="517.529297" xlink:href="#DejaVuSans-55"/>
      </g>
     </g>
    </g>
    <g id="xtick_29">
     <g id="line2d_45">
      <g>
       <use style="stroke:#000000;stroke-width:0.8;" x="191.119091" xlink:href="#mf3c91e899c" y="572.06"/>
      </g>
     </g>
     <g id="text_14">
      <!-- 2020-05-23 -->
      <g transform="translate(193.878466 637.175625)rotate(-90)scale(0.1 -0.1)">
       <use xlink:href="#DejaVuSans-50"/>
       <use x="63.623047" xlink:href="#DejaVuSans-48"/>
       <use x="127.246094" xlink:href="#DejaVuSans-50"/>
       <use x="190.869141" xlink:href="#DejaVuSans-48"/>
       <use x="254.492188" xlink:href="#DejaVuSans-45"/>
       <use x="290.576172" xlink:href="#DejaVuSans-48"/>
       <use x="354.199219" xlink:href="#DejaVuSans-53"/>
       <use x="417.822266" xlink:href="#DejaVuSans-45"/>
       <use x="453.90625" xlink:href="#DejaVuSans-50"/>
       <use x="517.529297" xlink:href="#DejaVuSans-51"/>
      </g>
     </g>
    </g>
    <g id="xtick_30">
     <g id="line2d_46">
      <g>
       <use style="stroke:#000000;stroke-width:0.8;" x="226.461364" xlink:href="#mf3c91e899c" y="572.06"/>
      </g>
     </g>
     <g id="text_15">
      <!-- 2020-05-29 -->
      <defs>
       <path d="M 10.984375 1.515625 
L 10.984375 10.5 
Q 14.703125 8.734375 18.5 7.8125 
Q 22.3125 6.890625 25.984375 6.890625 
Q 35.75 6.890625 40.890625 13.453125 
Q 46.046875 20.015625 46.78125 33.40625 
Q 43.953125 29.203125 39.59375 26.953125 
Q 35.25 24.703125 29.984375 24.703125 
Q 19.046875 24.703125 12.671875 31.3125 
Q 6.296875 37.9375 6.296875 49.421875 
Q 6.296875 60.640625 12.9375 67.421875 
Q 19.578125 74.21875 30.609375 74.21875 
Q 43.265625 74.21875 49.921875 64.515625 
Q 56.59375 54.828125 56.59375 36.375 
Q 56.59375 19.140625 48.40625 8.859375 
Q 40.234375 -1.421875 26.421875 -1.421875 
Q 22.703125 -1.421875 18.890625 -0.6875 
Q 15.09375 0.046875 10.984375 1.515625 
z
M 30.609375 32.421875 
Q 37.25 32.421875 41.125 36.953125 
Q 45.015625 41.5 45.015625 49.421875 
Q 45.015625 57.28125 41.125 61.84375 
Q 37.25 66.40625 30.609375 66.40625 
Q 23.96875 66.40625 20.09375 61.84375 
Q 16.21875 57.28125 16.21875 49.421875 
Q 16.21875 41.5 20.09375 36.953125 
Q 23.96875 32.421875 30.609375 32.421875 
z
" id="DejaVuSans-57"/>
      </defs>
      <g transform="translate(229.220739 637.175625)rotate(-90)scale(0.1 -0.1)">
       <use xlink:href="#DejaVuSans-50"/>
       <use x="63.623047" xlink:href="#DejaVuSans-48"/>
       <use x="127.246094" xlink:href="#DejaVuSans-50"/>
       <use x="190.869141" xlink:href="#DejaVuSans-48"/>
       <use x="254.492188" xlink:href="#DejaVuSans-45"/>
       <use x="290.576172" xlink:href="#DejaVuSans-48"/>
       <use x="354.199219" xlink:href="#DejaVuSans-53"/>
       <use x="417.822266" xlink:href="#DejaVuSans-45"/>
       <use x="453.90625" xlink:href="#DejaVuSans-50"/>
       <use x="517.529297" xlink:href="#DejaVuSans-57"/>
      </g>
     </g>
    </g>
    <g id="xtick_31">
     <g id="line2d_47">
      <g>
       <use style="stroke:#000000;stroke-width:0.8;" x="261.803636" xlink:href="#mf3c91e899c" y="572.06"/>
      </g>
     </g>
     <g id="text_16">
      <!-- 2020-06-03 -->
      <g transform="translate(264.563011 637.175625)rotate(-90)scale(0.1 -0.1)">
       <use xlink:href="#DejaVuSans-50"/>
       <use x="63.623047" xlink:href="#DejaVuSans-48"/>
       <use x="127.246094" xlink:href="#DejaVuSans-50"/>
       <use x="190.869141" xlink:href="#DejaVuSans-48"/>
       <use x="254.492188" xlink:href="#DejaVuSans-45"/>
       <use x="290.576172" xlink:href="#DejaVuSans-48"/>
       <use x="354.199219" xlink:href="#DejaVuSans-54"/>
       <use x="417.822266" xlink:href="#DejaVuSans-45"/>
       <use x="453.90625" xlink:href="#DejaVuSans-48"/>
       <use x="517.529297" xlink:href="#DejaVuSans-51"/>
      </g>
     </g>
    </g>
    <g id="xtick_32">
     <g id="line2d_48">
      <g>
       <use style="stroke:#000000;stroke-width:0.8;" x="297.145909" xlink:href="#mf3c91e899c" y="572.06"/>
      </g>
     </g>
     <g id="text_17">
      <!-- 2020-06-09 -->
      <g transform="translate(299.905284 637.175625)rotate(-90)scale(0.1 -0.1)">
       <use xlink:href="#DejaVuSans-50"/>
       <use x="63.623047" xlink:href="#DejaVuSans-48"/>
       <use x="127.246094" xlink:href="#DejaVuSans-50"/>
       <use x="190.869141" xlink:href="#DejaVuSans-48"/>
       <use x="254.492188" xlink:href="#DejaVuSans-45"/>
       <use x="290.576172" xlink:href="#DejaVuSans-48"/>
       <use x="354.199219" xlink:href="#DejaVuSans-54"/>
       <use x="417.822266" xlink:href="#DejaVuSans-45"/>
       <use x="453.90625" xlink:href="#DejaVuSans-48"/>
       <use x="517.529297" xlink:href="#DejaVuSans-57"/>
      </g>
     </g>
    </g>
    <g id="xtick_33">
     <g id="line2d_49">
      <g>
       <use style="stroke:#000000;stroke-width:0.8;" x="332.488182" xlink:href="#mf3c91e899c" y="572.06"/>
      </g>
     </g>
     <g id="text_18">
      <!-- 2020-06-15 -->
      <g transform="translate(335.247557 637.175625)rotate(-90)scale(0.1 -0.1)">
       <use xlink:href="#DejaVuSans-50"/>
       <use x="63.623047" xlink:href="#DejaVuSans-48"/>
       <use x="127.246094" xlink:href="#DejaVuSans-50"/>
       <use x="190.869141" xlink:href="#DejaVuSans-48"/>
       <use x="254.492188" xlink:href="#DejaVuSans-45"/>
       <use x="290.576172" xlink:href="#DejaVuSans-48"/>
       <use x="354.199219" xlink:href="#DejaVuSans-54"/>
       <use x="417.822266" xlink:href="#DejaVuSans-45"/>
       <use x="453.90625" xlink:href="#DejaVuSans-49"/>
       <use x="517.529297" xlink:href="#DejaVuSans-53"/>
      </g>
     </g>
    </g>
    <g id="xtick_34">
     <g id="line2d_50">
      <g>
       <use style="stroke:#000000;stroke-width:0.8;" x="367.830455" xlink:href="#mf3c91e899c" y="572.06"/>
      </g>
     </g>
     <g id="text_19">
      <!-- 2020-06-20 -->
      <g transform="translate(370.58983 637.175625)rotate(-90)scale(0.1 -0.1)">
       <use xlink:href="#DejaVuSans-50"/>
       <use x="63.623047" xlink:href="#DejaVuSans-48"/>
       <use x="127.246094" xlink:href="#DejaVuSans-50"/>
       <use x="190.869141" xlink:href="#DejaVuSans-48"/>
       <use x="254.492188" xlink:href="#DejaVuSans-45"/>
       <use x="290.576172" xlink:href="#DejaVuSans-48"/>
       <use x="354.199219" xlink:href="#DejaVuSans-54"/>
       <use x="417.822266" xlink:href="#DejaVuSans-45"/>
       <use x="453.90625" xlink:href="#DejaVuSans-50"/>
       <use x="517.529297" xlink:href="#DejaVuSans-48"/>
      </g>
     </g>
    </g>
    <g id="xtick_35">
     <g id="line2d_51">
      <g>
       <use style="stroke:#000000;stroke-width:0.8;" x="403.172727" xlink:href="#mf3c91e899c" y="572.06"/>
      </g>
     </g>
     <g id="text_20">
      <!-- 2020-06-26 -->
      <g transform="translate(405.932102 637.175625)rotate(-90)scale(0.1 -0.1)">
       <use xlink:href="#DejaVuSans-50"/>
       <use x="63.623047" xlink:href="#DejaVuSans-48"/>
       <use x="127.246094" xlink:href="#DejaVuSans-50"/>
       <use x="190.869141" xlink:href="#DejaVuSans-48"/>
       <use x="254.492188" xlink:href="#DejaVuSans-45"/>
       <use x="290.576172" xlink:href="#DejaVuSans-48"/>
       <use x="354.199219" xlink:href="#DejaVuSans-54"/>
       <use x="417.822266" xlink:href="#DejaVuSans-45"/>
       <use x="453.90625" xlink:href="#DejaVuSans-50"/>
       <use x="517.529297" xlink:href="#DejaVuSans-54"/>
      </g>
     </g>
    </g>
    <g id="xtick_36">
     <g id="line2d_52">
      <g>
       <use style="stroke:#000000;stroke-width:0.8;" x="438.515" xlink:href="#mf3c91e899c" y="572.06"/>
      </g>
     </g>
     <g id="text_21">
      <!-- 2020-07-02 -->
      <g transform="translate(441.274375 637.175625)rotate(-90)scale(0.1 -0.1)">
       <use xlink:href="#DejaVuSans-50"/>
       <use x="63.623047" xlink:href="#DejaVuSans-48"/>
       <use x="127.246094" xlink:href="#DejaVuSans-50"/>
       <use x="190.869141" xlink:href="#DejaVuSans-48"/>
       <use x="254.492188" xlink:href="#DejaVuSans-45"/>
       <use x="290.576172" xlink:href="#DejaVuSans-48"/>
       <use x="354.199219" xlink:href="#DejaVuSans-55"/>
       <use x="417.822266" xlink:href="#DejaVuSans-45"/>
       <use x="453.90625" xlink:href="#DejaVuSans-48"/>
       <use x="517.529297" xlink:href="#DejaVuSans-50"/>
      </g>
     </g>
    </g>
   </g>
   <g id="matplotlib.axis_6">
    <g id="ytick_15">
     <g id="line2d_53">
      <g>
       <use style="stroke:#000000;stroke-width:0.8;" x="49.75" xlink:href="#m6491fcb9c3" y="572.06"/>
      </g>
     </g>
     <g id="text_22">
      <!-- 0 -->
      <g transform="translate(36.3875 575.859219)scale(0.1 -0.1)">
       <use xlink:href="#DejaVuSans-48"/>
      </g>
     </g>
    </g>
    <g id="ytick_16">
     <g id="line2d_54">
      <g>
       <use style="stroke:#000000;stroke-width:0.8;" x="49.75" xlink:href="#m6491fcb9c3" y="530.238101"/>
      </g>
     </g>
     <g id="text_23">
      <!-- 10000 -->
      <g transform="translate(10.9375 534.03732)scale(0.1 -0.1)">
       <use xlink:href="#DejaVuSans-49"/>
       <use x="63.623047" xlink:href="#DejaVuSans-48"/>
       <use x="127.246094" xlink:href="#DejaVuSans-48"/>
       <use x="190.869141" xlink:href="#DejaVuSans-48"/>
       <use x="254.492188" xlink:href="#DejaVuSans-48"/>
      </g>
     </g>
    </g>
    <g id="ytick_17">
     <g id="line2d_55">
      <g>
       <use style="stroke:#000000;stroke-width:0.8;" x="49.75" xlink:href="#m6491fcb9c3" y="488.416202"/>
      </g>
     </g>
     <g id="text_24">
      <!-- 20000 -->
      <g transform="translate(10.9375 492.215421)scale(0.1 -0.1)">
       <use xlink:href="#DejaVuSans-50"/>
       <use x="63.623047" xlink:href="#DejaVuSans-48"/>
       <use x="127.246094" xlink:href="#DejaVuSans-48"/>
       <use x="190.869141" xlink:href="#DejaVuSans-48"/>
       <use x="254.492188" xlink:href="#DejaVuSans-48"/>
      </g>
     </g>
    </g>
    <g id="ytick_18">
     <g id="line2d_56">
      <g>
       <use style="stroke:#000000;stroke-width:0.8;" x="49.75" xlink:href="#m6491fcb9c3" y="446.594303"/>
      </g>
     </g>
     <g id="text_25">
      <!-- 30000 -->
      <g transform="translate(10.9375 450.393522)scale(0.1 -0.1)">
       <use xlink:href="#DejaVuSans-51"/>
       <use x="63.623047" xlink:href="#DejaVuSans-48"/>
       <use x="127.246094" xlink:href="#DejaVuSans-48"/>
       <use x="190.869141" xlink:href="#DejaVuSans-48"/>
       <use x="254.492188" xlink:href="#DejaVuSans-48"/>
      </g>
     </g>
    </g>
    <g id="ytick_19">
     <g id="line2d_57">
      <g>
       <use style="stroke:#000000;stroke-width:0.8;" x="49.75" xlink:href="#m6491fcb9c3" y="404.772404"/>
      </g>
     </g>
     <g id="text_26">
      <!-- 40000 -->
      <g transform="translate(10.9375 408.571623)scale(0.1 -0.1)">
       <use xlink:href="#DejaVuSans-52"/>
       <use x="63.623047" xlink:href="#DejaVuSans-48"/>
       <use x="127.246094" xlink:href="#DejaVuSans-48"/>
       <use x="190.869141" xlink:href="#DejaVuSans-48"/>
       <use x="254.492188" xlink:href="#DejaVuSans-48"/>
      </g>
     </g>
    </g>
    <g id="ytick_20">
     <g id="line2d_58">
      <g>
       <use style="stroke:#000000;stroke-width:0.8;" x="49.75" xlink:href="#m6491fcb9c3" y="362.950505"/>
      </g>
     </g>
     <g id="text_27">
      <!-- 50000 -->
      <g transform="translate(10.9375 366.749724)scale(0.1 -0.1)">
       <use xlink:href="#DejaVuSans-53"/>
       <use x="63.623047" xlink:href="#DejaVuSans-48"/>
       <use x="127.246094" xlink:href="#DejaVuSans-48"/>
       <use x="190.869141" xlink:href="#DejaVuSans-48"/>
       <use x="254.492188" xlink:href="#DejaVuSans-48"/>
      </g>
     </g>
    </g>
    <g id="ytick_21">
     <g id="line2d_59">
      <g>
       <use style="stroke:#000000;stroke-width:0.8;" x="49.75" xlink:href="#m6491fcb9c3" y="321.128606"/>
      </g>
     </g>
     <g id="text_28">
      <!-- 60000 -->
      <g transform="translate(10.9375 324.927824)scale(0.1 -0.1)">
       <use xlink:href="#DejaVuSans-54"/>
       <use x="63.623047" xlink:href="#DejaVuSans-48"/>
       <use x="127.246094" xlink:href="#DejaVuSans-48"/>
       <use x="190.869141" xlink:href="#DejaVuSans-48"/>
       <use x="254.492188" xlink:href="#DejaVuSans-48"/>
      </g>
     </g>
    </g>
   </g>
   <g id="line2d_60">
    <path clip-path="url(#p8c6a972853)" d="M 49.75 533.887993 
L 56.020403 532.397479 
L 62.290806 531.294119 
L 68.56121 530.679162 
L 74.831613 529.295125 
L 81.102016 527.369546 
L 87.372419 525.786039 
L 93.642823 524.243589 
L 99.913226 522.702557 
L 106.183629 521.73038 
L 112.454032 521.121071 
L 118.724435 519.941849 
L 124.994839 518.307278 
L 131.265242 517.092285 
L 137.535645 515.575548 
L 143.806048 514.252976 
L 150.076452 513.257908 
L 156.346855 512.64085 
L 162.617258 511.818616 
L 168.887661 510.491605 
L 175.158065 509.328862 
L 181.428468 508.086427 
L 187.698871 507.171155 
L 193.969274 506.270914 
L 200.239677 505.51393 
L 206.510081 504.841933 
L 212.780484 504.116793 
L 219.050887 503.054467 
L 225.32129 501.707875 
L 231.591694 500.211221 
L 237.862097 499.402669 
L 244.1325 498.727742 
L 250.402903 497.985293 
L 256.673306 496.243745 
L 262.94371 495.280771 
L 269.214113 494.150995 
L 275.484516 493.029342 
L 281.754919 492.473808 
L 288.025323 491.880773 
L 294.295726 491.047126 
L 300.566129 489.910339 
L 306.836532 488.786597 
L 313.106935 487.804177 
L 319.377339 486.932871 
L 325.647742 486.195987 
L 331.918145 485.724095 
L 338.188548 485.111164 
L 344.458952 483.793873 
L 350.729355 483.055795 
L 356.999758 482.04343 
L 363.270161 481.102642 
L 369.540565 480.217589 
L 375.810968 479.671224 
L 382.081371 478.965615 
L 388.351774 477.882038 
L 394.622177 476.9282 
L 400.892581 475.916657 
L 407.162984 474.968946 
L 413.433387 474.32046 
L 419.70379 473.756216 
L 425.974194 473.192397 
L 432.244597 472.154339 
L 438.515 470.959237 
" style="fill:none;stroke:#2ca02c;stroke-linecap:square;stroke-width:1.5;"/>
   </g>
   <g id="patch_13">
    <path d="M 49.75 572.06 
L 49.75 314.53 
" style="fill:none;stroke:#000000;stroke-linecap:square;stroke-linejoin:miter;stroke-width:0.8;"/>
   </g>
   <g id="patch_14">
    <path d="M 438.515 572.06 
L 438.515 314.53 
" style="fill:none;stroke:#000000;stroke-linecap:square;stroke-linejoin:miter;stroke-width:0.8;"/>
   </g>
   <g id="patch_15">
    <path d="M 49.75 572.06 
L 438.515 572.06 
" style="fill:none;stroke:#000000;stroke-linecap:square;stroke-linejoin:miter;stroke-width:0.8;"/>
   </g>
   <g id="patch_16">
    <path d="M 49.75 314.53 
L 438.515 314.53 
" style="fill:none;stroke:#000000;stroke-linecap:square;stroke-linejoin:miter;stroke-width:0.8;"/>
   </g>
   <g id="text_29">
    <!-- South -->
    <defs>
     <path d="M 53.515625 70.515625 
L 53.515625 60.890625 
Q 47.90625 63.578125 42.921875 64.890625 
Q 37.9375 66.21875 33.296875 66.21875 
Q 25.25 66.21875 20.875 63.09375 
Q 16.5 59.96875 16.5 54.203125 
Q 16.5 49.359375 19.40625 46.890625 
Q 22.3125 44.4375 30.421875 42.921875 
L 36.375 41.703125 
Q 47.40625 39.59375 52.65625 34.296875 
Q 57.90625 29 57.90625 20.125 
Q 57.90625 9.515625 50.796875 4.046875 
Q 43.703125 -1.421875 29.984375 -1.421875 
Q 24.8125 -1.421875 18.96875 -0.25 
Q 13.140625 0.921875 6.890625 3.21875 
L 6.890625 13.375 
Q 12.890625 10.015625 18.65625 8.296875 
Q 24.421875 6.59375 29.984375 6.59375 
Q 38.421875 6.59375 43.015625 9.90625 
Q 47.609375 13.234375 47.609375 19.390625 
Q 47.609375 24.75 44.3125 27.78125 
Q 41.015625 30.8125 33.5 32.328125 
L 27.484375 33.5 
Q 16.453125 35.6875 11.515625 40.375 
Q 6.59375 45.0625 6.59375 53.421875 
Q 6.59375 63.09375 13.40625 68.65625 
Q 20.21875 74.21875 32.171875 74.21875 
Q 37.3125 74.21875 42.625 73.28125 
Q 47.953125 72.359375 53.515625 70.515625 
z
" id="DejaVuSans-83"/>
     <path d="M 8.5 21.578125 
L 8.5 54.6875 
L 17.484375 54.6875 
L 17.484375 21.921875 
Q 17.484375 14.15625 20.5 10.265625 
Q 23.53125 6.390625 29.59375 6.390625 
Q 36.859375 6.390625 41.078125 11.03125 
Q 45.3125 15.671875 45.3125 23.6875 
L 45.3125 54.6875 
L 54.296875 54.6875 
L 54.296875 0 
L 45.3125 0 
L 45.3125 8.40625 
Q 42.046875 3.421875 37.71875 1 
Q 33.40625 -1.421875 27.6875 -1.421875 
Q 18.265625 -1.421875 13.375 4.4375 
Q 8.5 10.296875 8.5 21.578125 
z
M 31.109375 56 
z
" id="DejaVuSans-117"/>
    </defs>
    <g transform="translate(226.695 308.53)scale(0.12 -0.12)">
     <use xlink:href="#DejaVuSans-83"/>
     <use x="63.476562" xlink:href="#DejaVuSans-111"/>
     <use x="124.658203" xlink:href="#DejaVuSans-117"/>
     <use x="188.037109" xlink:href="#DejaVuSans-116"/>
     <use x="227.246094" xlink:href="#DejaVuSans-104"/>
    </g>
   </g>
  </g>
  <g id="axes_4">
   <g id="patch_17">
    <path d="M 459.395 572.06 
L 848.16 572.06 
L 848.16 314.53 
L 459.395 314.53 
z
" style="fill:#ffffff;"/>
   </g>
   <g id="PolyCollection_4">
    <defs>
     <path d="M 459.395 -94.88351 
L 459.395 -75.94 
L 465.665403 -75.94 
L 471.935806 -75.94 
L 478.20621 -75.94 
L 484.476613 -75.94 
L 490.747016 -75.94 
L 497.017419 -75.94 
L 503.287823 -75.94 
L 509.558226 -75.94 
L 515.828629 -75.94 
L 522.099032 -75.94 
L 528.369435 -75.94 
L 534.639839 -75.94 
L 540.910242 -75.94 
L 547.180645 -75.94 
L 553.451048 -75.94 
L 559.721452 -75.94 
L 565.991855 -75.94 
L 572.262258 -75.94 
L 578.532661 -75.94 
L 584.803065 -75.94 
L 591.073468 -75.94 
L 597.343871 -75.94 
L 603.614274 -75.94 
L 609.884677 -75.94 
L 616.155081 -75.94 
L 622.425484 -75.94 
L 628.695887 -75.94 
L 634.96629 -75.94 
L 641.236694 -75.94 
L 647.507097 -75.94 
L 653.7775 -75.94 
L 660.047903 -75.94 
L 666.318306 -75.94 
L 672.58871 -75.94 
L 678.859113 -75.94 
L 685.129516 -75.94 
L 691.399919 -75.94 
L 697.670323 -75.94 
L 703.940726 -75.94 
L 710.211129 -75.94 
L 716.481532 -75.94 
L 722.751935 -75.94 
L 729.022339 -75.94 
L 735.292742 -75.94 
L 741.563145 -75.94 
L 747.833548 -75.94 
L 754.103952 -75.94 
L 760.374355 -75.94 
L 766.644758 -75.94 
L 772.915161 -75.94 
L 779.185565 -75.94 
L 785.455968 -75.94 
L 791.726371 -75.94 
L 797.996774 -75.94 
L 804.267177 -75.94 
L 810.537581 -75.94 
L 816.807984 -75.94 
L 823.078387 -75.94 
L 829.34879 -75.94 
L 835.619194 -75.94 
L 841.889597 -75.94 
L 848.16 -75.94 
L 848.16 -127.449411 
L 848.16 -127.449411 
L 841.889597 -126.707817 
L 835.619194 -126.201075 
L 829.34879 -125.855657 
L 823.078387 -125.521609 
L 816.807984 -125.172878 
L 810.537581 -124.46971 
L 804.267177 -123.551904 
L 797.996774 -123.211062 
L 791.726371 -122.483131 
L 785.455968 -122.394906 
L 779.185565 -122.283251 
L 772.915161 -121.47445 
L 766.644758 -121.163347 
L 760.374355 -120.613871 
L 754.103952 -120.095921 
L 747.833548 -119.774325 
L 741.563145 -119.307886 
L 735.292742 -119.094857 
L 729.022339 -118.716804 
L 722.751935 -118.148981 
L 716.481532 -117.42704 
L 710.211129 -116.855639 
L 703.940726 -116.441157 
L 697.670323 -116.154952 
L 691.399919 -115.743857 
L 685.129516 -115.307955 
L 678.859113 -114.805456 
L 672.58871 -114.364841 
L 666.318306 -113.6776 
L 660.047903 -113.313857 
L 653.7775 -113.032452 
L 647.507097 -112.641475 
L 641.236694 -112.11635 
L 634.96629 -111.26615 
L 628.695887 -110.716866 
L 622.425484 -110.054804 
L 616.155081 -109.833045 
L 609.884677 -109.656417 
L 603.614274 -109.265324 
L 597.343871 -108.665329 
L 591.073468 -104.325543 
L 584.803065 -107.525834 
L 578.532661 -106.760182 
L 572.262258 -106.07127 
L 565.991855 -105.715508 
L 559.721452 -105.350009 
L 553.451048 -104.296246 
L 547.180645 -103.697905 
L 540.910242 -102.956761 
L 534.639839 -102.142271 
L 528.369435 -101.424951 
L 522.099032 -101.064219 
L 515.828629 -100.618962 
L 509.558226 -100.01359 
L 503.287823 -99.276698 
L 497.017419 -98.45485 
L 490.747016 -97.74175 
L 484.476613 -96.902275 
L 478.20621 -96.605382 
L 471.935806 -96.258292 
L 465.665403 -95.411378 
L 459.395 -94.88351 
z
" id="mf851a59923" style="stroke:#d62728;"/>
    </defs>
    <g clip-path="url(#pe95c40751e)">
     <use style="fill:#d62728;stroke:#d62728;" x="0" xlink:href="#mf851a59923" y="648"/>
    </g>
   </g>
   <g id="matplotlib.axis_7">
    <g id="xtick_37">
     <g id="line2d_61">
      <g>
       <use style="stroke:#000000;stroke-width:0.8;" x="459.395" xlink:href="#mf3c91e899c" y="572.06"/>
      </g>
     </g>
     <g id="text_30">
      <!-- 2020-05-01 -->
      <g transform="translate(462.154375 637.175625)rotate(-90)scale(0.1 -0.1)">
       <use xlink:href="#DejaVuSans-50"/>
       <use x="63.623047" xlink:href="#DejaVuSans-48"/>
       <use x="127.246094" xlink:href="#DejaVuSans-50"/>
       <use x="190.869141" xlink:href="#DejaVuSans-48"/>
       <use x="254.492188" xlink:href="#DejaVuSans-45"/>
       <use x="290.576172" xlink:href="#DejaVuSans-48"/>
       <use x="354.199219" xlink:href="#DejaVuSans-53"/>
       <use x="417.822266" xlink:href="#DejaVuSans-45"/>
       <use x="453.90625" xlink:href="#DejaVuSans-48"/>
       <use x="517.529297" xlink:href="#DejaVuSans-49"/>
      </g>
     </g>
    </g>
    <g id="xtick_38">
     <g id="line2d_62">
      <g>
       <use style="stroke:#000000;stroke-width:0.8;" x="494.737273" xlink:href="#mf3c91e899c" y="572.06"/>
      </g>
     </g>
     <g id="text_31">
      <!-- 2020-05-06 -->
      <g transform="translate(497.496648 637.175625)rotate(-90)scale(0.1 -0.1)">
       <use xlink:href="#DejaVuSans-50"/>
       <use x="63.623047" xlink:href="#DejaVuSans-48"/>
       <use x="127.246094" xlink:href="#DejaVuSans-50"/>
       <use x="190.869141" xlink:href="#DejaVuSans-48"/>
       <use x="254.492188" xlink:href="#DejaVuSans-45"/>
       <use x="290.576172" xlink:href="#DejaVuSans-48"/>
       <use x="354.199219" xlink:href="#DejaVuSans-53"/>
       <use x="417.822266" xlink:href="#DejaVuSans-45"/>
       <use x="453.90625" xlink:href="#DejaVuSans-48"/>
       <use x="517.529297" xlink:href="#DejaVuSans-54"/>
      </g>
     </g>
    </g>
    <g id="xtick_39">
     <g id="line2d_63">
      <g>
       <use style="stroke:#000000;stroke-width:0.8;" x="530.079545" xlink:href="#mf3c91e899c" y="572.06"/>
      </g>
     </g>
     <g id="text_32">
      <!-- 2020-05-12 -->
      <g transform="translate(532.83892 637.175625)rotate(-90)scale(0.1 -0.1)">
       <use xlink:href="#DejaVuSans-50"/>
       <use x="63.623047" xlink:href="#DejaVuSans-48"/>
       <use x="127.246094" xlink:href="#DejaVuSans-50"/>
       <use x="190.869141" xlink:href="#DejaVuSans-48"/>
       <use x="254.492188" xlink:href="#DejaVuSans-45"/>
       <use x="290.576172" xlink:href="#DejaVuSans-48"/>
       <use x="354.199219" xlink:href="#DejaVuSans-53"/>
       <use x="417.822266" xlink:href="#DejaVuSans-45"/>
       <use x="453.90625" xlink:href="#DejaVuSans-49"/>
       <use x="517.529297" xlink:href="#DejaVuSans-50"/>
      </g>
     </g>
    </g>
    <g id="xtick_40">
     <g id="line2d_64">
      <g>
       <use style="stroke:#000000;stroke-width:0.8;" x="565.421818" xlink:href="#mf3c91e899c" y="572.06"/>
      </g>
     </g>
     <g id="text_33">
      <!-- 2020-05-17 -->
      <g transform="translate(568.181193 637.175625)rotate(-90)scale(0.1 -0.1)">
       <use xlink:href="#DejaVuSans-50"/>
       <use x="63.623047" xlink:href="#DejaVuSans-48"/>
       <use x="127.246094" xlink:href="#DejaVuSans-50"/>
       <use x="190.869141" xlink:href="#DejaVuSans-48"/>
       <use x="254.492188" xlink:href="#DejaVuSans-45"/>
       <use x="290.576172" xlink:href="#DejaVuSans-48"/>
       <use x="354.199219" xlink:href="#DejaVuSans-53"/>
       <use x="417.822266" xlink:href="#DejaVuSans-45"/>
       <use x="453.90625" xlink:href="#DejaVuSans-49"/>
       <use x="517.529297" xlink:href="#DejaVuSans-55"/>
      </g>
     </g>
    </g>
    <g id="xtick_41">
     <g id="line2d_65">
      <g>
       <use style="stroke:#000000;stroke-width:0.8;" x="600.764091" xlink:href="#mf3c91e899c" y="572.06"/>
      </g>
     </g>
     <g id="text_34">
      <!-- 2020-05-23 -->
      <g transform="translate(603.523466 637.175625)rotate(-90)scale(0.1 -0.1)">
       <use xlink:href="#DejaVuSans-50"/>
       <use x="63.623047" xlink:href="#DejaVuSans-48"/>
       <use x="127.246094" xlink:href="#DejaVuSans-50"/>
       <use x="190.869141" xlink:href="#DejaVuSans-48"/>
       <use x="254.492188" xlink:href="#DejaVuSans-45"/>
       <use x="290.576172" xlink:href="#DejaVuSans-48"/>
       <use x="354.199219" xlink:href="#DejaVuSans-53"/>
       <use x="417.822266" xlink:href="#DejaVuSans-45"/>
       <use x="453.90625" xlink:href="#DejaVuSans-50"/>
       <use x="517.529297" xlink:href="#DejaVuSans-51"/>
      </g>
     </g>
    </g>
    <g id="xtick_42">
     <g id="line2d_66">
      <g>
       <use style="stroke:#000000;stroke-width:0.8;" x="636.106364" xlink:href="#mf3c91e899c" y="572.06"/>
      </g>
     </g>
     <g id="text_35">
      <!-- 2020-05-29 -->
      <g transform="translate(638.865739 637.175625)rotate(-90)scale(0.1 -0.1)">
       <use xlink:href="#DejaVuSans-50"/>
       <use x="63.623047" xlink:href="#DejaVuSans-48"/>
       <use x="127.246094" xlink:href="#DejaVuSans-50"/>
       <use x="190.869141" xlink:href="#DejaVuSans-48"/>
       <use x="254.492188" xlink:href="#DejaVuSans-45"/>
       <use x="290.576172" xlink:href="#DejaVuSans-48"/>
       <use x="354.199219" xlink:href="#DejaVuSans-53"/>
       <use x="417.822266" xlink:href="#DejaVuSans-45"/>
       <use x="453.90625" xlink:href="#DejaVuSans-50"/>
       <use x="517.529297" xlink:href="#DejaVuSans-57"/>
      </g>
     </g>
    </g>
    <g id="xtick_43">
     <g id="line2d_67">
      <g>
       <use style="stroke:#000000;stroke-width:0.8;" x="671.448636" xlink:href="#mf3c91e899c" y="572.06"/>
      </g>
     </g>
     <g id="text_36">
      <!-- 2020-06-03 -->
      <g transform="translate(674.208011 637.175625)rotate(-90)scale(0.1 -0.1)">
       <use xlink:href="#DejaVuSans-50"/>
       <use x="63.623047" xlink:href="#DejaVuSans-48"/>
       <use x="127.246094" xlink:href="#DejaVuSans-50"/>
       <use x="190.869141" xlink:href="#DejaVuSans-48"/>
       <use x="254.492188" xlink:href="#DejaVuSans-45"/>
       <use x="290.576172" xlink:href="#DejaVuSans-48"/>
       <use x="354.199219" xlink:href="#DejaVuSans-54"/>
       <use x="417.822266" xlink:href="#DejaVuSans-45"/>
       <use x="453.90625" xlink:href="#DejaVuSans-48"/>
       <use x="517.529297" xlink:href="#DejaVuSans-51"/>
      </g>
     </g>
    </g>
    <g id="xtick_44">
     <g id="line2d_68">
      <g>
       <use style="stroke:#000000;stroke-width:0.8;" x="706.790909" xlink:href="#mf3c91e899c" y="572.06"/>
      </g>
     </g>
     <g id="text_37">
      <!-- 2020-06-09 -->
      <g transform="translate(709.550284 637.175625)rotate(-90)scale(0.1 -0.1)">
       <use xlink:href="#DejaVuSans-50"/>
       <use x="63.623047" xlink:href="#DejaVuSans-48"/>
       <use x="127.246094" xlink:href="#DejaVuSans-50"/>
       <use x="190.869141" xlink:href="#DejaVuSans-48"/>
       <use x="254.492188" xlink:href="#DejaVuSans-45"/>
       <use x="290.576172" xlink:href="#DejaVuSans-48"/>
       <use x="354.199219" xlink:href="#DejaVuSans-54"/>
       <use x="417.822266" xlink:href="#DejaVuSans-45"/>
       <use x="453.90625" xlink:href="#DejaVuSans-48"/>
       <use x="517.529297" xlink:href="#DejaVuSans-57"/>
      </g>
     </g>
    </g>
    <g id="xtick_45">
     <g id="line2d_69">
      <g>
       <use style="stroke:#000000;stroke-width:0.8;" x="742.133182" xlink:href="#mf3c91e899c" y="572.06"/>
      </g>
     </g>
     <g id="text_38">
      <!-- 2020-06-15 -->
      <g transform="translate(744.892557 637.175625)rotate(-90)scale(0.1 -0.1)">
       <use xlink:href="#DejaVuSans-50"/>
       <use x="63.623047" xlink:href="#DejaVuSans-48"/>
       <use x="127.246094" xlink:href="#DejaVuSans-50"/>
       <use x="190.869141" xlink:href="#DejaVuSans-48"/>
       <use x="254.492188" xlink:href="#DejaVuSans-45"/>
       <use x="290.576172" xlink:href="#DejaVuSans-48"/>
       <use x="354.199219" xlink:href="#DejaVuSans-54"/>
       <use x="417.822266" xlink:href="#DejaVuSans-45"/>
       <use x="453.90625" xlink:href="#DejaVuSans-49"/>
       <use x="517.529297" xlink:href="#DejaVuSans-53"/>
      </g>
     </g>
    </g>
    <g id="xtick_46">
     <g id="line2d_70">
      <g>
       <use style="stroke:#000000;stroke-width:0.8;" x="777.475455" xlink:href="#mf3c91e899c" y="572.06"/>
      </g>
     </g>
     <g id="text_39">
      <!-- 2020-06-20 -->
      <g transform="translate(780.23483 637.175625)rotate(-90)scale(0.1 -0.1)">
       <use xlink:href="#DejaVuSans-50"/>
       <use x="63.623047" xlink:href="#DejaVuSans-48"/>
       <use x="127.246094" xlink:href="#DejaVuSans-50"/>
       <use x="190.869141" xlink:href="#DejaVuSans-48"/>
       <use x="254.492188" xlink:href="#DejaVuSans-45"/>
       <use x="290.576172" xlink:href="#DejaVuSans-48"/>
       <use x="354.199219" xlink:href="#DejaVuSans-54"/>
       <use x="417.822266" xlink:href="#DejaVuSans-45"/>
       <use x="453.90625" xlink:href="#DejaVuSans-50"/>
       <use x="517.529297" xlink:href="#DejaVuSans-48"/>
      </g>
     </g>
    </g>
    <g id="xtick_47">
     <g id="line2d_71">
      <g>
       <use style="stroke:#000000;stroke-width:0.8;" x="812.817727" xlink:href="#mf3c91e899c" y="572.06"/>
      </g>
     </g>
     <g id="text_40">
      <!-- 2020-06-26 -->
      <g transform="translate(815.577102 637.175625)rotate(-90)scale(0.1 -0.1)">
       <use xlink:href="#DejaVuSans-50"/>
       <use x="63.623047" xlink:href="#DejaVuSans-48"/>
       <use x="127.246094" xlink:href="#DejaVuSans-50"/>
       <use x="190.869141" xlink:href="#DejaVuSans-48"/>
       <use x="254.492188" xlink:href="#DejaVuSans-45"/>
       <use x="290.576172" xlink:href="#DejaVuSans-48"/>
       <use x="354.199219" xlink:href="#DejaVuSans-54"/>
       <use x="417.822266" xlink:href="#DejaVuSans-45"/>
       <use x="453.90625" xlink:href="#DejaVuSans-50"/>
       <use x="517.529297" xlink:href="#DejaVuSans-54"/>
      </g>
     </g>
    </g>
    <g id="xtick_48">
     <g id="line2d_72">
      <g>
       <use style="stroke:#000000;stroke-width:0.8;" x="848.16" xlink:href="#mf3c91e899c" y="572.06"/>
      </g>
     </g>
     <g id="text_41">
      <!-- 2020-07-02 -->
      <g transform="translate(850.919375 637.175625)rotate(-90)scale(0.1 -0.1)">
       <use xlink:href="#DejaVuSans-50"/>
       <use x="63.623047" xlink:href="#DejaVuSans-48"/>
       <use x="127.246094" xlink:href="#DejaVuSans-50"/>
       <use x="190.869141" xlink:href="#DejaVuSans-48"/>
       <use x="254.492188" xlink:href="#DejaVuSans-45"/>
       <use x="290.576172" xlink:href="#DejaVuSans-48"/>
       <use x="354.199219" xlink:href="#DejaVuSans-55"/>
       <use x="417.822266" xlink:href="#DejaVuSans-45"/>
       <use x="453.90625" xlink:href="#DejaVuSans-48"/>
       <use x="517.529297" xlink:href="#DejaVuSans-50"/>
      </g>
     </g>
    </g>
   </g>
   <g id="matplotlib.axis_8">
    <g id="ytick_22">
     <g id="line2d_73">
      <g>
       <use style="stroke:#000000;stroke-width:0.8;" x="459.395" xlink:href="#m6491fcb9c3" y="572.06"/>
      </g>
     </g>
    </g>
    <g id="ytick_23">
     <g id="line2d_74">
      <g>
       <use style="stroke:#000000;stroke-width:0.8;" x="459.395" xlink:href="#m6491fcb9c3" y="530.238101"/>
      </g>
     </g>
    </g>
    <g id="ytick_24">
     <g id="line2d_75">
      <g>
       <use style="stroke:#000000;stroke-width:0.8;" x="459.395" xlink:href="#m6491fcb9c3" y="488.416202"/>
      </g>
     </g>
    </g>
    <g id="ytick_25">
     <g id="line2d_76">
      <g>
       <use style="stroke:#000000;stroke-width:0.8;" x="459.395" xlink:href="#m6491fcb9c3" y="446.594303"/>
      </g>
     </g>
    </g>
    <g id="ytick_26">
     <g id="line2d_77">
      <g>
       <use style="stroke:#000000;stroke-width:0.8;" x="459.395" xlink:href="#m6491fcb9c3" y="404.772404"/>
      </g>
     </g>
    </g>
    <g id="ytick_27">
     <g id="line2d_78">
      <g>
       <use style="stroke:#000000;stroke-width:0.8;" x="459.395" xlink:href="#m6491fcb9c3" y="362.950505"/>
      </g>
     </g>
    </g>
    <g id="ytick_28">
     <g id="line2d_79">
      <g>
       <use style="stroke:#000000;stroke-width:0.8;" x="459.395" xlink:href="#m6491fcb9c3" y="321.128606"/>
      </g>
     </g>
    </g>
   </g>
   <g id="line2d_80">
    <path clip-path="url(#pe95c40751e)" d="M 459.395 553.11649 
L 465.665403 552.588622 
L 471.935806 551.741708 
L 478.20621 551.394618 
L 484.476613 551.097725 
L 490.747016 550.25825 
L 497.017419 549.54515 
L 503.287823 548.723302 
L 509.558226 547.98641 
L 515.828629 547.381038 
L 522.099032 546.935781 
L 528.369435 546.575049 
L 534.639839 545.857729 
L 540.910242 545.043239 
L 547.180645 544.302095 
L 553.451048 543.703754 
L 559.721452 542.649991 
L 565.991855 542.284492 
L 572.262258 541.92873 
L 578.532661 541.239818 
L 584.803065 540.474166 
L 591.073468 543.674457 
L 597.343871 539.334671 
L 603.614274 538.734676 
L 609.884677 538.343583 
L 616.155081 538.166955 
L 622.425484 537.945196 
L 628.695887 537.283134 
L 634.96629 536.73385 
L 641.236694 535.88365 
L 647.507097 535.358525 
L 653.7775 534.967548 
L 660.047903 534.686143 
L 666.318306 534.3224 
L 672.58871 533.635159 
L 678.859113 533.194544 
L 685.129516 532.692045 
L 691.399919 532.256143 
L 697.670323 531.845048 
L 703.940726 531.558843 
L 710.211129 531.144361 
L 716.481532 530.57296 
L 722.751935 529.851019 
L 729.022339 529.283196 
L 735.292742 528.905143 
L 741.563145 528.692114 
L 747.833548 528.225675 
L 754.103952 527.904079 
L 760.374355 527.386129 
L 766.644758 526.836653 
L 772.915161 526.52555 
L 779.185565 525.716749 
L 785.455968 525.605094 
L 791.726371 525.516869 
L 797.996774 524.788938 
L 804.267177 524.448096 
L 810.537581 523.53029 
L 816.807984 522.827122 
L 823.078387 522.478391 
L 829.34879 522.144343 
L 835.619194 521.798925 
L 841.889597 521.292183 
L 848.16 520.550589 
" style="fill:none;stroke:#d62728;stroke-linecap:square;stroke-width:1.5;"/>
   </g>
   <g id="patch_18">
    <path d="M 459.395 572.06 
L 459.395 314.53 
" style="fill:none;stroke:#000000;stroke-linecap:square;stroke-linejoin:miter;stroke-width:0.8;"/>
   </g>
   <g id="patch_19">
    <path d="M 848.16 572.06 
L 848.16 314.53 
" style="fill:none;stroke:#000000;stroke-linecap:square;stroke-linejoin:miter;stroke-width:0.8;"/>
   </g>
   <g id="patch_20">
    <path d="M 459.395 572.06 
L 848.16 572.06 
" style="fill:none;stroke:#000000;stroke-linecap:square;stroke-linejoin:miter;stroke-width:0.8;"/>
   </g>
   <g id="patch_21">
    <path d="M 459.395 314.53 
L 848.16 314.53 
" style="fill:none;stroke:#000000;stroke-linecap:square;stroke-linejoin:miter;stroke-width:0.8;"/>
   </g>
   <g id="text_42">
    <!-- West -->
    <defs>
     <path d="M 3.328125 72.90625 
L 13.28125 72.90625 
L 28.609375 11.28125 
L 43.890625 72.90625 
L 54.984375 72.90625 
L 70.3125 11.28125 
L 85.59375 72.90625 
L 95.609375 72.90625 
L 77.296875 0 
L 64.890625 0 
L 49.515625 63.28125 
L 33.984375 0 
L 21.578125 0 
z
" id="DejaVuSans-87"/>
    </defs>
    <g transform="translate(639.027813 308.53)scale(0.12 -0.12)">
     <use xlink:href="#DejaVuSans-87"/>
     <use x="93.001953" xlink:href="#DejaVuSans-101"/>
     <use x="154.525391" xlink:href="#DejaVuSans-115"/>
     <use x="206.625" xlink:href="#DejaVuSans-116"/>
    </g>
   </g>
  </g>
 </g>
 <defs>
  <clipPath id="pa476b8b81d">
   <rect height="257.53" width="388.765" x="49.75" y="25.44"/>
  </clipPath>
  <clipPath id="p50a206860c">
   <rect height="257.53" width="388.765" x="459.395" y="25.44"/>
  </clipPath>
  <clipPath id="p8c6a972853">
   <rect height="257.53" width="388.765" x="49.75" y="314.53"/>
  </clipPath>
  <clipPath id="pe95c40751e">
   <rect height="257.53" width="388.765" x="459.395" y="314.53"/>
  </clipPath>
 </defs>
</svg>
