<?xml version="1.0" encoding="utf-8" standalone="no"?>
<!DOCTYPE svg PUBLIC "-//W3C//DTD SVG 1.1//EN"
  "http://www.w3.org/Graphics/SVG/1.1/DTD/svg11.dtd">
<!-- Created with matplotlib (http://matplotlib.org/) -->
<svg height="648pt" version="1.1" viewBox="0 0 864 648" width="864pt" xmlns="http://www.w3.org/2000/svg" xmlns:xlink="http://www.w3.org/1999/xlink">
 <defs>
  <style type="text/css">
*{stroke-linecap:butt;stroke-linejoin:round;}
  </style>
 </defs>
 <g id="figure_1">
  <g id="patch_1">
   <path d="M 0 648 
L 864 648 
L 864 0 
L 0 0 
z
" style="fill:#ffffff;"/>
  </g>
  <g id="axes_1">
   <g id="patch_2">
    <path d="M 43.18 283.195 
L 435.23 283.195 
L 435.23 25.44 
L 43.18 25.44 
z
" style="fill:#ffffff;"/>
   </g>
   <g id="PolyCollection_1">
    <defs>
     <path d="M 43.18 -385.023815 
L 43.18 -364.805 
L 47.847262 -364.805 
L 52.514524 -364.805 
L 57.181786 -364.805 
L 61.849048 -364.805 
L 66.51631 -364.805 
L 71.183571 -364.805 
L 75.850833 -364.805 
L 80.518095 -364.805 
L 85.185357 -364.805 
L 89.852619 -364.805 
L 94.519881 -364.805 
L 99.187143 -364.805 
L 103.854405 -364.805 
L 108.521667 -364.805 
L 113.188929 -364.805 
L 117.85619 -364.805 
L 122.523452 -364.805 
L 127.190714 -364.805 
L 131.857976 -364.805 
L 136.525238 -364.805 
L 141.1925 -364.805 
L 145.859762 -364.805 
L 150.527024 -364.805 
L 155.194286 -364.805 
L 159.861548 -364.805 
L 164.52881 -364.805 
L 169.196071 -364.805 
L 173.863333 -364.805 
L 178.530595 -364.805 
L 183.197857 -364.805 
L 187.865119 -364.805 
L 192.532381 -364.805 
L 197.199643 -364.805 
L 201.866905 -364.805 
L 206.534167 -364.805 
L 211.201429 -364.805 
L 215.86869 -364.805 
L 220.535952 -364.805 
L 225.203214 -364.805 
L 229.870476 -364.805 
L 234.537738 -364.805 
L 239.205 -364.805 
L 243.872262 -364.805 
L 248.539524 -364.805 
L 253.206786 -364.805 
L 257.874048 -364.805 
L 262.54131 -364.805 
L 267.208571 -364.805 
L 271.875833 -364.805 
L 276.543095 -364.805 
L 281.210357 -364.805 
L 285.877619 -364.805 
L 290.544881 -364.805 
L 295.212143 -364.805 
L 299.879405 -364.805 
L 304.546667 -364.805 
L 309.213929 -364.805 
L 313.88119 -364.805 
L 318.548452 -364.805 
L 323.215714 -364.805 
L 327.882976 -364.805 
L 332.550238 -364.805 
L 337.2175 -364.805 
L 341.884762 -364.805 
L 346.552024 -364.805 
L 351.219286 -364.805 
L 355.886548 -364.805 
L 360.55381 -364.805 
L 365.221071 -364.805 
L 369.888333 -364.805 
L 374.555595 -364.805 
L 379.222857 -364.805 
L 383.890119 -364.805 
L 388.557381 -364.805 
L 393.224643 -364.805 
L 397.891905 -364.805 
L 402.559167 -364.805 
L 407.226429 -364.805 
L 411.89369 -364.805 
L 416.560952 -364.805 
L 421.228214 -364.805 
L 425.895476 -364.805 
L 430.562738 -364.805 
L 435.23 -364.805 
L 435.23 -373.466125 
L 435.23 -373.466125 
L 430.562738 -373.662076 
L 425.895476 -375.505385 
L 421.228214 -371.066138 
L 416.560952 -368.834288 
L 411.89369 -377.831904 
L 407.226429 -379.741165 
L 402.559167 -381.394144 
L 397.891905 -379.131535 
L 393.224643 -378.503277 
L 388.557381 -371.832293 
L 383.890119 -371.767282 
L 379.222857 -376.093491 
L 374.555595 -392.500431 
L 369.888333 -386.895492 
L 365.221071 -396.777012 
L 360.55381 -385.403827 
L 355.886548 -380.765656 
L 351.219286 -383.468407 
L 346.552024 -387.773427 
L 341.884762 -416.076745 
L 337.2175 -407.213574 
L 332.550238 -393.43631 
L 327.882976 -396.354649 
L 323.215714 -389.416389 
L 318.548452 -387.146402 
L 313.88119 -395.690211 
L 309.213929 -410.215561 
L 304.546667 -394.386993 
L 299.879405 -413.439586 
L 295.212143 -392.265655 
L 290.544881 -379.512975 
L 285.877619 -382.406188 
L 281.210357 -396.069783 
L 276.543095 -409.071488 
L 271.875833 -405.073187 
L 267.208571 -416.019833 
L 262.54131 -418.441471 
L 257.874048 -397.938384 
L 253.206786 -381.28821 
L 248.539524 -397.073084 
L 243.872262 -408.65999 
L 239.205 -411.446103 
L 234.537738 -411.807554 
L 229.870476 -431.581621 
L 225.203214 -413.427507 
L 220.535952 -385.209793 
L 215.86869 -393.541613 
L 211.201429 -404.766458 
L 206.534167 -420.023586 
L 201.866905 -417.815637 
L 197.199643 -424.601448 
L 192.532381 -402.347442 
L 187.865119 -384.181159 
L 183.197857 -413.186807 
L 178.530595 -405.303399 
L 173.863333 -420.304254 
L 169.196071 -419.855452 
L 164.52881 -427.864745 
L 159.861548 -409.635233 
L 155.194286 -390.193101 
L 150.527024 -409.085035 
L 145.859762 -420.3931 
L 141.1925 -417.044233 
L 136.525238 -414.379195 
L 131.857976 -429.040666 
L 127.190714 -404.564756 
L 122.523452 -390.937565 
L 117.85619 -400.713516 
L 113.188929 -405.702462 
L 108.521667 -415.311107 
L 103.854405 -415.860691 
L 99.187143 -417.132643 
L 94.519881 -404.601356 
L 89.852619 -389.111302 
L 85.185357 -397.824318 
L 80.518095 -414.688415 
L 75.850833 -407.298211 
L 71.183571 -403.555991 
L 66.51631 -404.736507 
L 61.849048 -396.433339 
L 57.181786 -389.358557 
L 52.514524 -386.132189 
L 47.847262 -385.889124 
L 43.18 -385.023815 
z
" id="mbdaaccee8a" style="stroke:#1f77b4;"/>
    </defs>
    <g clip-path="url(#p2aa5217285)">
     <use style="fill:#1f77b4;stroke:#1f77b4;" x="0" xlink:href="#mbdaaccee8a" y="648"/>
    </g>
   </g>
   <g id="matplotlib.axis_1">
    <g id="xtick_1">
     <g id="line2d_1">
      <defs>
       <path d="M 0 0 
L 0 3.5 
" id="m2a394d3990" style="stroke:#000000;stroke-width:0.8;"/>
      </defs>
      <g>
       <use style="stroke:#000000;stroke-width:0.8;" x="43.18" xlink:href="#m2a394d3990" y="283.195"/>
      </g>
     </g>
    </g>
    <g id="xtick_2">
     <g id="line2d_2">
      <g>
       <use style="stroke:#000000;stroke-width:0.8;" x="78.820909" xlink:href="#m2a394d3990" y="283.195"/>
      </g>
     </g>
    </g>
    <g id="xtick_3">
     <g id="line2d_3">
      <g>
       <use style="stroke:#000000;stroke-width:0.8;" x="114.461818" xlink:href="#m2a394d3990" y="283.195"/>
      </g>
     </g>
    </g>
    <g id="xtick_4">
     <g id="line2d_4">
      <g>
       <use style="stroke:#000000;stroke-width:0.8;" x="150.102727" xlink:href="#m2a394d3990" y="283.195"/>
      </g>
     </g>
    </g>
    <g id="xtick_5">
     <g id="line2d_5">
      <g>
       <use style="stroke:#000000;stroke-width:0.8;" x="185.743636" xlink:href="#m2a394d3990" y="283.195"/>
      </g>
     </g>
    </g>
    <g id="xtick_6">
     <g id="line2d_6">
      <g>
       <use style="stroke:#000000;stroke-width:0.8;" x="221.384545" xlink:href="#m2a394d3990" y="283.195"/>
      </g>
     </g>
    </g>
    <g id="xtick_7">
     <g id="line2d_7">
      <g>
       <use style="stroke:#000000;stroke-width:0.8;" x="257.025455" xlink:href="#m2a394d3990" y="283.195"/>
      </g>
     </g>
    </g>
    <g id="xtick_8">
     <g id="line2d_8">
      <g>
       <use style="stroke:#000000;stroke-width:0.8;" x="292.666364" xlink:href="#m2a394d3990" y="283.195"/>
      </g>
     </g>
    </g>
    <g id="xtick_9">
     <g id="line2d_9">
      <g>
       <use style="stroke:#000000;stroke-width:0.8;" x="328.307273" xlink:href="#m2a394d3990" y="283.195"/>
      </g>
     </g>
    </g>
    <g id="xtick_10">
     <g id="line2d_10">
      <g>
       <use style="stroke:#000000;stroke-width:0.8;" x="363.948182" xlink:href="#m2a394d3990" y="283.195"/>
      </g>
     </g>
    </g>
    <g id="xtick_11">
     <g id="line2d_11">
      <g>
       <use style="stroke:#000000;stroke-width:0.8;" x="399.589091" xlink:href="#m2a394d3990" y="283.195"/>
      </g>
     </g>
    </g>
    <g id="xtick_12">
     <g id="line2d_12">
      <g>
       <use style="stroke:#000000;stroke-width:0.8;" x="435.23" xlink:href="#m2a394d3990" y="283.195"/>
      </g>
     </g>
    </g>
   </g>
   <g id="matplotlib.axis_2">
    <g id="ytick_1">
     <g id="line2d_13">
      <defs>
       <path d="M 0 0 
L -3.5 0 
" id="m6cf486a395" style="stroke:#000000;stroke-width:0.8;"/>
      </defs>
      <g>
       <use style="stroke:#000000;stroke-width:0.8;" x="43.18" xlink:href="#m6cf486a395" y="283.195"/>
      </g>
     </g>
     <g id="text_1">
      <!-- 0 -->
      <defs>
       <path d="M 31.78125 66.40625 
Q 24.171875 66.40625 20.328125 58.90625 
Q 16.5 51.421875 16.5 36.375 
Q 16.5 21.390625 20.328125 13.890625 
Q 24.171875 6.390625 31.78125 6.390625 
Q 39.453125 6.390625 43.28125 13.890625 
Q 47.125 21.390625 47.125 36.375 
Q 47.125 51.421875 43.28125 58.90625 
Q 39.453125 66.40625 31.78125 66.40625 
z
M 31.78125 74.21875 
Q 44.046875 74.21875 50.515625 64.515625 
Q 56.984375 54.828125 56.984375 36.375 
Q 56.984375 17.96875 50.515625 8.265625 
Q 44.046875 -1.421875 31.78125 -1.421875 
Q 19.53125 -1.421875 13.0625 8.265625 
Q 6.59375 17.96875 6.59375 36.375 
Q 6.59375 54.828125 13.0625 64.515625 
Q 19.53125 74.21875 31.78125 74.21875 
z
" id="DejaVuSans-30"/>
      </defs>
      <g transform="translate(29.8175 286.994219)scale(0.1 -0.1)">
       <use xlink:href="#DejaVuSans-30"/>
      </g>
     </g>
    </g>
    <g id="ytick_2">
     <g id="line2d_14">
      <g>
       <use style="stroke:#000000;stroke-width:0.8;" x="43.18" xlink:href="#m6cf486a395" y="249.54657"/>
      </g>
     </g>
     <g id="text_2">
      <!-- 250 -->
      <defs>
       <path d="M 19.1875 8.296875 
L 53.609375 8.296875 
L 53.609375 0 
L 7.328125 0 
L 7.328125 8.296875 
Q 12.9375 14.109375 22.625 23.890625 
Q 32.328125 33.6875 34.8125 36.53125 
Q 39.546875 41.84375 41.421875 45.53125 
Q 43.3125 49.21875 43.3125 52.78125 
Q 43.3125 58.59375 39.234375 62.25 
Q 35.15625 65.921875 28.609375 65.921875 
Q 23.96875 65.921875 18.8125 64.3125 
Q 13.671875 62.703125 7.8125 59.421875 
L 7.8125 69.390625 
Q 13.765625 71.78125 18.9375 73 
Q 24.125 74.21875 28.421875 74.21875 
Q 39.75 74.21875 46.484375 68.546875 
Q 53.21875 62.890625 53.21875 53.421875 
Q 53.21875 48.921875 51.53125 44.890625 
Q 49.859375 40.875 45.40625 35.40625 
Q 44.1875 33.984375 37.640625 27.21875 
Q 31.109375 20.453125 19.1875 8.296875 
z
" id="DejaVuSans-32"/>
       <path d="M 10.796875 72.90625 
L 49.515625 72.90625 
L 49.515625 64.59375 
L 19.828125 64.59375 
L 19.828125 46.734375 
Q 21.96875 47.46875 24.109375 47.828125 
Q 26.265625 48.1875 28.421875 48.1875 
Q 40.625 48.1875 47.75 41.5 
Q 54.890625 34.8125 54.890625 23.390625 
Q 54.890625 11.625 47.5625 5.09375 
Q 40.234375 -1.421875 26.90625 -1.421875 
Q 22.3125 -1.421875 17.546875 -0.640625 
Q 12.796875 0.140625 7.71875 1.703125 
L 7.71875 11.625 
Q 12.109375 9.234375 16.796875 8.0625 
Q 21.484375 6.890625 26.703125 6.890625 
Q 35.15625 6.890625 40.078125 11.328125 
Q 45.015625 15.765625 45.015625 23.390625 
Q 45.015625 31 40.078125 35.4375 
Q 35.15625 39.890625 26.703125 39.890625 
Q 22.75 39.890625 18.8125 39.015625 
Q 14.890625 38.140625 10.796875 36.28125 
z
" id="DejaVuSans-35"/>
      </defs>
      <g transform="translate(17.0925 253.345788)scale(0.1 -0.1)">
       <use xlink:href="#DejaVuSans-32"/>
       <use x="63.623047" xlink:href="#DejaVuSans-35"/>
       <use x="127.246094" xlink:href="#DejaVuSans-30"/>
      </g>
     </g>
    </g>
    <g id="ytick_3">
     <g id="line2d_15">
      <g>
       <use style="stroke:#000000;stroke-width:0.8;" x="43.18" xlink:href="#m6cf486a395" y="215.898139"/>
      </g>
     </g>
     <g id="text_3">
      <!-- 500 -->
      <g transform="translate(17.0925 219.697358)scale(0.1 -0.1)">
       <use xlink:href="#DejaVuSans-35"/>
       <use x="63.623047" xlink:href="#DejaVuSans-30"/>
       <use x="127.246094" xlink:href="#DejaVuSans-30"/>
      </g>
     </g>
    </g>
    <g id="ytick_4">
     <g id="line2d_16">
      <g>
       <use style="stroke:#000000;stroke-width:0.8;" x="43.18" xlink:href="#m6cf486a395" y="182.249709"/>
      </g>
     </g>
     <g id="text_4">
      <!-- 750 -->
      <defs>
       <path d="M 8.203125 72.90625 
L 55.078125 72.90625 
L 55.078125 68.703125 
L 28.609375 0 
L 18.3125 0 
L 43.21875 64.59375 
L 8.203125 64.59375 
z
" id="DejaVuSans-37"/>
      </defs>
      <g transform="translate(17.0925 186.048927)scale(0.1 -0.1)">
       <use xlink:href="#DejaVuSans-37"/>
       <use x="63.623047" xlink:href="#DejaVuSans-35"/>
       <use x="127.246094" xlink:href="#DejaVuSans-30"/>
      </g>
     </g>
    </g>
    <g id="ytick_5">
     <g id="line2d_17">
      <g>
       <use style="stroke:#000000;stroke-width:0.8;" x="43.18" xlink:href="#m6cf486a395" y="148.601278"/>
      </g>
     </g>
     <g id="text_5">
      <!-- 1000 -->
      <defs>
       <path d="M 12.40625 8.296875 
L 28.515625 8.296875 
L 28.515625 63.921875 
L 10.984375 60.40625 
L 10.984375 69.390625 
L 28.421875 72.90625 
L 38.28125 72.90625 
L 38.28125 8.296875 
L 54.390625 8.296875 
L 54.390625 0 
L 12.40625 0 
z
" id="DejaVuSans-31"/>
      </defs>
      <g transform="translate(10.73 152.400497)scale(0.1 -0.1)">
       <use xlink:href="#DejaVuSans-31"/>
       <use x="63.623047" xlink:href="#DejaVuSans-30"/>
       <use x="127.246094" xlink:href="#DejaVuSans-30"/>
       <use x="190.869141" xlink:href="#DejaVuSans-30"/>
      </g>
     </g>
    </g>
    <g id="ytick_6">
     <g id="line2d_18">
      <g>
       <use style="stroke:#000000;stroke-width:0.8;" x="43.18" xlink:href="#m6cf486a395" y="114.952848"/>
      </g>
     </g>
     <g id="text_6">
      <!-- 1250 -->
      <g transform="translate(10.73 118.752067)scale(0.1 -0.1)">
       <use xlink:href="#DejaVuSans-31"/>
       <use x="63.623047" xlink:href="#DejaVuSans-32"/>
       <use x="127.246094" xlink:href="#DejaVuSans-35"/>
       <use x="190.869141" xlink:href="#DejaVuSans-30"/>
      </g>
     </g>
    </g>
    <g id="ytick_7">
     <g id="line2d_19">
      <g>
       <use style="stroke:#000000;stroke-width:0.8;" x="43.18" xlink:href="#m6cf486a395" y="81.304417"/>
      </g>
     </g>
     <g id="text_7">
      <!-- 1500 -->
      <g transform="translate(10.73 85.103636)scale(0.1 -0.1)">
       <use xlink:href="#DejaVuSans-31"/>
       <use x="63.623047" xlink:href="#DejaVuSans-35"/>
       <use x="127.246094" xlink:href="#DejaVuSans-30"/>
       <use x="190.869141" xlink:href="#DejaVuSans-30"/>
      </g>
     </g>
    </g>
    <g id="ytick_8">
     <g id="line2d_20">
      <g>
       <use style="stroke:#000000;stroke-width:0.8;" x="43.18" xlink:href="#m6cf486a395" y="47.655987"/>
      </g>
     </g>
     <g id="text_8">
      <!-- 1750 -->
      <g transform="translate(10.73 51.455206)scale(0.1 -0.1)">
       <use xlink:href="#DejaVuSans-31"/>
       <use x="63.623047" xlink:href="#DejaVuSans-37"/>
       <use x="127.246094" xlink:href="#DejaVuSans-35"/>
       <use x="190.869141" xlink:href="#DejaVuSans-30"/>
      </g>
     </g>
    </g>
   </g>
   <g id="line2d_21">
    <path clip-path="url(#p2aa5217285)" d="M 43.18 262.976185 
L 47.847262 262.110876 
L 52.514524 261.867811 
L 57.181786 258.641443 
L 61.849048 251.566661 
L 66.51631 243.263493 
L 71.183571 244.444009 
L 75.850833 240.701789 
L 80.518095 233.311585 
L 85.185357 250.175682 
L 89.852619 258.888698 
L 94.519881 243.398644 
L 99.187143 230.867357 
L 103.854405 232.139309 
L 108.521667 232.688893 
L 113.188929 242.297538 
L 117.85619 247.286484 
L 122.523452 257.062435 
L 127.190714 243.435244 
L 131.857976 218.959334 
L 136.525238 233.620805 
L 141.1925 230.955767 
L 145.859762 227.6069 
L 150.527024 238.914965 
L 155.194286 257.806899 
L 159.861548 238.364767 
L 164.52881 220.135255 
L 169.196071 228.144548 
L 173.863333 227.695746 
L 178.530595 242.696601 
L 183.197857 234.813193 
L 187.865119 263.818841 
L 192.532381 245.652558 
L 197.199643 223.398552 
L 201.866905 230.184363 
L 206.534167 227.976414 
L 211.201429 243.233542 
L 215.86869 254.458387 
L 220.535952 262.790207 
L 225.203214 234.572493 
L 229.870476 216.418379 
L 234.537738 236.192446 
L 239.205 236.553897 
L 243.872262 239.34001 
L 248.539524 250.926916 
L 253.206786 266.71179 
L 257.874048 250.061616 
L 262.54131 229.558529 
L 267.208571 231.980167 
L 271.875833 242.926813 
L 276.543095 238.928512 
L 281.210357 251.930217 
L 285.877619 265.593812 
L 290.544881 268.487025 
L 295.212143 255.734345 
L 299.879405 234.560414 
L 304.546667 253.613007 
L 309.213929 237.784439 
L 313.88119 252.309789 
L 318.548452 260.853598 
L 323.215714 258.583611 
L 327.882976 251.645351 
L 332.550238 254.56369 
L 337.2175 240.786426 
L 341.884762 231.923255 
L 346.552024 260.226573 
L 351.219286 264.531593 
L 355.886548 267.234344 
L 360.55381 262.596173 
L 365.221071 251.222988 
L 369.888333 261.104508 
L 374.555595 255.499569 
L 379.222857 271.906509 
L 383.890119 276.232718 
L 388.557381 276.167707 
L 393.224643 269.496723 
L 397.891905 268.868465 
L 402.559167 266.605856 
L 407.226429 268.258835 
L 411.89369 270.168096 
L 416.560952 279.165712 
L 421.228214 276.933862 
L 425.895476 272.494615 
L 430.562738 274.337924 
L 435.23 274.533875 
" style="fill:none;stroke:#1f77b4;stroke-linecap:square;stroke-width:1.5;"/>
   </g>
   <g id="patch_3">
    <path d="M 43.18 283.195 
L 43.18 25.44 
" style="fill:none;stroke:#000000;stroke-linecap:square;stroke-linejoin:miter;stroke-width:0.8;"/>
   </g>
   <g id="patch_4">
    <path d="M 435.23 283.195 
L 435.23 25.44 
" style="fill:none;stroke:#000000;stroke-linecap:square;stroke-linejoin:miter;stroke-width:0.8;"/>
   </g>
   <g id="patch_5">
    <path d="M 43.18 283.195 
L 435.23 283.195 
" style="fill:none;stroke:#000000;stroke-linecap:square;stroke-linejoin:miter;stroke-width:0.8;"/>
   </g>
   <g id="patch_6">
    <path d="M 43.18 25.44 
L 435.23 25.44 
" style="fill:none;stroke:#000000;stroke-linecap:square;stroke-linejoin:miter;stroke-width:0.8;"/>
   </g>
   <g id="text_9">
    <!-- Midwest -->
    <defs>
     <path d="M 9.8125 72.90625 
L 24.515625 72.90625 
L 43.109375 23.296875 
L 61.8125 72.90625 
L 76.515625 72.90625 
L 76.515625 0 
L 66.890625 0 
L 66.890625 64.015625 
L 48.09375 14.015625 
L 38.1875 14.015625 
L 19.390625 64.015625 
L 19.390625 0 
L 9.8125 0 
z
" id="DejaVuSans-4d"/>
     <path d="M 9.421875 54.6875 
L 18.40625 54.6875 
L 18.40625 0 
L 9.421875 0 
z
M 9.421875 75.984375 
L 18.40625 75.984375 
L 18.40625 64.59375 
L 9.421875 64.59375 
z
" id="DejaVuSans-69"/>
     <path d="M 45.40625 46.390625 
L 45.40625 75.984375 
L 54.390625 75.984375 
L 54.390625 0 
L 45.40625 0 
L 45.40625 8.203125 
Q 42.578125 3.328125 38.25 0.953125 
Q 33.9375 -1.421875 27.875 -1.421875 
Q 17.96875 -1.421875 11.734375 6.484375 
Q 5.515625 14.40625 5.515625 27.296875 
Q 5.515625 40.1875 11.734375 48.09375 
Q 17.96875 56 27.875 56 
Q 33.9375 56 38.25 53.625 
Q 42.578125 51.265625 45.40625 46.390625 
z
M 14.796875 27.296875 
Q 14.796875 17.390625 18.875 11.75 
Q 22.953125 6.109375 30.078125 6.109375 
Q 37.203125 6.109375 41.296875 11.75 
Q 45.40625 17.390625 45.40625 27.296875 
Q 45.40625 37.203125 41.296875 42.84375 
Q 37.203125 48.484375 30.078125 48.484375 
Q 22.953125 48.484375 18.875 42.84375 
Q 14.796875 37.203125 14.796875 27.296875 
z
" id="DejaVuSans-64"/>
     <path d="M 4.203125 54.6875 
L 13.1875 54.6875 
L 24.421875 12.015625 
L 35.59375 54.6875 
L 46.1875 54.6875 
L 57.421875 12.015625 
L 68.609375 54.6875 
L 77.59375 54.6875 
L 63.28125 0 
L 52.6875 0 
L 40.921875 44.828125 
L 29.109375 0 
L 18.5 0 
z
" id="DejaVuSans-77"/>
     <path d="M 56.203125 29.59375 
L 56.203125 25.203125 
L 14.890625 25.203125 
Q 15.484375 15.921875 20.484375 11.0625 
Q 25.484375 6.203125 34.421875 6.203125 
Q 39.59375 6.203125 44.453125 7.46875 
Q 49.3125 8.734375 54.109375 11.28125 
L 54.109375 2.78125 
Q 49.265625 0.734375 44.1875 -0.34375 
Q 39.109375 -1.421875 33.890625 -1.421875 
Q 20.796875 -1.421875 13.15625 6.1875 
Q 5.515625 13.8125 5.515625 26.8125 
Q 5.515625 40.234375 12.765625 48.109375 
Q 20.015625 56 32.328125 56 
Q 43.359375 56 49.78125 48.890625 
Q 56.203125 41.796875 56.203125 29.59375 
z
M 47.21875 32.234375 
Q 47.125 39.59375 43.09375 43.984375 
Q 39.0625 48.390625 32.421875 48.390625 
Q 24.90625 48.390625 20.390625 44.140625 
Q 15.875 39.890625 15.1875 32.171875 
z
" id="DejaVuSans-65"/>
     <path d="M 44.28125 53.078125 
L 44.28125 44.578125 
Q 40.484375 46.53125 36.375 47.5 
Q 32.28125 48.484375 27.875 48.484375 
Q 21.1875 48.484375 17.84375 46.4375 
Q 14.5 44.390625 14.5 40.28125 
Q 14.5 37.15625 16.890625 35.375 
Q 19.28125 33.59375 26.515625 31.984375 
L 29.59375 31.296875 
Q 39.15625 29.25 43.1875 25.515625 
Q 47.21875 21.78125 47.21875 15.09375 
Q 47.21875 7.46875 41.1875 3.015625 
Q 35.15625 -1.421875 24.609375 -1.421875 
Q 20.21875 -1.421875 15.453125 -0.5625 
Q 10.6875 0.296875 5.421875 2 
L 5.421875 11.28125 
Q 10.40625 8.6875 15.234375 7.390625 
Q 20.0625 6.109375 24.8125 6.109375 
Q 31.15625 6.109375 34.5625 8.28125 
Q 37.984375 10.453125 37.984375 14.40625 
Q 37.984375 18.0625 35.515625 20.015625 
Q 33.0625 21.96875 24.703125 23.78125 
L 21.578125 24.515625 
Q 13.234375 26.265625 9.515625 29.90625 
Q 5.8125 33.546875 5.8125 39.890625 
Q 5.8125 47.609375 11.28125 51.796875 
Q 16.75 56 26.8125 56 
Q 31.78125 56 36.171875 55.265625 
Q 40.578125 54.546875 44.28125 53.078125 
z
" id="DejaVuSans-73"/>
     <path d="M 18.3125 70.21875 
L 18.3125 54.6875 
L 36.8125 54.6875 
L 36.8125 47.703125 
L 18.3125 47.703125 
L 18.3125 18.015625 
Q 18.3125 11.328125 20.140625 9.421875 
Q 21.96875 7.515625 27.59375 7.515625 
L 36.8125 7.515625 
L 36.8125 0 
L 27.59375 0 
Q 17.1875 0 13.234375 3.875 
Q 9.28125 7.765625 9.28125 18.015625 
L 9.28125 47.703125 
L 2.6875 47.703125 
L 2.6875 54.6875 
L 9.28125 54.6875 
L 9.28125 70.21875 
z
" id="DejaVuSans-74"/>
    </defs>
    <g transform="translate(214.475625 19.44)scale(0.12 -0.12)">
     <use xlink:href="#DejaVuSans-4d"/>
     <use x="86.279297" xlink:href="#DejaVuSans-69"/>
     <use x="114.0625" xlink:href="#DejaVuSans-64"/>
     <use x="177.539062" xlink:href="#DejaVuSans-77"/>
     <use x="259.326172" xlink:href="#DejaVuSans-65"/>
     <use x="320.849609" xlink:href="#DejaVuSans-73"/>
     <use x="372.949219" xlink:href="#DejaVuSans-74"/>
    </g>
   </g>
  </g>
  <g id="axes_2">
   <g id="patch_7">
    <path d="M 456.11 283.195 
L 848.16 283.195 
L 848.16 25.44 
L 456.11 25.44 
z
" style="fill:#ffffff;"/>
   </g>
   <g id="PolyCollection_2">
    <defs>
     <path d="M 456.11 -428.012396 
L 456.11 -364.805 
L 460.777262 -364.805 
L 465.444524 -364.805 
L 470.111786 -364.805 
L 474.779048 -364.805 
L 479.44631 -364.805 
L 484.113571 -364.805 
L 488.780833 -364.805 
L 493.448095 -364.805 
L 498.115357 -364.805 
L 502.782619 -364.805 
L 507.449881 -364.805 
L 512.117143 -364.805 
L 516.784405 -364.805 
L 521.451667 -364.805 
L 526.118929 -364.805 
L 530.78619 -364.805 
L 535.453452 -364.805 
L 540.120714 -364.805 
L 544.787976 -364.805 
L 549.455238 -364.805 
L 554.1225 -364.805 
L 558.789762 -364.805 
L 563.457024 -364.805 
L 568.124286 -364.805 
L 572.791548 -364.805 
L 577.45881 -364.805 
L 582.126071 -364.805 
L 586.793333 -364.805 
L 591.460595 -364.805 
L 596.127857 -364.805 
L 600.795119 -364.805 
L 605.462381 -364.805 
L 610.129643 -364.805 
L 614.796905 -364.805 
L 619.464167 -364.805 
L 624.131429 -364.805 
L 628.79869 -364.805 
L 633.465952 -364.805 
L 638.133214 -364.805 
L 642.800476 -364.805 
L 647.467738 -364.805 
L 652.135 -364.805 
L 656.802262 -364.805 
L 661.469524 -364.805 
L 666.136786 -364.805 
L 670.804048 -364.805 
L 675.47131 -364.805 
L 680.138571 -364.805 
L 684.805833 -364.805 
L 689.473095 -364.805 
L 694.140357 -364.805 
L 698.807619 -364.805 
L 703.474881 -364.805 
L 708.142143 -364.805 
L 712.809405 -364.805 
L 717.476667 -364.805 
L 722.143929 -364.805 
L 726.81119 -364.805 
L 731.478452 -364.805 
L 736.145714 -364.805 
L 740.812976 -364.805 
L 745.480238 -364.805 
L 750.1475 -364.805 
L 754.814762 -364.805 
L 759.482024 -364.805 
L 764.149286 -364.805 
L 768.816548 -364.805 
L 773.48381 -364.805 
L 778.151071 -364.805 
L 782.818333 -364.805 
L 787.485595 -364.805 
L 792.152857 -364.805 
L 796.820119 -364.805 
L 801.487381 -364.805 
L 806.154643 -364.805 
L 810.821905 -364.805 
L 815.489167 -364.805 
L 820.156429 -364.805 
L 824.82369 -364.805 
L 829.490952 -364.805 
L 834.158214 -364.805 
L 838.825476 -364.805 
L 843.492738 -364.805 
L 848.16 -364.805 
L 848.16 -382.711054 
L 848.16 -382.711054 
L 843.492738 -386.732355 
L 838.825476 -379.893784 
L 834.158214 -380.197407 
L 829.490952 -373.970992 
L 824.82369 -382.237033 
L 820.156429 -386.056317 
L 815.489167 -386.392712 
L 810.821905 -390.857396 
L 806.154643 -384.395705 
L 801.487381 -383.237056 
L 796.820119 -387.030761 
L 792.152857 -393.626138 
L 787.485595 -400.746903 
L 782.818333 -395.247206 
L 778.151071 -398.28326 
L 773.48381 -397.699655 
L 768.816548 -394.532268 
L 764.149286 -393.65981 
L 759.482024 -387.686677 
L 754.814762 -402.922207 
L 750.1475 -406.092709 
L 745.480238 -406.287983 
L 740.812976 -407.200382 
L 736.145714 -406.972071 
L 731.478452 -400.701795 
L 726.81119 -413.945363 
L 722.143929 -427.384575 
L 717.476667 -407.276104 
L 712.809405 -419.921842 
L 708.142143 -402.6913 
L 703.474881 -397.981147 
L 698.807619 -399.84523 
L 694.140357 -433.691847 
L 689.473095 -426.447366 
L 684.805833 -424.132252 
L 680.138571 -442.315122 
L 675.47131 -442.90073 
L 670.804048 -414.293448 
L 666.136786 -421.209702 
L 661.469524 -441.148767 
L 656.802262 -442.697724 
L 652.135 -488.887924 
L 647.467738 -472.954947 
L 642.800476 -454.01 
L 638.133214 -421.822213 
L 633.465952 -427.842363 
L 628.79869 -447.539092 
L 624.131429 -465.554396 
L 619.464167 -500.16236 
L 614.796905 -568.759992 
L 610.129643 -540.021927 
L 605.462381 -491.600168 
L 600.795119 -435.388856 
L 596.127857 -461.893289 
L 591.460595 -487.432665 
L 586.793333 -500.141777 
L 582.126071 -541.915002 
L 577.45881 -544.661431 
L 572.791548 -471.878201 
L 568.124286 -449.233961 
L 563.457024 -483.846489 
L 558.789762 -506.903796 
L 554.1225 -509.64018 
L 549.455238 -528.956561 
L 544.787976 -545.30735 
L 540.120714 -511.103376 
L 535.453452 -593.297805 
L 530.78619 -538.114855 
L 526.118929 -442.934157 
L 521.451667 -511.975736 
L 516.784405 -546.469617 
L 512.117143 -556.207881 
L 507.449881 -514.907247 
L 502.782619 -500.22334 
L 498.115357 -521.57983 
L 493.448095 -534.754653 
L 488.780833 -530.247029 
L 484.113571 -526.780736 
L 479.44631 -533.527176 
L 474.779048 -492.814685 
L 470.111786 -555.340026 
L 465.444524 -605.381493 
L 460.777262 -413.483157 
L 456.11 -428.012396 
z
" id="m21359ba6cc" style="stroke:#ff7f0e;"/>
    </defs>
    <g clip-path="url(#pd1c2a65c16)">
     <use style="fill:#ff7f0e;stroke:#ff7f0e;" x="0" xlink:href="#m21359ba6cc" y="648"/>
    </g>
   </g>
   <g id="matplotlib.axis_3">
    <g id="xtick_13">
     <g id="line2d_22">
      <g>
       <use style="stroke:#000000;stroke-width:0.8;" x="456.11" xlink:href="#m2a394d3990" y="283.195"/>
      </g>
     </g>
    </g>
    <g id="xtick_14">
     <g id="line2d_23">
      <g>
       <use style="stroke:#000000;stroke-width:0.8;" x="491.750909" xlink:href="#m2a394d3990" y="283.195"/>
      </g>
     </g>
    </g>
    <g id="xtick_15">
     <g id="line2d_24">
      <g>
       <use style="stroke:#000000;stroke-width:0.8;" x="527.391818" xlink:href="#m2a394d3990" y="283.195"/>
      </g>
     </g>
    </g>
    <g id="xtick_16">
     <g id="line2d_25">
      <g>
       <use style="stroke:#000000;stroke-width:0.8;" x="563.032727" xlink:href="#m2a394d3990" y="283.195"/>
      </g>
     </g>
    </g>
    <g id="xtick_17">
     <g id="line2d_26">
      <g>
       <use style="stroke:#000000;stroke-width:0.8;" x="598.673636" xlink:href="#m2a394d3990" y="283.195"/>
      </g>
     </g>
    </g>
    <g id="xtick_18">
     <g id="line2d_27">
      <g>
       <use style="stroke:#000000;stroke-width:0.8;" x="634.314545" xlink:href="#m2a394d3990" y="283.195"/>
      </g>
     </g>
    </g>
    <g id="xtick_19">
     <g id="line2d_28">
      <g>
       <use style="stroke:#000000;stroke-width:0.8;" x="669.955455" xlink:href="#m2a394d3990" y="283.195"/>
      </g>
     </g>
    </g>
    <g id="xtick_20">
     <g id="line2d_29">
      <g>
       <use style="stroke:#000000;stroke-width:0.8;" x="705.596364" xlink:href="#m2a394d3990" y="283.195"/>
      </g>
     </g>
    </g>
    <g id="xtick_21">
     <g id="line2d_30">
      <g>
       <use style="stroke:#000000;stroke-width:0.8;" x="741.237273" xlink:href="#m2a394d3990" y="283.195"/>
      </g>
     </g>
    </g>
    <g id="xtick_22">
     <g id="line2d_31">
      <g>
       <use style="stroke:#000000;stroke-width:0.8;" x="776.878182" xlink:href="#m2a394d3990" y="283.195"/>
      </g>
     </g>
    </g>
    <g id="xtick_23">
     <g id="line2d_32">
      <g>
       <use style="stroke:#000000;stroke-width:0.8;" x="812.519091" xlink:href="#m2a394d3990" y="283.195"/>
      </g>
     </g>
    </g>
    <g id="xtick_24">
     <g id="line2d_33">
      <g>
       <use style="stroke:#000000;stroke-width:0.8;" x="848.16" xlink:href="#m2a394d3990" y="283.195"/>
      </g>
     </g>
    </g>
   </g>
   <g id="matplotlib.axis_4">
    <g id="ytick_9">
     <g id="line2d_34">
      <g>
       <use style="stroke:#000000;stroke-width:0.8;" x="456.11" xlink:href="#m6cf486a395" y="283.195"/>
      </g>
     </g>
    </g>
    <g id="ytick_10">
     <g id="line2d_35">
      <g>
       <use style="stroke:#000000;stroke-width:0.8;" x="456.11" xlink:href="#m6cf486a395" y="249.54657"/>
      </g>
     </g>
    </g>
    <g id="ytick_11">
     <g id="line2d_36">
      <g>
       <use style="stroke:#000000;stroke-width:0.8;" x="456.11" xlink:href="#m6cf486a395" y="215.898139"/>
      </g>
     </g>
    </g>
    <g id="ytick_12">
     <g id="line2d_37">
      <g>
       <use style="stroke:#000000;stroke-width:0.8;" x="456.11" xlink:href="#m6cf486a395" y="182.249709"/>
      </g>
     </g>
    </g>
    <g id="ytick_13">
     <g id="line2d_38">
      <g>
       <use style="stroke:#000000;stroke-width:0.8;" x="456.11" xlink:href="#m6cf486a395" y="148.601278"/>
      </g>
     </g>
    </g>
    <g id="ytick_14">
     <g id="line2d_39">
      <g>
       <use style="stroke:#000000;stroke-width:0.8;" x="456.11" xlink:href="#m6cf486a395" y="114.952848"/>
      </g>
     </g>
    </g>
    <g id="ytick_15">
     <g id="line2d_40">
      <g>
       <use style="stroke:#000000;stroke-width:0.8;" x="456.11" xlink:href="#m6cf486a395" y="81.304417"/>
      </g>
     </g>
    </g>
    <g id="ytick_16">
     <g id="line2d_41">
      <g>
       <use style="stroke:#000000;stroke-width:0.8;" x="456.11" xlink:href="#m6cf486a395" y="47.655987"/>
      </g>
     </g>
    </g>
   </g>
   <g id="line2d_42">
    <path clip-path="url(#pd1c2a65c16)" d="M 456.11 219.987604 
L 460.777262 234.516843 
L 465.444524 42.618507 
L 470.111786 92.659974 
L 474.779048 155.185315 
L 479.44631 114.472824 
L 484.113571 121.219264 
L 488.780833 117.752971 
L 493.448095 113.245347 
L 498.115357 126.42017 
L 502.782619 147.77666 
L 507.449881 133.092753 
L 512.117143 91.792119 
L 516.784405 101.530383 
L 521.451667 136.024264 
L 526.118929 205.065843 
L 530.78619 109.885145 
L 535.453452 54.702195 
L 540.120714 136.896624 
L 544.787976 102.69265 
L 549.455238 119.043439 
L 554.1225 138.35982 
L 558.789762 141.096204 
L 563.457024 164.153511 
L 568.124286 198.766039 
L 572.791548 176.121799 
L 577.45881 103.338569 
L 582.126071 106.084998 
L 586.793333 147.858223 
L 591.460595 160.567335 
L 596.127857 186.106711 
L 600.795119 212.611144 
L 605.462381 156.399832 
L 610.129643 107.978073 
L 614.796905 79.240008 
L 619.464167 147.83764 
L 624.131429 182.445604 
L 628.79869 200.460908 
L 633.465952 220.157637 
L 638.133214 226.177787 
L 642.800476 193.99 
L 647.467738 175.045053 
L 652.135 159.112076 
L 656.802262 205.302276 
L 661.469524 206.851233 
L 666.136786 226.790298 
L 670.804048 233.706552 
L 675.47131 205.09927 
L 680.138571 205.684878 
L 684.805833 223.867748 
L 689.473095 221.552634 
L 694.140357 214.308153 
L 698.807619 248.15477 
L 703.474881 250.018853 
L 708.142143 245.3087 
L 712.809405 228.078158 
L 717.476667 240.723896 
L 722.143929 220.615425 
L 726.81119 234.054637 
L 731.478452 247.298205 
L 736.145714 241.027929 
L 740.812976 240.799618 
L 745.480238 241.712017 
L 750.1475 241.907291 
L 754.814762 245.077793 
L 759.482024 260.313323 
L 764.149286 254.34019 
L 768.816548 253.467732 
L 773.48381 250.300345 
L 778.151071 249.71674 
L 782.818333 252.752794 
L 787.485595 247.253097 
L 792.152857 254.373862 
L 796.820119 260.969239 
L 801.487381 264.762944 
L 806.154643 263.604295 
L 810.821905 257.142604 
L 815.489167 261.607288 
L 820.156429 261.943683 
L 824.82369 265.762967 
L 829.490952 274.029008 
L 834.158214 267.802593 
L 838.825476 268.106216 
L 843.492738 261.267645 
L 848.16 265.288946 
" style="fill:none;stroke:#ff7f0e;stroke-linecap:square;stroke-width:1.5;"/>
   </g>
   <g id="patch_8">
    <path d="M 456.11 283.195 
L 456.11 25.44 
" style="fill:none;stroke:#000000;stroke-linecap:square;stroke-linejoin:miter;stroke-width:0.8;"/>
   </g>
   <g id="patch_9">
    <path d="M 848.16 283.195 
L 848.16 25.44 
" style="fill:none;stroke:#000000;stroke-linecap:square;stroke-linejoin:miter;stroke-width:0.8;"/>
   </g>
   <g id="patch_10">
    <path d="M 456.11 283.195 
L 848.16 283.195 
" style="fill:none;stroke:#000000;stroke-linecap:square;stroke-linejoin:miter;stroke-width:0.8;"/>
   </g>
   <g id="patch_11">
    <path d="M 456.11 25.44 
L 848.16 25.44 
" style="fill:none;stroke:#000000;stroke-linecap:square;stroke-linejoin:miter;stroke-width:0.8;"/>
   </g>
   <g id="text_10">
    <!-- Northeast -->
    <defs>
     <path d="M 9.8125 72.90625 
L 23.09375 72.90625 
L 55.421875 11.921875 
L 55.421875 72.90625 
L 64.984375 72.90625 
L 64.984375 0 
L 51.703125 0 
L 19.390625 60.984375 
L 19.390625 0 
L 9.8125 0 
z
" id="DejaVuSans-4e"/>
     <path d="M 30.609375 48.390625 
Q 23.390625 48.390625 19.1875 42.75 
Q 14.984375 37.109375 14.984375 27.296875 
Q 14.984375 17.484375 19.15625 11.84375 
Q 23.34375 6.203125 30.609375 6.203125 
Q 37.796875 6.203125 41.984375 11.859375 
Q 46.1875 17.53125 46.1875 27.296875 
Q 46.1875 37.015625 41.984375 42.703125 
Q 37.796875 48.390625 30.609375 48.390625 
z
M 30.609375 56 
Q 42.328125 56 49.015625 48.375 
Q 55.71875 40.765625 55.71875 27.296875 
Q 55.71875 13.875 49.015625 6.21875 
Q 42.328125 -1.421875 30.609375 -1.421875 
Q 18.84375 -1.421875 12.171875 6.21875 
Q 5.515625 13.875 5.515625 27.296875 
Q 5.515625 40.765625 12.171875 48.375 
Q 18.84375 56 30.609375 56 
z
" id="DejaVuSans-6f"/>
     <path d="M 41.109375 46.296875 
Q 39.59375 47.171875 37.8125 47.578125 
Q 36.03125 48 33.890625 48 
Q 26.265625 48 22.1875 43.046875 
Q 18.109375 38.09375 18.109375 28.8125 
L 18.109375 0 
L 9.078125 0 
L 9.078125 54.6875 
L 18.109375 54.6875 
L 18.109375 46.1875 
Q 20.953125 51.171875 25.484375 53.578125 
Q 30.03125 56 36.53125 56 
Q 37.453125 56 38.578125 55.875 
Q 39.703125 55.765625 41.0625 55.515625 
z
" id="DejaVuSans-72"/>
     <path d="M 54.890625 33.015625 
L 54.890625 0 
L 45.90625 0 
L 45.90625 32.71875 
Q 45.90625 40.484375 42.875 44.328125 
Q 39.84375 48.1875 33.796875 48.1875 
Q 26.515625 48.1875 22.3125 43.546875 
Q 18.109375 38.921875 18.109375 30.90625 
L 18.109375 0 
L 9.078125 0 
L 9.078125 75.984375 
L 18.109375 75.984375 
L 18.109375 46.1875 
Q 21.34375 51.125 25.703125 53.5625 
Q 30.078125 56 35.796875 56 
Q 45.21875 56 50.046875 50.171875 
Q 54.890625 44.34375 54.890625 33.015625 
z
" id="DejaVuSans-68"/>
     <path d="M 34.28125 27.484375 
Q 23.390625 27.484375 19.1875 25 
Q 14.984375 22.515625 14.984375 16.5 
Q 14.984375 11.71875 18.140625 8.90625 
Q 21.296875 6.109375 26.703125 6.109375 
Q 34.1875 6.109375 38.703125 11.40625 
Q 43.21875 16.703125 43.21875 25.484375 
L 43.21875 27.484375 
z
M 52.203125 31.203125 
L 52.203125 0 
L 43.21875 0 
L 43.21875 8.296875 
Q 40.140625 3.328125 35.546875 0.953125 
Q 30.953125 -1.421875 24.3125 -1.421875 
Q 15.921875 -1.421875 10.953125 3.296875 
Q 6 8.015625 6 15.921875 
Q 6 25.140625 12.171875 29.828125 
Q 18.359375 34.515625 30.609375 34.515625 
L 43.21875 34.515625 
L 43.21875 35.40625 
Q 43.21875 41.609375 39.140625 45 
Q 35.0625 48.390625 27.6875 48.390625 
Q 23 48.390625 18.546875 47.265625 
Q 14.109375 46.140625 10.015625 43.890625 
L 10.015625 52.203125 
Q 14.9375 54.109375 19.578125 55.046875 
Q 24.21875 56 28.609375 56 
Q 40.484375 56 46.34375 49.84375 
Q 52.203125 43.703125 52.203125 31.203125 
z
" id="DejaVuSans-61"/>
    </defs>
    <g transform="translate(622.507188 19.44)scale(0.12 -0.12)">
     <use xlink:href="#DejaVuSans-4e"/>
     <use x="74.804688" xlink:href="#DejaVuSans-6f"/>
     <use x="135.986328" xlink:href="#DejaVuSans-72"/>
     <use x="177.099609" xlink:href="#DejaVuSans-74"/>
     <use x="216.308594" xlink:href="#DejaVuSans-68"/>
     <use x="279.6875" xlink:href="#DejaVuSans-65"/>
     <use x="341.210938" xlink:href="#DejaVuSans-61"/>
     <use x="402.490234" xlink:href="#DejaVuSans-73"/>
     <use x="454.589844" xlink:href="#DejaVuSans-74"/>
    </g>
   </g>
  </g>
  <g id="axes_3">
   <g id="patch_12">
    <path d="M 43.18 572.51 
L 435.23 572.51 
L 435.23 314.755 
L 43.18 314.755 
z
" style="fill:#ffffff;"/>
   </g>
   <g id="PolyCollection_3">
    <defs>
     <path d="M 43.18 -100.278022 
L 43.18 -75.49 
L 47.847262 -75.49 
L 52.514524 -75.49 
L 57.181786 -75.49 
L 61.849048 -75.49 
L 66.51631 -75.49 
L 71.183571 -75.49 
L 75.850833 -75.49 
L 80.518095 -75.49 
L 85.185357 -75.49 
L 89.852619 -75.49 
L 94.519881 -75.49 
L 99.187143 -75.49 
L 103.854405 -75.49 
L 108.521667 -75.49 
L 113.188929 -75.49 
L 117.85619 -75.49 
L 122.523452 -75.49 
L 127.190714 -75.49 
L 131.857976 -75.49 
L 136.525238 -75.49 
L 141.1925 -75.49 
L 145.859762 -75.49 
L 150.527024 -75.49 
L 155.194286 -75.49 
L 159.861548 -75.49 
L 164.52881 -75.49 
L 169.196071 -75.49 
L 173.863333 -75.49 
L 178.530595 -75.49 
L 183.197857 -75.49 
L 187.865119 -75.49 
L 192.532381 -75.49 
L 197.199643 -75.49 
L 201.866905 -75.49 
L 206.534167 -75.49 
L 211.201429 -75.49 
L 215.86869 -75.49 
L 220.535952 -75.49 
L 225.203214 -75.49 
L 229.870476 -75.49 
L 234.537738 -75.49 
L 239.205 -75.49 
L 243.872262 -75.49 
L 248.539524 -75.49 
L 253.206786 -75.49 
L 257.874048 -75.49 
L 262.54131 -75.49 
L 267.208571 -75.49 
L 271.875833 -75.49 
L 276.543095 -75.49 
L 281.210357 -75.49 
L 285.877619 -75.49 
L 290.544881 -75.49 
L 295.212143 -75.49 
L 299.879405 -75.49 
L 304.546667 -75.49 
L 309.213929 -75.49 
L 313.88119 -75.49 
L 318.548452 -75.49 
L 323.215714 -75.49 
L 327.882976 -75.49 
L 332.550238 -75.49 
L 337.2175 -75.49 
L 341.884762 -75.49 
L 346.552024 -75.49 
L 351.219286 -75.49 
L 355.886548 -75.49 
L 360.55381 -75.49 
L 365.221071 -75.49 
L 369.888333 -75.49 
L 374.555595 -75.49 
L 379.222857 -75.49 
L 383.890119 -75.49 
L 388.557381 -75.49 
L 393.224643 -75.49 
L 397.891905 -75.49 
L 402.559167 -75.49 
L 407.226429 -75.49 
L 411.89369 -75.49 
L 416.560952 -75.49 
L 421.228214 -75.49 
L 425.895476 -75.49 
L 430.562738 -75.49 
L 435.23 -75.49 
L 435.23 -108.044102 
L 435.23 -108.044102 
L 430.562738 -106.186958 
L 425.895476 -110.362338 
L 421.228214 -98.198324 
L 416.560952 -93.073436 
L 411.89369 -103.973312 
L 407.226429 -105.766983 
L 402.559167 -108.070528 
L 397.891905 -99.243292 
L 393.224643 -117.883834 
L 388.557381 -95.215718 
L 383.890119 -90.676701 
L 379.222857 -99.204836 
L 374.555595 -103.530884 
L 369.888333 -107.106828 
L 365.221071 -111.654928 
L 360.55381 -112.074769 
L 355.886548 -102.318917 
L 351.219286 -94.575395 
L 346.552024 -93.368514 
L 341.884762 -111.587722 
L 337.2175 -111.849123 
L 332.550238 -106.48101 
L 327.882976 -131.537529 
L 323.215714 -99.383934 
L 318.548452 -97.210899 
L 313.88119 -101.511304 
L 309.213929 -123.656189 
L 304.546667 -118.826845 
L 299.879405 -109.678386 
L 295.212143 -98.826891 
L 290.544881 -97.116627 
L 285.877619 -99.851694 
L 281.210357 -104.462087 
L 276.543095 -104.945832 
L 271.875833 -115.474782 
L 267.208571 -112.910103 
L 262.54131 -118.196639 
L 257.874048 -101.951636 
L 253.206786 -95.348529 
L 248.539524 -107.513874 
L 243.872262 -118.053794 
L 239.205 -124.302519 
L 234.537738 -114.591633 
L 229.870476 -128.094728 
L 225.203214 -113.440412 
L 220.535952 -95.099146 
L 215.86869 -106.777195 
L 211.201429 -125.084416 
L 206.534167 -125.130035 
L 201.866905 -126.451357 
L 197.199643 -137.460132 
L 192.532381 -120.031908 
L 187.865119 -95.280908 
L 183.197857 -110.998969 
L 178.530595 -125.868307 
L 173.863333 -124.136551 
L 169.196071 -131.022297 
L 164.52881 -152.581116 
L 159.861548 -109.89226 
L 155.194286 -96.904982 
L 150.527024 -108.470294 
L 145.859762 -120.789992 
L 141.1925 -119.409979 
L 136.525238 -123.074234 
L 131.857976 -128.748001 
L 127.190714 -123.405063 
L 122.523452 -101.09724 
L 117.85619 -101.626527 
L 113.188929 -118.911858 
L 108.521667 -118.695773 
L 103.854405 -123.594647 
L 99.187143 -133.306062 
L 94.519881 -115.589428 
L 89.852619 -95.812885 
L 85.185357 -101.913222 
L 80.518095 -108.497619 
L 75.850833 -114.41468 
L 71.183571 -106.209596 
L 66.51631 -111.365792 
L 61.849048 -111.868284 
L 57.181786 -98.69283 
L 52.514524 -97.501024 
L 47.847262 -97.740021 
L 43.18 -100.278022 
z
" id="m91d9dacf0e" style="stroke:#2ca02c;"/>
    </defs>
    <g clip-path="url(#pb7b179929f)">
     <use style="fill:#2ca02c;stroke:#2ca02c;" x="0" xlink:href="#m91d9dacf0e" y="648"/>
    </g>
   </g>
   <g id="matplotlib.axis_5">
    <g id="xtick_25">
     <g id="line2d_43">
      <g>
       <use style="stroke:#000000;stroke-width:0.8;" x="43.18" xlink:href="#m2a394d3990" y="572.51"/>
      </g>
     </g>
     <g id="text_11">
      <!-- 2020-04-03 -->
      <defs>
       <path d="M 4.890625 31.390625 
L 31.203125 31.390625 
L 31.203125 23.390625 
L 4.890625 23.390625 
z
" id="DejaVuSans-2d"/>
       <path d="M 37.796875 64.3125 
L 12.890625 25.390625 
L 37.796875 25.390625 
z
M 35.203125 72.90625 
L 47.609375 72.90625 
L 47.609375 25.390625 
L 58.015625 25.390625 
L 58.015625 17.1875 
L 47.609375 17.1875 
L 47.609375 0 
L 37.796875 0 
L 37.796875 17.1875 
L 4.890625 17.1875 
L 4.890625 26.703125 
z
" id="DejaVuSans-34"/>
       <path d="M 40.578125 39.3125 
Q 47.65625 37.796875 51.625 33 
Q 55.609375 28.21875 55.609375 21.1875 
Q 55.609375 10.40625 48.1875 4.484375 
Q 40.765625 -1.421875 27.09375 -1.421875 
Q 22.515625 -1.421875 17.65625 -0.515625 
Q 12.796875 0.390625 7.625 2.203125 
L 7.625 11.71875 
Q 11.71875 9.328125 16.59375 8.109375 
Q 21.484375 6.890625 26.8125 6.890625 
Q 36.078125 6.890625 40.9375 10.546875 
Q 45.796875 14.203125 45.796875 21.1875 
Q 45.796875 27.640625 41.28125 31.265625 
Q 36.765625 34.90625 28.71875 34.90625 
L 20.21875 34.90625 
L 20.21875 43.015625 
L 29.109375 43.015625 
Q 36.375 43.015625 40.234375 45.921875 
Q 44.09375 48.828125 44.09375 54.296875 
Q 44.09375 59.90625 40.109375 62.90625 
Q 36.140625 65.921875 28.71875 65.921875 
Q 24.65625 65.921875 20.015625 65.03125 
Q 15.375 64.15625 9.8125 62.3125 
L 9.8125 71.09375 
Q 15.4375 72.65625 20.34375 73.4375 
Q 25.25 74.21875 29.59375 74.21875 
Q 40.828125 74.21875 47.359375 69.109375 
Q 53.90625 64.015625 53.90625 55.328125 
Q 53.90625 49.265625 50.4375 45.09375 
Q 46.96875 40.921875 40.578125 39.3125 
z
" id="DejaVuSans-33"/>
      </defs>
      <g transform="translate(45.939375 637.625625)rotate(-90)scale(0.1 -0.1)">
       <use xlink:href="#DejaVuSans-32"/>
       <use x="63.623047" xlink:href="#DejaVuSans-30"/>
       <use x="127.246094" xlink:href="#DejaVuSans-32"/>
       <use x="190.869141" xlink:href="#DejaVuSans-30"/>
       <use x="254.492188" xlink:href="#DejaVuSans-2d"/>
       <use x="290.576172" xlink:href="#DejaVuSans-30"/>
       <use x="354.199219" xlink:href="#DejaVuSans-34"/>
       <use x="417.822266" xlink:href="#DejaVuSans-2d"/>
       <use x="453.90625" xlink:href="#DejaVuSans-30"/>
       <use x="517.529297" xlink:href="#DejaVuSans-33"/>
      </g>
     </g>
    </g>
    <g id="xtick_26">
     <g id="line2d_44">
      <g>
       <use style="stroke:#000000;stroke-width:0.8;" x="78.820909" xlink:href="#m2a394d3990" y="572.51"/>
      </g>
     </g>
     <g id="text_12">
      <!-- 2020-04-10 -->
      <g transform="translate(81.580284 637.625625)rotate(-90)scale(0.1 -0.1)">
       <use xlink:href="#DejaVuSans-32"/>
       <use x="63.623047" xlink:href="#DejaVuSans-30"/>
       <use x="127.246094" xlink:href="#DejaVuSans-32"/>
       <use x="190.869141" xlink:href="#DejaVuSans-30"/>
       <use x="254.492188" xlink:href="#DejaVuSans-2d"/>
       <use x="290.576172" xlink:href="#DejaVuSans-30"/>
       <use x="354.199219" xlink:href="#DejaVuSans-34"/>
       <use x="417.822266" xlink:href="#DejaVuSans-2d"/>
       <use x="453.90625" xlink:href="#DejaVuSans-31"/>
       <use x="517.529297" xlink:href="#DejaVuSans-30"/>
      </g>
     </g>
    </g>
    <g id="xtick_27">
     <g id="line2d_45">
      <g>
       <use style="stroke:#000000;stroke-width:0.8;" x="114.461818" xlink:href="#m2a394d3990" y="572.51"/>
      </g>
     </g>
     <g id="text_13">
      <!-- 2020-04-18 -->
      <defs>
       <path d="M 31.78125 34.625 
Q 24.75 34.625 20.71875 30.859375 
Q 16.703125 27.09375 16.703125 20.515625 
Q 16.703125 13.921875 20.71875 10.15625 
Q 24.75 6.390625 31.78125 6.390625 
Q 38.8125 6.390625 42.859375 10.171875 
Q 46.921875 13.96875 46.921875 20.515625 
Q 46.921875 27.09375 42.890625 30.859375 
Q 38.875 34.625 31.78125 34.625 
z
M 21.921875 38.8125 
Q 15.578125 40.375 12.03125 44.71875 
Q 8.5 49.078125 8.5 55.328125 
Q 8.5 64.0625 14.71875 69.140625 
Q 20.953125 74.21875 31.78125 74.21875 
Q 42.671875 74.21875 48.875 69.140625 
Q 55.078125 64.0625 55.078125 55.328125 
Q 55.078125 49.078125 51.53125 44.71875 
Q 48 40.375 41.703125 38.8125 
Q 48.828125 37.15625 52.796875 32.3125 
Q 56.78125 27.484375 56.78125 20.515625 
Q 56.78125 9.90625 50.3125 4.234375 
Q 43.84375 -1.421875 31.78125 -1.421875 
Q 19.734375 -1.421875 13.25 4.234375 
Q 6.78125 9.90625 6.78125 20.515625 
Q 6.78125 27.484375 10.78125 32.3125 
Q 14.796875 37.15625 21.921875 38.8125 
z
M 18.3125 54.390625 
Q 18.3125 48.734375 21.84375 45.5625 
Q 25.390625 42.390625 31.78125 42.390625 
Q 38.140625 42.390625 41.71875 45.5625 
Q 45.3125 48.734375 45.3125 54.390625 
Q 45.3125 60.0625 41.71875 63.234375 
Q 38.140625 66.40625 31.78125 66.40625 
Q 25.390625 66.40625 21.84375 63.234375 
Q 18.3125 60.0625 18.3125 54.390625 
z
" id="DejaVuSans-38"/>
      </defs>
      <g transform="translate(117.221193 637.625625)rotate(-90)scale(0.1 -0.1)">
       <use xlink:href="#DejaVuSans-32"/>
       <use x="63.623047" xlink:href="#DejaVuSans-30"/>
       <use x="127.246094" xlink:href="#DejaVuSans-32"/>
       <use x="190.869141" xlink:href="#DejaVuSans-30"/>
       <use x="254.492188" xlink:href="#DejaVuSans-2d"/>
       <use x="290.576172" xlink:href="#DejaVuSans-30"/>
       <use x="354.199219" xlink:href="#DejaVuSans-34"/>
       <use x="417.822266" xlink:href="#DejaVuSans-2d"/>
       <use x="453.90625" xlink:href="#DejaVuSans-31"/>
       <use x="517.529297" xlink:href="#DejaVuSans-38"/>
      </g>
     </g>
    </g>
    <g id="xtick_28">
     <g id="line2d_46">
      <g>
       <use style="stroke:#000000;stroke-width:0.8;" x="150.102727" xlink:href="#m2a394d3990" y="572.51"/>
      </g>
     </g>
     <g id="text_14">
      <!-- 2020-04-25 -->
      <g transform="translate(152.862102 637.625625)rotate(-90)scale(0.1 -0.1)">
       <use xlink:href="#DejaVuSans-32"/>
       <use x="63.623047" xlink:href="#DejaVuSans-30"/>
       <use x="127.246094" xlink:href="#DejaVuSans-32"/>
       <use x="190.869141" xlink:href="#DejaVuSans-30"/>
       <use x="254.492188" xlink:href="#DejaVuSans-2d"/>
       <use x="290.576172" xlink:href="#DejaVuSans-30"/>
       <use x="354.199219" xlink:href="#DejaVuSans-34"/>
       <use x="417.822266" xlink:href="#DejaVuSans-2d"/>
       <use x="453.90625" xlink:href="#DejaVuSans-32"/>
       <use x="517.529297" xlink:href="#DejaVuSans-35"/>
      </g>
     </g>
    </g>
    <g id="xtick_29">
     <g id="line2d_47">
      <g>
       <use style="stroke:#000000;stroke-width:0.8;" x="185.743636" xlink:href="#m2a394d3990" y="572.51"/>
      </g>
     </g>
     <g id="text_15">
      <!-- 2020-05-03 -->
      <g transform="translate(188.503011 637.625625)rotate(-90)scale(0.1 -0.1)">
       <use xlink:href="#DejaVuSans-32"/>
       <use x="63.623047" xlink:href="#DejaVuSans-30"/>
       <use x="127.246094" xlink:href="#DejaVuSans-32"/>
       <use x="190.869141" xlink:href="#DejaVuSans-30"/>
       <use x="254.492188" xlink:href="#DejaVuSans-2d"/>
       <use x="290.576172" xlink:href="#DejaVuSans-30"/>
       <use x="354.199219" xlink:href="#DejaVuSans-35"/>
       <use x="417.822266" xlink:href="#DejaVuSans-2d"/>
       <use x="453.90625" xlink:href="#DejaVuSans-30"/>
       <use x="517.529297" xlink:href="#DejaVuSans-33"/>
      </g>
     </g>
    </g>
    <g id="xtick_30">
     <g id="line2d_48">
      <g>
       <use style="stroke:#000000;stroke-width:0.8;" x="221.384545" xlink:href="#m2a394d3990" y="572.51"/>
      </g>
     </g>
     <g id="text_16">
      <!-- 2020-05-11 -->
      <g transform="translate(224.14392 637.625625)rotate(-90)scale(0.1 -0.1)">
       <use xlink:href="#DejaVuSans-32"/>
       <use x="63.623047" xlink:href="#DejaVuSans-30"/>
       <use x="127.246094" xlink:href="#DejaVuSans-32"/>
       <use x="190.869141" xlink:href="#DejaVuSans-30"/>
       <use x="254.492188" xlink:href="#DejaVuSans-2d"/>
       <use x="290.576172" xlink:href="#DejaVuSans-30"/>
       <use x="354.199219" xlink:href="#DejaVuSans-35"/>
       <use x="417.822266" xlink:href="#DejaVuSans-2d"/>
       <use x="453.90625" xlink:href="#DejaVuSans-31"/>
       <use x="517.529297" xlink:href="#DejaVuSans-31"/>
      </g>
     </g>
    </g>
    <g id="xtick_31">
     <g id="line2d_49">
      <g>
       <use style="stroke:#000000;stroke-width:0.8;" x="257.025455" xlink:href="#m2a394d3990" y="572.51"/>
      </g>
     </g>
     <g id="text_17">
      <!-- 2020-05-18 -->
      <g transform="translate(259.78483 637.625625)rotate(-90)scale(0.1 -0.1)">
       <use xlink:href="#DejaVuSans-32"/>
       <use x="63.623047" xlink:href="#DejaVuSans-30"/>
       <use x="127.246094" xlink:href="#DejaVuSans-32"/>
       <use x="190.869141" xlink:href="#DejaVuSans-30"/>
       <use x="254.492188" xlink:href="#DejaVuSans-2d"/>
       <use x="290.576172" xlink:href="#DejaVuSans-30"/>
       <use x="354.199219" xlink:href="#DejaVuSans-35"/>
       <use x="417.822266" xlink:href="#DejaVuSans-2d"/>
       <use x="453.90625" xlink:href="#DejaVuSans-31"/>
       <use x="517.529297" xlink:href="#DejaVuSans-38"/>
      </g>
     </g>
    </g>
    <g id="xtick_32">
     <g id="line2d_50">
      <g>
       <use style="stroke:#000000;stroke-width:0.8;" x="292.666364" xlink:href="#m2a394d3990" y="572.51"/>
      </g>
     </g>
     <g id="text_18">
      <!-- 2020-05-26 -->
      <defs>
       <path d="M 33.015625 40.375 
Q 26.375 40.375 22.484375 35.828125 
Q 18.609375 31.296875 18.609375 23.390625 
Q 18.609375 15.53125 22.484375 10.953125 
Q 26.375 6.390625 33.015625 6.390625 
Q 39.65625 6.390625 43.53125 10.953125 
Q 47.40625 15.53125 47.40625 23.390625 
Q 47.40625 31.296875 43.53125 35.828125 
Q 39.65625 40.375 33.015625 40.375 
z
M 52.59375 71.296875 
L 52.59375 62.3125 
Q 48.875 64.0625 45.09375 64.984375 
Q 41.3125 65.921875 37.59375 65.921875 
Q 27.828125 65.921875 22.671875 59.328125 
Q 17.53125 52.734375 16.796875 39.40625 
Q 19.671875 43.65625 24.015625 45.921875 
Q 28.375 48.1875 33.59375 48.1875 
Q 44.578125 48.1875 50.953125 41.515625 
Q 57.328125 34.859375 57.328125 23.390625 
Q 57.328125 12.15625 50.6875 5.359375 
Q 44.046875 -1.421875 33.015625 -1.421875 
Q 20.359375 -1.421875 13.671875 8.265625 
Q 6.984375 17.96875 6.984375 36.375 
Q 6.984375 53.65625 15.1875 63.9375 
Q 23.390625 74.21875 37.203125 74.21875 
Q 40.921875 74.21875 44.703125 73.484375 
Q 48.484375 72.75 52.59375 71.296875 
z
" id="DejaVuSans-36"/>
      </defs>
      <g transform="translate(295.425739 637.625625)rotate(-90)scale(0.1 -0.1)">
       <use xlink:href="#DejaVuSans-32"/>
       <use x="63.623047" xlink:href="#DejaVuSans-30"/>
       <use x="127.246094" xlink:href="#DejaVuSans-32"/>
       <use x="190.869141" xlink:href="#DejaVuSans-30"/>
       <use x="254.492188" xlink:href="#DejaVuSans-2d"/>
       <use x="290.576172" xlink:href="#DejaVuSans-30"/>
       <use x="354.199219" xlink:href="#DejaVuSans-35"/>
       <use x="417.822266" xlink:href="#DejaVuSans-2d"/>
       <use x="453.90625" xlink:href="#DejaVuSans-32"/>
       <use x="517.529297" xlink:href="#DejaVuSans-36"/>
      </g>
     </g>
    </g>
    <g id="xtick_33">
     <g id="line2d_51">
      <g>
       <use style="stroke:#000000;stroke-width:0.8;" x="328.307273" xlink:href="#m2a394d3990" y="572.51"/>
      </g>
     </g>
     <g id="text_19">
      <!-- 2020-06-03 -->
      <g transform="translate(331.066648 637.625625)rotate(-90)scale(0.1 -0.1)">
       <use xlink:href="#DejaVuSans-32"/>
       <use x="63.623047" xlink:href="#DejaVuSans-30"/>
       <use x="127.246094" xlink:href="#DejaVuSans-32"/>
       <use x="190.869141" xlink:href="#DejaVuSans-30"/>
       <use x="254.492188" xlink:href="#DejaVuSans-2d"/>
       <use x="290.576172" xlink:href="#DejaVuSans-30"/>
       <use x="354.199219" xlink:href="#DejaVuSans-36"/>
       <use x="417.822266" xlink:href="#DejaVuSans-2d"/>
       <use x="453.90625" xlink:href="#DejaVuSans-30"/>
       <use x="517.529297" xlink:href="#DejaVuSans-33"/>
      </g>
     </g>
    </g>
    <g id="xtick_34">
     <g id="line2d_52">
      <g>
       <use style="stroke:#000000;stroke-width:0.8;" x="363.948182" xlink:href="#m2a394d3990" y="572.51"/>
      </g>
     </g>
     <g id="text_20">
      <!-- 2020-06-10 -->
      <g transform="translate(366.707557 637.625625)rotate(-90)scale(0.1 -0.1)">
       <use xlink:href="#DejaVuSans-32"/>
       <use x="63.623047" xlink:href="#DejaVuSans-30"/>
       <use x="127.246094" xlink:href="#DejaVuSans-32"/>
       <use x="190.869141" xlink:href="#DejaVuSans-30"/>
       <use x="254.492188" xlink:href="#DejaVuSans-2d"/>
       <use x="290.576172" xlink:href="#DejaVuSans-30"/>
       <use x="354.199219" xlink:href="#DejaVuSans-36"/>
       <use x="417.822266" xlink:href="#DejaVuSans-2d"/>
       <use x="453.90625" xlink:href="#DejaVuSans-31"/>
       <use x="517.529297" xlink:href="#DejaVuSans-30"/>
      </g>
     </g>
    </g>
    <g id="xtick_35">
     <g id="line2d_53">
      <g>
       <use style="stroke:#000000;stroke-width:0.8;" x="399.589091" xlink:href="#m2a394d3990" y="572.51"/>
      </g>
     </g>
     <g id="text_21">
      <!-- 2020-06-18 -->
      <g transform="translate(402.348466 637.625625)rotate(-90)scale(0.1 -0.1)">
       <use xlink:href="#DejaVuSans-32"/>
       <use x="63.623047" xlink:href="#DejaVuSans-30"/>
       <use x="127.246094" xlink:href="#DejaVuSans-32"/>
       <use x="190.869141" xlink:href="#DejaVuSans-30"/>
       <use x="254.492188" xlink:href="#DejaVuSans-2d"/>
       <use x="290.576172" xlink:href="#DejaVuSans-30"/>
       <use x="354.199219" xlink:href="#DejaVuSans-36"/>
       <use x="417.822266" xlink:href="#DejaVuSans-2d"/>
       <use x="453.90625" xlink:href="#DejaVuSans-31"/>
       <use x="517.529297" xlink:href="#DejaVuSans-38"/>
      </g>
     </g>
    </g>
    <g id="xtick_36">
     <g id="line2d_54">
      <g>
       <use style="stroke:#000000;stroke-width:0.8;" x="435.23" xlink:href="#m2a394d3990" y="572.51"/>
      </g>
     </g>
     <g id="text_22">
      <!-- 2020-06-26 -->
      <g transform="translate(437.989375 637.625625)rotate(-90)scale(0.1 -0.1)">
       <use xlink:href="#DejaVuSans-32"/>
       <use x="63.623047" xlink:href="#DejaVuSans-30"/>
       <use x="127.246094" xlink:href="#DejaVuSans-32"/>
       <use x="190.869141" xlink:href="#DejaVuSans-30"/>
       <use x="254.492188" xlink:href="#DejaVuSans-2d"/>
       <use x="290.576172" xlink:href="#DejaVuSans-30"/>
       <use x="354.199219" xlink:href="#DejaVuSans-36"/>
       <use x="417.822266" xlink:href="#DejaVuSans-2d"/>
       <use x="453.90625" xlink:href="#DejaVuSans-32"/>
       <use x="517.529297" xlink:href="#DejaVuSans-36"/>
      </g>
     </g>
    </g>
   </g>
   <g id="matplotlib.axis_6">
    <g id="ytick_17">
     <g id="line2d_55">
      <g>
       <use style="stroke:#000000;stroke-width:0.8;" x="43.18" xlink:href="#m6cf486a395" y="572.51"/>
      </g>
     </g>
     <g id="text_23">
      <!-- 0 -->
      <g transform="translate(29.8175 576.309219)scale(0.1 -0.1)">
       <use xlink:href="#DejaVuSans-30"/>
      </g>
     </g>
    </g>
    <g id="ytick_18">
     <g id="line2d_56">
      <g>
       <use style="stroke:#000000;stroke-width:0.8;" x="43.18" xlink:href="#m6cf486a395" y="538.86157"/>
      </g>
     </g>
     <g id="text_24">
      <!-- 250 -->
      <g transform="translate(17.0925 542.660788)scale(0.1 -0.1)">
       <use xlink:href="#DejaVuSans-32"/>
       <use x="63.623047" xlink:href="#DejaVuSans-35"/>
       <use x="127.246094" xlink:href="#DejaVuSans-30"/>
      </g>
     </g>
    </g>
    <g id="ytick_19">
     <g id="line2d_57">
      <g>
       <use style="stroke:#000000;stroke-width:0.8;" x="43.18" xlink:href="#m6cf486a395" y="505.213139"/>
      </g>
     </g>
     <g id="text_25">
      <!-- 500 -->
      <g transform="translate(17.0925 509.012358)scale(0.1 -0.1)">
       <use xlink:href="#DejaVuSans-35"/>
       <use x="63.623047" xlink:href="#DejaVuSans-30"/>
       <use x="127.246094" xlink:href="#DejaVuSans-30"/>
      </g>
     </g>
    </g>
    <g id="ytick_20">
     <g id="line2d_58">
      <g>
       <use style="stroke:#000000;stroke-width:0.8;" x="43.18" xlink:href="#m6cf486a395" y="471.564709"/>
      </g>
     </g>
     <g id="text_26">
      <!-- 750 -->
      <g transform="translate(17.0925 475.363927)scale(0.1 -0.1)">
       <use xlink:href="#DejaVuSans-37"/>
       <use x="63.623047" xlink:href="#DejaVuSans-35"/>
       <use x="127.246094" xlink:href="#DejaVuSans-30"/>
      </g>
     </g>
    </g>
    <g id="ytick_21">
     <g id="line2d_59">
      <g>
       <use style="stroke:#000000;stroke-width:0.8;" x="43.18" xlink:href="#m6cf486a395" y="437.916278"/>
      </g>
     </g>
     <g id="text_27">
      <!-- 1000 -->
      <g transform="translate(10.73 441.715497)scale(0.1 -0.1)">
       <use xlink:href="#DejaVuSans-31"/>
       <use x="63.623047" xlink:href="#DejaVuSans-30"/>
       <use x="127.246094" xlink:href="#DejaVuSans-30"/>
       <use x="190.869141" xlink:href="#DejaVuSans-30"/>
      </g>
     </g>
    </g>
    <g id="ytick_22">
     <g id="line2d_60">
      <g>
       <use style="stroke:#000000;stroke-width:0.8;" x="43.18" xlink:href="#m6cf486a395" y="404.267848"/>
      </g>
     </g>
     <g id="text_28">
      <!-- 1250 -->
      <g transform="translate(10.73 408.067067)scale(0.1 -0.1)">
       <use xlink:href="#DejaVuSans-31"/>
       <use x="63.623047" xlink:href="#DejaVuSans-32"/>
       <use x="127.246094" xlink:href="#DejaVuSans-35"/>
       <use x="190.869141" xlink:href="#DejaVuSans-30"/>
      </g>
     </g>
    </g>
    <g id="ytick_23">
     <g id="line2d_61">
      <g>
       <use style="stroke:#000000;stroke-width:0.8;" x="43.18" xlink:href="#m6cf486a395" y="370.619417"/>
      </g>
     </g>
     <g id="text_29">
      <!-- 1500 -->
      <g transform="translate(10.73 374.418636)scale(0.1 -0.1)">
       <use xlink:href="#DejaVuSans-31"/>
       <use x="63.623047" xlink:href="#DejaVuSans-35"/>
       <use x="127.246094" xlink:href="#DejaVuSans-30"/>
       <use x="190.869141" xlink:href="#DejaVuSans-30"/>
      </g>
     </g>
    </g>
    <g id="ytick_24">
     <g id="line2d_62">
      <g>
       <use style="stroke:#000000;stroke-width:0.8;" x="43.18" xlink:href="#m6cf486a395" y="336.970987"/>
      </g>
     </g>
     <g id="text_30">
      <!-- 1750 -->
      <g transform="translate(10.73 340.770206)scale(0.1 -0.1)">
       <use xlink:href="#DejaVuSans-31"/>
       <use x="63.623047" xlink:href="#DejaVuSans-37"/>
       <use x="127.246094" xlink:href="#DejaVuSans-35"/>
       <use x="190.869141" xlink:href="#DejaVuSans-30"/>
      </g>
     </g>
    </g>
   </g>
   <g id="line2d_63">
    <path clip-path="url(#pb7b179929f)" d="M 43.18 547.721978 
L 47.847262 550.259979 
L 52.514524 550.498976 
L 57.181786 549.30717 
L 61.849048 536.131716 
L 66.51631 536.634208 
L 71.183571 541.790404 
L 75.850833 533.58532 
L 80.518095 539.502381 
L 85.185357 546.086778 
L 89.852619 552.187115 
L 94.519881 532.410572 
L 99.187143 514.693938 
L 103.854405 524.405353 
L 108.521667 529.304227 
L 113.188929 529.088142 
L 117.85619 546.373473 
L 122.523452 546.90276 
L 127.190714 524.594937 
L 131.857976 519.251999 
L 136.525238 524.925766 
L 141.1925 528.590021 
L 145.859762 527.210008 
L 150.527024 539.529706 
L 155.194286 551.095018 
L 159.861548 538.10774 
L 164.52881 495.418884 
L 169.196071 516.977703 
L 173.863333 523.863449 
L 178.530595 522.131693 
L 183.197857 537.001031 
L 187.865119 552.719092 
L 192.532381 527.968092 
L 197.199643 510.539868 
L 201.866905 521.548643 
L 206.534167 522.869965 
L 211.201429 522.915584 
L 215.86869 541.222805 
L 220.535952 552.900854 
L 225.203214 534.559588 
L 229.870476 519.905272 
L 234.537738 533.408367 
L 239.205 523.697481 
L 243.872262 529.946206 
L 248.539524 540.486126 
L 253.206786 552.651471 
L 257.874048 546.048364 
L 262.54131 529.803361 
L 267.208571 535.089897 
L 271.875833 532.525218 
L 276.543095 543.054168 
L 281.210357 543.537913 
L 285.877619 548.148306 
L 290.544881 550.883373 
L 295.212143 549.173109 
L 299.879405 538.321614 
L 304.546667 529.173155 
L 309.213929 524.343811 
L 313.88119 546.488696 
L 318.548452 550.789101 
L 323.215714 548.616066 
L 327.882976 516.462471 
L 332.550238 541.51899 
L 337.2175 536.150877 
L 341.884762 536.412278 
L 346.552024 554.631486 
L 351.219286 553.424605 
L 355.886548 545.681083 
L 360.55381 535.925231 
L 365.221071 536.345072 
L 369.888333 540.893172 
L 374.555595 544.469116 
L 379.222857 548.795164 
L 383.890119 557.323299 
L 388.557381 552.784282 
L 393.224643 530.116166 
L 397.891905 548.756708 
L 402.559167 539.929472 
L 407.226429 542.233017 
L 411.89369 544.026688 
L 416.560952 554.926564 
L 421.228214 549.801676 
L 425.895476 537.637662 
L 430.562738 541.813042 
L 435.23 539.955898 
" style="fill:none;stroke:#2ca02c;stroke-linecap:square;stroke-width:1.5;"/>
   </g>
   <g id="patch_13">
    <path d="M 43.18 572.51 
L 43.18 314.755 
" style="fill:none;stroke:#000000;stroke-linecap:square;stroke-linejoin:miter;stroke-width:0.8;"/>
   </g>
   <g id="patch_14">
    <path d="M 435.23 572.51 
L 435.23 314.755 
" style="fill:none;stroke:#000000;stroke-linecap:square;stroke-linejoin:miter;stroke-width:0.8;"/>
   </g>
   <g id="patch_15">
    <path d="M 43.18 572.51 
L 435.23 572.51 
" style="fill:none;stroke:#000000;stroke-linecap:square;stroke-linejoin:miter;stroke-width:0.8;"/>
   </g>
   <g id="patch_16">
    <path d="M 43.18 314.755 
L 435.23 314.755 
" style="fill:none;stroke:#000000;stroke-linecap:square;stroke-linejoin:miter;stroke-width:0.8;"/>
   </g>
   <g id="text_31">
    <!-- South -->
    <defs>
     <path d="M 53.515625 70.515625 
L 53.515625 60.890625 
Q 47.90625 63.578125 42.921875 64.890625 
Q 37.9375 66.21875 33.296875 66.21875 
Q 25.25 66.21875 20.875 63.09375 
Q 16.5 59.96875 16.5 54.203125 
Q 16.5 49.359375 19.40625 46.890625 
Q 22.3125 44.4375 30.421875 42.921875 
L 36.375 41.703125 
Q 47.40625 39.59375 52.65625 34.296875 
Q 57.90625 29 57.90625 20.125 
Q 57.90625 9.515625 50.796875 4.046875 
Q 43.703125 -1.421875 29.984375 -1.421875 
Q 24.8125 -1.421875 18.96875 -0.25 
Q 13.140625 0.921875 6.890625 3.21875 
L 6.890625 13.375 
Q 12.890625 10.015625 18.65625 8.296875 
Q 24.421875 6.59375 29.984375 6.59375 
Q 38.421875 6.59375 43.015625 9.90625 
Q 47.609375 13.234375 47.609375 19.390625 
Q 47.609375 24.75 44.3125 27.78125 
Q 41.015625 30.8125 33.5 32.328125 
L 27.484375 33.5 
Q 16.453125 35.6875 11.515625 40.375 
Q 6.59375 45.0625 6.59375 53.421875 
Q 6.59375 63.09375 13.40625 68.65625 
Q 20.21875 74.21875 32.171875 74.21875 
Q 37.3125 74.21875 42.625 73.28125 
Q 47.953125 72.359375 53.515625 70.515625 
z
" id="DejaVuSans-53"/>
     <path d="M 8.5 21.578125 
L 8.5 54.6875 
L 17.484375 54.6875 
L 17.484375 21.921875 
Q 17.484375 14.15625 20.5 10.265625 
Q 23.53125 6.390625 29.59375 6.390625 
Q 36.859375 6.390625 41.078125 11.03125 
Q 45.3125 15.671875 45.3125 23.6875 
L 45.3125 54.6875 
L 54.296875 54.6875 
L 54.296875 0 
L 45.3125 0 
L 45.3125 8.40625 
Q 42.046875 3.421875 37.71875 1 
Q 33.40625 -1.421875 27.6875 -1.421875 
Q 18.265625 -1.421875 13.375 4.4375 
Q 8.5 10.296875 8.5 21.578125 
z
M 31.109375 56 
z
" id="DejaVuSans-75"/>
    </defs>
    <g transform="translate(221.7675 308.755)scale(0.12 -0.12)">
     <use xlink:href="#DejaVuSans-53"/>
     <use x="63.476562" xlink:href="#DejaVuSans-6f"/>
     <use x="124.658203" xlink:href="#DejaVuSans-75"/>
     <use x="188.037109" xlink:href="#DejaVuSans-74"/>
     <use x="227.246094" xlink:href="#DejaVuSans-68"/>
    </g>
   </g>
  </g>
  <g id="axes_4">
   <g id="patch_17">
    <path d="M 456.11 572.51 
L 848.16 572.51 
L 848.16 314.755 
L 456.11 314.755 
z
" style="fill:#ffffff;"/>
   </g>
   <g id="PolyCollection_4">
    <defs>
     <path d="M 456.11 -86.259336 
L 456.11 -75.49 
L 460.777262 -75.49 
L 465.444524 -75.49 
L 470.111786 -75.49 
L 474.779048 -75.49 
L 479.44631 -75.49 
L 484.113571 -75.49 
L 488.780833 -75.49 
L 493.448095 -75.49 
L 498.115357 -75.49 
L 502.782619 -75.49 
L 507.449881 -75.49 
L 512.117143 -75.49 
L 516.784405 -75.49 
L 521.451667 -75.49 
L 526.118929 -75.49 
L 530.78619 -75.49 
L 535.453452 -75.49 
L 540.120714 -75.49 
L 544.787976 -75.49 
L 549.455238 -75.49 
L 554.1225 -75.49 
L 558.789762 -75.49 
L 563.457024 -75.49 
L 568.124286 -75.49 
L 572.791548 -75.49 
L 577.45881 -75.49 
L 582.126071 -75.49 
L 586.793333 -75.49 
L 591.460595 -75.49 
L 596.127857 -75.49 
L 600.795119 -75.49 
L 605.462381 -75.49 
L 610.129643 -75.49 
L 614.796905 -75.49 
L 619.464167 -75.49 
L 624.131429 -75.49 
L 628.79869 -75.49 
L 633.465952 -75.49 
L 638.133214 -75.49 
L 642.800476 -75.49 
L 647.467738 -75.49 
L 652.135 -75.49 
L 656.802262 -75.49 
L 661.469524 -75.49 
L 666.136786 -75.49 
L 670.804048 -75.49 
L 675.47131 -75.49 
L 680.138571 -75.49 
L 684.805833 -75.49 
L 689.473095 -75.49 
L 694.140357 -75.49 
L 698.807619 -75.49 
L 703.474881 -75.49 
L 708.142143 -75.49 
L 712.809405 -75.49 
L 717.476667 -75.49 
L 722.143929 -75.49 
L 726.81119 -75.49 
L 731.478452 -75.49 
L 736.145714 -75.49 
L 740.812976 -75.49 
L 745.480238 -75.49 
L 750.1475 -75.49 
L 754.814762 -75.49 
L 759.482024 -75.49 
L 764.149286 -75.49 
L 768.816548 -75.49 
L 773.48381 -75.49 
L 778.151071 -75.49 
L 782.818333 -75.49 
L 787.485595 -75.49 
L 792.152857 -75.49 
L 796.820119 -75.49 
L 801.487381 -75.49 
L 806.154643 -75.49 
L 810.821905 -75.49 
L 815.489167 -75.49 
L 820.156429 -75.49 
L 824.82369 -75.49 
L 829.490952 -75.49 
L 834.158214 -75.49 
L 838.825476 -75.49 
L 843.492738 -75.49 
L 848.16 -75.49 
L 848.16 -105.02737 
L 848.16 -105.02737 
L 843.492738 -86.459185 
L 838.825476 -98.916717 
L 834.158214 -78.329302 
L 829.490952 -79.083334 
L 824.82369 -101.519313 
L 820.156429 -85.502106 
L 815.489167 -93.173555 
L 810.821905 -92.158986 
L 806.154643 -85.839806 
L 801.487381 -90.501224 
L 796.820119 -82.345803 
L 792.152857 -87.656719 
L 787.485595 -93.764018 
L 782.818333 -98.72394 
L 778.151071 -93.879181 
L 773.48381 -88.829097 
L 768.816548 -84.700825 
L 764.149286 -88.720115 
L 759.482024 -89.518438 
L 754.814762 -91.661717 
L 750.1475 -89.670153 
L 745.480238 -97.607189 
L 740.812976 -87.196203 
L 736.145714 -84.546346 
L 731.478452 -88.07263 
L 726.81119 -92.389888 
L 722.143929 -102.851641 
L 717.476667 -93.167396 
L 712.809405 -96.796866 
L 708.142143 -82.626788 
L 703.474881 -81.174353 
L 698.807619 -88.07638 
L 694.140357 -94.799408 
L 689.473095 -215.155546 
L 684.805833 27.503642 
L 680.138571 -100.130669 
L 675.47131 -97.660975 
L 670.804048 -86.939343 
L 666.136786 -87.252706 
L 661.469524 -109.402803 
L 656.802262 -94.746189 
L 652.135 -99.341925 
L 647.467738 -101.702393 
L 642.800476 -98.575227 
L 638.133214 -87.09928 
L 633.465952 -89.819543 
L 628.79869 -94.972439 
L 624.131429 -99.205087 
L 619.464167 -101.93922 
L 614.796905 -98.439408 
L 610.129643 -102.506462 
L 605.462381 -85.044804 
L 600.795119 -86.660235 
L 596.127857 -102.745903 
L 591.460595 -91.611287 
L 586.793333 -95.57145 
L 582.126071 -100.777414 
L 577.45881 -91.394055 
L 572.791548 -90.952834 
L 568.124286 -87.397094 
L 563.457024 -92.013282 
L 558.789762 -108.741456 
L 554.1225 -109.506353 
L 549.455238 -96.300937 
L 544.787976 -101.134123 
L 540.120714 -99.500595 
L 535.453452 -84.050308 
L 530.78619 -92.906288 
L 526.118929 -98.629187 
L 521.451667 -95.601694 
L 516.784405 -93.288807 
L 512.117143 -96.112695 
L 507.449881 -87.730587 
L 502.782619 -87.524965 
L 498.115357 -93.286053 
L 493.448095 -95.007942 
L 488.780833 -93.583602 
L 484.113571 -93.756075 
L 479.44631 -91.946363 
L 474.779048 -86.933667 
L 470.111786 -87.747387 
L 465.444524 -89.68132 
L 460.777262 -88.883446 
L 456.11 -86.259336 
z
" id="mf5c61c6bac" style="stroke:#d62728;"/>
    </defs>
    <g clip-path="url(#p67123e45e8)">
     <use style="fill:#d62728;stroke:#d62728;" x="0" xlink:href="#mf5c61c6bac" y="648"/>
    </g>
   </g>
   <g id="matplotlib.axis_7">
    <g id="xtick_37">
     <g id="line2d_64">
      <g>
       <use style="stroke:#000000;stroke-width:0.8;" x="456.11" xlink:href="#m2a394d3990" y="572.51"/>
      </g>
     </g>
     <g id="text_32">
      <!-- 2020-04-03 -->
      <g transform="translate(458.869375 637.625625)rotate(-90)scale(0.1 -0.1)">
       <use xlink:href="#DejaVuSans-32"/>
       <use x="63.623047" xlink:href="#DejaVuSans-30"/>
       <use x="127.246094" xlink:href="#DejaVuSans-32"/>
       <use x="190.869141" xlink:href="#DejaVuSans-30"/>
       <use x="254.492188" xlink:href="#DejaVuSans-2d"/>
       <use x="290.576172" xlink:href="#DejaVuSans-30"/>
       <use x="354.199219" xlink:href="#DejaVuSans-34"/>
       <use x="417.822266" xlink:href="#DejaVuSans-2d"/>
       <use x="453.90625" xlink:href="#DejaVuSans-30"/>
       <use x="517.529297" xlink:href="#DejaVuSans-33"/>
      </g>
     </g>
    </g>
    <g id="xtick_38">
     <g id="line2d_65">
      <g>
       <use style="stroke:#000000;stroke-width:0.8;" x="491.750909" xlink:href="#m2a394d3990" y="572.51"/>
      </g>
     </g>
     <g id="text_33">
      <!-- 2020-04-10 -->
      <g transform="translate(494.510284 637.625625)rotate(-90)scale(0.1 -0.1)">
       <use xlink:href="#DejaVuSans-32"/>
       <use x="63.623047" xlink:href="#DejaVuSans-30"/>
       <use x="127.246094" xlink:href="#DejaVuSans-32"/>
       <use x="190.869141" xlink:href="#DejaVuSans-30"/>
       <use x="254.492188" xlink:href="#DejaVuSans-2d"/>
       <use x="290.576172" xlink:href="#DejaVuSans-30"/>
       <use x="354.199219" xlink:href="#DejaVuSans-34"/>
       <use x="417.822266" xlink:href="#DejaVuSans-2d"/>
       <use x="453.90625" xlink:href="#DejaVuSans-31"/>
       <use x="517.529297" xlink:href="#DejaVuSans-30"/>
      </g>
     </g>
    </g>
    <g id="xtick_39">
     <g id="line2d_66">
      <g>
       <use style="stroke:#000000;stroke-width:0.8;" x="527.391818" xlink:href="#m2a394d3990" y="572.51"/>
      </g>
     </g>
     <g id="text_34">
      <!-- 2020-04-18 -->
      <g transform="translate(530.151193 637.625625)rotate(-90)scale(0.1 -0.1)">
       <use xlink:href="#DejaVuSans-32"/>
       <use x="63.623047" xlink:href="#DejaVuSans-30"/>
       <use x="127.246094" xlink:href="#DejaVuSans-32"/>
       <use x="190.869141" xlink:href="#DejaVuSans-30"/>
       <use x="254.492188" xlink:href="#DejaVuSans-2d"/>
       <use x="290.576172" xlink:href="#DejaVuSans-30"/>
       <use x="354.199219" xlink:href="#DejaVuSans-34"/>
       <use x="417.822266" xlink:href="#DejaVuSans-2d"/>
       <use x="453.90625" xlink:href="#DejaVuSans-31"/>
       <use x="517.529297" xlink:href="#DejaVuSans-38"/>
      </g>
     </g>
    </g>
    <g id="xtick_40">
     <g id="line2d_67">
      <g>
       <use style="stroke:#000000;stroke-width:0.8;" x="563.032727" xlink:href="#m2a394d3990" y="572.51"/>
      </g>
     </g>
     <g id="text_35">
      <!-- 2020-04-25 -->
      <g transform="translate(565.792102 637.625625)rotate(-90)scale(0.1 -0.1)">
       <use xlink:href="#DejaVuSans-32"/>
       <use x="63.623047" xlink:href="#DejaVuSans-30"/>
       <use x="127.246094" xlink:href="#DejaVuSans-32"/>
       <use x="190.869141" xlink:href="#DejaVuSans-30"/>
       <use x="254.492188" xlink:href="#DejaVuSans-2d"/>
       <use x="290.576172" xlink:href="#DejaVuSans-30"/>
       <use x="354.199219" xlink:href="#DejaVuSans-34"/>
       <use x="417.822266" xlink:href="#DejaVuSans-2d"/>
       <use x="453.90625" xlink:href="#DejaVuSans-32"/>
       <use x="517.529297" xlink:href="#DejaVuSans-35"/>
      </g>
     </g>
    </g>
    <g id="xtick_41">
     <g id="line2d_68">
      <g>
       <use style="stroke:#000000;stroke-width:0.8;" x="598.673636" xlink:href="#m2a394d3990" y="572.51"/>
      </g>
     </g>
     <g id="text_36">
      <!-- 2020-05-03 -->
      <g transform="translate(601.433011 637.625625)rotate(-90)scale(0.1 -0.1)">
       <use xlink:href="#DejaVuSans-32"/>
       <use x="63.623047" xlink:href="#DejaVuSans-30"/>
       <use x="127.246094" xlink:href="#DejaVuSans-32"/>
       <use x="190.869141" xlink:href="#DejaVuSans-30"/>
       <use x="254.492188" xlink:href="#DejaVuSans-2d"/>
       <use x="290.576172" xlink:href="#DejaVuSans-30"/>
       <use x="354.199219" xlink:href="#DejaVuSans-35"/>
       <use x="417.822266" xlink:href="#DejaVuSans-2d"/>
       <use x="453.90625" xlink:href="#DejaVuSans-30"/>
       <use x="517.529297" xlink:href="#DejaVuSans-33"/>
      </g>
     </g>
    </g>
    <g id="xtick_42">
     <g id="line2d_69">
      <g>
       <use style="stroke:#000000;stroke-width:0.8;" x="634.314545" xlink:href="#m2a394d3990" y="572.51"/>
      </g>
     </g>
     <g id="text_37">
      <!-- 2020-05-11 -->
      <g transform="translate(637.07392 637.625625)rotate(-90)scale(0.1 -0.1)">
       <use xlink:href="#DejaVuSans-32"/>
       <use x="63.623047" xlink:href="#DejaVuSans-30"/>
       <use x="127.246094" xlink:href="#DejaVuSans-32"/>
       <use x="190.869141" xlink:href="#DejaVuSans-30"/>
       <use x="254.492188" xlink:href="#DejaVuSans-2d"/>
       <use x="290.576172" xlink:href="#DejaVuSans-30"/>
       <use x="354.199219" xlink:href="#DejaVuSans-35"/>
       <use x="417.822266" xlink:href="#DejaVuSans-2d"/>
       <use x="453.90625" xlink:href="#DejaVuSans-31"/>
       <use x="517.529297" xlink:href="#DejaVuSans-31"/>
      </g>
     </g>
    </g>
    <g id="xtick_43">
     <g id="line2d_70">
      <g>
       <use style="stroke:#000000;stroke-width:0.8;" x="669.955455" xlink:href="#m2a394d3990" y="572.51"/>
      </g>
     </g>
     <g id="text_38">
      <!-- 2020-05-18 -->
      <g transform="translate(672.71483 637.625625)rotate(-90)scale(0.1 -0.1)">
       <use xlink:href="#DejaVuSans-32"/>
       <use x="63.623047" xlink:href="#DejaVuSans-30"/>
       <use x="127.246094" xlink:href="#DejaVuSans-32"/>
       <use x="190.869141" xlink:href="#DejaVuSans-30"/>
       <use x="254.492188" xlink:href="#DejaVuSans-2d"/>
       <use x="290.576172" xlink:href="#DejaVuSans-30"/>
       <use x="354.199219" xlink:href="#DejaVuSans-35"/>
       <use x="417.822266" xlink:href="#DejaVuSans-2d"/>
       <use x="453.90625" xlink:href="#DejaVuSans-31"/>
       <use x="517.529297" xlink:href="#DejaVuSans-38"/>
      </g>
     </g>
    </g>
    <g id="xtick_44">
     <g id="line2d_71">
      <g>
       <use style="stroke:#000000;stroke-width:0.8;" x="705.596364" xlink:href="#m2a394d3990" y="572.51"/>
      </g>
     </g>
     <g id="text_39">
      <!-- 2020-05-26 -->
      <g transform="translate(708.355739 637.625625)rotate(-90)scale(0.1 -0.1)">
       <use xlink:href="#DejaVuSans-32"/>
       <use x="63.623047" xlink:href="#DejaVuSans-30"/>
       <use x="127.246094" xlink:href="#DejaVuSans-32"/>
       <use x="190.869141" xlink:href="#DejaVuSans-30"/>
       <use x="254.492188" xlink:href="#DejaVuSans-2d"/>
       <use x="290.576172" xlink:href="#DejaVuSans-30"/>
       <use x="354.199219" xlink:href="#DejaVuSans-35"/>
       <use x="417.822266" xlink:href="#DejaVuSans-2d"/>
       <use x="453.90625" xlink:href="#DejaVuSans-32"/>
       <use x="517.529297" xlink:href="#DejaVuSans-36"/>
      </g>
     </g>
    </g>
    <g id="xtick_45">
     <g id="line2d_72">
      <g>
       <use style="stroke:#000000;stroke-width:0.8;" x="741.237273" xlink:href="#m2a394d3990" y="572.51"/>
      </g>
     </g>
     <g id="text_40">
      <!-- 2020-06-03 -->
      <g transform="translate(743.996648 637.625625)rotate(-90)scale(0.1 -0.1)">
       <use xlink:href="#DejaVuSans-32"/>
       <use x="63.623047" xlink:href="#DejaVuSans-30"/>
       <use x="127.246094" xlink:href="#DejaVuSans-32"/>
       <use x="190.869141" xlink:href="#DejaVuSans-30"/>
       <use x="254.492188" xlink:href="#DejaVuSans-2d"/>
       <use x="290.576172" xlink:href="#DejaVuSans-30"/>
       <use x="354.199219" xlink:href="#DejaVuSans-36"/>
       <use x="417.822266" xlink:href="#DejaVuSans-2d"/>
       <use x="453.90625" xlink:href="#DejaVuSans-30"/>
       <use x="517.529297" xlink:href="#DejaVuSans-33"/>
      </g>
     </g>
    </g>
    <g id="xtick_46">
     <g id="line2d_73">
      <g>
       <use style="stroke:#000000;stroke-width:0.8;" x="776.878182" xlink:href="#m2a394d3990" y="572.51"/>
      </g>
     </g>
     <g id="text_41">
      <!-- 2020-06-10 -->
      <g transform="translate(779.637557 637.625625)rotate(-90)scale(0.1 -0.1)">
       <use xlink:href="#DejaVuSans-32"/>
       <use x="63.623047" xlink:href="#DejaVuSans-30"/>
       <use x="127.246094" xlink:href="#DejaVuSans-32"/>
       <use x="190.869141" xlink:href="#DejaVuSans-30"/>
       <use x="254.492188" xlink:href="#DejaVuSans-2d"/>
       <use x="290.576172" xlink:href="#DejaVuSans-30"/>
       <use x="354.199219" xlink:href="#DejaVuSans-36"/>
       <use x="417.822266" xlink:href="#DejaVuSans-2d"/>
       <use x="453.90625" xlink:href="#DejaVuSans-31"/>
       <use x="517.529297" xlink:href="#DejaVuSans-30"/>
      </g>
     </g>
    </g>
    <g id="xtick_47">
     <g id="line2d_74">
      <g>
       <use style="stroke:#000000;stroke-width:0.8;" x="812.519091" xlink:href="#m2a394d3990" y="572.51"/>
      </g>
     </g>
     <g id="text_42">
      <!-- 2020-06-18 -->
      <g transform="translate(815.278466 637.625625)rotate(-90)scale(0.1 -0.1)">
       <use xlink:href="#DejaVuSans-32"/>
       <use x="63.623047" xlink:href="#DejaVuSans-30"/>
       <use x="127.246094" xlink:href="#DejaVuSans-32"/>
       <use x="190.869141" xlink:href="#DejaVuSans-30"/>
       <use x="254.492188" xlink:href="#DejaVuSans-2d"/>
       <use x="290.576172" xlink:href="#DejaVuSans-30"/>
       <use x="354.199219" xlink:href="#DejaVuSans-36"/>
       <use x="417.822266" xlink:href="#DejaVuSans-2d"/>
       <use x="453.90625" xlink:href="#DejaVuSans-31"/>
       <use x="517.529297" xlink:href="#DejaVuSans-38"/>
      </g>
     </g>
    </g>
    <g id="xtick_48">
     <g id="line2d_75">
      <g>
       <use style="stroke:#000000;stroke-width:0.8;" x="848.16" xlink:href="#m2a394d3990" y="572.51"/>
      </g>
     </g>
     <g id="text_43">
      <!-- 2020-06-26 -->
      <g transform="translate(850.919375 637.625625)rotate(-90)scale(0.1 -0.1)">
       <use xlink:href="#DejaVuSans-32"/>
       <use x="63.623047" xlink:href="#DejaVuSans-30"/>
       <use x="127.246094" xlink:href="#DejaVuSans-32"/>
       <use x="190.869141" xlink:href="#DejaVuSans-30"/>
       <use x="254.492188" xlink:href="#DejaVuSans-2d"/>
       <use x="290.576172" xlink:href="#DejaVuSans-30"/>
       <use x="354.199219" xlink:href="#DejaVuSans-36"/>
       <use x="417.822266" xlink:href="#DejaVuSans-2d"/>
       <use x="453.90625" xlink:href="#DejaVuSans-32"/>
       <use x="517.529297" xlink:href="#DejaVuSans-36"/>
      </g>
     </g>
    </g>
   </g>
   <g id="matplotlib.axis_8">
    <g id="ytick_25">
     <g id="line2d_76">
      <g>
       <use style="stroke:#000000;stroke-width:0.8;" x="456.11" xlink:href="#m6cf486a395" y="572.51"/>
      </g>
     </g>
    </g>
    <g id="ytick_26">
     <g id="line2d_77">
      <g>
       <use style="stroke:#000000;stroke-width:0.8;" x="456.11" xlink:href="#m6cf486a395" y="538.86157"/>
      </g>
     </g>
    </g>
    <g id="ytick_27">
     <g id="line2d_78">
      <g>
       <use style="stroke:#000000;stroke-width:0.8;" x="456.11" xlink:href="#m6cf486a395" y="505.213139"/>
      </g>
     </g>
    </g>
    <g id="ytick_28">
     <g id="line2d_79">
      <g>
       <use style="stroke:#000000;stroke-width:0.8;" x="456.11" xlink:href="#m6cf486a395" y="471.564709"/>
      </g>
     </g>
    </g>
    <g id="ytick_29">
     <g id="line2d_80">
      <g>
       <use style="stroke:#000000;stroke-width:0.8;" x="456.11" xlink:href="#m6cf486a395" y="437.916278"/>
      </g>
     </g>
    </g>
    <g id="ytick_30">
     <g id="line2d_81">
      <g>
       <use style="stroke:#000000;stroke-width:0.8;" x="456.11" xlink:href="#m6cf486a395" y="404.267848"/>
      </g>
     </g>
    </g>
    <g id="ytick_31">
     <g id="line2d_82">
      <g>
       <use style="stroke:#000000;stroke-width:0.8;" x="456.11" xlink:href="#m6cf486a395" y="370.619417"/>
      </g>
     </g>
    </g>
    <g id="ytick_32">
     <g id="line2d_83">
      <g>
       <use style="stroke:#000000;stroke-width:0.8;" x="456.11" xlink:href="#m6cf486a395" y="336.970987"/>
      </g>
     </g>
    </g>
   </g>
   <g id="line2d_84">
    <path clip-path="url(#p67123e45e8)" d="M 456.11 561.740664 
L 460.777262 559.116554 
L 465.444524 558.31868 
L 470.111786 560.252613 
L 474.779048 561.066333 
L 479.44631 556.053637 
L 484.113571 554.243925 
L 488.780833 554.416398 
L 493.448095 552.992058 
L 498.115357 554.713947 
L 502.782619 560.475035 
L 507.449881 560.269413 
L 512.117143 551.887305 
L 516.784405 554.711193 
L 521.451667 552.398306 
L 526.118929 549.370813 
L 530.78619 555.093712 
L 535.453452 563.949692 
L 540.120714 548.499405 
L 544.787976 546.865877 
L 549.455238 551.699063 
L 554.1225 538.493647 
L 558.789762 539.258544 
L 563.457024 555.986718 
L 568.124286 560.602906 
L 572.791548 557.047166 
L 577.45881 556.605945 
L 582.126071 547.222586 
L 586.793333 552.42855 
L 591.460595 556.388713 
L 596.127857 545.254097 
L 600.795119 561.339765 
L 605.462381 562.955196 
L 610.129643 545.493538 
L 614.796905 549.560592 
L 619.464167 546.06078 
L 624.131429 548.794913 
L 628.79869 553.027561 
L 633.465952 558.180457 
L 638.133214 560.90072 
L 642.800476 549.424773 
L 647.467738 546.297607 
L 652.135 548.658075 
L 656.802262 553.253811 
L 661.469524 538.597197 
L 666.136786 560.747294 
L 670.804048 561.060657 
L 675.47131 550.339025 
L 680.138571 547.869331 
L 683.836663 649 
M 685.315599 649 
L 689.473095 432.844454 
L 694.140357 553.200592 
L 698.807619 559.92362 
L 703.474881 566.825647 
L 708.142143 565.373212 
L 712.809405 551.203134 
L 717.476667 554.832604 
L 722.143929 545.148359 
L 726.81119 555.610112 
L 731.478452 559.92737 
L 736.145714 563.453654 
L 740.812976 560.803797 
L 745.480238 550.392811 
L 750.1475 558.329847 
L 754.814762 556.338283 
L 759.482024 558.481562 
L 764.149286 559.279885 
L 768.816548 563.299175 
L 773.48381 559.170903 
L 778.151071 554.120819 
L 782.818333 549.27606 
L 787.485595 554.235982 
L 792.152857 560.343281 
L 796.820119 565.654197 
L 801.487381 557.498776 
L 806.154643 562.160194 
L 810.821905 555.841014 
L 815.489167 554.826445 
L 820.156429 562.497894 
L 824.82369 546.480687 
L 829.490952 568.916666 
L 834.158214 569.670698 
L 838.825476 549.083283 
L 843.492738 561.540815 
L 848.16 542.97263 
" style="fill:none;stroke:#d62728;stroke-linecap:square;stroke-width:1.5;"/>
   </g>
   <g id="patch_18">
    <path d="M 456.11 572.51 
L 456.11 314.755 
" style="fill:none;stroke:#000000;stroke-linecap:square;stroke-linejoin:miter;stroke-width:0.8;"/>
   </g>
   <g id="patch_19">
    <path d="M 848.16 572.51 
L 848.16 314.755 
" style="fill:none;stroke:#000000;stroke-linecap:square;stroke-linejoin:miter;stroke-width:0.8;"/>
   </g>
   <g id="patch_20">
    <path d="M 456.11 572.51 
L 848.16 572.51 
" style="fill:none;stroke:#000000;stroke-linecap:square;stroke-linejoin:miter;stroke-width:0.8;"/>
   </g>
   <g id="patch_21">
    <path d="M 456.11 314.755 
L 848.16 314.755 
" style="fill:none;stroke:#000000;stroke-linecap:square;stroke-linejoin:miter;stroke-width:0.8;"/>
   </g>
   <g id="text_44">
    <!-- West -->
    <defs>
     <path d="M 3.328125 72.90625 
L 13.28125 72.90625 
L 28.609375 11.28125 
L 43.890625 72.90625 
L 54.984375 72.90625 
L 70.3125 11.28125 
L 85.59375 72.90625 
L 95.609375 72.90625 
L 77.296875 0 
L 64.890625 0 
L 49.515625 63.28125 
L 33.984375 0 
L 21.578125 0 
z
" id="DejaVuSans-57"/>
    </defs>
    <g transform="translate(637.0375 308.755)scale(0.12 -0.12)">
     <use xlink:href="#DejaVuSans-57"/>
     <use x="98.798828" xlink:href="#DejaVuSans-65"/>
     <use x="160.322266" xlink:href="#DejaVuSans-73"/>
     <use x="212.421875" xlink:href="#DejaVuSans-74"/>
    </g>
   </g>
  </g>
 </g>
 <defs>
  <clipPath id="p2aa5217285">
   <rect height="257.755" width="392.05" x="43.18" y="25.44"/>
  </clipPath>
  <clipPath id="pd1c2a65c16">
   <rect height="257.755" width="392.05" x="456.11" y="25.44"/>
  </clipPath>
  <clipPath id="pb7b179929f">
   <rect height="257.755" width="392.05" x="43.18" y="314.755"/>
  </clipPath>
  <clipPath id="p67123e45e8">
   <rect height="257.755" width="392.05" x="456.11" y="314.755"/>
  </clipPath>
 </defs>
</svg>
