<?xml version="1.0" encoding="utf-8" standalone="no"?>
<!DOCTYPE svg PUBLIC "-//W3C//DTD SVG 1.1//EN"
  "http://www.w3.org/Graphics/SVG/1.1/DTD/svg11.dtd">
<!-- Created with matplotlib (https://matplotlib.org/) -->
<svg height="648pt" version="1.1" viewBox="0 0 864 648" width="864pt" xmlns="http://www.w3.org/2000/svg" xmlns:xlink="http://www.w3.org/1999/xlink">
 <defs>
  <style type="text/css">
*{stroke-linecap:butt;stroke-linejoin:round;}
  </style>
 </defs>
 <g id="figure_1">
  <g id="patch_1">
   <path d="M 0 648 
L 864 648 
L 864 0 
L 0 0 
z
" style="fill:#ffffff;"/>
  </g>
  <g id="axes_1">
   <g id="patch_2">
    <path d="M 43.36 282.97 
L 435.32 282.97 
L 435.32 25.44 
L 43.36 25.44 
z
" style="fill:#ffffff;"/>
   </g>
   <g id="PolyCollection_1">
    <defs>
     <path d="M 43.36 -402.586144 
L 43.36 -365.03 
L 49.785574 -365.03 
L 56.211148 -365.03 
L 62.636721 -365.03 
L 69.062295 -365.03 
L 75.487869 -365.03 
L 81.913443 -365.03 
L 88.339016 -365.03 
L 94.76459 -365.03 
L 101.190164 -365.03 
L 107.615738 -365.03 
L 114.041311 -365.03 
L 120.466885 -365.03 
L 126.892459 -365.03 
L 133.318033 -365.03 
L 139.743607 -365.03 
L 146.16918 -365.03 
L 152.594754 -365.03 
L 159.020328 -365.03 
L 165.445902 -365.03 
L 171.871475 -365.03 
L 178.297049 -365.03 
L 184.722623 -365.03 
L 191.148197 -365.03 
L 197.57377 -365.03 
L 203.999344 -365.03 
L 210.424918 -365.03 
L 216.850492 -365.03 
L 223.276066 -365.03 
L 229.701639 -365.03 
L 236.127213 -365.03 
L 242.552787 -365.03 
L 248.978361 -365.03 
L 255.403934 -365.03 
L 261.829508 -365.03 
L 268.255082 -365.03 
L 274.680656 -365.03 
L 281.10623 -365.03 
L 287.531803 -365.03 
L 293.957377 -365.03 
L 300.382951 -365.03 
L 306.808525 -365.03 
L 313.234098 -365.03 
L 319.659672 -365.03 
L 326.085246 -365.03 
L 332.51082 -365.03 
L 338.936393 -365.03 
L 345.361967 -365.03 
L 351.787541 -365.03 
L 358.213115 -365.03 
L 364.638689 -365.03 
L 371.064262 -365.03 
L 377.489836 -365.03 
L 383.91541 -365.03 
L 390.340984 -365.03 
L 396.766557 -365.03 
L 403.192131 -365.03 
L 409.617705 -365.03 
L 416.043279 -365.03 
L 422.468852 -365.03 
L 428.894426 -365.03 
L 435.32 -365.03 
L 435.32 -377.479742 
L 435.32 -377.479742 
L 428.894426 -380.231202 
L 422.468852 -372.979684 
L 416.043279 -515.363458 
L 409.617705 -373.817349 
L 403.192131 -376.674008 
L 396.766557 -375.200884 
L 390.340984 -375.430992 
L 383.91541 -377.595616 
L 377.489836 -372.382544 
L 371.064262 -369.761652 
L 364.638689 -380.327681 
L 358.213115 -382.569754 
L 351.787541 -384.510871 
L 345.361967 -381.853856 
L 338.936393 -381.116084 
L 332.51082 -373.282252 
L 326.085246 -373.205909 
L 319.659672 -378.286238 
L 313.234098 -397.553145 
L 306.808525 -390.971184 
L 300.382951 -402.575195 
L 293.957377 -389.219499 
L 287.531803 -383.772828 
L 281.10623 -386.946708 
L 274.680656 -392.002155 
L 268.255082 -425.23915 
L 261.829508 -414.831001 
L 255.403934 -398.652161 
L 248.978361 -402.079208 
L 242.552787 -393.931509 
L 236.127213 -391.265831 
L 229.701639 -401.298948 
L 223.276066 -418.356277 
L 216.850492 -399.768562 
L 210.424918 -422.142296 
L 203.999344 -397.277444 
L 197.57377 -382.301787 
L 191.148197 -385.699329 
L 184.722623 -401.744686 
L 178.297049 -417.012776 
L 171.871475 -412.317513 
L 165.445902 -425.172318 
L 159.020328 -428.016082 
L 152.594754 -403.939011 
L 146.16918 -384.386472 
L 139.743607 -402.922877 
L 133.318033 -416.529548 
L 126.892459 -419.80132 
L 120.466885 -420.225778 
L 114.041311 -443.446749 
L 107.615738 -422.128111 
L 101.190164 -388.991642 
L 94.76459 -398.775819 
L 88.339016 -411.957317 
L 81.913443 -429.873982 
L 75.487869 -427.281156 
L 69.062295 -435.249832 
L 62.636721 -409.116632 
L 56.211148 -387.783703 
L 49.785574 -421.845454 
L 43.36 -402.586144 
z
" id="mcae48e6f17" style="stroke:#1f77b4;"/>
    </defs>
    <g clip-path="url(#p20cc1c6f62)">
     <use style="fill:#1f77b4;stroke:#1f77b4;" x="0" xlink:href="#mcae48e6f17" y="648"/>
    </g>
   </g>
   <g id="matplotlib.axis_1">
    <g id="xtick_1">
     <g id="line2d_1">
      <defs>
       <path d="M 0 0 
L 0 3.5 
" id="m112cee915f" style="stroke:#000000;stroke-width:0.8;"/>
      </defs>
      <g>
       <use style="stroke:#000000;stroke-width:0.8;" x="43.36" xlink:href="#m112cee915f" y="282.97"/>
      </g>
     </g>
    </g>
    <g id="xtick_2">
     <g id="line2d_2">
      <g>
       <use style="stroke:#000000;stroke-width:0.8;" x="78.992727" xlink:href="#m112cee915f" y="282.97"/>
      </g>
     </g>
    </g>
    <g id="xtick_3">
     <g id="line2d_3">
      <g>
       <use style="stroke:#000000;stroke-width:0.8;" x="114.625455" xlink:href="#m112cee915f" y="282.97"/>
      </g>
     </g>
    </g>
    <g id="xtick_4">
     <g id="line2d_4">
      <g>
       <use style="stroke:#000000;stroke-width:0.8;" x="150.258182" xlink:href="#m112cee915f" y="282.97"/>
      </g>
     </g>
    </g>
    <g id="xtick_5">
     <g id="line2d_5">
      <g>
       <use style="stroke:#000000;stroke-width:0.8;" x="185.890909" xlink:href="#m112cee915f" y="282.97"/>
      </g>
     </g>
    </g>
    <g id="xtick_6">
     <g id="line2d_6">
      <g>
       <use style="stroke:#000000;stroke-width:0.8;" x="221.523636" xlink:href="#m112cee915f" y="282.97"/>
      </g>
     </g>
    </g>
    <g id="xtick_7">
     <g id="line2d_7">
      <g>
       <use style="stroke:#000000;stroke-width:0.8;" x="257.156364" xlink:href="#m112cee915f" y="282.97"/>
      </g>
     </g>
    </g>
    <g id="xtick_8">
     <g id="line2d_8">
      <g>
       <use style="stroke:#000000;stroke-width:0.8;" x="292.789091" xlink:href="#m112cee915f" y="282.97"/>
      </g>
     </g>
    </g>
    <g id="xtick_9">
     <g id="line2d_9">
      <g>
       <use style="stroke:#000000;stroke-width:0.8;" x="328.421818" xlink:href="#m112cee915f" y="282.97"/>
      </g>
     </g>
    </g>
    <g id="xtick_10">
     <g id="line2d_10">
      <g>
       <use style="stroke:#000000;stroke-width:0.8;" x="364.054545" xlink:href="#m112cee915f" y="282.97"/>
      </g>
     </g>
    </g>
    <g id="xtick_11">
     <g id="line2d_11">
      <g>
       <use style="stroke:#000000;stroke-width:0.8;" x="399.687273" xlink:href="#m112cee915f" y="282.97"/>
      </g>
     </g>
    </g>
    <g id="xtick_12">
     <g id="line2d_12">
      <g>
       <use style="stroke:#000000;stroke-width:0.8;" x="435.32" xlink:href="#m112cee915f" y="282.97"/>
      </g>
     </g>
    </g>
   </g>
   <g id="matplotlib.axis_2">
    <g id="ytick_1">
     <g id="line2d_13">
      <defs>
       <path d="M 0 0 
L -3.5 0 
" id="m1bc1e20dde" style="stroke:#000000;stroke-width:0.8;"/>
      </defs>
      <g>
       <use style="stroke:#000000;stroke-width:0.8;" x="43.36" xlink:href="#m1bc1e20dde" y="282.97"/>
      </g>
     </g>
     <g id="text_1">
      <!-- 0 -->
      <defs>
       <path d="M 31.78125 66.40625 
Q 24.171875 66.40625 20.328125 58.90625 
Q 16.5 51.421875 16.5 36.375 
Q 16.5 21.390625 20.328125 13.890625 
Q 24.171875 6.390625 31.78125 6.390625 
Q 39.453125 6.390625 43.28125 13.890625 
Q 47.125 21.390625 47.125 36.375 
Q 47.125 51.421875 43.28125 58.90625 
Q 39.453125 66.40625 31.78125 66.40625 
z
M 31.78125 74.21875 
Q 44.046875 74.21875 50.515625 64.515625 
Q 56.984375 54.828125 56.984375 36.375 
Q 56.984375 17.96875 50.515625 8.265625 
Q 44.046875 -1.421875 31.78125 -1.421875 
Q 19.53125 -1.421875 13.0625 8.265625 
Q 6.59375 17.96875 6.59375 36.375 
Q 6.59375 54.828125 13.0625 64.515625 
Q 19.53125 74.21875 31.78125 74.21875 
z
" id="DejaVuSans-48"/>
      </defs>
      <g transform="translate(29.9975 286.769219)scale(0.1 -0.1)">
       <use xlink:href="#DejaVuSans-48"/>
      </g>
     </g>
    </g>
    <g id="ytick_2">
     <g id="line2d_14">
      <g>
       <use style="stroke:#000000;stroke-width:0.8;" x="43.36" xlink:href="#m1bc1e20dde" y="251.35893"/>
      </g>
     </g>
     <g id="text_2">
      <!-- 200 -->
      <defs>
       <path d="M 19.1875 8.296875 
L 53.609375 8.296875 
L 53.609375 0 
L 7.328125 0 
L 7.328125 8.296875 
Q 12.9375 14.109375 22.625 23.890625 
Q 32.328125 33.6875 34.8125 36.53125 
Q 39.546875 41.84375 41.421875 45.53125 
Q 43.3125 49.21875 43.3125 52.78125 
Q 43.3125 58.59375 39.234375 62.25 
Q 35.15625 65.921875 28.609375 65.921875 
Q 23.96875 65.921875 18.8125 64.3125 
Q 13.671875 62.703125 7.8125 59.421875 
L 7.8125 69.390625 
Q 13.765625 71.78125 18.9375 73 
Q 24.125 74.21875 28.421875 74.21875 
Q 39.75 74.21875 46.484375 68.546875 
Q 53.21875 62.890625 53.21875 53.421875 
Q 53.21875 48.921875 51.53125 44.890625 
Q 49.859375 40.875 45.40625 35.40625 
Q 44.1875 33.984375 37.640625 27.21875 
Q 31.109375 20.453125 19.1875 8.296875 
z
" id="DejaVuSans-50"/>
      </defs>
      <g transform="translate(17.2725 255.158149)scale(0.1 -0.1)">
       <use xlink:href="#DejaVuSans-50"/>
       <use x="63.623047" xlink:href="#DejaVuSans-48"/>
       <use x="127.246094" xlink:href="#DejaVuSans-48"/>
      </g>
     </g>
    </g>
    <g id="ytick_3">
     <g id="line2d_15">
      <g>
       <use style="stroke:#000000;stroke-width:0.8;" x="43.36" xlink:href="#m1bc1e20dde" y="219.74786"/>
      </g>
     </g>
     <g id="text_3">
      <!-- 400 -->
      <defs>
       <path d="M 37.796875 64.3125 
L 12.890625 25.390625 
L 37.796875 25.390625 
z
M 35.203125 72.90625 
L 47.609375 72.90625 
L 47.609375 25.390625 
L 58.015625 25.390625 
L 58.015625 17.1875 
L 47.609375 17.1875 
L 47.609375 0 
L 37.796875 0 
L 37.796875 17.1875 
L 4.890625 17.1875 
L 4.890625 26.703125 
z
" id="DejaVuSans-52"/>
      </defs>
      <g transform="translate(17.2725 223.547079)scale(0.1 -0.1)">
       <use xlink:href="#DejaVuSans-52"/>
       <use x="63.623047" xlink:href="#DejaVuSans-48"/>
       <use x="127.246094" xlink:href="#DejaVuSans-48"/>
      </g>
     </g>
    </g>
    <g id="ytick_4">
     <g id="line2d_16">
      <g>
       <use style="stroke:#000000;stroke-width:0.8;" x="43.36" xlink:href="#m1bc1e20dde" y="188.13679"/>
      </g>
     </g>
     <g id="text_4">
      <!-- 600 -->
      <defs>
       <path d="M 33.015625 40.375 
Q 26.375 40.375 22.484375 35.828125 
Q 18.609375 31.296875 18.609375 23.390625 
Q 18.609375 15.53125 22.484375 10.953125 
Q 26.375 6.390625 33.015625 6.390625 
Q 39.65625 6.390625 43.53125 10.953125 
Q 47.40625 15.53125 47.40625 23.390625 
Q 47.40625 31.296875 43.53125 35.828125 
Q 39.65625 40.375 33.015625 40.375 
z
M 52.59375 71.296875 
L 52.59375 62.3125 
Q 48.875 64.0625 45.09375 64.984375 
Q 41.3125 65.921875 37.59375 65.921875 
Q 27.828125 65.921875 22.671875 59.328125 
Q 17.53125 52.734375 16.796875 39.40625 
Q 19.671875 43.65625 24.015625 45.921875 
Q 28.375 48.1875 33.59375 48.1875 
Q 44.578125 48.1875 50.953125 41.515625 
Q 57.328125 34.859375 57.328125 23.390625 
Q 57.328125 12.15625 50.6875 5.359375 
Q 44.046875 -1.421875 33.015625 -1.421875 
Q 20.359375 -1.421875 13.671875 8.265625 
Q 6.984375 17.96875 6.984375 36.375 
Q 6.984375 53.65625 15.1875 63.9375 
Q 23.390625 74.21875 37.203125 74.21875 
Q 40.921875 74.21875 44.703125 73.484375 
Q 48.484375 72.75 52.59375 71.296875 
z
" id="DejaVuSans-54"/>
      </defs>
      <g transform="translate(17.2725 191.936009)scale(0.1 -0.1)">
       <use xlink:href="#DejaVuSans-54"/>
       <use x="63.623047" xlink:href="#DejaVuSans-48"/>
       <use x="127.246094" xlink:href="#DejaVuSans-48"/>
      </g>
     </g>
    </g>
    <g id="ytick_5">
     <g id="line2d_17">
      <g>
       <use style="stroke:#000000;stroke-width:0.8;" x="43.36" xlink:href="#m1bc1e20dde" y="156.525721"/>
      </g>
     </g>
     <g id="text_5">
      <!-- 800 -->
      <defs>
       <path d="M 31.78125 34.625 
Q 24.75 34.625 20.71875 30.859375 
Q 16.703125 27.09375 16.703125 20.515625 
Q 16.703125 13.921875 20.71875 10.15625 
Q 24.75 6.390625 31.78125 6.390625 
Q 38.8125 6.390625 42.859375 10.171875 
Q 46.921875 13.96875 46.921875 20.515625 
Q 46.921875 27.09375 42.890625 30.859375 
Q 38.875 34.625 31.78125 34.625 
z
M 21.921875 38.8125 
Q 15.578125 40.375 12.03125 44.71875 
Q 8.5 49.078125 8.5 55.328125 
Q 8.5 64.0625 14.71875 69.140625 
Q 20.953125 74.21875 31.78125 74.21875 
Q 42.671875 74.21875 48.875 69.140625 
Q 55.078125 64.0625 55.078125 55.328125 
Q 55.078125 49.078125 51.53125 44.71875 
Q 48 40.375 41.703125 38.8125 
Q 48.828125 37.15625 52.796875 32.3125 
Q 56.78125 27.484375 56.78125 20.515625 
Q 56.78125 9.90625 50.3125 4.234375 
Q 43.84375 -1.421875 31.78125 -1.421875 
Q 19.734375 -1.421875 13.25 4.234375 
Q 6.78125 9.90625 6.78125 20.515625 
Q 6.78125 27.484375 10.78125 32.3125 
Q 14.796875 37.15625 21.921875 38.8125 
z
M 18.3125 54.390625 
Q 18.3125 48.734375 21.84375 45.5625 
Q 25.390625 42.390625 31.78125 42.390625 
Q 38.140625 42.390625 41.71875 45.5625 
Q 45.3125 48.734375 45.3125 54.390625 
Q 45.3125 60.0625 41.71875 63.234375 
Q 38.140625 66.40625 31.78125 66.40625 
Q 25.390625 66.40625 21.84375 63.234375 
Q 18.3125 60.0625 18.3125 54.390625 
z
" id="DejaVuSans-56"/>
      </defs>
      <g transform="translate(17.2725 160.324939)scale(0.1 -0.1)">
       <use xlink:href="#DejaVuSans-56"/>
       <use x="63.623047" xlink:href="#DejaVuSans-48"/>
       <use x="127.246094" xlink:href="#DejaVuSans-48"/>
      </g>
     </g>
    </g>
    <g id="ytick_6">
     <g id="line2d_18">
      <g>
       <use style="stroke:#000000;stroke-width:0.8;" x="43.36" xlink:href="#m1bc1e20dde" y="124.914651"/>
      </g>
     </g>
     <g id="text_6">
      <!-- 1000 -->
      <defs>
       <path d="M 12.40625 8.296875 
L 28.515625 8.296875 
L 28.515625 63.921875 
L 10.984375 60.40625 
L 10.984375 69.390625 
L 28.421875 72.90625 
L 38.28125 72.90625 
L 38.28125 8.296875 
L 54.390625 8.296875 
L 54.390625 0 
L 12.40625 0 
z
" id="DejaVuSans-49"/>
      </defs>
      <g transform="translate(10.91 128.713869)scale(0.1 -0.1)">
       <use xlink:href="#DejaVuSans-49"/>
       <use x="63.623047" xlink:href="#DejaVuSans-48"/>
       <use x="127.246094" xlink:href="#DejaVuSans-48"/>
       <use x="190.869141" xlink:href="#DejaVuSans-48"/>
      </g>
     </g>
    </g>
    <g id="ytick_7">
     <g id="line2d_19">
      <g>
       <use style="stroke:#000000;stroke-width:0.8;" x="43.36" xlink:href="#m1bc1e20dde" y="93.303581"/>
      </g>
     </g>
     <g id="text_7">
      <!-- 1200 -->
      <g transform="translate(10.91 97.1028)scale(0.1 -0.1)">
       <use xlink:href="#DejaVuSans-49"/>
       <use x="63.623047" xlink:href="#DejaVuSans-50"/>
       <use x="127.246094" xlink:href="#DejaVuSans-48"/>
       <use x="190.869141" xlink:href="#DejaVuSans-48"/>
      </g>
     </g>
    </g>
    <g id="ytick_8">
     <g id="line2d_20">
      <g>
       <use style="stroke:#000000;stroke-width:0.8;" x="43.36" xlink:href="#m1bc1e20dde" y="61.692511"/>
      </g>
     </g>
     <g id="text_8">
      <!-- 1400 -->
      <g transform="translate(10.91 65.49173)scale(0.1 -0.1)">
       <use xlink:href="#DejaVuSans-49"/>
       <use x="63.623047" xlink:href="#DejaVuSans-52"/>
       <use x="127.246094" xlink:href="#DejaVuSans-48"/>
       <use x="190.869141" xlink:href="#DejaVuSans-48"/>
      </g>
     </g>
    </g>
    <g id="ytick_9">
     <g id="line2d_21">
      <g>
       <use style="stroke:#000000;stroke-width:0.8;" x="43.36" xlink:href="#m1bc1e20dde" y="30.081441"/>
      </g>
     </g>
     <g id="text_9">
      <!-- 1600 -->
      <g transform="translate(10.91 33.88066)scale(0.1 -0.1)">
       <use xlink:href="#DejaVuSans-49"/>
       <use x="63.623047" xlink:href="#DejaVuSans-54"/>
       <use x="127.246094" xlink:href="#DejaVuSans-48"/>
       <use x="190.869141" xlink:href="#DejaVuSans-48"/>
      </g>
     </g>
    </g>
   </g>
   <g id="line2d_22">
    <path clip-path="url(#p20cc1c6f62)" d="M 43.36 245.413856 
L 49.785574 226.154546 
L 56.211148 260.216297 
L 62.636721 238.883368 
L 69.062295 212.750168 
L 75.487869 220.718844 
L 81.913443 218.126018 
L 88.339016 236.042683 
L 94.76459 249.224181 
L 101.190164 259.008358 
L 107.615738 225.871889 
L 114.041311 204.553251 
L 120.466885 227.774222 
L 126.892459 228.19868 
L 133.318033 231.470452 
L 139.743607 245.077123 
L 146.16918 263.613528 
L 152.594754 244.060989 
L 159.020328 219.983918 
L 165.445902 222.827682 
L 171.871475 235.682487 
L 178.297049 230.987224 
L 184.722623 246.255314 
L 191.148197 262.300671 
L 197.57377 265.698213 
L 203.999344 250.722556 
L 210.424918 225.857704 
L 216.850492 248.231438 
L 223.276066 229.643723 
L 229.701639 246.701052 
L 236.127213 256.734169 
L 242.552787 254.068491 
L 248.978361 245.920792 
L 255.403934 249.347839 
L 261.829508 233.168999 
L 268.255082 222.76085 
L 274.680656 255.997845 
L 281.10623 261.053292 
L 287.531803 264.227172 
L 293.957377 258.780501 
L 300.382951 245.424805 
L 306.808525 257.028816 
L 313.234098 250.446855 
L 319.659672 269.713762 
L 326.085246 274.794091 
L 332.51082 274.717748 
L 338.936393 266.883916 
L 345.361967 266.146144 
L 351.787541 263.489129 
L 358.213115 265.430246 
L 364.638689 267.672319 
L 371.064262 278.238348 
L 377.489836 275.617456 
L 383.91541 270.404384 
L 390.340984 272.569008 
L 396.766557 272.799116 
L 403.192131 271.325992 
L 409.617705 274.182651 
L 416.043279 132.636542 
L 422.468852 275.020316 
L 428.894426 267.768798 
L 435.32 270.520258 
" style="fill:none;stroke:#1f77b4;stroke-linecap:square;stroke-width:1.5;"/>
   </g>
   <g id="patch_3">
    <path d="M 43.36 282.97 
L 43.36 25.44 
" style="fill:none;stroke:#000000;stroke-linecap:square;stroke-linejoin:miter;stroke-width:0.8;"/>
   </g>
   <g id="patch_4">
    <path d="M 435.32 282.97 
L 435.32 25.44 
" style="fill:none;stroke:#000000;stroke-linecap:square;stroke-linejoin:miter;stroke-width:0.8;"/>
   </g>
   <g id="patch_5">
    <path d="M 43.36 282.97 
L 435.32 282.97 
" style="fill:none;stroke:#000000;stroke-linecap:square;stroke-linejoin:miter;stroke-width:0.8;"/>
   </g>
   <g id="patch_6">
    <path d="M 43.36 25.44 
L 435.32 25.44 
" style="fill:none;stroke:#000000;stroke-linecap:square;stroke-linejoin:miter;stroke-width:0.8;"/>
   </g>
   <g id="text_10">
    <!-- Midwest -->
    <defs>
     <path d="M 9.8125 72.90625 
L 24.515625 72.90625 
L 43.109375 23.296875 
L 61.8125 72.90625 
L 76.515625 72.90625 
L 76.515625 0 
L 66.890625 0 
L 66.890625 64.015625 
L 48.09375 14.015625 
L 38.1875 14.015625 
L 19.390625 64.015625 
L 19.390625 0 
L 9.8125 0 
z
" id="DejaVuSans-77"/>
     <path d="M 9.421875 54.6875 
L 18.40625 54.6875 
L 18.40625 0 
L 9.421875 0 
z
M 9.421875 75.984375 
L 18.40625 75.984375 
L 18.40625 64.59375 
L 9.421875 64.59375 
z
" id="DejaVuSans-105"/>
     <path d="M 45.40625 46.390625 
L 45.40625 75.984375 
L 54.390625 75.984375 
L 54.390625 0 
L 45.40625 0 
L 45.40625 8.203125 
Q 42.578125 3.328125 38.25 0.953125 
Q 33.9375 -1.421875 27.875 -1.421875 
Q 17.96875 -1.421875 11.734375 6.484375 
Q 5.515625 14.40625 5.515625 27.296875 
Q 5.515625 40.1875 11.734375 48.09375 
Q 17.96875 56 27.875 56 
Q 33.9375 56 38.25 53.625 
Q 42.578125 51.265625 45.40625 46.390625 
z
M 14.796875 27.296875 
Q 14.796875 17.390625 18.875 11.75 
Q 22.953125 6.109375 30.078125 6.109375 
Q 37.203125 6.109375 41.296875 11.75 
Q 45.40625 17.390625 45.40625 27.296875 
Q 45.40625 37.203125 41.296875 42.84375 
Q 37.203125 48.484375 30.078125 48.484375 
Q 22.953125 48.484375 18.875 42.84375 
Q 14.796875 37.203125 14.796875 27.296875 
z
" id="DejaVuSans-100"/>
     <path d="M 4.203125 54.6875 
L 13.1875 54.6875 
L 24.421875 12.015625 
L 35.59375 54.6875 
L 46.1875 54.6875 
L 57.421875 12.015625 
L 68.609375 54.6875 
L 77.59375 54.6875 
L 63.28125 0 
L 52.6875 0 
L 40.921875 44.828125 
L 29.109375 0 
L 18.5 0 
z
" id="DejaVuSans-119"/>
     <path d="M 56.203125 29.59375 
L 56.203125 25.203125 
L 14.890625 25.203125 
Q 15.484375 15.921875 20.484375 11.0625 
Q 25.484375 6.203125 34.421875 6.203125 
Q 39.59375 6.203125 44.453125 7.46875 
Q 49.3125 8.734375 54.109375 11.28125 
L 54.109375 2.78125 
Q 49.265625 0.734375 44.1875 -0.34375 
Q 39.109375 -1.421875 33.890625 -1.421875 
Q 20.796875 -1.421875 13.15625 6.1875 
Q 5.515625 13.8125 5.515625 26.8125 
Q 5.515625 40.234375 12.765625 48.109375 
Q 20.015625 56 32.328125 56 
Q 43.359375 56 49.78125 48.890625 
Q 56.203125 41.796875 56.203125 29.59375 
z
M 47.21875 32.234375 
Q 47.125 39.59375 43.09375 43.984375 
Q 39.0625 48.390625 32.421875 48.390625 
Q 24.90625 48.390625 20.390625 44.140625 
Q 15.875 39.890625 15.1875 32.171875 
z
" id="DejaVuSans-101"/>
     <path d="M 44.28125 53.078125 
L 44.28125 44.578125 
Q 40.484375 46.53125 36.375 47.5 
Q 32.28125 48.484375 27.875 48.484375 
Q 21.1875 48.484375 17.84375 46.4375 
Q 14.5 44.390625 14.5 40.28125 
Q 14.5 37.15625 16.890625 35.375 
Q 19.28125 33.59375 26.515625 31.984375 
L 29.59375 31.296875 
Q 39.15625 29.25 43.1875 25.515625 
Q 47.21875 21.78125 47.21875 15.09375 
Q 47.21875 7.46875 41.1875 3.015625 
Q 35.15625 -1.421875 24.609375 -1.421875 
Q 20.21875 -1.421875 15.453125 -0.5625 
Q 10.6875 0.296875 5.421875 2 
L 5.421875 11.28125 
Q 10.40625 8.6875 15.234375 7.390625 
Q 20.0625 6.109375 24.8125 6.109375 
Q 31.15625 6.109375 34.5625 8.28125 
Q 37.984375 10.453125 37.984375 14.40625 
Q 37.984375 18.0625 35.515625 20.015625 
Q 33.0625 21.96875 24.703125 23.78125 
L 21.578125 24.515625 
Q 13.234375 26.265625 9.515625 29.90625 
Q 5.8125 33.546875 5.8125 39.890625 
Q 5.8125 47.609375 11.28125 51.796875 
Q 16.75 56 26.8125 56 
Q 31.78125 56 36.171875 55.265625 
Q 40.578125 54.546875 44.28125 53.078125 
z
" id="DejaVuSans-115"/>
     <path d="M 18.3125 70.21875 
L 18.3125 54.6875 
L 36.8125 54.6875 
L 36.8125 47.703125 
L 18.3125 47.703125 
L 18.3125 18.015625 
Q 18.3125 11.328125 20.140625 9.421875 
Q 21.96875 7.515625 27.59375 7.515625 
L 36.8125 7.515625 
L 36.8125 0 
L 27.59375 0 
Q 17.1875 0 13.234375 3.875 
Q 9.28125 7.765625 9.28125 18.015625 
L 9.28125 47.703125 
L 2.6875 47.703125 
L 2.6875 54.6875 
L 9.28125 54.6875 
L 9.28125 70.21875 
z
" id="DejaVuSans-116"/>
    </defs>
    <g transform="translate(214.610625 19.44)scale(0.12 -0.12)">
     <use xlink:href="#DejaVuSans-77"/>
     <use x="86.279297" xlink:href="#DejaVuSans-105"/>
     <use x="114.0625" xlink:href="#DejaVuSans-100"/>
     <use x="177.539062" xlink:href="#DejaVuSans-119"/>
     <use x="259.326172" xlink:href="#DejaVuSans-101"/>
     <use x="320.849609" xlink:href="#DejaVuSans-115"/>
     <use x="372.949219" xlink:href="#DejaVuSans-116"/>
    </g>
   </g>
  </g>
  <g id="axes_2">
   <g id="patch_7">
    <path d="M 456.2 282.97 
L 848.16 282.97 
L 848.16 25.44 
L 456.2 25.44 
z
" style="fill:#ffffff;"/>
   </g>
   <g id="PolyCollection_2">
    <defs>
     <path d="M 456.2 -582.193444 
L 456.2 -365.03 
L 462.625574 -365.03 
L 469.051148 -365.03 
L 475.476721 -365.03 
L 481.902295 -365.03 
L 488.327869 -365.03 
L 494.753443 -365.03 
L 501.179016 -365.03 
L 507.60459 -365.03 
L 514.030164 -365.03 
L 520.455738 -365.03 
L 526.881311 -365.03 
L 533.306885 -365.03 
L 539.732459 -365.03 
L 546.158033 -365.03 
L 552.583607 -365.03 
L 559.00918 -365.03 
L 565.434754 -365.03 
L 571.860328 -365.03 
L 578.285902 -365.03 
L 584.711475 -365.03 
L 591.137049 -365.03 
L 597.562623 -365.03 
L 603.988197 -365.03 
L 610.41377 -365.03 
L 616.839344 -365.03 
L 623.264918 -365.03 
L 629.690492 -365.03 
L 636.116066 -365.03 
L 642.541639 -365.03 
L 648.967213 -365.03 
L 655.392787 -365.03 
L 661.818361 -365.03 
L 668.243934 -365.03 
L 674.669508 -365.03 
L 681.095082 -365.03 
L 687.520656 -365.03 
L 693.94623 -365.03 
L 700.371803 -365.03 
L 706.797377 -365.03 
L 713.222951 -365.03 
L 719.648525 -365.03 
L 726.074098 -365.03 
L 732.499672 -365.03 
L 738.925246 -365.03 
L 745.35082 -365.03 
L 751.776393 -365.03 
L 758.201967 -365.03 
L 764.627541 -365.03 
L 771.053115 -365.03 
L 777.478689 -365.03 
L 783.904262 -365.03 
L 790.329836 -365.03 
L 796.75541 -365.03 
L 803.180984 -365.03 
L 809.606557 -365.03 
L 816.032131 -365.03 
L 822.457705 -365.03 
L 828.883279 -365.03 
L 835.308852 -365.03 
L 841.734426 -365.03 
L 848.16 -365.03 
L 848.16 -381.164745 
L 848.16 -381.164745 
L 841.734426 -374.954499 
L 835.308852 -374.667974 
L 828.883279 -379.802165 
L 822.457705 -380.14768 
L 816.032131 -392.379944 
L 809.606557 -386.057337 
L 803.180984 -390.77961 
L 796.75541 -382.748977 
L 790.329836 -383.105526 
L 783.904262 -375.793756 
L 777.478689 -385.500688 
L 771.053115 -389.985728 
L 764.627541 -390.380762 
L 758.201967 -395.623704 
L 751.776393 -388.035647 
L 745.35082 -386.67503 
L 738.925246 -391.130032 
L 732.499672 -398.875078 
L 726.074098 -407.237096 
L 719.648525 -400.778721 
L 713.222951 -404.344004 
L 706.797377 -403.658668 
L 700.371803 -399.93916 
L 693.94623 -398.91462 
L 687.520656 -391.900283 
L 681.095082 -409.791586 
L 674.669508 -413.514753 
L 668.243934 -413.744065 
L 661.818361 -414.815509 
L 655.392787 -414.5474 
L 648.967213 -407.184124 
L 642.541639 -422.736238 
L 636.116066 -438.518098 
L 629.690492 -414.90443 
L 623.264918 -429.754503 
L 616.839344 -409.520429 
L 610.41377 -403.989228 
L 603.988197 -406.178247 
L 597.562623 -445.924819 
L 591.137049 -437.417519 
L 584.711475 -434.698849 
L 578.285902 -456.051254 
L 571.860328 -456.738942 
L 565.434754 -423.144998 
L 559.00918 -431.266856 
L 552.583607 -454.681587 
L 546.158033 -456.50055 
L 539.732459 -510.742369 
L 533.306885 -492.032043 
L 526.881311 -469.784718 
L 520.455738 -431.986136 
L 514.030164 -439.055685 
L 507.60459 -462.185838 
L 501.179016 -483.341469 
L 494.753443 -523.982101 
L 488.327869 -604.53729 
L 481.902295 -570.789766 
L 475.476721 -513.927395 
L 469.051148 -447.91764 
L 462.625574 -479.042178 
L 456.2 -582.193444 
z
" id="m8fd8869d14" style="stroke:#ff7f0e;"/>
    </defs>
    <g clip-path="url(#pff284e6c51)">
     <use style="fill:#ff7f0e;stroke:#ff7f0e;" x="0" xlink:href="#m8fd8869d14" y="648"/>
    </g>
   </g>
   <g id="matplotlib.axis_3">
    <g id="xtick_13">
     <g id="line2d_23">
      <g>
       <use style="stroke:#000000;stroke-width:0.8;" x="456.2" xlink:href="#m112cee915f" y="282.97"/>
      </g>
     </g>
    </g>
    <g id="xtick_14">
     <g id="line2d_24">
      <g>
       <use style="stroke:#000000;stroke-width:0.8;" x="491.832727" xlink:href="#m112cee915f" y="282.97"/>
      </g>
     </g>
    </g>
    <g id="xtick_15">
     <g id="line2d_25">
      <g>
       <use style="stroke:#000000;stroke-width:0.8;" x="527.465455" xlink:href="#m112cee915f" y="282.97"/>
      </g>
     </g>
    </g>
    <g id="xtick_16">
     <g id="line2d_26">
      <g>
       <use style="stroke:#000000;stroke-width:0.8;" x="563.098182" xlink:href="#m112cee915f" y="282.97"/>
      </g>
     </g>
    </g>
    <g id="xtick_17">
     <g id="line2d_27">
      <g>
       <use style="stroke:#000000;stroke-width:0.8;" x="598.730909" xlink:href="#m112cee915f" y="282.97"/>
      </g>
     </g>
    </g>
    <g id="xtick_18">
     <g id="line2d_28">
      <g>
       <use style="stroke:#000000;stroke-width:0.8;" x="634.363636" xlink:href="#m112cee915f" y="282.97"/>
      </g>
     </g>
    </g>
    <g id="xtick_19">
     <g id="line2d_29">
      <g>
       <use style="stroke:#000000;stroke-width:0.8;" x="669.996364" xlink:href="#m112cee915f" y="282.97"/>
      </g>
     </g>
    </g>
    <g id="xtick_20">
     <g id="line2d_30">
      <g>
       <use style="stroke:#000000;stroke-width:0.8;" x="705.629091" xlink:href="#m112cee915f" y="282.97"/>
      </g>
     </g>
    </g>
    <g id="xtick_21">
     <g id="line2d_31">
      <g>
       <use style="stroke:#000000;stroke-width:0.8;" x="741.261818" xlink:href="#m112cee915f" y="282.97"/>
      </g>
     </g>
    </g>
    <g id="xtick_22">
     <g id="line2d_32">
      <g>
       <use style="stroke:#000000;stroke-width:0.8;" x="776.894545" xlink:href="#m112cee915f" y="282.97"/>
      </g>
     </g>
    </g>
    <g id="xtick_23">
     <g id="line2d_33">
      <g>
       <use style="stroke:#000000;stroke-width:0.8;" x="812.527273" xlink:href="#m112cee915f" y="282.97"/>
      </g>
     </g>
    </g>
    <g id="xtick_24">
     <g id="line2d_34">
      <g>
       <use style="stroke:#000000;stroke-width:0.8;" x="848.16" xlink:href="#m112cee915f" y="282.97"/>
      </g>
     </g>
    </g>
   </g>
   <g id="matplotlib.axis_4">
    <g id="ytick_10">
     <g id="line2d_35">
      <g>
       <use style="stroke:#000000;stroke-width:0.8;" x="456.2" xlink:href="#m1bc1e20dde" y="282.97"/>
      </g>
     </g>
    </g>
    <g id="ytick_11">
     <g id="line2d_36">
      <g>
       <use style="stroke:#000000;stroke-width:0.8;" x="456.2" xlink:href="#m1bc1e20dde" y="251.35893"/>
      </g>
     </g>
    </g>
    <g id="ytick_12">
     <g id="line2d_37">
      <g>
       <use style="stroke:#000000;stroke-width:0.8;" x="456.2" xlink:href="#m1bc1e20dde" y="219.74786"/>
      </g>
     </g>
    </g>
    <g id="ytick_13">
     <g id="line2d_38">
      <g>
       <use style="stroke:#000000;stroke-width:0.8;" x="456.2" xlink:href="#m1bc1e20dde" y="188.13679"/>
      </g>
     </g>
    </g>
    <g id="ytick_14">
     <g id="line2d_39">
      <g>
       <use style="stroke:#000000;stroke-width:0.8;" x="456.2" xlink:href="#m1bc1e20dde" y="156.525721"/>
      </g>
     </g>
    </g>
    <g id="ytick_15">
     <g id="line2d_40">
      <g>
       <use style="stroke:#000000;stroke-width:0.8;" x="456.2" xlink:href="#m1bc1e20dde" y="124.914651"/>
      </g>
     </g>
    </g>
    <g id="ytick_16">
     <g id="line2d_41">
      <g>
       <use style="stroke:#000000;stroke-width:0.8;" x="456.2" xlink:href="#m1bc1e20dde" y="93.303581"/>
      </g>
     </g>
    </g>
    <g id="ytick_17">
     <g id="line2d_42">
      <g>
       <use style="stroke:#000000;stroke-width:0.8;" x="456.2" xlink:href="#m1bc1e20dde" y="61.692511"/>
      </g>
     </g>
    </g>
    <g id="ytick_18">
     <g id="line2d_43">
      <g>
       <use style="stroke:#000000;stroke-width:0.8;" x="456.2" xlink:href="#m1bc1e20dde" y="30.081441"/>
      </g>
     </g>
    </g>
   </g>
   <g id="line2d_44">
    <path clip-path="url(#pff284e6c51)" d="M 456.2 65.806556 
L 462.625574 168.957822 
L 469.051148 200.08236 
L 475.476721 134.072605 
L 481.902295 77.210234 
L 488.327869 43.46271 
L 494.753443 124.017899 
L 501.179016 164.658531 
L 507.60459 185.814162 
L 514.030164 208.944315 
L 520.455738 216.013864 
L 526.881311 178.215282 
L 533.306885 155.967957 
L 539.732459 137.257631 
L 546.158033 191.49945 
L 552.583607 193.318413 
L 559.00918 216.733144 
L 565.434754 224.855002 
L 571.860328 191.261058 
L 578.285902 191.948746 
L 584.711475 213.301151 
L 591.137049 210.582481 
L 597.562623 202.075181 
L 603.988197 241.821753 
L 610.41377 244.010772 
L 616.839344 238.479571 
L 623.264918 218.245497 
L 629.690492 233.09557 
L 636.116066 209.481902 
L 642.541639 225.263762 
L 648.967213 240.815876 
L 655.392787 233.4526 
L 661.818361 233.184491 
L 668.243934 234.255935 
L 674.669508 234.485247 
L 681.095082 238.208414 
L 687.520656 256.099717 
L 693.94623 249.08538 
L 700.371803 248.06084 
L 706.797377 244.341332 
L 713.222951 243.655996 
L 719.648525 247.221279 
L 726.074098 240.762904 
L 732.499672 249.124922 
L 738.925246 256.869968 
L 745.35082 261.32497 
L 751.776393 259.964353 
L 758.201967 252.376296 
L 764.627541 257.619238 
L 771.053115 258.014272 
L 777.478689 262.499312 
L 783.904262 272.206244 
L 790.329836 264.894474 
L 796.75541 265.251023 
L 803.180984 257.22039 
L 809.606557 261.942663 
L 816.032131 255.620056 
L 822.457705 267.85232 
L 828.883279 268.197835 
L 835.308852 273.332026 
L 841.734426 273.045501 
L 848.16 266.835255 
" style="fill:none;stroke:#ff7f0e;stroke-linecap:square;stroke-width:1.5;"/>
   </g>
   <g id="patch_8">
    <path d="M 456.2 282.97 
L 456.2 25.44 
" style="fill:none;stroke:#000000;stroke-linecap:square;stroke-linejoin:miter;stroke-width:0.8;"/>
   </g>
   <g id="patch_9">
    <path d="M 848.16 282.97 
L 848.16 25.44 
" style="fill:none;stroke:#000000;stroke-linecap:square;stroke-linejoin:miter;stroke-width:0.8;"/>
   </g>
   <g id="patch_10">
    <path d="M 456.2 282.97 
L 848.16 282.97 
" style="fill:none;stroke:#000000;stroke-linecap:square;stroke-linejoin:miter;stroke-width:0.8;"/>
   </g>
   <g id="patch_11">
    <path d="M 456.2 25.44 
L 848.16 25.44 
" style="fill:none;stroke:#000000;stroke-linecap:square;stroke-linejoin:miter;stroke-width:0.8;"/>
   </g>
   <g id="text_11">
    <!-- Northeast -->
    <defs>
     <path d="M 9.8125 72.90625 
L 23.09375 72.90625 
L 55.421875 11.921875 
L 55.421875 72.90625 
L 64.984375 72.90625 
L 64.984375 0 
L 51.703125 0 
L 19.390625 60.984375 
L 19.390625 0 
L 9.8125 0 
z
" id="DejaVuSans-78"/>
     <path d="M 30.609375 48.390625 
Q 23.390625 48.390625 19.1875 42.75 
Q 14.984375 37.109375 14.984375 27.296875 
Q 14.984375 17.484375 19.15625 11.84375 
Q 23.34375 6.203125 30.609375 6.203125 
Q 37.796875 6.203125 41.984375 11.859375 
Q 46.1875 17.53125 46.1875 27.296875 
Q 46.1875 37.015625 41.984375 42.703125 
Q 37.796875 48.390625 30.609375 48.390625 
z
M 30.609375 56 
Q 42.328125 56 49.015625 48.375 
Q 55.71875 40.765625 55.71875 27.296875 
Q 55.71875 13.875 49.015625 6.21875 
Q 42.328125 -1.421875 30.609375 -1.421875 
Q 18.84375 -1.421875 12.171875 6.21875 
Q 5.515625 13.875 5.515625 27.296875 
Q 5.515625 40.765625 12.171875 48.375 
Q 18.84375 56 30.609375 56 
z
" id="DejaVuSans-111"/>
     <path d="M 41.109375 46.296875 
Q 39.59375 47.171875 37.8125 47.578125 
Q 36.03125 48 33.890625 48 
Q 26.265625 48 22.1875 43.046875 
Q 18.109375 38.09375 18.109375 28.8125 
L 18.109375 0 
L 9.078125 0 
L 9.078125 54.6875 
L 18.109375 54.6875 
L 18.109375 46.1875 
Q 20.953125 51.171875 25.484375 53.578125 
Q 30.03125 56 36.53125 56 
Q 37.453125 56 38.578125 55.875 
Q 39.703125 55.765625 41.0625 55.515625 
z
" id="DejaVuSans-114"/>
     <path d="M 54.890625 33.015625 
L 54.890625 0 
L 45.90625 0 
L 45.90625 32.71875 
Q 45.90625 40.484375 42.875 44.328125 
Q 39.84375 48.1875 33.796875 48.1875 
Q 26.515625 48.1875 22.3125 43.546875 
Q 18.109375 38.921875 18.109375 30.90625 
L 18.109375 0 
L 9.078125 0 
L 9.078125 75.984375 
L 18.109375 75.984375 
L 18.109375 46.1875 
Q 21.34375 51.125 25.703125 53.5625 
Q 30.078125 56 35.796875 56 
Q 45.21875 56 50.046875 50.171875 
Q 54.890625 44.34375 54.890625 33.015625 
z
" id="DejaVuSans-104"/>
     <path d="M 34.28125 27.484375 
Q 23.390625 27.484375 19.1875 25 
Q 14.984375 22.515625 14.984375 16.5 
Q 14.984375 11.71875 18.140625 8.90625 
Q 21.296875 6.109375 26.703125 6.109375 
Q 34.1875 6.109375 38.703125 11.40625 
Q 43.21875 16.703125 43.21875 25.484375 
L 43.21875 27.484375 
z
M 52.203125 31.203125 
L 52.203125 0 
L 43.21875 0 
L 43.21875 8.296875 
Q 40.140625 3.328125 35.546875 0.953125 
Q 30.953125 -1.421875 24.3125 -1.421875 
Q 15.921875 -1.421875 10.953125 3.296875 
Q 6 8.015625 6 15.921875 
Q 6 25.140625 12.171875 29.828125 
Q 18.359375 34.515625 30.609375 34.515625 
L 43.21875 34.515625 
L 43.21875 35.40625 
Q 43.21875 41.609375 39.140625 45 
Q 35.0625 48.390625 27.6875 48.390625 
Q 23 48.390625 18.546875 47.265625 
Q 14.109375 46.140625 10.015625 43.890625 
L 10.015625 52.203125 
Q 14.9375 54.109375 19.578125 55.046875 
Q 24.21875 56 28.609375 56 
Q 40.484375 56 46.34375 49.84375 
Q 52.203125 43.703125 52.203125 31.203125 
z
" id="DejaVuSans-97"/>
    </defs>
    <g transform="translate(622.552188 19.44)scale(0.12 -0.12)">
     <use xlink:href="#DejaVuSans-78"/>
     <use x="74.804688" xlink:href="#DejaVuSans-111"/>
     <use x="135.986328" xlink:href="#DejaVuSans-114"/>
     <use x="177.099609" xlink:href="#DejaVuSans-116"/>
     <use x="216.308594" xlink:href="#DejaVuSans-104"/>
     <use x="279.6875" xlink:href="#DejaVuSans-101"/>
     <use x="341.210938" xlink:href="#DejaVuSans-97"/>
     <use x="402.490234" xlink:href="#DejaVuSans-115"/>
     <use x="454.589844" xlink:href="#DejaVuSans-116"/>
    </g>
   </g>
  </g>
  <g id="axes_3">
   <g id="patch_12">
    <path d="M 43.36 572.06 
L 435.32 572.06 
L 435.32 314.53 
L 43.36 314.53 
z
" style="fill:#ffffff;"/>
   </g>
   <g id="PolyCollection_3">
    <defs>
     <path d="M 43.36 -132.270245 
L 43.36 -75.94 
L 49.785574 -75.94 
L 56.211148 -75.94 
L 62.636721 -75.94 
L 69.062295 -75.94 
L 75.487869 -75.94 
L 81.913443 -75.94 
L 88.339016 -75.94 
L 94.76459 -75.94 
L 101.190164 -75.94 
L 107.615738 -75.94 
L 114.041311 -75.94 
L 120.466885 -75.94 
L 126.892459 -75.94 
L 133.318033 -75.94 
L 139.743607 -75.94 
L 146.16918 -75.94 
L 152.594754 -75.94 
L 159.020328 -75.94 
L 165.445902 -75.94 
L 171.871475 -75.94 
L 178.297049 -75.94 
L 184.722623 -75.94 
L 191.148197 -75.94 
L 197.57377 -75.94 
L 203.999344 -75.94 
L 210.424918 -75.94 
L 216.850492 -75.94 
L 223.276066 -75.94 
L 229.701639 -75.94 
L 236.127213 -75.94 
L 242.552787 -75.94 
L 248.978361 -75.94 
L 255.403934 -75.94 
L 261.829508 -75.94 
L 268.255082 -75.94 
L 274.680656 -75.94 
L 281.10623 -75.94 
L 287.531803 -75.94 
L 293.957377 -75.94 
L 300.382951 -75.94 
L 306.808525 -75.94 
L 313.234098 -75.94 
L 319.659672 -75.94 
L 326.085246 -75.94 
L 332.51082 -75.94 
L 338.936393 -75.94 
L 345.361967 -75.94 
L 351.787541 -75.94 
L 358.213115 -75.94 
L 364.638689 -75.94 
L 371.064262 -75.94 
L 377.489836 -75.94 
L 383.91541 -75.94 
L 390.340984 -75.94 
L 396.766557 -75.94 
L 403.192131 -75.94 
L 409.617705 -75.94 
L 416.043279 -75.94 
L 422.468852 -75.94 
L 428.894426 -75.94 
L 435.32 -75.94 
L 435.32 -121.105876 
L 435.32 -121.105876 
L 428.894426 -115.170791 
L 422.468852 -97.248109 
L 416.043279 -97.264182 
L 409.617705 -100.447904 
L 403.192131 -111.756342 
L 396.766557 -114.168752 
L 390.340984 -111.98788 
L 383.91541 -116.89109 
L 377.489836 -102.606713 
L 371.064262 -96.588483 
L 364.638689 -109.388365 
L 358.213115 -111.494698 
L 351.787541 -114.199784 
L 345.361967 -103.833833 
L 338.936393 -125.72369 
L 332.51082 -99.104196 
L 326.085246 -93.773962 
L 319.659672 -103.788674 
L 313.234098 -108.868815 
L 306.808525 -113.068097 
L 300.382951 -118.408996 
L 293.957377 -118.902023 
L 287.531803 -107.445585 
L 281.10623 -98.352255 
L 274.680656 -96.934996 
L 268.255082 -118.330075 
L 261.829508 -118.637042 
L 255.403934 -112.33319 
L 248.978361 -141.757422 
L 242.552787 -103.998991 
L 236.127213 -101.447165 
L 229.701639 -106.497192 
L 223.276066 -132.502251 
L 216.850492 -126.831083 
L 210.424918 -116.087915 
L 203.999344 -103.344848 
L 197.57377 -101.33646 
L 191.148197 -104.548288 
L 184.722623 -109.96234 
L 178.297049 -110.530409 
L 171.871475 -122.894706 
L 165.445902 -119.882967 
L 159.020328 -126.091023 
L 152.594754 -107.014281 
L 146.16918 -99.260157 
L 139.743607 -113.546097 
L 133.318033 -125.923278 
L 126.892459 -133.261246 
L 120.466885 -121.857612 
L 114.041311 -137.714491 
L 107.615738 -120.505717 
L 101.190164 -98.967304 
L 94.76459 -112.681005 
L 88.339016 -134.179438 
L 81.913443 -134.233009 
L 75.487869 -135.784657 
L 69.062295 -148.71242 
L 62.636721 -128.246206 
L 56.211148 -99.180749 
L 49.785574 -117.638695 
L 43.36 -132.270245 
z
" id="m534ac097f7" style="stroke:#2ca02c;"/>
    </defs>
    <g clip-path="url(#pe3f3d1230a)">
     <use style="fill:#2ca02c;stroke:#2ca02c;" x="0" xlink:href="#m534ac097f7" y="648"/>
    </g>
   </g>
   <g id="matplotlib.axis_5">
    <g id="xtick_25">
     <g id="line2d_45">
      <g>
       <use style="stroke:#000000;stroke-width:0.8;" x="43.36" xlink:href="#m112cee915f" y="572.06"/>
      </g>
     </g>
     <g id="text_12">
      <!-- 2020-05-02 -->
      <defs>
       <path d="M 4.890625 31.390625 
L 31.203125 31.390625 
L 31.203125 23.390625 
L 4.890625 23.390625 
z
" id="DejaVuSans-45"/>
       <path d="M 10.796875 72.90625 
L 49.515625 72.90625 
L 49.515625 64.59375 
L 19.828125 64.59375 
L 19.828125 46.734375 
Q 21.96875 47.46875 24.109375 47.828125 
Q 26.265625 48.1875 28.421875 48.1875 
Q 40.625 48.1875 47.75 41.5 
Q 54.890625 34.8125 54.890625 23.390625 
Q 54.890625 11.625 47.5625 5.09375 
Q 40.234375 -1.421875 26.90625 -1.421875 
Q 22.3125 -1.421875 17.546875 -0.640625 
Q 12.796875 0.140625 7.71875 1.703125 
L 7.71875 11.625 
Q 12.109375 9.234375 16.796875 8.0625 
Q 21.484375 6.890625 26.703125 6.890625 
Q 35.15625 6.890625 40.078125 11.328125 
Q 45.015625 15.765625 45.015625 23.390625 
Q 45.015625 31 40.078125 35.4375 
Q 35.15625 39.890625 26.703125 39.890625 
Q 22.75 39.890625 18.8125 39.015625 
Q 14.890625 38.140625 10.796875 36.28125 
z
" id="DejaVuSans-53"/>
      </defs>
      <g transform="translate(46.119375 637.175625)rotate(-90)scale(0.1 -0.1)">
       <use xlink:href="#DejaVuSans-50"/>
       <use x="63.623047" xlink:href="#DejaVuSans-48"/>
       <use x="127.246094" xlink:href="#DejaVuSans-50"/>
       <use x="190.869141" xlink:href="#DejaVuSans-48"/>
       <use x="254.492188" xlink:href="#DejaVuSans-45"/>
       <use x="290.576172" xlink:href="#DejaVuSans-48"/>
       <use x="354.199219" xlink:href="#DejaVuSans-53"/>
       <use x="417.822266" xlink:href="#DejaVuSans-45"/>
       <use x="453.90625" xlink:href="#DejaVuSans-48"/>
       <use x="517.529297" xlink:href="#DejaVuSans-50"/>
      </g>
     </g>
    </g>
    <g id="xtick_26">
     <g id="line2d_46">
      <g>
       <use style="stroke:#000000;stroke-width:0.8;" x="78.992727" xlink:href="#m112cee915f" y="572.06"/>
      </g>
     </g>
     <g id="text_13">
      <!-- 2020-05-07 -->
      <defs>
       <path d="M 8.203125 72.90625 
L 55.078125 72.90625 
L 55.078125 68.703125 
L 28.609375 0 
L 18.3125 0 
L 43.21875 64.59375 
L 8.203125 64.59375 
z
" id="DejaVuSans-55"/>
      </defs>
      <g transform="translate(81.752102 637.175625)rotate(-90)scale(0.1 -0.1)">
       <use xlink:href="#DejaVuSans-50"/>
       <use x="63.623047" xlink:href="#DejaVuSans-48"/>
       <use x="127.246094" xlink:href="#DejaVuSans-50"/>
       <use x="190.869141" xlink:href="#DejaVuSans-48"/>
       <use x="254.492188" xlink:href="#DejaVuSans-45"/>
       <use x="290.576172" xlink:href="#DejaVuSans-48"/>
       <use x="354.199219" xlink:href="#DejaVuSans-53"/>
       <use x="417.822266" xlink:href="#DejaVuSans-45"/>
       <use x="453.90625" xlink:href="#DejaVuSans-48"/>
       <use x="517.529297" xlink:href="#DejaVuSans-55"/>
      </g>
     </g>
    </g>
    <g id="xtick_27">
     <g id="line2d_47">
      <g>
       <use style="stroke:#000000;stroke-width:0.8;" x="114.625455" xlink:href="#m112cee915f" y="572.06"/>
      </g>
     </g>
     <g id="text_14">
      <!-- 2020-05-13 -->
      <defs>
       <path d="M 40.578125 39.3125 
Q 47.65625 37.796875 51.625 33 
Q 55.609375 28.21875 55.609375 21.1875 
Q 55.609375 10.40625 48.1875 4.484375 
Q 40.765625 -1.421875 27.09375 -1.421875 
Q 22.515625 -1.421875 17.65625 -0.515625 
Q 12.796875 0.390625 7.625 2.203125 
L 7.625 11.71875 
Q 11.71875 9.328125 16.59375 8.109375 
Q 21.484375 6.890625 26.8125 6.890625 
Q 36.078125 6.890625 40.9375 10.546875 
Q 45.796875 14.203125 45.796875 21.1875 
Q 45.796875 27.640625 41.28125 31.265625 
Q 36.765625 34.90625 28.71875 34.90625 
L 20.21875 34.90625 
L 20.21875 43.015625 
L 29.109375 43.015625 
Q 36.375 43.015625 40.234375 45.921875 
Q 44.09375 48.828125 44.09375 54.296875 
Q 44.09375 59.90625 40.109375 62.90625 
Q 36.140625 65.921875 28.71875 65.921875 
Q 24.65625 65.921875 20.015625 65.03125 
Q 15.375 64.15625 9.8125 62.3125 
L 9.8125 71.09375 
Q 15.4375 72.65625 20.34375 73.4375 
Q 25.25 74.21875 29.59375 74.21875 
Q 40.828125 74.21875 47.359375 69.109375 
Q 53.90625 64.015625 53.90625 55.328125 
Q 53.90625 49.265625 50.4375 45.09375 
Q 46.96875 40.921875 40.578125 39.3125 
z
" id="DejaVuSans-51"/>
      </defs>
      <g transform="translate(117.38483 637.175625)rotate(-90)scale(0.1 -0.1)">
       <use xlink:href="#DejaVuSans-50"/>
       <use x="63.623047" xlink:href="#DejaVuSans-48"/>
       <use x="127.246094" xlink:href="#DejaVuSans-50"/>
       <use x="190.869141" xlink:href="#DejaVuSans-48"/>
       <use x="254.492188" xlink:href="#DejaVuSans-45"/>
       <use x="290.576172" xlink:href="#DejaVuSans-48"/>
       <use x="354.199219" xlink:href="#DejaVuSans-53"/>
       <use x="417.822266" xlink:href="#DejaVuSans-45"/>
       <use x="453.90625" xlink:href="#DejaVuSans-49"/>
       <use x="517.529297" xlink:href="#DejaVuSans-51"/>
      </g>
     </g>
    </g>
    <g id="xtick_28">
     <g id="line2d_48">
      <g>
       <use style="stroke:#000000;stroke-width:0.8;" x="150.258182" xlink:href="#m112cee915f" y="572.06"/>
      </g>
     </g>
     <g id="text_15">
      <!-- 2020-05-18 -->
      <g transform="translate(153.017557 637.175625)rotate(-90)scale(0.1 -0.1)">
       <use xlink:href="#DejaVuSans-50"/>
       <use x="63.623047" xlink:href="#DejaVuSans-48"/>
       <use x="127.246094" xlink:href="#DejaVuSans-50"/>
       <use x="190.869141" xlink:href="#DejaVuSans-48"/>
       <use x="254.492188" xlink:href="#DejaVuSans-45"/>
       <use x="290.576172" xlink:href="#DejaVuSans-48"/>
       <use x="354.199219" xlink:href="#DejaVuSans-53"/>
       <use x="417.822266" xlink:href="#DejaVuSans-45"/>
       <use x="453.90625" xlink:href="#DejaVuSans-49"/>
       <use x="517.529297" xlink:href="#DejaVuSans-56"/>
      </g>
     </g>
    </g>
    <g id="xtick_29">
     <g id="line2d_49">
      <g>
       <use style="stroke:#000000;stroke-width:0.8;" x="185.890909" xlink:href="#m112cee915f" y="572.06"/>
      </g>
     </g>
     <g id="text_16">
      <!-- 2020-05-24 -->
      <g transform="translate(188.650284 637.175625)rotate(-90)scale(0.1 -0.1)">
       <use xlink:href="#DejaVuSans-50"/>
       <use x="63.623047" xlink:href="#DejaVuSans-48"/>
       <use x="127.246094" xlink:href="#DejaVuSans-50"/>
       <use x="190.869141" xlink:href="#DejaVuSans-48"/>
       <use x="254.492188" xlink:href="#DejaVuSans-45"/>
       <use x="290.576172" xlink:href="#DejaVuSans-48"/>
       <use x="354.199219" xlink:href="#DejaVuSans-53"/>
       <use x="417.822266" xlink:href="#DejaVuSans-45"/>
       <use x="453.90625" xlink:href="#DejaVuSans-50"/>
       <use x="517.529297" xlink:href="#DejaVuSans-52"/>
      </g>
     </g>
    </g>
    <g id="xtick_30">
     <g id="line2d_50">
      <g>
       <use style="stroke:#000000;stroke-width:0.8;" x="221.523636" xlink:href="#m112cee915f" y="572.06"/>
      </g>
     </g>
     <g id="text_17">
      <!-- 2020-05-29 -->
      <defs>
       <path d="M 10.984375 1.515625 
L 10.984375 10.5 
Q 14.703125 8.734375 18.5 7.8125 
Q 22.3125 6.890625 25.984375 6.890625 
Q 35.75 6.890625 40.890625 13.453125 
Q 46.046875 20.015625 46.78125 33.40625 
Q 43.953125 29.203125 39.59375 26.953125 
Q 35.25 24.703125 29.984375 24.703125 
Q 19.046875 24.703125 12.671875 31.3125 
Q 6.296875 37.9375 6.296875 49.421875 
Q 6.296875 60.640625 12.9375 67.421875 
Q 19.578125 74.21875 30.609375 74.21875 
Q 43.265625 74.21875 49.921875 64.515625 
Q 56.59375 54.828125 56.59375 36.375 
Q 56.59375 19.140625 48.40625 8.859375 
Q 40.234375 -1.421875 26.421875 -1.421875 
Q 22.703125 -1.421875 18.890625 -0.6875 
Q 15.09375 0.046875 10.984375 1.515625 
z
M 30.609375 32.421875 
Q 37.25 32.421875 41.125 36.953125 
Q 45.015625 41.5 45.015625 49.421875 
Q 45.015625 57.28125 41.125 61.84375 
Q 37.25 66.40625 30.609375 66.40625 
Q 23.96875 66.40625 20.09375 61.84375 
Q 16.21875 57.28125 16.21875 49.421875 
Q 16.21875 41.5 20.09375 36.953125 
Q 23.96875 32.421875 30.609375 32.421875 
z
" id="DejaVuSans-57"/>
      </defs>
      <g transform="translate(224.283011 637.175625)rotate(-90)scale(0.1 -0.1)">
       <use xlink:href="#DejaVuSans-50"/>
       <use x="63.623047" xlink:href="#DejaVuSans-48"/>
       <use x="127.246094" xlink:href="#DejaVuSans-50"/>
       <use x="190.869141" xlink:href="#DejaVuSans-48"/>
       <use x="254.492188" xlink:href="#DejaVuSans-45"/>
       <use x="290.576172" xlink:href="#DejaVuSans-48"/>
       <use x="354.199219" xlink:href="#DejaVuSans-53"/>
       <use x="417.822266" xlink:href="#DejaVuSans-45"/>
       <use x="453.90625" xlink:href="#DejaVuSans-50"/>
       <use x="517.529297" xlink:href="#DejaVuSans-57"/>
      </g>
     </g>
    </g>
    <g id="xtick_31">
     <g id="line2d_51">
      <g>
       <use style="stroke:#000000;stroke-width:0.8;" x="257.156364" xlink:href="#m112cee915f" y="572.06"/>
      </g>
     </g>
     <g id="text_18">
      <!-- 2020-06-04 -->
      <g transform="translate(259.915739 637.175625)rotate(-90)scale(0.1 -0.1)">
       <use xlink:href="#DejaVuSans-50"/>
       <use x="63.623047" xlink:href="#DejaVuSans-48"/>
       <use x="127.246094" xlink:href="#DejaVuSans-50"/>
       <use x="190.869141" xlink:href="#DejaVuSans-48"/>
       <use x="254.492188" xlink:href="#DejaVuSans-45"/>
       <use x="290.576172" xlink:href="#DejaVuSans-48"/>
       <use x="354.199219" xlink:href="#DejaVuSans-54"/>
       <use x="417.822266" xlink:href="#DejaVuSans-45"/>
       <use x="453.90625" xlink:href="#DejaVuSans-48"/>
       <use x="517.529297" xlink:href="#DejaVuSans-52"/>
      </g>
     </g>
    </g>
    <g id="xtick_32">
     <g id="line2d_52">
      <g>
       <use style="stroke:#000000;stroke-width:0.8;" x="292.789091" xlink:href="#m112cee915f" y="572.06"/>
      </g>
     </g>
     <g id="text_19">
      <!-- 2020-06-09 -->
      <g transform="translate(295.548466 637.175625)rotate(-90)scale(0.1 -0.1)">
       <use xlink:href="#DejaVuSans-50"/>
       <use x="63.623047" xlink:href="#DejaVuSans-48"/>
       <use x="127.246094" xlink:href="#DejaVuSans-50"/>
       <use x="190.869141" xlink:href="#DejaVuSans-48"/>
       <use x="254.492188" xlink:href="#DejaVuSans-45"/>
       <use x="290.576172" xlink:href="#DejaVuSans-48"/>
       <use x="354.199219" xlink:href="#DejaVuSans-54"/>
       <use x="417.822266" xlink:href="#DejaVuSans-45"/>
       <use x="453.90625" xlink:href="#DejaVuSans-48"/>
       <use x="517.529297" xlink:href="#DejaVuSans-57"/>
      </g>
     </g>
    </g>
    <g id="xtick_33">
     <g id="line2d_53">
      <g>
       <use style="stroke:#000000;stroke-width:0.8;" x="328.421818" xlink:href="#m112cee915f" y="572.06"/>
      </g>
     </g>
     <g id="text_20">
      <!-- 2020-06-15 -->
      <g transform="translate(331.181193 637.175625)rotate(-90)scale(0.1 -0.1)">
       <use xlink:href="#DejaVuSans-50"/>
       <use x="63.623047" xlink:href="#DejaVuSans-48"/>
       <use x="127.246094" xlink:href="#DejaVuSans-50"/>
       <use x="190.869141" xlink:href="#DejaVuSans-48"/>
       <use x="254.492188" xlink:href="#DejaVuSans-45"/>
       <use x="290.576172" xlink:href="#DejaVuSans-48"/>
       <use x="354.199219" xlink:href="#DejaVuSans-54"/>
       <use x="417.822266" xlink:href="#DejaVuSans-45"/>
       <use x="453.90625" xlink:href="#DejaVuSans-49"/>
       <use x="517.529297" xlink:href="#DejaVuSans-53"/>
      </g>
     </g>
    </g>
    <g id="xtick_34">
     <g id="line2d_54">
      <g>
       <use style="stroke:#000000;stroke-width:0.8;" x="364.054545" xlink:href="#m112cee915f" y="572.06"/>
      </g>
     </g>
     <g id="text_21">
      <!-- 2020-06-20 -->
      <g transform="translate(366.81392 637.175625)rotate(-90)scale(0.1 -0.1)">
       <use xlink:href="#DejaVuSans-50"/>
       <use x="63.623047" xlink:href="#DejaVuSans-48"/>
       <use x="127.246094" xlink:href="#DejaVuSans-50"/>
       <use x="190.869141" xlink:href="#DejaVuSans-48"/>
       <use x="254.492188" xlink:href="#DejaVuSans-45"/>
       <use x="290.576172" xlink:href="#DejaVuSans-48"/>
       <use x="354.199219" xlink:href="#DejaVuSans-54"/>
       <use x="417.822266" xlink:href="#DejaVuSans-45"/>
       <use x="453.90625" xlink:href="#DejaVuSans-50"/>
       <use x="517.529297" xlink:href="#DejaVuSans-48"/>
      </g>
     </g>
    </g>
    <g id="xtick_35">
     <g id="line2d_55">
      <g>
       <use style="stroke:#000000;stroke-width:0.8;" x="399.687273" xlink:href="#m112cee915f" y="572.06"/>
      </g>
     </g>
     <g id="text_22">
      <!-- 2020-06-26 -->
      <g transform="translate(402.446648 637.175625)rotate(-90)scale(0.1 -0.1)">
       <use xlink:href="#DejaVuSans-50"/>
       <use x="63.623047" xlink:href="#DejaVuSans-48"/>
       <use x="127.246094" xlink:href="#DejaVuSans-50"/>
       <use x="190.869141" xlink:href="#DejaVuSans-48"/>
       <use x="254.492188" xlink:href="#DejaVuSans-45"/>
       <use x="290.576172" xlink:href="#DejaVuSans-48"/>
       <use x="354.199219" xlink:href="#DejaVuSans-54"/>
       <use x="417.822266" xlink:href="#DejaVuSans-45"/>
       <use x="453.90625" xlink:href="#DejaVuSans-50"/>
       <use x="517.529297" xlink:href="#DejaVuSans-54"/>
      </g>
     </g>
    </g>
    <g id="xtick_36">
     <g id="line2d_56">
      <g>
       <use style="stroke:#000000;stroke-width:0.8;" x="435.32" xlink:href="#m112cee915f" y="572.06"/>
      </g>
     </g>
     <g id="text_23">
      <!-- 2020-07-02 -->
      <g transform="translate(438.079375 637.175625)rotate(-90)scale(0.1 -0.1)">
       <use xlink:href="#DejaVuSans-50"/>
       <use x="63.623047" xlink:href="#DejaVuSans-48"/>
       <use x="127.246094" xlink:href="#DejaVuSans-50"/>
       <use x="190.869141" xlink:href="#DejaVuSans-48"/>
       <use x="254.492188" xlink:href="#DejaVuSans-45"/>
       <use x="290.576172" xlink:href="#DejaVuSans-48"/>
       <use x="354.199219" xlink:href="#DejaVuSans-55"/>
       <use x="417.822266" xlink:href="#DejaVuSans-45"/>
       <use x="453.90625" xlink:href="#DejaVuSans-48"/>
       <use x="517.529297" xlink:href="#DejaVuSans-50"/>
      </g>
     </g>
    </g>
   </g>
   <g id="matplotlib.axis_6">
    <g id="ytick_19">
     <g id="line2d_57">
      <g>
       <use style="stroke:#000000;stroke-width:0.8;" x="43.36" xlink:href="#m1bc1e20dde" y="572.06"/>
      </g>
     </g>
     <g id="text_24">
      <!-- 0 -->
      <g transform="translate(29.9975 575.859219)scale(0.1 -0.1)">
       <use xlink:href="#DejaVuSans-48"/>
      </g>
     </g>
    </g>
    <g id="ytick_20">
     <g id="line2d_58">
      <g>
       <use style="stroke:#000000;stroke-width:0.8;" x="43.36" xlink:href="#m1bc1e20dde" y="540.44893"/>
      </g>
     </g>
     <g id="text_25">
      <!-- 200 -->
      <g transform="translate(17.2725 544.248149)scale(0.1 -0.1)">
       <use xlink:href="#DejaVuSans-50"/>
       <use x="63.623047" xlink:href="#DejaVuSans-48"/>
       <use x="127.246094" xlink:href="#DejaVuSans-48"/>
      </g>
     </g>
    </g>
    <g id="ytick_21">
     <g id="line2d_59">
      <g>
       <use style="stroke:#000000;stroke-width:0.8;" x="43.36" xlink:href="#m1bc1e20dde" y="508.83786"/>
      </g>
     </g>
     <g id="text_26">
      <!-- 400 -->
      <g transform="translate(17.2725 512.637079)scale(0.1 -0.1)">
       <use xlink:href="#DejaVuSans-52"/>
       <use x="63.623047" xlink:href="#DejaVuSans-48"/>
       <use x="127.246094" xlink:href="#DejaVuSans-48"/>
      </g>
     </g>
    </g>
    <g id="ytick_22">
     <g id="line2d_60">
      <g>
       <use style="stroke:#000000;stroke-width:0.8;" x="43.36" xlink:href="#m1bc1e20dde" y="477.22679"/>
      </g>
     </g>
     <g id="text_27">
      <!-- 600 -->
      <g transform="translate(17.2725 481.026009)scale(0.1 -0.1)">
       <use xlink:href="#DejaVuSans-54"/>
       <use x="63.623047" xlink:href="#DejaVuSans-48"/>
       <use x="127.246094" xlink:href="#DejaVuSans-48"/>
      </g>
     </g>
    </g>
    <g id="ytick_23">
     <g id="line2d_61">
      <g>
       <use style="stroke:#000000;stroke-width:0.8;" x="43.36" xlink:href="#m1bc1e20dde" y="445.615721"/>
      </g>
     </g>
     <g id="text_28">
      <!-- 800 -->
      <g transform="translate(17.2725 449.414939)scale(0.1 -0.1)">
       <use xlink:href="#DejaVuSans-56"/>
       <use x="63.623047" xlink:href="#DejaVuSans-48"/>
       <use x="127.246094" xlink:href="#DejaVuSans-48"/>
      </g>
     </g>
    </g>
    <g id="ytick_24">
     <g id="line2d_62">
      <g>
       <use style="stroke:#000000;stroke-width:0.8;" x="43.36" xlink:href="#m1bc1e20dde" y="414.004651"/>
      </g>
     </g>
     <g id="text_29">
      <!-- 1000 -->
      <g transform="translate(10.91 417.803869)scale(0.1 -0.1)">
       <use xlink:href="#DejaVuSans-49"/>
       <use x="63.623047" xlink:href="#DejaVuSans-48"/>
       <use x="127.246094" xlink:href="#DejaVuSans-48"/>
       <use x="190.869141" xlink:href="#DejaVuSans-48"/>
      </g>
     </g>
    </g>
    <g id="ytick_25">
     <g id="line2d_63">
      <g>
       <use style="stroke:#000000;stroke-width:0.8;" x="43.36" xlink:href="#m1bc1e20dde" y="382.393581"/>
      </g>
     </g>
     <g id="text_30">
      <!-- 1200 -->
      <g transform="translate(10.91 386.1928)scale(0.1 -0.1)">
       <use xlink:href="#DejaVuSans-49"/>
       <use x="63.623047" xlink:href="#DejaVuSans-50"/>
       <use x="127.246094" xlink:href="#DejaVuSans-48"/>
       <use x="190.869141" xlink:href="#DejaVuSans-48"/>
      </g>
     </g>
    </g>
    <g id="ytick_26">
     <g id="line2d_64">
      <g>
       <use style="stroke:#000000;stroke-width:0.8;" x="43.36" xlink:href="#m1bc1e20dde" y="350.782511"/>
      </g>
     </g>
     <g id="text_31">
      <!-- 1400 -->
      <g transform="translate(10.91 354.58173)scale(0.1 -0.1)">
       <use xlink:href="#DejaVuSans-49"/>
       <use x="63.623047" xlink:href="#DejaVuSans-52"/>
       <use x="127.246094" xlink:href="#DejaVuSans-48"/>
       <use x="190.869141" xlink:href="#DejaVuSans-48"/>
      </g>
     </g>
    </g>
    <g id="ytick_27">
     <g id="line2d_65">
      <g>
       <use style="stroke:#000000;stroke-width:0.8;" x="43.36" xlink:href="#m1bc1e20dde" y="319.171441"/>
      </g>
     </g>
     <g id="text_32">
      <!-- 1600 -->
      <g transform="translate(10.91 322.97066)scale(0.1 -0.1)">
       <use xlink:href="#DejaVuSans-49"/>
       <use x="63.623047" xlink:href="#DejaVuSans-54"/>
       <use x="127.246094" xlink:href="#DejaVuSans-48"/>
       <use x="190.869141" xlink:href="#DejaVuSans-48"/>
      </g>
     </g>
    </g>
   </g>
   <g id="line2d_66">
    <path clip-path="url(#pe3f3d1230a)" d="M 43.36 515.729755 
L 49.785574 530.361305 
L 56.211148 548.819251 
L 62.636721 519.753794 
L 69.062295 499.28758 
L 75.487869 512.215343 
L 81.913443 513.766991 
L 88.339016 513.820562 
L 94.76459 535.318995 
L 101.190164 549.032696 
L 107.615738 527.494283 
L 114.041311 510.285509 
L 120.466885 526.142388 
L 126.892459 514.738754 
L 133.318033 522.076722 
L 139.743607 534.453903 
L 146.16918 548.739843 
L 152.594754 540.985719 
L 159.020328 521.908977 
L 165.445902 528.117033 
L 171.871475 525.105294 
L 178.297049 537.469591 
L 184.722623 538.03766 
L 191.148197 543.451712 
L 197.57377 546.66354 
L 203.999344 544.655152 
L 210.424918 531.912085 
L 216.850492 521.168917 
L 223.276066 515.497749 
L 229.701639 541.502808 
L 236.127213 546.552835 
L 242.552787 544.001009 
L 248.978361 506.242578 
L 255.403934 535.66681 
L 261.829508 529.362958 
L 268.255082 529.669925 
L 274.680656 551.065004 
L 281.10623 549.647745 
L 287.531803 540.554415 
L 293.957377 529.097977 
L 300.382951 529.591004 
L 306.808525 534.931903 
L 313.234098 539.131185 
L 319.659672 544.211326 
L 326.085246 554.226038 
L 332.51082 548.895804 
L 338.936393 522.27631 
L 345.361967 544.166167 
L 351.787541 533.800216 
L 358.213115 536.505302 
L 364.638689 538.611635 
L 371.064262 551.411517 
L 377.489836 545.393287 
L 383.91541 531.10891 
L 390.340984 536.01212 
L 396.766557 533.831248 
L 403.192131 536.243658 
L 409.617705 547.552096 
L 416.043279 550.735818 
L 422.468852 550.751891 
L 428.894426 532.829209 
L 435.32 526.894124 
" style="fill:none;stroke:#2ca02c;stroke-linecap:square;stroke-width:1.5;"/>
   </g>
   <g id="patch_13">
    <path d="M 43.36 572.06 
L 43.36 314.53 
" style="fill:none;stroke:#000000;stroke-linecap:square;stroke-linejoin:miter;stroke-width:0.8;"/>
   </g>
   <g id="patch_14">
    <path d="M 435.32 572.06 
L 435.32 314.53 
" style="fill:none;stroke:#000000;stroke-linecap:square;stroke-linejoin:miter;stroke-width:0.8;"/>
   </g>
   <g id="patch_15">
    <path d="M 43.36 572.06 
L 435.32 572.06 
" style="fill:none;stroke:#000000;stroke-linecap:square;stroke-linejoin:miter;stroke-width:0.8;"/>
   </g>
   <g id="patch_16">
    <path d="M 43.36 314.53 
L 435.32 314.53 
" style="fill:none;stroke:#000000;stroke-linecap:square;stroke-linejoin:miter;stroke-width:0.8;"/>
   </g>
   <g id="text_33">
    <!-- South -->
    <defs>
     <path d="M 53.515625 70.515625 
L 53.515625 60.890625 
Q 47.90625 63.578125 42.921875 64.890625 
Q 37.9375 66.21875 33.296875 66.21875 
Q 25.25 66.21875 20.875 63.09375 
Q 16.5 59.96875 16.5 54.203125 
Q 16.5 49.359375 19.40625 46.890625 
Q 22.3125 44.4375 30.421875 42.921875 
L 36.375 41.703125 
Q 47.40625 39.59375 52.65625 34.296875 
Q 57.90625 29 57.90625 20.125 
Q 57.90625 9.515625 50.796875 4.046875 
Q 43.703125 -1.421875 29.984375 -1.421875 
Q 24.8125 -1.421875 18.96875 -0.25 
Q 13.140625 0.921875 6.890625 3.21875 
L 6.890625 13.375 
Q 12.890625 10.015625 18.65625 8.296875 
Q 24.421875 6.59375 29.984375 6.59375 
Q 38.421875 6.59375 43.015625 9.90625 
Q 47.609375 13.234375 47.609375 19.390625 
Q 47.609375 24.75 44.3125 27.78125 
Q 41.015625 30.8125 33.5 32.328125 
L 27.484375 33.5 
Q 16.453125 35.6875 11.515625 40.375 
Q 6.59375 45.0625 6.59375 53.421875 
Q 6.59375 63.09375 13.40625 68.65625 
Q 20.21875 74.21875 32.171875 74.21875 
Q 37.3125 74.21875 42.625 73.28125 
Q 47.953125 72.359375 53.515625 70.515625 
z
" id="DejaVuSans-83"/>
     <path d="M 8.5 21.578125 
L 8.5 54.6875 
L 17.484375 54.6875 
L 17.484375 21.921875 
Q 17.484375 14.15625 20.5 10.265625 
Q 23.53125 6.390625 29.59375 6.390625 
Q 36.859375 6.390625 41.078125 11.03125 
Q 45.3125 15.671875 45.3125 23.6875 
L 45.3125 54.6875 
L 54.296875 54.6875 
L 54.296875 0 
L 45.3125 0 
L 45.3125 8.40625 
Q 42.046875 3.421875 37.71875 1 
Q 33.40625 -1.421875 27.6875 -1.421875 
Q 18.265625 -1.421875 13.375 4.4375 
Q 8.5 10.296875 8.5 21.578125 
z
M 31.109375 56 
z
" id="DejaVuSans-117"/>
    </defs>
    <g transform="translate(221.9025 308.53)scale(0.12 -0.12)">
     <use xlink:href="#DejaVuSans-83"/>
     <use x="63.476562" xlink:href="#DejaVuSans-111"/>
     <use x="124.658203" xlink:href="#DejaVuSans-117"/>
     <use x="188.037109" xlink:href="#DejaVuSans-116"/>
     <use x="227.246094" xlink:href="#DejaVuSans-104"/>
    </g>
   </g>
  </g>
  <g id="axes_4">
   <g id="patch_17">
    <path d="M 456.2 572.06 
L 848.16 572.06 
L 848.16 314.53 
L 456.2 314.53 
z
" style="fill:#ffffff;"/>
   </g>
   <g id="PolyCollection_4">
    <defs>
     <path d="M 456.2 -95.889454 
L 456.2 -75.94 
L 462.625574 -75.94 
L 469.051148 -75.94 
L 475.476721 -75.94 
L 481.902295 -75.94 
L 488.327869 -75.94 
L 494.753443 -75.94 
L 501.179016 -75.94 
L 507.60459 -75.94 
L 514.030164 -75.94 
L 520.455738 -75.94 
L 526.881311 -75.94 
L 533.306885 -75.94 
L 539.732459 -75.94 
L 546.158033 -75.94 
L 552.583607 -75.94 
L 559.00918 -75.94 
L 565.434754 -75.94 
L 571.860328 -75.94 
L 578.285902 -75.94 
L 584.711475 -75.94 
L 591.137049 -75.94 
L 597.562623 -75.94 
L 603.988197 -75.94 
L 610.41377 -75.94 
L 616.839344 -75.94 
L 623.264918 -75.94 
L 629.690492 -75.94 
L 636.116066 -75.94 
L 642.541639 -75.94 
L 648.967213 -75.94 
L 655.392787 -75.94 
L 661.818361 -75.94 
L 668.243934 -75.94 
L 674.669508 -75.94 
L 681.095082 -75.94 
L 687.520656 -75.94 
L 693.94623 -75.94 
L 700.371803 -75.94 
L 706.797377 -75.94 
L 713.222951 -75.94 
L 719.648525 -75.94 
L 726.074098 -75.94 
L 732.499672 -75.94 
L 738.925246 -75.94 
L 745.35082 -75.94 
L 751.776393 -75.94 
L 758.201967 -75.94 
L 764.627541 -75.94 
L 771.053115 -75.94 
L 777.478689 -75.94 
L 783.904262 -75.94 
L 790.329836 -75.94 
L 796.75541 -75.94 
L 803.180984 -75.94 
L 809.606557 -75.94 
L 816.032131 -75.94 
L 822.457705 -75.94 
L 828.883279 -75.94 
L 835.308852 -75.94 
L 841.734426 -75.94 
L 848.16 -75.94 
L 848.16 -103.966645 
L 848.16 -103.966645 
L 841.734426 -95.091061 
L 835.308852 -88.994193 
L 828.883279 -88.564493 
L 822.457705 -89.119433 
L 816.032131 -102.514471 
L 809.606557 -110.62616 
L 803.180984 -88.821273 
L 796.75541 -103.450332 
L 790.329836 -79.274233 
L 783.904262 -80.159704 
L 777.478689 -106.506598 
L 771.053115 -87.697361 
L 764.627541 -96.706053 
L 758.201967 -95.51463 
L 751.776393 -88.093927 
L 745.35082 -93.567896 
L 738.925246 -83.990869 
L 732.499672 -90.227553 
L 726.074098 -97.399443 
L 719.648525 -103.223951 
L 713.222951 -97.534681 
L 706.797377 -91.604295 
L 700.371803 -86.756405 
L 693.94623 -91.476315 
L 687.520656 -92.413797 
L 681.095082 -94.930681 
L 674.669508 -92.591958 
L 668.243934 -101.912534 
L 661.818361 -89.686764 
L 655.392787 -86.574997 
L 648.967213 -90.715963 
L 642.541639 -95.785782 
L 636.116066 -108.07117 
L 629.690492 -96.698821 
L 623.264918 -100.96096 
L 616.839344 -84.320833 
L 610.41377 -82.615217 
L 603.988197 -90.720367 
L 597.562623 -98.615316 
L 591.137049 -239.951266 
L 584.711475 45.00692 
L 578.285902 -104.875893 
L 571.860328 -101.975696 
L 565.434754 -89.385129 
L 559.00918 -89.753115 
L 552.583607 -115.764294 
L 546.158033 -98.552821 
L 539.732459 -103.949659 
L 533.306885 -106.721591 
L 526.881311 -103.049315 
L 520.455738 -89.572945 
L 514.030164 -92.767389 
L 507.60459 -98.81851 
L 501.179016 -103.788969 
L 494.753443 -106.999701 
L 488.327869 -102.889821 
L 481.902295 -107.665821 
L 475.476721 -87.160344 
L 469.051148 -89.057368 
L 462.625574 -107.947 
L 456.2 -95.889454 
z
" id="m9a2fe69c27" style="stroke:#d62728;"/>
    </defs>
    <g clip-path="url(#p7db17cf44f)">
     <use style="fill:#d62728;stroke:#d62728;" x="0" xlink:href="#m9a2fe69c27" y="648"/>
    </g>
   </g>
   <g id="matplotlib.axis_7">
    <g id="xtick_37">
     <g id="line2d_67">
      <g>
       <use style="stroke:#000000;stroke-width:0.8;" x="456.2" xlink:href="#m112cee915f" y="572.06"/>
      </g>
     </g>
     <g id="text_34">
      <!-- 2020-05-02 -->
      <g transform="translate(458.959375 637.175625)rotate(-90)scale(0.1 -0.1)">
       <use xlink:href="#DejaVuSans-50"/>
       <use x="63.623047" xlink:href="#DejaVuSans-48"/>
       <use x="127.246094" xlink:href="#DejaVuSans-50"/>
       <use x="190.869141" xlink:href="#DejaVuSans-48"/>
       <use x="254.492188" xlink:href="#DejaVuSans-45"/>
       <use x="290.576172" xlink:href="#DejaVuSans-48"/>
       <use x="354.199219" xlink:href="#DejaVuSans-53"/>
       <use x="417.822266" xlink:href="#DejaVuSans-45"/>
       <use x="453.90625" xlink:href="#DejaVuSans-48"/>
       <use x="517.529297" xlink:href="#DejaVuSans-50"/>
      </g>
     </g>
    </g>
    <g id="xtick_38">
     <g id="line2d_68">
      <g>
       <use style="stroke:#000000;stroke-width:0.8;" x="491.832727" xlink:href="#m112cee915f" y="572.06"/>
      </g>
     </g>
     <g id="text_35">
      <!-- 2020-05-07 -->
      <g transform="translate(494.592102 637.175625)rotate(-90)scale(0.1 -0.1)">
       <use xlink:href="#DejaVuSans-50"/>
       <use x="63.623047" xlink:href="#DejaVuSans-48"/>
       <use x="127.246094" xlink:href="#DejaVuSans-50"/>
       <use x="190.869141" xlink:href="#DejaVuSans-48"/>
       <use x="254.492188" xlink:href="#DejaVuSans-45"/>
       <use x="290.576172" xlink:href="#DejaVuSans-48"/>
       <use x="354.199219" xlink:href="#DejaVuSans-53"/>
       <use x="417.822266" xlink:href="#DejaVuSans-45"/>
       <use x="453.90625" xlink:href="#DejaVuSans-48"/>
       <use x="517.529297" xlink:href="#DejaVuSans-55"/>
      </g>
     </g>
    </g>
    <g id="xtick_39">
     <g id="line2d_69">
      <g>
       <use style="stroke:#000000;stroke-width:0.8;" x="527.465455" xlink:href="#m112cee915f" y="572.06"/>
      </g>
     </g>
     <g id="text_36">
      <!-- 2020-05-13 -->
      <g transform="translate(530.22483 637.175625)rotate(-90)scale(0.1 -0.1)">
       <use xlink:href="#DejaVuSans-50"/>
       <use x="63.623047" xlink:href="#DejaVuSans-48"/>
       <use x="127.246094" xlink:href="#DejaVuSans-50"/>
       <use x="190.869141" xlink:href="#DejaVuSans-48"/>
       <use x="254.492188" xlink:href="#DejaVuSans-45"/>
       <use x="290.576172" xlink:href="#DejaVuSans-48"/>
       <use x="354.199219" xlink:href="#DejaVuSans-53"/>
       <use x="417.822266" xlink:href="#DejaVuSans-45"/>
       <use x="453.90625" xlink:href="#DejaVuSans-49"/>
       <use x="517.529297" xlink:href="#DejaVuSans-51"/>
      </g>
     </g>
    </g>
    <g id="xtick_40">
     <g id="line2d_70">
      <g>
       <use style="stroke:#000000;stroke-width:0.8;" x="563.098182" xlink:href="#m112cee915f" y="572.06"/>
      </g>
     </g>
     <g id="text_37">
      <!-- 2020-05-18 -->
      <g transform="translate(565.857557 637.175625)rotate(-90)scale(0.1 -0.1)">
       <use xlink:href="#DejaVuSans-50"/>
       <use x="63.623047" xlink:href="#DejaVuSans-48"/>
       <use x="127.246094" xlink:href="#DejaVuSans-50"/>
       <use x="190.869141" xlink:href="#DejaVuSans-48"/>
       <use x="254.492188" xlink:href="#DejaVuSans-45"/>
       <use x="290.576172" xlink:href="#DejaVuSans-48"/>
       <use x="354.199219" xlink:href="#DejaVuSans-53"/>
       <use x="417.822266" xlink:href="#DejaVuSans-45"/>
       <use x="453.90625" xlink:href="#DejaVuSans-49"/>
       <use x="517.529297" xlink:href="#DejaVuSans-56"/>
      </g>
     </g>
    </g>
    <g id="xtick_41">
     <g id="line2d_71">
      <g>
       <use style="stroke:#000000;stroke-width:0.8;" x="598.730909" xlink:href="#m112cee915f" y="572.06"/>
      </g>
     </g>
     <g id="text_38">
      <!-- 2020-05-24 -->
      <g transform="translate(601.490284 637.175625)rotate(-90)scale(0.1 -0.1)">
       <use xlink:href="#DejaVuSans-50"/>
       <use x="63.623047" xlink:href="#DejaVuSans-48"/>
       <use x="127.246094" xlink:href="#DejaVuSans-50"/>
       <use x="190.869141" xlink:href="#DejaVuSans-48"/>
       <use x="254.492188" xlink:href="#DejaVuSans-45"/>
       <use x="290.576172" xlink:href="#DejaVuSans-48"/>
       <use x="354.199219" xlink:href="#DejaVuSans-53"/>
       <use x="417.822266" xlink:href="#DejaVuSans-45"/>
       <use x="453.90625" xlink:href="#DejaVuSans-50"/>
       <use x="517.529297" xlink:href="#DejaVuSans-52"/>
      </g>
     </g>
    </g>
    <g id="xtick_42">
     <g id="line2d_72">
      <g>
       <use style="stroke:#000000;stroke-width:0.8;" x="634.363636" xlink:href="#m112cee915f" y="572.06"/>
      </g>
     </g>
     <g id="text_39">
      <!-- 2020-05-29 -->
      <g transform="translate(637.123011 637.175625)rotate(-90)scale(0.1 -0.1)">
       <use xlink:href="#DejaVuSans-50"/>
       <use x="63.623047" xlink:href="#DejaVuSans-48"/>
       <use x="127.246094" xlink:href="#DejaVuSans-50"/>
       <use x="190.869141" xlink:href="#DejaVuSans-48"/>
       <use x="254.492188" xlink:href="#DejaVuSans-45"/>
       <use x="290.576172" xlink:href="#DejaVuSans-48"/>
       <use x="354.199219" xlink:href="#DejaVuSans-53"/>
       <use x="417.822266" xlink:href="#DejaVuSans-45"/>
       <use x="453.90625" xlink:href="#DejaVuSans-50"/>
       <use x="517.529297" xlink:href="#DejaVuSans-57"/>
      </g>
     </g>
    </g>
    <g id="xtick_43">
     <g id="line2d_73">
      <g>
       <use style="stroke:#000000;stroke-width:0.8;" x="669.996364" xlink:href="#m112cee915f" y="572.06"/>
      </g>
     </g>
     <g id="text_40">
      <!-- 2020-06-04 -->
      <g transform="translate(672.755739 637.175625)rotate(-90)scale(0.1 -0.1)">
       <use xlink:href="#DejaVuSans-50"/>
       <use x="63.623047" xlink:href="#DejaVuSans-48"/>
       <use x="127.246094" xlink:href="#DejaVuSans-50"/>
       <use x="190.869141" xlink:href="#DejaVuSans-48"/>
       <use x="254.492188" xlink:href="#DejaVuSans-45"/>
       <use x="290.576172" xlink:href="#DejaVuSans-48"/>
       <use x="354.199219" xlink:href="#DejaVuSans-54"/>
       <use x="417.822266" xlink:href="#DejaVuSans-45"/>
       <use x="453.90625" xlink:href="#DejaVuSans-48"/>
       <use x="517.529297" xlink:href="#DejaVuSans-52"/>
      </g>
     </g>
    </g>
    <g id="xtick_44">
     <g id="line2d_74">
      <g>
       <use style="stroke:#000000;stroke-width:0.8;" x="705.629091" xlink:href="#m112cee915f" y="572.06"/>
      </g>
     </g>
     <g id="text_41">
      <!-- 2020-06-09 -->
      <g transform="translate(708.388466 637.175625)rotate(-90)scale(0.1 -0.1)">
       <use xlink:href="#DejaVuSans-50"/>
       <use x="63.623047" xlink:href="#DejaVuSans-48"/>
       <use x="127.246094" xlink:href="#DejaVuSans-50"/>
       <use x="190.869141" xlink:href="#DejaVuSans-48"/>
       <use x="254.492188" xlink:href="#DejaVuSans-45"/>
       <use x="290.576172" xlink:href="#DejaVuSans-48"/>
       <use x="354.199219" xlink:href="#DejaVuSans-54"/>
       <use x="417.822266" xlink:href="#DejaVuSans-45"/>
       <use x="453.90625" xlink:href="#DejaVuSans-48"/>
       <use x="517.529297" xlink:href="#DejaVuSans-57"/>
      </g>
     </g>
    </g>
    <g id="xtick_45">
     <g id="line2d_75">
      <g>
       <use style="stroke:#000000;stroke-width:0.8;" x="741.261818" xlink:href="#m112cee915f" y="572.06"/>
      </g>
     </g>
     <g id="text_42">
      <!-- 2020-06-15 -->
      <g transform="translate(744.021193 637.175625)rotate(-90)scale(0.1 -0.1)">
       <use xlink:href="#DejaVuSans-50"/>
       <use x="63.623047" xlink:href="#DejaVuSans-48"/>
       <use x="127.246094" xlink:href="#DejaVuSans-50"/>
       <use x="190.869141" xlink:href="#DejaVuSans-48"/>
       <use x="254.492188" xlink:href="#DejaVuSans-45"/>
       <use x="290.576172" xlink:href="#DejaVuSans-48"/>
       <use x="354.199219" xlink:href="#DejaVuSans-54"/>
       <use x="417.822266" xlink:href="#DejaVuSans-45"/>
       <use x="453.90625" xlink:href="#DejaVuSans-49"/>
       <use x="517.529297" xlink:href="#DejaVuSans-53"/>
      </g>
     </g>
    </g>
    <g id="xtick_46">
     <g id="line2d_76">
      <g>
       <use style="stroke:#000000;stroke-width:0.8;" x="776.894545" xlink:href="#m112cee915f" y="572.06"/>
      </g>
     </g>
     <g id="text_43">
      <!-- 2020-06-20 -->
      <g transform="translate(779.65392 637.175625)rotate(-90)scale(0.1 -0.1)">
       <use xlink:href="#DejaVuSans-50"/>
       <use x="63.623047" xlink:href="#DejaVuSans-48"/>
       <use x="127.246094" xlink:href="#DejaVuSans-50"/>
       <use x="190.869141" xlink:href="#DejaVuSans-48"/>
       <use x="254.492188" xlink:href="#DejaVuSans-45"/>
       <use x="290.576172" xlink:href="#DejaVuSans-48"/>
       <use x="354.199219" xlink:href="#DejaVuSans-54"/>
       <use x="417.822266" xlink:href="#DejaVuSans-45"/>
       <use x="453.90625" xlink:href="#DejaVuSans-50"/>
       <use x="517.529297" xlink:href="#DejaVuSans-48"/>
      </g>
     </g>
    </g>
    <g id="xtick_47">
     <g id="line2d_77">
      <g>
       <use style="stroke:#000000;stroke-width:0.8;" x="812.527273" xlink:href="#m112cee915f" y="572.06"/>
      </g>
     </g>
     <g id="text_44">
      <!-- 2020-06-26 -->
      <g transform="translate(815.286648 637.175625)rotate(-90)scale(0.1 -0.1)">
       <use xlink:href="#DejaVuSans-50"/>
       <use x="63.623047" xlink:href="#DejaVuSans-48"/>
       <use x="127.246094" xlink:href="#DejaVuSans-50"/>
       <use x="190.869141" xlink:href="#DejaVuSans-48"/>
       <use x="254.492188" xlink:href="#DejaVuSans-45"/>
       <use x="290.576172" xlink:href="#DejaVuSans-48"/>
       <use x="354.199219" xlink:href="#DejaVuSans-54"/>
       <use x="417.822266" xlink:href="#DejaVuSans-45"/>
       <use x="453.90625" xlink:href="#DejaVuSans-50"/>
       <use x="517.529297" xlink:href="#DejaVuSans-54"/>
      </g>
     </g>
    </g>
    <g id="xtick_48">
     <g id="line2d_78">
      <g>
       <use style="stroke:#000000;stroke-width:0.8;" x="848.16" xlink:href="#m112cee915f" y="572.06"/>
      </g>
     </g>
     <g id="text_45">
      <!-- 2020-07-02 -->
      <g transform="translate(850.919375 637.175625)rotate(-90)scale(0.1 -0.1)">
       <use xlink:href="#DejaVuSans-50"/>
       <use x="63.623047" xlink:href="#DejaVuSans-48"/>
       <use x="127.246094" xlink:href="#DejaVuSans-50"/>
       <use x="190.869141" xlink:href="#DejaVuSans-48"/>
       <use x="254.492188" xlink:href="#DejaVuSans-45"/>
       <use x="290.576172" xlink:href="#DejaVuSans-48"/>
       <use x="354.199219" xlink:href="#DejaVuSans-55"/>
       <use x="417.822266" xlink:href="#DejaVuSans-45"/>
       <use x="453.90625" xlink:href="#DejaVuSans-48"/>
       <use x="517.529297" xlink:href="#DejaVuSans-50"/>
      </g>
     </g>
    </g>
   </g>
   <g id="matplotlib.axis_8">
    <g id="ytick_28">
     <g id="line2d_79">
      <g>
       <use style="stroke:#000000;stroke-width:0.8;" x="456.2" xlink:href="#m1bc1e20dde" y="572.06"/>
      </g>
     </g>
    </g>
    <g id="ytick_29">
     <g id="line2d_80">
      <g>
       <use style="stroke:#000000;stroke-width:0.8;" x="456.2" xlink:href="#m1bc1e20dde" y="540.44893"/>
      </g>
     </g>
    </g>
    <g id="ytick_30">
     <g id="line2d_81">
      <g>
       <use style="stroke:#000000;stroke-width:0.8;" x="456.2" xlink:href="#m1bc1e20dde" y="508.83786"/>
      </g>
     </g>
    </g>
    <g id="ytick_31">
     <g id="line2d_82">
      <g>
       <use style="stroke:#000000;stroke-width:0.8;" x="456.2" xlink:href="#m1bc1e20dde" y="477.22679"/>
      </g>
     </g>
    </g>
    <g id="ytick_32">
     <g id="line2d_83">
      <g>
       <use style="stroke:#000000;stroke-width:0.8;" x="456.2" xlink:href="#m1bc1e20dde" y="445.615721"/>
      </g>
     </g>
    </g>
    <g id="ytick_33">
     <g id="line2d_84">
      <g>
       <use style="stroke:#000000;stroke-width:0.8;" x="456.2" xlink:href="#m1bc1e20dde" y="414.004651"/>
      </g>
     </g>
    </g>
    <g id="ytick_34">
     <g id="line2d_85">
      <g>
       <use style="stroke:#000000;stroke-width:0.8;" x="456.2" xlink:href="#m1bc1e20dde" y="382.393581"/>
      </g>
     </g>
    </g>
    <g id="ytick_35">
     <g id="line2d_86">
      <g>
       <use style="stroke:#000000;stroke-width:0.8;" x="456.2" xlink:href="#m1bc1e20dde" y="350.782511"/>
      </g>
     </g>
    </g>
    <g id="ytick_36">
     <g id="line2d_87">
      <g>
       <use style="stroke:#000000;stroke-width:0.8;" x="456.2" xlink:href="#m1bc1e20dde" y="319.171441"/>
      </g>
     </g>
    </g>
   </g>
   <g id="line2d_88">
    <path clip-path="url(#p7db17cf44f)" d="M 456.2 552.110546 
L 462.625574 540.053 
L 469.051148 558.942632 
L 475.476721 560.839656 
L 481.902295 540.334179 
L 488.327869 545.110179 
L 494.753443 541.000299 
L 501.179016 544.211031 
L 507.60459 549.18149 
L 514.030164 555.232611 
L 520.455738 558.427055 
L 526.881311 544.950685 
L 533.306885 541.278409 
L 539.732459 544.050341 
L 546.158033 549.447179 
L 552.583607 532.235706 
L 559.00918 558.246885 
L 565.434754 558.614871 
L 571.860328 546.024304 
L 578.285902 543.124107 
L 582.82487 649 
M 585.703795 649 
L 591.137049 408.048734 
L 597.562623 549.384684 
L 603.988197 557.279633 
L 610.41377 565.384783 
L 616.839344 563.679167 
L 623.264918 547.03904 
L 629.690492 551.301179 
L 636.116066 539.92883 
L 642.541639 552.214218 
L 648.967213 557.284037 
L 655.392787 561.425003 
L 661.818361 558.313236 
L 668.243934 546.087466 
L 674.669508 555.408042 
L 681.095082 553.069319 
L 687.520656 555.586203 
L 693.94623 556.523685 
L 700.371803 561.243595 
L 706.797377 556.395705 
L 713.222951 550.465319 
L 719.648525 544.776049 
L 726.074098 550.600557 
L 732.499672 557.772447 
L 738.925246 564.009131 
L 745.35082 554.432104 
L 751.776393 559.906073 
L 758.201967 552.48537 
L 764.627541 551.293947 
L 771.053115 560.302639 
L 777.478689 541.493402 
L 783.904262 567.840296 
L 790.329836 568.725767 
L 796.75541 544.549668 
L 803.180984 559.178727 
L 809.606557 537.37384 
L 816.032131 545.485529 
L 822.457705 558.880567 
L 828.883279 559.435507 
L 835.308852 559.005807 
L 841.734426 552.908939 
L 848.16 544.033355 
" style="fill:none;stroke:#d62728;stroke-linecap:square;stroke-width:1.5;"/>
   </g>
   <g id="patch_18">
    <path d="M 456.2 572.06 
L 456.2 314.53 
" style="fill:none;stroke:#000000;stroke-linecap:square;stroke-linejoin:miter;stroke-width:0.8;"/>
   </g>
   <g id="patch_19">
    <path d="M 848.16 572.06 
L 848.16 314.53 
" style="fill:none;stroke:#000000;stroke-linecap:square;stroke-linejoin:miter;stroke-width:0.8;"/>
   </g>
   <g id="patch_20">
    <path d="M 456.2 572.06 
L 848.16 572.06 
" style="fill:none;stroke:#000000;stroke-linecap:square;stroke-linejoin:miter;stroke-width:0.8;"/>
   </g>
   <g id="patch_21">
    <path d="M 456.2 314.53 
L 848.16 314.53 
" style="fill:none;stroke:#000000;stroke-linecap:square;stroke-linejoin:miter;stroke-width:0.8;"/>
   </g>
   <g id="text_46">
    <!-- West -->
    <defs>
     <path d="M 3.328125 72.90625 
L 13.28125 72.90625 
L 28.609375 11.28125 
L 43.890625 72.90625 
L 54.984375 72.90625 
L 70.3125 11.28125 
L 85.59375 72.90625 
L 95.609375 72.90625 
L 77.296875 0 
L 64.890625 0 
L 49.515625 63.28125 
L 33.984375 0 
L 21.578125 0 
z
" id="DejaVuSans-87"/>
    </defs>
    <g transform="translate(637.430313 308.53)scale(0.12 -0.12)">
     <use xlink:href="#DejaVuSans-87"/>
     <use x="93.001953" xlink:href="#DejaVuSans-101"/>
     <use x="154.525391" xlink:href="#DejaVuSans-115"/>
     <use x="206.625" xlink:href="#DejaVuSans-116"/>
    </g>
   </g>
  </g>
 </g>
 <defs>
  <clipPath id="p20cc1c6f62">
   <rect height="257.53" width="391.96" x="43.36" y="25.44"/>
  </clipPath>
  <clipPath id="pff284e6c51">
   <rect height="257.53" width="391.96" x="456.2" y="25.44"/>
  </clipPath>
  <clipPath id="pe3f3d1230a">
   <rect height="257.53" width="391.96" x="43.36" y="314.53"/>
  </clipPath>
  <clipPath id="p7db17cf44f">
   <rect height="257.53" width="391.96" x="456.2" y="314.53"/>
  </clipPath>
 </defs>
</svg>
