<?xml version="1.0" encoding="utf-8" standalone="no"?>
<!DOCTYPE svg PUBLIC "-//W3C//DTD SVG 1.1//EN"
  "http://www.w3.org/Graphics/SVG/1.1/DTD/svg11.dtd">
<!-- Created with matplotlib (http://matplotlib.org/) -->
<svg height="648pt" version="1.1" viewBox="0 0 864 648" width="864pt" xmlns="http://www.w3.org/2000/svg" xmlns:xlink="http://www.w3.org/1999/xlink">
 <defs>
  <style type="text/css">
*{stroke-linecap:butt;stroke-linejoin:round;}
  </style>
 </defs>
 <g id="figure_1">
  <g id="patch_1">
   <path d="M 0 648 
L 864 648 
L 864 0 
L 0 0 
z
" style="fill:#ffffff;"/>
  </g>
  <g id="axes_1">
   <g id="patch_2">
    <path d="M 40.03 283.195 
L 433.655 283.195 
L 433.655 25.44 
L 40.03 25.44 
z
" style="fill:#ffffff;"/>
   </g>
   <g id="PolyCollection_1">
    <defs>
     <path d="M 40.03 -454.373913 
L 40.03 -364.805 
L 44.660882 -364.805 
L 49.291765 -364.805 
L 53.922647 -364.805 
L 58.553529 -364.805 
L 63.184412 -364.805 
L 67.815294 -364.805 
L 72.446176 -364.805 
L 77.077059 -364.805 
L 81.707941 -364.805 
L 86.338824 -364.805 
L 90.969706 -364.805 
L 95.600588 -364.805 
L 100.231471 -364.805 
L 104.862353 -364.805 
L 109.493235 -364.805 
L 114.124118 -364.805 
L 118.755 -364.805 
L 123.385882 -364.805 
L 128.016765 -364.805 
L 132.647647 -364.805 
L 137.278529 -364.805 
L 141.909412 -364.805 
L 146.540294 -364.805 
L 151.171176 -364.805 
L 155.802059 -364.805 
L 160.432941 -364.805 
L 165.063824 -364.805 
L 169.694706 -364.805 
L 174.325588 -364.805 
L 178.956471 -364.805 
L 183.587353 -364.805 
L 188.218235 -364.805 
L 192.849118 -364.805 
L 197.48 -364.805 
L 202.110882 -364.805 
L 206.741765 -364.805 
L 211.372647 -364.805 
L 216.003529 -364.805 
L 220.634412 -364.805 
L 225.265294 -364.805 
L 229.896176 -364.805 
L 234.527059 -364.805 
L 239.157941 -364.805 
L 243.788824 -364.805 
L 248.419706 -364.805 
L 253.050588 -364.805 
L 257.681471 -364.805 
L 262.312353 -364.805 
L 266.943235 -364.805 
L 271.574118 -364.805 
L 276.205 -364.805 
L 280.835882 -364.805 
L 285.466765 -364.805 
L 290.097647 -364.805 
L 294.728529 -364.805 
L 299.359412 -364.805 
L 303.990294 -364.805 
L 308.621176 -364.805 
L 313.252059 -364.805 
L 317.882941 -364.805 
L 322.513824 -364.805 
L 327.144706 -364.805 
L 331.775588 -364.805 
L 336.406471 -364.805 
L 341.037353 -364.805 
L 345.668235 -364.805 
L 350.299118 -364.805 
L 354.93 -364.805 
L 359.560882 -364.805 
L 364.191765 -364.805 
L 368.822647 -364.805 
L 373.453529 -364.805 
L 378.084412 -364.805 
L 382.715294 -364.805 
L 387.346176 -364.805 
L 391.977059 -364.805 
L 396.607941 -364.805 
L 401.238824 -364.805 
L 405.869706 -364.805 
L 410.500588 -364.805 
L 415.131471 -364.805 
L 419.762353 -364.805 
L 424.393235 -364.805 
L 429.024118 -364.805 
L 433.655 -364.805 
L 433.655 -415.759675 
L 433.655 -415.759675 
L 429.024118 -416.350406 
L 424.393235 -416.770484 
L 419.762353 -417.157538 
L 415.131471 -417.498011 
L 410.500588 -417.886451 
L 405.869706 -418.433609 
L 401.238824 -419.16492 
L 396.607941 -419.791557 
L 391.977059 -420.510167 
L 387.346176 -421.121645 
L 382.715294 -421.587489 
L 378.084412 -422.331025 
L 373.453529 -422.969861 
L 368.822647 -423.904467 
L 364.191765 -424.962929 
L 359.560882 -427.853993 
L 354.93 -429.14408 
L 350.299118 -429.496878 
L 345.668235 -430.026193 
L 341.037353 -430.934302 
L 336.406471 -435.118329 
L 331.775588 -436.633291 
L 327.144706 -437.333902 
L 322.513824 -436.734804 
L 317.882941 -437.31197 
L 313.252059 -438.106167 
L 308.621176 -438.817563 
L 303.990294 -439.613954 
L 299.359412 -440.10012 
L 294.728529 -440.502421 
L 290.097647 -440.940906 
L 285.466765 -441.386169 
L 280.835882 -441.669952 
L 276.205 -441.817706 
L 271.574118 -442.386747 
L 266.943235 -443.311311 
L 262.312353 -444.519127 
L 257.681471 -445.555742 
L 253.050588 -446.559302 
L 248.419706 -447.934124 
L 243.788824 -450.633418 
L 239.157941 -452.639282 
L 234.527059 -453.568561 
L 229.896176 -454.850029 
L 225.265294 -455.828946 
L 220.634412 -456.719734 
L 216.003529 -459.215582 
L 211.372647 -460.170694 
L 206.741765 -461.2623 
L 202.110882 -462.737334 
L 197.48 -463.884542 
L 192.849118 -464.136404 
L 188.218235 -465.292865 
L 183.587353 -466.679795 
L 178.956471 -467.610038 
L 174.325588 -468.000572 
L 169.694706 -467.880454 
L 165.063824 -468.789373 
L 160.432941 -468.745108 
L 155.802059 -469.456443 
L 151.171176 -470.104555 
L 146.540294 -471.954547 
L 141.909412 -473.337162 
L 137.278529 -472.888445 
L 132.647647 -472.83902 
L 128.016765 -471.652495 
L 123.385882 -471.341554 
L 118.755 -471.125602 
L 114.124118 -470.431515 
L 109.493235 -470.383639 
L 104.862353 -470.735141 
L 100.231471 -468.995743 
L 95.600588 -467.664285 
L 90.969706 -466.675301 
L 86.338824 -484.552508 
L 81.707941 -483.471939 
L 77.077059 -481.585406 
L 72.446176 -479.1517 
L 67.815294 -477.362637 
L 63.184412 -474.166103 
L 58.553529 -470.61547 
L 53.922647 -467.042794 
L 49.291765 -463.242672 
L 44.660882 -459.040094 
L 40.03 -454.373913 
z
" id="m99c17a7258" style="stroke:#1f77b4;"/>
    </defs>
    <g clip-path="url(#p995b36823f)">
     <use style="fill:#1f77b4;stroke:#1f77b4;" x="0" xlink:href="#m99c17a7258" y="648"/>
    </g>
   </g>
   <g id="matplotlib.axis_1">
    <g id="xtick_1">
     <g id="line2d_1">
      <defs>
       <path d="M 0 0 
L 0 3.5 
" id="mce27e5c2e6" style="stroke:#000000;stroke-width:0.8;"/>
      </defs>
      <g>
       <use style="stroke:#000000;stroke-width:0.8;" x="40.03" xlink:href="#mce27e5c2e6" y="283.195"/>
      </g>
     </g>
    </g>
    <g id="xtick_2">
     <g id="line2d_2">
      <g>
       <use style="stroke:#000000;stroke-width:0.8;" x="75.814091" xlink:href="#mce27e5c2e6" y="283.195"/>
      </g>
     </g>
    </g>
    <g id="xtick_3">
     <g id="line2d_3">
      <g>
       <use style="stroke:#000000;stroke-width:0.8;" x="111.598182" xlink:href="#mce27e5c2e6" y="283.195"/>
      </g>
     </g>
    </g>
    <g id="xtick_4">
     <g id="line2d_4">
      <g>
       <use style="stroke:#000000;stroke-width:0.8;" x="147.382273" xlink:href="#mce27e5c2e6" y="283.195"/>
      </g>
     </g>
    </g>
    <g id="xtick_5">
     <g id="line2d_5">
      <g>
       <use style="stroke:#000000;stroke-width:0.8;" x="183.166364" xlink:href="#mce27e5c2e6" y="283.195"/>
      </g>
     </g>
    </g>
    <g id="xtick_6">
     <g id="line2d_6">
      <g>
       <use style="stroke:#000000;stroke-width:0.8;" x="218.950455" xlink:href="#mce27e5c2e6" y="283.195"/>
      </g>
     </g>
    </g>
    <g id="xtick_7">
     <g id="line2d_7">
      <g>
       <use style="stroke:#000000;stroke-width:0.8;" x="254.734545" xlink:href="#mce27e5c2e6" y="283.195"/>
      </g>
     </g>
    </g>
    <g id="xtick_8">
     <g id="line2d_8">
      <g>
       <use style="stroke:#000000;stroke-width:0.8;" x="290.518636" xlink:href="#mce27e5c2e6" y="283.195"/>
      </g>
     </g>
    </g>
    <g id="xtick_9">
     <g id="line2d_9">
      <g>
       <use style="stroke:#000000;stroke-width:0.8;" x="326.302727" xlink:href="#mce27e5c2e6" y="283.195"/>
      </g>
     </g>
    </g>
    <g id="xtick_10">
     <g id="line2d_10">
      <g>
       <use style="stroke:#000000;stroke-width:0.8;" x="362.086818" xlink:href="#mce27e5c2e6" y="283.195"/>
      </g>
     </g>
    </g>
    <g id="xtick_11">
     <g id="line2d_11">
      <g>
       <use style="stroke:#000000;stroke-width:0.8;" x="397.870909" xlink:href="#mce27e5c2e6" y="283.195"/>
      </g>
     </g>
    </g>
    <g id="xtick_12">
     <g id="line2d_12">
      <g>
       <use style="stroke:#000000;stroke-width:0.8;" x="433.655" xlink:href="#mce27e5c2e6" y="283.195"/>
      </g>
     </g>
    </g>
   </g>
   <g id="matplotlib.axis_2">
    <g id="ytick_1">
     <g id="line2d_13">
      <defs>
       <path d="M 0 0 
L -3.5 0 
" id="maf435741c2" style="stroke:#000000;stroke-width:0.8;"/>
      </defs>
      <g>
       <use style="stroke:#000000;stroke-width:0.8;" x="40.03" xlink:href="#maf435741c2" y="283.195"/>
      </g>
     </g>
     <g id="text_1">
      <!-- 0.00 -->
      <defs>
       <path d="M 31.78125 66.40625 
Q 24.171875 66.40625 20.328125 58.90625 
Q 16.5 51.421875 16.5 36.375 
Q 16.5 21.390625 20.328125 13.890625 
Q 24.171875 6.390625 31.78125 6.390625 
Q 39.453125 6.390625 43.28125 13.890625 
Q 47.125 21.390625 47.125 36.375 
Q 47.125 51.421875 43.28125 58.90625 
Q 39.453125 66.40625 31.78125 66.40625 
z
M 31.78125 74.21875 
Q 44.046875 74.21875 50.515625 64.515625 
Q 56.984375 54.828125 56.984375 36.375 
Q 56.984375 17.96875 50.515625 8.265625 
Q 44.046875 -1.421875 31.78125 -1.421875 
Q 19.53125 -1.421875 13.0625 8.265625 
Q 6.59375 17.96875 6.59375 36.375 
Q 6.59375 54.828125 13.0625 64.515625 
Q 19.53125 74.21875 31.78125 74.21875 
z
" id="DejaVuSans-30"/>
       <path d="M 10.6875 12.40625 
L 21 12.40625 
L 21 0 
L 10.6875 0 
z
" id="DejaVuSans-2e"/>
      </defs>
      <g transform="translate(10.764375 286.994219)scale(0.1 -0.1)">
       <use xlink:href="#DejaVuSans-30"/>
       <use x="63.623047" xlink:href="#DejaVuSans-2e"/>
       <use x="95.410156" xlink:href="#DejaVuSans-30"/>
       <use x="159.033203" xlink:href="#DejaVuSans-30"/>
      </g>
     </g>
    </g>
    <g id="ytick_2">
     <g id="line2d_14">
      <g>
       <use style="stroke:#000000;stroke-width:0.8;" x="40.03" xlink:href="#maf435741c2" y="250.857378"/>
      </g>
     </g>
     <g id="text_2">
      <!-- 0.05 -->
      <defs>
       <path d="M 10.796875 72.90625 
L 49.515625 72.90625 
L 49.515625 64.59375 
L 19.828125 64.59375 
L 19.828125 46.734375 
Q 21.96875 47.46875 24.109375 47.828125 
Q 26.265625 48.1875 28.421875 48.1875 
Q 40.625 48.1875 47.75 41.5 
Q 54.890625 34.8125 54.890625 23.390625 
Q 54.890625 11.625 47.5625 5.09375 
Q 40.234375 -1.421875 26.90625 -1.421875 
Q 22.3125 -1.421875 17.546875 -0.640625 
Q 12.796875 0.140625 7.71875 1.703125 
L 7.71875 11.625 
Q 12.109375 9.234375 16.796875 8.0625 
Q 21.484375 6.890625 26.703125 6.890625 
Q 35.15625 6.890625 40.078125 11.328125 
Q 45.015625 15.765625 45.015625 23.390625 
Q 45.015625 31 40.078125 35.4375 
Q 35.15625 39.890625 26.703125 39.890625 
Q 22.75 39.890625 18.8125 39.015625 
Q 14.890625 38.140625 10.796875 36.28125 
z
" id="DejaVuSans-35"/>
      </defs>
      <g transform="translate(10.764375 254.656597)scale(0.1 -0.1)">
       <use xlink:href="#DejaVuSans-30"/>
       <use x="63.623047" xlink:href="#DejaVuSans-2e"/>
       <use x="95.410156" xlink:href="#DejaVuSans-30"/>
       <use x="159.033203" xlink:href="#DejaVuSans-35"/>
      </g>
     </g>
    </g>
    <g id="ytick_3">
     <g id="line2d_15">
      <g>
       <use style="stroke:#000000;stroke-width:0.8;" x="40.03" xlink:href="#maf435741c2" y="218.519756"/>
      </g>
     </g>
     <g id="text_3">
      <!-- 0.10 -->
      <defs>
       <path d="M 12.40625 8.296875 
L 28.515625 8.296875 
L 28.515625 63.921875 
L 10.984375 60.40625 
L 10.984375 69.390625 
L 28.421875 72.90625 
L 38.28125 72.90625 
L 38.28125 8.296875 
L 54.390625 8.296875 
L 54.390625 0 
L 12.40625 0 
z
" id="DejaVuSans-31"/>
      </defs>
      <g transform="translate(10.764375 222.318975)scale(0.1 -0.1)">
       <use xlink:href="#DejaVuSans-30"/>
       <use x="63.623047" xlink:href="#DejaVuSans-2e"/>
       <use x="95.410156" xlink:href="#DejaVuSans-31"/>
       <use x="159.033203" xlink:href="#DejaVuSans-30"/>
      </g>
     </g>
    </g>
    <g id="ytick_4">
     <g id="line2d_16">
      <g>
       <use style="stroke:#000000;stroke-width:0.8;" x="40.03" xlink:href="#maf435741c2" y="186.182134"/>
      </g>
     </g>
     <g id="text_4">
      <!-- 0.15 -->
      <g transform="translate(10.764375 189.981353)scale(0.1 -0.1)">
       <use xlink:href="#DejaVuSans-30"/>
       <use x="63.623047" xlink:href="#DejaVuSans-2e"/>
       <use x="95.410156" xlink:href="#DejaVuSans-31"/>
       <use x="159.033203" xlink:href="#DejaVuSans-35"/>
      </g>
     </g>
    </g>
    <g id="ytick_5">
     <g id="line2d_17">
      <g>
       <use style="stroke:#000000;stroke-width:0.8;" x="40.03" xlink:href="#maf435741c2" y="153.844512"/>
      </g>
     </g>
     <g id="text_5">
      <!-- 0.20 -->
      <defs>
       <path d="M 19.1875 8.296875 
L 53.609375 8.296875 
L 53.609375 0 
L 7.328125 0 
L 7.328125 8.296875 
Q 12.9375 14.109375 22.625 23.890625 
Q 32.328125 33.6875 34.8125 36.53125 
Q 39.546875 41.84375 41.421875 45.53125 
Q 43.3125 49.21875 43.3125 52.78125 
Q 43.3125 58.59375 39.234375 62.25 
Q 35.15625 65.921875 28.609375 65.921875 
Q 23.96875 65.921875 18.8125 64.3125 
Q 13.671875 62.703125 7.8125 59.421875 
L 7.8125 69.390625 
Q 13.765625 71.78125 18.9375 73 
Q 24.125 74.21875 28.421875 74.21875 
Q 39.75 74.21875 46.484375 68.546875 
Q 53.21875 62.890625 53.21875 53.421875 
Q 53.21875 48.921875 51.53125 44.890625 
Q 49.859375 40.875 45.40625 35.40625 
Q 44.1875 33.984375 37.640625 27.21875 
Q 31.109375 20.453125 19.1875 8.296875 
z
" id="DejaVuSans-32"/>
      </defs>
      <g transform="translate(10.764375 157.643731)scale(0.1 -0.1)">
       <use xlink:href="#DejaVuSans-30"/>
       <use x="63.623047" xlink:href="#DejaVuSans-2e"/>
       <use x="95.410156" xlink:href="#DejaVuSans-32"/>
       <use x="159.033203" xlink:href="#DejaVuSans-30"/>
      </g>
     </g>
    </g>
    <g id="ytick_6">
     <g id="line2d_18">
      <g>
       <use style="stroke:#000000;stroke-width:0.8;" x="40.03" xlink:href="#maf435741c2" y="121.50689"/>
      </g>
     </g>
     <g id="text_6">
      <!-- 0.25 -->
      <g transform="translate(10.764375 125.306109)scale(0.1 -0.1)">
       <use xlink:href="#DejaVuSans-30"/>
       <use x="63.623047" xlink:href="#DejaVuSans-2e"/>
       <use x="95.410156" xlink:href="#DejaVuSans-32"/>
       <use x="159.033203" xlink:href="#DejaVuSans-35"/>
      </g>
     </g>
    </g>
    <g id="ytick_7">
     <g id="line2d_19">
      <g>
       <use style="stroke:#000000;stroke-width:0.8;" x="40.03" xlink:href="#maf435741c2" y="89.169268"/>
      </g>
     </g>
     <g id="text_7">
      <!-- 0.30 -->
      <defs>
       <path d="M 40.578125 39.3125 
Q 47.65625 37.796875 51.625 33 
Q 55.609375 28.21875 55.609375 21.1875 
Q 55.609375 10.40625 48.1875 4.484375 
Q 40.765625 -1.421875 27.09375 -1.421875 
Q 22.515625 -1.421875 17.65625 -0.515625 
Q 12.796875 0.390625 7.625 2.203125 
L 7.625 11.71875 
Q 11.71875 9.328125 16.59375 8.109375 
Q 21.484375 6.890625 26.8125 6.890625 
Q 36.078125 6.890625 40.9375 10.546875 
Q 45.796875 14.203125 45.796875 21.1875 
Q 45.796875 27.640625 41.28125 31.265625 
Q 36.765625 34.90625 28.71875 34.90625 
L 20.21875 34.90625 
L 20.21875 43.015625 
L 29.109375 43.015625 
Q 36.375 43.015625 40.234375 45.921875 
Q 44.09375 48.828125 44.09375 54.296875 
Q 44.09375 59.90625 40.109375 62.90625 
Q 36.140625 65.921875 28.71875 65.921875 
Q 24.65625 65.921875 20.015625 65.03125 
Q 15.375 64.15625 9.8125 62.3125 
L 9.8125 71.09375 
Q 15.4375 72.65625 20.34375 73.4375 
Q 25.25 74.21875 29.59375 74.21875 
Q 40.828125 74.21875 47.359375 69.109375 
Q 53.90625 64.015625 53.90625 55.328125 
Q 53.90625 49.265625 50.4375 45.09375 
Q 46.96875 40.921875 40.578125 39.3125 
z
" id="DejaVuSans-33"/>
      </defs>
      <g transform="translate(10.764375 92.968487)scale(0.1 -0.1)">
       <use xlink:href="#DejaVuSans-30"/>
       <use x="63.623047" xlink:href="#DejaVuSans-2e"/>
       <use x="95.410156" xlink:href="#DejaVuSans-33"/>
       <use x="159.033203" xlink:href="#DejaVuSans-30"/>
      </g>
     </g>
    </g>
    <g id="ytick_8">
     <g id="line2d_20">
      <g>
       <use style="stroke:#000000;stroke-width:0.8;" x="40.03" xlink:href="#maf435741c2" y="56.831646"/>
      </g>
     </g>
     <g id="text_8">
      <!-- 0.35 -->
      <g transform="translate(10.764375 60.630865)scale(0.1 -0.1)">
       <use xlink:href="#DejaVuSans-30"/>
       <use x="63.623047" xlink:href="#DejaVuSans-2e"/>
       <use x="95.410156" xlink:href="#DejaVuSans-33"/>
       <use x="159.033203" xlink:href="#DejaVuSans-35"/>
      </g>
     </g>
    </g>
   </g>
   <g id="line2d_21">
    <path clip-path="url(#p995b36823f)" d="M 40.03 193.626087 
L 44.660882 188.959906 
L 49.291765 184.757328 
L 53.922647 180.957206 
L 58.553529 177.38453 
L 63.184412 173.833897 
L 67.815294 170.637363 
L 72.446176 168.8483 
L 77.077059 166.414594 
L 81.707941 164.528061 
L 86.338824 163.447492 
L 90.969706 181.324699 
L 95.600588 180.335715 
L 100.231471 179.004257 
L 104.862353 177.264859 
L 109.493235 177.616361 
L 114.124118 177.568485 
L 118.755 176.874398 
L 123.385882 176.658446 
L 128.016765 176.347505 
L 132.647647 175.16098 
L 137.278529 175.111555 
L 141.909412 174.662838 
L 146.540294 176.045453 
L 151.171176 177.895445 
L 155.802059 178.543557 
L 160.432941 179.254892 
L 165.063824 179.210627 
L 169.694706 180.119546 
L 174.325588 179.999428 
L 178.956471 180.389962 
L 183.587353 181.320205 
L 188.218235 182.707135 
L 192.849118 183.863596 
L 197.48 184.115458 
L 202.110882 185.262666 
L 206.741765 186.7377 
L 211.372647 187.829306 
L 216.003529 188.784418 
L 220.634412 191.280266 
L 225.265294 192.171054 
L 229.896176 193.149971 
L 234.527059 194.431439 
L 239.157941 195.360718 
L 243.788824 197.366582 
L 248.419706 200.065876 
L 253.050588 201.440698 
L 257.681471 202.444258 
L 262.312353 203.480873 
L 266.943235 204.688689 
L 271.574118 205.613253 
L 276.205 206.182294 
L 280.835882 206.330048 
L 285.466765 206.613831 
L 290.097647 207.059094 
L 294.728529 207.497579 
L 299.359412 207.89988 
L 303.990294 208.386046 
L 308.621176 209.182437 
L 313.252059 209.893833 
L 317.882941 210.68803 
L 322.513824 211.265196 
L 327.144706 210.666098 
L 331.775588 211.366709 
L 336.406471 212.881671 
L 341.037353 217.065698 
L 345.668235 217.973807 
L 350.299118 218.503122 
L 354.93 218.85592 
L 359.560882 220.146007 
L 364.191765 223.037071 
L 368.822647 224.095533 
L 373.453529 225.030139 
L 378.084412 225.668975 
L 382.715294 226.412511 
L 387.346176 226.878355 
L 391.977059 227.489833 
L 396.607941 228.208443 
L 401.238824 228.83508 
L 405.869706 229.566391 
L 410.500588 230.113549 
L 415.131471 230.501989 
L 419.762353 230.842462 
L 424.393235 231.229516 
L 429.024118 231.649594 
L 433.655 232.240325 
" style="fill:none;stroke:#1f77b4;stroke-linecap:square;stroke-width:1.5;"/>
   </g>
   <g id="patch_3">
    <path d="M 40.03 283.195 
L 40.03 25.44 
" style="fill:none;stroke:#000000;stroke-linecap:square;stroke-linejoin:miter;stroke-width:0.8;"/>
   </g>
   <g id="patch_4">
    <path d="M 433.655 283.195 
L 433.655 25.44 
" style="fill:none;stroke:#000000;stroke-linecap:square;stroke-linejoin:miter;stroke-width:0.8;"/>
   </g>
   <g id="patch_5">
    <path d="M 40.03 283.195 
L 433.655 283.195 
" style="fill:none;stroke:#000000;stroke-linecap:square;stroke-linejoin:miter;stroke-width:0.8;"/>
   </g>
   <g id="patch_6">
    <path d="M 40.03 25.44 
L 433.655 25.44 
" style="fill:none;stroke:#000000;stroke-linecap:square;stroke-linejoin:miter;stroke-width:0.8;"/>
   </g>
   <g id="text_9">
    <!-- Midwest -->
    <defs>
     <path d="M 9.8125 72.90625 
L 24.515625 72.90625 
L 43.109375 23.296875 
L 61.8125 72.90625 
L 76.515625 72.90625 
L 76.515625 0 
L 66.890625 0 
L 66.890625 64.015625 
L 48.09375 14.015625 
L 38.1875 14.015625 
L 19.390625 64.015625 
L 19.390625 0 
L 9.8125 0 
z
" id="DejaVuSans-4d"/>
     <path d="M 9.421875 54.6875 
L 18.40625 54.6875 
L 18.40625 0 
L 9.421875 0 
z
M 9.421875 75.984375 
L 18.40625 75.984375 
L 18.40625 64.59375 
L 9.421875 64.59375 
z
" id="DejaVuSans-69"/>
     <path d="M 45.40625 46.390625 
L 45.40625 75.984375 
L 54.390625 75.984375 
L 54.390625 0 
L 45.40625 0 
L 45.40625 8.203125 
Q 42.578125 3.328125 38.25 0.953125 
Q 33.9375 -1.421875 27.875 -1.421875 
Q 17.96875 -1.421875 11.734375 6.484375 
Q 5.515625 14.40625 5.515625 27.296875 
Q 5.515625 40.1875 11.734375 48.09375 
Q 17.96875 56 27.875 56 
Q 33.9375 56 38.25 53.625 
Q 42.578125 51.265625 45.40625 46.390625 
z
M 14.796875 27.296875 
Q 14.796875 17.390625 18.875 11.75 
Q 22.953125 6.109375 30.078125 6.109375 
Q 37.203125 6.109375 41.296875 11.75 
Q 45.40625 17.390625 45.40625 27.296875 
Q 45.40625 37.203125 41.296875 42.84375 
Q 37.203125 48.484375 30.078125 48.484375 
Q 22.953125 48.484375 18.875 42.84375 
Q 14.796875 37.203125 14.796875 27.296875 
z
" id="DejaVuSans-64"/>
     <path d="M 4.203125 54.6875 
L 13.1875 54.6875 
L 24.421875 12.015625 
L 35.59375 54.6875 
L 46.1875 54.6875 
L 57.421875 12.015625 
L 68.609375 54.6875 
L 77.59375 54.6875 
L 63.28125 0 
L 52.6875 0 
L 40.921875 44.828125 
L 29.109375 0 
L 18.5 0 
z
" id="DejaVuSans-77"/>
     <path d="M 56.203125 29.59375 
L 56.203125 25.203125 
L 14.890625 25.203125 
Q 15.484375 15.921875 20.484375 11.0625 
Q 25.484375 6.203125 34.421875 6.203125 
Q 39.59375 6.203125 44.453125 7.46875 
Q 49.3125 8.734375 54.109375 11.28125 
L 54.109375 2.78125 
Q 49.265625 0.734375 44.1875 -0.34375 
Q 39.109375 -1.421875 33.890625 -1.421875 
Q 20.796875 -1.421875 13.15625 6.1875 
Q 5.515625 13.8125 5.515625 26.8125 
Q 5.515625 40.234375 12.765625 48.109375 
Q 20.015625 56 32.328125 56 
Q 43.359375 56 49.78125 48.890625 
Q 56.203125 41.796875 56.203125 29.59375 
z
M 47.21875 32.234375 
Q 47.125 39.59375 43.09375 43.984375 
Q 39.0625 48.390625 32.421875 48.390625 
Q 24.90625 48.390625 20.390625 44.140625 
Q 15.875 39.890625 15.1875 32.171875 
z
" id="DejaVuSans-65"/>
     <path d="M 44.28125 53.078125 
L 44.28125 44.578125 
Q 40.484375 46.53125 36.375 47.5 
Q 32.28125 48.484375 27.875 48.484375 
Q 21.1875 48.484375 17.84375 46.4375 
Q 14.5 44.390625 14.5 40.28125 
Q 14.5 37.15625 16.890625 35.375 
Q 19.28125 33.59375 26.515625 31.984375 
L 29.59375 31.296875 
Q 39.15625 29.25 43.1875 25.515625 
Q 47.21875 21.78125 47.21875 15.09375 
Q 47.21875 7.46875 41.1875 3.015625 
Q 35.15625 -1.421875 24.609375 -1.421875 
Q 20.21875 -1.421875 15.453125 -0.5625 
Q 10.6875 0.296875 5.421875 2 
L 5.421875 11.28125 
Q 10.40625 8.6875 15.234375 7.390625 
Q 20.0625 6.109375 24.8125 6.109375 
Q 31.15625 6.109375 34.5625 8.28125 
Q 37.984375 10.453125 37.984375 14.40625 
Q 37.984375 18.0625 35.515625 20.015625 
Q 33.0625 21.96875 24.703125 23.78125 
L 21.578125 24.515625 
Q 13.234375 26.265625 9.515625 29.90625 
Q 5.8125 33.546875 5.8125 39.890625 
Q 5.8125 47.609375 11.28125 51.796875 
Q 16.75 56 26.8125 56 
Q 31.78125 56 36.171875 55.265625 
Q 40.578125 54.546875 44.28125 53.078125 
z
" id="DejaVuSans-73"/>
     <path d="M 18.3125 70.21875 
L 18.3125 54.6875 
L 36.8125 54.6875 
L 36.8125 47.703125 
L 18.3125 47.703125 
L 18.3125 18.015625 
Q 18.3125 11.328125 20.140625 9.421875 
Q 21.96875 7.515625 27.59375 7.515625 
L 36.8125 7.515625 
L 36.8125 0 
L 27.59375 0 
Q 17.1875 0 13.234375 3.875 
Q 9.28125 7.765625 9.28125 18.015625 
L 9.28125 47.703125 
L 2.6875 47.703125 
L 2.6875 54.6875 
L 9.28125 54.6875 
L 9.28125 70.21875 
z
" id="DejaVuSans-74"/>
    </defs>
    <g transform="translate(212.113125 19.44)scale(0.12 -0.12)">
     <use xlink:href="#DejaVuSans-4d"/>
     <use x="86.279297" xlink:href="#DejaVuSans-69"/>
     <use x="114.0625" xlink:href="#DejaVuSans-64"/>
     <use x="177.539062" xlink:href="#DejaVuSans-77"/>
     <use x="259.326172" xlink:href="#DejaVuSans-65"/>
     <use x="320.849609" xlink:href="#DejaVuSans-73"/>
     <use x="372.949219" xlink:href="#DejaVuSans-74"/>
    </g>
   </g>
  </g>
  <g id="axes_2">
   <g id="patch_7">
    <path d="M 454.535 283.195 
L 848.16 283.195 
L 848.16 25.44 
L 454.535 25.44 
z
" style="fill:#ffffff;"/>
   </g>
   <g id="PolyCollection_2">
    <defs>
     <path d="M 454.535 -610.285952 
L 454.535 -364.805 
L 459.165882 -364.805 
L 463.796765 -364.805 
L 468.427647 -364.805 
L 473.058529 -364.805 
L 477.689412 -364.805 
L 482.320294 -364.805 
L 486.951176 -364.805 
L 491.582059 -364.805 
L 496.212941 -364.805 
L 500.843824 -364.805 
L 505.474706 -364.805 
L 510.105588 -364.805 
L 514.736471 -364.805 
L 519.367353 -364.805 
L 523.998235 -364.805 
L 528.629118 -364.805 
L 533.26 -364.805 
L 537.890882 -364.805 
L 542.521765 -364.805 
L 547.152647 -364.805 
L 551.783529 -364.805 
L 556.414412 -364.805 
L 561.045294 -364.805 
L 565.676176 -364.805 
L 570.307059 -364.805 
L 574.937941 -364.805 
L 579.568824 -364.805 
L 584.199706 -364.805 
L 588.830588 -364.805 
L 593.461471 -364.805 
L 598.092353 -364.805 
L 602.723235 -364.805 
L 607.354118 -364.805 
L 611.985 -364.805 
L 616.615882 -364.805 
L 621.246765 -364.805 
L 625.877647 -364.805 
L 630.508529 -364.805 
L 635.139412 -364.805 
L 639.770294 -364.805 
L 644.401176 -364.805 
L 649.032059 -364.805 
L 653.662941 -364.805 
L 658.293824 -364.805 
L 662.924706 -364.805 
L 667.555588 -364.805 
L 672.186471 -364.805 
L 676.817353 -364.805 
L 681.448235 -364.805 
L 686.079118 -364.805 
L 690.71 -364.805 
L 695.340882 -364.805 
L 699.971765 -364.805 
L 704.602647 -364.805 
L 709.233529 -364.805 
L 713.864412 -364.805 
L 718.495294 -364.805 
L 723.126176 -364.805 
L 727.757059 -364.805 
L 732.387941 -364.805 
L 737.018824 -364.805 
L 741.649706 -364.805 
L 746.280588 -364.805 
L 750.911471 -364.805 
L 755.542353 -364.805 
L 760.173235 -364.805 
L 764.804118 -364.805 
L 769.435 -364.805 
L 774.065882 -364.805 
L 778.696765 -364.805 
L 783.327647 -364.805 
L 787.958529 -364.805 
L 792.589412 -364.805 
L 797.220294 -364.805 
L 801.851176 -364.805 
L 806.482059 -364.805 
L 811.112941 -364.805 
L 815.743824 -364.805 
L 820.374706 -364.805 
L 825.005588 -364.805 
L 829.636471 -364.805 
L 834.267353 -364.805 
L 838.898235 -364.805 
L 843.529118 -364.805 
L 848.16 -364.805 
L 848.16 -437.720985 
L 848.16 -437.720985 
L 843.529118 -438.674575 
L 838.898235 -439.362712 
L 834.267353 -440.284614 
L 829.636471 -441.395975 
L 825.005588 -442.4284 
L 820.374706 -443.697642 
L 815.743824 -445.392196 
L 811.112941 -446.824737 
L 806.482059 -448.035034 
L 801.851176 -448.84536 
L 797.220294 -450.150362 
L 792.589412 -451.630776 
L 787.958529 -453.227827 
L 783.327647 -455.227707 
L 778.696765 -456.625447 
L 774.065882 -458.770681 
L 769.435 -459.945364 
L 764.804118 -461.717902 
L 760.173235 -464.270133 
L 755.542353 -465.780796 
L 750.911471 -468.590849 
L 746.280588 -470.774185 
L 741.649706 -472.425279 
L 737.018824 -474.669684 
L 732.387941 -477.059059 
L 727.757059 -478.627236 
L 723.126176 -481.290377 
L 718.495294 -484.329135 
L 713.864412 -486.846049 
L 709.233529 -489.28511 
L 704.602647 -491.070787 
L 699.971765 -493.337064 
L 695.340882 -495.815028 
L 690.71 -499.15368 
L 686.079118 -502.328234 
L 681.448235 -504.739631 
L 676.817353 -507.106729 
L 672.186471 -509.618581 
L 667.555588 -511.565719 
L 662.924706 -513.815505 
L 658.293824 -516.923565 
L 653.662941 -519.706512 
L 649.032059 -522.905424 
L 644.401176 -526.061704 
L 639.770294 -528.286192 
L 635.139412 -534.810799 
L 630.508529 -539.681611 
L 625.877647 -542.075734 
L 621.246765 -544.96394 
L 616.615882 -548.169506 
L 611.985 -549.91835 
L 607.354118 -551.959763 
L 602.723235 -554.615216 
L 598.092353 -556.992372 
L 593.461471 -559.354456 
L 588.830588 -562.331421 
L 584.199706 -564.854475 
L 579.568824 -567.261277 
L 574.937941 -569.699514 
L 570.307059 -572.375341 
L 565.676176 -574.377116 
L 561.045294 -577.234523 
L 556.414412 -581.066198 
L 551.783529 -582.725931 
L 547.152647 -583.682486 
L 542.521765 -584.485225 
L 537.890882 -585.049269 
L 533.26 -587.590044 
L 528.629118 -588.661536 
L 523.998235 -589.368541 
L 519.367353 -589.876875 
L 514.736471 -589.422044 
L 510.105588 -588.927292 
L 505.474706 -588.594907 
L 500.843824 -587.361267 
L 496.212941 -586.48228 
L 491.582059 -585.527307 
L 486.951176 -583.950533 
L 482.320294 -582.608335 
L 477.689412 -581.159983 
L 473.058529 -578.517397 
L 468.427647 -575.435043 
L 463.796765 -573.99447 
L 459.165882 -574.033816 
L 454.535 -610.285952 
z
" id="m6a19a952a6" style="stroke:#ff7f0e;"/>
    </defs>
    <g clip-path="url(#p1124345188)">
     <use style="fill:#ff7f0e;stroke:#ff7f0e;" x="0" xlink:href="#m6a19a952a6" y="648"/>
    </g>
   </g>
   <g id="matplotlib.axis_3">
    <g id="xtick_13">
     <g id="line2d_22">
      <g>
       <use style="stroke:#000000;stroke-width:0.8;" x="454.535" xlink:href="#mce27e5c2e6" y="283.195"/>
      </g>
     </g>
    </g>
    <g id="xtick_14">
     <g id="line2d_23">
      <g>
       <use style="stroke:#000000;stroke-width:0.8;" x="490.319091" xlink:href="#mce27e5c2e6" y="283.195"/>
      </g>
     </g>
    </g>
    <g id="xtick_15">
     <g id="line2d_24">
      <g>
       <use style="stroke:#000000;stroke-width:0.8;" x="526.103182" xlink:href="#mce27e5c2e6" y="283.195"/>
      </g>
     </g>
    </g>
    <g id="xtick_16">
     <g id="line2d_25">
      <g>
       <use style="stroke:#000000;stroke-width:0.8;" x="561.887273" xlink:href="#mce27e5c2e6" y="283.195"/>
      </g>
     </g>
    </g>
    <g id="xtick_17">
     <g id="line2d_26">
      <g>
       <use style="stroke:#000000;stroke-width:0.8;" x="597.671364" xlink:href="#mce27e5c2e6" y="283.195"/>
      </g>
     </g>
    </g>
    <g id="xtick_18">
     <g id="line2d_27">
      <g>
       <use style="stroke:#000000;stroke-width:0.8;" x="633.455455" xlink:href="#mce27e5c2e6" y="283.195"/>
      </g>
     </g>
    </g>
    <g id="xtick_19">
     <g id="line2d_28">
      <g>
       <use style="stroke:#000000;stroke-width:0.8;" x="669.239545" xlink:href="#mce27e5c2e6" y="283.195"/>
      </g>
     </g>
    </g>
    <g id="xtick_20">
     <g id="line2d_29">
      <g>
       <use style="stroke:#000000;stroke-width:0.8;" x="705.023636" xlink:href="#mce27e5c2e6" y="283.195"/>
      </g>
     </g>
    </g>
    <g id="xtick_21">
     <g id="line2d_30">
      <g>
       <use style="stroke:#000000;stroke-width:0.8;" x="740.807727" xlink:href="#mce27e5c2e6" y="283.195"/>
      </g>
     </g>
    </g>
    <g id="xtick_22">
     <g id="line2d_31">
      <g>
       <use style="stroke:#000000;stroke-width:0.8;" x="776.591818" xlink:href="#mce27e5c2e6" y="283.195"/>
      </g>
     </g>
    </g>
    <g id="xtick_23">
     <g id="line2d_32">
      <g>
       <use style="stroke:#000000;stroke-width:0.8;" x="812.375909" xlink:href="#mce27e5c2e6" y="283.195"/>
      </g>
     </g>
    </g>
    <g id="xtick_24">
     <g id="line2d_33">
      <g>
       <use style="stroke:#000000;stroke-width:0.8;" x="848.16" xlink:href="#mce27e5c2e6" y="283.195"/>
      </g>
     </g>
    </g>
   </g>
   <g id="matplotlib.axis_4">
    <g id="ytick_9">
     <g id="line2d_34">
      <g>
       <use style="stroke:#000000;stroke-width:0.8;" x="454.535" xlink:href="#maf435741c2" y="283.195"/>
      </g>
     </g>
    </g>
    <g id="ytick_10">
     <g id="line2d_35">
      <g>
       <use style="stroke:#000000;stroke-width:0.8;" x="454.535" xlink:href="#maf435741c2" y="250.857378"/>
      </g>
     </g>
    </g>
    <g id="ytick_11">
     <g id="line2d_36">
      <g>
       <use style="stroke:#000000;stroke-width:0.8;" x="454.535" xlink:href="#maf435741c2" y="218.519756"/>
      </g>
     </g>
    </g>
    <g id="ytick_12">
     <g id="line2d_37">
      <g>
       <use style="stroke:#000000;stroke-width:0.8;" x="454.535" xlink:href="#maf435741c2" y="186.182134"/>
      </g>
     </g>
    </g>
    <g id="ytick_13">
     <g id="line2d_38">
      <g>
       <use style="stroke:#000000;stroke-width:0.8;" x="454.535" xlink:href="#maf435741c2" y="153.844512"/>
      </g>
     </g>
    </g>
    <g id="ytick_14">
     <g id="line2d_39">
      <g>
       <use style="stroke:#000000;stroke-width:0.8;" x="454.535" xlink:href="#maf435741c2" y="121.50689"/>
      </g>
     </g>
    </g>
    <g id="ytick_15">
     <g id="line2d_40">
      <g>
       <use style="stroke:#000000;stroke-width:0.8;" x="454.535" xlink:href="#maf435741c2" y="89.169268"/>
      </g>
     </g>
    </g>
    <g id="ytick_16">
     <g id="line2d_41">
      <g>
       <use style="stroke:#000000;stroke-width:0.8;" x="454.535" xlink:href="#maf435741c2" y="56.831646"/>
      </g>
     </g>
    </g>
   </g>
   <g id="line2d_42">
    <path clip-path="url(#p1124345188)" d="M 454.535 37.714048 
L 459.165882 73.966184 
L 463.796765 74.00553 
L 468.427647 72.564957 
L 473.058529 69.482603 
L 477.689412 66.840017 
L 482.320294 65.391665 
L 486.951176 64.049467 
L 491.582059 62.472693 
L 496.212941 61.51772 
L 500.843824 60.638733 
L 505.474706 59.405093 
L 510.105588 59.072708 
L 514.736471 58.577956 
L 519.367353 58.123125 
L 523.998235 58.631459 
L 528.629118 59.338464 
L 533.26 60.409956 
L 537.890882 62.950731 
L 542.521765 63.514775 
L 547.152647 64.317514 
L 551.783529 65.274069 
L 556.414412 66.933802 
L 561.045294 70.765477 
L 565.676176 73.622884 
L 570.307059 75.624659 
L 574.937941 78.300486 
L 579.568824 80.738723 
L 584.199706 83.145525 
L 588.830588 85.668579 
L 593.461471 88.645544 
L 598.092353 91.007628 
L 602.723235 93.384784 
L 607.354118 96.040237 
L 611.985 98.08165 
L 616.615882 99.830494 
L 621.246765 103.03606 
L 625.877647 105.924266 
L 630.508529 108.318389 
L 635.139412 113.189201 
L 639.770294 119.713808 
L 644.401176 121.938296 
L 649.032059 125.094576 
L 653.662941 128.293488 
L 658.293824 131.076435 
L 662.924706 134.184495 
L 667.555588 136.434281 
L 672.186471 138.381419 
L 676.817353 140.893271 
L 681.448235 143.260369 
L 686.079118 145.671766 
L 690.71 148.84632 
L 695.340882 152.184972 
L 699.971765 154.662936 
L 704.602647 156.929213 
L 709.233529 158.71489 
L 713.864412 161.153951 
L 718.495294 163.670865 
L 723.126176 166.709623 
L 727.757059 169.372764 
L 732.387941 170.940941 
L 737.018824 173.330316 
L 741.649706 175.574721 
L 746.280588 177.225815 
L 750.911471 179.409151 
L 755.542353 182.219204 
L 760.173235 183.729867 
L 764.804118 186.282098 
L 769.435 188.054636 
L 774.065882 189.229319 
L 778.696765 191.374553 
L 783.327647 192.772293 
L 787.958529 194.772173 
L 792.589412 196.369224 
L 797.220294 197.849638 
L 801.851176 199.15464 
L 806.482059 199.964966 
L 811.112941 201.175263 
L 815.743824 202.607804 
L 820.374706 204.302358 
L 825.005588 205.5716 
L 829.636471 206.604025 
L 834.267353 207.715386 
L 838.898235 208.637288 
L 843.529118 209.325425 
L 848.16 210.279015 
" style="fill:none;stroke:#ff7f0e;stroke-linecap:square;stroke-width:1.5;"/>
   </g>
   <g id="patch_8">
    <path d="M 454.535 283.195 
L 454.535 25.44 
" style="fill:none;stroke:#000000;stroke-linecap:square;stroke-linejoin:miter;stroke-width:0.8;"/>
   </g>
   <g id="patch_9">
    <path d="M 848.16 283.195 
L 848.16 25.44 
" style="fill:none;stroke:#000000;stroke-linecap:square;stroke-linejoin:miter;stroke-width:0.8;"/>
   </g>
   <g id="patch_10">
    <path d="M 454.535 283.195 
L 848.16 283.195 
" style="fill:none;stroke:#000000;stroke-linecap:square;stroke-linejoin:miter;stroke-width:0.8;"/>
   </g>
   <g id="patch_11">
    <path d="M 454.535 25.44 
L 848.16 25.44 
" style="fill:none;stroke:#000000;stroke-linecap:square;stroke-linejoin:miter;stroke-width:0.8;"/>
   </g>
   <g id="text_10">
    <!-- Northeast -->
    <defs>
     <path d="M 9.8125 72.90625 
L 23.09375 72.90625 
L 55.421875 11.921875 
L 55.421875 72.90625 
L 64.984375 72.90625 
L 64.984375 0 
L 51.703125 0 
L 19.390625 60.984375 
L 19.390625 0 
L 9.8125 0 
z
" id="DejaVuSans-4e"/>
     <path d="M 30.609375 48.390625 
Q 23.390625 48.390625 19.1875 42.75 
Q 14.984375 37.109375 14.984375 27.296875 
Q 14.984375 17.484375 19.15625 11.84375 
Q 23.34375 6.203125 30.609375 6.203125 
Q 37.796875 6.203125 41.984375 11.859375 
Q 46.1875 17.53125 46.1875 27.296875 
Q 46.1875 37.015625 41.984375 42.703125 
Q 37.796875 48.390625 30.609375 48.390625 
z
M 30.609375 56 
Q 42.328125 56 49.015625 48.375 
Q 55.71875 40.765625 55.71875 27.296875 
Q 55.71875 13.875 49.015625 6.21875 
Q 42.328125 -1.421875 30.609375 -1.421875 
Q 18.84375 -1.421875 12.171875 6.21875 
Q 5.515625 13.875 5.515625 27.296875 
Q 5.515625 40.765625 12.171875 48.375 
Q 18.84375 56 30.609375 56 
z
" id="DejaVuSans-6f"/>
     <path d="M 41.109375 46.296875 
Q 39.59375 47.171875 37.8125 47.578125 
Q 36.03125 48 33.890625 48 
Q 26.265625 48 22.1875 43.046875 
Q 18.109375 38.09375 18.109375 28.8125 
L 18.109375 0 
L 9.078125 0 
L 9.078125 54.6875 
L 18.109375 54.6875 
L 18.109375 46.1875 
Q 20.953125 51.171875 25.484375 53.578125 
Q 30.03125 56 36.53125 56 
Q 37.453125 56 38.578125 55.875 
Q 39.703125 55.765625 41.0625 55.515625 
z
" id="DejaVuSans-72"/>
     <path d="M 54.890625 33.015625 
L 54.890625 0 
L 45.90625 0 
L 45.90625 32.71875 
Q 45.90625 40.484375 42.875 44.328125 
Q 39.84375 48.1875 33.796875 48.1875 
Q 26.515625 48.1875 22.3125 43.546875 
Q 18.109375 38.921875 18.109375 30.90625 
L 18.109375 0 
L 9.078125 0 
L 9.078125 75.984375 
L 18.109375 75.984375 
L 18.109375 46.1875 
Q 21.34375 51.125 25.703125 53.5625 
Q 30.078125 56 35.796875 56 
Q 45.21875 56 50.046875 50.171875 
Q 54.890625 44.34375 54.890625 33.015625 
z
" id="DejaVuSans-68"/>
     <path d="M 34.28125 27.484375 
Q 23.390625 27.484375 19.1875 25 
Q 14.984375 22.515625 14.984375 16.5 
Q 14.984375 11.71875 18.140625 8.90625 
Q 21.296875 6.109375 26.703125 6.109375 
Q 34.1875 6.109375 38.703125 11.40625 
Q 43.21875 16.703125 43.21875 25.484375 
L 43.21875 27.484375 
z
M 52.203125 31.203125 
L 52.203125 0 
L 43.21875 0 
L 43.21875 8.296875 
Q 40.140625 3.328125 35.546875 0.953125 
Q 30.953125 -1.421875 24.3125 -1.421875 
Q 15.921875 -1.421875 10.953125 3.296875 
Q 6 8.015625 6 15.921875 
Q 6 25.140625 12.171875 29.828125 
Q 18.359375 34.515625 30.609375 34.515625 
L 43.21875 34.515625 
L 43.21875 35.40625 
Q 43.21875 41.609375 39.140625 45 
Q 35.0625 48.390625 27.6875 48.390625 
Q 23 48.390625 18.546875 47.265625 
Q 14.109375 46.140625 10.015625 43.890625 
L 10.015625 52.203125 
Q 14.9375 54.109375 19.578125 55.046875 
Q 24.21875 56 28.609375 56 
Q 40.484375 56 46.34375 49.84375 
Q 52.203125 43.703125 52.203125 31.203125 
z
" id="DejaVuSans-61"/>
    </defs>
    <g transform="translate(621.719687 19.44)scale(0.12 -0.12)">
     <use xlink:href="#DejaVuSans-4e"/>
     <use x="74.804688" xlink:href="#DejaVuSans-6f"/>
     <use x="135.986328" xlink:href="#DejaVuSans-72"/>
     <use x="177.099609" xlink:href="#DejaVuSans-74"/>
     <use x="216.308594" xlink:href="#DejaVuSans-68"/>
     <use x="279.6875" xlink:href="#DejaVuSans-65"/>
     <use x="341.210938" xlink:href="#DejaVuSans-61"/>
     <use x="402.490234" xlink:href="#DejaVuSans-73"/>
     <use x="454.589844" xlink:href="#DejaVuSans-74"/>
    </g>
   </g>
  </g>
  <g id="axes_3">
   <g id="patch_12">
    <path d="M 40.03 572.51 
L 433.655 572.51 
L 433.655 314.755 
L 40.03 314.755 
z
" style="fill:#ffffff;"/>
   </g>
   <g id="PolyCollection_3">
    <defs>
     <path d="M 40.03 -151.467623 
L 40.03 -75.49 
L 44.660882 -75.49 
L 49.291765 -75.49 
L 53.922647 -75.49 
L 58.553529 -75.49 
L 63.184412 -75.49 
L 67.815294 -75.49 
L 72.446176 -75.49 
L 77.077059 -75.49 
L 81.707941 -75.49 
L 86.338824 -75.49 
L 90.969706 -75.49 
L 95.600588 -75.49 
L 100.231471 -75.49 
L 104.862353 -75.49 
L 109.493235 -75.49 
L 114.124118 -75.49 
L 118.755 -75.49 
L 123.385882 -75.49 
L 128.016765 -75.49 
L 132.647647 -75.49 
L 137.278529 -75.49 
L 141.909412 -75.49 
L 146.540294 -75.49 
L 151.171176 -75.49 
L 155.802059 -75.49 
L 160.432941 -75.49 
L 165.063824 -75.49 
L 169.694706 -75.49 
L 174.325588 -75.49 
L 178.956471 -75.49 
L 183.587353 -75.49 
L 188.218235 -75.49 
L 192.849118 -75.49 
L 197.48 -75.49 
L 202.110882 -75.49 
L 206.741765 -75.49 
L 211.372647 -75.49 
L 216.003529 -75.49 
L 220.634412 -75.49 
L 225.265294 -75.49 
L 229.896176 -75.49 
L 234.527059 -75.49 
L 239.157941 -75.49 
L 243.788824 -75.49 
L 248.419706 -75.49 
L 253.050588 -75.49 
L 257.681471 -75.49 
L 262.312353 -75.49 
L 266.943235 -75.49 
L 271.574118 -75.49 
L 276.205 -75.49 
L 280.835882 -75.49 
L 285.466765 -75.49 
L 290.097647 -75.49 
L 294.728529 -75.49 
L 299.359412 -75.49 
L 303.990294 -75.49 
L 308.621176 -75.49 
L 313.252059 -75.49 
L 317.882941 -75.49 
L 322.513824 -75.49 
L 327.144706 -75.49 
L 331.775588 -75.49 
L 336.406471 -75.49 
L 341.037353 -75.49 
L 345.668235 -75.49 
L 350.299118 -75.49 
L 354.93 -75.49 
L 359.560882 -75.49 
L 364.191765 -75.49 
L 368.822647 -75.49 
L 373.453529 -75.49 
L 378.084412 -75.49 
L 382.715294 -75.49 
L 387.346176 -75.49 
L 391.977059 -75.49 
L 396.607941 -75.49 
L 401.238824 -75.49 
L 405.869706 -75.49 
L 410.500588 -75.49 
L 415.131471 -75.49 
L 419.762353 -75.49 
L 424.393235 -75.49 
L 429.024118 -75.49 
L 433.655 -75.49 
L 433.655 -125.799642 
L 433.655 -125.799642 
L 429.024118 -125.123824 
L 424.393235 -124.460489 
L 419.762353 -123.917371 
L 415.131471 -123.525368 
L 410.500588 -123.21162 
L 405.869706 -123.100974 
L 401.238824 -123.030872 
L 396.607941 -122.873021 
L 391.977059 -123.008224 
L 387.346176 -122.664149 
L 382.715294 -123.111786 
L 378.084412 -123.118372 
L 373.453529 -123.017349 
L 368.822647 -123.258679 
L 364.191765 -123.557015 
L 359.560882 -123.553038 
L 354.93 -123.903618 
L 350.299118 -123.714816 
L 345.668235 -123.692686 
L 341.037353 -123.822869 
L 336.406471 -124.344936 
L 331.775588 -124.154825 
L 327.144706 -125.30728 
L 322.513824 -125.560989 
L 317.882941 -125.657088 
L 313.252059 -125.903937 
L 308.621176 -126.18034 
L 303.990294 -126.187255 
L 299.359412 -126.216269 
L 294.728529 -126.939098 
L 290.097647 -127.55417 
L 285.466765 -127.96498 
L 280.835882 -128.468722 
L 276.205 -129.588479 
L 271.574118 -130.301279 
L 266.943235 -130.671581 
L 262.312353 -130.983332 
L 257.681471 -131.522979 
L 253.050588 -132.352019 
L 248.419706 -133.228141 
L 243.788824 -133.66879 
L 239.157941 -134.182766 
L 234.527059 -135.569295 
L 229.896176 -136.96708 
L 225.265294 -137.078981 
L 220.634412 -138.289278 
L 216.003529 -138.960477 
L 211.372647 -139.000999 
L 206.741765 -139.611389 
L 202.110882 -140.345839 
L 197.48 -141.289859 
L 192.849118 -142.429107 
L 188.218235 -143.279174 
L 183.587353 -143.749567 
L 178.956471 -144.975645 
L 174.325588 -144.967547 
L 169.694706 -147.05089 
L 165.063824 -147.47649 
L 160.432941 -147.614488 
L 155.802059 -148.302363 
L 151.171176 -148.999237 
L 146.540294 -151.100349 
L 141.909412 -152.004594 
L 137.278529 -152.481847 
L 132.647647 -152.804048 
L 128.016765 -153.692139 
L 123.385882 -153.552962 
L 118.755 -154.562073 
L 114.124118 -154.886065 
L 109.493235 -154.503512 
L 104.862353 -154.187702 
L 100.231471 -153.563947 
L 95.600588 -154.260309 
L 90.969706 -156.371208 
L 86.338824 -156.237889 
L 81.707941 -157.754113 
L 77.077059 -157.092718 
L 72.446176 -156.781178 
L 67.815294 -155.406394 
L 63.184412 -155.563365 
L 58.553529 -155.795772 
L 53.922647 -155.32989 
L 49.291765 -155.594685 
L 44.660882 -155.241363 
L 40.03 -151.467623 
z
" id="m609b477f6b" style="stroke:#2ca02c;"/>
    </defs>
    <g clip-path="url(#pee0b5750f1)">
     <use style="fill:#2ca02c;stroke:#2ca02c;" x="0" xlink:href="#m609b477f6b" y="648"/>
    </g>
   </g>
   <g id="matplotlib.axis_5">
    <g id="xtick_25">
     <g id="line2d_43">
      <g>
       <use style="stroke:#000000;stroke-width:0.8;" x="40.03" xlink:href="#mce27e5c2e6" y="572.51"/>
      </g>
     </g>
     <g id="text_11">
      <!-- 2020-04-02 -->
      <defs>
       <path d="M 4.890625 31.390625 
L 31.203125 31.390625 
L 31.203125 23.390625 
L 4.890625 23.390625 
z
" id="DejaVuSans-2d"/>
       <path d="M 37.796875 64.3125 
L 12.890625 25.390625 
L 37.796875 25.390625 
z
M 35.203125 72.90625 
L 47.609375 72.90625 
L 47.609375 25.390625 
L 58.015625 25.390625 
L 58.015625 17.1875 
L 47.609375 17.1875 
L 47.609375 0 
L 37.796875 0 
L 37.796875 17.1875 
L 4.890625 17.1875 
L 4.890625 26.703125 
z
" id="DejaVuSans-34"/>
      </defs>
      <g transform="translate(42.789375 637.625625)rotate(-90)scale(0.1 -0.1)">
       <use xlink:href="#DejaVuSans-32"/>
       <use x="63.623047" xlink:href="#DejaVuSans-30"/>
       <use x="127.246094" xlink:href="#DejaVuSans-32"/>
       <use x="190.869141" xlink:href="#DejaVuSans-30"/>
       <use x="254.492188" xlink:href="#DejaVuSans-2d"/>
       <use x="290.576172" xlink:href="#DejaVuSans-30"/>
       <use x="354.199219" xlink:href="#DejaVuSans-34"/>
       <use x="417.822266" xlink:href="#DejaVuSans-2d"/>
       <use x="453.90625" xlink:href="#DejaVuSans-30"/>
       <use x="517.529297" xlink:href="#DejaVuSans-32"/>
      </g>
     </g>
    </g>
    <g id="xtick_26">
     <g id="line2d_44">
      <g>
       <use style="stroke:#000000;stroke-width:0.8;" x="75.814091" xlink:href="#mce27e5c2e6" y="572.51"/>
      </g>
     </g>
     <g id="text_12">
      <!-- 2020-04-09 -->
      <defs>
       <path d="M 10.984375 1.515625 
L 10.984375 10.5 
Q 14.703125 8.734375 18.5 7.8125 
Q 22.3125 6.890625 25.984375 6.890625 
Q 35.75 6.890625 40.890625 13.453125 
Q 46.046875 20.015625 46.78125 33.40625 
Q 43.953125 29.203125 39.59375 26.953125 
Q 35.25 24.703125 29.984375 24.703125 
Q 19.046875 24.703125 12.671875 31.3125 
Q 6.296875 37.9375 6.296875 49.421875 
Q 6.296875 60.640625 12.9375 67.421875 
Q 19.578125 74.21875 30.609375 74.21875 
Q 43.265625 74.21875 49.921875 64.515625 
Q 56.59375 54.828125 56.59375 36.375 
Q 56.59375 19.140625 48.40625 8.859375 
Q 40.234375 -1.421875 26.421875 -1.421875 
Q 22.703125 -1.421875 18.890625 -0.6875 
Q 15.09375 0.046875 10.984375 1.515625 
z
M 30.609375 32.421875 
Q 37.25 32.421875 41.125 36.953125 
Q 45.015625 41.5 45.015625 49.421875 
Q 45.015625 57.28125 41.125 61.84375 
Q 37.25 66.40625 30.609375 66.40625 
Q 23.96875 66.40625 20.09375 61.84375 
Q 16.21875 57.28125 16.21875 49.421875 
Q 16.21875 41.5 20.09375 36.953125 
Q 23.96875 32.421875 30.609375 32.421875 
z
" id="DejaVuSans-39"/>
      </defs>
      <g transform="translate(78.573466 637.625625)rotate(-90)scale(0.1 -0.1)">
       <use xlink:href="#DejaVuSans-32"/>
       <use x="63.623047" xlink:href="#DejaVuSans-30"/>
       <use x="127.246094" xlink:href="#DejaVuSans-32"/>
       <use x="190.869141" xlink:href="#DejaVuSans-30"/>
       <use x="254.492188" xlink:href="#DejaVuSans-2d"/>
       <use x="290.576172" xlink:href="#DejaVuSans-30"/>
       <use x="354.199219" xlink:href="#DejaVuSans-34"/>
       <use x="417.822266" xlink:href="#DejaVuSans-2d"/>
       <use x="453.90625" xlink:href="#DejaVuSans-30"/>
       <use x="517.529297" xlink:href="#DejaVuSans-39"/>
      </g>
     </g>
    </g>
    <g id="xtick_27">
     <g id="line2d_45">
      <g>
       <use style="stroke:#000000;stroke-width:0.8;" x="111.598182" xlink:href="#mce27e5c2e6" y="572.51"/>
      </g>
     </g>
     <g id="text_13">
      <!-- 2020-04-17 -->
      <defs>
       <path d="M 8.203125 72.90625 
L 55.078125 72.90625 
L 55.078125 68.703125 
L 28.609375 0 
L 18.3125 0 
L 43.21875 64.59375 
L 8.203125 64.59375 
z
" id="DejaVuSans-37"/>
      </defs>
      <g transform="translate(114.357557 637.625625)rotate(-90)scale(0.1 -0.1)">
       <use xlink:href="#DejaVuSans-32"/>
       <use x="63.623047" xlink:href="#DejaVuSans-30"/>
       <use x="127.246094" xlink:href="#DejaVuSans-32"/>
       <use x="190.869141" xlink:href="#DejaVuSans-30"/>
       <use x="254.492188" xlink:href="#DejaVuSans-2d"/>
       <use x="290.576172" xlink:href="#DejaVuSans-30"/>
       <use x="354.199219" xlink:href="#DejaVuSans-34"/>
       <use x="417.822266" xlink:href="#DejaVuSans-2d"/>
       <use x="453.90625" xlink:href="#DejaVuSans-31"/>
       <use x="517.529297" xlink:href="#DejaVuSans-37"/>
      </g>
     </g>
    </g>
    <g id="xtick_28">
     <g id="line2d_46">
      <g>
       <use style="stroke:#000000;stroke-width:0.8;" x="147.382273" xlink:href="#mce27e5c2e6" y="572.51"/>
      </g>
     </g>
     <g id="text_14">
      <!-- 2020-04-25 -->
      <g transform="translate(150.141648 637.625625)rotate(-90)scale(0.1 -0.1)">
       <use xlink:href="#DejaVuSans-32"/>
       <use x="63.623047" xlink:href="#DejaVuSans-30"/>
       <use x="127.246094" xlink:href="#DejaVuSans-32"/>
       <use x="190.869141" xlink:href="#DejaVuSans-30"/>
       <use x="254.492188" xlink:href="#DejaVuSans-2d"/>
       <use x="290.576172" xlink:href="#DejaVuSans-30"/>
       <use x="354.199219" xlink:href="#DejaVuSans-34"/>
       <use x="417.822266" xlink:href="#DejaVuSans-2d"/>
       <use x="453.90625" xlink:href="#DejaVuSans-32"/>
       <use x="517.529297" xlink:href="#DejaVuSans-35"/>
      </g>
     </g>
    </g>
    <g id="xtick_29">
     <g id="line2d_47">
      <g>
       <use style="stroke:#000000;stroke-width:0.8;" x="183.166364" xlink:href="#mce27e5c2e6" y="572.51"/>
      </g>
     </g>
     <g id="text_15">
      <!-- 2020-05-02 -->
      <g transform="translate(185.925739 637.625625)rotate(-90)scale(0.1 -0.1)">
       <use xlink:href="#DejaVuSans-32"/>
       <use x="63.623047" xlink:href="#DejaVuSans-30"/>
       <use x="127.246094" xlink:href="#DejaVuSans-32"/>
       <use x="190.869141" xlink:href="#DejaVuSans-30"/>
       <use x="254.492188" xlink:href="#DejaVuSans-2d"/>
       <use x="290.576172" xlink:href="#DejaVuSans-30"/>
       <use x="354.199219" xlink:href="#DejaVuSans-35"/>
       <use x="417.822266" xlink:href="#DejaVuSans-2d"/>
       <use x="453.90625" xlink:href="#DejaVuSans-30"/>
       <use x="517.529297" xlink:href="#DejaVuSans-32"/>
      </g>
     </g>
    </g>
    <g id="xtick_30">
     <g id="line2d_48">
      <g>
       <use style="stroke:#000000;stroke-width:0.8;" x="218.950455" xlink:href="#mce27e5c2e6" y="572.51"/>
      </g>
     </g>
     <g id="text_16">
      <!-- 2020-05-10 -->
      <g transform="translate(221.70983 637.625625)rotate(-90)scale(0.1 -0.1)">
       <use xlink:href="#DejaVuSans-32"/>
       <use x="63.623047" xlink:href="#DejaVuSans-30"/>
       <use x="127.246094" xlink:href="#DejaVuSans-32"/>
       <use x="190.869141" xlink:href="#DejaVuSans-30"/>
       <use x="254.492188" xlink:href="#DejaVuSans-2d"/>
       <use x="290.576172" xlink:href="#DejaVuSans-30"/>
       <use x="354.199219" xlink:href="#DejaVuSans-35"/>
       <use x="417.822266" xlink:href="#DejaVuSans-2d"/>
       <use x="453.90625" xlink:href="#DejaVuSans-31"/>
       <use x="517.529297" xlink:href="#DejaVuSans-30"/>
      </g>
     </g>
    </g>
    <g id="xtick_31">
     <g id="line2d_49">
      <g>
       <use style="stroke:#000000;stroke-width:0.8;" x="254.734545" xlink:href="#mce27e5c2e6" y="572.51"/>
      </g>
     </g>
     <g id="text_17">
      <!-- 2020-05-18 -->
      <defs>
       <path d="M 31.78125 34.625 
Q 24.75 34.625 20.71875 30.859375 
Q 16.703125 27.09375 16.703125 20.515625 
Q 16.703125 13.921875 20.71875 10.15625 
Q 24.75 6.390625 31.78125 6.390625 
Q 38.8125 6.390625 42.859375 10.171875 
Q 46.921875 13.96875 46.921875 20.515625 
Q 46.921875 27.09375 42.890625 30.859375 
Q 38.875 34.625 31.78125 34.625 
z
M 21.921875 38.8125 
Q 15.578125 40.375 12.03125 44.71875 
Q 8.5 49.078125 8.5 55.328125 
Q 8.5 64.0625 14.71875 69.140625 
Q 20.953125 74.21875 31.78125 74.21875 
Q 42.671875 74.21875 48.875 69.140625 
Q 55.078125 64.0625 55.078125 55.328125 
Q 55.078125 49.078125 51.53125 44.71875 
Q 48 40.375 41.703125 38.8125 
Q 48.828125 37.15625 52.796875 32.3125 
Q 56.78125 27.484375 56.78125 20.515625 
Q 56.78125 9.90625 50.3125 4.234375 
Q 43.84375 -1.421875 31.78125 -1.421875 
Q 19.734375 -1.421875 13.25 4.234375 
Q 6.78125 9.90625 6.78125 20.515625 
Q 6.78125 27.484375 10.78125 32.3125 
Q 14.796875 37.15625 21.921875 38.8125 
z
M 18.3125 54.390625 
Q 18.3125 48.734375 21.84375 45.5625 
Q 25.390625 42.390625 31.78125 42.390625 
Q 38.140625 42.390625 41.71875 45.5625 
Q 45.3125 48.734375 45.3125 54.390625 
Q 45.3125 60.0625 41.71875 63.234375 
Q 38.140625 66.40625 31.78125 66.40625 
Q 25.390625 66.40625 21.84375 63.234375 
Q 18.3125 60.0625 18.3125 54.390625 
z
" id="DejaVuSans-38"/>
      </defs>
      <g transform="translate(257.49392 637.625625)rotate(-90)scale(0.1 -0.1)">
       <use xlink:href="#DejaVuSans-32"/>
       <use x="63.623047" xlink:href="#DejaVuSans-30"/>
       <use x="127.246094" xlink:href="#DejaVuSans-32"/>
       <use x="190.869141" xlink:href="#DejaVuSans-30"/>
       <use x="254.492188" xlink:href="#DejaVuSans-2d"/>
       <use x="290.576172" xlink:href="#DejaVuSans-30"/>
       <use x="354.199219" xlink:href="#DejaVuSans-35"/>
       <use x="417.822266" xlink:href="#DejaVuSans-2d"/>
       <use x="453.90625" xlink:href="#DejaVuSans-31"/>
       <use x="517.529297" xlink:href="#DejaVuSans-38"/>
      </g>
     </g>
    </g>
    <g id="xtick_32">
     <g id="line2d_50">
      <g>
       <use style="stroke:#000000;stroke-width:0.8;" x="290.518636" xlink:href="#mce27e5c2e6" y="572.51"/>
      </g>
     </g>
     <g id="text_18">
      <!-- 2020-05-26 -->
      <defs>
       <path d="M 33.015625 40.375 
Q 26.375 40.375 22.484375 35.828125 
Q 18.609375 31.296875 18.609375 23.390625 
Q 18.609375 15.53125 22.484375 10.953125 
Q 26.375 6.390625 33.015625 6.390625 
Q 39.65625 6.390625 43.53125 10.953125 
Q 47.40625 15.53125 47.40625 23.390625 
Q 47.40625 31.296875 43.53125 35.828125 
Q 39.65625 40.375 33.015625 40.375 
z
M 52.59375 71.296875 
L 52.59375 62.3125 
Q 48.875 64.0625 45.09375 64.984375 
Q 41.3125 65.921875 37.59375 65.921875 
Q 27.828125 65.921875 22.671875 59.328125 
Q 17.53125 52.734375 16.796875 39.40625 
Q 19.671875 43.65625 24.015625 45.921875 
Q 28.375 48.1875 33.59375 48.1875 
Q 44.578125 48.1875 50.953125 41.515625 
Q 57.328125 34.859375 57.328125 23.390625 
Q 57.328125 12.15625 50.6875 5.359375 
Q 44.046875 -1.421875 33.015625 -1.421875 
Q 20.359375 -1.421875 13.671875 8.265625 
Q 6.984375 17.96875 6.984375 36.375 
Q 6.984375 53.65625 15.1875 63.9375 
Q 23.390625 74.21875 37.203125 74.21875 
Q 40.921875 74.21875 44.703125 73.484375 
Q 48.484375 72.75 52.59375 71.296875 
z
" id="DejaVuSans-36"/>
      </defs>
      <g transform="translate(293.278011 637.625625)rotate(-90)scale(0.1 -0.1)">
       <use xlink:href="#DejaVuSans-32"/>
       <use x="63.623047" xlink:href="#DejaVuSans-30"/>
       <use x="127.246094" xlink:href="#DejaVuSans-32"/>
       <use x="190.869141" xlink:href="#DejaVuSans-30"/>
       <use x="254.492188" xlink:href="#DejaVuSans-2d"/>
       <use x="290.576172" xlink:href="#DejaVuSans-30"/>
       <use x="354.199219" xlink:href="#DejaVuSans-35"/>
       <use x="417.822266" xlink:href="#DejaVuSans-2d"/>
       <use x="453.90625" xlink:href="#DejaVuSans-32"/>
       <use x="517.529297" xlink:href="#DejaVuSans-36"/>
      </g>
     </g>
    </g>
    <g id="xtick_33">
     <g id="line2d_51">
      <g>
       <use style="stroke:#000000;stroke-width:0.8;" x="326.302727" xlink:href="#mce27e5c2e6" y="572.51"/>
      </g>
     </g>
     <g id="text_19">
      <!-- 2020-06-02 -->
      <g transform="translate(329.062102 637.625625)rotate(-90)scale(0.1 -0.1)">
       <use xlink:href="#DejaVuSans-32"/>
       <use x="63.623047" xlink:href="#DejaVuSans-30"/>
       <use x="127.246094" xlink:href="#DejaVuSans-32"/>
       <use x="190.869141" xlink:href="#DejaVuSans-30"/>
       <use x="254.492188" xlink:href="#DejaVuSans-2d"/>
       <use x="290.576172" xlink:href="#DejaVuSans-30"/>
       <use x="354.199219" xlink:href="#DejaVuSans-36"/>
       <use x="417.822266" xlink:href="#DejaVuSans-2d"/>
       <use x="453.90625" xlink:href="#DejaVuSans-30"/>
       <use x="517.529297" xlink:href="#DejaVuSans-32"/>
      </g>
     </g>
    </g>
    <g id="xtick_34">
     <g id="line2d_52">
      <g>
       <use style="stroke:#000000;stroke-width:0.8;" x="362.086818" xlink:href="#mce27e5c2e6" y="572.51"/>
      </g>
     </g>
     <g id="text_20">
      <!-- 2020-06-10 -->
      <g transform="translate(364.846193 637.625625)rotate(-90)scale(0.1 -0.1)">
       <use xlink:href="#DejaVuSans-32"/>
       <use x="63.623047" xlink:href="#DejaVuSans-30"/>
       <use x="127.246094" xlink:href="#DejaVuSans-32"/>
       <use x="190.869141" xlink:href="#DejaVuSans-30"/>
       <use x="254.492188" xlink:href="#DejaVuSans-2d"/>
       <use x="290.576172" xlink:href="#DejaVuSans-30"/>
       <use x="354.199219" xlink:href="#DejaVuSans-36"/>
       <use x="417.822266" xlink:href="#DejaVuSans-2d"/>
       <use x="453.90625" xlink:href="#DejaVuSans-31"/>
       <use x="517.529297" xlink:href="#DejaVuSans-30"/>
      </g>
     </g>
    </g>
    <g id="xtick_35">
     <g id="line2d_53">
      <g>
       <use style="stroke:#000000;stroke-width:0.8;" x="397.870909" xlink:href="#mce27e5c2e6" y="572.51"/>
      </g>
     </g>
     <g id="text_21">
      <!-- 2020-06-18 -->
      <g transform="translate(400.630284 637.625625)rotate(-90)scale(0.1 -0.1)">
       <use xlink:href="#DejaVuSans-32"/>
       <use x="63.623047" xlink:href="#DejaVuSans-30"/>
       <use x="127.246094" xlink:href="#DejaVuSans-32"/>
       <use x="190.869141" xlink:href="#DejaVuSans-30"/>
       <use x="254.492188" xlink:href="#DejaVuSans-2d"/>
       <use x="290.576172" xlink:href="#DejaVuSans-30"/>
       <use x="354.199219" xlink:href="#DejaVuSans-36"/>
       <use x="417.822266" xlink:href="#DejaVuSans-2d"/>
       <use x="453.90625" xlink:href="#DejaVuSans-31"/>
       <use x="517.529297" xlink:href="#DejaVuSans-38"/>
      </g>
     </g>
    </g>
    <g id="xtick_36">
     <g id="line2d_54">
      <g>
       <use style="stroke:#000000;stroke-width:0.8;" x="433.655" xlink:href="#mce27e5c2e6" y="572.51"/>
      </g>
     </g>
     <g id="text_22">
      <!-- 2020-06-26 -->
      <g transform="translate(436.414375 637.625625)rotate(-90)scale(0.1 -0.1)">
       <use xlink:href="#DejaVuSans-32"/>
       <use x="63.623047" xlink:href="#DejaVuSans-30"/>
       <use x="127.246094" xlink:href="#DejaVuSans-32"/>
       <use x="190.869141" xlink:href="#DejaVuSans-30"/>
       <use x="254.492188" xlink:href="#DejaVuSans-2d"/>
       <use x="290.576172" xlink:href="#DejaVuSans-30"/>
       <use x="354.199219" xlink:href="#DejaVuSans-36"/>
       <use x="417.822266" xlink:href="#DejaVuSans-2d"/>
       <use x="453.90625" xlink:href="#DejaVuSans-32"/>
       <use x="517.529297" xlink:href="#DejaVuSans-36"/>
      </g>
     </g>
    </g>
   </g>
   <g id="matplotlib.axis_6">
    <g id="ytick_17">
     <g id="line2d_55">
      <g>
       <use style="stroke:#000000;stroke-width:0.8;" x="40.03" xlink:href="#maf435741c2" y="572.51"/>
      </g>
     </g>
     <g id="text_23">
      <!-- 0.00 -->
      <g transform="translate(10.764375 576.309219)scale(0.1 -0.1)">
       <use xlink:href="#DejaVuSans-30"/>
       <use x="63.623047" xlink:href="#DejaVuSans-2e"/>
       <use x="95.410156" xlink:href="#DejaVuSans-30"/>
       <use x="159.033203" xlink:href="#DejaVuSans-30"/>
      </g>
     </g>
    </g>
    <g id="ytick_18">
     <g id="line2d_56">
      <g>
       <use style="stroke:#000000;stroke-width:0.8;" x="40.03" xlink:href="#maf435741c2" y="540.172378"/>
      </g>
     </g>
     <g id="text_24">
      <!-- 0.05 -->
      <g transform="translate(10.764375 543.971597)scale(0.1 -0.1)">
       <use xlink:href="#DejaVuSans-30"/>
       <use x="63.623047" xlink:href="#DejaVuSans-2e"/>
       <use x="95.410156" xlink:href="#DejaVuSans-30"/>
       <use x="159.033203" xlink:href="#DejaVuSans-35"/>
      </g>
     </g>
    </g>
    <g id="ytick_19">
     <g id="line2d_57">
      <g>
       <use style="stroke:#000000;stroke-width:0.8;" x="40.03" xlink:href="#maf435741c2" y="507.834756"/>
      </g>
     </g>
     <g id="text_25">
      <!-- 0.10 -->
      <g transform="translate(10.764375 511.633975)scale(0.1 -0.1)">
       <use xlink:href="#DejaVuSans-30"/>
       <use x="63.623047" xlink:href="#DejaVuSans-2e"/>
       <use x="95.410156" xlink:href="#DejaVuSans-31"/>
       <use x="159.033203" xlink:href="#DejaVuSans-30"/>
      </g>
     </g>
    </g>
    <g id="ytick_20">
     <g id="line2d_58">
      <g>
       <use style="stroke:#000000;stroke-width:0.8;" x="40.03" xlink:href="#maf435741c2" y="475.497134"/>
      </g>
     </g>
     <g id="text_26">
      <!-- 0.15 -->
      <g transform="translate(10.764375 479.296353)scale(0.1 -0.1)">
       <use xlink:href="#DejaVuSans-30"/>
       <use x="63.623047" xlink:href="#DejaVuSans-2e"/>
       <use x="95.410156" xlink:href="#DejaVuSans-31"/>
       <use x="159.033203" xlink:href="#DejaVuSans-35"/>
      </g>
     </g>
    </g>
    <g id="ytick_21">
     <g id="line2d_59">
      <g>
       <use style="stroke:#000000;stroke-width:0.8;" x="40.03" xlink:href="#maf435741c2" y="443.159512"/>
      </g>
     </g>
     <g id="text_27">
      <!-- 0.20 -->
      <g transform="translate(10.764375 446.958731)scale(0.1 -0.1)">
       <use xlink:href="#DejaVuSans-30"/>
       <use x="63.623047" xlink:href="#DejaVuSans-2e"/>
       <use x="95.410156" xlink:href="#DejaVuSans-32"/>
       <use x="159.033203" xlink:href="#DejaVuSans-30"/>
      </g>
     </g>
    </g>
    <g id="ytick_22">
     <g id="line2d_60">
      <g>
       <use style="stroke:#000000;stroke-width:0.8;" x="40.03" xlink:href="#maf435741c2" y="410.82189"/>
      </g>
     </g>
     <g id="text_28">
      <!-- 0.25 -->
      <g transform="translate(10.764375 414.621109)scale(0.1 -0.1)">
       <use xlink:href="#DejaVuSans-30"/>
       <use x="63.623047" xlink:href="#DejaVuSans-2e"/>
       <use x="95.410156" xlink:href="#DejaVuSans-32"/>
       <use x="159.033203" xlink:href="#DejaVuSans-35"/>
      </g>
     </g>
    </g>
    <g id="ytick_23">
     <g id="line2d_61">
      <g>
       <use style="stroke:#000000;stroke-width:0.8;" x="40.03" xlink:href="#maf435741c2" y="378.484268"/>
      </g>
     </g>
     <g id="text_29">
      <!-- 0.30 -->
      <g transform="translate(10.764375 382.283487)scale(0.1 -0.1)">
       <use xlink:href="#DejaVuSans-30"/>
       <use x="63.623047" xlink:href="#DejaVuSans-2e"/>
       <use x="95.410156" xlink:href="#DejaVuSans-33"/>
       <use x="159.033203" xlink:href="#DejaVuSans-30"/>
      </g>
     </g>
    </g>
    <g id="ytick_24">
     <g id="line2d_62">
      <g>
       <use style="stroke:#000000;stroke-width:0.8;" x="40.03" xlink:href="#maf435741c2" y="346.146646"/>
      </g>
     </g>
     <g id="text_30">
      <!-- 0.35 -->
      <g transform="translate(10.764375 349.945865)scale(0.1 -0.1)">
       <use xlink:href="#DejaVuSans-30"/>
       <use x="63.623047" xlink:href="#DejaVuSans-2e"/>
       <use x="95.410156" xlink:href="#DejaVuSans-33"/>
       <use x="159.033203" xlink:href="#DejaVuSans-35"/>
      </g>
     </g>
    </g>
   </g>
   <g id="line2d_63">
    <path clip-path="url(#pee0b5750f1)" d="M 40.03 496.532377 
L 44.660882 492.758637 
L 49.291765 492.405315 
L 53.922647 492.67011 
L 58.553529 492.204228 
L 63.184412 492.436635 
L 67.815294 492.593606 
L 72.446176 491.218822 
L 77.077059 490.907282 
L 81.707941 490.245887 
L 86.338824 491.762111 
L 90.969706 491.628792 
L 95.600588 493.739691 
L 100.231471 494.436053 
L 104.862353 493.812298 
L 109.493235 493.496488 
L 114.124118 493.113935 
L 118.755 493.437927 
L 123.385882 494.447038 
L 128.016765 494.307861 
L 132.647647 495.195952 
L 137.278529 495.518153 
L 141.909412 495.995406 
L 146.540294 496.899651 
L 151.171176 499.000763 
L 155.802059 499.697637 
L 160.432941 500.385512 
L 165.063824 500.52351 
L 169.694706 500.94911 
L 174.325588 503.032453 
L 178.956471 503.024355 
L 183.587353 504.250433 
L 188.218235 504.720826 
L 192.849118 505.570893 
L 197.48 506.710141 
L 202.110882 507.654161 
L 206.741765 508.388611 
L 211.372647 508.999001 
L 216.003529 509.039523 
L 220.634412 509.710722 
L 225.265294 510.921019 
L 229.896176 511.03292 
L 234.527059 512.430705 
L 239.157941 513.817234 
L 243.788824 514.33121 
L 248.419706 514.771859 
L 253.050588 515.647981 
L 257.681471 516.477021 
L 262.312353 517.016668 
L 266.943235 517.328419 
L 271.574118 517.698721 
L 276.205 518.411521 
L 280.835882 519.531278 
L 285.466765 520.03502 
L 290.097647 520.44583 
L 294.728529 521.060902 
L 299.359412 521.783731 
L 303.990294 521.812745 
L 308.621176 521.81966 
L 313.252059 522.096063 
L 317.882941 522.342912 
L 322.513824 522.439011 
L 327.144706 522.69272 
L 331.775588 523.845175 
L 336.406471 523.655064 
L 341.037353 524.177131 
L 345.668235 524.307314 
L 350.299118 524.285184 
L 354.93 524.096382 
L 359.560882 524.446962 
L 364.191765 524.442985 
L 368.822647 524.741321 
L 373.453529 524.982651 
L 378.084412 524.881628 
L 382.715294 524.888214 
L 387.346176 525.335851 
L 391.977059 524.991776 
L 396.607941 525.126979 
L 401.238824 524.969128 
L 405.869706 524.899026 
L 410.500588 524.78838 
L 415.131471 524.474632 
L 419.762353 524.082629 
L 424.393235 523.539511 
L 429.024118 522.876176 
L 433.655 522.200358 
" style="fill:none;stroke:#2ca02c;stroke-linecap:square;stroke-width:1.5;"/>
   </g>
   <g id="patch_13">
    <path d="M 40.03 572.51 
L 40.03 314.755 
" style="fill:none;stroke:#000000;stroke-linecap:square;stroke-linejoin:miter;stroke-width:0.8;"/>
   </g>
   <g id="patch_14">
    <path d="M 433.655 572.51 
L 433.655 314.755 
" style="fill:none;stroke:#000000;stroke-linecap:square;stroke-linejoin:miter;stroke-width:0.8;"/>
   </g>
   <g id="patch_15">
    <path d="M 40.03 572.51 
L 433.655 572.51 
" style="fill:none;stroke:#000000;stroke-linecap:square;stroke-linejoin:miter;stroke-width:0.8;"/>
   </g>
   <g id="patch_16">
    <path d="M 40.03 314.755 
L 433.655 314.755 
" style="fill:none;stroke:#000000;stroke-linecap:square;stroke-linejoin:miter;stroke-width:0.8;"/>
   </g>
   <g id="text_31">
    <!-- South -->
    <defs>
     <path d="M 53.515625 70.515625 
L 53.515625 60.890625 
Q 47.90625 63.578125 42.921875 64.890625 
Q 37.9375 66.21875 33.296875 66.21875 
Q 25.25 66.21875 20.875 63.09375 
Q 16.5 59.96875 16.5 54.203125 
Q 16.5 49.359375 19.40625 46.890625 
Q 22.3125 44.4375 30.421875 42.921875 
L 36.375 41.703125 
Q 47.40625 39.59375 52.65625 34.296875 
Q 57.90625 29 57.90625 20.125 
Q 57.90625 9.515625 50.796875 4.046875 
Q 43.703125 -1.421875 29.984375 -1.421875 
Q 24.8125 -1.421875 18.96875 -0.25 
Q 13.140625 0.921875 6.890625 3.21875 
L 6.890625 13.375 
Q 12.890625 10.015625 18.65625 8.296875 
Q 24.421875 6.59375 29.984375 6.59375 
Q 38.421875 6.59375 43.015625 9.90625 
Q 47.609375 13.234375 47.609375 19.390625 
Q 47.609375 24.75 44.3125 27.78125 
Q 41.015625 30.8125 33.5 32.328125 
L 27.484375 33.5 
Q 16.453125 35.6875 11.515625 40.375 
Q 6.59375 45.0625 6.59375 53.421875 
Q 6.59375 63.09375 13.40625 68.65625 
Q 20.21875 74.21875 32.171875 74.21875 
Q 37.3125 74.21875 42.625 73.28125 
Q 47.953125 72.359375 53.515625 70.515625 
z
" id="DejaVuSans-53"/>
     <path d="M 8.5 21.578125 
L 8.5 54.6875 
L 17.484375 54.6875 
L 17.484375 21.921875 
Q 17.484375 14.15625 20.5 10.265625 
Q 23.53125 6.390625 29.59375 6.390625 
Q 36.859375 6.390625 41.078125 11.03125 
Q 45.3125 15.671875 45.3125 23.6875 
L 45.3125 54.6875 
L 54.296875 54.6875 
L 54.296875 0 
L 45.3125 0 
L 45.3125 8.40625 
Q 42.046875 3.421875 37.71875 1 
Q 33.40625 -1.421875 27.6875 -1.421875 
Q 18.265625 -1.421875 13.375 4.4375 
Q 8.5 10.296875 8.5 21.578125 
z
M 31.109375 56 
z
" id="DejaVuSans-75"/>
    </defs>
    <g transform="translate(219.405 308.755)scale(0.12 -0.12)">
     <use xlink:href="#DejaVuSans-53"/>
     <use x="63.476562" xlink:href="#DejaVuSans-6f"/>
     <use x="124.658203" xlink:href="#DejaVuSans-75"/>
     <use x="188.037109" xlink:href="#DejaVuSans-74"/>
     <use x="227.246094" xlink:href="#DejaVuSans-68"/>
    </g>
   </g>
  </g>
  <g id="axes_4">
   <g id="patch_17">
    <path d="M 454.535 572.51 
L 848.16 572.51 
L 848.16 314.755 
L 454.535 314.755 
z
" style="fill:#ffffff;"/>
   </g>
   <g id="PolyCollection_4">
    <defs>
     <path d="M 454.535 -127.956838 
L 454.535 -75.49 
L 459.165882 -75.49 
L 463.796765 -75.49 
L 468.427647 -75.49 
L 473.058529 -75.49 
L 477.689412 -75.49 
L 482.320294 -75.49 
L 486.951176 -75.49 
L 491.582059 -75.49 
L 496.212941 -75.49 
L 500.843824 -75.49 
L 505.474706 -75.49 
L 510.105588 -75.49 
L 514.736471 -75.49 
L 519.367353 -75.49 
L 523.998235 -75.49 
L 528.629118 -75.49 
L 533.26 -75.49 
L 537.890882 -75.49 
L 542.521765 -75.49 
L 547.152647 -75.49 
L 551.783529 -75.49 
L 556.414412 -75.49 
L 561.045294 -75.49 
L 565.676176 -75.49 
L 570.307059 -75.49 
L 574.937941 -75.49 
L 579.568824 -75.49 
L 584.199706 -75.49 
L 588.830588 -75.49 
L 593.461471 -75.49 
L 598.092353 -75.49 
L 602.723235 -75.49 
L 607.354118 -75.49 
L 611.985 -75.49 
L 616.615882 -75.49 
L 621.246765 -75.49 
L 625.877647 -75.49 
L 630.508529 -75.49 
L 635.139412 -75.49 
L 639.770294 -75.49 
L 644.401176 -75.49 
L 649.032059 -75.49 
L 653.662941 -75.49 
L 658.293824 -75.49 
L 662.924706 -75.49 
L 667.555588 -75.49 
L 672.186471 -75.49 
L 676.817353 -75.49 
L 681.448235 -75.49 
L 686.079118 -75.49 
L 690.71 -75.49 
L 695.340882 -75.49 
L 699.971765 -75.49 
L 704.602647 -75.49 
L 709.233529 -75.49 
L 713.864412 -75.49 
L 718.495294 -75.49 
L 723.126176 -75.49 
L 727.757059 -75.49 
L 732.387941 -75.49 
L 737.018824 -75.49 
L 741.649706 -75.49 
L 746.280588 -75.49 
L 750.911471 -75.49 
L 755.542353 -75.49 
L 760.173235 -75.49 
L 764.804118 -75.49 
L 769.435 -75.49 
L 774.065882 -75.49 
L 778.696765 -75.49 
L 783.327647 -75.49 
L 787.958529 -75.49 
L 792.589412 -75.49 
L 797.220294 -75.49 
L 801.851176 -75.49 
L 806.482059 -75.49 
L 811.112941 -75.49 
L 815.743824 -75.49 
L 820.374706 -75.49 
L 825.005588 -75.49 
L 829.636471 -75.49 
L 834.267353 -75.49 
L 838.898235 -75.49 
L 843.529118 -75.49 
L 848.16 -75.49 
L 848.16 -112.865619 
L 848.16 -112.865619 
L 843.529118 -112.715718 
L 838.898235 -112.376466 
L 834.267353 -112.164556 
L 829.636471 -112.04616 
L 825.005588 -111.819859 
L 820.374706 -111.510478 
L 815.743824 -111.218941 
L 811.112941 -111.03917 
L 806.482059 -110.864173 
L 801.851176 -110.876707 
L 797.220294 -111.026263 
L 792.589412 -111.209886 
L 787.958529 -111.154621 
L 783.327647 -111.281238 
L 778.696765 -111.3054 
L 774.065882 -111.311491 
L 769.435 -111.462003 
L 764.804118 -111.62173 
L 760.173235 -111.690984 
L 755.542353 -111.746494 
L 750.911471 -111.758968 
L 746.280588 -111.922361 
L 741.649706 -112.108171 
L 737.018824 -112.295702 
L 732.387941 -112.601228 
L 727.757059 -112.748473 
L 723.126176 -112.796546 
L 718.495294 -112.896601 
L 713.864412 -113.005344 
L 709.233529 -113.078579 
L 704.602647 -113.341763 
L 699.971765 -113.855697 
L 695.340882 -115.146655 
L 690.71 -114.969215 
L 686.079118 -115.339645 
L 681.448235 -115.648333 
L 676.817353 -115.835374 
L 672.186471 -116.663242 
L 667.555588 -117.430653 
L 662.924706 -117.908081 
L 658.293824 -118.495837 
L 653.662941 -118.755016 
L 649.032059 -119.87755 
L 644.401176 -119.624989 
L 639.770294 -120.513406 
L 635.139412 -121.294422 
L 630.508529 -122.027094 
L 625.877647 -122.682278 
L 621.246765 -123.04513 
L 616.615882 -123.626317 
L 611.985 -123.923674 
L 607.354118 -124.418278 
L 602.723235 -125.004941 
L 598.092353 -125.432648 
L 593.461471 -125.986504 
L 588.830588 -126.562453 
L 584.199706 -126.210065 
L 579.568824 -126.643394 
L 574.937941 -126.854652 
L 570.307059 -127.461776 
L 565.676176 -128.185135 
L 561.045294 -128.350388 
L 556.414412 -136.420412 
L 551.783529 -137.2665 
L 547.152647 -136.456747 
L 542.521765 -135.482397 
L 537.890882 -134.760143 
L 533.26 -136.044796 
L 528.629118 -135.830146 
L 523.998235 -135.943776 
L 519.367353 -135.796435 
L 514.736471 -135.616325 
L 510.105588 -137.295708 
L 505.474706 -137.647568 
L 500.843824 -137.35195 
L 496.212941 -136.601485 
L 491.582059 -135.996582 
L 486.951176 -134.56914 
L 482.320294 -133.690206 
L 477.689412 -132.660197 
L 473.058529 -133.372487 
L 468.427647 -132.439291 
L 463.796765 -133.143719 
L 459.165882 -131.030565 
L 454.535 -127.956838 
z
" id="ma6ffccce3f" style="stroke:#d62728;"/>
    </defs>
    <g clip-path="url(#pf26493acd9)">
     <use style="fill:#d62728;stroke:#d62728;" x="0" xlink:href="#ma6ffccce3f" y="648"/>
    </g>
   </g>
   <g id="matplotlib.axis_7">
    <g id="xtick_37">
     <g id="line2d_64">
      <g>
       <use style="stroke:#000000;stroke-width:0.8;" x="454.535" xlink:href="#mce27e5c2e6" y="572.51"/>
      </g>
     </g>
     <g id="text_32">
      <!-- 2020-04-02 -->
      <g transform="translate(457.294375 637.625625)rotate(-90)scale(0.1 -0.1)">
       <use xlink:href="#DejaVuSans-32"/>
       <use x="63.623047" xlink:href="#DejaVuSans-30"/>
       <use x="127.246094" xlink:href="#DejaVuSans-32"/>
       <use x="190.869141" xlink:href="#DejaVuSans-30"/>
       <use x="254.492188" xlink:href="#DejaVuSans-2d"/>
       <use x="290.576172" xlink:href="#DejaVuSans-30"/>
       <use x="354.199219" xlink:href="#DejaVuSans-34"/>
       <use x="417.822266" xlink:href="#DejaVuSans-2d"/>
       <use x="453.90625" xlink:href="#DejaVuSans-30"/>
       <use x="517.529297" xlink:href="#DejaVuSans-32"/>
      </g>
     </g>
    </g>
    <g id="xtick_38">
     <g id="line2d_65">
      <g>
       <use style="stroke:#000000;stroke-width:0.8;" x="490.319091" xlink:href="#mce27e5c2e6" y="572.51"/>
      </g>
     </g>
     <g id="text_33">
      <!-- 2020-04-09 -->
      <g transform="translate(493.078466 637.625625)rotate(-90)scale(0.1 -0.1)">
       <use xlink:href="#DejaVuSans-32"/>
       <use x="63.623047" xlink:href="#DejaVuSans-30"/>
       <use x="127.246094" xlink:href="#DejaVuSans-32"/>
       <use x="190.869141" xlink:href="#DejaVuSans-30"/>
       <use x="254.492188" xlink:href="#DejaVuSans-2d"/>
       <use x="290.576172" xlink:href="#DejaVuSans-30"/>
       <use x="354.199219" xlink:href="#DejaVuSans-34"/>
       <use x="417.822266" xlink:href="#DejaVuSans-2d"/>
       <use x="453.90625" xlink:href="#DejaVuSans-30"/>
       <use x="517.529297" xlink:href="#DejaVuSans-39"/>
      </g>
     </g>
    </g>
    <g id="xtick_39">
     <g id="line2d_66">
      <g>
       <use style="stroke:#000000;stroke-width:0.8;" x="526.103182" xlink:href="#mce27e5c2e6" y="572.51"/>
      </g>
     </g>
     <g id="text_34">
      <!-- 2020-04-17 -->
      <g transform="translate(528.862557 637.625625)rotate(-90)scale(0.1 -0.1)">
       <use xlink:href="#DejaVuSans-32"/>
       <use x="63.623047" xlink:href="#DejaVuSans-30"/>
       <use x="127.246094" xlink:href="#DejaVuSans-32"/>
       <use x="190.869141" xlink:href="#DejaVuSans-30"/>
       <use x="254.492188" xlink:href="#DejaVuSans-2d"/>
       <use x="290.576172" xlink:href="#DejaVuSans-30"/>
       <use x="354.199219" xlink:href="#DejaVuSans-34"/>
       <use x="417.822266" xlink:href="#DejaVuSans-2d"/>
       <use x="453.90625" xlink:href="#DejaVuSans-31"/>
       <use x="517.529297" xlink:href="#DejaVuSans-37"/>
      </g>
     </g>
    </g>
    <g id="xtick_40">
     <g id="line2d_67">
      <g>
       <use style="stroke:#000000;stroke-width:0.8;" x="561.887273" xlink:href="#mce27e5c2e6" y="572.51"/>
      </g>
     </g>
     <g id="text_35">
      <!-- 2020-04-25 -->
      <g transform="translate(564.646648 637.625625)rotate(-90)scale(0.1 -0.1)">
       <use xlink:href="#DejaVuSans-32"/>
       <use x="63.623047" xlink:href="#DejaVuSans-30"/>
       <use x="127.246094" xlink:href="#DejaVuSans-32"/>
       <use x="190.869141" xlink:href="#DejaVuSans-30"/>
       <use x="254.492188" xlink:href="#DejaVuSans-2d"/>
       <use x="290.576172" xlink:href="#DejaVuSans-30"/>
       <use x="354.199219" xlink:href="#DejaVuSans-34"/>
       <use x="417.822266" xlink:href="#DejaVuSans-2d"/>
       <use x="453.90625" xlink:href="#DejaVuSans-32"/>
       <use x="517.529297" xlink:href="#DejaVuSans-35"/>
      </g>
     </g>
    </g>
    <g id="xtick_41">
     <g id="line2d_68">
      <g>
       <use style="stroke:#000000;stroke-width:0.8;" x="597.671364" xlink:href="#mce27e5c2e6" y="572.51"/>
      </g>
     </g>
     <g id="text_36">
      <!-- 2020-05-02 -->
      <g transform="translate(600.430739 637.625625)rotate(-90)scale(0.1 -0.1)">
       <use xlink:href="#DejaVuSans-32"/>
       <use x="63.623047" xlink:href="#DejaVuSans-30"/>
       <use x="127.246094" xlink:href="#DejaVuSans-32"/>
       <use x="190.869141" xlink:href="#DejaVuSans-30"/>
       <use x="254.492188" xlink:href="#DejaVuSans-2d"/>
       <use x="290.576172" xlink:href="#DejaVuSans-30"/>
       <use x="354.199219" xlink:href="#DejaVuSans-35"/>
       <use x="417.822266" xlink:href="#DejaVuSans-2d"/>
       <use x="453.90625" xlink:href="#DejaVuSans-30"/>
       <use x="517.529297" xlink:href="#DejaVuSans-32"/>
      </g>
     </g>
    </g>
    <g id="xtick_42">
     <g id="line2d_69">
      <g>
       <use style="stroke:#000000;stroke-width:0.8;" x="633.455455" xlink:href="#mce27e5c2e6" y="572.51"/>
      </g>
     </g>
     <g id="text_37">
      <!-- 2020-05-10 -->
      <g transform="translate(636.21483 637.625625)rotate(-90)scale(0.1 -0.1)">
       <use xlink:href="#DejaVuSans-32"/>
       <use x="63.623047" xlink:href="#DejaVuSans-30"/>
       <use x="127.246094" xlink:href="#DejaVuSans-32"/>
       <use x="190.869141" xlink:href="#DejaVuSans-30"/>
       <use x="254.492188" xlink:href="#DejaVuSans-2d"/>
       <use x="290.576172" xlink:href="#DejaVuSans-30"/>
       <use x="354.199219" xlink:href="#DejaVuSans-35"/>
       <use x="417.822266" xlink:href="#DejaVuSans-2d"/>
       <use x="453.90625" xlink:href="#DejaVuSans-31"/>
       <use x="517.529297" xlink:href="#DejaVuSans-30"/>
      </g>
     </g>
    </g>
    <g id="xtick_43">
     <g id="line2d_70">
      <g>
       <use style="stroke:#000000;stroke-width:0.8;" x="669.239545" xlink:href="#mce27e5c2e6" y="572.51"/>
      </g>
     </g>
     <g id="text_38">
      <!-- 2020-05-18 -->
      <g transform="translate(671.99892 637.625625)rotate(-90)scale(0.1 -0.1)">
       <use xlink:href="#DejaVuSans-32"/>
       <use x="63.623047" xlink:href="#DejaVuSans-30"/>
       <use x="127.246094" xlink:href="#DejaVuSans-32"/>
       <use x="190.869141" xlink:href="#DejaVuSans-30"/>
       <use x="254.492188" xlink:href="#DejaVuSans-2d"/>
       <use x="290.576172" xlink:href="#DejaVuSans-30"/>
       <use x="354.199219" xlink:href="#DejaVuSans-35"/>
       <use x="417.822266" xlink:href="#DejaVuSans-2d"/>
       <use x="453.90625" xlink:href="#DejaVuSans-31"/>
       <use x="517.529297" xlink:href="#DejaVuSans-38"/>
      </g>
     </g>
    </g>
    <g id="xtick_44">
     <g id="line2d_71">
      <g>
       <use style="stroke:#000000;stroke-width:0.8;" x="705.023636" xlink:href="#mce27e5c2e6" y="572.51"/>
      </g>
     </g>
     <g id="text_39">
      <!-- 2020-05-26 -->
      <g transform="translate(707.783011 637.625625)rotate(-90)scale(0.1 -0.1)">
       <use xlink:href="#DejaVuSans-32"/>
       <use x="63.623047" xlink:href="#DejaVuSans-30"/>
       <use x="127.246094" xlink:href="#DejaVuSans-32"/>
       <use x="190.869141" xlink:href="#DejaVuSans-30"/>
       <use x="254.492188" xlink:href="#DejaVuSans-2d"/>
       <use x="290.576172" xlink:href="#DejaVuSans-30"/>
       <use x="354.199219" xlink:href="#DejaVuSans-35"/>
       <use x="417.822266" xlink:href="#DejaVuSans-2d"/>
       <use x="453.90625" xlink:href="#DejaVuSans-32"/>
       <use x="517.529297" xlink:href="#DejaVuSans-36"/>
      </g>
     </g>
    </g>
    <g id="xtick_45">
     <g id="line2d_72">
      <g>
       <use style="stroke:#000000;stroke-width:0.8;" x="740.807727" xlink:href="#mce27e5c2e6" y="572.51"/>
      </g>
     </g>
     <g id="text_40">
      <!-- 2020-06-02 -->
      <g transform="translate(743.567102 637.625625)rotate(-90)scale(0.1 -0.1)">
       <use xlink:href="#DejaVuSans-32"/>
       <use x="63.623047" xlink:href="#DejaVuSans-30"/>
       <use x="127.246094" xlink:href="#DejaVuSans-32"/>
       <use x="190.869141" xlink:href="#DejaVuSans-30"/>
       <use x="254.492188" xlink:href="#DejaVuSans-2d"/>
       <use x="290.576172" xlink:href="#DejaVuSans-30"/>
       <use x="354.199219" xlink:href="#DejaVuSans-36"/>
       <use x="417.822266" xlink:href="#DejaVuSans-2d"/>
       <use x="453.90625" xlink:href="#DejaVuSans-30"/>
       <use x="517.529297" xlink:href="#DejaVuSans-32"/>
      </g>
     </g>
    </g>
    <g id="xtick_46">
     <g id="line2d_73">
      <g>
       <use style="stroke:#000000;stroke-width:0.8;" x="776.591818" xlink:href="#mce27e5c2e6" y="572.51"/>
      </g>
     </g>
     <g id="text_41">
      <!-- 2020-06-10 -->
      <g transform="translate(779.351193 637.625625)rotate(-90)scale(0.1 -0.1)">
       <use xlink:href="#DejaVuSans-32"/>
       <use x="63.623047" xlink:href="#DejaVuSans-30"/>
       <use x="127.246094" xlink:href="#DejaVuSans-32"/>
       <use x="190.869141" xlink:href="#DejaVuSans-30"/>
       <use x="254.492188" xlink:href="#DejaVuSans-2d"/>
       <use x="290.576172" xlink:href="#DejaVuSans-30"/>
       <use x="354.199219" xlink:href="#DejaVuSans-36"/>
       <use x="417.822266" xlink:href="#DejaVuSans-2d"/>
       <use x="453.90625" xlink:href="#DejaVuSans-31"/>
       <use x="517.529297" xlink:href="#DejaVuSans-30"/>
      </g>
     </g>
    </g>
    <g id="xtick_47">
     <g id="line2d_74">
      <g>
       <use style="stroke:#000000;stroke-width:0.8;" x="812.375909" xlink:href="#mce27e5c2e6" y="572.51"/>
      </g>
     </g>
     <g id="text_42">
      <!-- 2020-06-18 -->
      <g transform="translate(815.135284 637.625625)rotate(-90)scale(0.1 -0.1)">
       <use xlink:href="#DejaVuSans-32"/>
       <use x="63.623047" xlink:href="#DejaVuSans-30"/>
       <use x="127.246094" xlink:href="#DejaVuSans-32"/>
       <use x="190.869141" xlink:href="#DejaVuSans-30"/>
       <use x="254.492188" xlink:href="#DejaVuSans-2d"/>
       <use x="290.576172" xlink:href="#DejaVuSans-30"/>
       <use x="354.199219" xlink:href="#DejaVuSans-36"/>
       <use x="417.822266" xlink:href="#DejaVuSans-2d"/>
       <use x="453.90625" xlink:href="#DejaVuSans-31"/>
       <use x="517.529297" xlink:href="#DejaVuSans-38"/>
      </g>
     </g>
    </g>
    <g id="xtick_48">
     <g id="line2d_75">
      <g>
       <use style="stroke:#000000;stroke-width:0.8;" x="848.16" xlink:href="#mce27e5c2e6" y="572.51"/>
      </g>
     </g>
     <g id="text_43">
      <!-- 2020-06-26 -->
      <g transform="translate(850.919375 637.625625)rotate(-90)scale(0.1 -0.1)">
       <use xlink:href="#DejaVuSans-32"/>
       <use x="63.623047" xlink:href="#DejaVuSans-30"/>
       <use x="127.246094" xlink:href="#DejaVuSans-32"/>
       <use x="190.869141" xlink:href="#DejaVuSans-30"/>
       <use x="254.492188" xlink:href="#DejaVuSans-2d"/>
       <use x="290.576172" xlink:href="#DejaVuSans-30"/>
       <use x="354.199219" xlink:href="#DejaVuSans-36"/>
       <use x="417.822266" xlink:href="#DejaVuSans-2d"/>
       <use x="453.90625" xlink:href="#DejaVuSans-32"/>
       <use x="517.529297" xlink:href="#DejaVuSans-36"/>
      </g>
     </g>
    </g>
   </g>
   <g id="matplotlib.axis_8">
    <g id="ytick_25">
     <g id="line2d_76">
      <g>
       <use style="stroke:#000000;stroke-width:0.8;" x="454.535" xlink:href="#maf435741c2" y="572.51"/>
      </g>
     </g>
    </g>
    <g id="ytick_26">
     <g id="line2d_77">
      <g>
       <use style="stroke:#000000;stroke-width:0.8;" x="454.535" xlink:href="#maf435741c2" y="540.172378"/>
      </g>
     </g>
    </g>
    <g id="ytick_27">
     <g id="line2d_78">
      <g>
       <use style="stroke:#000000;stroke-width:0.8;" x="454.535" xlink:href="#maf435741c2" y="507.834756"/>
      </g>
     </g>
    </g>
    <g id="ytick_28">
     <g id="line2d_79">
      <g>
       <use style="stroke:#000000;stroke-width:0.8;" x="454.535" xlink:href="#maf435741c2" y="475.497134"/>
      </g>
     </g>
    </g>
    <g id="ytick_29">
     <g id="line2d_80">
      <g>
       <use style="stroke:#000000;stroke-width:0.8;" x="454.535" xlink:href="#maf435741c2" y="443.159512"/>
      </g>
     </g>
    </g>
    <g id="ytick_30">
     <g id="line2d_81">
      <g>
       <use style="stroke:#000000;stroke-width:0.8;" x="454.535" xlink:href="#maf435741c2" y="410.82189"/>
      </g>
     </g>
    </g>
    <g id="ytick_31">
     <g id="line2d_82">
      <g>
       <use style="stroke:#000000;stroke-width:0.8;" x="454.535" xlink:href="#maf435741c2" y="378.484268"/>
      </g>
     </g>
    </g>
    <g id="ytick_32">
     <g id="line2d_83">
      <g>
       <use style="stroke:#000000;stroke-width:0.8;" x="454.535" xlink:href="#maf435741c2" y="346.146646"/>
      </g>
     </g>
    </g>
   </g>
   <g id="line2d_84">
    <path clip-path="url(#pf26493acd9)" d="M 454.535 520.043162 
L 459.165882 516.969435 
L 463.796765 514.856281 
L 468.427647 515.560709 
L 473.058529 514.627513 
L 477.689412 515.339803 
L 482.320294 514.309794 
L 486.951176 513.43086 
L 491.582059 512.003418 
L 496.212941 511.398515 
L 500.843824 510.64805 
L 505.474706 510.352432 
L 510.105588 510.704292 
L 514.736471 512.383675 
L 519.367353 512.203565 
L 523.998235 512.056224 
L 528.629118 512.169854 
L 533.26 511.955204 
L 537.890882 513.239857 
L 542.521765 512.517603 
L 547.152647 511.543253 
L 551.783529 510.7335 
L 556.414412 511.579588 
L 561.045294 519.649612 
L 565.676176 519.814865 
L 570.307059 520.538224 
L 574.937941 521.145348 
L 579.568824 521.356606 
L 584.199706 521.789935 
L 588.830588 521.437547 
L 593.461471 522.013496 
L 598.092353 522.567352 
L 602.723235 522.995059 
L 607.354118 523.581722 
L 611.985 524.076326 
L 616.615882 524.373683 
L 621.246765 524.95487 
L 625.877647 525.317722 
L 630.508529 525.972906 
L 635.139412 526.705578 
L 639.770294 527.486594 
L 644.401176 528.375011 
L 649.032059 528.12245 
L 653.662941 529.244984 
L 658.293824 529.504163 
L 662.924706 530.091919 
L 667.555588 530.569347 
L 672.186471 531.336758 
L 676.817353 532.164626 
L 681.448235 532.351667 
L 686.079118 532.660355 
L 690.71 533.030785 
L 695.340882 532.853345 
L 699.971765 534.144303 
L 704.602647 534.658237 
L 709.233529 534.921421 
L 713.864412 534.994656 
L 718.495294 535.103399 
L 723.126176 535.203454 
L 727.757059 535.251527 
L 732.387941 535.398772 
L 737.018824 535.704298 
L 741.649706 535.891829 
L 746.280588 536.077639 
L 750.911471 536.241032 
L 755.542353 536.253506 
L 760.173235 536.309016 
L 764.804118 536.37827 
L 769.435 536.537997 
L 774.065882 536.688509 
L 778.696765 536.6946 
L 783.327647 536.718762 
L 787.958529 536.845379 
L 792.589412 536.790114 
L 797.220294 536.973737 
L 801.851176 537.123293 
L 806.482059 537.135827 
L 811.112941 536.96083 
L 815.743824 536.781059 
L 820.374706 536.489522 
L 825.005588 536.180141 
L 829.636471 535.95384 
L 834.267353 535.835444 
L 838.898235 535.623534 
L 843.529118 535.284282 
L 848.16 535.134381 
" style="fill:none;stroke:#d62728;stroke-linecap:square;stroke-width:1.5;"/>
   </g>
   <g id="patch_18">
    <path d="M 454.535 572.51 
L 454.535 314.755 
" style="fill:none;stroke:#000000;stroke-linecap:square;stroke-linejoin:miter;stroke-width:0.8;"/>
   </g>
   <g id="patch_19">
    <path d="M 848.16 572.51 
L 848.16 314.755 
" style="fill:none;stroke:#000000;stroke-linecap:square;stroke-linejoin:miter;stroke-width:0.8;"/>
   </g>
   <g id="patch_20">
    <path d="M 454.535 572.51 
L 848.16 572.51 
" style="fill:none;stroke:#000000;stroke-linecap:square;stroke-linejoin:miter;stroke-width:0.8;"/>
   </g>
   <g id="patch_21">
    <path d="M 454.535 314.755 
L 848.16 314.755 
" style="fill:none;stroke:#000000;stroke-linecap:square;stroke-linejoin:miter;stroke-width:0.8;"/>
   </g>
   <g id="text_44">
    <!-- West -->
    <defs>
     <path d="M 3.328125 72.90625 
L 13.28125 72.90625 
L 28.609375 11.28125 
L 43.890625 72.90625 
L 54.984375 72.90625 
L 70.3125 11.28125 
L 85.59375 72.90625 
L 95.609375 72.90625 
L 77.296875 0 
L 64.890625 0 
L 49.515625 63.28125 
L 33.984375 0 
L 21.578125 0 
z
" id="DejaVuSans-57"/>
    </defs>
    <g transform="translate(636.25 308.755)scale(0.12 -0.12)">
     <use xlink:href="#DejaVuSans-57"/>
     <use x="98.798828" xlink:href="#DejaVuSans-65"/>
     <use x="160.322266" xlink:href="#DejaVuSans-73"/>
     <use x="212.421875" xlink:href="#DejaVuSans-74"/>
    </g>
   </g>
  </g>
 </g>
 <defs>
  <clipPath id="p995b36823f">
   <rect height="257.755" width="393.625" x="40.03" y="25.44"/>
  </clipPath>
  <clipPath id="p1124345188">
   <rect height="257.755" width="393.625" x="454.535" y="25.44"/>
  </clipPath>
  <clipPath id="pee0b5750f1">
   <rect height="257.755" width="393.625" x="40.03" y="314.755"/>
  </clipPath>
  <clipPath id="pf26493acd9">
   <rect height="257.755" width="393.625" x="454.535" y="314.755"/>
  </clipPath>
 </defs>
</svg>
