<?xml version="1.0" encoding="utf-8" standalone="no"?>
<!DOCTYPE svg PUBLIC "-//W3C//DTD SVG 1.1//EN"
  "http://www.w3.org/Graphics/SVG/1.1/DTD/svg11.dtd">
<!-- Created with matplotlib (http://matplotlib.org/) -->
<svg height="648pt" version="1.1" viewBox="0 0 864 648" width="864pt" xmlns="http://www.w3.org/2000/svg" xmlns:xlink="http://www.w3.org/1999/xlink">
 <defs>
  <style type="text/css">
*{stroke-linecap:butt;stroke-linejoin:round;}
  </style>
 </defs>
 <g id="figure_1">
  <g id="patch_1">
   <path d="M 0 648 
L 864 648 
L 864 0 
L 0 0 
z
" style="fill:#ffffff;"/>
  </g>
  <g id="axes_1">
   <g id="patch_2">
    <path d="M 40.03 283.195 
L 433.655 283.195 
L 433.655 25.44 
L 40.03 25.44 
z
" style="fill:#ffffff;"/>
   </g>
   <g id="PolyCollection_1">
    <defs>
     <path d="M 40.03 -494.84861 
L 40.03 -364.805 
L 46.37879 -364.805 
L 52.727581 -364.805 
L 59.076371 -364.805 
L 65.425161 -364.805 
L 71.773952 -364.805 
L 78.122742 -364.805 
L 84.471532 -364.805 
L 90.820323 -364.805 
L 97.169113 -364.805 
L 103.517903 -364.805 
L 109.866694 -364.805 
L 116.215484 -364.805 
L 122.564274 -364.805 
L 128.913065 -364.805 
L 135.261855 -364.805 
L 141.610645 -364.805 
L 147.959435 -364.805 
L 154.308226 -364.805 
L 160.657016 -364.805 
L 167.005806 -364.805 
L 173.354597 -364.805 
L 179.703387 -364.805 
L 186.052177 -364.805 
L 192.400968 -364.805 
L 198.749758 -364.805 
L 205.098548 -364.805 
L 211.447339 -364.805 
L 217.796129 -364.805 
L 224.144919 -364.805 
L 230.49371 -364.805 
L 236.8425 -364.805 
L 243.19129 -364.805 
L 249.540081 -364.805 
L 255.888871 -364.805 
L 262.237661 -364.805 
L 268.586452 -364.805 
L 274.935242 -364.805 
L 281.284032 -364.805 
L 287.632823 -364.805 
L 293.981613 -364.805 
L 300.330403 -364.805 
L 306.679194 -364.805 
L 313.027984 -364.805 
L 319.376774 -364.805 
L 325.725565 -364.805 
L 332.074355 -364.805 
L 338.423145 -364.805 
L 344.771935 -364.805 
L 351.120726 -364.805 
L 357.469516 -364.805 
L 363.818306 -364.805 
L 370.167097 -364.805 
L 376.515887 -364.805 
L 382.864677 -364.805 
L 389.213468 -364.805 
L 395.562258 -364.805 
L 401.911048 -364.805 
L 408.259839 -364.805 
L 414.608629 -364.805 
L 420.957419 -364.805 
L 427.30621 -364.805 
L 433.655 -364.805 
L 433.655 -426.647979 
L 433.655 -426.647979 
L 427.30621 -427.093167 
L 420.957419 -427.519975 
L 414.608629 -427.757398 
L 408.259839 -428.010855 
L 401.911048 -428.454993 
L 395.562258 -429.057628 
L 389.213468 -429.682161 
L 382.864677 -430.151698 
L 376.515887 -430.568445 
L 370.167097 -430.925448 
L 363.818306 -431.340455 
L 357.469516 -431.961889 
L 351.120726 -432.809842 
L 344.771935 -433.506678 
L 338.423145 -434.315441 
L 332.074355 -434.983936 
L 325.725565 -435.461644 
L 319.376774 -436.282011 
L 313.027984 -436.968713 
L 306.679194 -437.902733 
L 300.330403 -438.763762 
L 293.981613 -439.757516 
L 287.632823 -440.763821 
L 281.284032 -441.30804 
L 274.935242 -442.092485 
L 268.586452 -442.933121 
L 262.237661 -444.453012 
L 255.888871 -446.006621 
L 249.540081 -447.20736 
L 243.19129 -447.997039 
L 236.8425 -449.08365 
L 230.49371 -450.394524 
L 224.144919 -451.610932 
L 217.796129 -452.809746 
L 211.447339 -453.970228 
L 205.098548 -455.062386 
L 198.749758 -456.236254 
L 192.400968 -457.467979 
L 186.052177 -458.706098 
L 179.703387 -459.861999 
L 173.354597 -460.950648 
L 167.005806 -462.316734 
L 160.657016 -463.370733 
L 154.308226 -464.841151 
L 147.959435 -465.911588 
L 141.610645 -467.744219 
L 135.261855 -470.962817 
L 128.913065 -473.209292 
L 122.564274 -474.655489 
L 116.215484 -475.96482 
L 109.866694 -477.432159 
L 103.517903 -478.602094 
L 97.169113 -480.849804 
L 90.820323 -482.592468 
L 84.471532 -485.530366 
L 78.122742 -485.865259 
L 71.773952 -487.418178 
L 65.425161 -487.545718 
L 59.076371 -490.053298 
L 52.727581 -490.471464 
L 46.37879 -493.512575 
L 40.03 -494.84861 
z
" id="m1574dcac99" style="stroke:#1f77b4;"/>
    </defs>
    <g clip-path="url(#pe3f2b2e9ea)">
     <use style="fill:#1f77b4;stroke:#1f77b4;" x="0" xlink:href="#m1574dcac99" y="648"/>
    </g>
   </g>
   <g id="matplotlib.axis_1">
    <g id="xtick_1">
     <g id="line2d_1">
      <defs>
       <path d="M 0 0 
L 0 3.5 
" id="m04a1898db7" style="stroke:#000000;stroke-width:0.8;"/>
      </defs>
      <g>
       <use style="stroke:#000000;stroke-width:0.8;" x="40.03" xlink:href="#m04a1898db7" y="283.195"/>
      </g>
     </g>
    </g>
    <g id="xtick_2">
     <g id="line2d_2">
      <g>
       <use style="stroke:#000000;stroke-width:0.8;" x="75.814091" xlink:href="#m04a1898db7" y="283.195"/>
      </g>
     </g>
    </g>
    <g id="xtick_3">
     <g id="line2d_3">
      <g>
       <use style="stroke:#000000;stroke-width:0.8;" x="111.598182" xlink:href="#m04a1898db7" y="283.195"/>
      </g>
     </g>
    </g>
    <g id="xtick_4">
     <g id="line2d_4">
      <g>
       <use style="stroke:#000000;stroke-width:0.8;" x="147.382273" xlink:href="#m04a1898db7" y="283.195"/>
      </g>
     </g>
    </g>
    <g id="xtick_5">
     <g id="line2d_5">
      <g>
       <use style="stroke:#000000;stroke-width:0.8;" x="183.166364" xlink:href="#m04a1898db7" y="283.195"/>
      </g>
     </g>
    </g>
    <g id="xtick_6">
     <g id="line2d_6">
      <g>
       <use style="stroke:#000000;stroke-width:0.8;" x="218.950455" xlink:href="#m04a1898db7" y="283.195"/>
      </g>
     </g>
    </g>
    <g id="xtick_7">
     <g id="line2d_7">
      <g>
       <use style="stroke:#000000;stroke-width:0.8;" x="254.734545" xlink:href="#m04a1898db7" y="283.195"/>
      </g>
     </g>
    </g>
    <g id="xtick_8">
     <g id="line2d_8">
      <g>
       <use style="stroke:#000000;stroke-width:0.8;" x="290.518636" xlink:href="#m04a1898db7" y="283.195"/>
      </g>
     </g>
    </g>
    <g id="xtick_9">
     <g id="line2d_9">
      <g>
       <use style="stroke:#000000;stroke-width:0.8;" x="326.302727" xlink:href="#m04a1898db7" y="283.195"/>
      </g>
     </g>
    </g>
    <g id="xtick_10">
     <g id="line2d_10">
      <g>
       <use style="stroke:#000000;stroke-width:0.8;" x="362.086818" xlink:href="#m04a1898db7" y="283.195"/>
      </g>
     </g>
    </g>
    <g id="xtick_11">
     <g id="line2d_11">
      <g>
       <use style="stroke:#000000;stroke-width:0.8;" x="397.870909" xlink:href="#m04a1898db7" y="283.195"/>
      </g>
     </g>
    </g>
    <g id="xtick_12">
     <g id="line2d_12">
      <g>
       <use style="stroke:#000000;stroke-width:0.8;" x="433.655" xlink:href="#m04a1898db7" y="283.195"/>
      </g>
     </g>
    </g>
   </g>
   <g id="matplotlib.axis_2">
    <g id="ytick_1">
     <g id="line2d_13">
      <defs>
       <path d="M 0 0 
L -3.5 0 
" id="ma735381ff7" style="stroke:#000000;stroke-width:0.8;"/>
      </defs>
      <g>
       <use style="stroke:#000000;stroke-width:0.8;" x="40.03" xlink:href="#ma735381ff7" y="283.195"/>
      </g>
     </g>
     <g id="text_1">
      <!-- 0.00 -->
      <defs>
       <path d="M 31.78125 66.40625 
Q 24.171875 66.40625 20.328125 58.90625 
Q 16.5 51.421875 16.5 36.375 
Q 16.5 21.390625 20.328125 13.890625 
Q 24.171875 6.390625 31.78125 6.390625 
Q 39.453125 6.390625 43.28125 13.890625 
Q 47.125 21.390625 47.125 36.375 
Q 47.125 51.421875 43.28125 58.90625 
Q 39.453125 66.40625 31.78125 66.40625 
z
M 31.78125 74.21875 
Q 44.046875 74.21875 50.515625 64.515625 
Q 56.984375 54.828125 56.984375 36.375 
Q 56.984375 17.96875 50.515625 8.265625 
Q 44.046875 -1.421875 31.78125 -1.421875 
Q 19.53125 -1.421875 13.0625 8.265625 
Q 6.59375 17.96875 6.59375 36.375 
Q 6.59375 54.828125 13.0625 64.515625 
Q 19.53125 74.21875 31.78125 74.21875 
z
" id="DejaVuSans-30"/>
       <path d="M 10.6875 12.40625 
L 21 12.40625 
L 21 0 
L 10.6875 0 
z
" id="DejaVuSans-2e"/>
      </defs>
      <g transform="translate(10.764375 286.994219)scale(0.1 -0.1)">
       <use xlink:href="#DejaVuSans-30"/>
       <use x="63.623047" xlink:href="#DejaVuSans-2e"/>
       <use x="95.410156" xlink:href="#DejaVuSans-30"/>
       <use x="159.033203" xlink:href="#DejaVuSans-30"/>
      </g>
     </g>
    </g>
    <g id="ytick_2">
     <g id="line2d_14">
      <g>
       <use style="stroke:#000000;stroke-width:0.8;" x="40.03" xlink:href="#ma735381ff7" y="243.223837"/>
      </g>
     </g>
     <g id="text_2">
      <!-- 0.05 -->
      <defs>
       <path d="M 10.796875 72.90625 
L 49.515625 72.90625 
L 49.515625 64.59375 
L 19.828125 64.59375 
L 19.828125 46.734375 
Q 21.96875 47.46875 24.109375 47.828125 
Q 26.265625 48.1875 28.421875 48.1875 
Q 40.625 48.1875 47.75 41.5 
Q 54.890625 34.8125 54.890625 23.390625 
Q 54.890625 11.625 47.5625 5.09375 
Q 40.234375 -1.421875 26.90625 -1.421875 
Q 22.3125 -1.421875 17.546875 -0.640625 
Q 12.796875 0.140625 7.71875 1.703125 
L 7.71875 11.625 
Q 12.109375 9.234375 16.796875 8.0625 
Q 21.484375 6.890625 26.703125 6.890625 
Q 35.15625 6.890625 40.078125 11.328125 
Q 45.015625 15.765625 45.015625 23.390625 
Q 45.015625 31 40.078125 35.4375 
Q 35.15625 39.890625 26.703125 39.890625 
Q 22.75 39.890625 18.8125 39.015625 
Q 14.890625 38.140625 10.796875 36.28125 
z
" id="DejaVuSans-35"/>
      </defs>
      <g transform="translate(10.764375 247.023056)scale(0.1 -0.1)">
       <use xlink:href="#DejaVuSans-30"/>
       <use x="63.623047" xlink:href="#DejaVuSans-2e"/>
       <use x="95.410156" xlink:href="#DejaVuSans-30"/>
       <use x="159.033203" xlink:href="#DejaVuSans-35"/>
      </g>
     </g>
    </g>
    <g id="ytick_3">
     <g id="line2d_15">
      <g>
       <use style="stroke:#000000;stroke-width:0.8;" x="40.03" xlink:href="#ma735381ff7" y="203.252674"/>
      </g>
     </g>
     <g id="text_3">
      <!-- 0.10 -->
      <defs>
       <path d="M 12.40625 8.296875 
L 28.515625 8.296875 
L 28.515625 63.921875 
L 10.984375 60.40625 
L 10.984375 69.390625 
L 28.421875 72.90625 
L 38.28125 72.90625 
L 38.28125 8.296875 
L 54.390625 8.296875 
L 54.390625 0 
L 12.40625 0 
z
" id="DejaVuSans-31"/>
      </defs>
      <g transform="translate(10.764375 207.051893)scale(0.1 -0.1)">
       <use xlink:href="#DejaVuSans-30"/>
       <use x="63.623047" xlink:href="#DejaVuSans-2e"/>
       <use x="95.410156" xlink:href="#DejaVuSans-31"/>
       <use x="159.033203" xlink:href="#DejaVuSans-30"/>
      </g>
     </g>
    </g>
    <g id="ytick_4">
     <g id="line2d_16">
      <g>
       <use style="stroke:#000000;stroke-width:0.8;" x="40.03" xlink:href="#ma735381ff7" y="163.281512"/>
      </g>
     </g>
     <g id="text_4">
      <!-- 0.15 -->
      <g transform="translate(10.764375 167.08073)scale(0.1 -0.1)">
       <use xlink:href="#DejaVuSans-30"/>
       <use x="63.623047" xlink:href="#DejaVuSans-2e"/>
       <use x="95.410156" xlink:href="#DejaVuSans-31"/>
       <use x="159.033203" xlink:href="#DejaVuSans-35"/>
      </g>
     </g>
    </g>
    <g id="ytick_5">
     <g id="line2d_17">
      <g>
       <use style="stroke:#000000;stroke-width:0.8;" x="40.03" xlink:href="#ma735381ff7" y="123.310349"/>
      </g>
     </g>
     <g id="text_5">
      <!-- 0.20 -->
      <defs>
       <path d="M 19.1875 8.296875 
L 53.609375 8.296875 
L 53.609375 0 
L 7.328125 0 
L 7.328125 8.296875 
Q 12.9375 14.109375 22.625 23.890625 
Q 32.328125 33.6875 34.8125 36.53125 
Q 39.546875 41.84375 41.421875 45.53125 
Q 43.3125 49.21875 43.3125 52.78125 
Q 43.3125 58.59375 39.234375 62.25 
Q 35.15625 65.921875 28.609375 65.921875 
Q 23.96875 65.921875 18.8125 64.3125 
Q 13.671875 62.703125 7.8125 59.421875 
L 7.8125 69.390625 
Q 13.765625 71.78125 18.9375 73 
Q 24.125 74.21875 28.421875 74.21875 
Q 39.75 74.21875 46.484375 68.546875 
Q 53.21875 62.890625 53.21875 53.421875 
Q 53.21875 48.921875 51.53125 44.890625 
Q 49.859375 40.875 45.40625 35.40625 
Q 44.1875 33.984375 37.640625 27.21875 
Q 31.109375 20.453125 19.1875 8.296875 
z
" id="DejaVuSans-32"/>
      </defs>
      <g transform="translate(10.764375 127.109568)scale(0.1 -0.1)">
       <use xlink:href="#DejaVuSans-30"/>
       <use x="63.623047" xlink:href="#DejaVuSans-2e"/>
       <use x="95.410156" xlink:href="#DejaVuSans-32"/>
       <use x="159.033203" xlink:href="#DejaVuSans-30"/>
      </g>
     </g>
    </g>
    <g id="ytick_6">
     <g id="line2d_18">
      <g>
       <use style="stroke:#000000;stroke-width:0.8;" x="40.03" xlink:href="#ma735381ff7" y="83.339186"/>
      </g>
     </g>
     <g id="text_6">
      <!-- 0.25 -->
      <g transform="translate(10.764375 87.138405)scale(0.1 -0.1)">
       <use xlink:href="#DejaVuSans-30"/>
       <use x="63.623047" xlink:href="#DejaVuSans-2e"/>
       <use x="95.410156" xlink:href="#DejaVuSans-32"/>
       <use x="159.033203" xlink:href="#DejaVuSans-35"/>
      </g>
     </g>
    </g>
    <g id="ytick_7">
     <g id="line2d_19">
      <g>
       <use style="stroke:#000000;stroke-width:0.8;" x="40.03" xlink:href="#ma735381ff7" y="43.368023"/>
      </g>
     </g>
     <g id="text_7">
      <!-- 0.30 -->
      <defs>
       <path d="M 40.578125 39.3125 
Q 47.65625 37.796875 51.625 33 
Q 55.609375 28.21875 55.609375 21.1875 
Q 55.609375 10.40625 48.1875 4.484375 
Q 40.765625 -1.421875 27.09375 -1.421875 
Q 22.515625 -1.421875 17.65625 -0.515625 
Q 12.796875 0.390625 7.625 2.203125 
L 7.625 11.71875 
Q 11.71875 9.328125 16.59375 8.109375 
Q 21.484375 6.890625 26.8125 6.890625 
Q 36.078125 6.890625 40.9375 10.546875 
Q 45.796875 14.203125 45.796875 21.1875 
Q 45.796875 27.640625 41.28125 31.265625 
Q 36.765625 34.90625 28.71875 34.90625 
L 20.21875 34.90625 
L 20.21875 43.015625 
L 29.109375 43.015625 
Q 36.375 43.015625 40.234375 45.921875 
Q 44.09375 48.828125 44.09375 54.296875 
Q 44.09375 59.90625 40.109375 62.90625 
Q 36.140625 65.921875 28.71875 65.921875 
Q 24.65625 65.921875 20.015625 65.03125 
Q 15.375 64.15625 9.8125 62.3125 
L 9.8125 71.09375 
Q 15.4375 72.65625 20.34375 73.4375 
Q 25.25 74.21875 29.59375 74.21875 
Q 40.828125 74.21875 47.359375 69.109375 
Q 53.90625 64.015625 53.90625 55.328125 
Q 53.90625 49.265625 50.4375 45.09375 
Q 46.96875 40.921875 40.578125 39.3125 
z
" id="DejaVuSans-33"/>
      </defs>
      <g transform="translate(10.764375 47.167242)scale(0.1 -0.1)">
       <use xlink:href="#DejaVuSans-30"/>
       <use x="63.623047" xlink:href="#DejaVuSans-2e"/>
       <use x="95.410156" xlink:href="#DejaVuSans-33"/>
       <use x="159.033203" xlink:href="#DejaVuSans-30"/>
      </g>
     </g>
    </g>
   </g>
   <g id="line2d_20">
    <path clip-path="url(#pe3f2b2e9ea)" d="M 40.03 153.15139 
L 46.37879 154.487425 
L 52.727581 157.528536 
L 59.076371 157.946702 
L 65.425161 160.454282 
L 71.773952 160.581822 
L 78.122742 162.134741 
L 84.471532 162.469634 
L 90.820323 165.407532 
L 97.169113 167.150196 
L 103.517903 169.397906 
L 109.866694 170.567841 
L 116.215484 172.03518 
L 122.564274 173.344511 
L 128.913065 174.790708 
L 135.261855 177.037183 
L 141.610645 180.255781 
L 147.959435 182.088412 
L 154.308226 183.158849 
L 160.657016 184.629267 
L 167.005806 185.683266 
L 173.354597 187.049352 
L 179.703387 188.138001 
L 186.052177 189.293902 
L 192.400968 190.532021 
L 198.749758 191.763746 
L 205.098548 192.937614 
L 211.447339 194.029772 
L 217.796129 195.190254 
L 224.144919 196.389068 
L 230.49371 197.605476 
L 236.8425 198.91635 
L 243.19129 200.002961 
L 249.540081 200.79264 
L 255.888871 201.993379 
L 262.237661 203.546988 
L 268.586452 205.066879 
L 274.935242 205.907515 
L 281.284032 206.69196 
L 287.632823 207.236179 
L 293.981613 208.242484 
L 300.330403 209.236238 
L 306.679194 210.097267 
L 313.027984 211.031287 
L 319.376774 211.717989 
L 325.725565 212.538356 
L 332.074355 213.016064 
L 338.423145 213.684559 
L 344.771935 214.493322 
L 351.120726 215.190158 
L 357.469516 216.038111 
L 363.818306 216.659545 
L 370.167097 217.074552 
L 376.515887 217.431555 
L 382.864677 217.848302 
L 389.213468 218.317839 
L 395.562258 218.942372 
L 401.911048 219.545007 
L 408.259839 219.989145 
L 414.608629 220.242602 
L 420.957419 220.480025 
L 427.30621 220.906833 
L 433.655 221.352021 
" style="fill:none;stroke:#1f77b4;stroke-linecap:square;stroke-width:1.5;"/>
   </g>
   <g id="patch_3">
    <path d="M 40.03 283.195 
L 40.03 25.44 
" style="fill:none;stroke:#000000;stroke-linecap:square;stroke-linejoin:miter;stroke-width:0.8;"/>
   </g>
   <g id="patch_4">
    <path d="M 433.655 283.195 
L 433.655 25.44 
" style="fill:none;stroke:#000000;stroke-linecap:square;stroke-linejoin:miter;stroke-width:0.8;"/>
   </g>
   <g id="patch_5">
    <path d="M 40.03 283.195 
L 433.655 283.195 
" style="fill:none;stroke:#000000;stroke-linecap:square;stroke-linejoin:miter;stroke-width:0.8;"/>
   </g>
   <g id="patch_6">
    <path d="M 40.03 25.44 
L 433.655 25.44 
" style="fill:none;stroke:#000000;stroke-linecap:square;stroke-linejoin:miter;stroke-width:0.8;"/>
   </g>
   <g id="text_8">
    <!-- Midwest -->
    <defs>
     <path d="M 9.8125 72.90625 
L 24.515625 72.90625 
L 43.109375 23.296875 
L 61.8125 72.90625 
L 76.515625 72.90625 
L 76.515625 0 
L 66.890625 0 
L 66.890625 64.015625 
L 48.09375 14.015625 
L 38.1875 14.015625 
L 19.390625 64.015625 
L 19.390625 0 
L 9.8125 0 
z
" id="DejaVuSans-4d"/>
     <path d="M 9.421875 54.6875 
L 18.40625 54.6875 
L 18.40625 0 
L 9.421875 0 
z
M 9.421875 75.984375 
L 18.40625 75.984375 
L 18.40625 64.59375 
L 9.421875 64.59375 
z
" id="DejaVuSans-69"/>
     <path d="M 45.40625 46.390625 
L 45.40625 75.984375 
L 54.390625 75.984375 
L 54.390625 0 
L 45.40625 0 
L 45.40625 8.203125 
Q 42.578125 3.328125 38.25 0.953125 
Q 33.9375 -1.421875 27.875 -1.421875 
Q 17.96875 -1.421875 11.734375 6.484375 
Q 5.515625 14.40625 5.515625 27.296875 
Q 5.515625 40.1875 11.734375 48.09375 
Q 17.96875 56 27.875 56 
Q 33.9375 56 38.25 53.625 
Q 42.578125 51.265625 45.40625 46.390625 
z
M 14.796875 27.296875 
Q 14.796875 17.390625 18.875 11.75 
Q 22.953125 6.109375 30.078125 6.109375 
Q 37.203125 6.109375 41.296875 11.75 
Q 45.40625 17.390625 45.40625 27.296875 
Q 45.40625 37.203125 41.296875 42.84375 
Q 37.203125 48.484375 30.078125 48.484375 
Q 22.953125 48.484375 18.875 42.84375 
Q 14.796875 37.203125 14.796875 27.296875 
z
" id="DejaVuSans-64"/>
     <path d="M 4.203125 54.6875 
L 13.1875 54.6875 
L 24.421875 12.015625 
L 35.59375 54.6875 
L 46.1875 54.6875 
L 57.421875 12.015625 
L 68.609375 54.6875 
L 77.59375 54.6875 
L 63.28125 0 
L 52.6875 0 
L 40.921875 44.828125 
L 29.109375 0 
L 18.5 0 
z
" id="DejaVuSans-77"/>
     <path d="M 56.203125 29.59375 
L 56.203125 25.203125 
L 14.890625 25.203125 
Q 15.484375 15.921875 20.484375 11.0625 
Q 25.484375 6.203125 34.421875 6.203125 
Q 39.59375 6.203125 44.453125 7.46875 
Q 49.3125 8.734375 54.109375 11.28125 
L 54.109375 2.78125 
Q 49.265625 0.734375 44.1875 -0.34375 
Q 39.109375 -1.421875 33.890625 -1.421875 
Q 20.796875 -1.421875 13.15625 6.1875 
Q 5.515625 13.8125 5.515625 26.8125 
Q 5.515625 40.234375 12.765625 48.109375 
Q 20.015625 56 32.328125 56 
Q 43.359375 56 49.78125 48.890625 
Q 56.203125 41.796875 56.203125 29.59375 
z
M 47.21875 32.234375 
Q 47.125 39.59375 43.09375 43.984375 
Q 39.0625 48.390625 32.421875 48.390625 
Q 24.90625 48.390625 20.390625 44.140625 
Q 15.875 39.890625 15.1875 32.171875 
z
" id="DejaVuSans-65"/>
     <path d="M 44.28125 53.078125 
L 44.28125 44.578125 
Q 40.484375 46.53125 36.375 47.5 
Q 32.28125 48.484375 27.875 48.484375 
Q 21.1875 48.484375 17.84375 46.4375 
Q 14.5 44.390625 14.5 40.28125 
Q 14.5 37.15625 16.890625 35.375 
Q 19.28125 33.59375 26.515625 31.984375 
L 29.59375 31.296875 
Q 39.15625 29.25 43.1875 25.515625 
Q 47.21875 21.78125 47.21875 15.09375 
Q 47.21875 7.46875 41.1875 3.015625 
Q 35.15625 -1.421875 24.609375 -1.421875 
Q 20.21875 -1.421875 15.453125 -0.5625 
Q 10.6875 0.296875 5.421875 2 
L 5.421875 11.28125 
Q 10.40625 8.6875 15.234375 7.390625 
Q 20.0625 6.109375 24.8125 6.109375 
Q 31.15625 6.109375 34.5625 8.28125 
Q 37.984375 10.453125 37.984375 14.40625 
Q 37.984375 18.0625 35.515625 20.015625 
Q 33.0625 21.96875 24.703125 23.78125 
L 21.578125 24.515625 
Q 13.234375 26.265625 9.515625 29.90625 
Q 5.8125 33.546875 5.8125 39.890625 
Q 5.8125 47.609375 11.28125 51.796875 
Q 16.75 56 26.8125 56 
Q 31.78125 56 36.171875 55.265625 
Q 40.578125 54.546875 44.28125 53.078125 
z
" id="DejaVuSans-73"/>
     <path d="M 18.3125 70.21875 
L 18.3125 54.6875 
L 36.8125 54.6875 
L 36.8125 47.703125 
L 18.3125 47.703125 
L 18.3125 18.015625 
Q 18.3125 11.328125 20.140625 9.421875 
Q 21.96875 7.515625 27.59375 7.515625 
L 36.8125 7.515625 
L 36.8125 0 
L 27.59375 0 
Q 17.1875 0 13.234375 3.875 
Q 9.28125 7.765625 9.28125 18.015625 
L 9.28125 47.703125 
L 2.6875 47.703125 
L 2.6875 54.6875 
L 9.28125 54.6875 
L 9.28125 70.21875 
z
" id="DejaVuSans-74"/>
    </defs>
    <g transform="translate(212.113125 19.44)scale(0.12 -0.12)">
     <use xlink:href="#DejaVuSans-4d"/>
     <use x="86.279297" xlink:href="#DejaVuSans-69"/>
     <use x="114.0625" xlink:href="#DejaVuSans-64"/>
     <use x="177.539062" xlink:href="#DejaVuSans-77"/>
     <use x="259.326172" xlink:href="#DejaVuSans-65"/>
     <use x="320.849609" xlink:href="#DejaVuSans-73"/>
     <use x="372.949219" xlink:href="#DejaVuSans-74"/>
    </g>
   </g>
  </g>
  <g id="axes_2">
   <g id="patch_7">
    <path d="M 454.535 283.195 
L 848.16 283.195 
L 848.16 25.44 
L 454.535 25.44 
z
" style="fill:#ffffff;"/>
   </g>
   <g id="PolyCollection_2">
    <defs>
     <path d="M 454.535 -610.285952 
L 454.535 -364.805 
L 460.88379 -364.805 
L 467.232581 -364.805 
L 473.581371 -364.805 
L 479.930161 -364.805 
L 486.278952 -364.805 
L 492.627742 -364.805 
L 498.976532 -364.805 
L 505.325323 -364.805 
L 511.674113 -364.805 
L 518.022903 -364.805 
L 524.371694 -364.805 
L 530.720484 -364.805 
L 537.069274 -364.805 
L 543.418065 -364.805 
L 549.766855 -364.805 
L 556.115645 -364.805 
L 562.464435 -364.805 
L 568.813226 -364.805 
L 575.162016 -364.805 
L 581.510806 -364.805 
L 587.859597 -364.805 
L 594.208387 -364.805 
L 600.557177 -364.805 
L 606.905968 -364.805 
L 613.254758 -364.805 
L 619.603548 -364.805 
L 625.952339 -364.805 
L 632.301129 -364.805 
L 638.649919 -364.805 
L 644.99871 -364.805 
L 651.3475 -364.805 
L 657.69629 -364.805 
L 664.045081 -364.805 
L 670.393871 -364.805 
L 676.742661 -364.805 
L 683.091452 -364.805 
L 689.440242 -364.805 
L 695.789032 -364.805 
L 702.137823 -364.805 
L 708.486613 -364.805 
L 714.835403 -364.805 
L 721.184194 -364.805 
L 727.532984 -364.805 
L 733.881774 -364.805 
L 740.230565 -364.805 
L 746.579355 -364.805 
L 752.928145 -364.805 
L 759.276935 -364.805 
L 765.625726 -364.805 
L 771.974516 -364.805 
L 778.323306 -364.805 
L 784.672097 -364.805 
L 791.020887 -364.805 
L 797.369677 -364.805 
L 803.718468 -364.805 
L 810.067258 -364.805 
L 816.416048 -364.805 
L 822.764839 -364.805 
L 829.113629 -364.805 
L 835.462419 -364.805 
L 841.81121 -364.805 
L 848.16 -364.805 
L 848.16 -447.905041 
L 848.16 -447.905041 
L 841.81121 -449.009663 
L 835.462419 -450.084402 
L 829.113629 -450.946416 
L 822.764839 -452.213579 
L 816.416048 -453.548174 
L 810.067258 -454.971622 
L 803.718468 -456.216505 
L 797.369677 -457.029729 
L 791.020887 -458.15348 
L 784.672097 -459.511106 
L 778.323306 -460.770603 
L 771.974516 -462.282933 
L 765.625726 -464.306723 
L 759.276935 -465.963021 
L 752.928145 -467.450769 
L 746.579355 -468.703983 
L 740.230565 -470.326895 
L 733.881774 -472.159667 
L 727.532984 -474.136932 
L 721.184194 -476.573777 
L 714.835403 -478.208836 
L 708.486613 -480.223034 
L 702.137823 -482.002281 
L 695.789032 -484.079734 
L 689.440242 -487.231756 
L 683.091452 -489.119644 
L 676.742661 -492.660597 
L 670.393871 -495.400037 
L 664.045081 -497.490262 
L 657.69629 -500.332374 
L 651.3475 -502.488346 
L 644.99871 -505.262444 
L 638.649919 -508.617239 
L 632.301129 -512.476101 
L 625.952339 -515.677474 
L 619.603548 -518.539087 
L 613.254758 -520.867011 
L 606.905968 -523.797416 
L 600.557177 -527.055051 
L 594.208387 -531.314374 
L 587.859597 -534.861418 
L 581.510806 -537.808099 
L 575.162016 -540.704791 
L 568.813226 -543.80341 
L 562.464435 -546.174565 
L 556.115645 -548.980061 
L 549.766855 -552.846979 
L 543.418065 -556.272197 
L 537.069274 -560.230974 
L 530.720484 -564.128111 
L 524.371694 -566.876286 
L 518.022903 -574.838792 
L 511.674113 -580.903412 
L 505.325323 -583.970953 
L 498.976532 -587.384638 
L 492.627742 -591.354127 
L 486.278952 -594.628366 
L 479.930161 -596.413524 
L 473.581371 -600.751943 
L 467.232581 -602.32867 
L 460.88379 -606.874786 
L 454.535 -610.285952 
z
" id="m0d94da0d68" style="stroke:#ff7f0e;"/>
    </defs>
    <g clip-path="url(#p4cd1b6a23a)">
     <use style="fill:#ff7f0e;stroke:#ff7f0e;" x="0" xlink:href="#m0d94da0d68" y="648"/>
    </g>
   </g>
   <g id="matplotlib.axis_3">
    <g id="xtick_13">
     <g id="line2d_21">
      <g>
       <use style="stroke:#000000;stroke-width:0.8;" x="454.535" xlink:href="#m04a1898db7" y="283.195"/>
      </g>
     </g>
    </g>
    <g id="xtick_14">
     <g id="line2d_22">
      <g>
       <use style="stroke:#000000;stroke-width:0.8;" x="490.319091" xlink:href="#m04a1898db7" y="283.195"/>
      </g>
     </g>
    </g>
    <g id="xtick_15">
     <g id="line2d_23">
      <g>
       <use style="stroke:#000000;stroke-width:0.8;" x="526.103182" xlink:href="#m04a1898db7" y="283.195"/>
      </g>
     </g>
    </g>
    <g id="xtick_16">
     <g id="line2d_24">
      <g>
       <use style="stroke:#000000;stroke-width:0.8;" x="561.887273" xlink:href="#m04a1898db7" y="283.195"/>
      </g>
     </g>
    </g>
    <g id="xtick_17">
     <g id="line2d_25">
      <g>
       <use style="stroke:#000000;stroke-width:0.8;" x="597.671364" xlink:href="#m04a1898db7" y="283.195"/>
      </g>
     </g>
    </g>
    <g id="xtick_18">
     <g id="line2d_26">
      <g>
       <use style="stroke:#000000;stroke-width:0.8;" x="633.455455" xlink:href="#m04a1898db7" y="283.195"/>
      </g>
     </g>
    </g>
    <g id="xtick_19">
     <g id="line2d_27">
      <g>
       <use style="stroke:#000000;stroke-width:0.8;" x="669.239545" xlink:href="#m04a1898db7" y="283.195"/>
      </g>
     </g>
    </g>
    <g id="xtick_20">
     <g id="line2d_28">
      <g>
       <use style="stroke:#000000;stroke-width:0.8;" x="705.023636" xlink:href="#m04a1898db7" y="283.195"/>
      </g>
     </g>
    </g>
    <g id="xtick_21">
     <g id="line2d_29">
      <g>
       <use style="stroke:#000000;stroke-width:0.8;" x="740.807727" xlink:href="#m04a1898db7" y="283.195"/>
      </g>
     </g>
    </g>
    <g id="xtick_22">
     <g id="line2d_30">
      <g>
       <use style="stroke:#000000;stroke-width:0.8;" x="776.591818" xlink:href="#m04a1898db7" y="283.195"/>
      </g>
     </g>
    </g>
    <g id="xtick_23">
     <g id="line2d_31">
      <g>
       <use style="stroke:#000000;stroke-width:0.8;" x="812.375909" xlink:href="#m04a1898db7" y="283.195"/>
      </g>
     </g>
    </g>
    <g id="xtick_24">
     <g id="line2d_32">
      <g>
       <use style="stroke:#000000;stroke-width:0.8;" x="848.16" xlink:href="#m04a1898db7" y="283.195"/>
      </g>
     </g>
    </g>
   </g>
   <g id="matplotlib.axis_4">
    <g id="ytick_8">
     <g id="line2d_33">
      <g>
       <use style="stroke:#000000;stroke-width:0.8;" x="454.535" xlink:href="#ma735381ff7" y="283.195"/>
      </g>
     </g>
    </g>
    <g id="ytick_9">
     <g id="line2d_34">
      <g>
       <use style="stroke:#000000;stroke-width:0.8;" x="454.535" xlink:href="#ma735381ff7" y="243.223837"/>
      </g>
     </g>
    </g>
    <g id="ytick_10">
     <g id="line2d_35">
      <g>
       <use style="stroke:#000000;stroke-width:0.8;" x="454.535" xlink:href="#ma735381ff7" y="203.252674"/>
      </g>
     </g>
    </g>
    <g id="ytick_11">
     <g id="line2d_36">
      <g>
       <use style="stroke:#000000;stroke-width:0.8;" x="454.535" xlink:href="#ma735381ff7" y="163.281512"/>
      </g>
     </g>
    </g>
    <g id="ytick_12">
     <g id="line2d_37">
      <g>
       <use style="stroke:#000000;stroke-width:0.8;" x="454.535" xlink:href="#ma735381ff7" y="123.310349"/>
      </g>
     </g>
    </g>
    <g id="ytick_13">
     <g id="line2d_38">
      <g>
       <use style="stroke:#000000;stroke-width:0.8;" x="454.535" xlink:href="#ma735381ff7" y="83.339186"/>
      </g>
     </g>
    </g>
    <g id="ytick_14">
     <g id="line2d_39">
      <g>
       <use style="stroke:#000000;stroke-width:0.8;" x="454.535" xlink:href="#ma735381ff7" y="43.368023"/>
      </g>
     </g>
    </g>
   </g>
   <g id="line2d_40">
    <path clip-path="url(#p4cd1b6a23a)" d="M 454.535 37.714048 
L 460.88379 41.125214 
L 467.232581 45.67133 
L 473.581371 47.248057 
L 479.930161 51.586476 
L 486.278952 53.371634 
L 492.627742 56.645873 
L 498.976532 60.615362 
L 505.325323 64.029047 
L 511.674113 67.096588 
L 518.022903 73.161208 
L 524.371694 81.123714 
L 530.720484 83.871889 
L 537.069274 87.769026 
L 543.418065 91.727803 
L 549.766855 95.153021 
L 556.115645 99.019939 
L 562.464435 101.825435 
L 568.813226 104.19659 
L 575.162016 107.295209 
L 581.510806 110.191901 
L 587.859597 113.138582 
L 594.208387 116.685626 
L 600.557177 120.944949 
L 606.905968 124.202584 
L 613.254758 127.132989 
L 619.603548 129.460913 
L 625.952339 132.322526 
L 632.301129 135.523899 
L 638.649919 139.382761 
L 644.99871 142.737556 
L 651.3475 145.511654 
L 657.69629 147.667626 
L 664.045081 150.509738 
L 670.393871 152.599963 
L 676.742661 155.339403 
L 683.091452 158.880356 
L 689.440242 160.768244 
L 695.789032 163.920266 
L 702.137823 165.997719 
L 708.486613 167.776966 
L 714.835403 169.791164 
L 721.184194 171.426223 
L 727.532984 173.863068 
L 733.881774 175.840333 
L 740.230565 177.673105 
L 746.579355 179.296017 
L 752.928145 180.549231 
L 759.276935 182.036979 
L 765.625726 183.693277 
L 771.974516 185.717067 
L 778.323306 187.229397 
L 784.672097 188.488894 
L 791.020887 189.84652 
L 797.369677 190.970271 
L 803.718468 191.783495 
L 810.067258 193.028378 
L 816.416048 194.451826 
L 822.764839 195.786421 
L 829.113629 197.053584 
L 835.462419 197.915598 
L 841.81121 198.990337 
L 848.16 200.094959 
" style="fill:none;stroke:#ff7f0e;stroke-linecap:square;stroke-width:1.5;"/>
   </g>
   <g id="patch_8">
    <path d="M 454.535 283.195 
L 454.535 25.44 
" style="fill:none;stroke:#000000;stroke-linecap:square;stroke-linejoin:miter;stroke-width:0.8;"/>
   </g>
   <g id="patch_9">
    <path d="M 848.16 283.195 
L 848.16 25.44 
" style="fill:none;stroke:#000000;stroke-linecap:square;stroke-linejoin:miter;stroke-width:0.8;"/>
   </g>
   <g id="patch_10">
    <path d="M 454.535 283.195 
L 848.16 283.195 
" style="fill:none;stroke:#000000;stroke-linecap:square;stroke-linejoin:miter;stroke-width:0.8;"/>
   </g>
   <g id="patch_11">
    <path d="M 454.535 25.44 
L 848.16 25.44 
" style="fill:none;stroke:#000000;stroke-linecap:square;stroke-linejoin:miter;stroke-width:0.8;"/>
   </g>
   <g id="text_9">
    <!-- Northeast -->
    <defs>
     <path d="M 9.8125 72.90625 
L 23.09375 72.90625 
L 55.421875 11.921875 
L 55.421875 72.90625 
L 64.984375 72.90625 
L 64.984375 0 
L 51.703125 0 
L 19.390625 60.984375 
L 19.390625 0 
L 9.8125 0 
z
" id="DejaVuSans-4e"/>
     <path d="M 30.609375 48.390625 
Q 23.390625 48.390625 19.1875 42.75 
Q 14.984375 37.109375 14.984375 27.296875 
Q 14.984375 17.484375 19.15625 11.84375 
Q 23.34375 6.203125 30.609375 6.203125 
Q 37.796875 6.203125 41.984375 11.859375 
Q 46.1875 17.53125 46.1875 27.296875 
Q 46.1875 37.015625 41.984375 42.703125 
Q 37.796875 48.390625 30.609375 48.390625 
z
M 30.609375 56 
Q 42.328125 56 49.015625 48.375 
Q 55.71875 40.765625 55.71875 27.296875 
Q 55.71875 13.875 49.015625 6.21875 
Q 42.328125 -1.421875 30.609375 -1.421875 
Q 18.84375 -1.421875 12.171875 6.21875 
Q 5.515625 13.875 5.515625 27.296875 
Q 5.515625 40.765625 12.171875 48.375 
Q 18.84375 56 30.609375 56 
z
" id="DejaVuSans-6f"/>
     <path d="M 41.109375 46.296875 
Q 39.59375 47.171875 37.8125 47.578125 
Q 36.03125 48 33.890625 48 
Q 26.265625 48 22.1875 43.046875 
Q 18.109375 38.09375 18.109375 28.8125 
L 18.109375 0 
L 9.078125 0 
L 9.078125 54.6875 
L 18.109375 54.6875 
L 18.109375 46.1875 
Q 20.953125 51.171875 25.484375 53.578125 
Q 30.03125 56 36.53125 56 
Q 37.453125 56 38.578125 55.875 
Q 39.703125 55.765625 41.0625 55.515625 
z
" id="DejaVuSans-72"/>
     <path d="M 54.890625 33.015625 
L 54.890625 0 
L 45.90625 0 
L 45.90625 32.71875 
Q 45.90625 40.484375 42.875 44.328125 
Q 39.84375 48.1875 33.796875 48.1875 
Q 26.515625 48.1875 22.3125 43.546875 
Q 18.109375 38.921875 18.109375 30.90625 
L 18.109375 0 
L 9.078125 0 
L 9.078125 75.984375 
L 18.109375 75.984375 
L 18.109375 46.1875 
Q 21.34375 51.125 25.703125 53.5625 
Q 30.078125 56 35.796875 56 
Q 45.21875 56 50.046875 50.171875 
Q 54.890625 44.34375 54.890625 33.015625 
z
" id="DejaVuSans-68"/>
     <path d="M 34.28125 27.484375 
Q 23.390625 27.484375 19.1875 25 
Q 14.984375 22.515625 14.984375 16.5 
Q 14.984375 11.71875 18.140625 8.90625 
Q 21.296875 6.109375 26.703125 6.109375 
Q 34.1875 6.109375 38.703125 11.40625 
Q 43.21875 16.703125 43.21875 25.484375 
L 43.21875 27.484375 
z
M 52.203125 31.203125 
L 52.203125 0 
L 43.21875 0 
L 43.21875 8.296875 
Q 40.140625 3.328125 35.546875 0.953125 
Q 30.953125 -1.421875 24.3125 -1.421875 
Q 15.921875 -1.421875 10.953125 3.296875 
Q 6 8.015625 6 15.921875 
Q 6 25.140625 12.171875 29.828125 
Q 18.359375 34.515625 30.609375 34.515625 
L 43.21875 34.515625 
L 43.21875 35.40625 
Q 43.21875 41.609375 39.140625 45 
Q 35.0625 48.390625 27.6875 48.390625 
Q 23 48.390625 18.546875 47.265625 
Q 14.109375 46.140625 10.015625 43.890625 
L 10.015625 52.203125 
Q 14.9375 54.109375 19.578125 55.046875 
Q 24.21875 56 28.609375 56 
Q 40.484375 56 46.34375 49.84375 
Q 52.203125 43.703125 52.203125 31.203125 
z
" id="DejaVuSans-61"/>
    </defs>
    <g transform="translate(621.719688 19.44)scale(0.12 -0.12)">
     <use xlink:href="#DejaVuSans-4e"/>
     <use x="74.804688" xlink:href="#DejaVuSans-6f"/>
     <use x="135.986328" xlink:href="#DejaVuSans-72"/>
     <use x="177.099609" xlink:href="#DejaVuSans-74"/>
     <use x="216.308594" xlink:href="#DejaVuSans-68"/>
     <use x="279.6875" xlink:href="#DejaVuSans-65"/>
     <use x="341.210938" xlink:href="#DejaVuSans-61"/>
     <use x="402.490234" xlink:href="#DejaVuSans-73"/>
     <use x="454.589844" xlink:href="#DejaVuSans-74"/>
    </g>
   </g>
  </g>
  <g id="axes_3">
   <g id="patch_12">
    <path d="M 40.03 572.51 
L 433.655 572.51 
L 433.655 314.755 
L 40.03 314.755 
z
" style="fill:#ffffff;"/>
   </g>
   <g id="PolyCollection_3">
    <defs>
     <path d="M 40.03 -161.357435 
L 40.03 -75.49 
L 46.37879 -75.49 
L 52.727581 -75.49 
L 59.076371 -75.49 
L 65.425161 -75.49 
L 71.773952 -75.49 
L 78.122742 -75.49 
L 84.471532 -75.49 
L 90.820323 -75.49 
L 97.169113 -75.49 
L 103.517903 -75.49 
L 109.866694 -75.49 
L 116.215484 -75.49 
L 122.564274 -75.49 
L 128.913065 -75.49 
L 135.261855 -75.49 
L 141.610645 -75.49 
L 147.959435 -75.49 
L 154.308226 -75.49 
L 160.657016 -75.49 
L 167.005806 -75.49 
L 173.354597 -75.49 
L 179.703387 -75.49 
L 186.052177 -75.49 
L 192.400968 -75.49 
L 198.749758 -75.49 
L 205.098548 -75.49 
L 211.447339 -75.49 
L 217.796129 -75.49 
L 224.144919 -75.49 
L 230.49371 -75.49 
L 236.8425 -75.49 
L 243.19129 -75.49 
L 249.540081 -75.49 
L 255.888871 -75.49 
L 262.237661 -75.49 
L 268.586452 -75.49 
L 274.935242 -75.49 
L 281.284032 -75.49 
L 287.632823 -75.49 
L 293.981613 -75.49 
L 300.330403 -75.49 
L 306.679194 -75.49 
L 313.027984 -75.49 
L 319.376774 -75.49 
L 325.725565 -75.49 
L 332.074355 -75.49 
L 338.423145 -75.49 
L 344.771935 -75.49 
L 351.120726 -75.49 
L 357.469516 -75.49 
L 363.818306 -75.49 
L 370.167097 -75.49 
L 376.515887 -75.49 
L 382.864677 -75.49 
L 389.213468 -75.49 
L 395.562258 -75.49 
L 401.911048 -75.49 
L 408.259839 -75.49 
L 414.608629 -75.49 
L 420.957419 -75.49 
L 427.30621 -75.49 
L 433.655 -75.49 
L 433.655 -141.374943 
L 433.655 -141.374943 
L 427.30621 -140.325384 
L 420.957419 -139.998949 
L 414.608629 -139.613191 
L 408.259839 -139.092173 
L 401.911048 -138.448662 
L 395.562258 -137.499675 
L 389.213468 -136.773905 
L 382.864677 -136.073756 
L 376.515887 -135.585314 
L 370.167097 -135.283554 
L 363.818306 -135.059258 
L 357.469516 -134.691498 
L 351.120726 -134.266046 
L 344.771935 -133.989836 
L 338.423145 -134.410924 
L 332.074355 -134.312114 
L 325.725565 -134.440969 
L 319.376774 -134.335533 
L 313.027984 -134.194833 
L 306.679194 -134.43135 
L 300.330403 -135.15855 
L 293.981613 -135.122017 
L 287.632823 -135.224631 
L 281.284032 -135.130515 
L 274.935242 -135.057562 
L 268.586452 -135.079444 
L 262.237661 -135.533642 
L 255.888871 -135.649692 
L 249.540081 -137.111532 
L 243.19129 -137.806033 
L 236.8425 -137.838526 
L 230.49371 -137.805054 
L 224.144919 -138.248247 
L 217.796129 -138.311821 
L 211.447339 -138.470333 
L 205.098548 -139.126559 
L 198.749758 -139.583736 
L 192.400968 -140.171723 
L 186.052177 -141.062965 
L 179.703387 -142.234353 
L 173.354597 -143.503624 
L 167.005806 -144.035471 
L 160.657016 -144.160276 
L 154.308226 -144.55192 
L 147.959435 -145.133329 
L 141.610645 -146.220239 
L 135.261855 -147.311953 
L 128.913065 -148.266289 
L 122.564274 -149.469991 
L 116.215484 -150.654283 
L 109.866694 -151.483649 
L 103.517903 -152.478467 
L 97.169113 -153.245386 
L 90.820323 -153.776197 
L 84.471532 -154.651449 
L 78.122742 -155.283514 
L 71.773952 -156.536505 
L 65.425161 -157.715505 
L 59.076371 -158.945435 
L 52.727581 -159.816287 
L 46.37879 -160.744396 
L 40.03 -161.357435 
z
" id="mdb2e9b4566" style="stroke:#2ca02c;"/>
    </defs>
    <g clip-path="url(#p3c0fe673f0)">
     <use style="fill:#2ca02c;stroke:#2ca02c;" x="0" xlink:href="#mdb2e9b4566" y="648"/>
    </g>
   </g>
   <g id="matplotlib.axis_5">
    <g id="xtick_25">
     <g id="line2d_41">
      <g>
       <use style="stroke:#000000;stroke-width:0.8;" x="40.03" xlink:href="#m04a1898db7" y="572.51"/>
      </g>
     </g>
     <g id="text_10">
      <!-- 2020-05-01 -->
      <defs>
       <path d="M 4.890625 31.390625 
L 31.203125 31.390625 
L 31.203125 23.390625 
L 4.890625 23.390625 
z
" id="DejaVuSans-2d"/>
      </defs>
      <g transform="translate(42.789375 637.625625)rotate(-90)scale(0.1 -0.1)">
       <use xlink:href="#DejaVuSans-32"/>
       <use x="63.623047" xlink:href="#DejaVuSans-30"/>
       <use x="127.246094" xlink:href="#DejaVuSans-32"/>
       <use x="190.869141" xlink:href="#DejaVuSans-30"/>
       <use x="254.492188" xlink:href="#DejaVuSans-2d"/>
       <use x="290.576172" xlink:href="#DejaVuSans-30"/>
       <use x="354.199219" xlink:href="#DejaVuSans-35"/>
       <use x="417.822266" xlink:href="#DejaVuSans-2d"/>
       <use x="453.90625" xlink:href="#DejaVuSans-30"/>
       <use x="517.529297" xlink:href="#DejaVuSans-31"/>
      </g>
     </g>
    </g>
    <g id="xtick_26">
     <g id="line2d_42">
      <g>
       <use style="stroke:#000000;stroke-width:0.8;" x="75.814091" xlink:href="#m04a1898db7" y="572.51"/>
      </g>
     </g>
     <g id="text_11">
      <!-- 2020-05-06 -->
      <defs>
       <path d="M 33.015625 40.375 
Q 26.375 40.375 22.484375 35.828125 
Q 18.609375 31.296875 18.609375 23.390625 
Q 18.609375 15.53125 22.484375 10.953125 
Q 26.375 6.390625 33.015625 6.390625 
Q 39.65625 6.390625 43.53125 10.953125 
Q 47.40625 15.53125 47.40625 23.390625 
Q 47.40625 31.296875 43.53125 35.828125 
Q 39.65625 40.375 33.015625 40.375 
z
M 52.59375 71.296875 
L 52.59375 62.3125 
Q 48.875 64.0625 45.09375 64.984375 
Q 41.3125 65.921875 37.59375 65.921875 
Q 27.828125 65.921875 22.671875 59.328125 
Q 17.53125 52.734375 16.796875 39.40625 
Q 19.671875 43.65625 24.015625 45.921875 
Q 28.375 48.1875 33.59375 48.1875 
Q 44.578125 48.1875 50.953125 41.515625 
Q 57.328125 34.859375 57.328125 23.390625 
Q 57.328125 12.15625 50.6875 5.359375 
Q 44.046875 -1.421875 33.015625 -1.421875 
Q 20.359375 -1.421875 13.671875 8.265625 
Q 6.984375 17.96875 6.984375 36.375 
Q 6.984375 53.65625 15.1875 63.9375 
Q 23.390625 74.21875 37.203125 74.21875 
Q 40.921875 74.21875 44.703125 73.484375 
Q 48.484375 72.75 52.59375 71.296875 
z
" id="DejaVuSans-36"/>
      </defs>
      <g transform="translate(78.573466 637.625625)rotate(-90)scale(0.1 -0.1)">
       <use xlink:href="#DejaVuSans-32"/>
       <use x="63.623047" xlink:href="#DejaVuSans-30"/>
       <use x="127.246094" xlink:href="#DejaVuSans-32"/>
       <use x="190.869141" xlink:href="#DejaVuSans-30"/>
       <use x="254.492188" xlink:href="#DejaVuSans-2d"/>
       <use x="290.576172" xlink:href="#DejaVuSans-30"/>
       <use x="354.199219" xlink:href="#DejaVuSans-35"/>
       <use x="417.822266" xlink:href="#DejaVuSans-2d"/>
       <use x="453.90625" xlink:href="#DejaVuSans-30"/>
       <use x="517.529297" xlink:href="#DejaVuSans-36"/>
      </g>
     </g>
    </g>
    <g id="xtick_27">
     <g id="line2d_43">
      <g>
       <use style="stroke:#000000;stroke-width:0.8;" x="111.598182" xlink:href="#m04a1898db7" y="572.51"/>
      </g>
     </g>
     <g id="text_12">
      <!-- 2020-05-12 -->
      <g transform="translate(114.357557 637.625625)rotate(-90)scale(0.1 -0.1)">
       <use xlink:href="#DejaVuSans-32"/>
       <use x="63.623047" xlink:href="#DejaVuSans-30"/>
       <use x="127.246094" xlink:href="#DejaVuSans-32"/>
       <use x="190.869141" xlink:href="#DejaVuSans-30"/>
       <use x="254.492188" xlink:href="#DejaVuSans-2d"/>
       <use x="290.576172" xlink:href="#DejaVuSans-30"/>
       <use x="354.199219" xlink:href="#DejaVuSans-35"/>
       <use x="417.822266" xlink:href="#DejaVuSans-2d"/>
       <use x="453.90625" xlink:href="#DejaVuSans-31"/>
       <use x="517.529297" xlink:href="#DejaVuSans-32"/>
      </g>
     </g>
    </g>
    <g id="xtick_28">
     <g id="line2d_44">
      <g>
       <use style="stroke:#000000;stroke-width:0.8;" x="147.382273" xlink:href="#m04a1898db7" y="572.51"/>
      </g>
     </g>
     <g id="text_13">
      <!-- 2020-05-17 -->
      <defs>
       <path d="M 8.203125 72.90625 
L 55.078125 72.90625 
L 55.078125 68.703125 
L 28.609375 0 
L 18.3125 0 
L 43.21875 64.59375 
L 8.203125 64.59375 
z
" id="DejaVuSans-37"/>
      </defs>
      <g transform="translate(150.141648 637.625625)rotate(-90)scale(0.1 -0.1)">
       <use xlink:href="#DejaVuSans-32"/>
       <use x="63.623047" xlink:href="#DejaVuSans-30"/>
       <use x="127.246094" xlink:href="#DejaVuSans-32"/>
       <use x="190.869141" xlink:href="#DejaVuSans-30"/>
       <use x="254.492188" xlink:href="#DejaVuSans-2d"/>
       <use x="290.576172" xlink:href="#DejaVuSans-30"/>
       <use x="354.199219" xlink:href="#DejaVuSans-35"/>
       <use x="417.822266" xlink:href="#DejaVuSans-2d"/>
       <use x="453.90625" xlink:href="#DejaVuSans-31"/>
       <use x="517.529297" xlink:href="#DejaVuSans-37"/>
      </g>
     </g>
    </g>
    <g id="xtick_29">
     <g id="line2d_45">
      <g>
       <use style="stroke:#000000;stroke-width:0.8;" x="183.166364" xlink:href="#m04a1898db7" y="572.51"/>
      </g>
     </g>
     <g id="text_14">
      <!-- 2020-05-23 -->
      <g transform="translate(185.925739 637.625625)rotate(-90)scale(0.1 -0.1)">
       <use xlink:href="#DejaVuSans-32"/>
       <use x="63.623047" xlink:href="#DejaVuSans-30"/>
       <use x="127.246094" xlink:href="#DejaVuSans-32"/>
       <use x="190.869141" xlink:href="#DejaVuSans-30"/>
       <use x="254.492188" xlink:href="#DejaVuSans-2d"/>
       <use x="290.576172" xlink:href="#DejaVuSans-30"/>
       <use x="354.199219" xlink:href="#DejaVuSans-35"/>
       <use x="417.822266" xlink:href="#DejaVuSans-2d"/>
       <use x="453.90625" xlink:href="#DejaVuSans-32"/>
       <use x="517.529297" xlink:href="#DejaVuSans-33"/>
      </g>
     </g>
    </g>
    <g id="xtick_30">
     <g id="line2d_46">
      <g>
       <use style="stroke:#000000;stroke-width:0.8;" x="218.950455" xlink:href="#m04a1898db7" y="572.51"/>
      </g>
     </g>
     <g id="text_15">
      <!-- 2020-05-29 -->
      <defs>
       <path d="M 10.984375 1.515625 
L 10.984375 10.5 
Q 14.703125 8.734375 18.5 7.8125 
Q 22.3125 6.890625 25.984375 6.890625 
Q 35.75 6.890625 40.890625 13.453125 
Q 46.046875 20.015625 46.78125 33.40625 
Q 43.953125 29.203125 39.59375 26.953125 
Q 35.25 24.703125 29.984375 24.703125 
Q 19.046875 24.703125 12.671875 31.3125 
Q 6.296875 37.9375 6.296875 49.421875 
Q 6.296875 60.640625 12.9375 67.421875 
Q 19.578125 74.21875 30.609375 74.21875 
Q 43.265625 74.21875 49.921875 64.515625 
Q 56.59375 54.828125 56.59375 36.375 
Q 56.59375 19.140625 48.40625 8.859375 
Q 40.234375 -1.421875 26.421875 -1.421875 
Q 22.703125 -1.421875 18.890625 -0.6875 
Q 15.09375 0.046875 10.984375 1.515625 
z
M 30.609375 32.421875 
Q 37.25 32.421875 41.125 36.953125 
Q 45.015625 41.5 45.015625 49.421875 
Q 45.015625 57.28125 41.125 61.84375 
Q 37.25 66.40625 30.609375 66.40625 
Q 23.96875 66.40625 20.09375 61.84375 
Q 16.21875 57.28125 16.21875 49.421875 
Q 16.21875 41.5 20.09375 36.953125 
Q 23.96875 32.421875 30.609375 32.421875 
z
" id="DejaVuSans-39"/>
      </defs>
      <g transform="translate(221.70983 637.625625)rotate(-90)scale(0.1 -0.1)">
       <use xlink:href="#DejaVuSans-32"/>
       <use x="63.623047" xlink:href="#DejaVuSans-30"/>
       <use x="127.246094" xlink:href="#DejaVuSans-32"/>
       <use x="190.869141" xlink:href="#DejaVuSans-30"/>
       <use x="254.492188" xlink:href="#DejaVuSans-2d"/>
       <use x="290.576172" xlink:href="#DejaVuSans-30"/>
       <use x="354.199219" xlink:href="#DejaVuSans-35"/>
       <use x="417.822266" xlink:href="#DejaVuSans-2d"/>
       <use x="453.90625" xlink:href="#DejaVuSans-32"/>
       <use x="517.529297" xlink:href="#DejaVuSans-39"/>
      </g>
     </g>
    </g>
    <g id="xtick_31">
     <g id="line2d_47">
      <g>
       <use style="stroke:#000000;stroke-width:0.8;" x="254.734545" xlink:href="#m04a1898db7" y="572.51"/>
      </g>
     </g>
     <g id="text_16">
      <!-- 2020-06-03 -->
      <g transform="translate(257.49392 637.625625)rotate(-90)scale(0.1 -0.1)">
       <use xlink:href="#DejaVuSans-32"/>
       <use x="63.623047" xlink:href="#DejaVuSans-30"/>
       <use x="127.246094" xlink:href="#DejaVuSans-32"/>
       <use x="190.869141" xlink:href="#DejaVuSans-30"/>
       <use x="254.492188" xlink:href="#DejaVuSans-2d"/>
       <use x="290.576172" xlink:href="#DejaVuSans-30"/>
       <use x="354.199219" xlink:href="#DejaVuSans-36"/>
       <use x="417.822266" xlink:href="#DejaVuSans-2d"/>
       <use x="453.90625" xlink:href="#DejaVuSans-30"/>
       <use x="517.529297" xlink:href="#DejaVuSans-33"/>
      </g>
     </g>
    </g>
    <g id="xtick_32">
     <g id="line2d_48">
      <g>
       <use style="stroke:#000000;stroke-width:0.8;" x="290.518636" xlink:href="#m04a1898db7" y="572.51"/>
      </g>
     </g>
     <g id="text_17">
      <!-- 2020-06-09 -->
      <g transform="translate(293.278011 637.625625)rotate(-90)scale(0.1 -0.1)">
       <use xlink:href="#DejaVuSans-32"/>
       <use x="63.623047" xlink:href="#DejaVuSans-30"/>
       <use x="127.246094" xlink:href="#DejaVuSans-32"/>
       <use x="190.869141" xlink:href="#DejaVuSans-30"/>
       <use x="254.492188" xlink:href="#DejaVuSans-2d"/>
       <use x="290.576172" xlink:href="#DejaVuSans-30"/>
       <use x="354.199219" xlink:href="#DejaVuSans-36"/>
       <use x="417.822266" xlink:href="#DejaVuSans-2d"/>
       <use x="453.90625" xlink:href="#DejaVuSans-30"/>
       <use x="517.529297" xlink:href="#DejaVuSans-39"/>
      </g>
     </g>
    </g>
    <g id="xtick_33">
     <g id="line2d_49">
      <g>
       <use style="stroke:#000000;stroke-width:0.8;" x="326.302727" xlink:href="#m04a1898db7" y="572.51"/>
      </g>
     </g>
     <g id="text_18">
      <!-- 2020-06-15 -->
      <g transform="translate(329.062102 637.625625)rotate(-90)scale(0.1 -0.1)">
       <use xlink:href="#DejaVuSans-32"/>
       <use x="63.623047" xlink:href="#DejaVuSans-30"/>
       <use x="127.246094" xlink:href="#DejaVuSans-32"/>
       <use x="190.869141" xlink:href="#DejaVuSans-30"/>
       <use x="254.492188" xlink:href="#DejaVuSans-2d"/>
       <use x="290.576172" xlink:href="#DejaVuSans-30"/>
       <use x="354.199219" xlink:href="#DejaVuSans-36"/>
       <use x="417.822266" xlink:href="#DejaVuSans-2d"/>
       <use x="453.90625" xlink:href="#DejaVuSans-31"/>
       <use x="517.529297" xlink:href="#DejaVuSans-35"/>
      </g>
     </g>
    </g>
    <g id="xtick_34">
     <g id="line2d_50">
      <g>
       <use style="stroke:#000000;stroke-width:0.8;" x="362.086818" xlink:href="#m04a1898db7" y="572.51"/>
      </g>
     </g>
     <g id="text_19">
      <!-- 2020-06-20 -->
      <g transform="translate(364.846193 637.625625)rotate(-90)scale(0.1 -0.1)">
       <use xlink:href="#DejaVuSans-32"/>
       <use x="63.623047" xlink:href="#DejaVuSans-30"/>
       <use x="127.246094" xlink:href="#DejaVuSans-32"/>
       <use x="190.869141" xlink:href="#DejaVuSans-30"/>
       <use x="254.492188" xlink:href="#DejaVuSans-2d"/>
       <use x="290.576172" xlink:href="#DejaVuSans-30"/>
       <use x="354.199219" xlink:href="#DejaVuSans-36"/>
       <use x="417.822266" xlink:href="#DejaVuSans-2d"/>
       <use x="453.90625" xlink:href="#DejaVuSans-32"/>
       <use x="517.529297" xlink:href="#DejaVuSans-30"/>
      </g>
     </g>
    </g>
    <g id="xtick_35">
     <g id="line2d_51">
      <g>
       <use style="stroke:#000000;stroke-width:0.8;" x="397.870909" xlink:href="#m04a1898db7" y="572.51"/>
      </g>
     </g>
     <g id="text_20">
      <!-- 2020-06-26 -->
      <g transform="translate(400.630284 637.625625)rotate(-90)scale(0.1 -0.1)">
       <use xlink:href="#DejaVuSans-32"/>
       <use x="63.623047" xlink:href="#DejaVuSans-30"/>
       <use x="127.246094" xlink:href="#DejaVuSans-32"/>
       <use x="190.869141" xlink:href="#DejaVuSans-30"/>
       <use x="254.492188" xlink:href="#DejaVuSans-2d"/>
       <use x="290.576172" xlink:href="#DejaVuSans-30"/>
       <use x="354.199219" xlink:href="#DejaVuSans-36"/>
       <use x="417.822266" xlink:href="#DejaVuSans-2d"/>
       <use x="453.90625" xlink:href="#DejaVuSans-32"/>
       <use x="517.529297" xlink:href="#DejaVuSans-36"/>
      </g>
     </g>
    </g>
    <g id="xtick_36">
     <g id="line2d_52">
      <g>
       <use style="stroke:#000000;stroke-width:0.8;" x="433.655" xlink:href="#m04a1898db7" y="572.51"/>
      </g>
     </g>
     <g id="text_21">
      <!-- 2020-07-02 -->
      <g transform="translate(436.414375 637.625625)rotate(-90)scale(0.1 -0.1)">
       <use xlink:href="#DejaVuSans-32"/>
       <use x="63.623047" xlink:href="#DejaVuSans-30"/>
       <use x="127.246094" xlink:href="#DejaVuSans-32"/>
       <use x="190.869141" xlink:href="#DejaVuSans-30"/>
       <use x="254.492188" xlink:href="#DejaVuSans-2d"/>
       <use x="290.576172" xlink:href="#DejaVuSans-30"/>
       <use x="354.199219" xlink:href="#DejaVuSans-37"/>
       <use x="417.822266" xlink:href="#DejaVuSans-2d"/>
       <use x="453.90625" xlink:href="#DejaVuSans-30"/>
       <use x="517.529297" xlink:href="#DejaVuSans-32"/>
      </g>
     </g>
    </g>
   </g>
   <g id="matplotlib.axis_6">
    <g id="ytick_15">
     <g id="line2d_53">
      <g>
       <use style="stroke:#000000;stroke-width:0.8;" x="40.03" xlink:href="#ma735381ff7" y="572.51"/>
      </g>
     </g>
     <g id="text_22">
      <!-- 0.00 -->
      <g transform="translate(10.764375 576.309219)scale(0.1 -0.1)">
       <use xlink:href="#DejaVuSans-30"/>
       <use x="63.623047" xlink:href="#DejaVuSans-2e"/>
       <use x="95.410156" xlink:href="#DejaVuSans-30"/>
       <use x="159.033203" xlink:href="#DejaVuSans-30"/>
      </g>
     </g>
    </g>
    <g id="ytick_16">
     <g id="line2d_54">
      <g>
       <use style="stroke:#000000;stroke-width:0.8;" x="40.03" xlink:href="#ma735381ff7" y="532.538837"/>
      </g>
     </g>
     <g id="text_23">
      <!-- 0.05 -->
      <g transform="translate(10.764375 536.338056)scale(0.1 -0.1)">
       <use xlink:href="#DejaVuSans-30"/>
       <use x="63.623047" xlink:href="#DejaVuSans-2e"/>
       <use x="95.410156" xlink:href="#DejaVuSans-30"/>
       <use x="159.033203" xlink:href="#DejaVuSans-35"/>
      </g>
     </g>
    </g>
    <g id="ytick_17">
     <g id="line2d_55">
      <g>
       <use style="stroke:#000000;stroke-width:0.8;" x="40.03" xlink:href="#ma735381ff7" y="492.567674"/>
      </g>
     </g>
     <g id="text_24">
      <!-- 0.10 -->
      <g transform="translate(10.764375 496.366893)scale(0.1 -0.1)">
       <use xlink:href="#DejaVuSans-30"/>
       <use x="63.623047" xlink:href="#DejaVuSans-2e"/>
       <use x="95.410156" xlink:href="#DejaVuSans-31"/>
       <use x="159.033203" xlink:href="#DejaVuSans-30"/>
      </g>
     </g>
    </g>
    <g id="ytick_18">
     <g id="line2d_56">
      <g>
       <use style="stroke:#000000;stroke-width:0.8;" x="40.03" xlink:href="#ma735381ff7" y="452.596512"/>
      </g>
     </g>
     <g id="text_25">
      <!-- 0.15 -->
      <g transform="translate(10.764375 456.39573)scale(0.1 -0.1)">
       <use xlink:href="#DejaVuSans-30"/>
       <use x="63.623047" xlink:href="#DejaVuSans-2e"/>
       <use x="95.410156" xlink:href="#DejaVuSans-31"/>
       <use x="159.033203" xlink:href="#DejaVuSans-35"/>
      </g>
     </g>
    </g>
    <g id="ytick_19">
     <g id="line2d_57">
      <g>
       <use style="stroke:#000000;stroke-width:0.8;" x="40.03" xlink:href="#ma735381ff7" y="412.625349"/>
      </g>
     </g>
     <g id="text_26">
      <!-- 0.20 -->
      <g transform="translate(10.764375 416.424568)scale(0.1 -0.1)">
       <use xlink:href="#DejaVuSans-30"/>
       <use x="63.623047" xlink:href="#DejaVuSans-2e"/>
       <use x="95.410156" xlink:href="#DejaVuSans-32"/>
       <use x="159.033203" xlink:href="#DejaVuSans-30"/>
      </g>
     </g>
    </g>
    <g id="ytick_20">
     <g id="line2d_58">
      <g>
       <use style="stroke:#000000;stroke-width:0.8;" x="40.03" xlink:href="#ma735381ff7" y="372.654186"/>
      </g>
     </g>
     <g id="text_27">
      <!-- 0.25 -->
      <g transform="translate(10.764375 376.453405)scale(0.1 -0.1)">
       <use xlink:href="#DejaVuSans-30"/>
       <use x="63.623047" xlink:href="#DejaVuSans-2e"/>
       <use x="95.410156" xlink:href="#DejaVuSans-32"/>
       <use x="159.033203" xlink:href="#DejaVuSans-35"/>
      </g>
     </g>
    </g>
    <g id="ytick_21">
     <g id="line2d_59">
      <g>
       <use style="stroke:#000000;stroke-width:0.8;" x="40.03" xlink:href="#ma735381ff7" y="332.683023"/>
      </g>
     </g>
     <g id="text_28">
      <!-- 0.30 -->
      <g transform="translate(10.764375 336.482242)scale(0.1 -0.1)">
       <use xlink:href="#DejaVuSans-30"/>
       <use x="63.623047" xlink:href="#DejaVuSans-2e"/>
       <use x="95.410156" xlink:href="#DejaVuSans-33"/>
       <use x="159.033203" xlink:href="#DejaVuSans-30"/>
      </g>
     </g>
    </g>
   </g>
   <g id="line2d_60">
    <path clip-path="url(#p3c0fe673f0)" d="M 40.03 486.642565 
L 46.37879 487.255604 
L 52.727581 488.183713 
L 59.076371 489.054565 
L 65.425161 490.284495 
L 71.773952 491.463495 
L 78.122742 492.716486 
L 84.471532 493.348551 
L 90.820323 494.223803 
L 97.169113 494.754614 
L 103.517903 495.521533 
L 109.866694 496.516351 
L 116.215484 497.345717 
L 122.564274 498.530009 
L 128.913065 499.733711 
L 135.261855 500.688047 
L 141.610645 501.779761 
L 147.959435 502.866671 
L 154.308226 503.44808 
L 160.657016 503.839724 
L 167.005806 503.964529 
L 173.354597 504.496376 
L 179.703387 505.765647 
L 186.052177 506.937035 
L 192.400968 507.828277 
L 198.749758 508.416264 
L 205.098548 508.873441 
L 211.447339 509.529667 
L 217.796129 509.688179 
L 224.144919 509.751753 
L 230.49371 510.194946 
L 236.8425 510.161474 
L 243.19129 510.193967 
L 249.540081 510.888468 
L 255.888871 512.350308 
L 262.237661 512.466358 
L 268.586452 512.920556 
L 274.935242 512.942438 
L 281.284032 512.869485 
L 287.632823 512.775369 
L 293.981613 512.877983 
L 300.330403 512.84145 
L 306.679194 513.56865 
L 313.027984 513.805167 
L 319.376774 513.664467 
L 325.725565 513.559031 
L 332.074355 513.687886 
L 338.423145 513.589076 
L 344.771935 514.010164 
L 351.120726 513.733954 
L 357.469516 513.308502 
L 363.818306 512.940742 
L 370.167097 512.716446 
L 376.515887 512.414686 
L 382.864677 511.926244 
L 389.213468 511.226095 
L 395.562258 510.500325 
L 401.911048 509.551338 
L 408.259839 508.907827 
L 414.608629 508.386809 
L 420.957419 508.001051 
L 427.30621 507.674616 
L 433.655 506.625057 
" style="fill:none;stroke:#2ca02c;stroke-linecap:square;stroke-width:1.5;"/>
   </g>
   <g id="patch_13">
    <path d="M 40.03 572.51 
L 40.03 314.755 
" style="fill:none;stroke:#000000;stroke-linecap:square;stroke-linejoin:miter;stroke-width:0.8;"/>
   </g>
   <g id="patch_14">
    <path d="M 433.655 572.51 
L 433.655 314.755 
" style="fill:none;stroke:#000000;stroke-linecap:square;stroke-linejoin:miter;stroke-width:0.8;"/>
   </g>
   <g id="patch_15">
    <path d="M 40.03 572.51 
L 433.655 572.51 
" style="fill:none;stroke:#000000;stroke-linecap:square;stroke-linejoin:miter;stroke-width:0.8;"/>
   </g>
   <g id="patch_16">
    <path d="M 40.03 314.755 
L 433.655 314.755 
" style="fill:none;stroke:#000000;stroke-linecap:square;stroke-linejoin:miter;stroke-width:0.8;"/>
   </g>
   <g id="text_29">
    <!-- South -->
    <defs>
     <path d="M 53.515625 70.515625 
L 53.515625 60.890625 
Q 47.90625 63.578125 42.921875 64.890625 
Q 37.9375 66.21875 33.296875 66.21875 
Q 25.25 66.21875 20.875 63.09375 
Q 16.5 59.96875 16.5 54.203125 
Q 16.5 49.359375 19.40625 46.890625 
Q 22.3125 44.4375 30.421875 42.921875 
L 36.375 41.703125 
Q 47.40625 39.59375 52.65625 34.296875 
Q 57.90625 29 57.90625 20.125 
Q 57.90625 9.515625 50.796875 4.046875 
Q 43.703125 -1.421875 29.984375 -1.421875 
Q 24.8125 -1.421875 18.96875 -0.25 
Q 13.140625 0.921875 6.890625 3.21875 
L 6.890625 13.375 
Q 12.890625 10.015625 18.65625 8.296875 
Q 24.421875 6.59375 29.984375 6.59375 
Q 38.421875 6.59375 43.015625 9.90625 
Q 47.609375 13.234375 47.609375 19.390625 
Q 47.609375 24.75 44.3125 27.78125 
Q 41.015625 30.8125 33.5 32.328125 
L 27.484375 33.5 
Q 16.453125 35.6875 11.515625 40.375 
Q 6.59375 45.0625 6.59375 53.421875 
Q 6.59375 63.09375 13.40625 68.65625 
Q 20.21875 74.21875 32.171875 74.21875 
Q 37.3125 74.21875 42.625 73.28125 
Q 47.953125 72.359375 53.515625 70.515625 
z
" id="DejaVuSans-53"/>
     <path d="M 8.5 21.578125 
L 8.5 54.6875 
L 17.484375 54.6875 
L 17.484375 21.921875 
Q 17.484375 14.15625 20.5 10.265625 
Q 23.53125 6.390625 29.59375 6.390625 
Q 36.859375 6.390625 41.078125 11.03125 
Q 45.3125 15.671875 45.3125 23.6875 
L 45.3125 54.6875 
L 54.296875 54.6875 
L 54.296875 0 
L 45.3125 0 
L 45.3125 8.40625 
Q 42.046875 3.421875 37.71875 1 
Q 33.40625 -1.421875 27.6875 -1.421875 
Q 18.265625 -1.421875 13.375 4.4375 
Q 8.5 10.296875 8.5 21.578125 
z
M 31.109375 56 
z
" id="DejaVuSans-75"/>
    </defs>
    <g transform="translate(219.405 308.755)scale(0.12 -0.12)">
     <use xlink:href="#DejaVuSans-53"/>
     <use x="63.476562" xlink:href="#DejaVuSans-6f"/>
     <use x="124.658203" xlink:href="#DejaVuSans-75"/>
     <use x="188.037109" xlink:href="#DejaVuSans-74"/>
     <use x="227.246094" xlink:href="#DejaVuSans-68"/>
    </g>
   </g>
  </g>
  <g id="axes_4">
   <g id="patch_17">
    <path d="M 454.535 572.51 
L 848.16 572.51 
L 848.16 314.755 
L 454.535 314.755 
z
" style="fill:#ffffff;"/>
   </g>
   <g id="PolyCollection_4">
    <defs>
     <path d="M 454.535 -138.569162 
L 454.535 -75.49 
L 460.88379 -75.49 
L 467.232581 -75.49 
L 473.581371 -75.49 
L 479.930161 -75.49 
L 486.278952 -75.49 
L 492.627742 -75.49 
L 498.976532 -75.49 
L 505.325323 -75.49 
L 511.674113 -75.49 
L 518.022903 -75.49 
L 524.371694 -75.49 
L 530.720484 -75.49 
L 537.069274 -75.49 
L 543.418065 -75.49 
L 549.766855 -75.49 
L 556.115645 -75.49 
L 562.464435 -75.49 
L 568.813226 -75.49 
L 575.162016 -75.49 
L 581.510806 -75.49 
L 587.859597 -75.49 
L 594.208387 -75.49 
L 600.557177 -75.49 
L 606.905968 -75.49 
L 613.254758 -75.49 
L 619.603548 -75.49 
L 625.952339 -75.49 
L 632.301129 -75.49 
L 638.649919 -75.49 
L 644.99871 -75.49 
L 651.3475 -75.49 
L 657.69629 -75.49 
L 664.045081 -75.49 
L 670.393871 -75.49 
L 676.742661 -75.49 
L 683.091452 -75.49 
L 689.440242 -75.49 
L 695.789032 -75.49 
L 702.137823 -75.49 
L 708.486613 -75.49 
L 714.835403 -75.49 
L 721.184194 -75.49 
L 727.532984 -75.49 
L 733.881774 -75.49 
L 740.230565 -75.49 
L 746.579355 -75.49 
L 752.928145 -75.49 
L 759.276935 -75.49 
L 765.625726 -75.49 
L 771.974516 -75.49 
L 778.323306 -75.49 
L 784.672097 -75.49 
L 791.020887 -75.49 
L 797.369677 -75.49 
L 803.718468 -75.49 
L 810.067258 -75.49 
L 816.416048 -75.49 
L 822.764839 -75.49 
L 829.113629 -75.49 
L 835.462419 -75.49 
L 841.81121 -75.49 
L 848.16 -75.49 
L 848.16 -123.960946 
L 848.16 -123.960946 
L 841.81121 -123.235943 
L 835.462419 -122.957937 
L 829.113629 -122.726219 
L 822.764839 -122.398337 
L 816.416048 -122.052034 
L 810.067258 -121.644791 
L 803.718468 -121.366603 
L 797.369677 -121.080562 
L 791.020887 -120.828275 
L 784.672097 -120.614903 
L 778.323306 -120.355584 
L 771.974516 -119.988481 
L 765.625726 -119.601663 
L 759.276935 -119.431463 
L 752.928145 -119.253721 
L 746.579355 -119.227872 
L 740.230565 -119.40177 
L 733.881774 -119.634124 
L 727.532984 -119.579312 
L 721.184194 -119.728886 
L 714.835403 -119.749093 
L 708.486613 -119.657562 
L 702.137823 -119.850845 
L 695.789032 -120.060122 
L 689.440242 -120.159202 
L 683.091452 -120.241474 
L 676.742661 -120.265624 
L 670.393871 -120.484277 
L 664.045081 -120.724223 
L 657.69629 -120.98333 
L 651.3475 -121.369151 
L 644.99871 -121.502847 
L 638.649919 -121.555471 
L 632.301129 -121.684708 
L 625.952339 -121.812526 
L 619.603548 -121.943218 
L 613.254758 -122.272654 
L 606.905968 -122.913339 
L 600.557177 -123.40709 
L 594.208387 -123.956072 
L 587.859597 -124.71948 
L 581.510806 -125.118845 
L 575.162016 -125.358082 
L 568.813226 -126.055934 
L 562.464435 -127.040844 
L 556.115645 -127.729711 
L 549.766855 -128.53888 
L 543.418065 -129.028278 
L 537.069274 -129.788414 
L 530.720484 -130.405586 
L 524.371694 -130.897412 
L 518.022903 -131.93652 
L 511.674113 -132.857223 
L 505.325323 -133.662787 
L 498.976532 -134.134409 
L 492.627742 -134.711997 
L 486.278952 -136.309154 
L 479.930161 -135.883441 
L 473.581371 -136.942452 
L 467.232581 -137.304217 
L 460.88379 -138.067626 
L 454.535 -138.569162 
z
" id="m652e7bd5f2" style="stroke:#d62728;"/>
    </defs>
    <g clip-path="url(#p5e46d0ad60)">
     <use style="fill:#d62728;stroke:#d62728;" x="0" xlink:href="#m652e7bd5f2" y="648"/>
    </g>
   </g>
   <g id="matplotlib.axis_7">
    <g id="xtick_37">
     <g id="line2d_61">
      <g>
       <use style="stroke:#000000;stroke-width:0.8;" x="454.535" xlink:href="#m04a1898db7" y="572.51"/>
      </g>
     </g>
     <g id="text_30">
      <!-- 2020-05-01 -->
      <g transform="translate(457.294375 637.625625)rotate(-90)scale(0.1 -0.1)">
       <use xlink:href="#DejaVuSans-32"/>
       <use x="63.623047" xlink:href="#DejaVuSans-30"/>
       <use x="127.246094" xlink:href="#DejaVuSans-32"/>
       <use x="190.869141" xlink:href="#DejaVuSans-30"/>
       <use x="254.492188" xlink:href="#DejaVuSans-2d"/>
       <use x="290.576172" xlink:href="#DejaVuSans-30"/>
       <use x="354.199219" xlink:href="#DejaVuSans-35"/>
       <use x="417.822266" xlink:href="#DejaVuSans-2d"/>
       <use x="453.90625" xlink:href="#DejaVuSans-30"/>
       <use x="517.529297" xlink:href="#DejaVuSans-31"/>
      </g>
     </g>
    </g>
    <g id="xtick_38">
     <g id="line2d_62">
      <g>
       <use style="stroke:#000000;stroke-width:0.8;" x="490.319091" xlink:href="#m04a1898db7" y="572.51"/>
      </g>
     </g>
     <g id="text_31">
      <!-- 2020-05-06 -->
      <g transform="translate(493.078466 637.625625)rotate(-90)scale(0.1 -0.1)">
       <use xlink:href="#DejaVuSans-32"/>
       <use x="63.623047" xlink:href="#DejaVuSans-30"/>
       <use x="127.246094" xlink:href="#DejaVuSans-32"/>
       <use x="190.869141" xlink:href="#DejaVuSans-30"/>
       <use x="254.492188" xlink:href="#DejaVuSans-2d"/>
       <use x="290.576172" xlink:href="#DejaVuSans-30"/>
       <use x="354.199219" xlink:href="#DejaVuSans-35"/>
       <use x="417.822266" xlink:href="#DejaVuSans-2d"/>
       <use x="453.90625" xlink:href="#DejaVuSans-30"/>
       <use x="517.529297" xlink:href="#DejaVuSans-36"/>
      </g>
     </g>
    </g>
    <g id="xtick_39">
     <g id="line2d_63">
      <g>
       <use style="stroke:#000000;stroke-width:0.8;" x="526.103182" xlink:href="#m04a1898db7" y="572.51"/>
      </g>
     </g>
     <g id="text_32">
      <!-- 2020-05-12 -->
      <g transform="translate(528.862557 637.625625)rotate(-90)scale(0.1 -0.1)">
       <use xlink:href="#DejaVuSans-32"/>
       <use x="63.623047" xlink:href="#DejaVuSans-30"/>
       <use x="127.246094" xlink:href="#DejaVuSans-32"/>
       <use x="190.869141" xlink:href="#DejaVuSans-30"/>
       <use x="254.492188" xlink:href="#DejaVuSans-2d"/>
       <use x="290.576172" xlink:href="#DejaVuSans-30"/>
       <use x="354.199219" xlink:href="#DejaVuSans-35"/>
       <use x="417.822266" xlink:href="#DejaVuSans-2d"/>
       <use x="453.90625" xlink:href="#DejaVuSans-31"/>
       <use x="517.529297" xlink:href="#DejaVuSans-32"/>
      </g>
     </g>
    </g>
    <g id="xtick_40">
     <g id="line2d_64">
      <g>
       <use style="stroke:#000000;stroke-width:0.8;" x="561.887273" xlink:href="#m04a1898db7" y="572.51"/>
      </g>
     </g>
     <g id="text_33">
      <!-- 2020-05-17 -->
      <g transform="translate(564.646648 637.625625)rotate(-90)scale(0.1 -0.1)">
       <use xlink:href="#DejaVuSans-32"/>
       <use x="63.623047" xlink:href="#DejaVuSans-30"/>
       <use x="127.246094" xlink:href="#DejaVuSans-32"/>
       <use x="190.869141" xlink:href="#DejaVuSans-30"/>
       <use x="254.492188" xlink:href="#DejaVuSans-2d"/>
       <use x="290.576172" xlink:href="#DejaVuSans-30"/>
       <use x="354.199219" xlink:href="#DejaVuSans-35"/>
       <use x="417.822266" xlink:href="#DejaVuSans-2d"/>
       <use x="453.90625" xlink:href="#DejaVuSans-31"/>
       <use x="517.529297" xlink:href="#DejaVuSans-37"/>
      </g>
     </g>
    </g>
    <g id="xtick_41">
     <g id="line2d_65">
      <g>
       <use style="stroke:#000000;stroke-width:0.8;" x="597.671364" xlink:href="#m04a1898db7" y="572.51"/>
      </g>
     </g>
     <g id="text_34">
      <!-- 2020-05-23 -->
      <g transform="translate(600.430739 637.625625)rotate(-90)scale(0.1 -0.1)">
       <use xlink:href="#DejaVuSans-32"/>
       <use x="63.623047" xlink:href="#DejaVuSans-30"/>
       <use x="127.246094" xlink:href="#DejaVuSans-32"/>
       <use x="190.869141" xlink:href="#DejaVuSans-30"/>
       <use x="254.492188" xlink:href="#DejaVuSans-2d"/>
       <use x="290.576172" xlink:href="#DejaVuSans-30"/>
       <use x="354.199219" xlink:href="#DejaVuSans-35"/>
       <use x="417.822266" xlink:href="#DejaVuSans-2d"/>
       <use x="453.90625" xlink:href="#DejaVuSans-32"/>
       <use x="517.529297" xlink:href="#DejaVuSans-33"/>
      </g>
     </g>
    </g>
    <g id="xtick_42">
     <g id="line2d_66">
      <g>
       <use style="stroke:#000000;stroke-width:0.8;" x="633.455455" xlink:href="#m04a1898db7" y="572.51"/>
      </g>
     </g>
     <g id="text_35">
      <!-- 2020-05-29 -->
      <g transform="translate(636.21483 637.625625)rotate(-90)scale(0.1 -0.1)">
       <use xlink:href="#DejaVuSans-32"/>
       <use x="63.623047" xlink:href="#DejaVuSans-30"/>
       <use x="127.246094" xlink:href="#DejaVuSans-32"/>
       <use x="190.869141" xlink:href="#DejaVuSans-30"/>
       <use x="254.492188" xlink:href="#DejaVuSans-2d"/>
       <use x="290.576172" xlink:href="#DejaVuSans-30"/>
       <use x="354.199219" xlink:href="#DejaVuSans-35"/>
       <use x="417.822266" xlink:href="#DejaVuSans-2d"/>
       <use x="453.90625" xlink:href="#DejaVuSans-32"/>
       <use x="517.529297" xlink:href="#DejaVuSans-39"/>
      </g>
     </g>
    </g>
    <g id="xtick_43">
     <g id="line2d_67">
      <g>
       <use style="stroke:#000000;stroke-width:0.8;" x="669.239545" xlink:href="#m04a1898db7" y="572.51"/>
      </g>
     </g>
     <g id="text_36">
      <!-- 2020-06-03 -->
      <g transform="translate(671.99892 637.625625)rotate(-90)scale(0.1 -0.1)">
       <use xlink:href="#DejaVuSans-32"/>
       <use x="63.623047" xlink:href="#DejaVuSans-30"/>
       <use x="127.246094" xlink:href="#DejaVuSans-32"/>
       <use x="190.869141" xlink:href="#DejaVuSans-30"/>
       <use x="254.492188" xlink:href="#DejaVuSans-2d"/>
       <use x="290.576172" xlink:href="#DejaVuSans-30"/>
       <use x="354.199219" xlink:href="#DejaVuSans-36"/>
       <use x="417.822266" xlink:href="#DejaVuSans-2d"/>
       <use x="453.90625" xlink:href="#DejaVuSans-30"/>
       <use x="517.529297" xlink:href="#DejaVuSans-33"/>
      </g>
     </g>
    </g>
    <g id="xtick_44">
     <g id="line2d_68">
      <g>
       <use style="stroke:#000000;stroke-width:0.8;" x="705.023636" xlink:href="#m04a1898db7" y="572.51"/>
      </g>
     </g>
     <g id="text_37">
      <!-- 2020-06-09 -->
      <g transform="translate(707.783011 637.625625)rotate(-90)scale(0.1 -0.1)">
       <use xlink:href="#DejaVuSans-32"/>
       <use x="63.623047" xlink:href="#DejaVuSans-30"/>
       <use x="127.246094" xlink:href="#DejaVuSans-32"/>
       <use x="190.869141" xlink:href="#DejaVuSans-30"/>
       <use x="254.492188" xlink:href="#DejaVuSans-2d"/>
       <use x="290.576172" xlink:href="#DejaVuSans-30"/>
       <use x="354.199219" xlink:href="#DejaVuSans-36"/>
       <use x="417.822266" xlink:href="#DejaVuSans-2d"/>
       <use x="453.90625" xlink:href="#DejaVuSans-30"/>
       <use x="517.529297" xlink:href="#DejaVuSans-39"/>
      </g>
     </g>
    </g>
    <g id="xtick_45">
     <g id="line2d_69">
      <g>
       <use style="stroke:#000000;stroke-width:0.8;" x="740.807727" xlink:href="#m04a1898db7" y="572.51"/>
      </g>
     </g>
     <g id="text_38">
      <!-- 2020-06-15 -->
      <g transform="translate(743.567102 637.625625)rotate(-90)scale(0.1 -0.1)">
       <use xlink:href="#DejaVuSans-32"/>
       <use x="63.623047" xlink:href="#DejaVuSans-30"/>
       <use x="127.246094" xlink:href="#DejaVuSans-32"/>
       <use x="190.869141" xlink:href="#DejaVuSans-30"/>
       <use x="254.492188" xlink:href="#DejaVuSans-2d"/>
       <use x="290.576172" xlink:href="#DejaVuSans-30"/>
       <use x="354.199219" xlink:href="#DejaVuSans-36"/>
       <use x="417.822266" xlink:href="#DejaVuSans-2d"/>
       <use x="453.90625" xlink:href="#DejaVuSans-31"/>
       <use x="517.529297" xlink:href="#DejaVuSans-35"/>
      </g>
     </g>
    </g>
    <g id="xtick_46">
     <g id="line2d_70">
      <g>
       <use style="stroke:#000000;stroke-width:0.8;" x="776.591818" xlink:href="#m04a1898db7" y="572.51"/>
      </g>
     </g>
     <g id="text_39">
      <!-- 2020-06-20 -->
      <g transform="translate(779.351193 637.625625)rotate(-90)scale(0.1 -0.1)">
       <use xlink:href="#DejaVuSans-32"/>
       <use x="63.623047" xlink:href="#DejaVuSans-30"/>
       <use x="127.246094" xlink:href="#DejaVuSans-32"/>
       <use x="190.869141" xlink:href="#DejaVuSans-30"/>
       <use x="254.492188" xlink:href="#DejaVuSans-2d"/>
       <use x="290.576172" xlink:href="#DejaVuSans-30"/>
       <use x="354.199219" xlink:href="#DejaVuSans-36"/>
       <use x="417.822266" xlink:href="#DejaVuSans-2d"/>
       <use x="453.90625" xlink:href="#DejaVuSans-32"/>
       <use x="517.529297" xlink:href="#DejaVuSans-30"/>
      </g>
     </g>
    </g>
    <g id="xtick_47">
     <g id="line2d_71">
      <g>
       <use style="stroke:#000000;stroke-width:0.8;" x="812.375909" xlink:href="#m04a1898db7" y="572.51"/>
      </g>
     </g>
     <g id="text_40">
      <!-- 2020-06-26 -->
      <g transform="translate(815.135284 637.625625)rotate(-90)scale(0.1 -0.1)">
       <use xlink:href="#DejaVuSans-32"/>
       <use x="63.623047" xlink:href="#DejaVuSans-30"/>
       <use x="127.246094" xlink:href="#DejaVuSans-32"/>
       <use x="190.869141" xlink:href="#DejaVuSans-30"/>
       <use x="254.492188" xlink:href="#DejaVuSans-2d"/>
       <use x="290.576172" xlink:href="#DejaVuSans-30"/>
       <use x="354.199219" xlink:href="#DejaVuSans-36"/>
       <use x="417.822266" xlink:href="#DejaVuSans-2d"/>
       <use x="453.90625" xlink:href="#DejaVuSans-32"/>
       <use x="517.529297" xlink:href="#DejaVuSans-36"/>
      </g>
     </g>
    </g>
    <g id="xtick_48">
     <g id="line2d_72">
      <g>
       <use style="stroke:#000000;stroke-width:0.8;" x="848.16" xlink:href="#m04a1898db7" y="572.51"/>
      </g>
     </g>
     <g id="text_41">
      <!-- 2020-07-02 -->
      <g transform="translate(850.919375 637.625625)rotate(-90)scale(0.1 -0.1)">
       <use xlink:href="#DejaVuSans-32"/>
       <use x="63.623047" xlink:href="#DejaVuSans-30"/>
       <use x="127.246094" xlink:href="#DejaVuSans-32"/>
       <use x="190.869141" xlink:href="#DejaVuSans-30"/>
       <use x="254.492188" xlink:href="#DejaVuSans-2d"/>
       <use x="290.576172" xlink:href="#DejaVuSans-30"/>
       <use x="354.199219" xlink:href="#DejaVuSans-37"/>
       <use x="417.822266" xlink:href="#DejaVuSans-2d"/>
       <use x="453.90625" xlink:href="#DejaVuSans-30"/>
       <use x="517.529297" xlink:href="#DejaVuSans-32"/>
      </g>
     </g>
    </g>
   </g>
   <g id="matplotlib.axis_8">
    <g id="ytick_22">
     <g id="line2d_73">
      <g>
       <use style="stroke:#000000;stroke-width:0.8;" x="454.535" xlink:href="#ma735381ff7" y="572.51"/>
      </g>
     </g>
    </g>
    <g id="ytick_23">
     <g id="line2d_74">
      <g>
       <use style="stroke:#000000;stroke-width:0.8;" x="454.535" xlink:href="#ma735381ff7" y="532.538837"/>
      </g>
     </g>
    </g>
    <g id="ytick_24">
     <g id="line2d_75">
      <g>
       <use style="stroke:#000000;stroke-width:0.8;" x="454.535" xlink:href="#ma735381ff7" y="492.567674"/>
      </g>
     </g>
    </g>
    <g id="ytick_25">
     <g id="line2d_76">
      <g>
       <use style="stroke:#000000;stroke-width:0.8;" x="454.535" xlink:href="#ma735381ff7" y="452.596512"/>
      </g>
     </g>
    </g>
    <g id="ytick_26">
     <g id="line2d_77">
      <g>
       <use style="stroke:#000000;stroke-width:0.8;" x="454.535" xlink:href="#ma735381ff7" y="412.625349"/>
      </g>
     </g>
    </g>
    <g id="ytick_27">
     <g id="line2d_78">
      <g>
       <use style="stroke:#000000;stroke-width:0.8;" x="454.535" xlink:href="#ma735381ff7" y="372.654186"/>
      </g>
     </g>
    </g>
    <g id="ytick_28">
     <g id="line2d_79">
      <g>
       <use style="stroke:#000000;stroke-width:0.8;" x="454.535" xlink:href="#ma735381ff7" y="332.683023"/>
      </g>
     </g>
    </g>
   </g>
   <g id="line2d_80">
    <path clip-path="url(#p5e46d0ad60)" d="M 454.535 509.430838 
L 460.88379 509.932374 
L 467.232581 510.695783 
L 473.581371 511.057548 
L 479.930161 512.116559 
L 486.278952 511.690846 
L 492.627742 513.288003 
L 498.976532 513.865591 
L 505.325323 514.337213 
L 511.674113 515.142777 
L 518.022903 516.06348 
L 524.371694 517.102588 
L 530.720484 517.594414 
L 537.069274 518.211586 
L 543.418065 518.971722 
L 549.766855 519.46112 
L 556.115645 520.270289 
L 562.464435 520.959156 
L 568.813226 521.944066 
L 575.162016 522.641918 
L 581.510806 522.881155 
L 587.859597 523.28052 
L 594.208387 524.043928 
L 600.557177 524.59291 
L 606.905968 525.086661 
L 613.254758 525.727346 
L 619.603548 526.056782 
L 625.952339 526.187474 
L 632.301129 526.315292 
L 638.649919 526.444529 
L 644.99871 526.497153 
L 651.3475 526.630849 
L 657.69629 527.01667 
L 664.045081 527.275777 
L 670.393871 527.515723 
L 676.742661 527.734376 
L 683.091452 527.758526 
L 689.440242 527.840798 
L 695.789032 527.939878 
L 702.137823 528.149155 
L 708.486613 528.342438 
L 714.835403 528.250907 
L 721.184194 528.271114 
L 727.532984 528.420688 
L 733.881774 528.365876 
L 740.230565 528.59823 
L 746.579355 528.772128 
L 752.928145 528.746279 
L 759.276935 528.568537 
L 765.625726 528.398337 
L 771.974516 528.011519 
L 778.323306 527.644416 
L 784.672097 527.385097 
L 791.020887 527.171725 
L 797.369677 526.919438 
L 803.718468 526.633397 
L 810.067258 526.355209 
L 816.416048 525.947966 
L 822.764839 525.601663 
L 829.113629 525.273781 
L 835.462419 525.042063 
L 841.81121 524.764057 
L 848.16 524.039054 
" style="fill:none;stroke:#d62728;stroke-linecap:square;stroke-width:1.5;"/>
   </g>
   <g id="patch_18">
    <path d="M 454.535 572.51 
L 454.535 314.755 
" style="fill:none;stroke:#000000;stroke-linecap:square;stroke-linejoin:miter;stroke-width:0.8;"/>
   </g>
   <g id="patch_19">
    <path d="M 848.16 572.51 
L 848.16 314.755 
" style="fill:none;stroke:#000000;stroke-linecap:square;stroke-linejoin:miter;stroke-width:0.8;"/>
   </g>
   <g id="patch_20">
    <path d="M 454.535 572.51 
L 848.16 572.51 
" style="fill:none;stroke:#000000;stroke-linecap:square;stroke-linejoin:miter;stroke-width:0.8;"/>
   </g>
   <g id="patch_21">
    <path d="M 454.535 314.755 
L 848.16 314.755 
" style="fill:none;stroke:#000000;stroke-linecap:square;stroke-linejoin:miter;stroke-width:0.8;"/>
   </g>
   <g id="text_42">
    <!-- West -->
    <defs>
     <path d="M 3.328125 72.90625 
L 13.28125 72.90625 
L 28.609375 11.28125 
L 43.890625 72.90625 
L 54.984375 72.90625 
L 70.3125 11.28125 
L 85.59375 72.90625 
L 95.609375 72.90625 
L 77.296875 0 
L 64.890625 0 
L 49.515625 63.28125 
L 33.984375 0 
L 21.578125 0 
z
" id="DejaVuSans-57"/>
    </defs>
    <g transform="translate(636.25 308.755)scale(0.12 -0.12)">
     <use xlink:href="#DejaVuSans-57"/>
     <use x="98.798828" xlink:href="#DejaVuSans-65"/>
     <use x="160.322266" xlink:href="#DejaVuSans-73"/>
     <use x="212.421875" xlink:href="#DejaVuSans-74"/>
    </g>
   </g>
  </g>
 </g>
 <defs>
  <clipPath id="pe3f2b2e9ea">
   <rect height="257.755" width="393.625" x="40.03" y="25.44"/>
  </clipPath>
  <clipPath id="p4cd1b6a23a">
   <rect height="257.755" width="393.625" x="454.535" y="25.44"/>
  </clipPath>
  <clipPath id="p3c0fe673f0">
   <rect height="257.755" width="393.625" x="40.03" y="314.755"/>
  </clipPath>
  <clipPath id="p5e46d0ad60">
   <rect height="257.755" width="393.625" x="454.535" y="314.755"/>
  </clipPath>
 </defs>
</svg>
