<?xml version="1.0" encoding="utf-8" standalone="no"?>
<!DOCTYPE svg PUBLIC "-//W3C//DTD SVG 1.1//EN"
  "http://www.w3.org/Graphics/SVG/1.1/DTD/svg11.dtd">
<!-- Created with matplotlib (https://matplotlib.org/) -->
<svg height="648pt" version="1.1" viewBox="0 0 864 648" width="864pt" xmlns="http://www.w3.org/2000/svg" xmlns:xlink="http://www.w3.org/1999/xlink">
 <defs>
  <style type="text/css">
*{stroke-linecap:butt;stroke-linejoin:round;}
  </style>
 </defs>
 <g id="figure_1">
  <g id="patch_1">
   <path d="M 0 648 
L 864 648 
L 864 0 
L 0 0 
z
" style="fill:#ffffff;"/>
  </g>
  <g id="axes_1">
   <g id="patch_2">
    <path d="M 40.12 282.97 
L 433.7 282.97 
L 433.7 25.44 
L 40.12 25.44 
z
" style="fill:#ffffff;"/>
   </g>
   <g id="PolyCollection_1">
    <defs>
     <path d="M 40.12 -498.519229 
L 40.12 -365.03 
L 46.468065 -365.03 
L 52.816129 -365.03 
L 59.164194 -365.03 
L 65.512258 -365.03 
L 71.860323 -365.03 
L 78.208387 -365.03 
L 84.556452 -365.03 
L 90.904516 -365.03 
L 97.252581 -365.03 
L 103.600645 -365.03 
L 109.94871 -365.03 
L 116.296774 -365.03 
L 122.644839 -365.03 
L 128.992903 -365.03 
L 135.340968 -365.03 
L 141.689032 -365.03 
L 148.037097 -365.03 
L 154.385161 -365.03 
L 160.733226 -365.03 
L 167.08129 -365.03 
L 173.429355 -365.03 
L 179.777419 -365.03 
L 186.125484 -365.03 
L 192.473548 -365.03 
L 198.821613 -365.03 
L 205.169677 -365.03 
L 211.517742 -365.03 
L 217.865806 -365.03 
L 224.213871 -365.03 
L 230.561935 -365.03 
L 236.91 -365.03 
L 243.258065 -365.03 
L 249.606129 -365.03 
L 255.954194 -365.03 
L 262.302258 -365.03 
L 268.650323 -365.03 
L 274.998387 -365.03 
L 281.346452 -365.03 
L 287.694516 -365.03 
L 294.042581 -365.03 
L 300.390645 -365.03 
L 306.73871 -365.03 
L 313.086774 -365.03 
L 319.434839 -365.03 
L 325.782903 -365.03 
L 332.130968 -365.03 
L 338.479032 -365.03 
L 344.827097 -365.03 
L 351.175161 -365.03 
L 357.523226 -365.03 
L 363.87129 -365.03 
L 370.219355 -365.03 
L 376.567419 -365.03 
L 382.915484 -365.03 
L 389.263548 -365.03 
L 395.611613 -365.03 
L 401.959677 -365.03 
L 408.307742 -365.03 
L 414.655806 -365.03 
L 421.003871 -365.03 
L 427.351935 -365.03 
L 433.7 -365.03 
L 433.7 -424.94237 
L 433.7 -424.94237 
L 427.351935 -425.468912 
L 421.003871 -425.999323 
L 414.655806 -426.379234 
L 408.307742 -425.159766 
L 401.959677 -425.653209 
L 395.611613 -426.391938 
L 389.263548 -427.103323 
L 382.915484 -427.609201 
L 376.567419 -428.075308 
L 370.219355 -428.485321 
L 363.87129 -428.953099 
L 357.523226 -429.612011 
L 351.175161 -430.492689 
L 344.827097 -431.247313 
L 338.479032 -432.112696 
L 332.130968 -432.849066 
L 325.782903 -433.410057 
L 319.434839 -434.305456 
L 313.086774 -435.074772 
L 306.73871 -436.200267 
L 300.390645 -437.474915 
L 294.042581 -440.956466 
L 287.694516 -442.510047 
L 281.346452 -442.934902 
L 274.998387 -443.572328 
L 268.650323 -444.665914 
L 262.302258 -449.70451 
L 255.954194 -451.528895 
L 249.606129 -452.372603 
L 243.258065 -451.651142 
L 236.91 -452.346193 
L 230.561935 -453.302601 
L 224.213871 -454.159296 
L 217.865806 -455.118346 
L 211.517742 -455.703809 
L 205.169677 -456.188278 
L 198.821613 -456.716322 
L 192.473548 -457.252528 
L 186.125484 -457.594273 
L 179.777419 -457.772204 
L 173.429355 -458.45747 
L 167.08129 -459.570871 
L 160.733226 -461.025378 
L 154.385161 -462.273718 
L 148.037097 -463.48225 
L 141.689032 -465.137873 
L 135.340968 -468.388486 
L 128.992903 -470.804038 
L 122.644839 -471.923118 
L 116.296774 -473.46632 
L 109.94871 -474.645177 
L 103.600645 -475.717905 
L 97.252581 -478.723518 
L 90.904516 -479.873707 
L 84.556452 -481.188269 
L 78.208387 -482.964573 
L 71.860323 -484.346093 
L 65.512258 -484.649396 
L 59.164194 -486.042059 
L 52.816129 -487.712263 
L 46.468065 -488.832504 
L 40.12 -498.519229 
z
" id="m17a030ae2b" style="stroke:#1f77b4;"/>
    </defs>
    <g clip-path="url(#pd2ab92da09)">
     <use style="fill:#1f77b4;stroke:#1f77b4;" x="0" xlink:href="#m17a030ae2b" y="648"/>
    </g>
   </g>
   <g id="matplotlib.axis_1">
    <g id="xtick_1">
     <g id="line2d_1">
      <defs>
       <path d="M 0 0 
L 0 3.5 
" id="ma4381d9753" style="stroke:#000000;stroke-width:0.8;"/>
      </defs>
      <g>
       <use style="stroke:#000000;stroke-width:0.8;" x="40.12" xlink:href="#ma4381d9753" y="282.97"/>
      </g>
     </g>
    </g>
    <g id="xtick_2">
     <g id="line2d_2">
      <g>
       <use style="stroke:#000000;stroke-width:0.8;" x="75.9" xlink:href="#ma4381d9753" y="282.97"/>
      </g>
     </g>
    </g>
    <g id="xtick_3">
     <g id="line2d_3">
      <g>
       <use style="stroke:#000000;stroke-width:0.8;" x="111.68" xlink:href="#ma4381d9753" y="282.97"/>
      </g>
     </g>
    </g>
    <g id="xtick_4">
     <g id="line2d_4">
      <g>
       <use style="stroke:#000000;stroke-width:0.8;" x="147.46" xlink:href="#ma4381d9753" y="282.97"/>
      </g>
     </g>
    </g>
    <g id="xtick_5">
     <g id="line2d_5">
      <g>
       <use style="stroke:#000000;stroke-width:0.8;" x="183.24" xlink:href="#ma4381d9753" y="282.97"/>
      </g>
     </g>
    </g>
    <g id="xtick_6">
     <g id="line2d_6">
      <g>
       <use style="stroke:#000000;stroke-width:0.8;" x="219.02" xlink:href="#ma4381d9753" y="282.97"/>
      </g>
     </g>
    </g>
    <g id="xtick_7">
     <g id="line2d_7">
      <g>
       <use style="stroke:#000000;stroke-width:0.8;" x="254.8" xlink:href="#ma4381d9753" y="282.97"/>
      </g>
     </g>
    </g>
    <g id="xtick_8">
     <g id="line2d_8">
      <g>
       <use style="stroke:#000000;stroke-width:0.8;" x="290.58" xlink:href="#ma4381d9753" y="282.97"/>
      </g>
     </g>
    </g>
    <g id="xtick_9">
     <g id="line2d_9">
      <g>
       <use style="stroke:#000000;stroke-width:0.8;" x="326.36" xlink:href="#ma4381d9753" y="282.97"/>
      </g>
     </g>
    </g>
    <g id="xtick_10">
     <g id="line2d_10">
      <g>
       <use style="stroke:#000000;stroke-width:0.8;" x="362.14" xlink:href="#ma4381d9753" y="282.97"/>
      </g>
     </g>
    </g>
    <g id="xtick_11">
     <g id="line2d_11">
      <g>
       <use style="stroke:#000000;stroke-width:0.8;" x="397.92" xlink:href="#ma4381d9753" y="282.97"/>
      </g>
     </g>
    </g>
    <g id="xtick_12">
     <g id="line2d_12">
      <g>
       <use style="stroke:#000000;stroke-width:0.8;" x="433.7" xlink:href="#ma4381d9753" y="282.97"/>
      </g>
     </g>
    </g>
   </g>
   <g id="matplotlib.axis_2">
    <g id="ytick_1">
     <g id="line2d_13">
      <defs>
       <path d="M 0 0 
L -3.5 0 
" id="m9f5e60b6cf" style="stroke:#000000;stroke-width:0.8;"/>
      </defs>
      <g>
       <use style="stroke:#000000;stroke-width:0.8;" x="40.12" xlink:href="#m9f5e60b6cf" y="282.97"/>
      </g>
     </g>
     <g id="text_1">
      <!-- 0.00 -->
      <defs>
       <path d="M 31.78125 66.40625 
Q 24.171875 66.40625 20.328125 58.90625 
Q 16.5 51.421875 16.5 36.375 
Q 16.5 21.390625 20.328125 13.890625 
Q 24.171875 6.390625 31.78125 6.390625 
Q 39.453125 6.390625 43.28125 13.890625 
Q 47.125 21.390625 47.125 36.375 
Q 47.125 51.421875 43.28125 58.90625 
Q 39.453125 66.40625 31.78125 66.40625 
z
M 31.78125 74.21875 
Q 44.046875 74.21875 50.515625 64.515625 
Q 56.984375 54.828125 56.984375 36.375 
Q 56.984375 17.96875 50.515625 8.265625 
Q 44.046875 -1.421875 31.78125 -1.421875 
Q 19.53125 -1.421875 13.0625 8.265625 
Q 6.59375 17.96875 6.59375 36.375 
Q 6.59375 54.828125 13.0625 64.515625 
Q 19.53125 74.21875 31.78125 74.21875 
z
" id="DejaVuSans-48"/>
       <path d="M 10.6875 12.40625 
L 21 12.40625 
L 21 0 
L 10.6875 0 
z
" id="DejaVuSans-46"/>
      </defs>
      <g transform="translate(10.854375 286.769219)scale(0.1 -0.1)">
       <use xlink:href="#DejaVuSans-48"/>
       <use x="63.623047" xlink:href="#DejaVuSans-46"/>
       <use x="95.410156" xlink:href="#DejaVuSans-48"/>
       <use x="159.033203" xlink:href="#DejaVuSans-48"/>
      </g>
     </g>
    </g>
    <g id="ytick_2">
     <g id="line2d_14">
      <g>
       <use style="stroke:#000000;stroke-width:0.8;" x="40.12" xlink:href="#m9f5e60b6cf" y="244.027564"/>
      </g>
     </g>
     <g id="text_2">
      <!-- 0.05 -->
      <defs>
       <path d="M 10.796875 72.90625 
L 49.515625 72.90625 
L 49.515625 64.59375 
L 19.828125 64.59375 
L 19.828125 46.734375 
Q 21.96875 47.46875 24.109375 47.828125 
Q 26.265625 48.1875 28.421875 48.1875 
Q 40.625 48.1875 47.75 41.5 
Q 54.890625 34.8125 54.890625 23.390625 
Q 54.890625 11.625 47.5625 5.09375 
Q 40.234375 -1.421875 26.90625 -1.421875 
Q 22.3125 -1.421875 17.546875 -0.640625 
Q 12.796875 0.140625 7.71875 1.703125 
L 7.71875 11.625 
Q 12.109375 9.234375 16.796875 8.0625 
Q 21.484375 6.890625 26.703125 6.890625 
Q 35.15625 6.890625 40.078125 11.328125 
Q 45.015625 15.765625 45.015625 23.390625 
Q 45.015625 31 40.078125 35.4375 
Q 35.15625 39.890625 26.703125 39.890625 
Q 22.75 39.890625 18.8125 39.015625 
Q 14.890625 38.140625 10.796875 36.28125 
z
" id="DejaVuSans-53"/>
      </defs>
      <g transform="translate(10.854375 247.826783)scale(0.1 -0.1)">
       <use xlink:href="#DejaVuSans-48"/>
       <use x="63.623047" xlink:href="#DejaVuSans-46"/>
       <use x="95.410156" xlink:href="#DejaVuSans-48"/>
       <use x="159.033203" xlink:href="#DejaVuSans-53"/>
      </g>
     </g>
    </g>
    <g id="ytick_3">
     <g id="line2d_15">
      <g>
       <use style="stroke:#000000;stroke-width:0.8;" x="40.12" xlink:href="#m9f5e60b6cf" y="205.085129"/>
      </g>
     </g>
     <g id="text_3">
      <!-- 0.10 -->
      <defs>
       <path d="M 12.40625 8.296875 
L 28.515625 8.296875 
L 28.515625 63.921875 
L 10.984375 60.40625 
L 10.984375 69.390625 
L 28.421875 72.90625 
L 38.28125 72.90625 
L 38.28125 8.296875 
L 54.390625 8.296875 
L 54.390625 0 
L 12.40625 0 
z
" id="DejaVuSans-49"/>
      </defs>
      <g transform="translate(10.854375 208.884348)scale(0.1 -0.1)">
       <use xlink:href="#DejaVuSans-48"/>
       <use x="63.623047" xlink:href="#DejaVuSans-46"/>
       <use x="95.410156" xlink:href="#DejaVuSans-49"/>
       <use x="159.033203" xlink:href="#DejaVuSans-48"/>
      </g>
     </g>
    </g>
    <g id="ytick_4">
     <g id="line2d_16">
      <g>
       <use style="stroke:#000000;stroke-width:0.8;" x="40.12" xlink:href="#m9f5e60b6cf" y="166.142693"/>
      </g>
     </g>
     <g id="text_4">
      <!-- 0.15 -->
      <g transform="translate(10.854375 169.941912)scale(0.1 -0.1)">
       <use xlink:href="#DejaVuSans-48"/>
       <use x="63.623047" xlink:href="#DejaVuSans-46"/>
       <use x="95.410156" xlink:href="#DejaVuSans-49"/>
       <use x="159.033203" xlink:href="#DejaVuSans-53"/>
      </g>
     </g>
    </g>
    <g id="ytick_5">
     <g id="line2d_17">
      <g>
       <use style="stroke:#000000;stroke-width:0.8;" x="40.12" xlink:href="#m9f5e60b6cf" y="127.200258"/>
      </g>
     </g>
     <g id="text_5">
      <!-- 0.20 -->
      <defs>
       <path d="M 19.1875 8.296875 
L 53.609375 8.296875 
L 53.609375 0 
L 7.328125 0 
L 7.328125 8.296875 
Q 12.9375 14.109375 22.625 23.890625 
Q 32.328125 33.6875 34.8125 36.53125 
Q 39.546875 41.84375 41.421875 45.53125 
Q 43.3125 49.21875 43.3125 52.78125 
Q 43.3125 58.59375 39.234375 62.25 
Q 35.15625 65.921875 28.609375 65.921875 
Q 23.96875 65.921875 18.8125 64.3125 
Q 13.671875 62.703125 7.8125 59.421875 
L 7.8125 69.390625 
Q 13.765625 71.78125 18.9375 73 
Q 24.125 74.21875 28.421875 74.21875 
Q 39.75 74.21875 46.484375 68.546875 
Q 53.21875 62.890625 53.21875 53.421875 
Q 53.21875 48.921875 51.53125 44.890625 
Q 49.859375 40.875 45.40625 35.40625 
Q 44.1875 33.984375 37.640625 27.21875 
Q 31.109375 20.453125 19.1875 8.296875 
z
" id="DejaVuSans-50"/>
      </defs>
      <g transform="translate(10.854375 130.999476)scale(0.1 -0.1)">
       <use xlink:href="#DejaVuSans-48"/>
       <use x="63.623047" xlink:href="#DejaVuSans-46"/>
       <use x="95.410156" xlink:href="#DejaVuSans-50"/>
       <use x="159.033203" xlink:href="#DejaVuSans-48"/>
      </g>
     </g>
    </g>
    <g id="ytick_6">
     <g id="line2d_18">
      <g>
       <use style="stroke:#000000;stroke-width:0.8;" x="40.12" xlink:href="#m9f5e60b6cf" y="88.257822"/>
      </g>
     </g>
     <g id="text_6">
      <!-- 0.25 -->
      <g transform="translate(10.854375 92.057041)scale(0.1 -0.1)">
       <use xlink:href="#DejaVuSans-48"/>
       <use x="63.623047" xlink:href="#DejaVuSans-46"/>
       <use x="95.410156" xlink:href="#DejaVuSans-50"/>
       <use x="159.033203" xlink:href="#DejaVuSans-53"/>
      </g>
     </g>
    </g>
    <g id="ytick_7">
     <g id="line2d_19">
      <g>
       <use style="stroke:#000000;stroke-width:0.8;" x="40.12" xlink:href="#m9f5e60b6cf" y="49.315386"/>
      </g>
     </g>
     <g id="text_7">
      <!-- 0.30 -->
      <defs>
       <path d="M 40.578125 39.3125 
Q 47.65625 37.796875 51.625 33 
Q 55.609375 28.21875 55.609375 21.1875 
Q 55.609375 10.40625 48.1875 4.484375 
Q 40.765625 -1.421875 27.09375 -1.421875 
Q 22.515625 -1.421875 17.65625 -0.515625 
Q 12.796875 0.390625 7.625 2.203125 
L 7.625 11.71875 
Q 11.71875 9.328125 16.59375 8.109375 
Q 21.484375 6.890625 26.8125 6.890625 
Q 36.078125 6.890625 40.9375 10.546875 
Q 45.796875 14.203125 45.796875 21.1875 
Q 45.796875 27.640625 41.28125 31.265625 
Q 36.765625 34.90625 28.71875 34.90625 
L 20.21875 34.90625 
L 20.21875 43.015625 
L 29.109375 43.015625 
Q 36.375 43.015625 40.234375 45.921875 
Q 44.09375 48.828125 44.09375 54.296875 
Q 44.09375 59.90625 40.109375 62.90625 
Q 36.140625 65.921875 28.71875 65.921875 
Q 24.65625 65.921875 20.015625 65.03125 
Q 15.375 64.15625 9.8125 62.3125 
L 9.8125 71.09375 
Q 15.4375 72.65625 20.34375 73.4375 
Q 25.25 74.21875 29.59375 74.21875 
Q 40.828125 74.21875 47.359375 69.109375 
Q 53.90625 64.015625 53.90625 55.328125 
Q 53.90625 49.265625 50.4375 45.09375 
Q 46.96875 40.921875 40.578125 39.3125 
z
" id="DejaVuSans-51"/>
      </defs>
      <g transform="translate(10.854375 53.114605)scale(0.1 -0.1)">
       <use xlink:href="#DejaVuSans-48"/>
       <use x="63.623047" xlink:href="#DejaVuSans-46"/>
       <use x="95.410156" xlink:href="#DejaVuSans-51"/>
       <use x="159.033203" xlink:href="#DejaVuSans-48"/>
      </g>
     </g>
    </g>
   </g>
   <g id="line2d_20">
    <path clip-path="url(#pd2ab92da09)" d="M 40.12 149.480771 
L 46.468065 159.167496 
L 52.816129 160.287737 
L 59.164194 161.957941 
L 65.512258 163.350604 
L 71.860323 163.653907 
L 78.208387 165.035427 
L 84.556452 166.811731 
L 90.904516 168.126293 
L 97.252581 169.276482 
L 103.600645 172.282095 
L 109.94871 173.354823 
L 116.296774 174.53368 
L 122.644839 176.076882 
L 128.992903 177.195962 
L 135.340968 179.611514 
L 141.689032 182.862127 
L 148.037097 184.51775 
L 154.385161 185.726282 
L 160.733226 186.974622 
L 167.08129 188.429129 
L 173.429355 189.54253 
L 179.777419 190.227796 
L 186.125484 190.405727 
L 192.473548 190.747472 
L 198.821613 191.283678 
L 205.169677 191.811722 
L 211.517742 192.296191 
L 217.865806 192.881654 
L 224.213871 193.840704 
L 230.561935 194.697399 
L 236.91 195.653807 
L 243.258065 196.348858 
L 249.606129 195.627397 
L 255.954194 196.471105 
L 262.302258 198.29549 
L 268.650323 203.334086 
L 274.998387 204.427672 
L 281.346452 205.065098 
L 287.694516 205.489953 
L 294.042581 207.043534 
L 300.390645 210.525085 
L 306.73871 211.799733 
L 313.086774 212.925228 
L 319.434839 213.694544 
L 325.782903 214.589943 
L 332.130968 215.150934 
L 338.479032 215.887304 
L 344.827097 216.752687 
L 351.175161 217.507311 
L 357.523226 218.387989 
L 363.87129 219.046901 
L 370.219355 219.514679 
L 376.567419 219.924692 
L 382.915484 220.390799 
L 389.263548 220.896677 
L 395.611613 221.608062 
L 401.959677 222.346791 
L 408.307742 222.840234 
L 414.655806 221.620766 
L 421.003871 222.000677 
L 427.351935 222.531088 
L 433.7 223.05763 
" style="fill:none;stroke:#1f77b4;stroke-linecap:square;stroke-width:1.5;"/>
   </g>
   <g id="patch_3">
    <path d="M 40.12 282.97 
L 40.12 25.44 
" style="fill:none;stroke:#000000;stroke-linecap:square;stroke-linejoin:miter;stroke-width:0.8;"/>
   </g>
   <g id="patch_4">
    <path d="M 433.7 282.97 
L 433.7 25.44 
" style="fill:none;stroke:#000000;stroke-linecap:square;stroke-linejoin:miter;stroke-width:0.8;"/>
   </g>
   <g id="patch_5">
    <path d="M 40.12 282.97 
L 433.7 282.97 
" style="fill:none;stroke:#000000;stroke-linecap:square;stroke-linejoin:miter;stroke-width:0.8;"/>
   </g>
   <g id="patch_6">
    <path d="M 40.12 25.44 
L 433.7 25.44 
" style="fill:none;stroke:#000000;stroke-linecap:square;stroke-linejoin:miter;stroke-width:0.8;"/>
   </g>
   <g id="text_8">
    <!-- Midwest -->
    <defs>
     <path d="M 9.8125 72.90625 
L 24.515625 72.90625 
L 43.109375 23.296875 
L 61.8125 72.90625 
L 76.515625 72.90625 
L 76.515625 0 
L 66.890625 0 
L 66.890625 64.015625 
L 48.09375 14.015625 
L 38.1875 14.015625 
L 19.390625 64.015625 
L 19.390625 0 
L 9.8125 0 
z
" id="DejaVuSans-77"/>
     <path d="M 9.421875 54.6875 
L 18.40625 54.6875 
L 18.40625 0 
L 9.421875 0 
z
M 9.421875 75.984375 
L 18.40625 75.984375 
L 18.40625 64.59375 
L 9.421875 64.59375 
z
" id="DejaVuSans-105"/>
     <path d="M 45.40625 46.390625 
L 45.40625 75.984375 
L 54.390625 75.984375 
L 54.390625 0 
L 45.40625 0 
L 45.40625 8.203125 
Q 42.578125 3.328125 38.25 0.953125 
Q 33.9375 -1.421875 27.875 -1.421875 
Q 17.96875 -1.421875 11.734375 6.484375 
Q 5.515625 14.40625 5.515625 27.296875 
Q 5.515625 40.1875 11.734375 48.09375 
Q 17.96875 56 27.875 56 
Q 33.9375 56 38.25 53.625 
Q 42.578125 51.265625 45.40625 46.390625 
z
M 14.796875 27.296875 
Q 14.796875 17.390625 18.875 11.75 
Q 22.953125 6.109375 30.078125 6.109375 
Q 37.203125 6.109375 41.296875 11.75 
Q 45.40625 17.390625 45.40625 27.296875 
Q 45.40625 37.203125 41.296875 42.84375 
Q 37.203125 48.484375 30.078125 48.484375 
Q 22.953125 48.484375 18.875 42.84375 
Q 14.796875 37.203125 14.796875 27.296875 
z
" id="DejaVuSans-100"/>
     <path d="M 4.203125 54.6875 
L 13.1875 54.6875 
L 24.421875 12.015625 
L 35.59375 54.6875 
L 46.1875 54.6875 
L 57.421875 12.015625 
L 68.609375 54.6875 
L 77.59375 54.6875 
L 63.28125 0 
L 52.6875 0 
L 40.921875 44.828125 
L 29.109375 0 
L 18.5 0 
z
" id="DejaVuSans-119"/>
     <path d="M 56.203125 29.59375 
L 56.203125 25.203125 
L 14.890625 25.203125 
Q 15.484375 15.921875 20.484375 11.0625 
Q 25.484375 6.203125 34.421875 6.203125 
Q 39.59375 6.203125 44.453125 7.46875 
Q 49.3125 8.734375 54.109375 11.28125 
L 54.109375 2.78125 
Q 49.265625 0.734375 44.1875 -0.34375 
Q 39.109375 -1.421875 33.890625 -1.421875 
Q 20.796875 -1.421875 13.15625 6.1875 
Q 5.515625 13.8125 5.515625 26.8125 
Q 5.515625 40.234375 12.765625 48.109375 
Q 20.015625 56 32.328125 56 
Q 43.359375 56 49.78125 48.890625 
Q 56.203125 41.796875 56.203125 29.59375 
z
M 47.21875 32.234375 
Q 47.125 39.59375 43.09375 43.984375 
Q 39.0625 48.390625 32.421875 48.390625 
Q 24.90625 48.390625 20.390625 44.140625 
Q 15.875 39.890625 15.1875 32.171875 
z
" id="DejaVuSans-101"/>
     <path d="M 44.28125 53.078125 
L 44.28125 44.578125 
Q 40.484375 46.53125 36.375 47.5 
Q 32.28125 48.484375 27.875 48.484375 
Q 21.1875 48.484375 17.84375 46.4375 
Q 14.5 44.390625 14.5 40.28125 
Q 14.5 37.15625 16.890625 35.375 
Q 19.28125 33.59375 26.515625 31.984375 
L 29.59375 31.296875 
Q 39.15625 29.25 43.1875 25.515625 
Q 47.21875 21.78125 47.21875 15.09375 
Q 47.21875 7.46875 41.1875 3.015625 
Q 35.15625 -1.421875 24.609375 -1.421875 
Q 20.21875 -1.421875 15.453125 -0.5625 
Q 10.6875 0.296875 5.421875 2 
L 5.421875 11.28125 
Q 10.40625 8.6875 15.234375 7.390625 
Q 20.0625 6.109375 24.8125 6.109375 
Q 31.15625 6.109375 34.5625 8.28125 
Q 37.984375 10.453125 37.984375 14.40625 
Q 37.984375 18.0625 35.515625 20.015625 
Q 33.0625 21.96875 24.703125 23.78125 
L 21.578125 24.515625 
Q 13.234375 26.265625 9.515625 29.90625 
Q 5.8125 33.546875 5.8125 39.890625 
Q 5.8125 47.609375 11.28125 51.796875 
Q 16.75 56 26.8125 56 
Q 31.78125 56 36.171875 55.265625 
Q 40.578125 54.546875 44.28125 53.078125 
z
" id="DejaVuSans-115"/>
     <path d="M 18.3125 70.21875 
L 18.3125 54.6875 
L 36.8125 54.6875 
L 36.8125 47.703125 
L 18.3125 47.703125 
L 18.3125 18.015625 
Q 18.3125 11.328125 20.140625 9.421875 
Q 21.96875 7.515625 27.59375 7.515625 
L 36.8125 7.515625 
L 36.8125 0 
L 27.59375 0 
Q 17.1875 0 13.234375 3.875 
Q 9.28125 7.765625 9.28125 18.015625 
L 9.28125 47.703125 
L 2.6875 47.703125 
L 2.6875 54.6875 
L 9.28125 54.6875 
L 9.28125 70.21875 
z
" id="DejaVuSans-116"/>
    </defs>
    <g transform="translate(212.180625 19.44)scale(0.12 -0.12)">
     <use xlink:href="#DejaVuSans-77"/>
     <use x="86.279297" xlink:href="#DejaVuSans-105"/>
     <use x="114.0625" xlink:href="#DejaVuSans-100"/>
     <use x="177.539062" xlink:href="#DejaVuSans-119"/>
     <use x="259.326172" xlink:href="#DejaVuSans-101"/>
     <use x="320.849609" xlink:href="#DejaVuSans-115"/>
     <use x="372.949219" xlink:href="#DejaVuSans-116"/>
    </g>
   </g>
  </g>
  <g id="axes_2">
   <g id="patch_7">
    <path d="M 454.58 282.97 
L 848.16 282.97 
L 848.16 25.44 
L 454.58 25.44 
z
" style="fill:#ffffff;"/>
   </g>
   <g id="PolyCollection_2">
    <defs>
     <path d="M 454.58 -610.296667 
L 454.58 -365.03 
L 460.928065 -365.03 
L 467.276129 -365.03 
L 473.624194 -365.03 
L 479.972258 -365.03 
L 486.320323 -365.03 
L 492.668387 -365.03 
L 499.016452 -365.03 
L 505.364516 -365.03 
L 511.712581 -365.03 
L 518.060645 -365.03 
L 524.40871 -365.03 
L 530.756774 -365.03 
L 537.104839 -365.03 
L 543.452903 -365.03 
L 549.800968 -365.03 
L 556.149032 -365.03 
L 562.497097 -365.03 
L 568.845161 -365.03 
L 575.193226 -365.03 
L 581.54129 -365.03 
L 587.889355 -365.03 
L 594.237419 -365.03 
L 600.585484 -365.03 
L 606.933548 -365.03 
L 613.281613 -365.03 
L 619.629677 -365.03 
L 625.977742 -365.03 
L 632.325806 -365.03 
L 638.673871 -365.03 
L 645.021935 -365.03 
L 651.37 -365.03 
L 657.718065 -365.03 
L 664.066129 -365.03 
L 670.414194 -365.03 
L 676.762258 -365.03 
L 683.110323 -365.03 
L 689.458387 -365.03 
L 695.806452 -365.03 
L 702.154516 -365.03 
L 708.502581 -365.03 
L 714.850645 -365.03 
L 721.19871 -365.03 
L 727.546774 -365.03 
L 733.894839 -365.03 
L 740.242903 -365.03 
L 746.590968 -365.03 
L 752.939032 -365.03 
L 759.287097 -365.03 
L 765.635161 -365.03 
L 771.983226 -365.03 
L 778.33129 -365.03 
L 784.679355 -365.03 
L 791.027419 -365.03 
L 797.375484 -365.03 
L 803.723548 -365.03 
L 810.071613 -365.03 
L 816.419677 -365.03 
L 822.767742 -365.03 
L 829.115806 -365.03 
L 835.463871 -365.03 
L 841.811935 -365.03 
L 848.16 -365.03 
L 848.16 -446.051442 
L 848.16 -446.051442 
L 841.811935 -447.126371 
L 835.463871 -448.158051 
L 829.115806 -448.981372 
L 822.767742 -450.217772 
L 816.419677 -451.521064 
L 810.071613 -452.838747 
L 803.723548 -453.987103 
L 797.375484 -454.815789 
L 791.027419 -455.925985 
L 784.679355 -457.264337 
L 778.33129 -458.50763 
L 771.983226 -460.036109 
L 765.635161 -462.076767 
L 759.287097 -463.801899 
L 752.939032 -465.259394 
L 746.590968 -466.235225 
L 740.242903 -467.806768 
L 733.894839 -469.58955 
L 727.546774 -471.512791 
L 721.19871 -473.921138 
L 714.850645 -475.60436 
L 708.502581 -478.187748 
L 702.154516 -479.602355 
L 695.806452 -481.736926 
L 689.458387 -484.810438 
L 683.110323 -486.629647 
L 676.762258 -490.013642 
L 670.414194 -492.642914 
L 664.066129 -494.631236 
L 657.718065 -497.334051 
L 651.37 -500.211445 
L 645.021935 -502.099915 
L 638.673871 -505.306991 
L 632.325806 -508.966401 
L 625.977742 -511.997384 
L 619.629677 -514.934612 
L 613.281613 -517.085006 
L 606.933548 -519.81416 
L 600.585484 -522.798236 
L 594.237419 -526.818793 
L 587.889355 -530.641736 
L 581.54129 -533.545649 
L 575.193226 -536.396216 
L 568.845161 -539.421103 
L 562.497097 -541.765935 
L 556.149032 -544.475229 
L 549.800968 -548.218096 
L 543.452903 -551.569448 
L 537.104839 -555.421724 
L 530.756774 -559.22266 
L 524.40871 -561.901489 
L 518.060645 -569.758718 
L 511.712581 -575.624372 
L 505.364516 -578.507483 
L 499.016452 -581.985593 
L 492.668387 -585.845881 
L 486.320323 -587.951918 
L 479.972258 -590.41028 
L 473.624194 -593.608097 
L 467.276129 -596.470777 
L 460.928065 -599.315306 
L 454.58 -610.296667 
z
" id="m3459995600" style="stroke:#ff7f0e;"/>
    </defs>
    <g clip-path="url(#pef8aa80810)">
     <use style="fill:#ff7f0e;stroke:#ff7f0e;" x="0" xlink:href="#m3459995600" y="648"/>
    </g>
   </g>
   <g id="matplotlib.axis_3">
    <g id="xtick_13">
     <g id="line2d_21">
      <g>
       <use style="stroke:#000000;stroke-width:0.8;" x="454.58" xlink:href="#ma4381d9753" y="282.97"/>
      </g>
     </g>
    </g>
    <g id="xtick_14">
     <g id="line2d_22">
      <g>
       <use style="stroke:#000000;stroke-width:0.8;" x="490.36" xlink:href="#ma4381d9753" y="282.97"/>
      </g>
     </g>
    </g>
    <g id="xtick_15">
     <g id="line2d_23">
      <g>
       <use style="stroke:#000000;stroke-width:0.8;" x="526.14" xlink:href="#ma4381d9753" y="282.97"/>
      </g>
     </g>
    </g>
    <g id="xtick_16">
     <g id="line2d_24">
      <g>
       <use style="stroke:#000000;stroke-width:0.8;" x="561.92" xlink:href="#ma4381d9753" y="282.97"/>
      </g>
     </g>
    </g>
    <g id="xtick_17">
     <g id="line2d_25">
      <g>
       <use style="stroke:#000000;stroke-width:0.8;" x="597.7" xlink:href="#ma4381d9753" y="282.97"/>
      </g>
     </g>
    </g>
    <g id="xtick_18">
     <g id="line2d_26">
      <g>
       <use style="stroke:#000000;stroke-width:0.8;" x="633.48" xlink:href="#ma4381d9753" y="282.97"/>
      </g>
     </g>
    </g>
    <g id="xtick_19">
     <g id="line2d_27">
      <g>
       <use style="stroke:#000000;stroke-width:0.8;" x="669.26" xlink:href="#ma4381d9753" y="282.97"/>
      </g>
     </g>
    </g>
    <g id="xtick_20">
     <g id="line2d_28">
      <g>
       <use style="stroke:#000000;stroke-width:0.8;" x="705.04" xlink:href="#ma4381d9753" y="282.97"/>
      </g>
     </g>
    </g>
    <g id="xtick_21">
     <g id="line2d_29">
      <g>
       <use style="stroke:#000000;stroke-width:0.8;" x="740.82" xlink:href="#ma4381d9753" y="282.97"/>
      </g>
     </g>
    </g>
    <g id="xtick_22">
     <g id="line2d_30">
      <g>
       <use style="stroke:#000000;stroke-width:0.8;" x="776.6" xlink:href="#ma4381d9753" y="282.97"/>
      </g>
     </g>
    </g>
    <g id="xtick_23">
     <g id="line2d_31">
      <g>
       <use style="stroke:#000000;stroke-width:0.8;" x="812.38" xlink:href="#ma4381d9753" y="282.97"/>
      </g>
     </g>
    </g>
    <g id="xtick_24">
     <g id="line2d_32">
      <g>
       <use style="stroke:#000000;stroke-width:0.8;" x="848.16" xlink:href="#ma4381d9753" y="282.97"/>
      </g>
     </g>
    </g>
   </g>
   <g id="matplotlib.axis_4">
    <g id="ytick_8">
     <g id="line2d_33">
      <g>
       <use style="stroke:#000000;stroke-width:0.8;" x="454.58" xlink:href="#m9f5e60b6cf" y="282.97"/>
      </g>
     </g>
    </g>
    <g id="ytick_9">
     <g id="line2d_34">
      <g>
       <use style="stroke:#000000;stroke-width:0.8;" x="454.58" xlink:href="#m9f5e60b6cf" y="244.027564"/>
      </g>
     </g>
    </g>
    <g id="ytick_10">
     <g id="line2d_35">
      <g>
       <use style="stroke:#000000;stroke-width:0.8;" x="454.58" xlink:href="#m9f5e60b6cf" y="205.085129"/>
      </g>
     </g>
    </g>
    <g id="ytick_11">
     <g id="line2d_36">
      <g>
       <use style="stroke:#000000;stroke-width:0.8;" x="454.58" xlink:href="#m9f5e60b6cf" y="166.142693"/>
      </g>
     </g>
    </g>
    <g id="ytick_12">
     <g id="line2d_37">
      <g>
       <use style="stroke:#000000;stroke-width:0.8;" x="454.58" xlink:href="#m9f5e60b6cf" y="127.200258"/>
      </g>
     </g>
    </g>
    <g id="ytick_13">
     <g id="line2d_38">
      <g>
       <use style="stroke:#000000;stroke-width:0.8;" x="454.58" xlink:href="#m9f5e60b6cf" y="88.257822"/>
      </g>
     </g>
    </g>
    <g id="ytick_14">
     <g id="line2d_39">
      <g>
       <use style="stroke:#000000;stroke-width:0.8;" x="454.58" xlink:href="#m9f5e60b6cf" y="49.315386"/>
      </g>
     </g>
    </g>
   </g>
   <g id="line2d_40">
    <path clip-path="url(#pef8aa80810)" d="M 454.58 37.703333 
L 460.928065 48.684694 
L 467.276129 51.529223 
L 473.624194 54.391903 
L 479.972258 57.58972 
L 486.320323 60.048082 
L 492.668387 62.154119 
L 499.016452 66.014407 
L 505.364516 69.492517 
L 511.712581 72.375628 
L 518.060645 78.241282 
L 524.40871 86.098511 
L 530.756774 88.77734 
L 537.104839 92.578276 
L 543.452903 96.430552 
L 549.800968 99.781904 
L 556.149032 103.524771 
L 562.497097 106.234065 
L 568.845161 108.578897 
L 575.193226 111.603784 
L 581.54129 114.454351 
L 587.889355 117.358264 
L 594.237419 121.181207 
L 600.585484 125.201764 
L 606.933548 128.18584 
L 613.281613 130.914994 
L 619.629677 133.065388 
L 625.977742 136.002616 
L 632.325806 139.033599 
L 638.673871 142.693009 
L 645.021935 145.900085 
L 651.37 147.788555 
L 657.718065 150.665949 
L 664.066129 153.368764 
L 670.414194 155.357086 
L 676.762258 157.986358 
L 683.110323 161.370353 
L 689.458387 163.189562 
L 695.806452 166.263074 
L 702.154516 168.397645 
L 708.502581 169.812252 
L 714.850645 172.39564 
L 721.19871 174.078862 
L 727.546774 176.487209 
L 733.894839 178.41045 
L 740.242903 180.193232 
L 746.590968 181.764775 
L 752.939032 182.740606 
L 759.287097 184.198101 
L 765.635161 185.923233 
L 771.983226 187.963891 
L 778.33129 189.49237 
L 784.679355 190.735663 
L 791.027419 192.074015 
L 797.375484 193.184211 
L 803.723548 194.012897 
L 810.071613 195.161253 
L 816.419677 196.478936 
L 822.767742 197.782228 
L 829.115806 199.018628 
L 835.463871 199.841949 
L 841.811935 200.873629 
L 848.16 201.948558 
" style="fill:none;stroke:#ff7f0e;stroke-linecap:square;stroke-width:1.5;"/>
   </g>
   <g id="patch_8">
    <path d="M 454.58 282.97 
L 454.58 25.44 
" style="fill:none;stroke:#000000;stroke-linecap:square;stroke-linejoin:miter;stroke-width:0.8;"/>
   </g>
   <g id="patch_9">
    <path d="M 848.16 282.97 
L 848.16 25.44 
" style="fill:none;stroke:#000000;stroke-linecap:square;stroke-linejoin:miter;stroke-width:0.8;"/>
   </g>
   <g id="patch_10">
    <path d="M 454.58 282.97 
L 848.16 282.97 
" style="fill:none;stroke:#000000;stroke-linecap:square;stroke-linejoin:miter;stroke-width:0.8;"/>
   </g>
   <g id="patch_11">
    <path d="M 454.58 25.44 
L 848.16 25.44 
" style="fill:none;stroke:#000000;stroke-linecap:square;stroke-linejoin:miter;stroke-width:0.8;"/>
   </g>
   <g id="text_9">
    <!-- Northeast -->
    <defs>
     <path d="M 9.8125 72.90625 
L 23.09375 72.90625 
L 55.421875 11.921875 
L 55.421875 72.90625 
L 64.984375 72.90625 
L 64.984375 0 
L 51.703125 0 
L 19.390625 60.984375 
L 19.390625 0 
L 9.8125 0 
z
" id="DejaVuSans-78"/>
     <path d="M 30.609375 48.390625 
Q 23.390625 48.390625 19.1875 42.75 
Q 14.984375 37.109375 14.984375 27.296875 
Q 14.984375 17.484375 19.15625 11.84375 
Q 23.34375 6.203125 30.609375 6.203125 
Q 37.796875 6.203125 41.984375 11.859375 
Q 46.1875 17.53125 46.1875 27.296875 
Q 46.1875 37.015625 41.984375 42.703125 
Q 37.796875 48.390625 30.609375 48.390625 
z
M 30.609375 56 
Q 42.328125 56 49.015625 48.375 
Q 55.71875 40.765625 55.71875 27.296875 
Q 55.71875 13.875 49.015625 6.21875 
Q 42.328125 -1.421875 30.609375 -1.421875 
Q 18.84375 -1.421875 12.171875 6.21875 
Q 5.515625 13.875 5.515625 27.296875 
Q 5.515625 40.765625 12.171875 48.375 
Q 18.84375 56 30.609375 56 
z
" id="DejaVuSans-111"/>
     <path d="M 41.109375 46.296875 
Q 39.59375 47.171875 37.8125 47.578125 
Q 36.03125 48 33.890625 48 
Q 26.265625 48 22.1875 43.046875 
Q 18.109375 38.09375 18.109375 28.8125 
L 18.109375 0 
L 9.078125 0 
L 9.078125 54.6875 
L 18.109375 54.6875 
L 18.109375 46.1875 
Q 20.953125 51.171875 25.484375 53.578125 
Q 30.03125 56 36.53125 56 
Q 37.453125 56 38.578125 55.875 
Q 39.703125 55.765625 41.0625 55.515625 
z
" id="DejaVuSans-114"/>
     <path d="M 54.890625 33.015625 
L 54.890625 0 
L 45.90625 0 
L 45.90625 32.71875 
Q 45.90625 40.484375 42.875 44.328125 
Q 39.84375 48.1875 33.796875 48.1875 
Q 26.515625 48.1875 22.3125 43.546875 
Q 18.109375 38.921875 18.109375 30.90625 
L 18.109375 0 
L 9.078125 0 
L 9.078125 75.984375 
L 18.109375 75.984375 
L 18.109375 46.1875 
Q 21.34375 51.125 25.703125 53.5625 
Q 30.078125 56 35.796875 56 
Q 45.21875 56 50.046875 50.171875 
Q 54.890625 44.34375 54.890625 33.015625 
z
" id="DejaVuSans-104"/>
     <path d="M 34.28125 27.484375 
Q 23.390625 27.484375 19.1875 25 
Q 14.984375 22.515625 14.984375 16.5 
Q 14.984375 11.71875 18.140625 8.90625 
Q 21.296875 6.109375 26.703125 6.109375 
Q 34.1875 6.109375 38.703125 11.40625 
Q 43.21875 16.703125 43.21875 25.484375 
L 43.21875 27.484375 
z
M 52.203125 31.203125 
L 52.203125 0 
L 43.21875 0 
L 43.21875 8.296875 
Q 40.140625 3.328125 35.546875 0.953125 
Q 30.953125 -1.421875 24.3125 -1.421875 
Q 15.921875 -1.421875 10.953125 3.296875 
Q 6 8.015625 6 15.921875 
Q 6 25.140625 12.171875 29.828125 
Q 18.359375 34.515625 30.609375 34.515625 
L 43.21875 34.515625 
L 43.21875 35.40625 
Q 43.21875 41.609375 39.140625 45 
Q 35.0625 48.390625 27.6875 48.390625 
Q 23 48.390625 18.546875 47.265625 
Q 14.109375 46.140625 10.015625 43.890625 
L 10.015625 52.203125 
Q 14.9375 54.109375 19.578125 55.046875 
Q 24.21875 56 28.609375 56 
Q 40.484375 56 46.34375 49.84375 
Q 52.203125 43.703125 52.203125 31.203125 
z
" id="DejaVuSans-97"/>
    </defs>
    <g transform="translate(621.742188 19.44)scale(0.12 -0.12)">
     <use xlink:href="#DejaVuSans-78"/>
     <use x="74.804688" xlink:href="#DejaVuSans-111"/>
     <use x="135.986328" xlink:href="#DejaVuSans-114"/>
     <use x="177.099609" xlink:href="#DejaVuSans-116"/>
     <use x="216.308594" xlink:href="#DejaVuSans-104"/>
     <use x="279.6875" xlink:href="#DejaVuSans-101"/>
     <use x="341.210938" xlink:href="#DejaVuSans-97"/>
     <use x="402.490234" xlink:href="#DejaVuSans-115"/>
     <use x="454.589844" xlink:href="#DejaVuSans-116"/>
    </g>
   </g>
  </g>
  <g id="axes_3">
   <g id="patch_12">
    <path d="M 40.12 572.06 
L 433.7 572.06 
L 433.7 314.53 
L 40.12 314.53 
z
" style="fill:#ffffff;"/>
   </g>
   <g id="PolyCollection_3">
    <defs>
     <path d="M 40.12 -159.201428 
L 40.12 -75.94 
L 46.468065 -75.94 
L 52.816129 -75.94 
L 59.164194 -75.94 
L 65.512258 -75.94 
L 71.860323 -75.94 
L 78.208387 -75.94 
L 84.556452 -75.94 
L 90.904516 -75.94 
L 97.252581 -75.94 
L 103.600645 -75.94 
L 109.94871 -75.94 
L 116.296774 -75.94 
L 122.644839 -75.94 
L 128.992903 -75.94 
L 135.340968 -75.94 
L 141.689032 -75.94 
L 148.037097 -75.94 
L 154.385161 -75.94 
L 160.733226 -75.94 
L 167.08129 -75.94 
L 173.429355 -75.94 
L 179.777419 -75.94 
L 186.125484 -75.94 
L 192.473548 -75.94 
L 198.821613 -75.94 
L 205.169677 -75.94 
L 211.517742 -75.94 
L 217.865806 -75.94 
L 224.213871 -75.94 
L 230.561935 -75.94 
L 236.91 -75.94 
L 243.258065 -75.94 
L 249.606129 -75.94 
L 255.954194 -75.94 
L 262.302258 -75.94 
L 268.650323 -75.94 
L 274.998387 -75.94 
L 281.346452 -75.94 
L 287.694516 -75.94 
L 294.042581 -75.94 
L 300.390645 -75.94 
L 306.73871 -75.94 
L 313.086774 -75.94 
L 319.434839 -75.94 
L 325.782903 -75.94 
L 332.130968 -75.94 
L 338.479032 -75.94 
L 344.827097 -75.94 
L 351.175161 -75.94 
L 357.523226 -75.94 
L 363.87129 -75.94 
L 370.219355 -75.94 
L 376.567419 -75.94 
L 382.915484 -75.94 
L 389.263548 -75.94 
L 395.611613 -75.94 
L 401.959677 -75.94 
L 408.307742 -75.94 
L 414.655806 -75.94 
L 421.003871 -75.94 
L 427.351935 -75.94 
L 433.7 -75.94 
L 433.7 -140.131109 
L 433.7 -140.131109 
L 427.351935 -139.107983 
L 421.003871 -138.795734 
L 414.655806 -137.89128 
L 408.307742 -137.643238 
L 401.959677 -137.33824 
L 395.611613 -136.52516 
L 389.263548 -135.711309 
L 382.915484 -134.912491 
L 376.567419 -134.258443 
L 370.219355 -133.786376 
L 363.87129 -133.408546 
L 357.523226 -133.275301 
L 351.175161 -133.19088 
L 344.827097 -133.000789 
L 338.479032 -133.163607 
L 332.130968 -132.749256 
L 325.782903 -133.288322 
L 319.434839 -133.296253 
L 313.086774 -133.174596 
L 306.73871 -133.465216 
L 300.390645 -133.824486 
L 294.042581 -133.819697 
L 287.694516 -134.241882 
L 281.346452 -134.014518 
L 274.998387 -133.987868 
L 268.650323 -134.14464 
L 262.302258 -134.773337 
L 255.954194 -134.544396 
L 249.606129 -135.932236 
L 243.258065 -136.237763 
L 236.91 -136.35349 
L 230.561935 -136.650757 
L 224.213871 -136.983614 
L 217.865806 -136.991941 
L 211.517742 -137.026881 
L 205.169677 -137.897345 
L 198.821613 -138.638043 
L 192.473548 -139.132758 
L 186.125484 -139.739387 
L 179.777419 -141.087849 
L 173.429355 -141.946236 
L 167.08129 -142.392171 
L 160.733226 -142.767596 
L 154.385161 -143.417463 
L 148.037097 -144.415831 
L 141.689032 -145.470897 
L 135.340968 -146.001546 
L 128.992903 -146.620499 
L 122.644839 -148.29022 
L 116.296774 -149.973496 
L 109.94871 -150.108253 
L 103.600645 -151.565748 
L 97.252581 -152.374036 
L 90.904516 -152.422834 
L 84.556452 -153.157894 
L 78.208387 -154.042352 
L 71.860323 -155.179184 
L 65.512258 -156.551119 
L 59.164194 -157.574808 
L 52.816129 -158.141276 
L 46.468065 -159.617775 
L 40.12 -159.201428 
z
" id="m57c9f41d21" style="stroke:#2ca02c;"/>
    </defs>
    <g clip-path="url(#p9a0c743082)">
     <use style="fill:#2ca02c;stroke:#2ca02c;" x="0" xlink:href="#m57c9f41d21" y="648"/>
    </g>
   </g>
   <g id="matplotlib.axis_5">
    <g id="xtick_25">
     <g id="line2d_41">
      <g>
       <use style="stroke:#000000;stroke-width:0.8;" x="40.12" xlink:href="#ma4381d9753" y="572.06"/>
      </g>
     </g>
     <g id="text_10">
      <!-- 2020-05-01 -->
      <defs>
       <path d="M 4.890625 31.390625 
L 31.203125 31.390625 
L 31.203125 23.390625 
L 4.890625 23.390625 
z
" id="DejaVuSans-45"/>
      </defs>
      <g transform="translate(42.879375 637.175625)rotate(-90)scale(0.1 -0.1)">
       <use xlink:href="#DejaVuSans-50"/>
       <use x="63.623047" xlink:href="#DejaVuSans-48"/>
       <use x="127.246094" xlink:href="#DejaVuSans-50"/>
       <use x="190.869141" xlink:href="#DejaVuSans-48"/>
       <use x="254.492188" xlink:href="#DejaVuSans-45"/>
       <use x="290.576172" xlink:href="#DejaVuSans-48"/>
       <use x="354.199219" xlink:href="#DejaVuSans-53"/>
       <use x="417.822266" xlink:href="#DejaVuSans-45"/>
       <use x="453.90625" xlink:href="#DejaVuSans-48"/>
       <use x="517.529297" xlink:href="#DejaVuSans-49"/>
      </g>
     </g>
    </g>
    <g id="xtick_26">
     <g id="line2d_42">
      <g>
       <use style="stroke:#000000;stroke-width:0.8;" x="75.9" xlink:href="#ma4381d9753" y="572.06"/>
      </g>
     </g>
     <g id="text_11">
      <!-- 2020-05-06 -->
      <defs>
       <path d="M 33.015625 40.375 
Q 26.375 40.375 22.484375 35.828125 
Q 18.609375 31.296875 18.609375 23.390625 
Q 18.609375 15.53125 22.484375 10.953125 
Q 26.375 6.390625 33.015625 6.390625 
Q 39.65625 6.390625 43.53125 10.953125 
Q 47.40625 15.53125 47.40625 23.390625 
Q 47.40625 31.296875 43.53125 35.828125 
Q 39.65625 40.375 33.015625 40.375 
z
M 52.59375 71.296875 
L 52.59375 62.3125 
Q 48.875 64.0625 45.09375 64.984375 
Q 41.3125 65.921875 37.59375 65.921875 
Q 27.828125 65.921875 22.671875 59.328125 
Q 17.53125 52.734375 16.796875 39.40625 
Q 19.671875 43.65625 24.015625 45.921875 
Q 28.375 48.1875 33.59375 48.1875 
Q 44.578125 48.1875 50.953125 41.515625 
Q 57.328125 34.859375 57.328125 23.390625 
Q 57.328125 12.15625 50.6875 5.359375 
Q 44.046875 -1.421875 33.015625 -1.421875 
Q 20.359375 -1.421875 13.671875 8.265625 
Q 6.984375 17.96875 6.984375 36.375 
Q 6.984375 53.65625 15.1875 63.9375 
Q 23.390625 74.21875 37.203125 74.21875 
Q 40.921875 74.21875 44.703125 73.484375 
Q 48.484375 72.75 52.59375 71.296875 
z
" id="DejaVuSans-54"/>
      </defs>
      <g transform="translate(78.659375 637.175625)rotate(-90)scale(0.1 -0.1)">
       <use xlink:href="#DejaVuSans-50"/>
       <use x="63.623047" xlink:href="#DejaVuSans-48"/>
       <use x="127.246094" xlink:href="#DejaVuSans-50"/>
       <use x="190.869141" xlink:href="#DejaVuSans-48"/>
       <use x="254.492188" xlink:href="#DejaVuSans-45"/>
       <use x="290.576172" xlink:href="#DejaVuSans-48"/>
       <use x="354.199219" xlink:href="#DejaVuSans-53"/>
       <use x="417.822266" xlink:href="#DejaVuSans-45"/>
       <use x="453.90625" xlink:href="#DejaVuSans-48"/>
       <use x="517.529297" xlink:href="#DejaVuSans-54"/>
      </g>
     </g>
    </g>
    <g id="xtick_27">
     <g id="line2d_43">
      <g>
       <use style="stroke:#000000;stroke-width:0.8;" x="111.68" xlink:href="#ma4381d9753" y="572.06"/>
      </g>
     </g>
     <g id="text_12">
      <!-- 2020-05-12 -->
      <g transform="translate(114.439375 637.175625)rotate(-90)scale(0.1 -0.1)">
       <use xlink:href="#DejaVuSans-50"/>
       <use x="63.623047" xlink:href="#DejaVuSans-48"/>
       <use x="127.246094" xlink:href="#DejaVuSans-50"/>
       <use x="190.869141" xlink:href="#DejaVuSans-48"/>
       <use x="254.492188" xlink:href="#DejaVuSans-45"/>
       <use x="290.576172" xlink:href="#DejaVuSans-48"/>
       <use x="354.199219" xlink:href="#DejaVuSans-53"/>
       <use x="417.822266" xlink:href="#DejaVuSans-45"/>
       <use x="453.90625" xlink:href="#DejaVuSans-49"/>
       <use x="517.529297" xlink:href="#DejaVuSans-50"/>
      </g>
     </g>
    </g>
    <g id="xtick_28">
     <g id="line2d_44">
      <g>
       <use style="stroke:#000000;stroke-width:0.8;" x="147.46" xlink:href="#ma4381d9753" y="572.06"/>
      </g>
     </g>
     <g id="text_13">
      <!-- 2020-05-17 -->
      <defs>
       <path d="M 8.203125 72.90625 
L 55.078125 72.90625 
L 55.078125 68.703125 
L 28.609375 0 
L 18.3125 0 
L 43.21875 64.59375 
L 8.203125 64.59375 
z
" id="DejaVuSans-55"/>
      </defs>
      <g transform="translate(150.219375 637.175625)rotate(-90)scale(0.1 -0.1)">
       <use xlink:href="#DejaVuSans-50"/>
       <use x="63.623047" xlink:href="#DejaVuSans-48"/>
       <use x="127.246094" xlink:href="#DejaVuSans-50"/>
       <use x="190.869141" xlink:href="#DejaVuSans-48"/>
       <use x="254.492188" xlink:href="#DejaVuSans-45"/>
       <use x="290.576172" xlink:href="#DejaVuSans-48"/>
       <use x="354.199219" xlink:href="#DejaVuSans-53"/>
       <use x="417.822266" xlink:href="#DejaVuSans-45"/>
       <use x="453.90625" xlink:href="#DejaVuSans-49"/>
       <use x="517.529297" xlink:href="#DejaVuSans-55"/>
      </g>
     </g>
    </g>
    <g id="xtick_29">
     <g id="line2d_45">
      <g>
       <use style="stroke:#000000;stroke-width:0.8;" x="183.24" xlink:href="#ma4381d9753" y="572.06"/>
      </g>
     </g>
     <g id="text_14">
      <!-- 2020-05-23 -->
      <g transform="translate(185.999375 637.175625)rotate(-90)scale(0.1 -0.1)">
       <use xlink:href="#DejaVuSans-50"/>
       <use x="63.623047" xlink:href="#DejaVuSans-48"/>
       <use x="127.246094" xlink:href="#DejaVuSans-50"/>
       <use x="190.869141" xlink:href="#DejaVuSans-48"/>
       <use x="254.492188" xlink:href="#DejaVuSans-45"/>
       <use x="290.576172" xlink:href="#DejaVuSans-48"/>
       <use x="354.199219" xlink:href="#DejaVuSans-53"/>
       <use x="417.822266" xlink:href="#DejaVuSans-45"/>
       <use x="453.90625" xlink:href="#DejaVuSans-50"/>
       <use x="517.529297" xlink:href="#DejaVuSans-51"/>
      </g>
     </g>
    </g>
    <g id="xtick_30">
     <g id="line2d_46">
      <g>
       <use style="stroke:#000000;stroke-width:0.8;" x="219.02" xlink:href="#ma4381d9753" y="572.06"/>
      </g>
     </g>
     <g id="text_15">
      <!-- 2020-05-29 -->
      <defs>
       <path d="M 10.984375 1.515625 
L 10.984375 10.5 
Q 14.703125 8.734375 18.5 7.8125 
Q 22.3125 6.890625 25.984375 6.890625 
Q 35.75 6.890625 40.890625 13.453125 
Q 46.046875 20.015625 46.78125 33.40625 
Q 43.953125 29.203125 39.59375 26.953125 
Q 35.25 24.703125 29.984375 24.703125 
Q 19.046875 24.703125 12.671875 31.3125 
Q 6.296875 37.9375 6.296875 49.421875 
Q 6.296875 60.640625 12.9375 67.421875 
Q 19.578125 74.21875 30.609375 74.21875 
Q 43.265625 74.21875 49.921875 64.515625 
Q 56.59375 54.828125 56.59375 36.375 
Q 56.59375 19.140625 48.40625 8.859375 
Q 40.234375 -1.421875 26.421875 -1.421875 
Q 22.703125 -1.421875 18.890625 -0.6875 
Q 15.09375 0.046875 10.984375 1.515625 
z
M 30.609375 32.421875 
Q 37.25 32.421875 41.125 36.953125 
Q 45.015625 41.5 45.015625 49.421875 
Q 45.015625 57.28125 41.125 61.84375 
Q 37.25 66.40625 30.609375 66.40625 
Q 23.96875 66.40625 20.09375 61.84375 
Q 16.21875 57.28125 16.21875 49.421875 
Q 16.21875 41.5 20.09375 36.953125 
Q 23.96875 32.421875 30.609375 32.421875 
z
" id="DejaVuSans-57"/>
      </defs>
      <g transform="translate(221.779375 637.175625)rotate(-90)scale(0.1 -0.1)">
       <use xlink:href="#DejaVuSans-50"/>
       <use x="63.623047" xlink:href="#DejaVuSans-48"/>
       <use x="127.246094" xlink:href="#DejaVuSans-50"/>
       <use x="190.869141" xlink:href="#DejaVuSans-48"/>
       <use x="254.492188" xlink:href="#DejaVuSans-45"/>
       <use x="290.576172" xlink:href="#DejaVuSans-48"/>
       <use x="354.199219" xlink:href="#DejaVuSans-53"/>
       <use x="417.822266" xlink:href="#DejaVuSans-45"/>
       <use x="453.90625" xlink:href="#DejaVuSans-50"/>
       <use x="517.529297" xlink:href="#DejaVuSans-57"/>
      </g>
     </g>
    </g>
    <g id="xtick_31">
     <g id="line2d_47">
      <g>
       <use style="stroke:#000000;stroke-width:0.8;" x="254.8" xlink:href="#ma4381d9753" y="572.06"/>
      </g>
     </g>
     <g id="text_16">
      <!-- 2020-06-03 -->
      <g transform="translate(257.559375 637.175625)rotate(-90)scale(0.1 -0.1)">
       <use xlink:href="#DejaVuSans-50"/>
       <use x="63.623047" xlink:href="#DejaVuSans-48"/>
       <use x="127.246094" xlink:href="#DejaVuSans-50"/>
       <use x="190.869141" xlink:href="#DejaVuSans-48"/>
       <use x="254.492188" xlink:href="#DejaVuSans-45"/>
       <use x="290.576172" xlink:href="#DejaVuSans-48"/>
       <use x="354.199219" xlink:href="#DejaVuSans-54"/>
       <use x="417.822266" xlink:href="#DejaVuSans-45"/>
       <use x="453.90625" xlink:href="#DejaVuSans-48"/>
       <use x="517.529297" xlink:href="#DejaVuSans-51"/>
      </g>
     </g>
    </g>
    <g id="xtick_32">
     <g id="line2d_48">
      <g>
       <use style="stroke:#000000;stroke-width:0.8;" x="290.58" xlink:href="#ma4381d9753" y="572.06"/>
      </g>
     </g>
     <g id="text_17">
      <!-- 2020-06-09 -->
      <g transform="translate(293.339375 637.175625)rotate(-90)scale(0.1 -0.1)">
       <use xlink:href="#DejaVuSans-50"/>
       <use x="63.623047" xlink:href="#DejaVuSans-48"/>
       <use x="127.246094" xlink:href="#DejaVuSans-50"/>
       <use x="190.869141" xlink:href="#DejaVuSans-48"/>
       <use x="254.492188" xlink:href="#DejaVuSans-45"/>
       <use x="290.576172" xlink:href="#DejaVuSans-48"/>
       <use x="354.199219" xlink:href="#DejaVuSans-54"/>
       <use x="417.822266" xlink:href="#DejaVuSans-45"/>
       <use x="453.90625" xlink:href="#DejaVuSans-48"/>
       <use x="517.529297" xlink:href="#DejaVuSans-57"/>
      </g>
     </g>
    </g>
    <g id="xtick_33">
     <g id="line2d_49">
      <g>
       <use style="stroke:#000000;stroke-width:0.8;" x="326.36" xlink:href="#ma4381d9753" y="572.06"/>
      </g>
     </g>
     <g id="text_18">
      <!-- 2020-06-15 -->
      <g transform="translate(329.119375 637.175625)rotate(-90)scale(0.1 -0.1)">
       <use xlink:href="#DejaVuSans-50"/>
       <use x="63.623047" xlink:href="#DejaVuSans-48"/>
       <use x="127.246094" xlink:href="#DejaVuSans-50"/>
       <use x="190.869141" xlink:href="#DejaVuSans-48"/>
       <use x="254.492188" xlink:href="#DejaVuSans-45"/>
       <use x="290.576172" xlink:href="#DejaVuSans-48"/>
       <use x="354.199219" xlink:href="#DejaVuSans-54"/>
       <use x="417.822266" xlink:href="#DejaVuSans-45"/>
       <use x="453.90625" xlink:href="#DejaVuSans-49"/>
       <use x="517.529297" xlink:href="#DejaVuSans-53"/>
      </g>
     </g>
    </g>
    <g id="xtick_34">
     <g id="line2d_50">
      <g>
       <use style="stroke:#000000;stroke-width:0.8;" x="362.14" xlink:href="#ma4381d9753" y="572.06"/>
      </g>
     </g>
     <g id="text_19">
      <!-- 2020-06-20 -->
      <g transform="translate(364.899375 637.175625)rotate(-90)scale(0.1 -0.1)">
       <use xlink:href="#DejaVuSans-50"/>
       <use x="63.623047" xlink:href="#DejaVuSans-48"/>
       <use x="127.246094" xlink:href="#DejaVuSans-50"/>
       <use x="190.869141" xlink:href="#DejaVuSans-48"/>
       <use x="254.492188" xlink:href="#DejaVuSans-45"/>
       <use x="290.576172" xlink:href="#DejaVuSans-48"/>
       <use x="354.199219" xlink:href="#DejaVuSans-54"/>
       <use x="417.822266" xlink:href="#DejaVuSans-45"/>
       <use x="453.90625" xlink:href="#DejaVuSans-50"/>
       <use x="517.529297" xlink:href="#DejaVuSans-48"/>
      </g>
     </g>
    </g>
    <g id="xtick_35">
     <g id="line2d_51">
      <g>
       <use style="stroke:#000000;stroke-width:0.8;" x="397.92" xlink:href="#ma4381d9753" y="572.06"/>
      </g>
     </g>
     <g id="text_20">
      <!-- 2020-06-26 -->
      <g transform="translate(400.679375 637.175625)rotate(-90)scale(0.1 -0.1)">
       <use xlink:href="#DejaVuSans-50"/>
       <use x="63.623047" xlink:href="#DejaVuSans-48"/>
       <use x="127.246094" xlink:href="#DejaVuSans-50"/>
       <use x="190.869141" xlink:href="#DejaVuSans-48"/>
       <use x="254.492188" xlink:href="#DejaVuSans-45"/>
       <use x="290.576172" xlink:href="#DejaVuSans-48"/>
       <use x="354.199219" xlink:href="#DejaVuSans-54"/>
       <use x="417.822266" xlink:href="#DejaVuSans-45"/>
       <use x="453.90625" xlink:href="#DejaVuSans-50"/>
       <use x="517.529297" xlink:href="#DejaVuSans-54"/>
      </g>
     </g>
    </g>
    <g id="xtick_36">
     <g id="line2d_52">
      <g>
       <use style="stroke:#000000;stroke-width:0.8;" x="433.7" xlink:href="#ma4381d9753" y="572.06"/>
      </g>
     </g>
     <g id="text_21">
      <!-- 2020-07-02 -->
      <g transform="translate(436.459375 637.175625)rotate(-90)scale(0.1 -0.1)">
       <use xlink:href="#DejaVuSans-50"/>
       <use x="63.623047" xlink:href="#DejaVuSans-48"/>
       <use x="127.246094" xlink:href="#DejaVuSans-50"/>
       <use x="190.869141" xlink:href="#DejaVuSans-48"/>
       <use x="254.492188" xlink:href="#DejaVuSans-45"/>
       <use x="290.576172" xlink:href="#DejaVuSans-48"/>
       <use x="354.199219" xlink:href="#DejaVuSans-55"/>
       <use x="417.822266" xlink:href="#DejaVuSans-45"/>
       <use x="453.90625" xlink:href="#DejaVuSans-48"/>
       <use x="517.529297" xlink:href="#DejaVuSans-50"/>
      </g>
     </g>
    </g>
   </g>
   <g id="matplotlib.axis_6">
    <g id="ytick_15">
     <g id="line2d_53">
      <g>
       <use style="stroke:#000000;stroke-width:0.8;" x="40.12" xlink:href="#m9f5e60b6cf" y="572.06"/>
      </g>
     </g>
     <g id="text_22">
      <!-- 0.00 -->
      <g transform="translate(10.854375 575.859219)scale(0.1 -0.1)">
       <use xlink:href="#DejaVuSans-48"/>
       <use x="63.623047" xlink:href="#DejaVuSans-46"/>
       <use x="95.410156" xlink:href="#DejaVuSans-48"/>
       <use x="159.033203" xlink:href="#DejaVuSans-48"/>
      </g>
     </g>
    </g>
    <g id="ytick_16">
     <g id="line2d_54">
      <g>
       <use style="stroke:#000000;stroke-width:0.8;" x="40.12" xlink:href="#m9f5e60b6cf" y="533.117564"/>
      </g>
     </g>
     <g id="text_23">
      <!-- 0.05 -->
      <g transform="translate(10.854375 536.916783)scale(0.1 -0.1)">
       <use xlink:href="#DejaVuSans-48"/>
       <use x="63.623047" xlink:href="#DejaVuSans-46"/>
       <use x="95.410156" xlink:href="#DejaVuSans-48"/>
       <use x="159.033203" xlink:href="#DejaVuSans-53"/>
      </g>
     </g>
    </g>
    <g id="ytick_17">
     <g id="line2d_55">
      <g>
       <use style="stroke:#000000;stroke-width:0.8;" x="40.12" xlink:href="#m9f5e60b6cf" y="494.175129"/>
      </g>
     </g>
     <g id="text_24">
      <!-- 0.10 -->
      <g transform="translate(10.854375 497.974348)scale(0.1 -0.1)">
       <use xlink:href="#DejaVuSans-48"/>
       <use x="63.623047" xlink:href="#DejaVuSans-46"/>
       <use x="95.410156" xlink:href="#DejaVuSans-49"/>
       <use x="159.033203" xlink:href="#DejaVuSans-48"/>
      </g>
     </g>
    </g>
    <g id="ytick_18">
     <g id="line2d_56">
      <g>
       <use style="stroke:#000000;stroke-width:0.8;" x="40.12" xlink:href="#m9f5e60b6cf" y="455.232693"/>
      </g>
     </g>
     <g id="text_25">
      <!-- 0.15 -->
      <g transform="translate(10.854375 459.031912)scale(0.1 -0.1)">
       <use xlink:href="#DejaVuSans-48"/>
       <use x="63.623047" xlink:href="#DejaVuSans-46"/>
       <use x="95.410156" xlink:href="#DejaVuSans-49"/>
       <use x="159.033203" xlink:href="#DejaVuSans-53"/>
      </g>
     </g>
    </g>
    <g id="ytick_19">
     <g id="line2d_57">
      <g>
       <use style="stroke:#000000;stroke-width:0.8;" x="40.12" xlink:href="#m9f5e60b6cf" y="416.290258"/>
      </g>
     </g>
     <g id="text_26">
      <!-- 0.20 -->
      <g transform="translate(10.854375 420.089476)scale(0.1 -0.1)">
       <use xlink:href="#DejaVuSans-48"/>
       <use x="63.623047" xlink:href="#DejaVuSans-46"/>
       <use x="95.410156" xlink:href="#DejaVuSans-50"/>
       <use x="159.033203" xlink:href="#DejaVuSans-48"/>
      </g>
     </g>
    </g>
    <g id="ytick_20">
     <g id="line2d_58">
      <g>
       <use style="stroke:#000000;stroke-width:0.8;" x="40.12" xlink:href="#m9f5e60b6cf" y="377.347822"/>
      </g>
     </g>
     <g id="text_27">
      <!-- 0.25 -->
      <g transform="translate(10.854375 381.147041)scale(0.1 -0.1)">
       <use xlink:href="#DejaVuSans-48"/>
       <use x="63.623047" xlink:href="#DejaVuSans-46"/>
       <use x="95.410156" xlink:href="#DejaVuSans-50"/>
       <use x="159.033203" xlink:href="#DejaVuSans-53"/>
      </g>
     </g>
    </g>
    <g id="ytick_21">
     <g id="line2d_59">
      <g>
       <use style="stroke:#000000;stroke-width:0.8;" x="40.12" xlink:href="#m9f5e60b6cf" y="338.405386"/>
      </g>
     </g>
     <g id="text_28">
      <!-- 0.30 -->
      <g transform="translate(10.854375 342.204605)scale(0.1 -0.1)">
       <use xlink:href="#DejaVuSans-48"/>
       <use x="63.623047" xlink:href="#DejaVuSans-46"/>
       <use x="95.410156" xlink:href="#DejaVuSans-51"/>
       <use x="159.033203" xlink:href="#DejaVuSans-48"/>
      </g>
     </g>
    </g>
   </g>
   <g id="line2d_60">
    <path clip-path="url(#p9a0c743082)" d="M 40.12 488.798572 
L 46.468065 488.382225 
L 52.816129 489.858724 
L 59.164194 490.425192 
L 65.512258 491.448881 
L 71.860323 492.820816 
L 78.208387 493.957648 
L 84.556452 494.842106 
L 90.904516 495.577166 
L 97.252581 495.625964 
L 103.600645 496.434252 
L 109.94871 497.891747 
L 116.296774 498.026504 
L 122.644839 499.70978 
L 128.992903 501.379501 
L 135.340968 501.998454 
L 141.689032 502.529103 
L 148.037097 503.584169 
L 154.385161 504.582537 
L 160.733226 505.232404 
L 167.08129 505.607829 
L 173.429355 506.053764 
L 179.777419 506.912151 
L 186.125484 508.260613 
L 192.473548 508.867242 
L 198.821613 509.361957 
L 205.169677 510.102655 
L 211.517742 510.973119 
L 217.865806 511.008059 
L 224.213871 511.016386 
L 230.561935 511.349243 
L 236.91 511.64651 
L 243.258065 511.762237 
L 249.606129 512.067764 
L 255.954194 513.455604 
L 262.302258 513.226663 
L 268.650323 513.85536 
L 274.998387 514.012132 
L 281.346452 513.985482 
L 287.694516 513.758118 
L 294.042581 514.180303 
L 300.390645 514.175514 
L 306.73871 514.534784 
L 313.086774 514.825404 
L 319.434839 514.703747 
L 325.782903 514.711678 
L 332.130968 515.250744 
L 338.479032 514.836393 
L 344.827097 514.999211 
L 351.175161 514.80912 
L 357.523226 514.724699 
L 363.87129 514.591454 
L 370.219355 514.213624 
L 376.567419 513.741557 
L 382.915484 513.087509 
L 389.263548 512.288691 
L 395.611613 511.47484 
L 401.959677 510.66176 
L 408.307742 510.356762 
L 414.655806 510.10872 
L 421.003871 509.204266 
L 427.351935 508.892017 
L 433.7 507.868891 
" style="fill:none;stroke:#2ca02c;stroke-linecap:square;stroke-width:1.5;"/>
   </g>
   <g id="patch_13">
    <path d="M 40.12 572.06 
L 40.12 314.53 
" style="fill:none;stroke:#000000;stroke-linecap:square;stroke-linejoin:miter;stroke-width:0.8;"/>
   </g>
   <g id="patch_14">
    <path d="M 433.7 572.06 
L 433.7 314.53 
" style="fill:none;stroke:#000000;stroke-linecap:square;stroke-linejoin:miter;stroke-width:0.8;"/>
   </g>
   <g id="patch_15">
    <path d="M 40.12 572.06 
L 433.7 572.06 
" style="fill:none;stroke:#000000;stroke-linecap:square;stroke-linejoin:miter;stroke-width:0.8;"/>
   </g>
   <g id="patch_16">
    <path d="M 40.12 314.53 
L 433.7 314.53 
" style="fill:none;stroke:#000000;stroke-linecap:square;stroke-linejoin:miter;stroke-width:0.8;"/>
   </g>
   <g id="text_29">
    <!-- South -->
    <defs>
     <path d="M 53.515625 70.515625 
L 53.515625 60.890625 
Q 47.90625 63.578125 42.921875 64.890625 
Q 37.9375 66.21875 33.296875 66.21875 
Q 25.25 66.21875 20.875 63.09375 
Q 16.5 59.96875 16.5 54.203125 
Q 16.5 49.359375 19.40625 46.890625 
Q 22.3125 44.4375 30.421875 42.921875 
L 36.375 41.703125 
Q 47.40625 39.59375 52.65625 34.296875 
Q 57.90625 29 57.90625 20.125 
Q 57.90625 9.515625 50.796875 4.046875 
Q 43.703125 -1.421875 29.984375 -1.421875 
Q 24.8125 -1.421875 18.96875 -0.25 
Q 13.140625 0.921875 6.890625 3.21875 
L 6.890625 13.375 
Q 12.890625 10.015625 18.65625 8.296875 
Q 24.421875 6.59375 29.984375 6.59375 
Q 38.421875 6.59375 43.015625 9.90625 
Q 47.609375 13.234375 47.609375 19.390625 
Q 47.609375 24.75 44.3125 27.78125 
Q 41.015625 30.8125 33.5 32.328125 
L 27.484375 33.5 
Q 16.453125 35.6875 11.515625 40.375 
Q 6.59375 45.0625 6.59375 53.421875 
Q 6.59375 63.09375 13.40625 68.65625 
Q 20.21875 74.21875 32.171875 74.21875 
Q 37.3125 74.21875 42.625 73.28125 
Q 47.953125 72.359375 53.515625 70.515625 
z
" id="DejaVuSans-83"/>
     <path d="M 8.5 21.578125 
L 8.5 54.6875 
L 17.484375 54.6875 
L 17.484375 21.921875 
Q 17.484375 14.15625 20.5 10.265625 
Q 23.53125 6.390625 29.59375 6.390625 
Q 36.859375 6.390625 41.078125 11.03125 
Q 45.3125 15.671875 45.3125 23.6875 
L 45.3125 54.6875 
L 54.296875 54.6875 
L 54.296875 0 
L 45.3125 0 
L 45.3125 8.40625 
Q 42.046875 3.421875 37.71875 1 
Q 33.40625 -1.421875 27.6875 -1.421875 
Q 18.265625 -1.421875 13.375 4.4375 
Q 8.5 10.296875 8.5 21.578125 
z
M 31.109375 56 
z
" id="DejaVuSans-117"/>
    </defs>
    <g transform="translate(219.4725 308.53)scale(0.12 -0.12)">
     <use xlink:href="#DejaVuSans-83"/>
     <use x="63.476562" xlink:href="#DejaVuSans-111"/>
     <use x="124.658203" xlink:href="#DejaVuSans-117"/>
     <use x="188.037109" xlink:href="#DejaVuSans-116"/>
     <use x="227.246094" xlink:href="#DejaVuSans-104"/>
    </g>
   </g>
  </g>
  <g id="axes_4">
   <g id="patch_17">
    <path d="M 454.58 572.06 
L 848.16 572.06 
L 848.16 314.53 
L 454.58 314.53 
z
" style="fill:#ffffff;"/>
   </g>
   <g id="PolyCollection_4">
    <defs>
     <path d="M 454.58 -137.487995 
L 454.58 -75.94 
L 460.928065 -75.94 
L 467.276129 -75.94 
L 473.624194 -75.94 
L 479.972258 -75.94 
L 486.320323 -75.94 
L 492.668387 -75.94 
L 499.016452 -75.94 
L 505.364516 -75.94 
L 511.712581 -75.94 
L 518.060645 -75.94 
L 524.40871 -75.94 
L 530.756774 -75.94 
L 537.104839 -75.94 
L 543.452903 -75.94 
L 549.800968 -75.94 
L 556.149032 -75.94 
L 562.497097 -75.94 
L 568.845161 -75.94 
L 575.193226 -75.94 
L 581.54129 -75.94 
L 587.889355 -75.94 
L 594.237419 -75.94 
L 600.585484 -75.94 
L 606.933548 -75.94 
L 613.281613 -75.94 
L 619.629677 -75.94 
L 625.977742 -75.94 
L 632.325806 -75.94 
L 638.673871 -75.94 
L 645.021935 -75.94 
L 651.37 -75.94 
L 657.718065 -75.94 
L 664.066129 -75.94 
L 670.414194 -75.94 
L 676.762258 -75.94 
L 683.110323 -75.94 
L 689.458387 -75.94 
L 695.806452 -75.94 
L 702.154516 -75.94 
L 708.502581 -75.94 
L 714.850645 -75.94 
L 721.19871 -75.94 
L 727.546774 -75.94 
L 733.894839 -75.94 
L 740.242903 -75.94 
L 746.590968 -75.94 
L 752.939032 -75.94 
L 759.287097 -75.94 
L 765.635161 -75.94 
L 771.983226 -75.94 
L 778.33129 -75.94 
L 784.679355 -75.94 
L 791.027419 -75.94 
L 797.375484 -75.94 
L 803.723548 -75.94 
L 810.071613 -75.94 
L 816.419677 -75.94 
L 822.767742 -75.94 
L 829.115806 -75.94 
L 835.463871 -75.94 
L 841.811935 -75.94 
L 848.16 -75.94 
L 848.16 -123.163463 
L 848.16 -123.163463 
L 841.811935 -122.457119 
L 835.463871 -122.185751 
L 829.115806 -121.954471 
L 822.767742 -121.664642 
L 816.419677 -121.366112 
L 810.071613 -120.949421 
L 803.723548 -120.768903 
L 797.375484 -120.36036 
L 791.027419 -120.105169 
L 784.679355 -119.962591 
L 778.33129 -119.690069 
L 771.983226 -119.317499 
L 765.635161 -118.966416 
L 759.287097 -118.749928 
L 752.939032 -118.539189 
L 746.590968 -118.554282 
L 740.242903 -118.734384 
L 733.894839 -118.955512 
L 727.546774 -118.888959 
L 721.19871 -119.041437 
L 714.850645 -119.070534 
L 708.502581 -119.077869 
L 702.154516 -119.259122 
L 695.806452 -119.451473 
L 689.458387 -119.534872 
L 683.110323 -119.60172 
L 676.762258 -119.616742 
L 670.414194 -119.813507 
L 664.066129 -120.037268 
L 657.718065 -120.2631 
L 651.37 -120.631029 
L 645.021935 -120.808348 
L 638.673871 -120.86624 
L 632.325806 -120.98673 
L 625.977742 -121.117684 
L 619.629677 -121.205877 
L 613.281613 -121.522815 
L 606.933548 -122.141718 
L 600.585484 -123.696348 
L 594.237419 -123.482667 
L 587.889355 -123.928756 
L 581.54129 -124.300492 
L 575.193226 -124.525735 
L 568.845161 -125.522692 
L 562.497097 -126.446843 
L 556.149032 -127.021783 
L 549.800968 -127.729586 
L 543.452903 -128.0417 
L 537.104839 -129.393507 
L 530.756774 -129.089362 
L 524.40871 -130.159234 
L 518.060645 -131.099769 
L 511.712581 -131.982085 
L 505.364516 -132.771089 
L 499.016452 -133.208051 
L 492.668387 -133.907943 
L 486.320323 -134.266034 
L 479.972258 -134.861659 
L 473.624194 -135.568145 
L 467.276129 -136.083209 
L 460.928065 -136.750187 
L 454.58 -137.487995 
z
" id="mb66cc503c2" style="stroke:#d62728;"/>
    </defs>
    <g clip-path="url(#p65fa631819)">
     <use style="fill:#d62728;stroke:#d62728;" x="0" xlink:href="#mb66cc503c2" y="648"/>
    </g>
   </g>
   <g id="matplotlib.axis_7">
    <g id="xtick_37">
     <g id="line2d_61">
      <g>
       <use style="stroke:#000000;stroke-width:0.8;" x="454.58" xlink:href="#ma4381d9753" y="572.06"/>
      </g>
     </g>
     <g id="text_30">
      <!-- 2020-05-01 -->
      <g transform="translate(457.339375 637.175625)rotate(-90)scale(0.1 -0.1)">
       <use xlink:href="#DejaVuSans-50"/>
       <use x="63.623047" xlink:href="#DejaVuSans-48"/>
       <use x="127.246094" xlink:href="#DejaVuSans-50"/>
       <use x="190.869141" xlink:href="#DejaVuSans-48"/>
       <use x="254.492188" xlink:href="#DejaVuSans-45"/>
       <use x="290.576172" xlink:href="#DejaVuSans-48"/>
       <use x="354.199219" xlink:href="#DejaVuSans-53"/>
       <use x="417.822266" xlink:href="#DejaVuSans-45"/>
       <use x="453.90625" xlink:href="#DejaVuSans-48"/>
       <use x="517.529297" xlink:href="#DejaVuSans-49"/>
      </g>
     </g>
    </g>
    <g id="xtick_38">
     <g id="line2d_62">
      <g>
       <use style="stroke:#000000;stroke-width:0.8;" x="490.36" xlink:href="#ma4381d9753" y="572.06"/>
      </g>
     </g>
     <g id="text_31">
      <!-- 2020-05-06 -->
      <g transform="translate(493.119375 637.175625)rotate(-90)scale(0.1 -0.1)">
       <use xlink:href="#DejaVuSans-50"/>
       <use x="63.623047" xlink:href="#DejaVuSans-48"/>
       <use x="127.246094" xlink:href="#DejaVuSans-50"/>
       <use x="190.869141" xlink:href="#DejaVuSans-48"/>
       <use x="254.492188" xlink:href="#DejaVuSans-45"/>
       <use x="290.576172" xlink:href="#DejaVuSans-48"/>
       <use x="354.199219" xlink:href="#DejaVuSans-53"/>
       <use x="417.822266" xlink:href="#DejaVuSans-45"/>
       <use x="453.90625" xlink:href="#DejaVuSans-48"/>
       <use x="517.529297" xlink:href="#DejaVuSans-54"/>
      </g>
     </g>
    </g>
    <g id="xtick_39">
     <g id="line2d_63">
      <g>
       <use style="stroke:#000000;stroke-width:0.8;" x="526.14" xlink:href="#ma4381d9753" y="572.06"/>
      </g>
     </g>
     <g id="text_32">
      <!-- 2020-05-12 -->
      <g transform="translate(528.899375 637.175625)rotate(-90)scale(0.1 -0.1)">
       <use xlink:href="#DejaVuSans-50"/>
       <use x="63.623047" xlink:href="#DejaVuSans-48"/>
       <use x="127.246094" xlink:href="#DejaVuSans-50"/>
       <use x="190.869141" xlink:href="#DejaVuSans-48"/>
       <use x="254.492188" xlink:href="#DejaVuSans-45"/>
       <use x="290.576172" xlink:href="#DejaVuSans-48"/>
       <use x="354.199219" xlink:href="#DejaVuSans-53"/>
       <use x="417.822266" xlink:href="#DejaVuSans-45"/>
       <use x="453.90625" xlink:href="#DejaVuSans-49"/>
       <use x="517.529297" xlink:href="#DejaVuSans-50"/>
      </g>
     </g>
    </g>
    <g id="xtick_40">
     <g id="line2d_64">
      <g>
       <use style="stroke:#000000;stroke-width:0.8;" x="561.92" xlink:href="#ma4381d9753" y="572.06"/>
      </g>
     </g>
     <g id="text_33">
      <!-- 2020-05-17 -->
      <g transform="translate(564.679375 637.175625)rotate(-90)scale(0.1 -0.1)">
       <use xlink:href="#DejaVuSans-50"/>
       <use x="63.623047" xlink:href="#DejaVuSans-48"/>
       <use x="127.246094" xlink:href="#DejaVuSans-50"/>
       <use x="190.869141" xlink:href="#DejaVuSans-48"/>
       <use x="254.492188" xlink:href="#DejaVuSans-45"/>
       <use x="290.576172" xlink:href="#DejaVuSans-48"/>
       <use x="354.199219" xlink:href="#DejaVuSans-53"/>
       <use x="417.822266" xlink:href="#DejaVuSans-45"/>
       <use x="453.90625" xlink:href="#DejaVuSans-49"/>
       <use x="517.529297" xlink:href="#DejaVuSans-55"/>
      </g>
     </g>
    </g>
    <g id="xtick_41">
     <g id="line2d_65">
      <g>
       <use style="stroke:#000000;stroke-width:0.8;" x="597.7" xlink:href="#ma4381d9753" y="572.06"/>
      </g>
     </g>
     <g id="text_34">
      <!-- 2020-05-23 -->
      <g transform="translate(600.459375 637.175625)rotate(-90)scale(0.1 -0.1)">
       <use xlink:href="#DejaVuSans-50"/>
       <use x="63.623047" xlink:href="#DejaVuSans-48"/>
       <use x="127.246094" xlink:href="#DejaVuSans-50"/>
       <use x="190.869141" xlink:href="#DejaVuSans-48"/>
       <use x="254.492188" xlink:href="#DejaVuSans-45"/>
       <use x="290.576172" xlink:href="#DejaVuSans-48"/>
       <use x="354.199219" xlink:href="#DejaVuSans-53"/>
       <use x="417.822266" xlink:href="#DejaVuSans-45"/>
       <use x="453.90625" xlink:href="#DejaVuSans-50"/>
       <use x="517.529297" xlink:href="#DejaVuSans-51"/>
      </g>
     </g>
    </g>
    <g id="xtick_42">
     <g id="line2d_66">
      <g>
       <use style="stroke:#000000;stroke-width:0.8;" x="633.48" xlink:href="#ma4381d9753" y="572.06"/>
      </g>
     </g>
     <g id="text_35">
      <!-- 2020-05-29 -->
      <g transform="translate(636.239375 637.175625)rotate(-90)scale(0.1 -0.1)">
       <use xlink:href="#DejaVuSans-50"/>
       <use x="63.623047" xlink:href="#DejaVuSans-48"/>
       <use x="127.246094" xlink:href="#DejaVuSans-50"/>
       <use x="190.869141" xlink:href="#DejaVuSans-48"/>
       <use x="254.492188" xlink:href="#DejaVuSans-45"/>
       <use x="290.576172" xlink:href="#DejaVuSans-48"/>
       <use x="354.199219" xlink:href="#DejaVuSans-53"/>
       <use x="417.822266" xlink:href="#DejaVuSans-45"/>
       <use x="453.90625" xlink:href="#DejaVuSans-50"/>
       <use x="517.529297" xlink:href="#DejaVuSans-57"/>
      </g>
     </g>
    </g>
    <g id="xtick_43">
     <g id="line2d_67">
      <g>
       <use style="stroke:#000000;stroke-width:0.8;" x="669.26" xlink:href="#ma4381d9753" y="572.06"/>
      </g>
     </g>
     <g id="text_36">
      <!-- 2020-06-03 -->
      <g transform="translate(672.019375 637.175625)rotate(-90)scale(0.1 -0.1)">
       <use xlink:href="#DejaVuSans-50"/>
       <use x="63.623047" xlink:href="#DejaVuSans-48"/>
       <use x="127.246094" xlink:href="#DejaVuSans-50"/>
       <use x="190.869141" xlink:href="#DejaVuSans-48"/>
       <use x="254.492188" xlink:href="#DejaVuSans-45"/>
       <use x="290.576172" xlink:href="#DejaVuSans-48"/>
       <use x="354.199219" xlink:href="#DejaVuSans-54"/>
       <use x="417.822266" xlink:href="#DejaVuSans-45"/>
       <use x="453.90625" xlink:href="#DejaVuSans-48"/>
       <use x="517.529297" xlink:href="#DejaVuSans-51"/>
      </g>
     </g>
    </g>
    <g id="xtick_44">
     <g id="line2d_68">
      <g>
       <use style="stroke:#000000;stroke-width:0.8;" x="705.04" xlink:href="#ma4381d9753" y="572.06"/>
      </g>
     </g>
     <g id="text_37">
      <!-- 2020-06-09 -->
      <g transform="translate(707.799375 637.175625)rotate(-90)scale(0.1 -0.1)">
       <use xlink:href="#DejaVuSans-50"/>
       <use x="63.623047" xlink:href="#DejaVuSans-48"/>
       <use x="127.246094" xlink:href="#DejaVuSans-50"/>
       <use x="190.869141" xlink:href="#DejaVuSans-48"/>
       <use x="254.492188" xlink:href="#DejaVuSans-45"/>
       <use x="290.576172" xlink:href="#DejaVuSans-48"/>
       <use x="354.199219" xlink:href="#DejaVuSans-54"/>
       <use x="417.822266" xlink:href="#DejaVuSans-45"/>
       <use x="453.90625" xlink:href="#DejaVuSans-48"/>
       <use x="517.529297" xlink:href="#DejaVuSans-57"/>
      </g>
     </g>
    </g>
    <g id="xtick_45">
     <g id="line2d_69">
      <g>
       <use style="stroke:#000000;stroke-width:0.8;" x="740.82" xlink:href="#ma4381d9753" y="572.06"/>
      </g>
     </g>
     <g id="text_38">
      <!-- 2020-06-15 -->
      <g transform="translate(743.579375 637.175625)rotate(-90)scale(0.1 -0.1)">
       <use xlink:href="#DejaVuSans-50"/>
       <use x="63.623047" xlink:href="#DejaVuSans-48"/>
       <use x="127.246094" xlink:href="#DejaVuSans-50"/>
       <use x="190.869141" xlink:href="#DejaVuSans-48"/>
       <use x="254.492188" xlink:href="#DejaVuSans-45"/>
       <use x="290.576172" xlink:href="#DejaVuSans-48"/>
       <use x="354.199219" xlink:href="#DejaVuSans-54"/>
       <use x="417.822266" xlink:href="#DejaVuSans-45"/>
       <use x="453.90625" xlink:href="#DejaVuSans-49"/>
       <use x="517.529297" xlink:href="#DejaVuSans-53"/>
      </g>
     </g>
    </g>
    <g id="xtick_46">
     <g id="line2d_70">
      <g>
       <use style="stroke:#000000;stroke-width:0.8;" x="776.6" xlink:href="#ma4381d9753" y="572.06"/>
      </g>
     </g>
     <g id="text_39">
      <!-- 2020-06-20 -->
      <g transform="translate(779.359375 637.175625)rotate(-90)scale(0.1 -0.1)">
       <use xlink:href="#DejaVuSans-50"/>
       <use x="63.623047" xlink:href="#DejaVuSans-48"/>
       <use x="127.246094" xlink:href="#DejaVuSans-50"/>
       <use x="190.869141" xlink:href="#DejaVuSans-48"/>
       <use x="254.492188" xlink:href="#DejaVuSans-45"/>
       <use x="290.576172" xlink:href="#DejaVuSans-48"/>
       <use x="354.199219" xlink:href="#DejaVuSans-54"/>
       <use x="417.822266" xlink:href="#DejaVuSans-45"/>
       <use x="453.90625" xlink:href="#DejaVuSans-50"/>
       <use x="517.529297" xlink:href="#DejaVuSans-48"/>
      </g>
     </g>
    </g>
    <g id="xtick_47">
     <g id="line2d_71">
      <g>
       <use style="stroke:#000000;stroke-width:0.8;" x="812.38" xlink:href="#ma4381d9753" y="572.06"/>
      </g>
     </g>
     <g id="text_40">
      <!-- 2020-06-26 -->
      <g transform="translate(815.139375 637.175625)rotate(-90)scale(0.1 -0.1)">
       <use xlink:href="#DejaVuSans-50"/>
       <use x="63.623047" xlink:href="#DejaVuSans-48"/>
       <use x="127.246094" xlink:href="#DejaVuSans-50"/>
       <use x="190.869141" xlink:href="#DejaVuSans-48"/>
       <use x="254.492188" xlink:href="#DejaVuSans-45"/>
       <use x="290.576172" xlink:href="#DejaVuSans-48"/>
       <use x="354.199219" xlink:href="#DejaVuSans-54"/>
       <use x="417.822266" xlink:href="#DejaVuSans-45"/>
       <use x="453.90625" xlink:href="#DejaVuSans-50"/>
       <use x="517.529297" xlink:href="#DejaVuSans-54"/>
      </g>
     </g>
    </g>
    <g id="xtick_48">
     <g id="line2d_72">
      <g>
       <use style="stroke:#000000;stroke-width:0.8;" x="848.16" xlink:href="#ma4381d9753" y="572.06"/>
      </g>
     </g>
     <g id="text_41">
      <!-- 2020-07-02 -->
      <g transform="translate(850.919375 637.175625)rotate(-90)scale(0.1 -0.1)">
       <use xlink:href="#DejaVuSans-50"/>
       <use x="63.623047" xlink:href="#DejaVuSans-48"/>
       <use x="127.246094" xlink:href="#DejaVuSans-50"/>
       <use x="190.869141" xlink:href="#DejaVuSans-48"/>
       <use x="254.492188" xlink:href="#DejaVuSans-45"/>
       <use x="290.576172" xlink:href="#DejaVuSans-48"/>
       <use x="354.199219" xlink:href="#DejaVuSans-55"/>
       <use x="417.822266" xlink:href="#DejaVuSans-45"/>
       <use x="453.90625" xlink:href="#DejaVuSans-48"/>
       <use x="517.529297" xlink:href="#DejaVuSans-50"/>
      </g>
     </g>
    </g>
   </g>
   <g id="matplotlib.axis_8">
    <g id="ytick_22">
     <g id="line2d_73">
      <g>
       <use style="stroke:#000000;stroke-width:0.8;" x="454.58" xlink:href="#m9f5e60b6cf" y="572.06"/>
      </g>
     </g>
    </g>
    <g id="ytick_23">
     <g id="line2d_74">
      <g>
       <use style="stroke:#000000;stroke-width:0.8;" x="454.58" xlink:href="#m9f5e60b6cf" y="533.117564"/>
      </g>
     </g>
    </g>
    <g id="ytick_24">
     <g id="line2d_75">
      <g>
       <use style="stroke:#000000;stroke-width:0.8;" x="454.58" xlink:href="#m9f5e60b6cf" y="494.175129"/>
      </g>
     </g>
    </g>
    <g id="ytick_25">
     <g id="line2d_76">
      <g>
       <use style="stroke:#000000;stroke-width:0.8;" x="454.58" xlink:href="#m9f5e60b6cf" y="455.232693"/>
      </g>
     </g>
    </g>
    <g id="ytick_26">
     <g id="line2d_77">
      <g>
       <use style="stroke:#000000;stroke-width:0.8;" x="454.58" xlink:href="#m9f5e60b6cf" y="416.290258"/>
      </g>
     </g>
    </g>
    <g id="ytick_27">
     <g id="line2d_78">
      <g>
       <use style="stroke:#000000;stroke-width:0.8;" x="454.58" xlink:href="#m9f5e60b6cf" y="377.347822"/>
      </g>
     </g>
    </g>
    <g id="ytick_28">
     <g id="line2d_79">
      <g>
       <use style="stroke:#000000;stroke-width:0.8;" x="454.58" xlink:href="#m9f5e60b6cf" y="338.405386"/>
      </g>
     </g>
    </g>
   </g>
   <g id="line2d_80">
    <path clip-path="url(#p65fa631819)" d="M 454.58 510.512005 
L 460.928065 511.249813 
L 467.276129 511.916791 
L 473.624194 512.431855 
L 479.972258 513.138341 
L 486.320323 513.733966 
L 492.668387 514.092057 
L 499.016452 514.791949 
L 505.364516 515.228911 
L 511.712581 516.017915 
L 518.060645 516.900231 
L 524.40871 517.840766 
L 530.756774 518.910638 
L 537.104839 518.606493 
L 543.452903 519.9583 
L 549.800968 520.270414 
L 556.149032 520.978217 
L 562.497097 521.553157 
L 568.845161 522.477308 
L 575.193226 523.474265 
L 581.54129 523.699508 
L 587.889355 524.071244 
L 594.237419 524.517333 
L 600.585484 524.303652 
L 606.933548 525.858282 
L 613.281613 526.477185 
L 619.629677 526.794123 
L 625.977742 526.882316 
L 632.325806 527.01327 
L 638.673871 527.13376 
L 645.021935 527.191652 
L 651.37 527.368971 
L 657.718065 527.7369 
L 664.066129 527.962732 
L 670.414194 528.186493 
L 676.762258 528.383258 
L 683.110323 528.39828 
L 689.458387 528.465128 
L 695.806452 528.548527 
L 702.154516 528.740878 
L 708.502581 528.922131 
L 714.850645 528.929466 
L 721.19871 528.958563 
L 727.546774 529.111041 
L 733.894839 529.044488 
L 740.242903 529.265616 
L 746.590968 529.445718 
L 752.939032 529.460811 
L 759.287097 529.250072 
L 765.635161 529.033584 
L 771.983226 528.682501 
L 778.33129 528.309931 
L 784.679355 528.037409 
L 791.027419 527.894831 
L 797.375484 527.63964 
L 803.723548 527.231097 
L 810.071613 527.050579 
L 816.419677 526.633888 
L 822.767742 526.335358 
L 829.115806 526.045529 
L 835.463871 525.814249 
L 841.811935 525.542881 
L 848.16 524.836537 
" style="fill:none;stroke:#d62728;stroke-linecap:square;stroke-width:1.5;"/>
   </g>
   <g id="patch_18">
    <path d="M 454.58 572.06 
L 454.58 314.53 
" style="fill:none;stroke:#000000;stroke-linecap:square;stroke-linejoin:miter;stroke-width:0.8;"/>
   </g>
   <g id="patch_19">
    <path d="M 848.16 572.06 
L 848.16 314.53 
" style="fill:none;stroke:#000000;stroke-linecap:square;stroke-linejoin:miter;stroke-width:0.8;"/>
   </g>
   <g id="patch_20">
    <path d="M 454.58 572.06 
L 848.16 572.06 
" style="fill:none;stroke:#000000;stroke-linecap:square;stroke-linejoin:miter;stroke-width:0.8;"/>
   </g>
   <g id="patch_21">
    <path d="M 454.58 314.53 
L 848.16 314.53 
" style="fill:none;stroke:#000000;stroke-linecap:square;stroke-linejoin:miter;stroke-width:0.8;"/>
   </g>
   <g id="text_42">
    <!-- West -->
    <defs>
     <path d="M 3.328125 72.90625 
L 13.28125 72.90625 
L 28.609375 11.28125 
L 43.890625 72.90625 
L 54.984375 72.90625 
L 70.3125 11.28125 
L 85.59375 72.90625 
L 95.609375 72.90625 
L 77.296875 0 
L 64.890625 0 
L 49.515625 63.28125 
L 33.984375 0 
L 21.578125 0 
z
" id="DejaVuSans-87"/>
    </defs>
    <g transform="translate(636.620313 308.53)scale(0.12 -0.12)">
     <use xlink:href="#DejaVuSans-87"/>
     <use x="93.001953" xlink:href="#DejaVuSans-101"/>
     <use x="154.525391" xlink:href="#DejaVuSans-115"/>
     <use x="206.625" xlink:href="#DejaVuSans-116"/>
    </g>
   </g>
  </g>
 </g>
 <defs>
  <clipPath id="pd2ab92da09">
   <rect height="257.53" width="393.58" x="40.12" y="25.44"/>
  </clipPath>
  <clipPath id="pef8aa80810">
   <rect height="257.53" width="393.58" x="454.58" y="25.44"/>
  </clipPath>
  <clipPath id="p9a0c743082">
   <rect height="257.53" width="393.58" x="40.12" y="314.53"/>
  </clipPath>
  <clipPath id="p65fa631819">
   <rect height="257.53" width="393.58" x="454.58" y="314.53"/>
  </clipPath>
 </defs>
</svg>
