<?xml version="1.0" encoding="utf-8" standalone="no"?>
<!DOCTYPE svg PUBLIC "-//W3C//DTD SVG 1.1//EN"
  "http://www.w3.org/Graphics/SVG/1.1/DTD/svg11.dtd">
<!-- Created with matplotlib (http://matplotlib.org/) -->
<svg height="648pt" version="1.1" viewBox="0 0 864 648" width="864pt" xmlns="http://www.w3.org/2000/svg" xmlns:xlink="http://www.w3.org/1999/xlink">
 <defs>
  <style type="text/css">
*{stroke-linecap:butt;stroke-linejoin:round;}
  </style>
 </defs>
 <g id="figure_1">
  <g id="patch_1">
   <path d="M 0 648 
L 864 648 
L 864 0 
L 0 0 
z
" style="fill:#ffffff;"/>
  </g>
  <g id="axes_1">
   <g id="patch_2">
    <path d="M 40.03 283.195 
L 433.655 283.195 
L 433.655 25.44 
L 40.03 25.44 
z
" style="fill:#ffffff;"/>
   </g>
   <g id="PolyCollection_1">
    <defs>
     <path d="M 40.03 -506.589168 
L 40.03 -364.805 
L 44.716012 -364.805 
L 49.402024 -364.805 
L 54.088036 -364.805 
L 58.774048 -364.805 
L 63.46006 -364.805 
L 68.146071 -364.805 
L 72.832083 -364.805 
L 77.518095 -364.805 
L 82.204107 -364.805 
L 86.890119 -364.805 
L 91.576131 -364.805 
L 96.262143 -364.805 
L 100.948155 -364.805 
L 105.634167 -364.805 
L 110.320179 -364.805 
L 115.00619 -364.805 
L 119.692202 -364.805 
L 124.378214 -364.805 
L 129.064226 -364.805 
L 133.750238 -364.805 
L 138.43625 -364.805 
L 143.122262 -364.805 
L 147.808274 -364.805 
L 152.494286 -364.805 
L 157.180298 -364.805 
L 161.86631 -364.805 
L 166.552321 -364.805 
L 171.238333 -364.805 
L 175.924345 -364.805 
L 180.610357 -364.805 
L 185.296369 -364.805 
L 189.982381 -364.805 
L 194.668393 -364.805 
L 199.354405 -364.805 
L 204.040417 -364.805 
L 208.726429 -364.805 
L 213.41244 -364.805 
L 218.098452 -364.805 
L 222.784464 -364.805 
L 227.470476 -364.805 
L 232.156488 -364.805 
L 236.8425 -364.805 
L 241.528512 -364.805 
L 246.214524 -364.805 
L 250.900536 -364.805 
L 255.586548 -364.805 
L 260.27256 -364.805 
L 264.958571 -364.805 
L 269.644583 -364.805 
L 274.330595 -364.805 
L 279.016607 -364.805 
L 283.702619 -364.805 
L 288.388631 -364.805 
L 293.074643 -364.805 
L 297.760655 -364.805 
L 302.446667 -364.805 
L 307.132679 -364.805 
L 311.81869 -364.805 
L 316.504702 -364.805 
L 321.190714 -364.805 
L 325.876726 -364.805 
L 330.562738 -364.805 
L 335.24875 -364.805 
L 339.934762 -364.805 
L 344.620774 -364.805 
L 349.306786 -364.805 
L 353.992798 -364.805 
L 358.67881 -364.805 
L 363.364821 -364.805 
L 368.050833 -364.805 
L 372.736845 -364.805 
L 377.422857 -364.805 
L 382.108869 -364.805 
L 386.794881 -364.805 
L 391.480893 -364.805 
L 396.166905 -364.805 
L 400.852917 -364.805 
L 405.538929 -364.805 
L 410.22494 -364.805 
L 414.910952 -364.805 
L 419.596964 -364.805 
L 424.282976 -364.805 
L 428.968988 -364.805 
L 433.655 -364.805 
L 433.655 -386.857767 
L 433.655 -386.857767 
L 428.968988 -390.254537 
L 424.282976 -387.188821 
L 419.596964 -389.730013 
L 414.910952 -387.033816 
L 410.22494 -387.323392 
L 405.538929 -383.304021 
L 400.852917 -384.815958 
L 396.166905 -381.939784 
L 391.480893 -382.960851 
L 386.794881 -386.784183 
L 382.108869 -380.833042 
L 377.422857 -384.071811 
L 372.736845 -385.630523 
L 368.050833 -382.328075 
L 363.364821 -373.920035 
L 358.67881 -378.777942 
L 353.992798 -401.333229 
L 349.306786 -397.080861 
L 344.620774 -392.304996 
L 339.934762 -382.943214 
L 335.24875 -391.790452 
L 330.562738 -402.103278 
L 325.876726 -477.180281 
L 321.190714 -400.329491 
L 316.504702 -401.71185 
L 311.81869 -404.142489 
L 307.132679 -409.533877 
L 302.446667 -408.646944 
L 297.760655 -414.809158 
L 293.074643 -413.225911 
L 288.388631 -415.156547 
L 283.702619 -425.242402 
L 279.016607 -432.351195 
L 274.330595 -422.2127 
L 269.644583 -411.522111 
L 264.958571 -409.359178 
L 260.27256 -408.896635 
L 255.586548 -413.113402 
L 250.900536 -407.566287 
L 246.214524 -403.031413 
L 241.528512 -406.945987 
L 236.8425 -425.724307 
L 232.156488 -414.531604 
L 227.470476 -428.334153 
L 222.784464 -431.645577 
L 218.098452 -401.848241 
L 213.41244 -428.613692 
L 208.726429 -432.820789 
L 204.040417 -431.428712 
L 199.354405 -433.482191 
L 194.668393 -453.060759 
L 189.982381 -436.019455 
L 185.296369 -433.817334 
L 180.610357 -446.348024 
L 175.924345 -456.332651 
L 171.238333 -466.863923 
L 166.552321 -446.582613 
L 161.86631 -466.219097 
L 157.180298 -450.260665 
L 152.494286 -450.72554 
L 147.808274 -437.262468 
L 143.122262 -449.409824 
L 138.43625 -479.278247 
L 133.750238 -470.25624 
L 129.064226 -503.503472 
L 124.378214 -476.126299 
L 119.692202 -472.430517 
L 115.00619 -481.566851 
L 110.320179 -467.63525 
L 105.634167 -460.608527 
L 100.948155 -514.41976 
L 96.262143 -497.942635 
L 91.576131 -488.100656 
L 86.890119 -389.987163 
L 82.204107 -500.256034 
L 77.518095 -513.047801 
L 72.832083 -523.535539 
L 68.146071 -502.994856 
L 63.46006 -520.262984 
L 58.774048 -523.116523 
L 54.088036 -528.180242 
L 49.402024 -512.242271 
L 44.716012 -502.026103 
L 40.03 -506.589168 
z
" id="m651df115fd" style="stroke:#1f77b4;"/>
    </defs>
    <g clip-path="url(#p62f1ed093c)">
     <use style="fill:#1f77b4;stroke:#1f77b4;" x="0" xlink:href="#m651df115fd" y="648"/>
    </g>
   </g>
   <g id="matplotlib.axis_1">
    <g id="xtick_1">
     <g id="line2d_1">
      <defs>
       <path d="M 0 0 
L 0 3.5 
" id="mdeb490964a" style="stroke:#000000;stroke-width:0.8;"/>
      </defs>
      <g>
       <use style="stroke:#000000;stroke-width:0.8;" x="40.03" xlink:href="#mdeb490964a" y="283.195"/>
      </g>
     </g>
    </g>
    <g id="xtick_2">
     <g id="line2d_2">
      <g>
       <use style="stroke:#000000;stroke-width:0.8;" x="75.814091" xlink:href="#mdeb490964a" y="283.195"/>
      </g>
     </g>
    </g>
    <g id="xtick_3">
     <g id="line2d_3">
      <g>
       <use style="stroke:#000000;stroke-width:0.8;" x="111.598182" xlink:href="#mdeb490964a" y="283.195"/>
      </g>
     </g>
    </g>
    <g id="xtick_4">
     <g id="line2d_4">
      <g>
       <use style="stroke:#000000;stroke-width:0.8;" x="147.382273" xlink:href="#mdeb490964a" y="283.195"/>
      </g>
     </g>
    </g>
    <g id="xtick_5">
     <g id="line2d_5">
      <g>
       <use style="stroke:#000000;stroke-width:0.8;" x="183.166364" xlink:href="#mdeb490964a" y="283.195"/>
      </g>
     </g>
    </g>
    <g id="xtick_6">
     <g id="line2d_6">
      <g>
       <use style="stroke:#000000;stroke-width:0.8;" x="218.950455" xlink:href="#mdeb490964a" y="283.195"/>
      </g>
     </g>
    </g>
    <g id="xtick_7">
     <g id="line2d_7">
      <g>
       <use style="stroke:#000000;stroke-width:0.8;" x="254.734545" xlink:href="#mdeb490964a" y="283.195"/>
      </g>
     </g>
    </g>
    <g id="xtick_8">
     <g id="line2d_8">
      <g>
       <use style="stroke:#000000;stroke-width:0.8;" x="290.518636" xlink:href="#mdeb490964a" y="283.195"/>
      </g>
     </g>
    </g>
    <g id="xtick_9">
     <g id="line2d_9">
      <g>
       <use style="stroke:#000000;stroke-width:0.8;" x="326.302727" xlink:href="#mdeb490964a" y="283.195"/>
      </g>
     </g>
    </g>
    <g id="xtick_10">
     <g id="line2d_10">
      <g>
       <use style="stroke:#000000;stroke-width:0.8;" x="362.086818" xlink:href="#mdeb490964a" y="283.195"/>
      </g>
     </g>
    </g>
    <g id="xtick_11">
     <g id="line2d_11">
      <g>
       <use style="stroke:#000000;stroke-width:0.8;" x="397.870909" xlink:href="#mdeb490964a" y="283.195"/>
      </g>
     </g>
    </g>
    <g id="xtick_12">
     <g id="line2d_12">
      <g>
       <use style="stroke:#000000;stroke-width:0.8;" x="433.655" xlink:href="#mdeb490964a" y="283.195"/>
      </g>
     </g>
    </g>
   </g>
   <g id="matplotlib.axis_2">
    <g id="ytick_1">
     <g id="line2d_13">
      <defs>
       <path d="M 0 0 
L -3.5 0 
" id="m3e0657c8ac" style="stroke:#000000;stroke-width:0.8;"/>
      </defs>
      <g>
       <use style="stroke:#000000;stroke-width:0.8;" x="40.03" xlink:href="#m3e0657c8ac" y="283.195"/>
      </g>
     </g>
     <g id="text_1">
      <!-- 0.00 -->
      <defs>
       <path d="M 31.78125 66.40625 
Q 24.171875 66.40625 20.328125 58.90625 
Q 16.5 51.421875 16.5 36.375 
Q 16.5 21.390625 20.328125 13.890625 
Q 24.171875 6.390625 31.78125 6.390625 
Q 39.453125 6.390625 43.28125 13.890625 
Q 47.125 21.390625 47.125 36.375 
Q 47.125 51.421875 43.28125 58.90625 
Q 39.453125 66.40625 31.78125 66.40625 
z
M 31.78125 74.21875 
Q 44.046875 74.21875 50.515625 64.515625 
Q 56.984375 54.828125 56.984375 36.375 
Q 56.984375 17.96875 50.515625 8.265625 
Q 44.046875 -1.421875 31.78125 -1.421875 
Q 19.53125 -1.421875 13.0625 8.265625 
Q 6.59375 17.96875 6.59375 36.375 
Q 6.59375 54.828125 13.0625 64.515625 
Q 19.53125 74.21875 31.78125 74.21875 
z
" id="DejaVuSans-30"/>
       <path d="M 10.6875 12.40625 
L 21 12.40625 
L 21 0 
L 10.6875 0 
z
" id="DejaVuSans-2e"/>
      </defs>
      <g transform="translate(10.764375 286.994219)scale(0.1 -0.1)">
       <use xlink:href="#DejaVuSans-30"/>
       <use x="63.623047" xlink:href="#DejaVuSans-2e"/>
       <use x="95.410156" xlink:href="#DejaVuSans-30"/>
       <use x="159.033203" xlink:href="#DejaVuSans-30"/>
      </g>
     </g>
    </g>
    <g id="ytick_2">
     <g id="line2d_14">
      <g>
       <use style="stroke:#000000;stroke-width:0.8;" x="40.03" xlink:href="#m3e0657c8ac" y="251.984436"/>
      </g>
     </g>
     <g id="text_2">
      <!-- 0.05 -->
      <defs>
       <path d="M 10.796875 72.90625 
L 49.515625 72.90625 
L 49.515625 64.59375 
L 19.828125 64.59375 
L 19.828125 46.734375 
Q 21.96875 47.46875 24.109375 47.828125 
Q 26.265625 48.1875 28.421875 48.1875 
Q 40.625 48.1875 47.75 41.5 
Q 54.890625 34.8125 54.890625 23.390625 
Q 54.890625 11.625 47.5625 5.09375 
Q 40.234375 -1.421875 26.90625 -1.421875 
Q 22.3125 -1.421875 17.546875 -0.640625 
Q 12.796875 0.140625 7.71875 1.703125 
L 7.71875 11.625 
Q 12.109375 9.234375 16.796875 8.0625 
Q 21.484375 6.890625 26.703125 6.890625 
Q 35.15625 6.890625 40.078125 11.328125 
Q 45.015625 15.765625 45.015625 23.390625 
Q 45.015625 31 40.078125 35.4375 
Q 35.15625 39.890625 26.703125 39.890625 
Q 22.75 39.890625 18.8125 39.015625 
Q 14.890625 38.140625 10.796875 36.28125 
z
" id="DejaVuSans-35"/>
      </defs>
      <g transform="translate(10.764375 255.783655)scale(0.1 -0.1)">
       <use xlink:href="#DejaVuSans-30"/>
       <use x="63.623047" xlink:href="#DejaVuSans-2e"/>
       <use x="95.410156" xlink:href="#DejaVuSans-30"/>
       <use x="159.033203" xlink:href="#DejaVuSans-35"/>
      </g>
     </g>
    </g>
    <g id="ytick_3">
     <g id="line2d_15">
      <g>
       <use style="stroke:#000000;stroke-width:0.8;" x="40.03" xlink:href="#m3e0657c8ac" y="220.773873"/>
      </g>
     </g>
     <g id="text_3">
      <!-- 0.10 -->
      <defs>
       <path d="M 12.40625 8.296875 
L 28.515625 8.296875 
L 28.515625 63.921875 
L 10.984375 60.40625 
L 10.984375 69.390625 
L 28.421875 72.90625 
L 38.28125 72.90625 
L 38.28125 8.296875 
L 54.390625 8.296875 
L 54.390625 0 
L 12.40625 0 
z
" id="DejaVuSans-31"/>
      </defs>
      <g transform="translate(10.764375 224.573092)scale(0.1 -0.1)">
       <use xlink:href="#DejaVuSans-30"/>
       <use x="63.623047" xlink:href="#DejaVuSans-2e"/>
       <use x="95.410156" xlink:href="#DejaVuSans-31"/>
       <use x="159.033203" xlink:href="#DejaVuSans-30"/>
      </g>
     </g>
    </g>
    <g id="ytick_4">
     <g id="line2d_16">
      <g>
       <use style="stroke:#000000;stroke-width:0.8;" x="40.03" xlink:href="#m3e0657c8ac" y="189.563309"/>
      </g>
     </g>
     <g id="text_4">
      <!-- 0.15 -->
      <g transform="translate(10.764375 193.362528)scale(0.1 -0.1)">
       <use xlink:href="#DejaVuSans-30"/>
       <use x="63.623047" xlink:href="#DejaVuSans-2e"/>
       <use x="95.410156" xlink:href="#DejaVuSans-31"/>
       <use x="159.033203" xlink:href="#DejaVuSans-35"/>
      </g>
     </g>
    </g>
    <g id="ytick_5">
     <g id="line2d_17">
      <g>
       <use style="stroke:#000000;stroke-width:0.8;" x="40.03" xlink:href="#m3e0657c8ac" y="158.352746"/>
      </g>
     </g>
     <g id="text_5">
      <!-- 0.20 -->
      <defs>
       <path d="M 19.1875 8.296875 
L 53.609375 8.296875 
L 53.609375 0 
L 7.328125 0 
L 7.328125 8.296875 
Q 12.9375 14.109375 22.625 23.890625 
Q 32.328125 33.6875 34.8125 36.53125 
Q 39.546875 41.84375 41.421875 45.53125 
Q 43.3125 49.21875 43.3125 52.78125 
Q 43.3125 58.59375 39.234375 62.25 
Q 35.15625 65.921875 28.609375 65.921875 
Q 23.96875 65.921875 18.8125 64.3125 
Q 13.671875 62.703125 7.8125 59.421875 
L 7.8125 69.390625 
Q 13.765625 71.78125 18.9375 73 
Q 24.125 74.21875 28.421875 74.21875 
Q 39.75 74.21875 46.484375 68.546875 
Q 53.21875 62.890625 53.21875 53.421875 
Q 53.21875 48.921875 51.53125 44.890625 
Q 49.859375 40.875 45.40625 35.40625 
Q 44.1875 33.984375 37.640625 27.21875 
Q 31.109375 20.453125 19.1875 8.296875 
z
" id="DejaVuSans-32"/>
      </defs>
      <g transform="translate(10.764375 162.151965)scale(0.1 -0.1)">
       <use xlink:href="#DejaVuSans-30"/>
       <use x="63.623047" xlink:href="#DejaVuSans-2e"/>
       <use x="95.410156" xlink:href="#DejaVuSans-32"/>
       <use x="159.033203" xlink:href="#DejaVuSans-30"/>
      </g>
     </g>
    </g>
    <g id="ytick_6">
     <g id="line2d_18">
      <g>
       <use style="stroke:#000000;stroke-width:0.8;" x="40.03" xlink:href="#m3e0657c8ac" y="127.142182"/>
      </g>
     </g>
     <g id="text_6">
      <!-- 0.25 -->
      <g transform="translate(10.764375 130.941401)scale(0.1 -0.1)">
       <use xlink:href="#DejaVuSans-30"/>
       <use x="63.623047" xlink:href="#DejaVuSans-2e"/>
       <use x="95.410156" xlink:href="#DejaVuSans-32"/>
       <use x="159.033203" xlink:href="#DejaVuSans-35"/>
      </g>
     </g>
    </g>
    <g id="ytick_7">
     <g id="line2d_19">
      <g>
       <use style="stroke:#000000;stroke-width:0.8;" x="40.03" xlink:href="#m3e0657c8ac" y="95.931619"/>
      </g>
     </g>
     <g id="text_7">
      <!-- 0.30 -->
      <defs>
       <path d="M 40.578125 39.3125 
Q 47.65625 37.796875 51.625 33 
Q 55.609375 28.21875 55.609375 21.1875 
Q 55.609375 10.40625 48.1875 4.484375 
Q 40.765625 -1.421875 27.09375 -1.421875 
Q 22.515625 -1.421875 17.65625 -0.515625 
Q 12.796875 0.390625 7.625 2.203125 
L 7.625 11.71875 
Q 11.71875 9.328125 16.59375 8.109375 
Q 21.484375 6.890625 26.8125 6.890625 
Q 36.078125 6.890625 40.9375 10.546875 
Q 45.796875 14.203125 45.796875 21.1875 
Q 45.796875 27.640625 41.28125 31.265625 
Q 36.765625 34.90625 28.71875 34.90625 
L 20.21875 34.90625 
L 20.21875 43.015625 
L 29.109375 43.015625 
Q 36.375 43.015625 40.234375 45.921875 
Q 44.09375 48.828125 44.09375 54.296875 
Q 44.09375 59.90625 40.109375 62.90625 
Q 36.140625 65.921875 28.71875 65.921875 
Q 24.65625 65.921875 20.015625 65.03125 
Q 15.375 64.15625 9.8125 62.3125 
L 9.8125 71.09375 
Q 15.4375 72.65625 20.34375 73.4375 
Q 25.25 74.21875 29.59375 74.21875 
Q 40.828125 74.21875 47.359375 69.109375 
Q 53.90625 64.015625 53.90625 55.328125 
Q 53.90625 49.265625 50.4375 45.09375 
Q 46.96875 40.921875 40.578125 39.3125 
z
" id="DejaVuSans-33"/>
      </defs>
      <g transform="translate(10.764375 99.730838)scale(0.1 -0.1)">
       <use xlink:href="#DejaVuSans-30"/>
       <use x="63.623047" xlink:href="#DejaVuSans-2e"/>
       <use x="95.410156" xlink:href="#DejaVuSans-33"/>
       <use x="159.033203" xlink:href="#DejaVuSans-30"/>
      </g>
     </g>
    </g>
    <g id="ytick_8">
     <g id="line2d_20">
      <g>
       <use style="stroke:#000000;stroke-width:0.8;" x="40.03" xlink:href="#m3e0657c8ac" y="64.721055"/>
      </g>
     </g>
     <g id="text_8">
      <!-- 0.35 -->
      <g transform="translate(10.764375 68.520274)scale(0.1 -0.1)">
       <use xlink:href="#DejaVuSans-30"/>
       <use x="63.623047" xlink:href="#DejaVuSans-2e"/>
       <use x="95.410156" xlink:href="#DejaVuSans-33"/>
       <use x="159.033203" xlink:href="#DejaVuSans-35"/>
      </g>
     </g>
    </g>
    <g id="ytick_9">
     <g id="line2d_21">
      <g>
       <use style="stroke:#000000;stroke-width:0.8;" x="40.03" xlink:href="#m3e0657c8ac" y="33.510492"/>
      </g>
     </g>
     <g id="text_9">
      <!-- 0.40 -->
      <defs>
       <path d="M 37.796875 64.3125 
L 12.890625 25.390625 
L 37.796875 25.390625 
z
M 35.203125 72.90625 
L 47.609375 72.90625 
L 47.609375 25.390625 
L 58.015625 25.390625 
L 58.015625 17.1875 
L 47.609375 17.1875 
L 47.609375 0 
L 37.796875 0 
L 37.796875 17.1875 
L 4.890625 17.1875 
L 4.890625 26.703125 
z
" id="DejaVuSans-34"/>
      </defs>
      <g transform="translate(10.764375 37.309711)scale(0.1 -0.1)">
       <use xlink:href="#DejaVuSans-30"/>
       <use x="63.623047" xlink:href="#DejaVuSans-2e"/>
       <use x="95.410156" xlink:href="#DejaVuSans-34"/>
       <use x="159.033203" xlink:href="#DejaVuSans-30"/>
      </g>
     </g>
    </g>
   </g>
   <g id="line2d_22">
    <path clip-path="url(#p62f1ed093c)" d="M 40.03 141.410832 
L 44.716012 145.973897 
L 49.402024 135.757729 
L 54.088036 119.819758 
L 58.774048 124.883477 
L 63.46006 127.737016 
L 68.146071 145.005144 
L 72.832083 124.464461 
L 77.518095 134.952199 
L 82.204107 147.743966 
L 86.890119 258.012837 
L 91.576131 159.899344 
L 96.262143 150.057365 
L 100.948155 133.58024 
L 105.634167 187.391473 
L 110.320179 180.36475 
L 115.00619 166.433149 
L 119.692202 175.569483 
L 124.378214 171.873701 
L 129.064226 144.496528 
L 133.750238 177.74376 
L 138.43625 168.721753 
L 143.122262 198.590176 
L 147.808274 210.737532 
L 152.494286 197.27446 
L 157.180298 197.739335 
L 161.86631 181.780903 
L 166.552321 201.417387 
L 171.238333 181.136077 
L 175.924345 191.667349 
L 180.610357 201.651976 
L 185.296369 214.182666 
L 189.982381 211.980545 
L 194.668393 194.939241 
L 199.354405 214.517809 
L 204.040417 216.571288 
L 208.726429 215.179211 
L 213.41244 219.386308 
L 218.098452 246.151759 
L 222.784464 216.354423 
L 227.470476 219.665847 
L 232.156488 233.468396 
L 236.8425 222.275693 
L 241.528512 241.054013 
L 246.214524 244.968587 
L 250.900536 240.433713 
L 255.586548 234.886598 
L 260.27256 239.103365 
L 264.958571 238.640822 
L 269.644583 236.477889 
L 274.330595 225.7873 
L 279.016607 215.648805 
L 283.702619 222.757598 
L 288.388631 232.843453 
L 293.074643 234.774089 
L 297.760655 233.190842 
L 302.446667 239.353056 
L 307.132679 238.466123 
L 311.81869 243.857511 
L 316.504702 246.28815 
L 321.190714 247.670509 
L 325.876726 170.819719 
L 330.562738 245.896722 
L 335.24875 256.209548 
L 339.934762 265.056786 
L 344.620774 255.695004 
L 349.306786 250.919139 
L 353.992798 246.666771 
L 358.67881 269.222058 
L 363.364821 274.079965 
L 368.050833 265.671925 
L 372.736845 262.369477 
L 377.422857 263.928189 
L 382.108869 267.166958 
L 386.794881 261.215817 
L 391.480893 265.039149 
L 396.166905 266.060216 
L 400.852917 263.184042 
L 405.538929 264.695979 
L 410.22494 260.676608 
L 414.910952 260.966184 
L 419.596964 258.269987 
L 424.282976 260.811179 
L 428.968988 257.745463 
L 433.655 261.142233 
" style="fill:none;stroke:#1f77b4;stroke-linecap:square;stroke-width:1.5;"/>
   </g>
   <g id="patch_3">
    <path d="M 40.03 283.195 
L 40.03 25.44 
" style="fill:none;stroke:#000000;stroke-linecap:square;stroke-linejoin:miter;stroke-width:0.8;"/>
   </g>
   <g id="patch_4">
    <path d="M 433.655 283.195 
L 433.655 25.44 
" style="fill:none;stroke:#000000;stroke-linecap:square;stroke-linejoin:miter;stroke-width:0.8;"/>
   </g>
   <g id="patch_5">
    <path d="M 40.03 283.195 
L 433.655 283.195 
" style="fill:none;stroke:#000000;stroke-linecap:square;stroke-linejoin:miter;stroke-width:0.8;"/>
   </g>
   <g id="patch_6">
    <path d="M 40.03 25.44 
L 433.655 25.44 
" style="fill:none;stroke:#000000;stroke-linecap:square;stroke-linejoin:miter;stroke-width:0.8;"/>
   </g>
   <g id="text_10">
    <!-- Midwest -->
    <defs>
     <path d="M 9.8125 72.90625 
L 24.515625 72.90625 
L 43.109375 23.296875 
L 61.8125 72.90625 
L 76.515625 72.90625 
L 76.515625 0 
L 66.890625 0 
L 66.890625 64.015625 
L 48.09375 14.015625 
L 38.1875 14.015625 
L 19.390625 64.015625 
L 19.390625 0 
L 9.8125 0 
z
" id="DejaVuSans-4d"/>
     <path d="M 9.421875 54.6875 
L 18.40625 54.6875 
L 18.40625 0 
L 9.421875 0 
z
M 9.421875 75.984375 
L 18.40625 75.984375 
L 18.40625 64.59375 
L 9.421875 64.59375 
z
" id="DejaVuSans-69"/>
     <path d="M 45.40625 46.390625 
L 45.40625 75.984375 
L 54.390625 75.984375 
L 54.390625 0 
L 45.40625 0 
L 45.40625 8.203125 
Q 42.578125 3.328125 38.25 0.953125 
Q 33.9375 -1.421875 27.875 -1.421875 
Q 17.96875 -1.421875 11.734375 6.484375 
Q 5.515625 14.40625 5.515625 27.296875 
Q 5.515625 40.1875 11.734375 48.09375 
Q 17.96875 56 27.875 56 
Q 33.9375 56 38.25 53.625 
Q 42.578125 51.265625 45.40625 46.390625 
z
M 14.796875 27.296875 
Q 14.796875 17.390625 18.875 11.75 
Q 22.953125 6.109375 30.078125 6.109375 
Q 37.203125 6.109375 41.296875 11.75 
Q 45.40625 17.390625 45.40625 27.296875 
Q 45.40625 37.203125 41.296875 42.84375 
Q 37.203125 48.484375 30.078125 48.484375 
Q 22.953125 48.484375 18.875 42.84375 
Q 14.796875 37.203125 14.796875 27.296875 
z
" id="DejaVuSans-64"/>
     <path d="M 4.203125 54.6875 
L 13.1875 54.6875 
L 24.421875 12.015625 
L 35.59375 54.6875 
L 46.1875 54.6875 
L 57.421875 12.015625 
L 68.609375 54.6875 
L 77.59375 54.6875 
L 63.28125 0 
L 52.6875 0 
L 40.921875 44.828125 
L 29.109375 0 
L 18.5 0 
z
" id="DejaVuSans-77"/>
     <path d="M 56.203125 29.59375 
L 56.203125 25.203125 
L 14.890625 25.203125 
Q 15.484375 15.921875 20.484375 11.0625 
Q 25.484375 6.203125 34.421875 6.203125 
Q 39.59375 6.203125 44.453125 7.46875 
Q 49.3125 8.734375 54.109375 11.28125 
L 54.109375 2.78125 
Q 49.265625 0.734375 44.1875 -0.34375 
Q 39.109375 -1.421875 33.890625 -1.421875 
Q 20.796875 -1.421875 13.15625 6.1875 
Q 5.515625 13.8125 5.515625 26.8125 
Q 5.515625 40.234375 12.765625 48.109375 
Q 20.015625 56 32.328125 56 
Q 43.359375 56 49.78125 48.890625 
Q 56.203125 41.796875 56.203125 29.59375 
z
M 47.21875 32.234375 
Q 47.125 39.59375 43.09375 43.984375 
Q 39.0625 48.390625 32.421875 48.390625 
Q 24.90625 48.390625 20.390625 44.140625 
Q 15.875 39.890625 15.1875 32.171875 
z
" id="DejaVuSans-65"/>
     <path d="M 44.28125 53.078125 
L 44.28125 44.578125 
Q 40.484375 46.53125 36.375 47.5 
Q 32.28125 48.484375 27.875 48.484375 
Q 21.1875 48.484375 17.84375 46.4375 
Q 14.5 44.390625 14.5 40.28125 
Q 14.5 37.15625 16.890625 35.375 
Q 19.28125 33.59375 26.515625 31.984375 
L 29.59375 31.296875 
Q 39.15625 29.25 43.1875 25.515625 
Q 47.21875 21.78125 47.21875 15.09375 
Q 47.21875 7.46875 41.1875 3.015625 
Q 35.15625 -1.421875 24.609375 -1.421875 
Q 20.21875 -1.421875 15.453125 -0.5625 
Q 10.6875 0.296875 5.421875 2 
L 5.421875 11.28125 
Q 10.40625 8.6875 15.234375 7.390625 
Q 20.0625 6.109375 24.8125 6.109375 
Q 31.15625 6.109375 34.5625 8.28125 
Q 37.984375 10.453125 37.984375 14.40625 
Q 37.984375 18.0625 35.515625 20.015625 
Q 33.0625 21.96875 24.703125 23.78125 
L 21.578125 24.515625 
Q 13.234375 26.265625 9.515625 29.90625 
Q 5.8125 33.546875 5.8125 39.890625 
Q 5.8125 47.609375 11.28125 51.796875 
Q 16.75 56 26.8125 56 
Q 31.78125 56 36.171875 55.265625 
Q 40.578125 54.546875 44.28125 53.078125 
z
" id="DejaVuSans-73"/>
     <path d="M 18.3125 70.21875 
L 18.3125 54.6875 
L 36.8125 54.6875 
L 36.8125 47.703125 
L 18.3125 47.703125 
L 18.3125 18.015625 
Q 18.3125 11.328125 20.140625 9.421875 
Q 21.96875 7.515625 27.59375 7.515625 
L 36.8125 7.515625 
L 36.8125 0 
L 27.59375 0 
Q 17.1875 0 13.234375 3.875 
Q 9.28125 7.765625 9.28125 18.015625 
L 9.28125 47.703125 
L 2.6875 47.703125 
L 2.6875 54.6875 
L 9.28125 54.6875 
L 9.28125 70.21875 
z
" id="DejaVuSans-74"/>
    </defs>
    <g transform="translate(212.113125 19.44)scale(0.12 -0.12)">
     <use xlink:href="#DejaVuSans-4d"/>
     <use x="86.279297" xlink:href="#DejaVuSans-69"/>
     <use x="114.0625" xlink:href="#DejaVuSans-64"/>
     <use x="177.539062" xlink:href="#DejaVuSans-77"/>
     <use x="259.326172" xlink:href="#DejaVuSans-65"/>
     <use x="320.849609" xlink:href="#DejaVuSans-73"/>
     <use x="372.949219" xlink:href="#DejaVuSans-74"/>
    </g>
   </g>
  </g>
  <g id="axes_2">
   <g id="patch_7">
    <path d="M 454.535 283.195 
L 848.16 283.195 
L 848.16 25.44 
L 454.535 25.44 
z
" style="fill:#ffffff;"/>
   </g>
   <g id="PolyCollection_2">
    <defs>
     <path d="M 454.535 -466.174927 
L 454.535 -364.805 
L 459.221012 -364.805 
L 463.907024 -364.805 
L 468.593036 -364.805 
L 473.279048 -364.805 
L 477.96506 -364.805 
L 482.651071 -364.805 
L 487.337083 -364.805 
L 492.023095 -364.805 
L 496.709107 -364.805 
L 501.395119 -364.805 
L 506.081131 -364.805 
L 510.767143 -364.805 
L 515.453155 -364.805 
L 520.139167 -364.805 
L 524.825179 -364.805 
L 529.51119 -364.805 
L 534.197202 -364.805 
L 538.883214 -364.805 
L 543.569226 -364.805 
L 548.255238 -364.805 
L 552.94125 -364.805 
L 557.627262 -364.805 
L 562.313274 -364.805 
L 566.999286 -364.805 
L 571.685298 -364.805 
L 576.37131 -364.805 
L 581.057321 -364.805 
L 585.743333 -364.805 
L 590.429345 -364.805 
L 595.115357 -364.805 
L 599.801369 -364.805 
L 604.487381 -364.805 
L 609.173393 -364.805 
L 613.859405 -364.805 
L 618.545417 -364.805 
L 623.231429 -364.805 
L 627.91744 -364.805 
L 632.603452 -364.805 
L 637.289464 -364.805 
L 641.975476 -364.805 
L 646.661488 -364.805 
L 651.3475 -364.805 
L 656.033512 -364.805 
L 660.719524 -364.805 
L 665.405536 -364.805 
L 670.091548 -364.805 
L 674.77756 -364.805 
L 679.463571 -364.805 
L 684.149583 -364.805 
L 688.835595 -364.805 
L 693.521607 -364.805 
L 698.207619 -364.805 
L 702.893631 -364.805 
L 707.579643 -364.805 
L 712.265655 -364.805 
L 716.951667 -364.805 
L 721.637679 -364.805 
L 726.32369 -364.805 
L 731.009702 -364.805 
L 735.695714 -364.805 
L 740.381726 -364.805 
L 745.067738 -364.805 
L 749.75375 -364.805 
L 754.439762 -364.805 
L 759.125774 -364.805 
L 763.811786 -364.805 
L 768.497798 -364.805 
L 773.18381 -364.805 
L 777.869821 -364.805 
L 782.555833 -364.805 
L 787.241845 -364.805 
L 791.927857 -364.805 
L 796.613869 -364.805 
L 801.299881 -364.805 
L 805.985893 -364.805 
L 810.671905 -364.805 
L 815.357917 -364.805 
L 820.043929 -364.805 
L 824.72994 -364.805 
L 829.415952 -364.805 
L 834.101964 -364.805 
L 838.787976 -364.805 
L 843.473988 -364.805 
L 848.16 -364.805 
L 848.16 -379.796379 
L 848.16 -379.796379 
L 843.473988 -371.996788 
L 838.787976 -373.721419 
L 834.101964 -373.420785 
L 829.415952 -372.877006 
L 824.72994 -376.792624 
L 820.043929 -375.574392 
L 815.357917 -371.969955 
L 810.671905 -374.453157 
L 805.985893 -389.71719 
L 801.299881 -373.618403 
L 796.613869 -375.826909 
L 791.927857 -376.889227 
L 787.241845 -376.232662 
L 782.555833 -378.202567 
L 777.869821 -373.642109 
L 773.18381 -375.623283 
L 768.497798 -376.214622 
L 763.811786 -375.017891 
L 759.125774 -377.224482 
L 754.439762 -377.752148 
L 749.75375 -380.621327 
L 745.067738 -381.960092 
L 740.381726 -385.049101 
L 735.695714 -394.001451 
L 731.009702 -391.73959 
L 726.32369 -386.058333 
L 721.637679 -388.755484 
L 716.951667 -386.077938 
L 712.265655 -386.544557 
L 707.579643 -392.981478 
L 702.893631 -392.824214 
L 698.207619 -396.178324 
L 693.521607 -393.327557 
L 688.835595 -395.119972 
L 684.149583 -404.125816 
L 679.463571 -407.853381 
L 674.77756 -405.804393 
L 670.091548 -412.872963 
L 665.405536 -414.025459 
L 660.719524 -415.065673 
L 656.033512 -418.784066 
L 651.3475 -417.184542 
L 646.661488 -410.221601 
L 641.975476 -421.124004 
L 637.289464 -389.20215 
L 632.603452 -404.624286 
L 627.91744 -442.753387 
L 623.231429 -441.008497 
L 618.545417 -447.539652 
L 613.859405 -465.521408 
L 609.173393 -456.799541 
L 604.487381 -455.876113 
L 599.801369 -455.136757 
L 595.115357 -475.786779 
L 590.429345 -471.872079 
L 585.743333 -482.597296 
L 581.057321 -485.19776 
L 576.37131 -486.822796 
L 571.685298 -480.011732 
L 566.999286 -503.624601 
L 562.313274 -509.320534 
L 557.627262 -506.722829 
L 552.94125 -536.011141 
L 548.255238 -550.12216 
L 543.569226 -553.411958 
L 538.883214 -559.223517 
L 534.197202 -519.608495 
L 529.51119 -556.074557 
L 524.825179 -564.585348 
L 520.139167 -571.730075 
L 515.453155 -591.892577 
L 510.767143 -592.188427 
L 506.081131 -588.678888 
L 501.395119 -607.897046 
L 496.709107 -594.619836 
L 492.023095 -592.889461 
L 487.337083 -598.864156 
L 482.651071 -594.077835 
L 477.96506 -594.586181 
L 473.279048 -610.285952 
L 468.593036 -604.720184 
L 463.907024 -585.643006 
L 459.221012 -566.411573 
L 454.535 -466.174927 
z
" id="mc3f244f0a7" style="stroke:#ff7f0e;"/>
    </defs>
    <g clip-path="url(#pa73e71256a)">
     <use style="fill:#ff7f0e;stroke:#ff7f0e;" x="0" xlink:href="#mc3f244f0a7" y="648"/>
    </g>
   </g>
   <g id="matplotlib.axis_3">
    <g id="xtick_13">
     <g id="line2d_23">
      <g>
       <use style="stroke:#000000;stroke-width:0.8;" x="454.535" xlink:href="#mdeb490964a" y="283.195"/>
      </g>
     </g>
    </g>
    <g id="xtick_14">
     <g id="line2d_24">
      <g>
       <use style="stroke:#000000;stroke-width:0.8;" x="490.319091" xlink:href="#mdeb490964a" y="283.195"/>
      </g>
     </g>
    </g>
    <g id="xtick_15">
     <g id="line2d_25">
      <g>
       <use style="stroke:#000000;stroke-width:0.8;" x="526.103182" xlink:href="#mdeb490964a" y="283.195"/>
      </g>
     </g>
    </g>
    <g id="xtick_16">
     <g id="line2d_26">
      <g>
       <use style="stroke:#000000;stroke-width:0.8;" x="561.887273" xlink:href="#mdeb490964a" y="283.195"/>
      </g>
     </g>
    </g>
    <g id="xtick_17">
     <g id="line2d_27">
      <g>
       <use style="stroke:#000000;stroke-width:0.8;" x="597.671364" xlink:href="#mdeb490964a" y="283.195"/>
      </g>
     </g>
    </g>
    <g id="xtick_18">
     <g id="line2d_28">
      <g>
       <use style="stroke:#000000;stroke-width:0.8;" x="633.455455" xlink:href="#mdeb490964a" y="283.195"/>
      </g>
     </g>
    </g>
    <g id="xtick_19">
     <g id="line2d_29">
      <g>
       <use style="stroke:#000000;stroke-width:0.8;" x="669.239545" xlink:href="#mdeb490964a" y="283.195"/>
      </g>
     </g>
    </g>
    <g id="xtick_20">
     <g id="line2d_30">
      <g>
       <use style="stroke:#000000;stroke-width:0.8;" x="705.023636" xlink:href="#mdeb490964a" y="283.195"/>
      </g>
     </g>
    </g>
    <g id="xtick_21">
     <g id="line2d_31">
      <g>
       <use style="stroke:#000000;stroke-width:0.8;" x="740.807727" xlink:href="#mdeb490964a" y="283.195"/>
      </g>
     </g>
    </g>
    <g id="xtick_22">
     <g id="line2d_32">
      <g>
       <use style="stroke:#000000;stroke-width:0.8;" x="776.591818" xlink:href="#mdeb490964a" y="283.195"/>
      </g>
     </g>
    </g>
    <g id="xtick_23">
     <g id="line2d_33">
      <g>
       <use style="stroke:#000000;stroke-width:0.8;" x="812.375909" xlink:href="#mdeb490964a" y="283.195"/>
      </g>
     </g>
    </g>
    <g id="xtick_24">
     <g id="line2d_34">
      <g>
       <use style="stroke:#000000;stroke-width:0.8;" x="848.16" xlink:href="#mdeb490964a" y="283.195"/>
      </g>
     </g>
    </g>
   </g>
   <g id="matplotlib.axis_4">
    <g id="ytick_10">
     <g id="line2d_35">
      <g>
       <use style="stroke:#000000;stroke-width:0.8;" x="454.535" xlink:href="#m3e0657c8ac" y="283.195"/>
      </g>
     </g>
    </g>
    <g id="ytick_11">
     <g id="line2d_36">
      <g>
       <use style="stroke:#000000;stroke-width:0.8;" x="454.535" xlink:href="#m3e0657c8ac" y="251.984436"/>
      </g>
     </g>
    </g>
    <g id="ytick_12">
     <g id="line2d_37">
      <g>
       <use style="stroke:#000000;stroke-width:0.8;" x="454.535" xlink:href="#m3e0657c8ac" y="220.773873"/>
      </g>
     </g>
    </g>
    <g id="ytick_13">
     <g id="line2d_38">
      <g>
       <use style="stroke:#000000;stroke-width:0.8;" x="454.535" xlink:href="#m3e0657c8ac" y="189.563309"/>
      </g>
     </g>
    </g>
    <g id="ytick_14">
     <g id="line2d_39">
      <g>
       <use style="stroke:#000000;stroke-width:0.8;" x="454.535" xlink:href="#m3e0657c8ac" y="158.352746"/>
      </g>
     </g>
    </g>
    <g id="ytick_15">
     <g id="line2d_40">
      <g>
       <use style="stroke:#000000;stroke-width:0.8;" x="454.535" xlink:href="#m3e0657c8ac" y="127.142182"/>
      </g>
     </g>
    </g>
    <g id="ytick_16">
     <g id="line2d_41">
      <g>
       <use style="stroke:#000000;stroke-width:0.8;" x="454.535" xlink:href="#m3e0657c8ac" y="95.931619"/>
      </g>
     </g>
    </g>
    <g id="ytick_17">
     <g id="line2d_42">
      <g>
       <use style="stroke:#000000;stroke-width:0.8;" x="454.535" xlink:href="#m3e0657c8ac" y="64.721055"/>
      </g>
     </g>
    </g>
    <g id="ytick_18">
     <g id="line2d_43">
      <g>
       <use style="stroke:#000000;stroke-width:0.8;" x="454.535" xlink:href="#m3e0657c8ac" y="33.510492"/>
      </g>
     </g>
    </g>
   </g>
   <g id="line2d_44">
    <path clip-path="url(#pa73e71256a)" d="M 454.535 181.825073 
L 459.221012 81.588427 
L 463.907024 62.356994 
L 468.593036 43.279816 
L 473.279048 37.714048 
L 477.96506 53.413819 
L 482.651071 53.922165 
L 487.337083 49.135844 
L 492.023095 55.110539 
L 496.709107 53.380164 
L 501.395119 40.102954 
L 506.081131 59.321112 
L 510.767143 55.811573 
L 515.453155 56.107423 
L 520.139167 76.269925 
L 524.825179 83.414652 
L 529.51119 91.925443 
L 534.197202 128.391505 
L 538.883214 88.776483 
L 543.569226 94.588042 
L 548.255238 97.87784 
L 552.94125 111.988859 
L 557.627262 141.277171 
L 562.313274 138.679466 
L 566.999286 144.375399 
L 571.685298 167.988268 
L 576.37131 161.177204 
L 581.057321 162.80224 
L 585.743333 165.402704 
L 590.429345 176.127921 
L 595.115357 172.213221 
L 599.801369 192.863243 
L 604.487381 192.123887 
L 609.173393 191.200459 
L 613.859405 182.478592 
L 618.545417 200.460348 
L 623.231429 206.991503 
L 627.91744 205.246613 
L 632.603452 243.375714 
L 637.289464 258.79785 
L 641.975476 226.875996 
L 646.661488 237.778399 
L 651.3475 230.815458 
L 656.033512 229.215934 
L 660.719524 232.934327 
L 665.405536 233.974541 
L 670.091548 235.127037 
L 674.77756 242.195607 
L 679.463571 240.146619 
L 684.149583 243.874184 
L 688.835595 252.880028 
L 693.521607 254.672443 
L 698.207619 251.821676 
L 702.893631 255.175786 
L 707.579643 255.018522 
L 712.265655 261.455443 
L 716.951667 261.922062 
L 721.637679 259.244516 
L 726.32369 261.941667 
L 731.009702 256.26041 
L 735.695714 253.998549 
L 740.381726 262.950899 
L 745.067738 266.039908 
L 749.75375 267.378673 
L 754.439762 270.247852 
L 759.125774 270.775518 
L 763.811786 272.982109 
L 768.497798 271.785378 
L 773.18381 272.376717 
L 777.869821 274.357891 
L 782.555833 269.797433 
L 787.241845 271.767338 
L 791.927857 271.110773 
L 796.613869 272.173091 
L 801.299881 274.381597 
L 805.985893 258.28281 
L 810.671905 273.546843 
L 815.357917 276.030045 
L 820.043929 272.425608 
L 824.72994 271.207376 
L 829.415952 275.122994 
L 834.101964 274.579215 
L 838.787976 274.278581 
L 843.473988 276.003212 
L 848.16 268.203621 
" style="fill:none;stroke:#ff7f0e;stroke-linecap:square;stroke-width:1.5;"/>
   </g>
   <g id="patch_8">
    <path d="M 454.535 283.195 
L 454.535 25.44 
" style="fill:none;stroke:#000000;stroke-linecap:square;stroke-linejoin:miter;stroke-width:0.8;"/>
   </g>
   <g id="patch_9">
    <path d="M 848.16 283.195 
L 848.16 25.44 
" style="fill:none;stroke:#000000;stroke-linecap:square;stroke-linejoin:miter;stroke-width:0.8;"/>
   </g>
   <g id="patch_10">
    <path d="M 454.535 283.195 
L 848.16 283.195 
" style="fill:none;stroke:#000000;stroke-linecap:square;stroke-linejoin:miter;stroke-width:0.8;"/>
   </g>
   <g id="patch_11">
    <path d="M 454.535 25.44 
L 848.16 25.44 
" style="fill:none;stroke:#000000;stroke-linecap:square;stroke-linejoin:miter;stroke-width:0.8;"/>
   </g>
   <g id="text_11">
    <!-- Northeast -->
    <defs>
     <path d="M 9.8125 72.90625 
L 23.09375 72.90625 
L 55.421875 11.921875 
L 55.421875 72.90625 
L 64.984375 72.90625 
L 64.984375 0 
L 51.703125 0 
L 19.390625 60.984375 
L 19.390625 0 
L 9.8125 0 
z
" id="DejaVuSans-4e"/>
     <path d="M 30.609375 48.390625 
Q 23.390625 48.390625 19.1875 42.75 
Q 14.984375 37.109375 14.984375 27.296875 
Q 14.984375 17.484375 19.15625 11.84375 
Q 23.34375 6.203125 30.609375 6.203125 
Q 37.796875 6.203125 41.984375 11.859375 
Q 46.1875 17.53125 46.1875 27.296875 
Q 46.1875 37.015625 41.984375 42.703125 
Q 37.796875 48.390625 30.609375 48.390625 
z
M 30.609375 56 
Q 42.328125 56 49.015625 48.375 
Q 55.71875 40.765625 55.71875 27.296875 
Q 55.71875 13.875 49.015625 6.21875 
Q 42.328125 -1.421875 30.609375 -1.421875 
Q 18.84375 -1.421875 12.171875 6.21875 
Q 5.515625 13.875 5.515625 27.296875 
Q 5.515625 40.765625 12.171875 48.375 
Q 18.84375 56 30.609375 56 
z
" id="DejaVuSans-6f"/>
     <path d="M 41.109375 46.296875 
Q 39.59375 47.171875 37.8125 47.578125 
Q 36.03125 48 33.890625 48 
Q 26.265625 48 22.1875 43.046875 
Q 18.109375 38.09375 18.109375 28.8125 
L 18.109375 0 
L 9.078125 0 
L 9.078125 54.6875 
L 18.109375 54.6875 
L 18.109375 46.1875 
Q 20.953125 51.171875 25.484375 53.578125 
Q 30.03125 56 36.53125 56 
Q 37.453125 56 38.578125 55.875 
Q 39.703125 55.765625 41.0625 55.515625 
z
" id="DejaVuSans-72"/>
     <path d="M 54.890625 33.015625 
L 54.890625 0 
L 45.90625 0 
L 45.90625 32.71875 
Q 45.90625 40.484375 42.875 44.328125 
Q 39.84375 48.1875 33.796875 48.1875 
Q 26.515625 48.1875 22.3125 43.546875 
Q 18.109375 38.921875 18.109375 30.90625 
L 18.109375 0 
L 9.078125 0 
L 9.078125 75.984375 
L 18.109375 75.984375 
L 18.109375 46.1875 
Q 21.34375 51.125 25.703125 53.5625 
Q 30.078125 56 35.796875 56 
Q 45.21875 56 50.046875 50.171875 
Q 54.890625 44.34375 54.890625 33.015625 
z
" id="DejaVuSans-68"/>
     <path d="M 34.28125 27.484375 
Q 23.390625 27.484375 19.1875 25 
Q 14.984375 22.515625 14.984375 16.5 
Q 14.984375 11.71875 18.140625 8.90625 
Q 21.296875 6.109375 26.703125 6.109375 
Q 34.1875 6.109375 38.703125 11.40625 
Q 43.21875 16.703125 43.21875 25.484375 
L 43.21875 27.484375 
z
M 52.203125 31.203125 
L 52.203125 0 
L 43.21875 0 
L 43.21875 8.296875 
Q 40.140625 3.328125 35.546875 0.953125 
Q 30.953125 -1.421875 24.3125 -1.421875 
Q 15.921875 -1.421875 10.953125 3.296875 
Q 6 8.015625 6 15.921875 
Q 6 25.140625 12.171875 29.828125 
Q 18.359375 34.515625 30.609375 34.515625 
L 43.21875 34.515625 
L 43.21875 35.40625 
Q 43.21875 41.609375 39.140625 45 
Q 35.0625 48.390625 27.6875 48.390625 
Q 23 48.390625 18.546875 47.265625 
Q 14.109375 46.140625 10.015625 43.890625 
L 10.015625 52.203125 
Q 14.9375 54.109375 19.578125 55.046875 
Q 24.21875 56 28.609375 56 
Q 40.484375 56 46.34375 49.84375 
Q 52.203125 43.703125 52.203125 31.203125 
z
" id="DejaVuSans-61"/>
    </defs>
    <g transform="translate(621.719688 19.44)scale(0.12 -0.12)">
     <use xlink:href="#DejaVuSans-4e"/>
     <use x="74.804688" xlink:href="#DejaVuSans-6f"/>
     <use x="135.986328" xlink:href="#DejaVuSans-72"/>
     <use x="177.099609" xlink:href="#DejaVuSans-74"/>
     <use x="216.308594" xlink:href="#DejaVuSans-68"/>
     <use x="279.6875" xlink:href="#DejaVuSans-65"/>
     <use x="341.210938" xlink:href="#DejaVuSans-61"/>
     <use x="402.490234" xlink:href="#DejaVuSans-73"/>
     <use x="454.589844" xlink:href="#DejaVuSans-74"/>
    </g>
   </g>
  </g>
  <g id="axes_3">
   <g id="patch_12">
    <path d="M 40.03 572.51 
L 433.655 572.51 
L 433.655 314.755 
L 40.03 314.755 
z
" style="fill:#ffffff;"/>
   </g>
   <g id="PolyCollection_3">
    <defs>
     <path d="M 40.03 -183.763482 
L 40.03 -75.49 
L 44.716012 -75.49 
L 49.402024 -75.49 
L 54.088036 -75.49 
L 58.774048 -75.49 
L 63.46006 -75.49 
L 68.146071 -75.49 
L 72.832083 -75.49 
L 77.518095 -75.49 
L 82.204107 -75.49 
L 86.890119 -75.49 
L 91.576131 -75.49 
L 96.262143 -75.49 
L 100.948155 -75.49 
L 105.634167 -75.49 
L 110.320179 -75.49 
L 115.00619 -75.49 
L 119.692202 -75.49 
L 124.378214 -75.49 
L 129.064226 -75.49 
L 133.750238 -75.49 
L 138.43625 -75.49 
L 143.122262 -75.49 
L 147.808274 -75.49 
L 152.494286 -75.49 
L 157.180298 -75.49 
L 161.86631 -75.49 
L 166.552321 -75.49 
L 171.238333 -75.49 
L 175.924345 -75.49 
L 180.610357 -75.49 
L 185.296369 -75.49 
L 189.982381 -75.49 
L 194.668393 -75.49 
L 199.354405 -75.49 
L 204.040417 -75.49 
L 208.726429 -75.49 
L 213.41244 -75.49 
L 218.098452 -75.49 
L 222.784464 -75.49 
L 227.470476 -75.49 
L 232.156488 -75.49 
L 236.8425 -75.49 
L 241.528512 -75.49 
L 246.214524 -75.49 
L 250.900536 -75.49 
L 255.586548 -75.49 
L 260.27256 -75.49 
L 264.958571 -75.49 
L 269.644583 -75.49 
L 274.330595 -75.49 
L 279.016607 -75.49 
L 283.702619 -75.49 
L 288.388631 -75.49 
L 293.074643 -75.49 
L 297.760655 -75.49 
L 302.446667 -75.49 
L 307.132679 -75.49 
L 311.81869 -75.49 
L 316.504702 -75.49 
L 321.190714 -75.49 
L 325.876726 -75.49 
L 330.562738 -75.49 
L 335.24875 -75.49 
L 339.934762 -75.49 
L 344.620774 -75.49 
L 349.306786 -75.49 
L 353.992798 -75.49 
L 358.67881 -75.49 
L 363.364821 -75.49 
L 368.050833 -75.49 
L 372.736845 -75.49 
L 377.422857 -75.49 
L 382.108869 -75.49 
L 386.794881 -75.49 
L 391.480893 -75.49 
L 396.166905 -75.49 
L 400.852917 -75.49 
L 405.538929 -75.49 
L 410.22494 -75.49 
L 414.910952 -75.49 
L 419.596964 -75.49 
L 424.282976 -75.49 
L 428.968988 -75.49 
L 433.655 -75.49 
L 433.655 -159.070502 
L 433.655 -159.070502 
L 428.968988 -162.577661 
L 424.282976 -161.417827 
L 419.596964 -150.352316 
L 414.910952 -145.007379 
L 410.22494 -125.929018 
L 405.538929 -124.063342 
L 400.852917 -129.942158 
L 396.166905 -115.312199 
L 391.480893 -141.419697 
L 386.794881 -105.199361 
L 382.108869 -121.129205 
L 377.422857 -126.28209 
L 372.736845 -113.712771 
L 368.050833 -110.132448 
L 363.364821 -122.090049 
L 358.67881 -106.521202 
L 353.992798 -133.992679 
L 349.306786 -123.349429 
L 344.620774 -115.396265 
L 339.934762 -106.282163 
L 335.24875 -132.413373 
L 330.562738 -94.019005 
L 325.876726 -114.613372 
L 321.190714 -118.451436 
L 316.504702 -113.355183 
L 311.81869 -112.483787 
L 307.132679 -124.141316 
L 302.446667 -123.084831 
L 297.760655 -101.008267 
L 293.074643 -104.436343 
L 288.388631 -110.225355 
L 283.702619 -109.715355 
L 279.016607 -103.086808 
L 274.330595 -105.836232 
L 269.644583 -114.810138 
L 264.958571 -118.967581 
L 260.27256 -114.040447 
L 255.586548 -104.179052 
L 250.900536 -104.621684 
L 246.214524 -118.013073 
L 241.528512 -116.446043 
L 236.8425 -104.914886 
L 232.156488 -103.943824 
L 227.470476 -130.436631 
L 222.784464 -106.142575 
L 218.098452 -116.049684 
L 213.41244 -135.299847 
L 208.726429 -120.579922 
L 204.040417 -118.980331 
L 199.354405 -115.795062 
L 194.668393 -114.48871 
L 189.982381 -118.201232 
L 185.296369 -127.114511 
L 180.610357 -118.422027 
L 175.924345 -142.724445 
L 171.238333 -110.685921 
L 166.552321 -133.197769 
L 161.86631 -140.954846 
L 157.180298 -125.573766 
L 152.494286 -127.460523 
L 147.808274 -115.360752 
L 143.122262 -131.030447 
L 138.43625 -140.021637 
L 133.750238 -142.626791 
L 129.064226 -132.737284 
L 124.378214 -154.813813 
L 119.692202 -131.877645 
L 115.00619 -144.07895 
L 110.320179 -160.021725 
L 105.634167 -158.064726 
L 100.948155 -167.725535 
L 96.262143 -138.39984 
L 91.576131 -126.102486 
L 86.890119 -156.276589 
L 82.204107 -134.518943 
L 77.518095 -164.275647 
L 72.832083 -157.757516 
L 68.146071 -174.17111 
L 63.46006 -151.227225 
L 58.774048 -150.692044 
L 54.088036 -158.246423 
L 49.402024 -150.41116 
L 44.716012 -155.411067 
L 40.03 -183.763482 
z
" id="m23c66b8521" style="stroke:#2ca02c;"/>
    </defs>
    <g clip-path="url(#p72e7660f57)">
     <use style="fill:#2ca02c;stroke:#2ca02c;" x="0" xlink:href="#m23c66b8521" y="648"/>
    </g>
   </g>
   <g id="matplotlib.axis_5">
    <g id="xtick_25">
     <g id="line2d_45">
      <g>
       <use style="stroke:#000000;stroke-width:0.8;" x="40.03" xlink:href="#mdeb490964a" y="572.51"/>
      </g>
     </g>
     <g id="text_12">
      <!-- 2020-04-03 -->
      <defs>
       <path d="M 4.890625 31.390625 
L 31.203125 31.390625 
L 31.203125 23.390625 
L 4.890625 23.390625 
z
" id="DejaVuSans-2d"/>
      </defs>
      <g transform="translate(42.789375 637.625625)rotate(-90)scale(0.1 -0.1)">
       <use xlink:href="#DejaVuSans-32"/>
       <use x="63.623047" xlink:href="#DejaVuSans-30"/>
       <use x="127.246094" xlink:href="#DejaVuSans-32"/>
       <use x="190.869141" xlink:href="#DejaVuSans-30"/>
       <use x="254.492188" xlink:href="#DejaVuSans-2d"/>
       <use x="290.576172" xlink:href="#DejaVuSans-30"/>
       <use x="354.199219" xlink:href="#DejaVuSans-34"/>
       <use x="417.822266" xlink:href="#DejaVuSans-2d"/>
       <use x="453.90625" xlink:href="#DejaVuSans-30"/>
       <use x="517.529297" xlink:href="#DejaVuSans-33"/>
      </g>
     </g>
    </g>
    <g id="xtick_26">
     <g id="line2d_46">
      <g>
       <use style="stroke:#000000;stroke-width:0.8;" x="75.814091" xlink:href="#mdeb490964a" y="572.51"/>
      </g>
     </g>
     <g id="text_13">
      <!-- 2020-04-10 -->
      <g transform="translate(78.573466 637.625625)rotate(-90)scale(0.1 -0.1)">
       <use xlink:href="#DejaVuSans-32"/>
       <use x="63.623047" xlink:href="#DejaVuSans-30"/>
       <use x="127.246094" xlink:href="#DejaVuSans-32"/>
       <use x="190.869141" xlink:href="#DejaVuSans-30"/>
       <use x="254.492188" xlink:href="#DejaVuSans-2d"/>
       <use x="290.576172" xlink:href="#DejaVuSans-30"/>
       <use x="354.199219" xlink:href="#DejaVuSans-34"/>
       <use x="417.822266" xlink:href="#DejaVuSans-2d"/>
       <use x="453.90625" xlink:href="#DejaVuSans-31"/>
       <use x="517.529297" xlink:href="#DejaVuSans-30"/>
      </g>
     </g>
    </g>
    <g id="xtick_27">
     <g id="line2d_47">
      <g>
       <use style="stroke:#000000;stroke-width:0.8;" x="111.598182" xlink:href="#mdeb490964a" y="572.51"/>
      </g>
     </g>
     <g id="text_14">
      <!-- 2020-04-18 -->
      <defs>
       <path d="M 31.78125 34.625 
Q 24.75 34.625 20.71875 30.859375 
Q 16.703125 27.09375 16.703125 20.515625 
Q 16.703125 13.921875 20.71875 10.15625 
Q 24.75 6.390625 31.78125 6.390625 
Q 38.8125 6.390625 42.859375 10.171875 
Q 46.921875 13.96875 46.921875 20.515625 
Q 46.921875 27.09375 42.890625 30.859375 
Q 38.875 34.625 31.78125 34.625 
z
M 21.921875 38.8125 
Q 15.578125 40.375 12.03125 44.71875 
Q 8.5 49.078125 8.5 55.328125 
Q 8.5 64.0625 14.71875 69.140625 
Q 20.953125 74.21875 31.78125 74.21875 
Q 42.671875 74.21875 48.875 69.140625 
Q 55.078125 64.0625 55.078125 55.328125 
Q 55.078125 49.078125 51.53125 44.71875 
Q 48 40.375 41.703125 38.8125 
Q 48.828125 37.15625 52.796875 32.3125 
Q 56.78125 27.484375 56.78125 20.515625 
Q 56.78125 9.90625 50.3125 4.234375 
Q 43.84375 -1.421875 31.78125 -1.421875 
Q 19.734375 -1.421875 13.25 4.234375 
Q 6.78125 9.90625 6.78125 20.515625 
Q 6.78125 27.484375 10.78125 32.3125 
Q 14.796875 37.15625 21.921875 38.8125 
z
M 18.3125 54.390625 
Q 18.3125 48.734375 21.84375 45.5625 
Q 25.390625 42.390625 31.78125 42.390625 
Q 38.140625 42.390625 41.71875 45.5625 
Q 45.3125 48.734375 45.3125 54.390625 
Q 45.3125 60.0625 41.71875 63.234375 
Q 38.140625 66.40625 31.78125 66.40625 
Q 25.390625 66.40625 21.84375 63.234375 
Q 18.3125 60.0625 18.3125 54.390625 
z
" id="DejaVuSans-38"/>
      </defs>
      <g transform="translate(114.357557 637.625625)rotate(-90)scale(0.1 -0.1)">
       <use xlink:href="#DejaVuSans-32"/>
       <use x="63.623047" xlink:href="#DejaVuSans-30"/>
       <use x="127.246094" xlink:href="#DejaVuSans-32"/>
       <use x="190.869141" xlink:href="#DejaVuSans-30"/>
       <use x="254.492188" xlink:href="#DejaVuSans-2d"/>
       <use x="290.576172" xlink:href="#DejaVuSans-30"/>
       <use x="354.199219" xlink:href="#DejaVuSans-34"/>
       <use x="417.822266" xlink:href="#DejaVuSans-2d"/>
       <use x="453.90625" xlink:href="#DejaVuSans-31"/>
       <use x="517.529297" xlink:href="#DejaVuSans-38"/>
      </g>
     </g>
    </g>
    <g id="xtick_28">
     <g id="line2d_48">
      <g>
       <use style="stroke:#000000;stroke-width:0.8;" x="147.382273" xlink:href="#mdeb490964a" y="572.51"/>
      </g>
     </g>
     <g id="text_15">
      <!-- 2020-04-25 -->
      <g transform="translate(150.141648 637.625625)rotate(-90)scale(0.1 -0.1)">
       <use xlink:href="#DejaVuSans-32"/>
       <use x="63.623047" xlink:href="#DejaVuSans-30"/>
       <use x="127.246094" xlink:href="#DejaVuSans-32"/>
       <use x="190.869141" xlink:href="#DejaVuSans-30"/>
       <use x="254.492188" xlink:href="#DejaVuSans-2d"/>
       <use x="290.576172" xlink:href="#DejaVuSans-30"/>
       <use x="354.199219" xlink:href="#DejaVuSans-34"/>
       <use x="417.822266" xlink:href="#DejaVuSans-2d"/>
       <use x="453.90625" xlink:href="#DejaVuSans-32"/>
       <use x="517.529297" xlink:href="#DejaVuSans-35"/>
      </g>
     </g>
    </g>
    <g id="xtick_29">
     <g id="line2d_49">
      <g>
       <use style="stroke:#000000;stroke-width:0.8;" x="183.166364" xlink:href="#mdeb490964a" y="572.51"/>
      </g>
     </g>
     <g id="text_16">
      <!-- 2020-05-03 -->
      <g transform="translate(185.925739 637.625625)rotate(-90)scale(0.1 -0.1)">
       <use xlink:href="#DejaVuSans-32"/>
       <use x="63.623047" xlink:href="#DejaVuSans-30"/>
       <use x="127.246094" xlink:href="#DejaVuSans-32"/>
       <use x="190.869141" xlink:href="#DejaVuSans-30"/>
       <use x="254.492188" xlink:href="#DejaVuSans-2d"/>
       <use x="290.576172" xlink:href="#DejaVuSans-30"/>
       <use x="354.199219" xlink:href="#DejaVuSans-35"/>
       <use x="417.822266" xlink:href="#DejaVuSans-2d"/>
       <use x="453.90625" xlink:href="#DejaVuSans-30"/>
       <use x="517.529297" xlink:href="#DejaVuSans-33"/>
      </g>
     </g>
    </g>
    <g id="xtick_30">
     <g id="line2d_50">
      <g>
       <use style="stroke:#000000;stroke-width:0.8;" x="218.950455" xlink:href="#mdeb490964a" y="572.51"/>
      </g>
     </g>
     <g id="text_17">
      <!-- 2020-05-11 -->
      <g transform="translate(221.70983 637.625625)rotate(-90)scale(0.1 -0.1)">
       <use xlink:href="#DejaVuSans-32"/>
       <use x="63.623047" xlink:href="#DejaVuSans-30"/>
       <use x="127.246094" xlink:href="#DejaVuSans-32"/>
       <use x="190.869141" xlink:href="#DejaVuSans-30"/>
       <use x="254.492188" xlink:href="#DejaVuSans-2d"/>
       <use x="290.576172" xlink:href="#DejaVuSans-30"/>
       <use x="354.199219" xlink:href="#DejaVuSans-35"/>
       <use x="417.822266" xlink:href="#DejaVuSans-2d"/>
       <use x="453.90625" xlink:href="#DejaVuSans-31"/>
       <use x="517.529297" xlink:href="#DejaVuSans-31"/>
      </g>
     </g>
    </g>
    <g id="xtick_31">
     <g id="line2d_51">
      <g>
       <use style="stroke:#000000;stroke-width:0.8;" x="254.734545" xlink:href="#mdeb490964a" y="572.51"/>
      </g>
     </g>
     <g id="text_18">
      <!-- 2020-05-18 -->
      <g transform="translate(257.49392 637.625625)rotate(-90)scale(0.1 -0.1)">
       <use xlink:href="#DejaVuSans-32"/>
       <use x="63.623047" xlink:href="#DejaVuSans-30"/>
       <use x="127.246094" xlink:href="#DejaVuSans-32"/>
       <use x="190.869141" xlink:href="#DejaVuSans-30"/>
       <use x="254.492188" xlink:href="#DejaVuSans-2d"/>
       <use x="290.576172" xlink:href="#DejaVuSans-30"/>
       <use x="354.199219" xlink:href="#DejaVuSans-35"/>
       <use x="417.822266" xlink:href="#DejaVuSans-2d"/>
       <use x="453.90625" xlink:href="#DejaVuSans-31"/>
       <use x="517.529297" xlink:href="#DejaVuSans-38"/>
      </g>
     </g>
    </g>
    <g id="xtick_32">
     <g id="line2d_52">
      <g>
       <use style="stroke:#000000;stroke-width:0.8;" x="290.518636" xlink:href="#mdeb490964a" y="572.51"/>
      </g>
     </g>
     <g id="text_19">
      <!-- 2020-05-26 -->
      <defs>
       <path d="M 33.015625 40.375 
Q 26.375 40.375 22.484375 35.828125 
Q 18.609375 31.296875 18.609375 23.390625 
Q 18.609375 15.53125 22.484375 10.953125 
Q 26.375 6.390625 33.015625 6.390625 
Q 39.65625 6.390625 43.53125 10.953125 
Q 47.40625 15.53125 47.40625 23.390625 
Q 47.40625 31.296875 43.53125 35.828125 
Q 39.65625 40.375 33.015625 40.375 
z
M 52.59375 71.296875 
L 52.59375 62.3125 
Q 48.875 64.0625 45.09375 64.984375 
Q 41.3125 65.921875 37.59375 65.921875 
Q 27.828125 65.921875 22.671875 59.328125 
Q 17.53125 52.734375 16.796875 39.40625 
Q 19.671875 43.65625 24.015625 45.921875 
Q 28.375 48.1875 33.59375 48.1875 
Q 44.578125 48.1875 50.953125 41.515625 
Q 57.328125 34.859375 57.328125 23.390625 
Q 57.328125 12.15625 50.6875 5.359375 
Q 44.046875 -1.421875 33.015625 -1.421875 
Q 20.359375 -1.421875 13.671875 8.265625 
Q 6.984375 17.96875 6.984375 36.375 
Q 6.984375 53.65625 15.1875 63.9375 
Q 23.390625 74.21875 37.203125 74.21875 
Q 40.921875 74.21875 44.703125 73.484375 
Q 48.484375 72.75 52.59375 71.296875 
z
" id="DejaVuSans-36"/>
      </defs>
      <g transform="translate(293.278011 637.625625)rotate(-90)scale(0.1 -0.1)">
       <use xlink:href="#DejaVuSans-32"/>
       <use x="63.623047" xlink:href="#DejaVuSans-30"/>
       <use x="127.246094" xlink:href="#DejaVuSans-32"/>
       <use x="190.869141" xlink:href="#DejaVuSans-30"/>
       <use x="254.492188" xlink:href="#DejaVuSans-2d"/>
       <use x="290.576172" xlink:href="#DejaVuSans-30"/>
       <use x="354.199219" xlink:href="#DejaVuSans-35"/>
       <use x="417.822266" xlink:href="#DejaVuSans-2d"/>
       <use x="453.90625" xlink:href="#DejaVuSans-32"/>
       <use x="517.529297" xlink:href="#DejaVuSans-36"/>
      </g>
     </g>
    </g>
    <g id="xtick_33">
     <g id="line2d_53">
      <g>
       <use style="stroke:#000000;stroke-width:0.8;" x="326.302727" xlink:href="#mdeb490964a" y="572.51"/>
      </g>
     </g>
     <g id="text_20">
      <!-- 2020-06-03 -->
      <g transform="translate(329.062102 637.625625)rotate(-90)scale(0.1 -0.1)">
       <use xlink:href="#DejaVuSans-32"/>
       <use x="63.623047" xlink:href="#DejaVuSans-30"/>
       <use x="127.246094" xlink:href="#DejaVuSans-32"/>
       <use x="190.869141" xlink:href="#DejaVuSans-30"/>
       <use x="254.492188" xlink:href="#DejaVuSans-2d"/>
       <use x="290.576172" xlink:href="#DejaVuSans-30"/>
       <use x="354.199219" xlink:href="#DejaVuSans-36"/>
       <use x="417.822266" xlink:href="#DejaVuSans-2d"/>
       <use x="453.90625" xlink:href="#DejaVuSans-30"/>
       <use x="517.529297" xlink:href="#DejaVuSans-33"/>
      </g>
     </g>
    </g>
    <g id="xtick_34">
     <g id="line2d_54">
      <g>
       <use style="stroke:#000000;stroke-width:0.8;" x="362.086818" xlink:href="#mdeb490964a" y="572.51"/>
      </g>
     </g>
     <g id="text_21">
      <!-- 2020-06-10 -->
      <g transform="translate(364.846193 637.625625)rotate(-90)scale(0.1 -0.1)">
       <use xlink:href="#DejaVuSans-32"/>
       <use x="63.623047" xlink:href="#DejaVuSans-30"/>
       <use x="127.246094" xlink:href="#DejaVuSans-32"/>
       <use x="190.869141" xlink:href="#DejaVuSans-30"/>
       <use x="254.492188" xlink:href="#DejaVuSans-2d"/>
       <use x="290.576172" xlink:href="#DejaVuSans-30"/>
       <use x="354.199219" xlink:href="#DejaVuSans-36"/>
       <use x="417.822266" xlink:href="#DejaVuSans-2d"/>
       <use x="453.90625" xlink:href="#DejaVuSans-31"/>
       <use x="517.529297" xlink:href="#DejaVuSans-30"/>
      </g>
     </g>
    </g>
    <g id="xtick_35">
     <g id="line2d_55">
      <g>
       <use style="stroke:#000000;stroke-width:0.8;" x="397.870909" xlink:href="#mdeb490964a" y="572.51"/>
      </g>
     </g>
     <g id="text_22">
      <!-- 2020-06-18 -->
      <g transform="translate(400.630284 637.625625)rotate(-90)scale(0.1 -0.1)">
       <use xlink:href="#DejaVuSans-32"/>
       <use x="63.623047" xlink:href="#DejaVuSans-30"/>
       <use x="127.246094" xlink:href="#DejaVuSans-32"/>
       <use x="190.869141" xlink:href="#DejaVuSans-30"/>
       <use x="254.492188" xlink:href="#DejaVuSans-2d"/>
       <use x="290.576172" xlink:href="#DejaVuSans-30"/>
       <use x="354.199219" xlink:href="#DejaVuSans-36"/>
       <use x="417.822266" xlink:href="#DejaVuSans-2d"/>
       <use x="453.90625" xlink:href="#DejaVuSans-31"/>
       <use x="517.529297" xlink:href="#DejaVuSans-38"/>
      </g>
     </g>
    </g>
    <g id="xtick_36">
     <g id="line2d_56">
      <g>
       <use style="stroke:#000000;stroke-width:0.8;" x="433.655" xlink:href="#mdeb490964a" y="572.51"/>
      </g>
     </g>
     <g id="text_23">
      <!-- 2020-06-26 -->
      <g transform="translate(436.414375 637.625625)rotate(-90)scale(0.1 -0.1)">
       <use xlink:href="#DejaVuSans-32"/>
       <use x="63.623047" xlink:href="#DejaVuSans-30"/>
       <use x="127.246094" xlink:href="#DejaVuSans-32"/>
       <use x="190.869141" xlink:href="#DejaVuSans-30"/>
       <use x="254.492188" xlink:href="#DejaVuSans-2d"/>
       <use x="290.576172" xlink:href="#DejaVuSans-30"/>
       <use x="354.199219" xlink:href="#DejaVuSans-36"/>
       <use x="417.822266" xlink:href="#DejaVuSans-2d"/>
       <use x="453.90625" xlink:href="#DejaVuSans-32"/>
       <use x="517.529297" xlink:href="#DejaVuSans-36"/>
      </g>
     </g>
    </g>
   </g>
   <g id="matplotlib.axis_6">
    <g id="ytick_19">
     <g id="line2d_57">
      <g>
       <use style="stroke:#000000;stroke-width:0.8;" x="40.03" xlink:href="#m3e0657c8ac" y="572.51"/>
      </g>
     </g>
     <g id="text_24">
      <!-- 0.00 -->
      <g transform="translate(10.764375 576.309219)scale(0.1 -0.1)">
       <use xlink:href="#DejaVuSans-30"/>
       <use x="63.623047" xlink:href="#DejaVuSans-2e"/>
       <use x="95.410156" xlink:href="#DejaVuSans-30"/>
       <use x="159.033203" xlink:href="#DejaVuSans-30"/>
      </g>
     </g>
    </g>
    <g id="ytick_20">
     <g id="line2d_58">
      <g>
       <use style="stroke:#000000;stroke-width:0.8;" x="40.03" xlink:href="#m3e0657c8ac" y="541.299436"/>
      </g>
     </g>
     <g id="text_25">
      <!-- 0.05 -->
      <g transform="translate(10.764375 545.098655)scale(0.1 -0.1)">
       <use xlink:href="#DejaVuSans-30"/>
       <use x="63.623047" xlink:href="#DejaVuSans-2e"/>
       <use x="95.410156" xlink:href="#DejaVuSans-30"/>
       <use x="159.033203" xlink:href="#DejaVuSans-35"/>
      </g>
     </g>
    </g>
    <g id="ytick_21">
     <g id="line2d_59">
      <g>
       <use style="stroke:#000000;stroke-width:0.8;" x="40.03" xlink:href="#m3e0657c8ac" y="510.088873"/>
      </g>
     </g>
     <g id="text_26">
      <!-- 0.10 -->
      <g transform="translate(10.764375 513.888092)scale(0.1 -0.1)">
       <use xlink:href="#DejaVuSans-30"/>
       <use x="63.623047" xlink:href="#DejaVuSans-2e"/>
       <use x="95.410156" xlink:href="#DejaVuSans-31"/>
       <use x="159.033203" xlink:href="#DejaVuSans-30"/>
      </g>
     </g>
    </g>
    <g id="ytick_22">
     <g id="line2d_60">
      <g>
       <use style="stroke:#000000;stroke-width:0.8;" x="40.03" xlink:href="#m3e0657c8ac" y="478.878309"/>
      </g>
     </g>
     <g id="text_27">
      <!-- 0.15 -->
      <g transform="translate(10.764375 482.677528)scale(0.1 -0.1)">
       <use xlink:href="#DejaVuSans-30"/>
       <use x="63.623047" xlink:href="#DejaVuSans-2e"/>
       <use x="95.410156" xlink:href="#DejaVuSans-31"/>
       <use x="159.033203" xlink:href="#DejaVuSans-35"/>
      </g>
     </g>
    </g>
    <g id="ytick_23">
     <g id="line2d_61">
      <g>
       <use style="stroke:#000000;stroke-width:0.8;" x="40.03" xlink:href="#m3e0657c8ac" y="447.667746"/>
      </g>
     </g>
     <g id="text_28">
      <!-- 0.20 -->
      <g transform="translate(10.764375 451.466965)scale(0.1 -0.1)">
       <use xlink:href="#DejaVuSans-30"/>
       <use x="63.623047" xlink:href="#DejaVuSans-2e"/>
       <use x="95.410156" xlink:href="#DejaVuSans-32"/>
       <use x="159.033203" xlink:href="#DejaVuSans-30"/>
      </g>
     </g>
    </g>
    <g id="ytick_24">
     <g id="line2d_62">
      <g>
       <use style="stroke:#000000;stroke-width:0.8;" x="40.03" xlink:href="#m3e0657c8ac" y="416.457182"/>
      </g>
     </g>
     <g id="text_29">
      <!-- 0.25 -->
      <g transform="translate(10.764375 420.256401)scale(0.1 -0.1)">
       <use xlink:href="#DejaVuSans-30"/>
       <use x="63.623047" xlink:href="#DejaVuSans-2e"/>
       <use x="95.410156" xlink:href="#DejaVuSans-32"/>
       <use x="159.033203" xlink:href="#DejaVuSans-35"/>
      </g>
     </g>
    </g>
    <g id="ytick_25">
     <g id="line2d_63">
      <g>
       <use style="stroke:#000000;stroke-width:0.8;" x="40.03" xlink:href="#m3e0657c8ac" y="385.246619"/>
      </g>
     </g>
     <g id="text_30">
      <!-- 0.30 -->
      <g transform="translate(10.764375 389.045838)scale(0.1 -0.1)">
       <use xlink:href="#DejaVuSans-30"/>
       <use x="63.623047" xlink:href="#DejaVuSans-2e"/>
       <use x="95.410156" xlink:href="#DejaVuSans-33"/>
       <use x="159.033203" xlink:href="#DejaVuSans-30"/>
      </g>
     </g>
    </g>
    <g id="ytick_26">
     <g id="line2d_64">
      <g>
       <use style="stroke:#000000;stroke-width:0.8;" x="40.03" xlink:href="#m3e0657c8ac" y="354.036055"/>
      </g>
     </g>
     <g id="text_31">
      <!-- 0.35 -->
      <g transform="translate(10.764375 357.835274)scale(0.1 -0.1)">
       <use xlink:href="#DejaVuSans-30"/>
       <use x="63.623047" xlink:href="#DejaVuSans-2e"/>
       <use x="95.410156" xlink:href="#DejaVuSans-33"/>
       <use x="159.033203" xlink:href="#DejaVuSans-35"/>
      </g>
     </g>
    </g>
    <g id="ytick_27">
     <g id="line2d_65">
      <g>
       <use style="stroke:#000000;stroke-width:0.8;" x="40.03" xlink:href="#m3e0657c8ac" y="322.825492"/>
      </g>
     </g>
     <g id="text_32">
      <!-- 0.40 -->
      <g transform="translate(10.764375 326.624711)scale(0.1 -0.1)">
       <use xlink:href="#DejaVuSans-30"/>
       <use x="63.623047" xlink:href="#DejaVuSans-2e"/>
       <use x="95.410156" xlink:href="#DejaVuSans-34"/>
       <use x="159.033203" xlink:href="#DejaVuSans-30"/>
      </g>
     </g>
    </g>
   </g>
   <g id="line2d_66">
    <path clip-path="url(#p72e7660f57)" d="M 40.03 464.236518 
L 44.716012 492.588933 
L 49.402024 497.58884 
L 54.088036 489.753577 
L 58.774048 497.307956 
L 63.46006 496.772775 
L 68.146071 473.82889 
L 72.832083 490.242484 
L 77.518095 483.724353 
L 82.204107 513.481057 
L 86.890119 491.723411 
L 91.576131 521.897514 
L 96.262143 509.60016 
L 100.948155 480.274465 
L 105.634167 489.935274 
L 110.320179 487.978275 
L 115.00619 503.92105 
L 119.692202 516.122355 
L 124.378214 493.186187 
L 129.064226 515.262716 
L 133.750238 505.373209 
L 138.43625 507.978363 
L 143.122262 516.969553 
L 147.808274 532.639248 
L 152.494286 520.539477 
L 157.180298 522.426234 
L 161.86631 507.045154 
L 166.552321 514.802231 
L 171.238333 537.314079 
L 175.924345 505.275555 
L 180.610357 529.577973 
L 185.296369 520.885489 
L 189.982381 529.798768 
L 194.668393 533.51129 
L 199.354405 532.204938 
L 204.040417 529.019669 
L 208.726429 527.420078 
L 213.41244 512.700153 
L 218.098452 531.950316 
L 222.784464 541.857425 
L 227.470476 517.563369 
L 232.156488 544.056176 
L 236.8425 543.085114 
L 241.528512 531.553957 
L 246.214524 529.986927 
L 250.900536 543.378316 
L 255.586548 543.820948 
L 260.27256 533.959553 
L 264.958571 529.032419 
L 269.644583 533.189862 
L 274.330595 542.163768 
L 279.016607 544.913192 
L 283.702619 538.284645 
L 288.388631 537.774645 
L 293.074643 543.563657 
L 297.760655 546.991733 
L 302.446667 524.915169 
L 307.132679 523.858684 
L 311.81869 535.516213 
L 316.504702 534.644817 
L 321.190714 529.548564 
L 325.876726 533.386628 
L 330.562738 553.980995 
L 335.24875 515.586627 
L 339.934762 541.717837 
L 344.620774 532.603735 
L 349.306786 524.650571 
L 353.992798 514.007321 
L 358.67881 541.478798 
L 363.364821 525.909951 
L 368.050833 537.867552 
L 372.736845 534.287229 
L 377.422857 521.71791 
L 382.108869 526.870795 
L 386.794881 542.800639 
L 391.480893 506.580303 
L 396.166905 532.687801 
L 400.852917 518.057842 
L 405.538929 523.936658 
L 410.22494 522.070982 
L 414.910952 502.992621 
L 419.596964 497.647684 
L 424.282976 486.582173 
L 428.968988 485.422339 
L 433.655 488.929498 
" style="fill:none;stroke:#2ca02c;stroke-linecap:square;stroke-width:1.5;"/>
   </g>
   <g id="patch_13">
    <path d="M 40.03 572.51 
L 40.03 314.755 
" style="fill:none;stroke:#000000;stroke-linecap:square;stroke-linejoin:miter;stroke-width:0.8;"/>
   </g>
   <g id="patch_14">
    <path d="M 433.655 572.51 
L 433.655 314.755 
" style="fill:none;stroke:#000000;stroke-linecap:square;stroke-linejoin:miter;stroke-width:0.8;"/>
   </g>
   <g id="patch_15">
    <path d="M 40.03 572.51 
L 433.655 572.51 
" style="fill:none;stroke:#000000;stroke-linecap:square;stroke-linejoin:miter;stroke-width:0.8;"/>
   </g>
   <g id="patch_16">
    <path d="M 40.03 314.755 
L 433.655 314.755 
" style="fill:none;stroke:#000000;stroke-linecap:square;stroke-linejoin:miter;stroke-width:0.8;"/>
   </g>
   <g id="text_33">
    <!-- South -->
    <defs>
     <path d="M 53.515625 70.515625 
L 53.515625 60.890625 
Q 47.90625 63.578125 42.921875 64.890625 
Q 37.9375 66.21875 33.296875 66.21875 
Q 25.25 66.21875 20.875 63.09375 
Q 16.5 59.96875 16.5 54.203125 
Q 16.5 49.359375 19.40625 46.890625 
Q 22.3125 44.4375 30.421875 42.921875 
L 36.375 41.703125 
Q 47.40625 39.59375 52.65625 34.296875 
Q 57.90625 29 57.90625 20.125 
Q 57.90625 9.515625 50.796875 4.046875 
Q 43.703125 -1.421875 29.984375 -1.421875 
Q 24.8125 -1.421875 18.96875 -0.25 
Q 13.140625 0.921875 6.890625 3.21875 
L 6.890625 13.375 
Q 12.890625 10.015625 18.65625 8.296875 
Q 24.421875 6.59375 29.984375 6.59375 
Q 38.421875 6.59375 43.015625 9.90625 
Q 47.609375 13.234375 47.609375 19.390625 
Q 47.609375 24.75 44.3125 27.78125 
Q 41.015625 30.8125 33.5 32.328125 
L 27.484375 33.5 
Q 16.453125 35.6875 11.515625 40.375 
Q 6.59375 45.0625 6.59375 53.421875 
Q 6.59375 63.09375 13.40625 68.65625 
Q 20.21875 74.21875 32.171875 74.21875 
Q 37.3125 74.21875 42.625 73.28125 
Q 47.953125 72.359375 53.515625 70.515625 
z
" id="DejaVuSans-53"/>
     <path d="M 8.5 21.578125 
L 8.5 54.6875 
L 17.484375 54.6875 
L 17.484375 21.921875 
Q 17.484375 14.15625 20.5 10.265625 
Q 23.53125 6.390625 29.59375 6.390625 
Q 36.859375 6.390625 41.078125 11.03125 
Q 45.3125 15.671875 45.3125 23.6875 
L 45.3125 54.6875 
L 54.296875 54.6875 
L 54.296875 0 
L 45.3125 0 
L 45.3125 8.40625 
Q 42.046875 3.421875 37.71875 1 
Q 33.40625 -1.421875 27.6875 -1.421875 
Q 18.265625 -1.421875 13.375 4.4375 
Q 8.5 10.296875 8.5 21.578125 
z
M 31.109375 56 
z
" id="DejaVuSans-75"/>
    </defs>
    <g transform="translate(219.405 308.755)scale(0.12 -0.12)">
     <use xlink:href="#DejaVuSans-53"/>
     <use x="63.476562" xlink:href="#DejaVuSans-6f"/>
     <use x="124.658203" xlink:href="#DejaVuSans-75"/>
     <use x="188.037109" xlink:href="#DejaVuSans-74"/>
     <use x="227.246094" xlink:href="#DejaVuSans-68"/>
    </g>
   </g>
  </g>
  <g id="axes_4">
   <g id="patch_17">
    <path d="M 454.535 572.51 
L 848.16 572.51 
L 848.16 314.755 
L 454.535 314.755 
z
" style="fill:#ffffff;"/>
   </g>
   <g id="PolyCollection_4">
    <defs>
     <path d="M 454.535 -177.896562 
L 454.535 -75.49 
L 459.221012 -75.49 
L 463.907024 -75.49 
L 468.593036 -75.49 
L 473.279048 -75.49 
L 477.96506 -75.49 
L 482.651071 -75.49 
L 487.337083 -75.49 
L 492.023095 -75.49 
L 496.709107 -75.49 
L 501.395119 -75.49 
L 506.081131 -75.49 
L 510.767143 -75.49 
L 515.453155 -75.49 
L 520.139167 -75.49 
L 524.825179 -75.49 
L 529.51119 -75.49 
L 534.197202 -75.49 
L 538.883214 -75.49 
L 543.569226 -75.49 
L 548.255238 -75.49 
L 552.94125 -75.49 
L 557.627262 -75.49 
L 562.313274 -75.49 
L 566.999286 -75.49 
L 571.685298 -75.49 
L 576.37131 -75.49 
L 581.057321 -75.49 
L 585.743333 -75.49 
L 590.429345 -75.49 
L 595.115357 -75.49 
L 599.801369 -75.49 
L 604.487381 -75.49 
L 609.173393 -75.49 
L 613.859405 -75.49 
L 618.545417 -75.49 
L 623.231429 -75.49 
L 627.91744 -75.49 
L 632.603452 -75.49 
L 637.289464 -75.49 
L 641.975476 -75.49 
L 646.661488 -75.49 
L 651.3475 -75.49 
L 656.033512 -75.49 
L 660.719524 -75.49 
L 665.405536 -75.49 
L 670.091548 -75.49 
L 674.77756 -75.49 
L 679.463571 -75.49 
L 684.149583 -75.49 
L 688.835595 -75.49 
L 693.521607 -75.49 
L 698.207619 -75.49 
L 702.893631 -75.49 
L 707.579643 -75.49 
L 712.265655 -75.49 
L 716.951667 -75.49 
L 721.637679 -75.49 
L 726.32369 -75.49 
L 731.009702 -75.49 
L 735.695714 -75.49 
L 740.381726 -75.49 
L 745.067738 -75.49 
L 749.75375 -75.49 
L 754.439762 -75.49 
L 759.125774 -75.49 
L 763.811786 -75.49 
L 768.497798 -75.49 
L 773.18381 -75.49 
L 777.869821 -75.49 
L 782.555833 -75.49 
L 787.241845 -75.49 
L 791.927857 -75.49 
L 796.613869 -75.49 
L 801.299881 -75.49 
L 805.985893 -75.49 
L 810.671905 -75.49 
L 815.357917 -75.49 
L 820.043929 -75.49 
L 824.72994 -75.49 
L 829.415952 -75.49 
L 834.101964 -75.49 
L 838.787976 -75.49 
L 843.473988 -75.49 
L 848.16 -75.49 
L 848.16 -117.966853 
L 848.16 -117.966853 
L 843.473988 -125.885036 
L 838.787976 -120.414618 
L 834.101964 -116.420256 
L 829.415952 -122.14433 
L 824.72994 -122.03433 
L 820.043929 -122.563663 
L 815.357917 -118.639031 
L 810.671905 -118.824579 
L 805.985893 -109.029498 
L 801.299881 -102.307659 
L 796.613869 -103.77889 
L 791.927857 -112.322036 
L 787.241845 -105.320352 
L 782.555833 -108.996735 
L 777.869821 -109.717883 
L 773.18381 -103.053051 
L 768.497798 -103.448176 
L 763.811786 -107.721485 
L 759.125774 -108.402757 
L 754.439762 -110.049297 
L 749.75375 -103.585199 
L 745.067738 -104.044673 
L 740.381726 -103.610342 
L 735.695714 -98.301118 
L 731.009702 -106.607504 
L 726.32369 -109.87092 
L 721.637679 -108.346409 
L 716.951667 -106.384224 
L 712.265655 -108.245766 
L 707.579643 -99.926032 
L 702.893631 -94.961046 
L 698.207619 -89.458853 
L 693.521607 -121.973776 
L 688.835595 -100.55632 
L 684.149583 -103.444075 
L 679.463571 -106.602037 
L 674.77756 -94.58908 
L 670.091548 -94.253963 
L 665.405536 -100.297196 
L 660.719524 -102.665771 
L 656.033512 -108.552935 
L 651.3475 -95.569006 
L 646.661488 -135.830449 
L 641.975476 -97.755855 
L 637.289464 -100.276619 
L 632.603452 -101.193732 
L 627.91744 -105.840289 
L 623.231429 -110.47857 
L 618.545417 -108.038403 
L 613.859405 -114.397545 
L 609.173393 -108.9075 
L 604.487381 -106.613084 
L 599.801369 -110.101119 
L 595.115357 -111.937802 
L 590.429345 -110.196258 
L 585.743333 -135.289691 
L 581.057321 -114.156459 
L 576.37131 -118.855975 
L 571.685298 -110.4144 
L 566.999286 -108.075799 
L 562.313274 -122.622302 
L 557.627262 -88.950706 
L 552.94125 -121.960634 
L 548.255238 -164.988898 
L 543.569226 -162.086873 
L 538.883214 -155.419904 
L 534.197202 -101.524636 
L 529.51119 -140.313299 
L 524.825179 -131.441561 
L 520.139167 -136.348855 
L 515.453155 -138.963308 
L 510.767143 -107.931944 
L 506.081131 -125.406494 
L 501.395119 -143.071616 
L 496.709107 -153.422082 
L 492.023095 -148.215146 
L 487.337083 -162.703923 
L 482.651071 -150.946197 
L 477.96506 -151.689105 
L 473.279048 -120.701386 
L 468.593036 -145.875067 
L 463.907024 -124.778548 
L 459.221012 -155.522104 
L 454.535 -177.896562 
z
" id="m68b7152e99" style="stroke:#d62728;"/>
    </defs>
    <g clip-path="url(#pe7a0371574)">
     <use style="fill:#d62728;stroke:#d62728;" x="0" xlink:href="#m68b7152e99" y="648"/>
    </g>
   </g>
   <g id="matplotlib.axis_7">
    <g id="xtick_37">
     <g id="line2d_67">
      <g>
       <use style="stroke:#000000;stroke-width:0.8;" x="454.535" xlink:href="#mdeb490964a" y="572.51"/>
      </g>
     </g>
     <g id="text_34">
      <!-- 2020-04-03 -->
      <g transform="translate(457.294375 637.625625)rotate(-90)scale(0.1 -0.1)">
       <use xlink:href="#DejaVuSans-32"/>
       <use x="63.623047" xlink:href="#DejaVuSans-30"/>
       <use x="127.246094" xlink:href="#DejaVuSans-32"/>
       <use x="190.869141" xlink:href="#DejaVuSans-30"/>
       <use x="254.492188" xlink:href="#DejaVuSans-2d"/>
       <use x="290.576172" xlink:href="#DejaVuSans-30"/>
       <use x="354.199219" xlink:href="#DejaVuSans-34"/>
       <use x="417.822266" xlink:href="#DejaVuSans-2d"/>
       <use x="453.90625" xlink:href="#DejaVuSans-30"/>
       <use x="517.529297" xlink:href="#DejaVuSans-33"/>
      </g>
     </g>
    </g>
    <g id="xtick_38">
     <g id="line2d_68">
      <g>
       <use style="stroke:#000000;stroke-width:0.8;" x="490.319091" xlink:href="#mdeb490964a" y="572.51"/>
      </g>
     </g>
     <g id="text_35">
      <!-- 2020-04-10 -->
      <g transform="translate(493.078466 637.625625)rotate(-90)scale(0.1 -0.1)">
       <use xlink:href="#DejaVuSans-32"/>
       <use x="63.623047" xlink:href="#DejaVuSans-30"/>
       <use x="127.246094" xlink:href="#DejaVuSans-32"/>
       <use x="190.869141" xlink:href="#DejaVuSans-30"/>
       <use x="254.492188" xlink:href="#DejaVuSans-2d"/>
       <use x="290.576172" xlink:href="#DejaVuSans-30"/>
       <use x="354.199219" xlink:href="#DejaVuSans-34"/>
       <use x="417.822266" xlink:href="#DejaVuSans-2d"/>
       <use x="453.90625" xlink:href="#DejaVuSans-31"/>
       <use x="517.529297" xlink:href="#DejaVuSans-30"/>
      </g>
     </g>
    </g>
    <g id="xtick_39">
     <g id="line2d_69">
      <g>
       <use style="stroke:#000000;stroke-width:0.8;" x="526.103182" xlink:href="#mdeb490964a" y="572.51"/>
      </g>
     </g>
     <g id="text_36">
      <!-- 2020-04-18 -->
      <g transform="translate(528.862557 637.625625)rotate(-90)scale(0.1 -0.1)">
       <use xlink:href="#DejaVuSans-32"/>
       <use x="63.623047" xlink:href="#DejaVuSans-30"/>
       <use x="127.246094" xlink:href="#DejaVuSans-32"/>
       <use x="190.869141" xlink:href="#DejaVuSans-30"/>
       <use x="254.492188" xlink:href="#DejaVuSans-2d"/>
       <use x="290.576172" xlink:href="#DejaVuSans-30"/>
       <use x="354.199219" xlink:href="#DejaVuSans-34"/>
       <use x="417.822266" xlink:href="#DejaVuSans-2d"/>
       <use x="453.90625" xlink:href="#DejaVuSans-31"/>
       <use x="517.529297" xlink:href="#DejaVuSans-38"/>
      </g>
     </g>
    </g>
    <g id="xtick_40">
     <g id="line2d_70">
      <g>
       <use style="stroke:#000000;stroke-width:0.8;" x="561.887273" xlink:href="#mdeb490964a" y="572.51"/>
      </g>
     </g>
     <g id="text_37">
      <!-- 2020-04-25 -->
      <g transform="translate(564.646648 637.625625)rotate(-90)scale(0.1 -0.1)">
       <use xlink:href="#DejaVuSans-32"/>
       <use x="63.623047" xlink:href="#DejaVuSans-30"/>
       <use x="127.246094" xlink:href="#DejaVuSans-32"/>
       <use x="190.869141" xlink:href="#DejaVuSans-30"/>
       <use x="254.492188" xlink:href="#DejaVuSans-2d"/>
       <use x="290.576172" xlink:href="#DejaVuSans-30"/>
       <use x="354.199219" xlink:href="#DejaVuSans-34"/>
       <use x="417.822266" xlink:href="#DejaVuSans-2d"/>
       <use x="453.90625" xlink:href="#DejaVuSans-32"/>
       <use x="517.529297" xlink:href="#DejaVuSans-35"/>
      </g>
     </g>
    </g>
    <g id="xtick_41">
     <g id="line2d_71">
      <g>
       <use style="stroke:#000000;stroke-width:0.8;" x="597.671364" xlink:href="#mdeb490964a" y="572.51"/>
      </g>
     </g>
     <g id="text_38">
      <!-- 2020-05-03 -->
      <g transform="translate(600.430739 637.625625)rotate(-90)scale(0.1 -0.1)">
       <use xlink:href="#DejaVuSans-32"/>
       <use x="63.623047" xlink:href="#DejaVuSans-30"/>
       <use x="127.246094" xlink:href="#DejaVuSans-32"/>
       <use x="190.869141" xlink:href="#DejaVuSans-30"/>
       <use x="254.492188" xlink:href="#DejaVuSans-2d"/>
       <use x="290.576172" xlink:href="#DejaVuSans-30"/>
       <use x="354.199219" xlink:href="#DejaVuSans-35"/>
       <use x="417.822266" xlink:href="#DejaVuSans-2d"/>
       <use x="453.90625" xlink:href="#DejaVuSans-30"/>
       <use x="517.529297" xlink:href="#DejaVuSans-33"/>
      </g>
     </g>
    </g>
    <g id="xtick_42">
     <g id="line2d_72">
      <g>
       <use style="stroke:#000000;stroke-width:0.8;" x="633.455455" xlink:href="#mdeb490964a" y="572.51"/>
      </g>
     </g>
     <g id="text_39">
      <!-- 2020-05-11 -->
      <g transform="translate(636.21483 637.625625)rotate(-90)scale(0.1 -0.1)">
       <use xlink:href="#DejaVuSans-32"/>
       <use x="63.623047" xlink:href="#DejaVuSans-30"/>
       <use x="127.246094" xlink:href="#DejaVuSans-32"/>
       <use x="190.869141" xlink:href="#DejaVuSans-30"/>
       <use x="254.492188" xlink:href="#DejaVuSans-2d"/>
       <use x="290.576172" xlink:href="#DejaVuSans-30"/>
       <use x="354.199219" xlink:href="#DejaVuSans-35"/>
       <use x="417.822266" xlink:href="#DejaVuSans-2d"/>
       <use x="453.90625" xlink:href="#DejaVuSans-31"/>
       <use x="517.529297" xlink:href="#DejaVuSans-31"/>
      </g>
     </g>
    </g>
    <g id="xtick_43">
     <g id="line2d_73">
      <g>
       <use style="stroke:#000000;stroke-width:0.8;" x="669.239545" xlink:href="#mdeb490964a" y="572.51"/>
      </g>
     </g>
     <g id="text_40">
      <!-- 2020-05-18 -->
      <g transform="translate(671.99892 637.625625)rotate(-90)scale(0.1 -0.1)">
       <use xlink:href="#DejaVuSans-32"/>
       <use x="63.623047" xlink:href="#DejaVuSans-30"/>
       <use x="127.246094" xlink:href="#DejaVuSans-32"/>
       <use x="190.869141" xlink:href="#DejaVuSans-30"/>
       <use x="254.492188" xlink:href="#DejaVuSans-2d"/>
       <use x="290.576172" xlink:href="#DejaVuSans-30"/>
       <use x="354.199219" xlink:href="#DejaVuSans-35"/>
       <use x="417.822266" xlink:href="#DejaVuSans-2d"/>
       <use x="453.90625" xlink:href="#DejaVuSans-31"/>
       <use x="517.529297" xlink:href="#DejaVuSans-38"/>
      </g>
     </g>
    </g>
    <g id="xtick_44">
     <g id="line2d_74">
      <g>
       <use style="stroke:#000000;stroke-width:0.8;" x="705.023636" xlink:href="#mdeb490964a" y="572.51"/>
      </g>
     </g>
     <g id="text_41">
      <!-- 2020-05-26 -->
      <g transform="translate(707.783011 637.625625)rotate(-90)scale(0.1 -0.1)">
       <use xlink:href="#DejaVuSans-32"/>
       <use x="63.623047" xlink:href="#DejaVuSans-30"/>
       <use x="127.246094" xlink:href="#DejaVuSans-32"/>
       <use x="190.869141" xlink:href="#DejaVuSans-30"/>
       <use x="254.492188" xlink:href="#DejaVuSans-2d"/>
       <use x="290.576172" xlink:href="#DejaVuSans-30"/>
       <use x="354.199219" xlink:href="#DejaVuSans-35"/>
       <use x="417.822266" xlink:href="#DejaVuSans-2d"/>
       <use x="453.90625" xlink:href="#DejaVuSans-32"/>
       <use x="517.529297" xlink:href="#DejaVuSans-36"/>
      </g>
     </g>
    </g>
    <g id="xtick_45">
     <g id="line2d_75">
      <g>
       <use style="stroke:#000000;stroke-width:0.8;" x="740.807727" xlink:href="#mdeb490964a" y="572.51"/>
      </g>
     </g>
     <g id="text_42">
      <!-- 2020-06-03 -->
      <g transform="translate(743.567102 637.625625)rotate(-90)scale(0.1 -0.1)">
       <use xlink:href="#DejaVuSans-32"/>
       <use x="63.623047" xlink:href="#DejaVuSans-30"/>
       <use x="127.246094" xlink:href="#DejaVuSans-32"/>
       <use x="190.869141" xlink:href="#DejaVuSans-30"/>
       <use x="254.492188" xlink:href="#DejaVuSans-2d"/>
       <use x="290.576172" xlink:href="#DejaVuSans-30"/>
       <use x="354.199219" xlink:href="#DejaVuSans-36"/>
       <use x="417.822266" xlink:href="#DejaVuSans-2d"/>
       <use x="453.90625" xlink:href="#DejaVuSans-30"/>
       <use x="517.529297" xlink:href="#DejaVuSans-33"/>
      </g>
     </g>
    </g>
    <g id="xtick_46">
     <g id="line2d_76">
      <g>
       <use style="stroke:#000000;stroke-width:0.8;" x="776.591818" xlink:href="#mdeb490964a" y="572.51"/>
      </g>
     </g>
     <g id="text_43">
      <!-- 2020-06-10 -->
      <g transform="translate(779.351193 637.625625)rotate(-90)scale(0.1 -0.1)">
       <use xlink:href="#DejaVuSans-32"/>
       <use x="63.623047" xlink:href="#DejaVuSans-30"/>
       <use x="127.246094" xlink:href="#DejaVuSans-32"/>
       <use x="190.869141" xlink:href="#DejaVuSans-30"/>
       <use x="254.492188" xlink:href="#DejaVuSans-2d"/>
       <use x="290.576172" xlink:href="#DejaVuSans-30"/>
       <use x="354.199219" xlink:href="#DejaVuSans-36"/>
       <use x="417.822266" xlink:href="#DejaVuSans-2d"/>
       <use x="453.90625" xlink:href="#DejaVuSans-31"/>
       <use x="517.529297" xlink:href="#DejaVuSans-30"/>
      </g>
     </g>
    </g>
    <g id="xtick_47">
     <g id="line2d_77">
      <g>
       <use style="stroke:#000000;stroke-width:0.8;" x="812.375909" xlink:href="#mdeb490964a" y="572.51"/>
      </g>
     </g>
     <g id="text_44">
      <!-- 2020-06-18 -->
      <g transform="translate(815.135284 637.625625)rotate(-90)scale(0.1 -0.1)">
       <use xlink:href="#DejaVuSans-32"/>
       <use x="63.623047" xlink:href="#DejaVuSans-30"/>
       <use x="127.246094" xlink:href="#DejaVuSans-32"/>
       <use x="190.869141" xlink:href="#DejaVuSans-30"/>
       <use x="254.492188" xlink:href="#DejaVuSans-2d"/>
       <use x="290.576172" xlink:href="#DejaVuSans-30"/>
       <use x="354.199219" xlink:href="#DejaVuSans-36"/>
       <use x="417.822266" xlink:href="#DejaVuSans-2d"/>
       <use x="453.90625" xlink:href="#DejaVuSans-31"/>
       <use x="517.529297" xlink:href="#DejaVuSans-38"/>
      </g>
     </g>
    </g>
    <g id="xtick_48">
     <g id="line2d_78">
      <g>
       <use style="stroke:#000000;stroke-width:0.8;" x="848.16" xlink:href="#mdeb490964a" y="572.51"/>
      </g>
     </g>
     <g id="text_45">
      <!-- 2020-06-26 -->
      <g transform="translate(850.919375 637.625625)rotate(-90)scale(0.1 -0.1)">
       <use xlink:href="#DejaVuSans-32"/>
       <use x="63.623047" xlink:href="#DejaVuSans-30"/>
       <use x="127.246094" xlink:href="#DejaVuSans-32"/>
       <use x="190.869141" xlink:href="#DejaVuSans-30"/>
       <use x="254.492188" xlink:href="#DejaVuSans-2d"/>
       <use x="290.576172" xlink:href="#DejaVuSans-30"/>
       <use x="354.199219" xlink:href="#DejaVuSans-36"/>
       <use x="417.822266" xlink:href="#DejaVuSans-2d"/>
       <use x="453.90625" xlink:href="#DejaVuSans-32"/>
       <use x="517.529297" xlink:href="#DejaVuSans-36"/>
      </g>
     </g>
    </g>
   </g>
   <g id="matplotlib.axis_8">
    <g id="ytick_28">
     <g id="line2d_79">
      <g>
       <use style="stroke:#000000;stroke-width:0.8;" x="454.535" xlink:href="#m3e0657c8ac" y="572.51"/>
      </g>
     </g>
    </g>
    <g id="ytick_29">
     <g id="line2d_80">
      <g>
       <use style="stroke:#000000;stroke-width:0.8;" x="454.535" xlink:href="#m3e0657c8ac" y="541.299436"/>
      </g>
     </g>
    </g>
    <g id="ytick_30">
     <g id="line2d_81">
      <g>
       <use style="stroke:#000000;stroke-width:0.8;" x="454.535" xlink:href="#m3e0657c8ac" y="510.088873"/>
      </g>
     </g>
    </g>
    <g id="ytick_31">
     <g id="line2d_82">
      <g>
       <use style="stroke:#000000;stroke-width:0.8;" x="454.535" xlink:href="#m3e0657c8ac" y="478.878309"/>
      </g>
     </g>
    </g>
    <g id="ytick_32">
     <g id="line2d_83">
      <g>
       <use style="stroke:#000000;stroke-width:0.8;" x="454.535" xlink:href="#m3e0657c8ac" y="447.667746"/>
      </g>
     </g>
    </g>
    <g id="ytick_33">
     <g id="line2d_84">
      <g>
       <use style="stroke:#000000;stroke-width:0.8;" x="454.535" xlink:href="#m3e0657c8ac" y="416.457182"/>
      </g>
     </g>
    </g>
    <g id="ytick_34">
     <g id="line2d_85">
      <g>
       <use style="stroke:#000000;stroke-width:0.8;" x="454.535" xlink:href="#m3e0657c8ac" y="385.246619"/>
      </g>
     </g>
    </g>
    <g id="ytick_35">
     <g id="line2d_86">
      <g>
       <use style="stroke:#000000;stroke-width:0.8;" x="454.535" xlink:href="#m3e0657c8ac" y="354.036055"/>
      </g>
     </g>
    </g>
    <g id="ytick_36">
     <g id="line2d_87">
      <g>
       <use style="stroke:#000000;stroke-width:0.8;" x="454.535" xlink:href="#m3e0657c8ac" y="322.825492"/>
      </g>
     </g>
    </g>
   </g>
   <g id="line2d_88">
    <path clip-path="url(#pe7a0371574)" d="M 454.535 470.103438 
L 459.221012 492.477896 
L 463.907024 523.221452 
L 468.593036 502.124933 
L 473.279048 527.298614 
L 477.96506 496.310895 
L 482.651071 497.053803 
L 487.337083 485.296077 
L 492.023095 499.784854 
L 496.709107 494.577918 
L 501.395119 504.928384 
L 506.081131 522.593506 
L 510.767143 540.068056 
L 515.453155 509.036692 
L 520.139167 511.651145 
L 524.825179 516.558439 
L 529.51119 507.686701 
L 534.197202 546.475364 
L 538.883214 492.580096 
L 543.569226 485.913127 
L 548.255238 483.011102 
L 552.94125 526.039366 
L 557.627262 559.049294 
L 562.313274 525.377698 
L 566.999286 539.924201 
L 571.685298 537.5856 
L 576.37131 529.144025 
L 581.057321 533.843541 
L 585.743333 512.710309 
L 590.429345 537.803742 
L 595.115357 536.062198 
L 599.801369 537.898881 
L 604.487381 541.386916 
L 609.173393 539.0925 
L 613.859405 533.602455 
L 618.545417 539.961597 
L 623.231429 537.52143 
L 627.91744 542.159711 
L 632.603452 546.806268 
L 637.289464 547.723381 
L 641.975476 550.244145 
L 646.661488 512.169551 
L 651.3475 552.430994 
L 656.033512 539.447065 
L 660.719524 545.334229 
L 665.405536 547.702804 
L 670.091548 553.746037 
L 674.77756 553.41092 
L 679.463571 541.397963 
L 684.149583 544.555925 
L 688.835595 547.44368 
L 693.521607 526.026224 
L 698.207619 558.541147 
L 702.893631 553.038954 
L 707.579643 548.073968 
L 712.265655 539.754234 
L 716.951667 541.615776 
L 721.637679 539.653591 
L 726.32369 538.12908 
L 731.009702 541.392496 
L 735.695714 549.698882 
L 740.381726 544.389658 
L 745.067738 543.955327 
L 749.75375 544.414801 
L 754.439762 537.950703 
L 759.125774 539.597243 
L 763.811786 540.278515 
L 768.497798 544.551824 
L 773.18381 544.946949 
L 777.869821 538.282117 
L 782.555833 539.003265 
L 787.241845 542.679648 
L 791.927857 535.677964 
L 796.613869 544.22111 
L 801.299881 545.692341 
L 805.985893 538.970502 
L 810.671905 529.175421 
L 815.357917 529.360969 
L 820.043929 525.436337 
L 824.72994 525.96567 
L 829.415952 525.85567 
L 834.101964 531.579744 
L 838.787976 527.585382 
L 843.473988 522.114964 
L 848.16 530.033147 
" style="fill:none;stroke:#d62728;stroke-linecap:square;stroke-width:1.5;"/>
   </g>
   <g id="patch_18">
    <path d="M 454.535 572.51 
L 454.535 314.755 
" style="fill:none;stroke:#000000;stroke-linecap:square;stroke-linejoin:miter;stroke-width:0.8;"/>
   </g>
   <g id="patch_19">
    <path d="M 848.16 572.51 
L 848.16 314.755 
" style="fill:none;stroke:#000000;stroke-linecap:square;stroke-linejoin:miter;stroke-width:0.8;"/>
   </g>
   <g id="patch_20">
    <path d="M 454.535 572.51 
L 848.16 572.51 
" style="fill:none;stroke:#000000;stroke-linecap:square;stroke-linejoin:miter;stroke-width:0.8;"/>
   </g>
   <g id="patch_21">
    <path d="M 454.535 314.755 
L 848.16 314.755 
" style="fill:none;stroke:#000000;stroke-linecap:square;stroke-linejoin:miter;stroke-width:0.8;"/>
   </g>
   <g id="text_46">
    <!-- West -->
    <defs>
     <path d="M 3.328125 72.90625 
L 13.28125 72.90625 
L 28.609375 11.28125 
L 43.890625 72.90625 
L 54.984375 72.90625 
L 70.3125 11.28125 
L 85.59375 72.90625 
L 95.609375 72.90625 
L 77.296875 0 
L 64.890625 0 
L 49.515625 63.28125 
L 33.984375 0 
L 21.578125 0 
z
" id="DejaVuSans-57"/>
    </defs>
    <g transform="translate(636.25 308.755)scale(0.12 -0.12)">
     <use xlink:href="#DejaVuSans-57"/>
     <use x="98.798828" xlink:href="#DejaVuSans-65"/>
     <use x="160.322266" xlink:href="#DejaVuSans-73"/>
     <use x="212.421875" xlink:href="#DejaVuSans-74"/>
    </g>
   </g>
  </g>
 </g>
 <defs>
  <clipPath id="p62f1ed093c">
   <rect height="257.755" width="393.625" x="40.03" y="25.44"/>
  </clipPath>
  <clipPath id="pa73e71256a">
   <rect height="257.755" width="393.625" x="454.535" y="25.44"/>
  </clipPath>
  <clipPath id="p72e7660f57">
   <rect height="257.755" width="393.625" x="40.03" y="314.755"/>
  </clipPath>
  <clipPath id="pe7a0371574">
   <rect height="257.755" width="393.625" x="454.535" y="314.755"/>
  </clipPath>
 </defs>
</svg>
