<?xml version="1.0" encoding="utf-8" standalone="no"?>
<!DOCTYPE svg PUBLIC "-//W3C//DTD SVG 1.1//EN"
  "http://www.w3.org/Graphics/SVG/1.1/DTD/svg11.dtd">
<!-- Created with matplotlib (https://matplotlib.org/) -->
<svg height="648pt" version="1.1" viewBox="0 0 864 648" width="864pt" xmlns="http://www.w3.org/2000/svg" xmlns:xlink="http://www.w3.org/1999/xlink">
 <defs>
  <style type="text/css">
*{stroke-linecap:butt;stroke-linejoin:round;}
  </style>
 </defs>
 <g id="figure_1">
  <g id="patch_1">
   <path d="M 0 648 
L 864 648 
L 864 0 
L 0 0 
z
" style="fill:#ffffff;"/>
  </g>
  <g id="axes_1">
   <g id="patch_2">
    <path d="M 46.51 282.97 
L 436.895 282.97 
L 436.895 25.44 
L 46.51 25.44 
z
" style="fill:#ffffff;"/>
   </g>
   <g id="PolyCollection_1">
    <defs>
     <path d="M 46.51 -433.751044 
L 46.51 -365.03 
L 52.909754 -365.03 
L 59.309508 -365.03 
L 65.709262 -365.03 
L 72.109016 -365.03 
L 78.50877 -365.03 
L 84.908525 -365.03 
L 91.308279 -365.03 
L 97.708033 -365.03 
L 104.107787 -365.03 
L 110.507541 -365.03 
L 116.907295 -365.03 
L 123.307049 -365.03 
L 129.706803 -365.03 
L 136.106557 -365.03 
L 142.506311 -365.03 
L 148.906066 -365.03 
L 155.30582 -365.03 
L 161.705574 -365.03 
L 168.105328 -365.03 
L 174.505082 -365.03 
L 180.904836 -365.03 
L 187.30459 -365.03 
L 193.704344 -365.03 
L 200.104098 -365.03 
L 206.503852 -365.03 
L 212.903607 -365.03 
L 219.303361 -365.03 
L 225.703115 -365.03 
L 232.102869 -365.03 
L 238.502623 -365.03 
L 244.902377 -365.03 
L 251.302131 -365.03 
L 257.701885 -365.03 
L 264.101639 -365.03 
L 270.501393 -365.03 
L 276.901148 -365.03 
L 283.300902 -365.03 
L 289.700656 -365.03 
L 296.10041 -365.03 
L 302.500164 -365.03 
L 308.899918 -365.03 
L 315.299672 -365.03 
L 321.699426 -365.03 
L 328.09918 -365.03 
L 334.498934 -365.03 
L 340.898689 -365.03 
L 347.298443 -365.03 
L 353.698197 -365.03 
L 360.097951 -365.03 
L 366.497705 -365.03 
L 372.897459 -365.03 
L 379.297213 -365.03 
L 385.696967 -365.03 
L 392.096721 -365.03 
L 398.496475 -365.03 
L 404.89623 -365.03 
L 411.295984 -365.03 
L 417.695738 -365.03 
L 424.095492 -365.03 
L 430.495246 -365.03 
L 436.895 -365.03 
L 436.895 -419.203241 
L 436.895 -419.203241 
L 430.495246 -415.81057 
L 424.095492 -417.994286 
L 417.695738 -610.296667 
L 411.295984 -415.764437 
L 404.89623 -412.465463 
L 398.496475 -411.19521 
L 392.096721 -418.306001 
L 385.696967 -411.888238 
L 379.297213 -417.207963 
L 372.897459 -411.563751 
L 366.497705 -412.169949 
L 360.097951 -403.755807 
L 353.698197 -406.920893 
L 347.298443 -400.899917 
L 340.898689 -403.037415 
L 334.498934 -411.04117 
L 328.09918 -398.583066 
L 321.699426 -405.363098 
L 315.299672 -408.626101 
L 308.899918 -401.712764 
L 302.500164 -384.111393 
L 296.10041 -394.280924 
L 289.700656 -441.498109 
L 283.300902 -432.596211 
L 276.901148 -422.598428 
L 270.501393 -403.000495 
L 264.101639 -421.521281 
L 257.701885 -443.110127 
L 251.302131 -600.27615 
L 244.902377 -439.396887 
L 238.502623 -442.290714 
L 232.102869 -447.379007 
L 225.703115 -458.665327 
L 219.303361 -456.808622 
L 212.903607 -469.708588 
L 206.503852 -466.394221 
L 200.104098 -470.43581 
L 193.704344 -491.549514 
L 187.30459 -506.431047 
L 180.904836 -485.207143 
L 174.505082 -462.827491 
L 168.105328 -458.299611 
L 161.705574 -457.331325 
L 155.30582 -466.158696 
L 148.906066 -454.546377 
L 142.506311 -445.053083 
L 136.106557 -453.247843 
L 129.706803 -492.558334 
L 123.307049 -469.127555 
L 116.907295 -498.021779 
L 110.507541 -504.953907 
L 104.107787 -442.576234 
L 97.708033 -498.606966 
L 91.308279 -507.414093 
L 84.908525 -504.499922 
L 78.50877 -508.798671 
L 72.109016 -549.784398 
L 65.709262 -514.110173 
L 59.309508 -509.500258 
L 52.909754 -535.731974 
L 46.51 -433.751044 
z
" id="mcfbc59945d" style="stroke:#1f77b4;"/>
    </defs>
    <g clip-path="url(#pfbf55eacee)">
     <use style="fill:#1f77b4;stroke:#1f77b4;" x="0" xlink:href="#mcfbc59945d" y="648"/>
    </g>
   </g>
   <g id="matplotlib.axis_1">
    <g id="xtick_1">
     <g id="line2d_1">
      <defs>
       <path d="M 0 0 
L 0 3.5 
" id="mb3591882bf" style="stroke:#000000;stroke-width:0.8;"/>
      </defs>
      <g>
       <use style="stroke:#000000;stroke-width:0.8;" x="46.51" xlink:href="#mb3591882bf" y="282.97"/>
      </g>
     </g>
    </g>
    <g id="xtick_2">
     <g id="line2d_2">
      <g>
       <use style="stroke:#000000;stroke-width:0.8;" x="81.999545" xlink:href="#mb3591882bf" y="282.97"/>
      </g>
     </g>
    </g>
    <g id="xtick_3">
     <g id="line2d_3">
      <g>
       <use style="stroke:#000000;stroke-width:0.8;" x="117.489091" xlink:href="#mb3591882bf" y="282.97"/>
      </g>
     </g>
    </g>
    <g id="xtick_4">
     <g id="line2d_4">
      <g>
       <use style="stroke:#000000;stroke-width:0.8;" x="152.978636" xlink:href="#mb3591882bf" y="282.97"/>
      </g>
     </g>
    </g>
    <g id="xtick_5">
     <g id="line2d_5">
      <g>
       <use style="stroke:#000000;stroke-width:0.8;" x="188.468182" xlink:href="#mb3591882bf" y="282.97"/>
      </g>
     </g>
    </g>
    <g id="xtick_6">
     <g id="line2d_6">
      <g>
       <use style="stroke:#000000;stroke-width:0.8;" x="223.957727" xlink:href="#mb3591882bf" y="282.97"/>
      </g>
     </g>
    </g>
    <g id="xtick_7">
     <g id="line2d_7">
      <g>
       <use style="stroke:#000000;stroke-width:0.8;" x="259.447273" xlink:href="#mb3591882bf" y="282.97"/>
      </g>
     </g>
    </g>
    <g id="xtick_8">
     <g id="line2d_8">
      <g>
       <use style="stroke:#000000;stroke-width:0.8;" x="294.936818" xlink:href="#mb3591882bf" y="282.97"/>
      </g>
     </g>
    </g>
    <g id="xtick_9">
     <g id="line2d_9">
      <g>
       <use style="stroke:#000000;stroke-width:0.8;" x="330.426364" xlink:href="#mb3591882bf" y="282.97"/>
      </g>
     </g>
    </g>
    <g id="xtick_10">
     <g id="line2d_10">
      <g>
       <use style="stroke:#000000;stroke-width:0.8;" x="365.915909" xlink:href="#mb3591882bf" y="282.97"/>
      </g>
     </g>
    </g>
    <g id="xtick_11">
     <g id="line2d_11">
      <g>
       <use style="stroke:#000000;stroke-width:0.8;" x="401.405455" xlink:href="#mb3591882bf" y="282.97"/>
      </g>
     </g>
    </g>
    <g id="xtick_12">
     <g id="line2d_12">
      <g>
       <use style="stroke:#000000;stroke-width:0.8;" x="436.895" xlink:href="#mb3591882bf" y="282.97"/>
      </g>
     </g>
    </g>
   </g>
   <g id="matplotlib.axis_2">
    <g id="ytick_1">
     <g id="line2d_13">
      <defs>
       <path d="M 0 0 
L -3.5 0 
" id="mf21baeaa13" style="stroke:#000000;stroke-width:0.8;"/>
      </defs>
      <g>
       <use style="stroke:#000000;stroke-width:0.8;" x="46.51" xlink:href="#mf21baeaa13" y="282.97"/>
      </g>
     </g>
     <g id="text_1">
      <!-- 0.000 -->
      <defs>
       <path d="M 31.78125 66.40625 
Q 24.171875 66.40625 20.328125 58.90625 
Q 16.5 51.421875 16.5 36.375 
Q 16.5 21.390625 20.328125 13.890625 
Q 24.171875 6.390625 31.78125 6.390625 
Q 39.453125 6.390625 43.28125 13.890625 
Q 47.125 21.390625 47.125 36.375 
Q 47.125 51.421875 43.28125 58.90625 
Q 39.453125 66.40625 31.78125 66.40625 
z
M 31.78125 74.21875 
Q 44.046875 74.21875 50.515625 64.515625 
Q 56.984375 54.828125 56.984375 36.375 
Q 56.984375 17.96875 50.515625 8.265625 
Q 44.046875 -1.421875 31.78125 -1.421875 
Q 19.53125 -1.421875 13.0625 8.265625 
Q 6.59375 17.96875 6.59375 36.375 
Q 6.59375 54.828125 13.0625 64.515625 
Q 19.53125 74.21875 31.78125 74.21875 
z
" id="DejaVuSans-48"/>
       <path d="M 10.6875 12.40625 
L 21 12.40625 
L 21 0 
L 10.6875 0 
z
" id="DejaVuSans-46"/>
      </defs>
      <g transform="translate(10.881875 286.769219)scale(0.1 -0.1)">
       <use xlink:href="#DejaVuSans-48"/>
       <use x="63.623047" xlink:href="#DejaVuSans-46"/>
       <use x="95.410156" xlink:href="#DejaVuSans-48"/>
       <use x="159.033203" xlink:href="#DejaVuSans-48"/>
       <use x="222.65625" xlink:href="#DejaVuSans-48"/>
      </g>
     </g>
    </g>
    <g id="ytick_2">
     <g id="line2d_14">
      <g>
       <use style="stroke:#000000;stroke-width:0.8;" x="46.51" xlink:href="#mf21baeaa13" y="250.30194"/>
      </g>
     </g>
     <g id="text_2">
      <!-- 0.025 -->
      <defs>
       <path d="M 19.1875 8.296875 
L 53.609375 8.296875 
L 53.609375 0 
L 7.328125 0 
L 7.328125 8.296875 
Q 12.9375 14.109375 22.625 23.890625 
Q 32.328125 33.6875 34.8125 36.53125 
Q 39.546875 41.84375 41.421875 45.53125 
Q 43.3125 49.21875 43.3125 52.78125 
Q 43.3125 58.59375 39.234375 62.25 
Q 35.15625 65.921875 28.609375 65.921875 
Q 23.96875 65.921875 18.8125 64.3125 
Q 13.671875 62.703125 7.8125 59.421875 
L 7.8125 69.390625 
Q 13.765625 71.78125 18.9375 73 
Q 24.125 74.21875 28.421875 74.21875 
Q 39.75 74.21875 46.484375 68.546875 
Q 53.21875 62.890625 53.21875 53.421875 
Q 53.21875 48.921875 51.53125 44.890625 
Q 49.859375 40.875 45.40625 35.40625 
Q 44.1875 33.984375 37.640625 27.21875 
Q 31.109375 20.453125 19.1875 8.296875 
z
" id="DejaVuSans-50"/>
       <path d="M 10.796875 72.90625 
L 49.515625 72.90625 
L 49.515625 64.59375 
L 19.828125 64.59375 
L 19.828125 46.734375 
Q 21.96875 47.46875 24.109375 47.828125 
Q 26.265625 48.1875 28.421875 48.1875 
Q 40.625 48.1875 47.75 41.5 
Q 54.890625 34.8125 54.890625 23.390625 
Q 54.890625 11.625 47.5625 5.09375 
Q 40.234375 -1.421875 26.90625 -1.421875 
Q 22.3125 -1.421875 17.546875 -0.640625 
Q 12.796875 0.140625 7.71875 1.703125 
L 7.71875 11.625 
Q 12.109375 9.234375 16.796875 8.0625 
Q 21.484375 6.890625 26.703125 6.890625 
Q 35.15625 6.890625 40.078125 11.328125 
Q 45.015625 15.765625 45.015625 23.390625 
Q 45.015625 31 40.078125 35.4375 
Q 35.15625 39.890625 26.703125 39.890625 
Q 22.75 39.890625 18.8125 39.015625 
Q 14.890625 38.140625 10.796875 36.28125 
z
" id="DejaVuSans-53"/>
      </defs>
      <g transform="translate(10.881875 254.101159)scale(0.1 -0.1)">
       <use xlink:href="#DejaVuSans-48"/>
       <use x="63.623047" xlink:href="#DejaVuSans-46"/>
       <use x="95.410156" xlink:href="#DejaVuSans-48"/>
       <use x="159.033203" xlink:href="#DejaVuSans-50"/>
       <use x="222.65625" xlink:href="#DejaVuSans-53"/>
      </g>
     </g>
    </g>
    <g id="ytick_3">
     <g id="line2d_15">
      <g>
       <use style="stroke:#000000;stroke-width:0.8;" x="46.51" xlink:href="#mf21baeaa13" y="217.63388"/>
      </g>
     </g>
     <g id="text_3">
      <!-- 0.050 -->
      <g transform="translate(10.881875 221.433098)scale(0.1 -0.1)">
       <use xlink:href="#DejaVuSans-48"/>
       <use x="63.623047" xlink:href="#DejaVuSans-46"/>
       <use x="95.410156" xlink:href="#DejaVuSans-48"/>
       <use x="159.033203" xlink:href="#DejaVuSans-53"/>
       <use x="222.65625" xlink:href="#DejaVuSans-48"/>
      </g>
     </g>
    </g>
    <g id="ytick_4">
     <g id="line2d_16">
      <g>
       <use style="stroke:#000000;stroke-width:0.8;" x="46.51" xlink:href="#mf21baeaa13" y="184.965819"/>
      </g>
     </g>
     <g id="text_4">
      <!-- 0.075 -->
      <defs>
       <path d="M 8.203125 72.90625 
L 55.078125 72.90625 
L 55.078125 68.703125 
L 28.609375 0 
L 18.3125 0 
L 43.21875 64.59375 
L 8.203125 64.59375 
z
" id="DejaVuSans-55"/>
      </defs>
      <g transform="translate(10.881875 188.765038)scale(0.1 -0.1)">
       <use xlink:href="#DejaVuSans-48"/>
       <use x="63.623047" xlink:href="#DejaVuSans-46"/>
       <use x="95.410156" xlink:href="#DejaVuSans-48"/>
       <use x="159.033203" xlink:href="#DejaVuSans-55"/>
       <use x="222.65625" xlink:href="#DejaVuSans-53"/>
      </g>
     </g>
    </g>
    <g id="ytick_5">
     <g id="line2d_17">
      <g>
       <use style="stroke:#000000;stroke-width:0.8;" x="46.51" xlink:href="#mf21baeaa13" y="152.297759"/>
      </g>
     </g>
     <g id="text_5">
      <!-- 0.100 -->
      <defs>
       <path d="M 12.40625 8.296875 
L 28.515625 8.296875 
L 28.515625 63.921875 
L 10.984375 60.40625 
L 10.984375 69.390625 
L 28.421875 72.90625 
L 38.28125 72.90625 
L 38.28125 8.296875 
L 54.390625 8.296875 
L 54.390625 0 
L 12.40625 0 
z
" id="DejaVuSans-49"/>
      </defs>
      <g transform="translate(10.881875 156.096978)scale(0.1 -0.1)">
       <use xlink:href="#DejaVuSans-48"/>
       <use x="63.623047" xlink:href="#DejaVuSans-46"/>
       <use x="95.410156" xlink:href="#DejaVuSans-49"/>
       <use x="159.033203" xlink:href="#DejaVuSans-48"/>
       <use x="222.65625" xlink:href="#DejaVuSans-48"/>
      </g>
     </g>
    </g>
    <g id="ytick_6">
     <g id="line2d_18">
      <g>
       <use style="stroke:#000000;stroke-width:0.8;" x="46.51" xlink:href="#mf21baeaa13" y="119.629699"/>
      </g>
     </g>
     <g id="text_6">
      <!-- 0.125 -->
      <g transform="translate(10.881875 123.428918)scale(0.1 -0.1)">
       <use xlink:href="#DejaVuSans-48"/>
       <use x="63.623047" xlink:href="#DejaVuSans-46"/>
       <use x="95.410156" xlink:href="#DejaVuSans-49"/>
       <use x="159.033203" xlink:href="#DejaVuSans-50"/>
       <use x="222.65625" xlink:href="#DejaVuSans-53"/>
      </g>
     </g>
    </g>
    <g id="ytick_7">
     <g id="line2d_19">
      <g>
       <use style="stroke:#000000;stroke-width:0.8;" x="46.51" xlink:href="#mf21baeaa13" y="86.961639"/>
      </g>
     </g>
     <g id="text_7">
      <!-- 0.150 -->
      <g transform="translate(10.881875 90.760858)scale(0.1 -0.1)">
       <use xlink:href="#DejaVuSans-48"/>
       <use x="63.623047" xlink:href="#DejaVuSans-46"/>
       <use x="95.410156" xlink:href="#DejaVuSans-49"/>
       <use x="159.033203" xlink:href="#DejaVuSans-53"/>
       <use x="222.65625" xlink:href="#DejaVuSans-48"/>
      </g>
     </g>
    </g>
    <g id="ytick_8">
     <g id="line2d_20">
      <g>
       <use style="stroke:#000000;stroke-width:0.8;" x="46.51" xlink:href="#mf21baeaa13" y="54.293579"/>
      </g>
     </g>
     <g id="text_8">
      <!-- 0.175 -->
      <g transform="translate(10.881875 58.092798)scale(0.1 -0.1)">
       <use xlink:href="#DejaVuSans-48"/>
       <use x="63.623047" xlink:href="#DejaVuSans-46"/>
       <use x="95.410156" xlink:href="#DejaVuSans-49"/>
       <use x="159.033203" xlink:href="#DejaVuSans-55"/>
       <use x="222.65625" xlink:href="#DejaVuSans-53"/>
      </g>
     </g>
    </g>
   </g>
   <g id="line2d_21">
    <path clip-path="url(#pfbf55eacee)" d="M 46.51 214.248956 
L 52.909754 112.268026 
L 59.309508 138.499742 
L 65.709262 133.889827 
L 72.109016 98.215602 
L 78.50877 139.201329 
L 84.908525 143.500078 
L 91.308279 140.585907 
L 97.708033 149.393034 
L 104.107787 205.423766 
L 110.507541 143.046093 
L 116.907295 149.978221 
L 123.307049 178.872445 
L 129.706803 155.441666 
L 136.106557 194.752157 
L 142.506311 202.946917 
L 148.906066 193.453623 
L 155.30582 181.841304 
L 161.705574 190.668675 
L 168.105328 189.700389 
L 174.505082 185.172509 
L 180.904836 162.792857 
L 187.30459 141.568953 
L 193.704344 156.450486 
L 200.104098 177.56419 
L 206.503852 181.605779 
L 212.903607 178.291412 
L 219.303361 191.191378 
L 225.703115 189.334673 
L 232.102869 200.620993 
L 238.502623 205.709286 
L 244.902377 208.603113 
L 251.302131 47.72385 
L 257.701885 204.889873 
L 264.101639 226.478719 
L 270.501393 244.999505 
L 276.901148 225.401572 
L 283.300902 215.403789 
L 289.700656 206.501891 
L 296.10041 253.719076 
L 302.500164 263.888607 
L 308.899918 246.287236 
L 315.299672 239.373899 
L 321.699426 242.636902 
L 328.09918 249.416934 
L 334.498934 236.95883 
L 340.898689 244.962585 
L 347.298443 247.100083 
L 353.698197 241.079107 
L 360.097951 244.244193 
L 366.497705 235.830051 
L 372.897459 236.436249 
L 379.297213 230.792037 
L 385.696967 236.111762 
L 392.096721 229.693999 
L 398.496475 236.80479 
L 404.89623 235.534537 
L 411.295984 232.235563 
L 417.695738 37.703333 
L 424.095492 230.005714 
L 430.495246 232.18943 
L 436.895 228.796759 
" style="fill:none;stroke:#1f77b4;stroke-linecap:square;stroke-width:1.5;"/>
   </g>
   <g id="patch_3">
    <path d="M 46.51 282.97 
L 46.51 25.44 
" style="fill:none;stroke:#000000;stroke-linecap:square;stroke-linejoin:miter;stroke-width:0.8;"/>
   </g>
   <g id="patch_4">
    <path d="M 436.895 282.97 
L 436.895 25.44 
" style="fill:none;stroke:#000000;stroke-linecap:square;stroke-linejoin:miter;stroke-width:0.8;"/>
   </g>
   <g id="patch_5">
    <path d="M 46.51 282.97 
L 436.895 282.97 
" style="fill:none;stroke:#000000;stroke-linecap:square;stroke-linejoin:miter;stroke-width:0.8;"/>
   </g>
   <g id="patch_6">
    <path d="M 46.51 25.44 
L 436.895 25.44 
" style="fill:none;stroke:#000000;stroke-linecap:square;stroke-linejoin:miter;stroke-width:0.8;"/>
   </g>
   <g id="text_9">
    <!-- Midwest -->
    <defs>
     <path d="M 9.8125 72.90625 
L 24.515625 72.90625 
L 43.109375 23.296875 
L 61.8125 72.90625 
L 76.515625 72.90625 
L 76.515625 0 
L 66.890625 0 
L 66.890625 64.015625 
L 48.09375 14.015625 
L 38.1875 14.015625 
L 19.390625 64.015625 
L 19.390625 0 
L 9.8125 0 
z
" id="DejaVuSans-77"/>
     <path d="M 9.421875 54.6875 
L 18.40625 54.6875 
L 18.40625 0 
L 9.421875 0 
z
M 9.421875 75.984375 
L 18.40625 75.984375 
L 18.40625 64.59375 
L 9.421875 64.59375 
z
" id="DejaVuSans-105"/>
     <path d="M 45.40625 46.390625 
L 45.40625 75.984375 
L 54.390625 75.984375 
L 54.390625 0 
L 45.40625 0 
L 45.40625 8.203125 
Q 42.578125 3.328125 38.25 0.953125 
Q 33.9375 -1.421875 27.875 -1.421875 
Q 17.96875 -1.421875 11.734375 6.484375 
Q 5.515625 14.40625 5.515625 27.296875 
Q 5.515625 40.1875 11.734375 48.09375 
Q 17.96875 56 27.875 56 
Q 33.9375 56 38.25 53.625 
Q 42.578125 51.265625 45.40625 46.390625 
z
M 14.796875 27.296875 
Q 14.796875 17.390625 18.875 11.75 
Q 22.953125 6.109375 30.078125 6.109375 
Q 37.203125 6.109375 41.296875 11.75 
Q 45.40625 17.390625 45.40625 27.296875 
Q 45.40625 37.203125 41.296875 42.84375 
Q 37.203125 48.484375 30.078125 48.484375 
Q 22.953125 48.484375 18.875 42.84375 
Q 14.796875 37.203125 14.796875 27.296875 
z
" id="DejaVuSans-100"/>
     <path d="M 4.203125 54.6875 
L 13.1875 54.6875 
L 24.421875 12.015625 
L 35.59375 54.6875 
L 46.1875 54.6875 
L 57.421875 12.015625 
L 68.609375 54.6875 
L 77.59375 54.6875 
L 63.28125 0 
L 52.6875 0 
L 40.921875 44.828125 
L 29.109375 0 
L 18.5 0 
z
" id="DejaVuSans-119"/>
     <path d="M 56.203125 29.59375 
L 56.203125 25.203125 
L 14.890625 25.203125 
Q 15.484375 15.921875 20.484375 11.0625 
Q 25.484375 6.203125 34.421875 6.203125 
Q 39.59375 6.203125 44.453125 7.46875 
Q 49.3125 8.734375 54.109375 11.28125 
L 54.109375 2.78125 
Q 49.265625 0.734375 44.1875 -0.34375 
Q 39.109375 -1.421875 33.890625 -1.421875 
Q 20.796875 -1.421875 13.15625 6.1875 
Q 5.515625 13.8125 5.515625 26.8125 
Q 5.515625 40.234375 12.765625 48.109375 
Q 20.015625 56 32.328125 56 
Q 43.359375 56 49.78125 48.890625 
Q 56.203125 41.796875 56.203125 29.59375 
z
M 47.21875 32.234375 
Q 47.125 39.59375 43.09375 43.984375 
Q 39.0625 48.390625 32.421875 48.390625 
Q 24.90625 48.390625 20.390625 44.140625 
Q 15.875 39.890625 15.1875 32.171875 
z
" id="DejaVuSans-101"/>
     <path d="M 44.28125 53.078125 
L 44.28125 44.578125 
Q 40.484375 46.53125 36.375 47.5 
Q 32.28125 48.484375 27.875 48.484375 
Q 21.1875 48.484375 17.84375 46.4375 
Q 14.5 44.390625 14.5 40.28125 
Q 14.5 37.15625 16.890625 35.375 
Q 19.28125 33.59375 26.515625 31.984375 
L 29.59375 31.296875 
Q 39.15625 29.25 43.1875 25.515625 
Q 47.21875 21.78125 47.21875 15.09375 
Q 47.21875 7.46875 41.1875 3.015625 
Q 35.15625 -1.421875 24.609375 -1.421875 
Q 20.21875 -1.421875 15.453125 -0.5625 
Q 10.6875 0.296875 5.421875 2 
L 5.421875 11.28125 
Q 10.40625 8.6875 15.234375 7.390625 
Q 20.0625 6.109375 24.8125 6.109375 
Q 31.15625 6.109375 34.5625 8.28125 
Q 37.984375 10.453125 37.984375 14.40625 
Q 37.984375 18.0625 35.515625 20.015625 
Q 33.0625 21.96875 24.703125 23.78125 
L 21.578125 24.515625 
Q 13.234375 26.265625 9.515625 29.90625 
Q 5.8125 33.546875 5.8125 39.890625 
Q 5.8125 47.609375 11.28125 51.796875 
Q 16.75 56 26.8125 56 
Q 31.78125 56 36.171875 55.265625 
Q 40.578125 54.546875 44.28125 53.078125 
z
" id="DejaVuSans-115"/>
     <path d="M 18.3125 70.21875 
L 18.3125 54.6875 
L 36.8125 54.6875 
L 36.8125 47.703125 
L 18.3125 47.703125 
L 18.3125 18.015625 
Q 18.3125 11.328125 20.140625 9.421875 
Q 21.96875 7.515625 27.59375 7.515625 
L 36.8125 7.515625 
L 36.8125 0 
L 27.59375 0 
Q 17.1875 0 13.234375 3.875 
Q 9.28125 7.765625 9.28125 18.015625 
L 9.28125 47.703125 
L 2.6875 47.703125 
L 2.6875 54.6875 
L 9.28125 54.6875 
L 9.28125 70.21875 
z
" id="DejaVuSans-116"/>
    </defs>
    <g transform="translate(216.973125 19.44)scale(0.12 -0.12)">
     <use xlink:href="#DejaVuSans-77"/>
     <use x="86.279297" xlink:href="#DejaVuSans-105"/>
     <use x="114.0625" xlink:href="#DejaVuSans-100"/>
     <use x="177.539062" xlink:href="#DejaVuSans-119"/>
     <use x="259.326172" xlink:href="#DejaVuSans-101"/>
     <use x="320.849609" xlink:href="#DejaVuSans-115"/>
     <use x="372.949219" xlink:href="#DejaVuSans-116"/>
    </g>
   </g>
  </g>
  <g id="axes_2">
   <g id="patch_7">
    <path d="M 457.775 282.97 
L 848.16 282.97 
L 848.16 25.44 
L 457.775 25.44 
z
" style="fill:#ffffff;"/>
   </g>
   <g id="PolyCollection_2">
    <defs>
     <path d="M 457.775 -474.242816 
L 457.775 -365.03 
L 464.174754 -365.03 
L 470.574508 -365.03 
L 476.974262 -365.03 
L 483.374016 -365.03 
L 489.77377 -365.03 
L 496.173525 -365.03 
L 502.573279 -365.03 
L 508.973033 -365.03 
L 515.372787 -365.03 
L 521.772541 -365.03 
L 528.172295 -365.03 
L 534.572049 -365.03 
L 540.971803 -365.03 
L 547.371557 -365.03 
L 553.771311 -365.03 
L 560.171066 -365.03 
L 566.57082 -365.03 
L 572.970574 -365.03 
L 579.370328 -365.03 
L 585.770082 -365.03 
L 592.169836 -365.03 
L 598.56959 -365.03 
L 604.969344 -365.03 
L 611.369098 -365.03 
L 617.768852 -365.03 
L 624.168607 -365.03 
L 630.568361 -365.03 
L 636.968115 -365.03 
L 643.367869 -365.03 
L 649.767623 -365.03 
L 656.167377 -365.03 
L 662.567131 -365.03 
L 668.966885 -365.03 
L 675.366639 -365.03 
L 681.766393 -365.03 
L 688.166148 -365.03 
L 694.565902 -365.03 
L 700.965656 -365.03 
L 707.36541 -365.03 
L 713.765164 -365.03 
L 720.164918 -365.03 
L 726.564672 -365.03 
L 732.964426 -365.03 
L 739.36418 -365.03 
L 745.763934 -365.03 
L 752.163689 -365.03 
L 758.563443 -365.03 
L 764.963197 -365.03 
L 771.362951 -365.03 
L 777.762705 -365.03 
L 784.162459 -365.03 
L 790.562213 -365.03 
L 796.961967 -365.03 
L 803.361721 -365.03 
L 809.761475 -365.03 
L 816.16123 -365.03 
L 822.560984 -365.03 
L 828.960738 -365.03 
L 835.360492 -365.03 
L 841.760246 -365.03 
L 848.16 -365.03 
L 848.16 -384.283457 
L 848.16 -384.283457 
L 841.760246 -379.590138 
L 835.360492 -376.531933 
L 828.960738 -379.747991 
L 822.560984 -379.922138 
L 816.16123 -395.983971 
L 809.761475 -396.412918 
L 803.361721 -380.085273 
L 796.961967 -383.69561 
L 790.562213 -383.066264 
L 784.162459 -381.927918 
L 777.762705 -390.124863 
L 771.362951 -387.574619 
L 764.963197 -380.0291 
L 758.563443 -385.227429 
L 752.163689 -417.18112 
L 745.763934 -383.479957 
L 739.36418 -388.103239 
L 732.964426 -390.327093 
L 726.564672 -388.95264 
L 720.164918 -393.076435 
L 713.765164 -383.529582 
L 707.36541 -387.676967 
L 700.965656 -388.914876 
L 694.565902 -386.409642 
L 688.166148 -391.028914 
L 681.766393 -392.13353 
L 675.366639 -398.139862 
L 668.966885 -400.94243 
L 662.567131 -407.408954 
L 656.167377 -426.149783 
L 649.767623 -421.414808 
L 643.367869 -409.521678 
L 636.968115 -415.167886 
L 630.568361 -409.562719 
L 624.168607 -410.539537 
L 617.768852 -424.014573 
L 611.369098 -423.685357 
L 604.969344 -430.706844 
L 598.56959 -424.739053 
L 592.169836 -428.491292 
L 585.770082 -447.344104 
L 579.370328 -455.14738 
L 572.970574 -450.858034 
L 566.57082 -465.65536 
L 560.171066 -468.067992 
L 553.771311 -470.245574 
L 547.371557 -478.02965 
L 540.971803 -474.68121 
L 534.572049 -460.105005 
L 528.172295 -482.928071 
L 521.772541 -416.102937 
L 515.372787 -448.3876 
L 508.973033 -528.206971 
L 502.573279 -524.554222 
L 496.173525 -538.226525 
L 489.77377 -575.869491 
L 483.374016 -557.611155 
L 476.974262 -555.678053 
L 470.574508 -554.130287 
L 464.174754 -597.358995 
L 457.775 -474.242816 
z
" id="m66fcbbff34" style="stroke:#ff7f0e;"/>
    </defs>
    <g clip-path="url(#pa6edc084e3)">
     <use style="fill:#ff7f0e;stroke:#ff7f0e;" x="0" xlink:href="#m66fcbbff34" y="648"/>
    </g>
   </g>
   <g id="matplotlib.axis_3">
    <g id="xtick_13">
     <g id="line2d_22">
      <g>
       <use style="stroke:#000000;stroke-width:0.8;" x="457.775" xlink:href="#mb3591882bf" y="282.97"/>
      </g>
     </g>
    </g>
    <g id="xtick_14">
     <g id="line2d_23">
      <g>
       <use style="stroke:#000000;stroke-width:0.8;" x="493.264545" xlink:href="#mb3591882bf" y="282.97"/>
      </g>
     </g>
    </g>
    <g id="xtick_15">
     <g id="line2d_24">
      <g>
       <use style="stroke:#000000;stroke-width:0.8;" x="528.754091" xlink:href="#mb3591882bf" y="282.97"/>
      </g>
     </g>
    </g>
    <g id="xtick_16">
     <g id="line2d_25">
      <g>
       <use style="stroke:#000000;stroke-width:0.8;" x="564.243636" xlink:href="#mb3591882bf" y="282.97"/>
      </g>
     </g>
    </g>
    <g id="xtick_17">
     <g id="line2d_26">
      <g>
       <use style="stroke:#000000;stroke-width:0.8;" x="599.733182" xlink:href="#mb3591882bf" y="282.97"/>
      </g>
     </g>
    </g>
    <g id="xtick_18">
     <g id="line2d_27">
      <g>
       <use style="stroke:#000000;stroke-width:0.8;" x="635.222727" xlink:href="#mb3591882bf" y="282.97"/>
      </g>
     </g>
    </g>
    <g id="xtick_19">
     <g id="line2d_28">
      <g>
       <use style="stroke:#000000;stroke-width:0.8;" x="670.712273" xlink:href="#mb3591882bf" y="282.97"/>
      </g>
     </g>
    </g>
    <g id="xtick_20">
     <g id="line2d_29">
      <g>
       <use style="stroke:#000000;stroke-width:0.8;" x="706.201818" xlink:href="#mb3591882bf" y="282.97"/>
      </g>
     </g>
    </g>
    <g id="xtick_21">
     <g id="line2d_30">
      <g>
       <use style="stroke:#000000;stroke-width:0.8;" x="741.691364" xlink:href="#mb3591882bf" y="282.97"/>
      </g>
     </g>
    </g>
    <g id="xtick_22">
     <g id="line2d_31">
      <g>
       <use style="stroke:#000000;stroke-width:0.8;" x="777.180909" xlink:href="#mb3591882bf" y="282.97"/>
      </g>
     </g>
    </g>
    <g id="xtick_23">
     <g id="line2d_32">
      <g>
       <use style="stroke:#000000;stroke-width:0.8;" x="812.670455" xlink:href="#mb3591882bf" y="282.97"/>
      </g>
     </g>
    </g>
    <g id="xtick_24">
     <g id="line2d_33">
      <g>
       <use style="stroke:#000000;stroke-width:0.8;" x="848.16" xlink:href="#mb3591882bf" y="282.97"/>
      </g>
     </g>
    </g>
   </g>
   <g id="matplotlib.axis_4">
    <g id="ytick_9">
     <g id="line2d_34">
      <g>
       <use style="stroke:#000000;stroke-width:0.8;" x="457.775" xlink:href="#mf21baeaa13" y="282.97"/>
      </g>
     </g>
    </g>
    <g id="ytick_10">
     <g id="line2d_35">
      <g>
       <use style="stroke:#000000;stroke-width:0.8;" x="457.775" xlink:href="#mf21baeaa13" y="250.30194"/>
      </g>
     </g>
    </g>
    <g id="ytick_11">
     <g id="line2d_36">
      <g>
       <use style="stroke:#000000;stroke-width:0.8;" x="457.775" xlink:href="#mf21baeaa13" y="217.63388"/>
      </g>
     </g>
    </g>
    <g id="ytick_12">
     <g id="line2d_37">
      <g>
       <use style="stroke:#000000;stroke-width:0.8;" x="457.775" xlink:href="#mf21baeaa13" y="184.965819"/>
      </g>
     </g>
    </g>
    <g id="ytick_13">
     <g id="line2d_38">
      <g>
       <use style="stroke:#000000;stroke-width:0.8;" x="457.775" xlink:href="#mf21baeaa13" y="152.297759"/>
      </g>
     </g>
    </g>
    <g id="ytick_14">
     <g id="line2d_39">
      <g>
       <use style="stroke:#000000;stroke-width:0.8;" x="457.775" xlink:href="#mf21baeaa13" y="119.629699"/>
      </g>
     </g>
    </g>
    <g id="ytick_15">
     <g id="line2d_40">
      <g>
       <use style="stroke:#000000;stroke-width:0.8;" x="457.775" xlink:href="#mf21baeaa13" y="86.961639"/>
      </g>
     </g>
    </g>
    <g id="ytick_16">
     <g id="line2d_41">
      <g>
       <use style="stroke:#000000;stroke-width:0.8;" x="457.775" xlink:href="#mf21baeaa13" y="54.293579"/>
      </g>
     </g>
    </g>
   </g>
   <g id="line2d_42">
    <path clip-path="url(#pa6edc084e3)" d="M 457.775 173.757184 
L 464.174754 50.641005 
L 470.574508 93.869713 
L 476.974262 92.321947 
L 483.374016 90.388845 
L 489.77377 72.130509 
L 496.173525 109.773475 
L 502.573279 123.445778 
L 508.973033 119.793029 
L 515.372787 199.6124 
L 521.772541 231.897063 
L 528.172295 165.071929 
L 534.572049 187.894995 
L 540.971803 173.31879 
L 547.371557 169.97035 
L 553.771311 177.754426 
L 560.171066 179.932008 
L 566.57082 182.34464 
L 572.970574 197.141966 
L 579.370328 192.85262 
L 585.770082 200.655896 
L 592.169836 219.508708 
L 598.56959 223.260947 
L 604.969344 217.293156 
L 611.369098 224.314643 
L 617.768852 223.985427 
L 624.168607 237.460463 
L 630.568361 238.437281 
L 636.968115 232.832114 
L 643.367869 238.478322 
L 649.767623 226.585192 
L 656.167377 221.850217 
L 662.567131 240.591046 
L 668.966885 247.05757 
L 675.366639 249.860138 
L 681.766393 255.86647 
L 688.166148 256.971086 
L 694.565902 261.590358 
L 700.965656 259.085124 
L 707.36541 260.323033 
L 713.765164 264.470418 
L 720.164918 254.923565 
L 726.564672 259.04736 
L 732.964426 257.672907 
L 739.36418 259.896761 
L 745.763934 264.520043 
L 752.163689 230.81888 
L 758.563443 262.772571 
L 764.963197 267.9709 
L 771.362951 260.425381 
L 777.762705 257.875137 
L 784.162459 266.072082 
L 790.562213 264.933736 
L 796.961967 264.30439 
L 803.361721 267.914727 
L 809.761475 251.587082 
L 816.16123 252.016029 
L 822.560984 268.077862 
L 828.960738 268.252009 
L 835.360492 271.468067 
L 841.760246 268.409862 
L 848.16 263.716543 
" style="fill:none;stroke:#ff7f0e;stroke-linecap:square;stroke-width:1.5;"/>
   </g>
   <g id="patch_8">
    <path d="M 457.775 282.97 
L 457.775 25.44 
" style="fill:none;stroke:#000000;stroke-linecap:square;stroke-linejoin:miter;stroke-width:0.8;"/>
   </g>
   <g id="patch_9">
    <path d="M 848.16 282.97 
L 848.16 25.44 
" style="fill:none;stroke:#000000;stroke-linecap:square;stroke-linejoin:miter;stroke-width:0.8;"/>
   </g>
   <g id="patch_10">
    <path d="M 457.775 282.97 
L 848.16 282.97 
" style="fill:none;stroke:#000000;stroke-linecap:square;stroke-linejoin:miter;stroke-width:0.8;"/>
   </g>
   <g id="patch_11">
    <path d="M 457.775 25.44 
L 848.16 25.44 
" style="fill:none;stroke:#000000;stroke-linecap:square;stroke-linejoin:miter;stroke-width:0.8;"/>
   </g>
   <g id="text_10">
    <!-- Northeast -->
    <defs>
     <path d="M 9.8125 72.90625 
L 23.09375 72.90625 
L 55.421875 11.921875 
L 55.421875 72.90625 
L 64.984375 72.90625 
L 64.984375 0 
L 51.703125 0 
L 19.390625 60.984375 
L 19.390625 0 
L 9.8125 0 
z
" id="DejaVuSans-78"/>
     <path d="M 30.609375 48.390625 
Q 23.390625 48.390625 19.1875 42.75 
Q 14.984375 37.109375 14.984375 27.296875 
Q 14.984375 17.484375 19.15625 11.84375 
Q 23.34375 6.203125 30.609375 6.203125 
Q 37.796875 6.203125 41.984375 11.859375 
Q 46.1875 17.53125 46.1875 27.296875 
Q 46.1875 37.015625 41.984375 42.703125 
Q 37.796875 48.390625 30.609375 48.390625 
z
M 30.609375 56 
Q 42.328125 56 49.015625 48.375 
Q 55.71875 40.765625 55.71875 27.296875 
Q 55.71875 13.875 49.015625 6.21875 
Q 42.328125 -1.421875 30.609375 -1.421875 
Q 18.84375 -1.421875 12.171875 6.21875 
Q 5.515625 13.875 5.515625 27.296875 
Q 5.515625 40.765625 12.171875 48.375 
Q 18.84375 56 30.609375 56 
z
" id="DejaVuSans-111"/>
     <path d="M 41.109375 46.296875 
Q 39.59375 47.171875 37.8125 47.578125 
Q 36.03125 48 33.890625 48 
Q 26.265625 48 22.1875 43.046875 
Q 18.109375 38.09375 18.109375 28.8125 
L 18.109375 0 
L 9.078125 0 
L 9.078125 54.6875 
L 18.109375 54.6875 
L 18.109375 46.1875 
Q 20.953125 51.171875 25.484375 53.578125 
Q 30.03125 56 36.53125 56 
Q 37.453125 56 38.578125 55.875 
Q 39.703125 55.765625 41.0625 55.515625 
z
" id="DejaVuSans-114"/>
     <path d="M 54.890625 33.015625 
L 54.890625 0 
L 45.90625 0 
L 45.90625 32.71875 
Q 45.90625 40.484375 42.875 44.328125 
Q 39.84375 48.1875 33.796875 48.1875 
Q 26.515625 48.1875 22.3125 43.546875 
Q 18.109375 38.921875 18.109375 30.90625 
L 18.109375 0 
L 9.078125 0 
L 9.078125 75.984375 
L 18.109375 75.984375 
L 18.109375 46.1875 
Q 21.34375 51.125 25.703125 53.5625 
Q 30.078125 56 35.796875 56 
Q 45.21875 56 50.046875 50.171875 
Q 54.890625 44.34375 54.890625 33.015625 
z
" id="DejaVuSans-104"/>
     <path d="M 34.28125 27.484375 
Q 23.390625 27.484375 19.1875 25 
Q 14.984375 22.515625 14.984375 16.5 
Q 14.984375 11.71875 18.140625 8.90625 
Q 21.296875 6.109375 26.703125 6.109375 
Q 34.1875 6.109375 38.703125 11.40625 
Q 43.21875 16.703125 43.21875 25.484375 
L 43.21875 27.484375 
z
M 52.203125 31.203125 
L 52.203125 0 
L 43.21875 0 
L 43.21875 8.296875 
Q 40.140625 3.328125 35.546875 0.953125 
Q 30.953125 -1.421875 24.3125 -1.421875 
Q 15.921875 -1.421875 10.953125 3.296875 
Q 6 8.015625 6 15.921875 
Q 6 25.140625 12.171875 29.828125 
Q 18.359375 34.515625 30.609375 34.515625 
L 43.21875 34.515625 
L 43.21875 35.40625 
Q 43.21875 41.609375 39.140625 45 
Q 35.0625 48.390625 27.6875 48.390625 
Q 23 48.390625 18.546875 47.265625 
Q 14.109375 46.140625 10.015625 43.890625 
L 10.015625 52.203125 
Q 14.9375 54.109375 19.578125 55.046875 
Q 24.21875 56 28.609375 56 
Q 40.484375 56 46.34375 49.84375 
Q 52.203125 43.703125 52.203125 31.203125 
z
" id="DejaVuSans-97"/>
    </defs>
    <g transform="translate(623.339688 19.44)scale(0.12 -0.12)">
     <use xlink:href="#DejaVuSans-78"/>
     <use x="74.804688" xlink:href="#DejaVuSans-111"/>
     <use x="135.986328" xlink:href="#DejaVuSans-114"/>
     <use x="177.099609" xlink:href="#DejaVuSans-116"/>
     <use x="216.308594" xlink:href="#DejaVuSans-104"/>
     <use x="279.6875" xlink:href="#DejaVuSans-101"/>
     <use x="341.210938" xlink:href="#DejaVuSans-97"/>
     <use x="402.490234" xlink:href="#DejaVuSans-115"/>
     <use x="454.589844" xlink:href="#DejaVuSans-116"/>
    </g>
   </g>
  </g>
  <g id="axes_3">
   <g id="patch_12">
    <path d="M 46.51 572.06 
L 436.895 572.06 
L 436.895 314.53 
L 46.51 314.53 
z
" style="fill:#ffffff;"/>
   </g>
   <g id="PolyCollection_3">
    <defs>
     <path d="M 46.51 -234.100862 
L 46.51 -75.94 
L 52.909754 -75.94 
L 59.309508 -75.94 
L 65.709262 -75.94 
L 72.109016 -75.94 
L 78.50877 -75.94 
L 84.908525 -75.94 
L 91.308279 -75.94 
L 97.708033 -75.94 
L 104.107787 -75.94 
L 110.507541 -75.94 
L 116.907295 -75.94 
L 123.307049 -75.94 
L 129.706803 -75.94 
L 136.106557 -75.94 
L 142.506311 -75.94 
L 148.906066 -75.94 
L 155.30582 -75.94 
L 161.705574 -75.94 
L 168.105328 -75.94 
L 174.505082 -75.94 
L 180.904836 -75.94 
L 187.30459 -75.94 
L 193.704344 -75.94 
L 200.104098 -75.94 
L 206.503852 -75.94 
L 212.903607 -75.94 
L 219.303361 -75.94 
L 225.703115 -75.94 
L 232.102869 -75.94 
L 238.502623 -75.94 
L 244.902377 -75.94 
L 251.302131 -75.94 
L 257.701885 -75.94 
L 264.101639 -75.94 
L 270.501393 -75.94 
L 276.901148 -75.94 
L 283.300902 -75.94 
L 289.700656 -75.94 
L 296.10041 -75.94 
L 302.500164 -75.94 
L 308.899918 -75.94 
L 315.299672 -75.94 
L 321.699426 -75.94 
L 328.09918 -75.94 
L 334.498934 -75.94 
L 340.898689 -75.94 
L 347.298443 -75.94 
L 353.698197 -75.94 
L 360.097951 -75.94 
L 366.497705 -75.94 
L 372.897459 -75.94 
L 379.297213 -75.94 
L 385.696967 -75.94 
L 392.096721 -75.94 
L 398.496475 -75.94 
L 404.89623 -75.94 
L 411.295984 -75.94 
L 417.695738 -75.94 
L 424.095492 -75.94 
L 430.495246 -75.94 
L 436.895 -75.94 
L 436.895 -258.638568 
L 436.895 -258.638568 
L 430.495246 -201.88313 
L 424.095492 -276.307325 
L 417.695738 -203.725444 
L 411.295984 -205.111304 
L 404.89623 -249.792233 
L 398.496475 -250.907226 
L 392.096721 -258.249105 
L 385.696967 -255.821111 
L 379.297213 -232.656596 
L 372.897459 -221.467517 
L 366.497705 -181.528922 
L 360.097951 -177.62332 
L 353.698197 -189.930019 
L 347.298443 -159.303699 
L 340.898689 -213.957072 
L 334.498934 -138.133506 
L 328.09918 -171.481004 
L 321.699426 -182.268043 
L 315.299672 -155.95546 
L 308.899918 -148.460418 
L 302.500164 -173.492434 
L 296.10041 -140.900645 
L 289.700656 -198.409371 
L 283.300902 -176.128816 
L 276.901148 -159.479681 
L 270.501393 -140.400242 
L 264.101639 -195.103254 
L 257.701885 -114.728576 
L 251.302131 -157.840775 
L 244.902377 -165.875369 
L 238.502623 -155.206884 
L 232.102869 -153.382706 
L 225.703115 -177.786552 
L 219.303361 -175.574908 
L 212.903607 -129.359881 
L 206.503852 -136.536206 
L 200.104098 -148.654911 
L 193.704344 -147.587278 
L 187.30459 -133.711092 
L 180.904836 -139.466732 
L 174.505082 -158.252685 
L 168.105328 -166.955866 
L 161.705574 -156.641416 
L 155.30582 -135.997594 
L 148.906066 -136.924199 
L 142.506311 -164.957701 
L 136.106557 -161.677283 
L 129.706803 -137.537987 
L 123.307049 -135.505168 
L 116.907295 -190.965147 
L 110.507541 -140.108028 
L 104.107787 -160.847548 
L 97.708033 -201.145794 
L 91.308279 -170.331137 
L 84.908525 -166.982557 
L 78.50877 -160.314523 
L 72.109016 -157.579807 
L 65.709262 -165.351593 
L 59.309508 -184.01063 
L 52.909754 -165.813804 
L 46.51 -234.100862 
z
" id="m399399ac76" style="stroke:#2ca02c;"/>
    </defs>
    <g clip-path="url(#p8bdd1c480b)">
     <use style="fill:#2ca02c;stroke:#2ca02c;" x="0" xlink:href="#m399399ac76" y="648"/>
    </g>
   </g>
   <g id="matplotlib.axis_5">
    <g id="xtick_25">
     <g id="line2d_43">
      <g>
       <use style="stroke:#000000;stroke-width:0.8;" x="46.51" xlink:href="#mb3591882bf" y="572.06"/>
      </g>
     </g>
     <g id="text_11">
      <!-- 2020-05-02 -->
      <defs>
       <path d="M 4.890625 31.390625 
L 31.203125 31.390625 
L 31.203125 23.390625 
L 4.890625 23.390625 
z
" id="DejaVuSans-45"/>
      </defs>
      <g transform="translate(49.269375 637.175625)rotate(-90)scale(0.1 -0.1)">
       <use xlink:href="#DejaVuSans-50"/>
       <use x="63.623047" xlink:href="#DejaVuSans-48"/>
       <use x="127.246094" xlink:href="#DejaVuSans-50"/>
       <use x="190.869141" xlink:href="#DejaVuSans-48"/>
       <use x="254.492188" xlink:href="#DejaVuSans-45"/>
       <use x="290.576172" xlink:href="#DejaVuSans-48"/>
       <use x="354.199219" xlink:href="#DejaVuSans-53"/>
       <use x="417.822266" xlink:href="#DejaVuSans-45"/>
       <use x="453.90625" xlink:href="#DejaVuSans-48"/>
       <use x="517.529297" xlink:href="#DejaVuSans-50"/>
      </g>
     </g>
    </g>
    <g id="xtick_26">
     <g id="line2d_44">
      <g>
       <use style="stroke:#000000;stroke-width:0.8;" x="81.999545" xlink:href="#mb3591882bf" y="572.06"/>
      </g>
     </g>
     <g id="text_12">
      <!-- 2020-05-07 -->
      <g transform="translate(84.75892 637.175625)rotate(-90)scale(0.1 -0.1)">
       <use xlink:href="#DejaVuSans-50"/>
       <use x="63.623047" xlink:href="#DejaVuSans-48"/>
       <use x="127.246094" xlink:href="#DejaVuSans-50"/>
       <use x="190.869141" xlink:href="#DejaVuSans-48"/>
       <use x="254.492188" xlink:href="#DejaVuSans-45"/>
       <use x="290.576172" xlink:href="#DejaVuSans-48"/>
       <use x="354.199219" xlink:href="#DejaVuSans-53"/>
       <use x="417.822266" xlink:href="#DejaVuSans-45"/>
       <use x="453.90625" xlink:href="#DejaVuSans-48"/>
       <use x="517.529297" xlink:href="#DejaVuSans-55"/>
      </g>
     </g>
    </g>
    <g id="xtick_27">
     <g id="line2d_45">
      <g>
       <use style="stroke:#000000;stroke-width:0.8;" x="117.489091" xlink:href="#mb3591882bf" y="572.06"/>
      </g>
     </g>
     <g id="text_13">
      <!-- 2020-05-13 -->
      <defs>
       <path d="M 40.578125 39.3125 
Q 47.65625 37.796875 51.625 33 
Q 55.609375 28.21875 55.609375 21.1875 
Q 55.609375 10.40625 48.1875 4.484375 
Q 40.765625 -1.421875 27.09375 -1.421875 
Q 22.515625 -1.421875 17.65625 -0.515625 
Q 12.796875 0.390625 7.625 2.203125 
L 7.625 11.71875 
Q 11.71875 9.328125 16.59375 8.109375 
Q 21.484375 6.890625 26.8125 6.890625 
Q 36.078125 6.890625 40.9375 10.546875 
Q 45.796875 14.203125 45.796875 21.1875 
Q 45.796875 27.640625 41.28125 31.265625 
Q 36.765625 34.90625 28.71875 34.90625 
L 20.21875 34.90625 
L 20.21875 43.015625 
L 29.109375 43.015625 
Q 36.375 43.015625 40.234375 45.921875 
Q 44.09375 48.828125 44.09375 54.296875 
Q 44.09375 59.90625 40.109375 62.90625 
Q 36.140625 65.921875 28.71875 65.921875 
Q 24.65625 65.921875 20.015625 65.03125 
Q 15.375 64.15625 9.8125 62.3125 
L 9.8125 71.09375 
Q 15.4375 72.65625 20.34375 73.4375 
Q 25.25 74.21875 29.59375 74.21875 
Q 40.828125 74.21875 47.359375 69.109375 
Q 53.90625 64.015625 53.90625 55.328125 
Q 53.90625 49.265625 50.4375 45.09375 
Q 46.96875 40.921875 40.578125 39.3125 
z
" id="DejaVuSans-51"/>
      </defs>
      <g transform="translate(120.248466 637.175625)rotate(-90)scale(0.1 -0.1)">
       <use xlink:href="#DejaVuSans-50"/>
       <use x="63.623047" xlink:href="#DejaVuSans-48"/>
       <use x="127.246094" xlink:href="#DejaVuSans-50"/>
       <use x="190.869141" xlink:href="#DejaVuSans-48"/>
       <use x="254.492188" xlink:href="#DejaVuSans-45"/>
       <use x="290.576172" xlink:href="#DejaVuSans-48"/>
       <use x="354.199219" xlink:href="#DejaVuSans-53"/>
       <use x="417.822266" xlink:href="#DejaVuSans-45"/>
       <use x="453.90625" xlink:href="#DejaVuSans-49"/>
       <use x="517.529297" xlink:href="#DejaVuSans-51"/>
      </g>
     </g>
    </g>
    <g id="xtick_28">
     <g id="line2d_46">
      <g>
       <use style="stroke:#000000;stroke-width:0.8;" x="152.978636" xlink:href="#mb3591882bf" y="572.06"/>
      </g>
     </g>
     <g id="text_14">
      <!-- 2020-05-18 -->
      <defs>
       <path d="M 31.78125 34.625 
Q 24.75 34.625 20.71875 30.859375 
Q 16.703125 27.09375 16.703125 20.515625 
Q 16.703125 13.921875 20.71875 10.15625 
Q 24.75 6.390625 31.78125 6.390625 
Q 38.8125 6.390625 42.859375 10.171875 
Q 46.921875 13.96875 46.921875 20.515625 
Q 46.921875 27.09375 42.890625 30.859375 
Q 38.875 34.625 31.78125 34.625 
z
M 21.921875 38.8125 
Q 15.578125 40.375 12.03125 44.71875 
Q 8.5 49.078125 8.5 55.328125 
Q 8.5 64.0625 14.71875 69.140625 
Q 20.953125 74.21875 31.78125 74.21875 
Q 42.671875 74.21875 48.875 69.140625 
Q 55.078125 64.0625 55.078125 55.328125 
Q 55.078125 49.078125 51.53125 44.71875 
Q 48 40.375 41.703125 38.8125 
Q 48.828125 37.15625 52.796875 32.3125 
Q 56.78125 27.484375 56.78125 20.515625 
Q 56.78125 9.90625 50.3125 4.234375 
Q 43.84375 -1.421875 31.78125 -1.421875 
Q 19.734375 -1.421875 13.25 4.234375 
Q 6.78125 9.90625 6.78125 20.515625 
Q 6.78125 27.484375 10.78125 32.3125 
Q 14.796875 37.15625 21.921875 38.8125 
z
M 18.3125 54.390625 
Q 18.3125 48.734375 21.84375 45.5625 
Q 25.390625 42.390625 31.78125 42.390625 
Q 38.140625 42.390625 41.71875 45.5625 
Q 45.3125 48.734375 45.3125 54.390625 
Q 45.3125 60.0625 41.71875 63.234375 
Q 38.140625 66.40625 31.78125 66.40625 
Q 25.390625 66.40625 21.84375 63.234375 
Q 18.3125 60.0625 18.3125 54.390625 
z
" id="DejaVuSans-56"/>
      </defs>
      <g transform="translate(155.738011 637.175625)rotate(-90)scale(0.1 -0.1)">
       <use xlink:href="#DejaVuSans-50"/>
       <use x="63.623047" xlink:href="#DejaVuSans-48"/>
       <use x="127.246094" xlink:href="#DejaVuSans-50"/>
       <use x="190.869141" xlink:href="#DejaVuSans-48"/>
       <use x="254.492188" xlink:href="#DejaVuSans-45"/>
       <use x="290.576172" xlink:href="#DejaVuSans-48"/>
       <use x="354.199219" xlink:href="#DejaVuSans-53"/>
       <use x="417.822266" xlink:href="#DejaVuSans-45"/>
       <use x="453.90625" xlink:href="#DejaVuSans-49"/>
       <use x="517.529297" xlink:href="#DejaVuSans-56"/>
      </g>
     </g>
    </g>
    <g id="xtick_29">
     <g id="line2d_47">
      <g>
       <use style="stroke:#000000;stroke-width:0.8;" x="188.468182" xlink:href="#mb3591882bf" y="572.06"/>
      </g>
     </g>
     <g id="text_15">
      <!-- 2020-05-24 -->
      <defs>
       <path d="M 37.796875 64.3125 
L 12.890625 25.390625 
L 37.796875 25.390625 
z
M 35.203125 72.90625 
L 47.609375 72.90625 
L 47.609375 25.390625 
L 58.015625 25.390625 
L 58.015625 17.1875 
L 47.609375 17.1875 
L 47.609375 0 
L 37.796875 0 
L 37.796875 17.1875 
L 4.890625 17.1875 
L 4.890625 26.703125 
z
" id="DejaVuSans-52"/>
      </defs>
      <g transform="translate(191.227557 637.175625)rotate(-90)scale(0.1 -0.1)">
       <use xlink:href="#DejaVuSans-50"/>
       <use x="63.623047" xlink:href="#DejaVuSans-48"/>
       <use x="127.246094" xlink:href="#DejaVuSans-50"/>
       <use x="190.869141" xlink:href="#DejaVuSans-48"/>
       <use x="254.492188" xlink:href="#DejaVuSans-45"/>
       <use x="290.576172" xlink:href="#DejaVuSans-48"/>
       <use x="354.199219" xlink:href="#DejaVuSans-53"/>
       <use x="417.822266" xlink:href="#DejaVuSans-45"/>
       <use x="453.90625" xlink:href="#DejaVuSans-50"/>
       <use x="517.529297" xlink:href="#DejaVuSans-52"/>
      </g>
     </g>
    </g>
    <g id="xtick_30">
     <g id="line2d_48">
      <g>
       <use style="stroke:#000000;stroke-width:0.8;" x="223.957727" xlink:href="#mb3591882bf" y="572.06"/>
      </g>
     </g>
     <g id="text_16">
      <!-- 2020-05-29 -->
      <defs>
       <path d="M 10.984375 1.515625 
L 10.984375 10.5 
Q 14.703125 8.734375 18.5 7.8125 
Q 22.3125 6.890625 25.984375 6.890625 
Q 35.75 6.890625 40.890625 13.453125 
Q 46.046875 20.015625 46.78125 33.40625 
Q 43.953125 29.203125 39.59375 26.953125 
Q 35.25 24.703125 29.984375 24.703125 
Q 19.046875 24.703125 12.671875 31.3125 
Q 6.296875 37.9375 6.296875 49.421875 
Q 6.296875 60.640625 12.9375 67.421875 
Q 19.578125 74.21875 30.609375 74.21875 
Q 43.265625 74.21875 49.921875 64.515625 
Q 56.59375 54.828125 56.59375 36.375 
Q 56.59375 19.140625 48.40625 8.859375 
Q 40.234375 -1.421875 26.421875 -1.421875 
Q 22.703125 -1.421875 18.890625 -0.6875 
Q 15.09375 0.046875 10.984375 1.515625 
z
M 30.609375 32.421875 
Q 37.25 32.421875 41.125 36.953125 
Q 45.015625 41.5 45.015625 49.421875 
Q 45.015625 57.28125 41.125 61.84375 
Q 37.25 66.40625 30.609375 66.40625 
Q 23.96875 66.40625 20.09375 61.84375 
Q 16.21875 57.28125 16.21875 49.421875 
Q 16.21875 41.5 20.09375 36.953125 
Q 23.96875 32.421875 30.609375 32.421875 
z
" id="DejaVuSans-57"/>
      </defs>
      <g transform="translate(226.717102 637.175625)rotate(-90)scale(0.1 -0.1)">
       <use xlink:href="#DejaVuSans-50"/>
       <use x="63.623047" xlink:href="#DejaVuSans-48"/>
       <use x="127.246094" xlink:href="#DejaVuSans-50"/>
       <use x="190.869141" xlink:href="#DejaVuSans-48"/>
       <use x="254.492188" xlink:href="#DejaVuSans-45"/>
       <use x="290.576172" xlink:href="#DejaVuSans-48"/>
       <use x="354.199219" xlink:href="#DejaVuSans-53"/>
       <use x="417.822266" xlink:href="#DejaVuSans-45"/>
       <use x="453.90625" xlink:href="#DejaVuSans-50"/>
       <use x="517.529297" xlink:href="#DejaVuSans-57"/>
      </g>
     </g>
    </g>
    <g id="xtick_31">
     <g id="line2d_49">
      <g>
       <use style="stroke:#000000;stroke-width:0.8;" x="259.447273" xlink:href="#mb3591882bf" y="572.06"/>
      </g>
     </g>
     <g id="text_17">
      <!-- 2020-06-04 -->
      <defs>
       <path d="M 33.015625 40.375 
Q 26.375 40.375 22.484375 35.828125 
Q 18.609375 31.296875 18.609375 23.390625 
Q 18.609375 15.53125 22.484375 10.953125 
Q 26.375 6.390625 33.015625 6.390625 
Q 39.65625 6.390625 43.53125 10.953125 
Q 47.40625 15.53125 47.40625 23.390625 
Q 47.40625 31.296875 43.53125 35.828125 
Q 39.65625 40.375 33.015625 40.375 
z
M 52.59375 71.296875 
L 52.59375 62.3125 
Q 48.875 64.0625 45.09375 64.984375 
Q 41.3125 65.921875 37.59375 65.921875 
Q 27.828125 65.921875 22.671875 59.328125 
Q 17.53125 52.734375 16.796875 39.40625 
Q 19.671875 43.65625 24.015625 45.921875 
Q 28.375 48.1875 33.59375 48.1875 
Q 44.578125 48.1875 50.953125 41.515625 
Q 57.328125 34.859375 57.328125 23.390625 
Q 57.328125 12.15625 50.6875 5.359375 
Q 44.046875 -1.421875 33.015625 -1.421875 
Q 20.359375 -1.421875 13.671875 8.265625 
Q 6.984375 17.96875 6.984375 36.375 
Q 6.984375 53.65625 15.1875 63.9375 
Q 23.390625 74.21875 37.203125 74.21875 
Q 40.921875 74.21875 44.703125 73.484375 
Q 48.484375 72.75 52.59375 71.296875 
z
" id="DejaVuSans-54"/>
      </defs>
      <g transform="translate(262.206648 637.175625)rotate(-90)scale(0.1 -0.1)">
       <use xlink:href="#DejaVuSans-50"/>
       <use x="63.623047" xlink:href="#DejaVuSans-48"/>
       <use x="127.246094" xlink:href="#DejaVuSans-50"/>
       <use x="190.869141" xlink:href="#DejaVuSans-48"/>
       <use x="254.492188" xlink:href="#DejaVuSans-45"/>
       <use x="290.576172" xlink:href="#DejaVuSans-48"/>
       <use x="354.199219" xlink:href="#DejaVuSans-54"/>
       <use x="417.822266" xlink:href="#DejaVuSans-45"/>
       <use x="453.90625" xlink:href="#DejaVuSans-48"/>
       <use x="517.529297" xlink:href="#DejaVuSans-52"/>
      </g>
     </g>
    </g>
    <g id="xtick_32">
     <g id="line2d_50">
      <g>
       <use style="stroke:#000000;stroke-width:0.8;" x="294.936818" xlink:href="#mb3591882bf" y="572.06"/>
      </g>
     </g>
     <g id="text_18">
      <!-- 2020-06-09 -->
      <g transform="translate(297.696193 637.175625)rotate(-90)scale(0.1 -0.1)">
       <use xlink:href="#DejaVuSans-50"/>
       <use x="63.623047" xlink:href="#DejaVuSans-48"/>
       <use x="127.246094" xlink:href="#DejaVuSans-50"/>
       <use x="190.869141" xlink:href="#DejaVuSans-48"/>
       <use x="254.492188" xlink:href="#DejaVuSans-45"/>
       <use x="290.576172" xlink:href="#DejaVuSans-48"/>
       <use x="354.199219" xlink:href="#DejaVuSans-54"/>
       <use x="417.822266" xlink:href="#DejaVuSans-45"/>
       <use x="453.90625" xlink:href="#DejaVuSans-48"/>
       <use x="517.529297" xlink:href="#DejaVuSans-57"/>
      </g>
     </g>
    </g>
    <g id="xtick_33">
     <g id="line2d_51">
      <g>
       <use style="stroke:#000000;stroke-width:0.8;" x="330.426364" xlink:href="#mb3591882bf" y="572.06"/>
      </g>
     </g>
     <g id="text_19">
      <!-- 2020-06-15 -->
      <g transform="translate(333.185739 637.175625)rotate(-90)scale(0.1 -0.1)">
       <use xlink:href="#DejaVuSans-50"/>
       <use x="63.623047" xlink:href="#DejaVuSans-48"/>
       <use x="127.246094" xlink:href="#DejaVuSans-50"/>
       <use x="190.869141" xlink:href="#DejaVuSans-48"/>
       <use x="254.492188" xlink:href="#DejaVuSans-45"/>
       <use x="290.576172" xlink:href="#DejaVuSans-48"/>
       <use x="354.199219" xlink:href="#DejaVuSans-54"/>
       <use x="417.822266" xlink:href="#DejaVuSans-45"/>
       <use x="453.90625" xlink:href="#DejaVuSans-49"/>
       <use x="517.529297" xlink:href="#DejaVuSans-53"/>
      </g>
     </g>
    </g>
    <g id="xtick_34">
     <g id="line2d_52">
      <g>
       <use style="stroke:#000000;stroke-width:0.8;" x="365.915909" xlink:href="#mb3591882bf" y="572.06"/>
      </g>
     </g>
     <g id="text_20">
      <!-- 2020-06-20 -->
      <g transform="translate(368.675284 637.175625)rotate(-90)scale(0.1 -0.1)">
       <use xlink:href="#DejaVuSans-50"/>
       <use x="63.623047" xlink:href="#DejaVuSans-48"/>
       <use x="127.246094" xlink:href="#DejaVuSans-50"/>
       <use x="190.869141" xlink:href="#DejaVuSans-48"/>
       <use x="254.492188" xlink:href="#DejaVuSans-45"/>
       <use x="290.576172" xlink:href="#DejaVuSans-48"/>
       <use x="354.199219" xlink:href="#DejaVuSans-54"/>
       <use x="417.822266" xlink:href="#DejaVuSans-45"/>
       <use x="453.90625" xlink:href="#DejaVuSans-50"/>
       <use x="517.529297" xlink:href="#DejaVuSans-48"/>
      </g>
     </g>
    </g>
    <g id="xtick_35">
     <g id="line2d_53">
      <g>
       <use style="stroke:#000000;stroke-width:0.8;" x="401.405455" xlink:href="#mb3591882bf" y="572.06"/>
      </g>
     </g>
     <g id="text_21">
      <!-- 2020-06-26 -->
      <g transform="translate(404.16483 637.175625)rotate(-90)scale(0.1 -0.1)">
       <use xlink:href="#DejaVuSans-50"/>
       <use x="63.623047" xlink:href="#DejaVuSans-48"/>
       <use x="127.246094" xlink:href="#DejaVuSans-50"/>
       <use x="190.869141" xlink:href="#DejaVuSans-48"/>
       <use x="254.492188" xlink:href="#DejaVuSans-45"/>
       <use x="290.576172" xlink:href="#DejaVuSans-48"/>
       <use x="354.199219" xlink:href="#DejaVuSans-54"/>
       <use x="417.822266" xlink:href="#DejaVuSans-45"/>
       <use x="453.90625" xlink:href="#DejaVuSans-50"/>
       <use x="517.529297" xlink:href="#DejaVuSans-54"/>
      </g>
     </g>
    </g>
    <g id="xtick_36">
     <g id="line2d_54">
      <g>
       <use style="stroke:#000000;stroke-width:0.8;" x="436.895" xlink:href="#mb3591882bf" y="572.06"/>
      </g>
     </g>
     <g id="text_22">
      <!-- 2020-07-02 -->
      <g transform="translate(439.654375 637.175625)rotate(-90)scale(0.1 -0.1)">
       <use xlink:href="#DejaVuSans-50"/>
       <use x="63.623047" xlink:href="#DejaVuSans-48"/>
       <use x="127.246094" xlink:href="#DejaVuSans-50"/>
       <use x="190.869141" xlink:href="#DejaVuSans-48"/>
       <use x="254.492188" xlink:href="#DejaVuSans-45"/>
       <use x="290.576172" xlink:href="#DejaVuSans-48"/>
       <use x="354.199219" xlink:href="#DejaVuSans-55"/>
       <use x="417.822266" xlink:href="#DejaVuSans-45"/>
       <use x="453.90625" xlink:href="#DejaVuSans-48"/>
       <use x="517.529297" xlink:href="#DejaVuSans-50"/>
      </g>
     </g>
    </g>
   </g>
   <g id="matplotlib.axis_6">
    <g id="ytick_17">
     <g id="line2d_55">
      <g>
       <use style="stroke:#000000;stroke-width:0.8;" x="46.51" xlink:href="#mf21baeaa13" y="572.06"/>
      </g>
     </g>
     <g id="text_23">
      <!-- 0.000 -->
      <g transform="translate(10.881875 575.859219)scale(0.1 -0.1)">
       <use xlink:href="#DejaVuSans-48"/>
       <use x="63.623047" xlink:href="#DejaVuSans-46"/>
       <use x="95.410156" xlink:href="#DejaVuSans-48"/>
       <use x="159.033203" xlink:href="#DejaVuSans-48"/>
       <use x="222.65625" xlink:href="#DejaVuSans-48"/>
      </g>
     </g>
    </g>
    <g id="ytick_18">
     <g id="line2d_56">
      <g>
       <use style="stroke:#000000;stroke-width:0.8;" x="46.51" xlink:href="#mf21baeaa13" y="539.39194"/>
      </g>
     </g>
     <g id="text_24">
      <!-- 0.025 -->
      <g transform="translate(10.881875 543.191159)scale(0.1 -0.1)">
       <use xlink:href="#DejaVuSans-48"/>
       <use x="63.623047" xlink:href="#DejaVuSans-46"/>
       <use x="95.410156" xlink:href="#DejaVuSans-48"/>
       <use x="159.033203" xlink:href="#DejaVuSans-50"/>
       <use x="222.65625" xlink:href="#DejaVuSans-53"/>
      </g>
     </g>
    </g>
    <g id="ytick_19">
     <g id="line2d_57">
      <g>
       <use style="stroke:#000000;stroke-width:0.8;" x="46.51" xlink:href="#mf21baeaa13" y="506.72388"/>
      </g>
     </g>
     <g id="text_25">
      <!-- 0.050 -->
      <g transform="translate(10.881875 510.523098)scale(0.1 -0.1)">
       <use xlink:href="#DejaVuSans-48"/>
       <use x="63.623047" xlink:href="#DejaVuSans-46"/>
       <use x="95.410156" xlink:href="#DejaVuSans-48"/>
       <use x="159.033203" xlink:href="#DejaVuSans-53"/>
       <use x="222.65625" xlink:href="#DejaVuSans-48"/>
      </g>
     </g>
    </g>
    <g id="ytick_20">
     <g id="line2d_58">
      <g>
       <use style="stroke:#000000;stroke-width:0.8;" x="46.51" xlink:href="#mf21baeaa13" y="474.055819"/>
      </g>
     </g>
     <g id="text_26">
      <!-- 0.075 -->
      <g transform="translate(10.881875 477.855038)scale(0.1 -0.1)">
       <use xlink:href="#DejaVuSans-48"/>
       <use x="63.623047" xlink:href="#DejaVuSans-46"/>
       <use x="95.410156" xlink:href="#DejaVuSans-48"/>
       <use x="159.033203" xlink:href="#DejaVuSans-55"/>
       <use x="222.65625" xlink:href="#DejaVuSans-53"/>
      </g>
     </g>
    </g>
    <g id="ytick_21">
     <g id="line2d_59">
      <g>
       <use style="stroke:#000000;stroke-width:0.8;" x="46.51" xlink:href="#mf21baeaa13" y="441.387759"/>
      </g>
     </g>
     <g id="text_27">
      <!-- 0.100 -->
      <g transform="translate(10.881875 445.186978)scale(0.1 -0.1)">
       <use xlink:href="#DejaVuSans-48"/>
       <use x="63.623047" xlink:href="#DejaVuSans-46"/>
       <use x="95.410156" xlink:href="#DejaVuSans-49"/>
       <use x="159.033203" xlink:href="#DejaVuSans-48"/>
       <use x="222.65625" xlink:href="#DejaVuSans-48"/>
      </g>
     </g>
    </g>
    <g id="ytick_22">
     <g id="line2d_60">
      <g>
       <use style="stroke:#000000;stroke-width:0.8;" x="46.51" xlink:href="#mf21baeaa13" y="408.719699"/>
      </g>
     </g>
     <g id="text_28">
      <!-- 0.125 -->
      <g transform="translate(10.881875 412.518918)scale(0.1 -0.1)">
       <use xlink:href="#DejaVuSans-48"/>
       <use x="63.623047" xlink:href="#DejaVuSans-46"/>
       <use x="95.410156" xlink:href="#DejaVuSans-49"/>
       <use x="159.033203" xlink:href="#DejaVuSans-50"/>
       <use x="222.65625" xlink:href="#DejaVuSans-53"/>
      </g>
     </g>
    </g>
    <g id="ytick_23">
     <g id="line2d_61">
      <g>
       <use style="stroke:#000000;stroke-width:0.8;" x="46.51" xlink:href="#mf21baeaa13" y="376.051639"/>
      </g>
     </g>
     <g id="text_29">
      <!-- 0.150 -->
      <g transform="translate(10.881875 379.850858)scale(0.1 -0.1)">
       <use xlink:href="#DejaVuSans-48"/>
       <use x="63.623047" xlink:href="#DejaVuSans-46"/>
       <use x="95.410156" xlink:href="#DejaVuSans-49"/>
       <use x="159.033203" xlink:href="#DejaVuSans-53"/>
       <use x="222.65625" xlink:href="#DejaVuSans-48"/>
      </g>
     </g>
    </g>
    <g id="ytick_24">
     <g id="line2d_62">
      <g>
       <use style="stroke:#000000;stroke-width:0.8;" x="46.51" xlink:href="#mf21baeaa13" y="343.383579"/>
      </g>
     </g>
     <g id="text_30">
      <!-- 0.175 -->
      <g transform="translate(10.881875 347.182798)scale(0.1 -0.1)">
       <use xlink:href="#DejaVuSans-48"/>
       <use x="63.623047" xlink:href="#DejaVuSans-46"/>
       <use x="95.410156" xlink:href="#DejaVuSans-49"/>
       <use x="159.033203" xlink:href="#DejaVuSans-55"/>
       <use x="222.65625" xlink:href="#DejaVuSans-53"/>
      </g>
     </g>
    </g>
   </g>
   <g id="line2d_63">
    <path clip-path="url(#p8bdd1c480b)" d="M 46.51 413.899138 
L 52.909754 482.186196 
L 59.309508 463.98937 
L 65.709262 482.648407 
L 72.109016 490.420193 
L 78.50877 487.685477 
L 84.908525 481.017443 
L 91.308279 477.668863 
L 97.708033 446.854206 
L 104.107787 487.152452 
L 110.507541 507.891972 
L 116.907295 457.034853 
L 123.307049 512.494832 
L 129.706803 510.462013 
L 136.106557 486.322717 
L 142.506311 483.042299 
L 148.906066 511.075801 
L 155.30582 512.002406 
L 161.705574 491.358584 
L 168.105328 481.044134 
L 174.505082 489.747315 
L 180.904836 508.533268 
L 187.30459 514.288908 
L 193.704344 500.412722 
L 200.104098 499.345089 
L 206.503852 511.463794 
L 212.903607 518.640119 
L 219.303361 472.425092 
L 225.703115 470.213448 
L 232.102869 494.617294 
L 238.502623 492.793116 
L 244.902377 482.124631 
L 251.302131 490.159225 
L 257.701885 533.271424 
L 264.101639 452.896746 
L 270.501393 507.599758 
L 276.901148 488.520319 
L 283.300902 471.871184 
L 289.700656 449.590629 
L 296.10041 507.099355 
L 302.500164 474.507566 
L 308.899918 499.539582 
L 315.299672 492.04454 
L 321.699426 465.731957 
L 328.09918 476.518996 
L 334.498934 509.866494 
L 340.898689 434.042928 
L 347.298443 488.696301 
L 353.698197 458.069981 
L 360.097951 470.37668 
L 366.497705 466.471078 
L 372.897459 426.532483 
L 379.297213 415.343404 
L 385.696967 392.178889 
L 392.096721 389.750895 
L 398.496475 397.092774 
L 404.89623 398.207767 
L 411.295984 442.888696 
L 417.695738 444.274556 
L 424.095492 371.692675 
L 430.495246 446.11687 
L 436.895 389.361432 
" style="fill:none;stroke:#2ca02c;stroke-linecap:square;stroke-width:1.5;"/>
   </g>
   <g id="patch_13">
    <path d="M 46.51 572.06 
L 46.51 314.53 
" style="fill:none;stroke:#000000;stroke-linecap:square;stroke-linejoin:miter;stroke-width:0.8;"/>
   </g>
   <g id="patch_14">
    <path d="M 436.895 572.06 
L 436.895 314.53 
" style="fill:none;stroke:#000000;stroke-linecap:square;stroke-linejoin:miter;stroke-width:0.8;"/>
   </g>
   <g id="patch_15">
    <path d="M 46.51 572.06 
L 436.895 572.06 
" style="fill:none;stroke:#000000;stroke-linecap:square;stroke-linejoin:miter;stroke-width:0.8;"/>
   </g>
   <g id="patch_16">
    <path d="M 46.51 314.53 
L 436.895 314.53 
" style="fill:none;stroke:#000000;stroke-linecap:square;stroke-linejoin:miter;stroke-width:0.8;"/>
   </g>
   <g id="text_31">
    <!-- South -->
    <defs>
     <path d="M 53.515625 70.515625 
L 53.515625 60.890625 
Q 47.90625 63.578125 42.921875 64.890625 
Q 37.9375 66.21875 33.296875 66.21875 
Q 25.25 66.21875 20.875 63.09375 
Q 16.5 59.96875 16.5 54.203125 
Q 16.5 49.359375 19.40625 46.890625 
Q 22.3125 44.4375 30.421875 42.921875 
L 36.375 41.703125 
Q 47.40625 39.59375 52.65625 34.296875 
Q 57.90625 29 57.90625 20.125 
Q 57.90625 9.515625 50.796875 4.046875 
Q 43.703125 -1.421875 29.984375 -1.421875 
Q 24.8125 -1.421875 18.96875 -0.25 
Q 13.140625 0.921875 6.890625 3.21875 
L 6.890625 13.375 
Q 12.890625 10.015625 18.65625 8.296875 
Q 24.421875 6.59375 29.984375 6.59375 
Q 38.421875 6.59375 43.015625 9.90625 
Q 47.609375 13.234375 47.609375 19.390625 
Q 47.609375 24.75 44.3125 27.78125 
Q 41.015625 30.8125 33.5 32.328125 
L 27.484375 33.5 
Q 16.453125 35.6875 11.515625 40.375 
Q 6.59375 45.0625 6.59375 53.421875 
Q 6.59375 63.09375 13.40625 68.65625 
Q 20.21875 74.21875 32.171875 74.21875 
Q 37.3125 74.21875 42.625 73.28125 
Q 47.953125 72.359375 53.515625 70.515625 
z
" id="DejaVuSans-83"/>
     <path d="M 8.5 21.578125 
L 8.5 54.6875 
L 17.484375 54.6875 
L 17.484375 21.921875 
Q 17.484375 14.15625 20.5 10.265625 
Q 23.53125 6.390625 29.59375 6.390625 
Q 36.859375 6.390625 41.078125 11.03125 
Q 45.3125 15.671875 45.3125 23.6875 
L 45.3125 54.6875 
L 54.296875 54.6875 
L 54.296875 0 
L 45.3125 0 
L 45.3125 8.40625 
Q 42.046875 3.421875 37.71875 1 
Q 33.40625 -1.421875 27.6875 -1.421875 
Q 18.265625 -1.421875 13.375 4.4375 
Q 8.5 10.296875 8.5 21.578125 
z
M 31.109375 56 
z
" id="DejaVuSans-117"/>
    </defs>
    <g transform="translate(224.265 308.53)scale(0.12 -0.12)">
     <use xlink:href="#DejaVuSans-83"/>
     <use x="63.476562" xlink:href="#DejaVuSans-111"/>
     <use x="124.658203" xlink:href="#DejaVuSans-117"/>
     <use x="188.037109" xlink:href="#DejaVuSans-116"/>
     <use x="227.246094" xlink:href="#DejaVuSans-104"/>
    </g>
   </g>
  </g>
  <g id="axes_4">
   <g id="patch_17">
    <path d="M 457.775 572.06 
L 848.16 572.06 
L 848.16 314.53 
L 457.775 314.53 
z
" style="fill:#ffffff;"/>
   </g>
   <g id="PolyCollection_4">
    <defs>
     <path d="M 457.775 -148.141027 
L 457.775 -75.94 
L 464.174754 -75.94 
L 470.574508 -75.94 
L 476.974262 -75.94 
L 483.374016 -75.94 
L 489.77377 -75.94 
L 496.173525 -75.94 
L 502.573279 -75.94 
L 508.973033 -75.94 
L 515.372787 -75.94 
L 521.772541 -75.94 
L 528.172295 -75.94 
L 534.572049 -75.94 
L 540.971803 -75.94 
L 547.371557 -75.94 
L 553.771311 -75.94 
L 560.171066 -75.94 
L 566.57082 -75.94 
L 572.970574 -75.94 
L 579.370328 -75.94 
L 585.770082 -75.94 
L 592.169836 -75.94 
L 598.56959 -75.94 
L 604.969344 -75.94 
L 611.369098 -75.94 
L 617.768852 -75.94 
L 624.168607 -75.94 
L 630.568361 -75.94 
L 636.968115 -75.94 
L 643.367869 -75.94 
L 649.767623 -75.94 
L 656.167377 -75.94 
L 662.567131 -75.94 
L 668.966885 -75.94 
L 675.366639 -75.94 
L 681.766393 -75.94 
L 688.166148 -75.94 
L 694.565902 -75.94 
L 700.965656 -75.94 
L 707.36541 -75.94 
L 713.765164 -75.94 
L 720.164918 -75.94 
L 726.564672 -75.94 
L 732.964426 -75.94 
L 739.36418 -75.94 
L 745.763934 -75.94 
L 752.163689 -75.94 
L 758.563443 -75.94 
L 764.963197 -75.94 
L 771.362951 -75.94 
L 777.762705 -75.94 
L 784.162459 -75.94 
L 790.562213 -75.94 
L 796.961967 -75.94 
L 803.361721 -75.94 
L 809.761475 -75.94 
L 816.16123 -75.94 
L 822.560984 -75.94 
L 828.960738 -75.94 
L 835.360492 -75.94 
L 841.760246 -75.94 
L 848.16 -75.94 
L 848.16 -206.560229 
L 848.16 -206.560229 
L 841.760246 -171.176975 
L 835.360492 -174.404085 
L 828.960738 -175.216982 
L 822.560984 -173.96607 
L 816.16123 -180.816195 
L 809.761475 -164.860945 
L 803.361721 -181.43685 
L 796.961967 -169.985089 
L 790.562213 -161.623301 
L 784.162459 -173.606065 
L 777.762705 -173.375791 
L 771.362951 -174.483895 
L 764.963197 -166.26808 
L 758.563443 -166.656505 
L 752.163689 -146.151507 
L 745.763934 -132.080024 
L 739.36418 -135.159895 
L 732.964426 -153.044097 
L 726.564672 -138.386788 
L 720.164918 -146.082921 
L 713.765164 -147.592569 
L 707.36541 -133.640426 
L 700.965656 -134.46758 
L 694.565902 -143.413314 
L 688.166148 -144.839488 
L 681.766393 -148.286351 
L 675.366639 -134.754424 
L 668.966885 -135.716285 
L 662.567131 -134.807058 
L 656.167377 -123.692742 
L 649.767623 -141.08131 
L 643.367869 -147.912936 
L 636.968115 -144.721529 
L 630.568361 -140.613895 
L 624.168607 -144.510844 
L 617.768852 -127.094332 
L 611.369098 -116.700642 
L 604.969344 -105.182365 
L 598.56959 -173.249027 
L 592.169836 -128.413775 
L 585.770082 -134.458994 
L 579.370328 -141.069866 
L 572.970574 -115.921969 
L 566.57082 -115.220436 
L 560.171066 -127.871327 
L 553.771311 -132.829694 
L 547.371557 -145.153871 
L 540.971803 -117.973343 
L 534.572049 -202.256554 
L 528.172295 -122.551289 
L 521.772541 -127.828249 
L 515.372787 -129.748132 
L 508.973033 -139.475224 
L 502.573279 -149.18499 
L 496.173525 -144.076751 
L 489.77377 -157.388963 
L 483.374016 -145.896116 
L 476.974262 -141.09299 
L 470.574508 -148.394835 
L 464.174754 -152.239742 
L 457.775 -148.141027 
z
" id="mffb7322250" style="stroke:#d62728;"/>
    </defs>
    <g clip-path="url(#p9edbb352d1)">
     <use style="fill:#d62728;stroke:#d62728;" x="0" xlink:href="#mffb7322250" y="648"/>
    </g>
   </g>
   <g id="matplotlib.axis_7">
    <g id="xtick_37">
     <g id="line2d_64">
      <g>
       <use style="stroke:#000000;stroke-width:0.8;" x="457.775" xlink:href="#mb3591882bf" y="572.06"/>
      </g>
     </g>
     <g id="text_32">
      <!-- 2020-05-02 -->
      <g transform="translate(460.534375 637.175625)rotate(-90)scale(0.1 -0.1)">
       <use xlink:href="#DejaVuSans-50"/>
       <use x="63.623047" xlink:href="#DejaVuSans-48"/>
       <use x="127.246094" xlink:href="#DejaVuSans-50"/>
       <use x="190.869141" xlink:href="#DejaVuSans-48"/>
       <use x="254.492188" xlink:href="#DejaVuSans-45"/>
       <use x="290.576172" xlink:href="#DejaVuSans-48"/>
       <use x="354.199219" xlink:href="#DejaVuSans-53"/>
       <use x="417.822266" xlink:href="#DejaVuSans-45"/>
       <use x="453.90625" xlink:href="#DejaVuSans-48"/>
       <use x="517.529297" xlink:href="#DejaVuSans-50"/>
      </g>
     </g>
    </g>
    <g id="xtick_38">
     <g id="line2d_65">
      <g>
       <use style="stroke:#000000;stroke-width:0.8;" x="493.264545" xlink:href="#mb3591882bf" y="572.06"/>
      </g>
     </g>
     <g id="text_33">
      <!-- 2020-05-07 -->
      <g transform="translate(496.02392 637.175625)rotate(-90)scale(0.1 -0.1)">
       <use xlink:href="#DejaVuSans-50"/>
       <use x="63.623047" xlink:href="#DejaVuSans-48"/>
       <use x="127.246094" xlink:href="#DejaVuSans-50"/>
       <use x="190.869141" xlink:href="#DejaVuSans-48"/>
       <use x="254.492188" xlink:href="#DejaVuSans-45"/>
       <use x="290.576172" xlink:href="#DejaVuSans-48"/>
       <use x="354.199219" xlink:href="#DejaVuSans-53"/>
       <use x="417.822266" xlink:href="#DejaVuSans-45"/>
       <use x="453.90625" xlink:href="#DejaVuSans-48"/>
       <use x="517.529297" xlink:href="#DejaVuSans-55"/>
      </g>
     </g>
    </g>
    <g id="xtick_39">
     <g id="line2d_66">
      <g>
       <use style="stroke:#000000;stroke-width:0.8;" x="528.754091" xlink:href="#mb3591882bf" y="572.06"/>
      </g>
     </g>
     <g id="text_34">
      <!-- 2020-05-13 -->
      <g transform="translate(531.513466 637.175625)rotate(-90)scale(0.1 -0.1)">
       <use xlink:href="#DejaVuSans-50"/>
       <use x="63.623047" xlink:href="#DejaVuSans-48"/>
       <use x="127.246094" xlink:href="#DejaVuSans-50"/>
       <use x="190.869141" xlink:href="#DejaVuSans-48"/>
       <use x="254.492188" xlink:href="#DejaVuSans-45"/>
       <use x="290.576172" xlink:href="#DejaVuSans-48"/>
       <use x="354.199219" xlink:href="#DejaVuSans-53"/>
       <use x="417.822266" xlink:href="#DejaVuSans-45"/>
       <use x="453.90625" xlink:href="#DejaVuSans-49"/>
       <use x="517.529297" xlink:href="#DejaVuSans-51"/>
      </g>
     </g>
    </g>
    <g id="xtick_40">
     <g id="line2d_67">
      <g>
       <use style="stroke:#000000;stroke-width:0.8;" x="564.243636" xlink:href="#mb3591882bf" y="572.06"/>
      </g>
     </g>
     <g id="text_35">
      <!-- 2020-05-18 -->
      <g transform="translate(567.003011 637.175625)rotate(-90)scale(0.1 -0.1)">
       <use xlink:href="#DejaVuSans-50"/>
       <use x="63.623047" xlink:href="#DejaVuSans-48"/>
       <use x="127.246094" xlink:href="#DejaVuSans-50"/>
       <use x="190.869141" xlink:href="#DejaVuSans-48"/>
       <use x="254.492188" xlink:href="#DejaVuSans-45"/>
       <use x="290.576172" xlink:href="#DejaVuSans-48"/>
       <use x="354.199219" xlink:href="#DejaVuSans-53"/>
       <use x="417.822266" xlink:href="#DejaVuSans-45"/>
       <use x="453.90625" xlink:href="#DejaVuSans-49"/>
       <use x="517.529297" xlink:href="#DejaVuSans-56"/>
      </g>
     </g>
    </g>
    <g id="xtick_41">
     <g id="line2d_68">
      <g>
       <use style="stroke:#000000;stroke-width:0.8;" x="599.733182" xlink:href="#mb3591882bf" y="572.06"/>
      </g>
     </g>
     <g id="text_36">
      <!-- 2020-05-24 -->
      <g transform="translate(602.492557 637.175625)rotate(-90)scale(0.1 -0.1)">
       <use xlink:href="#DejaVuSans-50"/>
       <use x="63.623047" xlink:href="#DejaVuSans-48"/>
       <use x="127.246094" xlink:href="#DejaVuSans-50"/>
       <use x="190.869141" xlink:href="#DejaVuSans-48"/>
       <use x="254.492188" xlink:href="#DejaVuSans-45"/>
       <use x="290.576172" xlink:href="#DejaVuSans-48"/>
       <use x="354.199219" xlink:href="#DejaVuSans-53"/>
       <use x="417.822266" xlink:href="#DejaVuSans-45"/>
       <use x="453.90625" xlink:href="#DejaVuSans-50"/>
       <use x="517.529297" xlink:href="#DejaVuSans-52"/>
      </g>
     </g>
    </g>
    <g id="xtick_42">
     <g id="line2d_69">
      <g>
       <use style="stroke:#000000;stroke-width:0.8;" x="635.222727" xlink:href="#mb3591882bf" y="572.06"/>
      </g>
     </g>
     <g id="text_37">
      <!-- 2020-05-29 -->
      <g transform="translate(637.982102 637.175625)rotate(-90)scale(0.1 -0.1)">
       <use xlink:href="#DejaVuSans-50"/>
       <use x="63.623047" xlink:href="#DejaVuSans-48"/>
       <use x="127.246094" xlink:href="#DejaVuSans-50"/>
       <use x="190.869141" xlink:href="#DejaVuSans-48"/>
       <use x="254.492188" xlink:href="#DejaVuSans-45"/>
       <use x="290.576172" xlink:href="#DejaVuSans-48"/>
       <use x="354.199219" xlink:href="#DejaVuSans-53"/>
       <use x="417.822266" xlink:href="#DejaVuSans-45"/>
       <use x="453.90625" xlink:href="#DejaVuSans-50"/>
       <use x="517.529297" xlink:href="#DejaVuSans-57"/>
      </g>
     </g>
    </g>
    <g id="xtick_43">
     <g id="line2d_70">
      <g>
       <use style="stroke:#000000;stroke-width:0.8;" x="670.712273" xlink:href="#mb3591882bf" y="572.06"/>
      </g>
     </g>
     <g id="text_38">
      <!-- 2020-06-04 -->
      <g transform="translate(673.471648 637.175625)rotate(-90)scale(0.1 -0.1)">
       <use xlink:href="#DejaVuSans-50"/>
       <use x="63.623047" xlink:href="#DejaVuSans-48"/>
       <use x="127.246094" xlink:href="#DejaVuSans-50"/>
       <use x="190.869141" xlink:href="#DejaVuSans-48"/>
       <use x="254.492188" xlink:href="#DejaVuSans-45"/>
       <use x="290.576172" xlink:href="#DejaVuSans-48"/>
       <use x="354.199219" xlink:href="#DejaVuSans-54"/>
       <use x="417.822266" xlink:href="#DejaVuSans-45"/>
       <use x="453.90625" xlink:href="#DejaVuSans-48"/>
       <use x="517.529297" xlink:href="#DejaVuSans-52"/>
      </g>
     </g>
    </g>
    <g id="xtick_44">
     <g id="line2d_71">
      <g>
       <use style="stroke:#000000;stroke-width:0.8;" x="706.201818" xlink:href="#mb3591882bf" y="572.06"/>
      </g>
     </g>
     <g id="text_39">
      <!-- 2020-06-09 -->
      <g transform="translate(708.961193 637.175625)rotate(-90)scale(0.1 -0.1)">
       <use xlink:href="#DejaVuSans-50"/>
       <use x="63.623047" xlink:href="#DejaVuSans-48"/>
       <use x="127.246094" xlink:href="#DejaVuSans-50"/>
       <use x="190.869141" xlink:href="#DejaVuSans-48"/>
       <use x="254.492188" xlink:href="#DejaVuSans-45"/>
       <use x="290.576172" xlink:href="#DejaVuSans-48"/>
       <use x="354.199219" xlink:href="#DejaVuSans-54"/>
       <use x="417.822266" xlink:href="#DejaVuSans-45"/>
       <use x="453.90625" xlink:href="#DejaVuSans-48"/>
       <use x="517.529297" xlink:href="#DejaVuSans-57"/>
      </g>
     </g>
    </g>
    <g id="xtick_45">
     <g id="line2d_72">
      <g>
       <use style="stroke:#000000;stroke-width:0.8;" x="741.691364" xlink:href="#mb3591882bf" y="572.06"/>
      </g>
     </g>
     <g id="text_40">
      <!-- 2020-06-15 -->
      <g transform="translate(744.450739 637.175625)rotate(-90)scale(0.1 -0.1)">
       <use xlink:href="#DejaVuSans-50"/>
       <use x="63.623047" xlink:href="#DejaVuSans-48"/>
       <use x="127.246094" xlink:href="#DejaVuSans-50"/>
       <use x="190.869141" xlink:href="#DejaVuSans-48"/>
       <use x="254.492188" xlink:href="#DejaVuSans-45"/>
       <use x="290.576172" xlink:href="#DejaVuSans-48"/>
       <use x="354.199219" xlink:href="#DejaVuSans-54"/>
       <use x="417.822266" xlink:href="#DejaVuSans-45"/>
       <use x="453.90625" xlink:href="#DejaVuSans-49"/>
       <use x="517.529297" xlink:href="#DejaVuSans-53"/>
      </g>
     </g>
    </g>
    <g id="xtick_46">
     <g id="line2d_73">
      <g>
       <use style="stroke:#000000;stroke-width:0.8;" x="777.180909" xlink:href="#mb3591882bf" y="572.06"/>
      </g>
     </g>
     <g id="text_41">
      <!-- 2020-06-20 -->
      <g transform="translate(779.940284 637.175625)rotate(-90)scale(0.1 -0.1)">
       <use xlink:href="#DejaVuSans-50"/>
       <use x="63.623047" xlink:href="#DejaVuSans-48"/>
       <use x="127.246094" xlink:href="#DejaVuSans-50"/>
       <use x="190.869141" xlink:href="#DejaVuSans-48"/>
       <use x="254.492188" xlink:href="#DejaVuSans-45"/>
       <use x="290.576172" xlink:href="#DejaVuSans-48"/>
       <use x="354.199219" xlink:href="#DejaVuSans-54"/>
       <use x="417.822266" xlink:href="#DejaVuSans-45"/>
       <use x="453.90625" xlink:href="#DejaVuSans-50"/>
       <use x="517.529297" xlink:href="#DejaVuSans-48"/>
      </g>
     </g>
    </g>
    <g id="xtick_47">
     <g id="line2d_74">
      <g>
       <use style="stroke:#000000;stroke-width:0.8;" x="812.670455" xlink:href="#mb3591882bf" y="572.06"/>
      </g>
     </g>
     <g id="text_42">
      <!-- 2020-06-26 -->
      <g transform="translate(815.42983 637.175625)rotate(-90)scale(0.1 -0.1)">
       <use xlink:href="#DejaVuSans-50"/>
       <use x="63.623047" xlink:href="#DejaVuSans-48"/>
       <use x="127.246094" xlink:href="#DejaVuSans-50"/>
       <use x="190.869141" xlink:href="#DejaVuSans-48"/>
       <use x="254.492188" xlink:href="#DejaVuSans-45"/>
       <use x="290.576172" xlink:href="#DejaVuSans-48"/>
       <use x="354.199219" xlink:href="#DejaVuSans-54"/>
       <use x="417.822266" xlink:href="#DejaVuSans-45"/>
       <use x="453.90625" xlink:href="#DejaVuSans-50"/>
       <use x="517.529297" xlink:href="#DejaVuSans-54"/>
      </g>
     </g>
    </g>
    <g id="xtick_48">
     <g id="line2d_75">
      <g>
       <use style="stroke:#000000;stroke-width:0.8;" x="848.16" xlink:href="#mb3591882bf" y="572.06"/>
      </g>
     </g>
     <g id="text_43">
      <!-- 2020-07-02 -->
      <g transform="translate(850.919375 637.175625)rotate(-90)scale(0.1 -0.1)">
       <use xlink:href="#DejaVuSans-50"/>
       <use x="63.623047" xlink:href="#DejaVuSans-48"/>
       <use x="127.246094" xlink:href="#DejaVuSans-50"/>
       <use x="190.869141" xlink:href="#DejaVuSans-48"/>
       <use x="254.492188" xlink:href="#DejaVuSans-45"/>
       <use x="290.576172" xlink:href="#DejaVuSans-48"/>
       <use x="354.199219" xlink:href="#DejaVuSans-55"/>
       <use x="417.822266" xlink:href="#DejaVuSans-45"/>
       <use x="453.90625" xlink:href="#DejaVuSans-48"/>
       <use x="517.529297" xlink:href="#DejaVuSans-50"/>
      </g>
     </g>
    </g>
   </g>
   <g id="matplotlib.axis_8">
    <g id="ytick_25">
     <g id="line2d_76">
      <g>
       <use style="stroke:#000000;stroke-width:0.8;" x="457.775" xlink:href="#mf21baeaa13" y="572.06"/>
      </g>
     </g>
    </g>
    <g id="ytick_26">
     <g id="line2d_77">
      <g>
       <use style="stroke:#000000;stroke-width:0.8;" x="457.775" xlink:href="#mf21baeaa13" y="539.39194"/>
      </g>
     </g>
    </g>
    <g id="ytick_27">
     <g id="line2d_78">
      <g>
       <use style="stroke:#000000;stroke-width:0.8;" x="457.775" xlink:href="#mf21baeaa13" y="506.72388"/>
      </g>
     </g>
    </g>
    <g id="ytick_28">
     <g id="line2d_79">
      <g>
       <use style="stroke:#000000;stroke-width:0.8;" x="457.775" xlink:href="#mf21baeaa13" y="474.055819"/>
      </g>
     </g>
    </g>
    <g id="ytick_29">
     <g id="line2d_80">
      <g>
       <use style="stroke:#000000;stroke-width:0.8;" x="457.775" xlink:href="#mf21baeaa13" y="441.387759"/>
      </g>
     </g>
    </g>
    <g id="ytick_30">
     <g id="line2d_81">
      <g>
       <use style="stroke:#000000;stroke-width:0.8;" x="457.775" xlink:href="#mf21baeaa13" y="408.719699"/>
      </g>
     </g>
    </g>
    <g id="ytick_31">
     <g id="line2d_82">
      <g>
       <use style="stroke:#000000;stroke-width:0.8;" x="457.775" xlink:href="#mf21baeaa13" y="376.051639"/>
      </g>
     </g>
    </g>
    <g id="ytick_32">
     <g id="line2d_83">
      <g>
       <use style="stroke:#000000;stroke-width:0.8;" x="457.775" xlink:href="#mf21baeaa13" y="343.383579"/>
      </g>
     </g>
    </g>
   </g>
   <g id="line2d_84">
    <path clip-path="url(#p9edbb352d1)" d="M 457.775 499.858973 
L 464.174754 495.760258 
L 470.574508 499.605165 
L 476.974262 506.90701 
L 483.374016 502.103884 
L 489.77377 490.611037 
L 496.173525 503.923249 
L 502.573279 498.81501 
L 508.973033 508.524776 
L 515.372787 518.251868 
L 521.772541 520.171751 
L 528.172295 525.448711 
L 534.572049 445.743446 
L 540.971803 530.026657 
L 547.371557 502.846129 
L 553.771311 515.170306 
L 560.171066 520.128673 
L 566.57082 532.779564 
L 572.970574 532.078031 
L 579.370328 506.930134 
L 585.770082 513.541006 
L 592.169836 519.586225 
L 598.56959 474.750973 
L 604.969344 542.817635 
L 611.369098 531.299358 
L 617.768852 520.905668 
L 624.168607 503.489156 
L 630.568361 507.386105 
L 636.968115 503.278471 
L 643.367869 500.087064 
L 649.767623 506.91869 
L 656.167377 524.307258 
L 662.567131 513.192942 
L 668.966885 512.283715 
L 675.366639 513.245576 
L 681.766393 499.713649 
L 688.166148 503.160512 
L 694.565902 504.586686 
L 700.965656 513.53242 
L 707.36541 514.359574 
L 713.765164 500.407431 
L 720.164918 501.917079 
L 726.564672 509.613212 
L 732.964426 494.955903 
L 739.36418 512.840105 
L 745.763934 515.919976 
L 752.163689 501.848493 
L 758.563443 481.343495 
L 764.963197 481.73192 
L 771.362951 473.516105 
L 777.762705 474.624209 
L 784.162459 474.393935 
L 790.562213 486.376699 
L 796.961967 478.014911 
L 803.361721 466.56315 
L 809.761475 483.139055 
L 816.16123 467.183805 
L 822.560984 474.03393 
L 828.960738 472.783018 
L 835.360492 473.595915 
L 841.760246 476.823025 
L 848.16 441.439771 
" style="fill:none;stroke:#d62728;stroke-linecap:square;stroke-width:1.5;"/>
   </g>
   <g id="patch_18">
    <path d="M 457.775 572.06 
L 457.775 314.53 
" style="fill:none;stroke:#000000;stroke-linecap:square;stroke-linejoin:miter;stroke-width:0.8;"/>
   </g>
   <g id="patch_19">
    <path d="M 848.16 572.06 
L 848.16 314.53 
" style="fill:none;stroke:#000000;stroke-linecap:square;stroke-linejoin:miter;stroke-width:0.8;"/>
   </g>
   <g id="patch_20">
    <path d="M 457.775 572.06 
L 848.16 572.06 
" style="fill:none;stroke:#000000;stroke-linecap:square;stroke-linejoin:miter;stroke-width:0.8;"/>
   </g>
   <g id="patch_21">
    <path d="M 457.775 314.53 
L 848.16 314.53 
" style="fill:none;stroke:#000000;stroke-linecap:square;stroke-linejoin:miter;stroke-width:0.8;"/>
   </g>
   <g id="text_44">
    <!-- West -->
    <defs>
     <path d="M 3.328125 72.90625 
L 13.28125 72.90625 
L 28.609375 11.28125 
L 43.890625 72.90625 
L 54.984375 72.90625 
L 70.3125 11.28125 
L 85.59375 72.90625 
L 95.609375 72.90625 
L 77.296875 0 
L 64.890625 0 
L 49.515625 63.28125 
L 33.984375 0 
L 21.578125 0 
z
" id="DejaVuSans-87"/>
    </defs>
    <g transform="translate(638.217813 308.53)scale(0.12 -0.12)">
     <use xlink:href="#DejaVuSans-87"/>
     <use x="93.001953" xlink:href="#DejaVuSans-101"/>
     <use x="154.525391" xlink:href="#DejaVuSans-115"/>
     <use x="206.625" xlink:href="#DejaVuSans-116"/>
    </g>
   </g>
  </g>
 </g>
 <defs>
  <clipPath id="pfbf55eacee">
   <rect height="257.53" width="390.385" x="46.51" y="25.44"/>
  </clipPath>
  <clipPath id="pa6edc084e3">
   <rect height="257.53" width="390.385" x="457.775" y="25.44"/>
  </clipPath>
  <clipPath id="p8bdd1c480b">
   <rect height="257.53" width="390.385" x="46.51" y="314.53"/>
  </clipPath>
  <clipPath id="p9edbb352d1">
   <rect height="257.53" width="390.385" x="457.775" y="314.53"/>
  </clipPath>
 </defs>
</svg>
