<?xml version="1.0" encoding="utf-8" standalone="no"?>
<!DOCTYPE svg PUBLIC "-//W3C//DTD SVG 1.1//EN"
  "http://www.w3.org/Graphics/SVG/1.1/DTD/svg11.dtd">
<!-- Created with matplotlib (http://matplotlib.org/) -->
<svg height="648pt" version="1.1" viewBox="0 0 864 648" width="864pt" xmlns="http://www.w3.org/2000/svg" xmlns:xlink="http://www.w3.org/1999/xlink">
 <defs>
  <style type="text/css">
*{stroke-linecap:butt;stroke-linejoin:round;}
  </style>
 </defs>
 <g id="figure_1">
  <g id="patch_1">
   <path d="M 0 648 
L 864 648 
L 864 0 
L 0 0 
z
" style="fill:#ffffff;"/>
  </g>
  <g id="axes_1">
   <g id="patch_2">
    <path d="M 46.33 283.195 
L 436.805 283.195 
L 436.805 25.44 
L 46.33 25.44 
z
" style="fill:#ffffff;"/>
   </g>
   <g id="PolyCollection_1">
    <defs>
     <path d="M 46.33 -530.747597 
L 46.33 -364.805 
L 52.73123 -364.805 
L 59.132459 -364.805 
L 65.533689 -364.805 
L 71.934918 -364.805 
L 78.336148 -364.805 
L 84.737377 -364.805 
L 91.138607 -364.805 
L 97.539836 -364.805 
L 103.941066 -364.805 
L 110.342295 -364.805 
L 116.743525 -364.805 
L 123.144754 -364.805 
L 129.545984 -364.805 
L 135.947213 -364.805 
L 142.348443 -364.805 
L 148.749672 -364.805 
L 155.150902 -364.805 
L 161.552131 -364.805 
L 167.953361 -364.805 
L 174.35459 -364.805 
L 180.75582 -364.805 
L 187.157049 -364.805 
L 193.558279 -364.805 
L 199.959508 -364.805 
L 206.360738 -364.805 
L 212.761967 -364.805 
L 219.163197 -364.805 
L 225.564426 -364.805 
L 231.965656 -364.805 
L 238.366885 -364.805 
L 244.768115 -364.805 
L 251.169344 -364.805 
L 257.570574 -364.805 
L 263.971803 -364.805 
L 270.373033 -364.805 
L 276.774262 -364.805 
L 283.175492 -364.805 
L 289.576721 -364.805 
L 295.977951 -364.805 
L 302.37918 -364.805 
L 308.78041 -364.805 
L 315.181639 -364.805 
L 321.582869 -364.805 
L 327.984098 -364.805 
L 334.385328 -364.805 
L 340.786557 -364.805 
L 347.187787 -364.805 
L 353.589016 -364.805 
L 359.990246 -364.805 
L 366.391475 -364.805 
L 372.792705 -364.805 
L 379.193934 -364.805 
L 385.595164 -364.805 
L 391.996393 -364.805 
L 398.397623 -364.805 
L 404.798852 -364.805 
L 411.200082 -364.805 
L 417.601311 -364.805 
L 424.002541 -364.805 
L 430.40377 -364.805 
L 436.805 -364.805 
L 436.805 -426.452733 
L 436.805 -426.452733 
L 430.40377 -425.085236 
L 424.002541 -433.976832 
L 417.601311 -438.576222 
L 411.200082 -422.904856 
L 404.798852 -421.26446 
L 398.397623 -418.529364 
L 391.996393 -424.502131 
L 385.595164 -420.828768 
L 379.193934 -426.489372 
L 372.792705 -421.068391 
L 366.391475 -417.982291 
L 359.990246 -409.207049 
L 353.589016 -414.745387 
L 347.187787 -408.819248 
L 340.786557 -412.275088 
L 334.385328 -422.333317 
L 327.984098 -407.309053 
L 321.582869 -414.904598 
L 315.181639 -415.29967 
L 308.78041 -417.159706 
L 302.37918 -408.297659 
L 295.977951 -401.232124 
L 289.576721 -432.34676 
L 283.175492 -419.77158 
L 276.774262 -423.944708 
L 270.373033 -433.437797 
L 263.971803 -418.187681 
L 257.570574 -420.287554 
L 251.169344 -433.676446 
L 244.768115 -421.68844 
L 238.366885 -427.703953 
L 231.965656 -431.66812 
L 225.564426 -445.837189 
L 219.163197 -430.479541 
L 212.761967 -439.242589 
L 206.360738 -437.129204 
L 199.959508 -440.282402 
L 193.558279 -447.017432 
L 187.157049 -456.540088 
L 180.75582 -468.861442 
L 174.35459 -454.010841 
L 167.953361 -468.817929 
L 161.552131 -449.455701 
L 155.150902 -468.363537 
L 148.749672 -446.697795 
L 142.348443 -440.661852 
L 135.947213 -454.685447 
L 129.545984 -482.210021 
L 123.144754 -476.973329 
L 116.743525 -488.640124 
L 110.342295 -495.182206 
L 103.941066 -459.982349 
L 97.539836 -481.770353 
L 91.138607 -470.505996 
L 84.737377 -543.779688 
L 78.336148 -502.197167 
L 71.934918 -553.761508 
L 65.533689 -486.760072 
L 59.132459 -546.25826 
L 52.73123 -492.865459 
L 46.33 -530.747597 
z
" id="m9e22a9e6c5" style="stroke:#1f77b4;"/>
    </defs>
    <g clip-path="url(#pe6e1aa1646)">
     <use style="fill:#1f77b4;stroke:#1f77b4;" x="0" xlink:href="#m9e22a9e6c5" y="648"/>
    </g>
   </g>
   <g id="matplotlib.axis_1">
    <g id="xtick_1">
     <g id="line2d_1">
      <defs>
       <path d="M 0 0 
L 0 3.5 
" id="mdd51f90d30" style="stroke:#000000;stroke-width:0.8;"/>
      </defs>
      <g>
       <use style="stroke:#000000;stroke-width:0.8;" x="46.33" xlink:href="#mdd51f90d30" y="283.195"/>
      </g>
     </g>
    </g>
    <g id="xtick_2">
     <g id="line2d_2">
      <g>
       <use style="stroke:#000000;stroke-width:0.8;" x="81.827727" xlink:href="#mdd51f90d30" y="283.195"/>
      </g>
     </g>
    </g>
    <g id="xtick_3">
     <g id="line2d_3">
      <g>
       <use style="stroke:#000000;stroke-width:0.8;" x="117.325455" xlink:href="#mdd51f90d30" y="283.195"/>
      </g>
     </g>
    </g>
    <g id="xtick_4">
     <g id="line2d_4">
      <g>
       <use style="stroke:#000000;stroke-width:0.8;" x="152.823182" xlink:href="#mdd51f90d30" y="283.195"/>
      </g>
     </g>
    </g>
    <g id="xtick_5">
     <g id="line2d_5">
      <g>
       <use style="stroke:#000000;stroke-width:0.8;" x="188.320909" xlink:href="#mdd51f90d30" y="283.195"/>
      </g>
     </g>
    </g>
    <g id="xtick_6">
     <g id="line2d_6">
      <g>
       <use style="stroke:#000000;stroke-width:0.8;" x="223.818636" xlink:href="#mdd51f90d30" y="283.195"/>
      </g>
     </g>
    </g>
    <g id="xtick_7">
     <g id="line2d_7">
      <g>
       <use style="stroke:#000000;stroke-width:0.8;" x="259.316364" xlink:href="#mdd51f90d30" y="283.195"/>
      </g>
     </g>
    </g>
    <g id="xtick_8">
     <g id="line2d_8">
      <g>
       <use style="stroke:#000000;stroke-width:0.8;" x="294.814091" xlink:href="#mdd51f90d30" y="283.195"/>
      </g>
     </g>
    </g>
    <g id="xtick_9">
     <g id="line2d_9">
      <g>
       <use style="stroke:#000000;stroke-width:0.8;" x="330.311818" xlink:href="#mdd51f90d30" y="283.195"/>
      </g>
     </g>
    </g>
    <g id="xtick_10">
     <g id="line2d_10">
      <g>
       <use style="stroke:#000000;stroke-width:0.8;" x="365.809545" xlink:href="#mdd51f90d30" y="283.195"/>
      </g>
     </g>
    </g>
    <g id="xtick_11">
     <g id="line2d_11">
      <g>
       <use style="stroke:#000000;stroke-width:0.8;" x="401.307273" xlink:href="#mdd51f90d30" y="283.195"/>
      </g>
     </g>
    </g>
    <g id="xtick_12">
     <g id="line2d_12">
      <g>
       <use style="stroke:#000000;stroke-width:0.8;" x="436.805" xlink:href="#mdd51f90d30" y="283.195"/>
      </g>
     </g>
    </g>
   </g>
   <g id="matplotlib.axis_2">
    <g id="ytick_1">
     <g id="line2d_13">
      <defs>
       <path d="M 0 0 
L -3.5 0 
" id="m45d21e2564" style="stroke:#000000;stroke-width:0.8;"/>
      </defs>
      <g>
       <use style="stroke:#000000;stroke-width:0.8;" x="46.33" xlink:href="#m45d21e2564" y="283.195"/>
      </g>
     </g>
     <g id="text_1">
      <!-- 0.000 -->
      <defs>
       <path d="M 31.78125 66.40625 
Q 24.171875 66.40625 20.328125 58.90625 
Q 16.5 51.421875 16.5 36.375 
Q 16.5 21.390625 20.328125 13.890625 
Q 24.171875 6.390625 31.78125 6.390625 
Q 39.453125 6.390625 43.28125 13.890625 
Q 47.125 21.390625 47.125 36.375 
Q 47.125 51.421875 43.28125 58.90625 
Q 39.453125 66.40625 31.78125 66.40625 
z
M 31.78125 74.21875 
Q 44.046875 74.21875 50.515625 64.515625 
Q 56.984375 54.828125 56.984375 36.375 
Q 56.984375 17.96875 50.515625 8.265625 
Q 44.046875 -1.421875 31.78125 -1.421875 
Q 19.53125 -1.421875 13.0625 8.265625 
Q 6.59375 17.96875 6.59375 36.375 
Q 6.59375 54.828125 13.0625 64.515625 
Q 19.53125 74.21875 31.78125 74.21875 
z
" id="DejaVuSans-30"/>
       <path d="M 10.6875 12.40625 
L 21 12.40625 
L 21 0 
L 10.6875 0 
z
" id="DejaVuSans-2e"/>
      </defs>
      <g transform="translate(10.701875 286.994219)scale(0.1 -0.1)">
       <use xlink:href="#DejaVuSans-30"/>
       <use x="63.623047" xlink:href="#DejaVuSans-2e"/>
       <use x="95.410156" xlink:href="#DejaVuSans-30"/>
       <use x="159.033203" xlink:href="#DejaVuSans-30"/>
       <use x="222.65625" xlink:href="#DejaVuSans-30"/>
      </g>
     </g>
    </g>
    <g id="ytick_2">
     <g id="line2d_14">
      <g>
       <use style="stroke:#000000;stroke-width:0.8;" x="46.33" xlink:href="#m45d21e2564" y="251.362695"/>
      </g>
     </g>
     <g id="text_2">
      <!-- 0.025 -->
      <defs>
       <path d="M 19.1875 8.296875 
L 53.609375 8.296875 
L 53.609375 0 
L 7.328125 0 
L 7.328125 8.296875 
Q 12.9375 14.109375 22.625 23.890625 
Q 32.328125 33.6875 34.8125 36.53125 
Q 39.546875 41.84375 41.421875 45.53125 
Q 43.3125 49.21875 43.3125 52.78125 
Q 43.3125 58.59375 39.234375 62.25 
Q 35.15625 65.921875 28.609375 65.921875 
Q 23.96875 65.921875 18.8125 64.3125 
Q 13.671875 62.703125 7.8125 59.421875 
L 7.8125 69.390625 
Q 13.765625 71.78125 18.9375 73 
Q 24.125 74.21875 28.421875 74.21875 
Q 39.75 74.21875 46.484375 68.546875 
Q 53.21875 62.890625 53.21875 53.421875 
Q 53.21875 48.921875 51.53125 44.890625 
Q 49.859375 40.875 45.40625 35.40625 
Q 44.1875 33.984375 37.640625 27.21875 
Q 31.109375 20.453125 19.1875 8.296875 
z
" id="DejaVuSans-32"/>
       <path d="M 10.796875 72.90625 
L 49.515625 72.90625 
L 49.515625 64.59375 
L 19.828125 64.59375 
L 19.828125 46.734375 
Q 21.96875 47.46875 24.109375 47.828125 
Q 26.265625 48.1875 28.421875 48.1875 
Q 40.625 48.1875 47.75 41.5 
Q 54.890625 34.8125 54.890625 23.390625 
Q 54.890625 11.625 47.5625 5.09375 
Q 40.234375 -1.421875 26.90625 -1.421875 
Q 22.3125 -1.421875 17.546875 -0.640625 
Q 12.796875 0.140625 7.71875 1.703125 
L 7.71875 11.625 
Q 12.109375 9.234375 16.796875 8.0625 
Q 21.484375 6.890625 26.703125 6.890625 
Q 35.15625 6.890625 40.078125 11.328125 
Q 45.015625 15.765625 45.015625 23.390625 
Q 45.015625 31 40.078125 35.4375 
Q 35.15625 39.890625 26.703125 39.890625 
Q 22.75 39.890625 18.8125 39.015625 
Q 14.890625 38.140625 10.796875 36.28125 
z
" id="DejaVuSans-35"/>
      </defs>
      <g transform="translate(10.701875 255.161914)scale(0.1 -0.1)">
       <use xlink:href="#DejaVuSans-30"/>
       <use x="63.623047" xlink:href="#DejaVuSans-2e"/>
       <use x="95.410156" xlink:href="#DejaVuSans-30"/>
       <use x="159.033203" xlink:href="#DejaVuSans-32"/>
       <use x="222.65625" xlink:href="#DejaVuSans-35"/>
      </g>
     </g>
    </g>
    <g id="ytick_3">
     <g id="line2d_15">
      <g>
       <use style="stroke:#000000;stroke-width:0.8;" x="46.33" xlink:href="#m45d21e2564" y="219.53039"/>
      </g>
     </g>
     <g id="text_3">
      <!-- 0.050 -->
      <g transform="translate(10.701875 223.329609)scale(0.1 -0.1)">
       <use xlink:href="#DejaVuSans-30"/>
       <use x="63.623047" xlink:href="#DejaVuSans-2e"/>
       <use x="95.410156" xlink:href="#DejaVuSans-30"/>
       <use x="159.033203" xlink:href="#DejaVuSans-35"/>
       <use x="222.65625" xlink:href="#DejaVuSans-30"/>
      </g>
     </g>
    </g>
    <g id="ytick_4">
     <g id="line2d_16">
      <g>
       <use style="stroke:#000000;stroke-width:0.8;" x="46.33" xlink:href="#m45d21e2564" y="187.698085"/>
      </g>
     </g>
     <g id="text_4">
      <!-- 0.075 -->
      <defs>
       <path d="M 8.203125 72.90625 
L 55.078125 72.90625 
L 55.078125 68.703125 
L 28.609375 0 
L 18.3125 0 
L 43.21875 64.59375 
L 8.203125 64.59375 
z
" id="DejaVuSans-37"/>
      </defs>
      <g transform="translate(10.701875 191.497304)scale(0.1 -0.1)">
       <use xlink:href="#DejaVuSans-30"/>
       <use x="63.623047" xlink:href="#DejaVuSans-2e"/>
       <use x="95.410156" xlink:href="#DejaVuSans-30"/>
       <use x="159.033203" xlink:href="#DejaVuSans-37"/>
       <use x="222.65625" xlink:href="#DejaVuSans-35"/>
      </g>
     </g>
    </g>
    <g id="ytick_5">
     <g id="line2d_17">
      <g>
       <use style="stroke:#000000;stroke-width:0.8;" x="46.33" xlink:href="#m45d21e2564" y="155.86578"/>
      </g>
     </g>
     <g id="text_5">
      <!-- 0.100 -->
      <defs>
       <path d="M 12.40625 8.296875 
L 28.515625 8.296875 
L 28.515625 63.921875 
L 10.984375 60.40625 
L 10.984375 69.390625 
L 28.421875 72.90625 
L 38.28125 72.90625 
L 38.28125 8.296875 
L 54.390625 8.296875 
L 54.390625 0 
L 12.40625 0 
z
" id="DejaVuSans-31"/>
      </defs>
      <g transform="translate(10.701875 159.664998)scale(0.1 -0.1)">
       <use xlink:href="#DejaVuSans-30"/>
       <use x="63.623047" xlink:href="#DejaVuSans-2e"/>
       <use x="95.410156" xlink:href="#DejaVuSans-31"/>
       <use x="159.033203" xlink:href="#DejaVuSans-30"/>
       <use x="222.65625" xlink:href="#DejaVuSans-30"/>
      </g>
     </g>
    </g>
    <g id="ytick_6">
     <g id="line2d_18">
      <g>
       <use style="stroke:#000000;stroke-width:0.8;" x="46.33" xlink:href="#m45d21e2564" y="124.033475"/>
      </g>
     </g>
     <g id="text_6">
      <!-- 0.125 -->
      <g transform="translate(10.701875 127.832693)scale(0.1 -0.1)">
       <use xlink:href="#DejaVuSans-30"/>
       <use x="63.623047" xlink:href="#DejaVuSans-2e"/>
       <use x="95.410156" xlink:href="#DejaVuSans-31"/>
       <use x="159.033203" xlink:href="#DejaVuSans-32"/>
       <use x="222.65625" xlink:href="#DejaVuSans-35"/>
      </g>
     </g>
    </g>
    <g id="ytick_7">
     <g id="line2d_19">
      <g>
       <use style="stroke:#000000;stroke-width:0.8;" x="46.33" xlink:href="#m45d21e2564" y="92.20117"/>
      </g>
     </g>
     <g id="text_7">
      <!-- 0.150 -->
      <g transform="translate(10.701875 96.000388)scale(0.1 -0.1)">
       <use xlink:href="#DejaVuSans-30"/>
       <use x="63.623047" xlink:href="#DejaVuSans-2e"/>
       <use x="95.410156" xlink:href="#DejaVuSans-31"/>
       <use x="159.033203" xlink:href="#DejaVuSans-35"/>
       <use x="222.65625" xlink:href="#DejaVuSans-30"/>
      </g>
     </g>
    </g>
    <g id="ytick_8">
     <g id="line2d_20">
      <g>
       <use style="stroke:#000000;stroke-width:0.8;" x="46.33" xlink:href="#m45d21e2564" y="60.368864"/>
      </g>
     </g>
     <g id="text_8">
      <!-- 0.175 -->
      <g transform="translate(10.701875 64.168083)scale(0.1 -0.1)">
       <use xlink:href="#DejaVuSans-30"/>
       <use x="63.623047" xlink:href="#DejaVuSans-2e"/>
       <use x="95.410156" xlink:href="#DejaVuSans-31"/>
       <use x="159.033203" xlink:href="#DejaVuSans-37"/>
       <use x="222.65625" xlink:href="#DejaVuSans-35"/>
      </g>
     </g>
    </g>
    <g id="ytick_9">
     <g id="line2d_21">
      <g>
       <use style="stroke:#000000;stroke-width:0.8;" x="46.33" xlink:href="#m45d21e2564" y="28.536559"/>
      </g>
     </g>
     <g id="text_9">
      <!-- 0.200 -->
      <g transform="translate(10.701875 32.335778)scale(0.1 -0.1)">
       <use xlink:href="#DejaVuSans-30"/>
       <use x="63.623047" xlink:href="#DejaVuSans-2e"/>
       <use x="95.410156" xlink:href="#DejaVuSans-32"/>
       <use x="159.033203" xlink:href="#DejaVuSans-30"/>
       <use x="222.65625" xlink:href="#DejaVuSans-30"/>
      </g>
     </g>
    </g>
   </g>
   <g id="line2d_22">
    <path clip-path="url(#pe6e1aa1646)" d="M 46.33 117.252403 
L 52.73123 155.134541 
L 59.132459 101.74174 
L 65.533689 161.239928 
L 71.934918 94.238492 
L 78.336148 145.802833 
L 84.737377 104.220312 
L 91.138607 177.494004 
L 97.539836 166.229647 
L 103.941066 188.017651 
L 110.342295 152.817794 
L 116.743525 159.359876 
L 123.144754 171.026671 
L 129.545984 165.789979 
L 135.947213 193.314553 
L 142.348443 207.338148 
L 148.749672 201.302205 
L 155.150902 179.636463 
L 161.552131 198.544299 
L 167.953361 179.182071 
L 174.35459 193.989159 
L 180.75582 179.138558 
L 187.157049 191.459912 
L 193.558279 200.982568 
L 199.959508 207.717598 
L 206.360738 210.870796 
L 212.761967 208.757411 
L 219.163197 217.520459 
L 225.564426 202.162811 
L 231.965656 216.33188 
L 238.366885 220.296047 
L 244.768115 226.31156 
L 251.169344 214.323554 
L 257.570574 227.712446 
L 263.971803 229.812319 
L 270.373033 214.562203 
L 276.774262 224.055292 
L 283.175492 228.22842 
L 289.576721 215.65324 
L 295.977951 246.767876 
L 302.37918 239.702341 
L 308.78041 230.840294 
L 315.181639 232.70033 
L 321.582869 233.095402 
L 327.984098 240.690947 
L 334.385328 225.666683 
L 340.786557 235.724912 
L 347.187787 239.180752 
L 353.589016 233.254613 
L 359.990246 238.792951 
L 366.391475 230.017709 
L 372.792705 226.931609 
L 379.193934 221.510628 
L 385.595164 227.171232 
L 391.996393 223.497869 
L 398.397623 229.470636 
L 404.798852 226.73554 
L 411.200082 225.095144 
L 417.601311 209.423778 
L 424.002541 214.023168 
L 430.40377 222.914764 
L 436.805 221.547267 
" style="fill:none;stroke:#1f77b4;stroke-linecap:square;stroke-width:1.5;"/>
   </g>
   <g id="patch_3">
    <path d="M 46.33 283.195 
L 46.33 25.44 
" style="fill:none;stroke:#000000;stroke-linecap:square;stroke-linejoin:miter;stroke-width:0.8;"/>
   </g>
   <g id="patch_4">
    <path d="M 436.805 283.195 
L 436.805 25.44 
" style="fill:none;stroke:#000000;stroke-linecap:square;stroke-linejoin:miter;stroke-width:0.8;"/>
   </g>
   <g id="patch_5">
    <path d="M 46.33 283.195 
L 436.805 283.195 
" style="fill:none;stroke:#000000;stroke-linecap:square;stroke-linejoin:miter;stroke-width:0.8;"/>
   </g>
   <g id="patch_6">
    <path d="M 46.33 25.44 
L 436.805 25.44 
" style="fill:none;stroke:#000000;stroke-linecap:square;stroke-linejoin:miter;stroke-width:0.8;"/>
   </g>
   <g id="text_10">
    <!-- Midwest -->
    <defs>
     <path d="M 9.8125 72.90625 
L 24.515625 72.90625 
L 43.109375 23.296875 
L 61.8125 72.90625 
L 76.515625 72.90625 
L 76.515625 0 
L 66.890625 0 
L 66.890625 64.015625 
L 48.09375 14.015625 
L 38.1875 14.015625 
L 19.390625 64.015625 
L 19.390625 0 
L 9.8125 0 
z
" id="DejaVuSans-4d"/>
     <path d="M 9.421875 54.6875 
L 18.40625 54.6875 
L 18.40625 0 
L 9.421875 0 
z
M 9.421875 75.984375 
L 18.40625 75.984375 
L 18.40625 64.59375 
L 9.421875 64.59375 
z
" id="DejaVuSans-69"/>
     <path d="M 45.40625 46.390625 
L 45.40625 75.984375 
L 54.390625 75.984375 
L 54.390625 0 
L 45.40625 0 
L 45.40625 8.203125 
Q 42.578125 3.328125 38.25 0.953125 
Q 33.9375 -1.421875 27.875 -1.421875 
Q 17.96875 -1.421875 11.734375 6.484375 
Q 5.515625 14.40625 5.515625 27.296875 
Q 5.515625 40.1875 11.734375 48.09375 
Q 17.96875 56 27.875 56 
Q 33.9375 56 38.25 53.625 
Q 42.578125 51.265625 45.40625 46.390625 
z
M 14.796875 27.296875 
Q 14.796875 17.390625 18.875 11.75 
Q 22.953125 6.109375 30.078125 6.109375 
Q 37.203125 6.109375 41.296875 11.75 
Q 45.40625 17.390625 45.40625 27.296875 
Q 45.40625 37.203125 41.296875 42.84375 
Q 37.203125 48.484375 30.078125 48.484375 
Q 22.953125 48.484375 18.875 42.84375 
Q 14.796875 37.203125 14.796875 27.296875 
z
" id="DejaVuSans-64"/>
     <path d="M 4.203125 54.6875 
L 13.1875 54.6875 
L 24.421875 12.015625 
L 35.59375 54.6875 
L 46.1875 54.6875 
L 57.421875 12.015625 
L 68.609375 54.6875 
L 77.59375 54.6875 
L 63.28125 0 
L 52.6875 0 
L 40.921875 44.828125 
L 29.109375 0 
L 18.5 0 
z
" id="DejaVuSans-77"/>
     <path d="M 56.203125 29.59375 
L 56.203125 25.203125 
L 14.890625 25.203125 
Q 15.484375 15.921875 20.484375 11.0625 
Q 25.484375 6.203125 34.421875 6.203125 
Q 39.59375 6.203125 44.453125 7.46875 
Q 49.3125 8.734375 54.109375 11.28125 
L 54.109375 2.78125 
Q 49.265625 0.734375 44.1875 -0.34375 
Q 39.109375 -1.421875 33.890625 -1.421875 
Q 20.796875 -1.421875 13.15625 6.1875 
Q 5.515625 13.8125 5.515625 26.8125 
Q 5.515625 40.234375 12.765625 48.109375 
Q 20.015625 56 32.328125 56 
Q 43.359375 56 49.78125 48.890625 
Q 56.203125 41.796875 56.203125 29.59375 
z
M 47.21875 32.234375 
Q 47.125 39.59375 43.09375 43.984375 
Q 39.0625 48.390625 32.421875 48.390625 
Q 24.90625 48.390625 20.390625 44.140625 
Q 15.875 39.890625 15.1875 32.171875 
z
" id="DejaVuSans-65"/>
     <path d="M 44.28125 53.078125 
L 44.28125 44.578125 
Q 40.484375 46.53125 36.375 47.5 
Q 32.28125 48.484375 27.875 48.484375 
Q 21.1875 48.484375 17.84375 46.4375 
Q 14.5 44.390625 14.5 40.28125 
Q 14.5 37.15625 16.890625 35.375 
Q 19.28125 33.59375 26.515625 31.984375 
L 29.59375 31.296875 
Q 39.15625 29.25 43.1875 25.515625 
Q 47.21875 21.78125 47.21875 15.09375 
Q 47.21875 7.46875 41.1875 3.015625 
Q 35.15625 -1.421875 24.609375 -1.421875 
Q 20.21875 -1.421875 15.453125 -0.5625 
Q 10.6875 0.296875 5.421875 2 
L 5.421875 11.28125 
Q 10.40625 8.6875 15.234375 7.390625 
Q 20.0625 6.109375 24.8125 6.109375 
Q 31.15625 6.109375 34.5625 8.28125 
Q 37.984375 10.453125 37.984375 14.40625 
Q 37.984375 18.0625 35.515625 20.015625 
Q 33.0625 21.96875 24.703125 23.78125 
L 21.578125 24.515625 
Q 13.234375 26.265625 9.515625 29.90625 
Q 5.8125 33.546875 5.8125 39.890625 
Q 5.8125 47.609375 11.28125 51.796875 
Q 16.75 56 26.8125 56 
Q 31.78125 56 36.171875 55.265625 
Q 40.578125 54.546875 44.28125 53.078125 
z
" id="DejaVuSans-73"/>
     <path d="M 18.3125 70.21875 
L 18.3125 54.6875 
L 36.8125 54.6875 
L 36.8125 47.703125 
L 18.3125 47.703125 
L 18.3125 18.015625 
Q 18.3125 11.328125 20.140625 9.421875 
Q 21.96875 7.515625 27.59375 7.515625 
L 36.8125 7.515625 
L 36.8125 0 
L 27.59375 0 
Q 17.1875 0 13.234375 3.875 
Q 9.28125 7.765625 9.28125 18.015625 
L 9.28125 47.703125 
L 2.6875 47.703125 
L 2.6875 54.6875 
L 9.28125 54.6875 
L 9.28125 70.21875 
z
" id="DejaVuSans-74"/>
    </defs>
    <g transform="translate(216.838125 19.44)scale(0.12 -0.12)">
     <use xlink:href="#DejaVuSans-4d"/>
     <use x="86.279297" xlink:href="#DejaVuSans-69"/>
     <use x="114.0625" xlink:href="#DejaVuSans-64"/>
     <use x="177.539062" xlink:href="#DejaVuSans-77"/>
     <use x="259.326172" xlink:href="#DejaVuSans-65"/>
     <use x="320.849609" xlink:href="#DejaVuSans-73"/>
     <use x="372.949219" xlink:href="#DejaVuSans-74"/>
    </g>
   </g>
  </g>
  <g id="axes_2">
   <g id="patch_7">
    <path d="M 457.685 283.195 
L 848.16 283.195 
L 848.16 25.44 
L 457.685 25.44 
z
" style="fill:#ffffff;"/>
   </g>
   <g id="PolyCollection_2">
    <defs>
     <path d="M 457.685 -593.906453 
L 457.685 -364.805 
L 464.08623 -364.805 
L 470.487459 -364.805 
L 476.888689 -364.805 
L 483.289918 -364.805 
L 489.691148 -364.805 
L 496.092377 -364.805 
L 502.493607 -364.805 
L 508.894836 -364.805 
L 515.296066 -364.805 
L 521.697295 -364.805 
L 528.098525 -364.805 
L 534.499754 -364.805 
L 540.900984 -364.805 
L 547.302213 -364.805 
L 553.703443 -364.805 
L 560.104672 -364.805 
L 566.505902 -364.805 
L 572.907131 -364.805 
L 579.308361 -364.805 
L 585.70959 -364.805 
L 592.11082 -364.805 
L 598.512049 -364.805 
L 604.913279 -364.805 
L 611.314508 -364.805 
L 617.715738 -364.805 
L 624.116967 -364.805 
L 630.518197 -364.805 
L 636.919426 -364.805 
L 643.320656 -364.805 
L 649.721885 -364.805 
L 656.123115 -364.805 
L 662.524344 -364.805 
L 668.925574 -364.805 
L 675.326803 -364.805 
L 681.728033 -364.805 
L 688.129262 -364.805 
L 694.530492 -364.805 
L 700.931721 -364.805 
L 707.332951 -364.805 
L 713.73418 -364.805 
L 720.13541 -364.805 
L 726.536639 -364.805 
L 732.937869 -364.805 
L 739.339098 -364.805 
L 745.740328 -364.805 
L 752.141557 -364.805 
L 758.542787 -364.805 
L 764.944016 -364.805 
L 771.345246 -364.805 
L 777.746475 -364.805 
L 784.147705 -364.805 
L 790.548934 -364.805 
L 796.950164 -364.805 
L 803.351393 -364.805 
L 809.752623 -364.805 
L 816.153852 -364.805 
L 822.555082 -364.805 
L 828.956311 -364.805 
L 835.357541 -364.805 
L 841.75877 -364.805 
L 848.16 -364.805 
L 848.16 -384.014307 
L 848.16 -384.014307 
L 841.75877 -379.354749 
L 835.357541 -376.559334 
L 828.956311 -379.663798 
L 822.555082 -379.835136 
L 816.153852 -389.176474 
L 809.752623 -389.208946 
L 803.351393 -385.559515 
L 796.950164 -385.01876 
L 790.548934 -384.121324 
L 784.147705 -383.222312 
L 777.746475 -394.026736 
L 771.345246 -390.981494 
L 764.944016 -385.429998 
L 758.542787 -386.964075 
L 752.141557 -389.266101 
L 745.740328 -382.693627 
L 739.339098 -387.269582 
L 732.937869 -389.427302 
L 726.536639 -388.361609 
L 720.13541 -392.925455 
L 713.73418 -384.351656 
L 707.332951 -385.112439 
L 700.931721 -390.72123 
L 694.530492 -386.732431 
L 688.129262 -391.055491 
L 681.728033 -388.943687 
L 675.326803 -396.476763 
L 668.925574 -398.933084 
L 662.524344 -404.242989 
L 656.123115 -440.844991 
L 649.721885 -403.759927 
L 643.320656 -407.387748 
L 636.919426 -412.677169 
L 630.518197 -407.68177 
L 624.116967 -413.53162 
L 617.715738 -418.082655 
L 611.314508 -418.495138 
L 604.913279 -425.907069 
L 598.512049 -421.803708 
L 592.11082 -431.755179 
L 585.70959 -444.550575 
L 579.308361 -453.991431 
L 572.907131 -448.914808 
L 566.505902 -463.880775 
L 560.104672 -464.58963 
L 553.703443 -466.880106 
L 547.302213 -475.219665 
L 540.900984 -471.413636 
L 534.499754 -457.691012 
L 528.098525 -479.792273 
L 521.697295 -415.099195 
L 515.296066 -445.506257 
L 508.894836 -518.713462 
L 502.493607 -526.281893 
L 496.092377 -532.952227 
L 489.691148 -528.778955 
L 483.289918 -588.912903 
L 476.888689 -524.122244 
L 470.487459 -610.285952 
L 464.08623 -545.815506 
L 457.685 -593.906453 
z
" id="m4cc93d18ed" style="stroke:#ff7f0e;"/>
    </defs>
    <g clip-path="url(#pc9b9645033)">
     <use style="fill:#ff7f0e;stroke:#ff7f0e;" x="0" xlink:href="#m4cc93d18ed" y="648"/>
    </g>
   </g>
   <g id="matplotlib.axis_3">
    <g id="xtick_13">
     <g id="line2d_23">
      <g>
       <use style="stroke:#000000;stroke-width:0.8;" x="457.685" xlink:href="#mdd51f90d30" y="283.195"/>
      </g>
     </g>
    </g>
    <g id="xtick_14">
     <g id="line2d_24">
      <g>
       <use style="stroke:#000000;stroke-width:0.8;" x="493.182727" xlink:href="#mdd51f90d30" y="283.195"/>
      </g>
     </g>
    </g>
    <g id="xtick_15">
     <g id="line2d_25">
      <g>
       <use style="stroke:#000000;stroke-width:0.8;" x="528.680455" xlink:href="#mdd51f90d30" y="283.195"/>
      </g>
     </g>
    </g>
    <g id="xtick_16">
     <g id="line2d_26">
      <g>
       <use style="stroke:#000000;stroke-width:0.8;" x="564.178182" xlink:href="#mdd51f90d30" y="283.195"/>
      </g>
     </g>
    </g>
    <g id="xtick_17">
     <g id="line2d_27">
      <g>
       <use style="stroke:#000000;stroke-width:0.8;" x="599.675909" xlink:href="#mdd51f90d30" y="283.195"/>
      </g>
     </g>
    </g>
    <g id="xtick_18">
     <g id="line2d_28">
      <g>
       <use style="stroke:#000000;stroke-width:0.8;" x="635.173636" xlink:href="#mdd51f90d30" y="283.195"/>
      </g>
     </g>
    </g>
    <g id="xtick_19">
     <g id="line2d_29">
      <g>
       <use style="stroke:#000000;stroke-width:0.8;" x="670.671364" xlink:href="#mdd51f90d30" y="283.195"/>
      </g>
     </g>
    </g>
    <g id="xtick_20">
     <g id="line2d_30">
      <g>
       <use style="stroke:#000000;stroke-width:0.8;" x="706.169091" xlink:href="#mdd51f90d30" y="283.195"/>
      </g>
     </g>
    </g>
    <g id="xtick_21">
     <g id="line2d_31">
      <g>
       <use style="stroke:#000000;stroke-width:0.8;" x="741.666818" xlink:href="#mdd51f90d30" y="283.195"/>
      </g>
     </g>
    </g>
    <g id="xtick_22">
     <g id="line2d_32">
      <g>
       <use style="stroke:#000000;stroke-width:0.8;" x="777.164545" xlink:href="#mdd51f90d30" y="283.195"/>
      </g>
     </g>
    </g>
    <g id="xtick_23">
     <g id="line2d_33">
      <g>
       <use style="stroke:#000000;stroke-width:0.8;" x="812.662273" xlink:href="#mdd51f90d30" y="283.195"/>
      </g>
     </g>
    </g>
    <g id="xtick_24">
     <g id="line2d_34">
      <g>
       <use style="stroke:#000000;stroke-width:0.8;" x="848.16" xlink:href="#mdd51f90d30" y="283.195"/>
      </g>
     </g>
    </g>
   </g>
   <g id="matplotlib.axis_4">
    <g id="ytick_10">
     <g id="line2d_35">
      <g>
       <use style="stroke:#000000;stroke-width:0.8;" x="457.685" xlink:href="#m45d21e2564" y="283.195"/>
      </g>
     </g>
    </g>
    <g id="ytick_11">
     <g id="line2d_36">
      <g>
       <use style="stroke:#000000;stroke-width:0.8;" x="457.685" xlink:href="#m45d21e2564" y="251.362695"/>
      </g>
     </g>
    </g>
    <g id="ytick_12">
     <g id="line2d_37">
      <g>
       <use style="stroke:#000000;stroke-width:0.8;" x="457.685" xlink:href="#m45d21e2564" y="219.53039"/>
      </g>
     </g>
    </g>
    <g id="ytick_13">
     <g id="line2d_38">
      <g>
       <use style="stroke:#000000;stroke-width:0.8;" x="457.685" xlink:href="#m45d21e2564" y="187.698085"/>
      </g>
     </g>
    </g>
    <g id="ytick_14">
     <g id="line2d_39">
      <g>
       <use style="stroke:#000000;stroke-width:0.8;" x="457.685" xlink:href="#m45d21e2564" y="155.86578"/>
      </g>
     </g>
    </g>
    <g id="ytick_15">
     <g id="line2d_40">
      <g>
       <use style="stroke:#000000;stroke-width:0.8;" x="457.685" xlink:href="#m45d21e2564" y="124.033475"/>
      </g>
     </g>
    </g>
    <g id="ytick_16">
     <g id="line2d_41">
      <g>
       <use style="stroke:#000000;stroke-width:0.8;" x="457.685" xlink:href="#m45d21e2564" y="92.20117"/>
      </g>
     </g>
    </g>
    <g id="ytick_17">
     <g id="line2d_42">
      <g>
       <use style="stroke:#000000;stroke-width:0.8;" x="457.685" xlink:href="#m45d21e2564" y="60.368864"/>
      </g>
     </g>
    </g>
    <g id="ytick_18">
     <g id="line2d_43">
      <g>
       <use style="stroke:#000000;stroke-width:0.8;" x="457.685" xlink:href="#m45d21e2564" y="28.536559"/>
      </g>
     </g>
    </g>
   </g>
   <g id="line2d_44">
    <path clip-path="url(#pc9b9645033)" d="M 457.685 54.093547 
L 464.08623 102.184494 
L 470.487459 37.714048 
L 476.888689 123.877756 
L 483.289918 59.087097 
L 489.691148 119.221045 
L 496.092377 115.047773 
L 502.493607 121.718107 
L 508.894836 129.286538 
L 515.296066 202.493743 
L 521.697295 232.900805 
L 528.098525 168.207727 
L 534.499754 190.308988 
L 540.900984 176.586364 
L 547.302213 172.780335 
L 553.703443 181.119894 
L 560.104672 183.41037 
L 566.505902 184.119225 
L 572.907131 199.085192 
L 579.308361 194.008569 
L 585.70959 203.449425 
L 592.11082 216.244821 
L 598.512049 226.196292 
L 604.913279 222.092931 
L 611.314508 229.504862 
L 617.715738 229.917345 
L 624.116967 234.46838 
L 630.518197 240.31823 
L 636.919426 235.322831 
L 643.320656 240.612252 
L 649.721885 244.240073 
L 656.123115 207.155009 
L 662.524344 243.757011 
L 668.925574 249.066916 
L 675.326803 251.523237 
L 681.728033 259.056313 
L 688.129262 256.944509 
L 694.530492 261.267569 
L 700.931721 257.27877 
L 707.332951 262.887561 
L 713.73418 263.648344 
L 720.13541 255.074545 
L 726.536639 259.638391 
L 732.937869 258.572698 
L 739.339098 260.730418 
L 745.740328 265.306373 
L 752.141557 258.733899 
L 758.542787 261.035925 
L 764.944016 262.570002 
L 771.345246 257.018506 
L 777.746475 253.973264 
L 784.147705 264.777688 
L 790.548934 263.878676 
L 796.950164 262.98124 
L 803.351393 262.440485 
L 809.752623 258.791054 
L 816.153852 258.823526 
L 822.555082 268.164864 
L 828.956311 268.336202 
L 835.357541 271.440666 
L 841.75877 268.645251 
L 848.16 263.985693 
" style="fill:none;stroke:#ff7f0e;stroke-linecap:square;stroke-width:1.5;"/>
   </g>
   <g id="patch_8">
    <path d="M 457.685 283.195 
L 457.685 25.44 
" style="fill:none;stroke:#000000;stroke-linecap:square;stroke-linejoin:miter;stroke-width:0.8;"/>
   </g>
   <g id="patch_9">
    <path d="M 848.16 283.195 
L 848.16 25.44 
" style="fill:none;stroke:#000000;stroke-linecap:square;stroke-linejoin:miter;stroke-width:0.8;"/>
   </g>
   <g id="patch_10">
    <path d="M 457.685 283.195 
L 848.16 283.195 
" style="fill:none;stroke:#000000;stroke-linecap:square;stroke-linejoin:miter;stroke-width:0.8;"/>
   </g>
   <g id="patch_11">
    <path d="M 457.685 25.44 
L 848.16 25.44 
" style="fill:none;stroke:#000000;stroke-linecap:square;stroke-linejoin:miter;stroke-width:0.8;"/>
   </g>
   <g id="text_11">
    <!-- Northeast -->
    <defs>
     <path d="M 9.8125 72.90625 
L 23.09375 72.90625 
L 55.421875 11.921875 
L 55.421875 72.90625 
L 64.984375 72.90625 
L 64.984375 0 
L 51.703125 0 
L 19.390625 60.984375 
L 19.390625 0 
L 9.8125 0 
z
" id="DejaVuSans-4e"/>
     <path d="M 30.609375 48.390625 
Q 23.390625 48.390625 19.1875 42.75 
Q 14.984375 37.109375 14.984375 27.296875 
Q 14.984375 17.484375 19.15625 11.84375 
Q 23.34375 6.203125 30.609375 6.203125 
Q 37.796875 6.203125 41.984375 11.859375 
Q 46.1875 17.53125 46.1875 27.296875 
Q 46.1875 37.015625 41.984375 42.703125 
Q 37.796875 48.390625 30.609375 48.390625 
z
M 30.609375 56 
Q 42.328125 56 49.015625 48.375 
Q 55.71875 40.765625 55.71875 27.296875 
Q 55.71875 13.875 49.015625 6.21875 
Q 42.328125 -1.421875 30.609375 -1.421875 
Q 18.84375 -1.421875 12.171875 6.21875 
Q 5.515625 13.875 5.515625 27.296875 
Q 5.515625 40.765625 12.171875 48.375 
Q 18.84375 56 30.609375 56 
z
" id="DejaVuSans-6f"/>
     <path d="M 41.109375 46.296875 
Q 39.59375 47.171875 37.8125 47.578125 
Q 36.03125 48 33.890625 48 
Q 26.265625 48 22.1875 43.046875 
Q 18.109375 38.09375 18.109375 28.8125 
L 18.109375 0 
L 9.078125 0 
L 9.078125 54.6875 
L 18.109375 54.6875 
L 18.109375 46.1875 
Q 20.953125 51.171875 25.484375 53.578125 
Q 30.03125 56 36.53125 56 
Q 37.453125 56 38.578125 55.875 
Q 39.703125 55.765625 41.0625 55.515625 
z
" id="DejaVuSans-72"/>
     <path d="M 54.890625 33.015625 
L 54.890625 0 
L 45.90625 0 
L 45.90625 32.71875 
Q 45.90625 40.484375 42.875 44.328125 
Q 39.84375 48.1875 33.796875 48.1875 
Q 26.515625 48.1875 22.3125 43.546875 
Q 18.109375 38.921875 18.109375 30.90625 
L 18.109375 0 
L 9.078125 0 
L 9.078125 75.984375 
L 18.109375 75.984375 
L 18.109375 46.1875 
Q 21.34375 51.125 25.703125 53.5625 
Q 30.078125 56 35.796875 56 
Q 45.21875 56 50.046875 50.171875 
Q 54.890625 44.34375 54.890625 33.015625 
z
" id="DejaVuSans-68"/>
     <path d="M 34.28125 27.484375 
Q 23.390625 27.484375 19.1875 25 
Q 14.984375 22.515625 14.984375 16.5 
Q 14.984375 11.71875 18.140625 8.90625 
Q 21.296875 6.109375 26.703125 6.109375 
Q 34.1875 6.109375 38.703125 11.40625 
Q 43.21875 16.703125 43.21875 25.484375 
L 43.21875 27.484375 
z
M 52.203125 31.203125 
L 52.203125 0 
L 43.21875 0 
L 43.21875 8.296875 
Q 40.140625 3.328125 35.546875 0.953125 
Q 30.953125 -1.421875 24.3125 -1.421875 
Q 15.921875 -1.421875 10.953125 3.296875 
Q 6 8.015625 6 15.921875 
Q 6 25.140625 12.171875 29.828125 
Q 18.359375 34.515625 30.609375 34.515625 
L 43.21875 34.515625 
L 43.21875 35.40625 
Q 43.21875 41.609375 39.140625 45 
Q 35.0625 48.390625 27.6875 48.390625 
Q 23 48.390625 18.546875 47.265625 
Q 14.109375 46.140625 10.015625 43.890625 
L 10.015625 52.203125 
Q 14.9375 54.109375 19.578125 55.046875 
Q 24.21875 56 28.609375 56 
Q 40.484375 56 46.34375 49.84375 
Q 52.203125 43.703125 52.203125 31.203125 
z
" id="DejaVuSans-61"/>
    </defs>
    <g transform="translate(623.294688 19.44)scale(0.12 -0.12)">
     <use xlink:href="#DejaVuSans-4e"/>
     <use x="74.804688" xlink:href="#DejaVuSans-6f"/>
     <use x="135.986328" xlink:href="#DejaVuSans-72"/>
     <use x="177.099609" xlink:href="#DejaVuSans-74"/>
     <use x="216.308594" xlink:href="#DejaVuSans-68"/>
     <use x="279.6875" xlink:href="#DejaVuSans-65"/>
     <use x="341.210938" xlink:href="#DejaVuSans-61"/>
     <use x="402.490234" xlink:href="#DejaVuSans-73"/>
     <use x="454.589844" xlink:href="#DejaVuSans-74"/>
    </g>
   </g>
  </g>
  <g id="axes_3">
   <g id="patch_12">
    <path d="M 46.33 572.51 
L 436.805 572.51 
L 436.805 314.755 
L 46.33 314.755 
z
" style="fill:#ffffff;"/>
   </g>
   <g id="PolyCollection_3">
    <defs>
     <path d="M 46.33 -191.804443 
L 46.33 -75.49 
L 52.73123 -75.49 
L 59.132459 -75.49 
L 65.533689 -75.49 
L 71.934918 -75.49 
L 78.336148 -75.49 
L 84.737377 -75.49 
L 91.138607 -75.49 
L 97.539836 -75.49 
L 103.941066 -75.49 
L 110.342295 -75.49 
L 116.743525 -75.49 
L 123.144754 -75.49 
L 129.545984 -75.49 
L 135.947213 -75.49 
L 142.348443 -75.49 
L 148.749672 -75.49 
L 155.150902 -75.49 
L 161.552131 -75.49 
L 167.953361 -75.49 
L 174.35459 -75.49 
L 180.75582 -75.49 
L 187.157049 -75.49 
L 193.558279 -75.49 
L 199.959508 -75.49 
L 206.360738 -75.49 
L 212.761967 -75.49 
L 219.163197 -75.49 
L 225.564426 -75.49 
L 231.965656 -75.49 
L 238.366885 -75.49 
L 244.768115 -75.49 
L 251.169344 -75.49 
L 257.570574 -75.49 
L 263.971803 -75.49 
L 270.373033 -75.49 
L 276.774262 -75.49 
L 283.175492 -75.49 
L 289.576721 -75.49 
L 295.977951 -75.49 
L 302.37918 -75.49 
L 308.78041 -75.49 
L 315.181639 -75.49 
L 321.582869 -75.49 
L 327.984098 -75.49 
L 334.385328 -75.49 
L 340.786557 -75.49 
L 347.187787 -75.49 
L 353.589016 -75.49 
L 359.990246 -75.49 
L 366.391475 -75.49 
L 372.792705 -75.49 
L 379.193934 -75.49 
L 385.595164 -75.49 
L 391.996393 -75.49 
L 398.397623 -75.49 
L 404.798852 -75.49 
L 411.200082 -75.49 
L 417.601311 -75.49 
L 424.002541 -75.49 
L 430.40377 -75.49 
L 436.805 -75.49 
L 436.805 -255.175047 
L 436.805 -255.175047 
L 430.40377 -200.857519 
L 424.002541 -218.408082 
L 417.601311 -222.283067 
L 411.200082 -225.043203 
L 404.798852 -264.02664 
L 398.397623 -229.787781 
L 391.996393 -233.503672 
L 385.595164 -218.678927 
L 379.193934 -200.220735 
L 372.792705 -193.218175 
L 366.391475 -199.545545 
L 359.990246 -203.315294 
L 353.589016 -194.953348 
L 347.187787 -143.328974 
L 340.786557 -176.569993 
L 334.385328 -158.856595 
L 327.984098 -178.858757 
L 321.582869 -180.469453 
L 315.181639 -155.405149 
L 308.78041 -133.478293 
L 302.37918 -173.723719 
L 295.977951 -161.007838 
L 289.576721 -180.006579 
L 283.175492 -177.732411 
L 276.774262 -168.405459 
L 270.373033 -144.767037 
L 263.971803 -163.241093 
L 257.570574 -114.89205 
L 251.169344 -135.072329 
L 244.768115 -171.537263 
L 238.366885 -177.466723 
L 231.965656 -146.022777 
L 225.564426 -171.282188 
L 219.163197 -164.706557 
L 212.761967 -137.369704 
L 206.360738 -147.17816 
L 199.959508 -142.629008 
L 193.558279 -137.057169 
L 187.157049 -133.71178 
L 180.75582 -128.258857 
L 174.35459 -153.654621 
L 167.953361 -178.341068 
L 161.552131 -161.222778 
L 155.150902 -150.503644 
L 148.749672 -133.087792 
L 142.348443 -144.271527 
L 135.947213 -145.910867 
L 129.545984 -146.583076 
L 123.144754 -146.326239 
L 116.743525 -156.112034 
L 110.342295 -150.151282 
L 103.941066 -159.595055 
L 97.539836 -172.74434 
L 91.138607 -163.534842 
L 84.737377 -173.096003 
L 78.336148 -156.365972 
L 71.934918 -160.028759 
L 65.533689 -157.881937 
L 59.132459 -170.796555 
L 52.73123 -176.353441 
L 46.33 -191.804443 
z
" id="m5a13d84205" style="stroke:#2ca02c;"/>
    </defs>
    <g clip-path="url(#p0ded7d9bbb)">
     <use style="fill:#2ca02c;stroke:#2ca02c;" x="0" xlink:href="#m5a13d84205" y="648"/>
    </g>
   </g>
   <g id="matplotlib.axis_5">
    <g id="xtick_25">
     <g id="line2d_45">
      <g>
       <use style="stroke:#000000;stroke-width:0.8;" x="46.33" xlink:href="#mdd51f90d30" y="572.51"/>
      </g>
     </g>
     <g id="text_12">
      <!-- 2020-05-02 -->
      <defs>
       <path d="M 4.890625 31.390625 
L 31.203125 31.390625 
L 31.203125 23.390625 
L 4.890625 23.390625 
z
" id="DejaVuSans-2d"/>
      </defs>
      <g transform="translate(49.089375 637.625625)rotate(-90)scale(0.1 -0.1)">
       <use xlink:href="#DejaVuSans-32"/>
       <use x="63.623047" xlink:href="#DejaVuSans-30"/>
       <use x="127.246094" xlink:href="#DejaVuSans-32"/>
       <use x="190.869141" xlink:href="#DejaVuSans-30"/>
       <use x="254.492188" xlink:href="#DejaVuSans-2d"/>
       <use x="290.576172" xlink:href="#DejaVuSans-30"/>
       <use x="354.199219" xlink:href="#DejaVuSans-35"/>
       <use x="417.822266" xlink:href="#DejaVuSans-2d"/>
       <use x="453.90625" xlink:href="#DejaVuSans-30"/>
       <use x="517.529297" xlink:href="#DejaVuSans-32"/>
      </g>
     </g>
    </g>
    <g id="xtick_26">
     <g id="line2d_46">
      <g>
       <use style="stroke:#000000;stroke-width:0.8;" x="81.827727" xlink:href="#mdd51f90d30" y="572.51"/>
      </g>
     </g>
     <g id="text_13">
      <!-- 2020-05-07 -->
      <g transform="translate(84.587102 637.625625)rotate(-90)scale(0.1 -0.1)">
       <use xlink:href="#DejaVuSans-32"/>
       <use x="63.623047" xlink:href="#DejaVuSans-30"/>
       <use x="127.246094" xlink:href="#DejaVuSans-32"/>
       <use x="190.869141" xlink:href="#DejaVuSans-30"/>
       <use x="254.492188" xlink:href="#DejaVuSans-2d"/>
       <use x="290.576172" xlink:href="#DejaVuSans-30"/>
       <use x="354.199219" xlink:href="#DejaVuSans-35"/>
       <use x="417.822266" xlink:href="#DejaVuSans-2d"/>
       <use x="453.90625" xlink:href="#DejaVuSans-30"/>
       <use x="517.529297" xlink:href="#DejaVuSans-37"/>
      </g>
     </g>
    </g>
    <g id="xtick_27">
     <g id="line2d_47">
      <g>
       <use style="stroke:#000000;stroke-width:0.8;" x="117.325455" xlink:href="#mdd51f90d30" y="572.51"/>
      </g>
     </g>
     <g id="text_14">
      <!-- 2020-05-13 -->
      <defs>
       <path d="M 40.578125 39.3125 
Q 47.65625 37.796875 51.625 33 
Q 55.609375 28.21875 55.609375 21.1875 
Q 55.609375 10.40625 48.1875 4.484375 
Q 40.765625 -1.421875 27.09375 -1.421875 
Q 22.515625 -1.421875 17.65625 -0.515625 
Q 12.796875 0.390625 7.625 2.203125 
L 7.625 11.71875 
Q 11.71875 9.328125 16.59375 8.109375 
Q 21.484375 6.890625 26.8125 6.890625 
Q 36.078125 6.890625 40.9375 10.546875 
Q 45.796875 14.203125 45.796875 21.1875 
Q 45.796875 27.640625 41.28125 31.265625 
Q 36.765625 34.90625 28.71875 34.90625 
L 20.21875 34.90625 
L 20.21875 43.015625 
L 29.109375 43.015625 
Q 36.375 43.015625 40.234375 45.921875 
Q 44.09375 48.828125 44.09375 54.296875 
Q 44.09375 59.90625 40.109375 62.90625 
Q 36.140625 65.921875 28.71875 65.921875 
Q 24.65625 65.921875 20.015625 65.03125 
Q 15.375 64.15625 9.8125 62.3125 
L 9.8125 71.09375 
Q 15.4375 72.65625 20.34375 73.4375 
Q 25.25 74.21875 29.59375 74.21875 
Q 40.828125 74.21875 47.359375 69.109375 
Q 53.90625 64.015625 53.90625 55.328125 
Q 53.90625 49.265625 50.4375 45.09375 
Q 46.96875 40.921875 40.578125 39.3125 
z
" id="DejaVuSans-33"/>
      </defs>
      <g transform="translate(120.08483 637.625625)rotate(-90)scale(0.1 -0.1)">
       <use xlink:href="#DejaVuSans-32"/>
       <use x="63.623047" xlink:href="#DejaVuSans-30"/>
       <use x="127.246094" xlink:href="#DejaVuSans-32"/>
       <use x="190.869141" xlink:href="#DejaVuSans-30"/>
       <use x="254.492188" xlink:href="#DejaVuSans-2d"/>
       <use x="290.576172" xlink:href="#DejaVuSans-30"/>
       <use x="354.199219" xlink:href="#DejaVuSans-35"/>
       <use x="417.822266" xlink:href="#DejaVuSans-2d"/>
       <use x="453.90625" xlink:href="#DejaVuSans-31"/>
       <use x="517.529297" xlink:href="#DejaVuSans-33"/>
      </g>
     </g>
    </g>
    <g id="xtick_28">
     <g id="line2d_48">
      <g>
       <use style="stroke:#000000;stroke-width:0.8;" x="152.823182" xlink:href="#mdd51f90d30" y="572.51"/>
      </g>
     </g>
     <g id="text_15">
      <!-- 2020-05-18 -->
      <defs>
       <path d="M 31.78125 34.625 
Q 24.75 34.625 20.71875 30.859375 
Q 16.703125 27.09375 16.703125 20.515625 
Q 16.703125 13.921875 20.71875 10.15625 
Q 24.75 6.390625 31.78125 6.390625 
Q 38.8125 6.390625 42.859375 10.171875 
Q 46.921875 13.96875 46.921875 20.515625 
Q 46.921875 27.09375 42.890625 30.859375 
Q 38.875 34.625 31.78125 34.625 
z
M 21.921875 38.8125 
Q 15.578125 40.375 12.03125 44.71875 
Q 8.5 49.078125 8.5 55.328125 
Q 8.5 64.0625 14.71875 69.140625 
Q 20.953125 74.21875 31.78125 74.21875 
Q 42.671875 74.21875 48.875 69.140625 
Q 55.078125 64.0625 55.078125 55.328125 
Q 55.078125 49.078125 51.53125 44.71875 
Q 48 40.375 41.703125 38.8125 
Q 48.828125 37.15625 52.796875 32.3125 
Q 56.78125 27.484375 56.78125 20.515625 
Q 56.78125 9.90625 50.3125 4.234375 
Q 43.84375 -1.421875 31.78125 -1.421875 
Q 19.734375 -1.421875 13.25 4.234375 
Q 6.78125 9.90625 6.78125 20.515625 
Q 6.78125 27.484375 10.78125 32.3125 
Q 14.796875 37.15625 21.921875 38.8125 
z
M 18.3125 54.390625 
Q 18.3125 48.734375 21.84375 45.5625 
Q 25.390625 42.390625 31.78125 42.390625 
Q 38.140625 42.390625 41.71875 45.5625 
Q 45.3125 48.734375 45.3125 54.390625 
Q 45.3125 60.0625 41.71875 63.234375 
Q 38.140625 66.40625 31.78125 66.40625 
Q 25.390625 66.40625 21.84375 63.234375 
Q 18.3125 60.0625 18.3125 54.390625 
z
" id="DejaVuSans-38"/>
      </defs>
      <g transform="translate(155.582557 637.625625)rotate(-90)scale(0.1 -0.1)">
       <use xlink:href="#DejaVuSans-32"/>
       <use x="63.623047" xlink:href="#DejaVuSans-30"/>
       <use x="127.246094" xlink:href="#DejaVuSans-32"/>
       <use x="190.869141" xlink:href="#DejaVuSans-30"/>
       <use x="254.492188" xlink:href="#DejaVuSans-2d"/>
       <use x="290.576172" xlink:href="#DejaVuSans-30"/>
       <use x="354.199219" xlink:href="#DejaVuSans-35"/>
       <use x="417.822266" xlink:href="#DejaVuSans-2d"/>
       <use x="453.90625" xlink:href="#DejaVuSans-31"/>
       <use x="517.529297" xlink:href="#DejaVuSans-38"/>
      </g>
     </g>
    </g>
    <g id="xtick_29">
     <g id="line2d_49">
      <g>
       <use style="stroke:#000000;stroke-width:0.8;" x="188.320909" xlink:href="#mdd51f90d30" y="572.51"/>
      </g>
     </g>
     <g id="text_16">
      <!-- 2020-05-24 -->
      <defs>
       <path d="M 37.796875 64.3125 
L 12.890625 25.390625 
L 37.796875 25.390625 
z
M 35.203125 72.90625 
L 47.609375 72.90625 
L 47.609375 25.390625 
L 58.015625 25.390625 
L 58.015625 17.1875 
L 47.609375 17.1875 
L 47.609375 0 
L 37.796875 0 
L 37.796875 17.1875 
L 4.890625 17.1875 
L 4.890625 26.703125 
z
" id="DejaVuSans-34"/>
      </defs>
      <g transform="translate(191.080284 637.625625)rotate(-90)scale(0.1 -0.1)">
       <use xlink:href="#DejaVuSans-32"/>
       <use x="63.623047" xlink:href="#DejaVuSans-30"/>
       <use x="127.246094" xlink:href="#DejaVuSans-32"/>
       <use x="190.869141" xlink:href="#DejaVuSans-30"/>
       <use x="254.492188" xlink:href="#DejaVuSans-2d"/>
       <use x="290.576172" xlink:href="#DejaVuSans-30"/>
       <use x="354.199219" xlink:href="#DejaVuSans-35"/>
       <use x="417.822266" xlink:href="#DejaVuSans-2d"/>
       <use x="453.90625" xlink:href="#DejaVuSans-32"/>
       <use x="517.529297" xlink:href="#DejaVuSans-34"/>
      </g>
     </g>
    </g>
    <g id="xtick_30">
     <g id="line2d_50">
      <g>
       <use style="stroke:#000000;stroke-width:0.8;" x="223.818636" xlink:href="#mdd51f90d30" y="572.51"/>
      </g>
     </g>
     <g id="text_17">
      <!-- 2020-05-29 -->
      <defs>
       <path d="M 10.984375 1.515625 
L 10.984375 10.5 
Q 14.703125 8.734375 18.5 7.8125 
Q 22.3125 6.890625 25.984375 6.890625 
Q 35.75 6.890625 40.890625 13.453125 
Q 46.046875 20.015625 46.78125 33.40625 
Q 43.953125 29.203125 39.59375 26.953125 
Q 35.25 24.703125 29.984375 24.703125 
Q 19.046875 24.703125 12.671875 31.3125 
Q 6.296875 37.9375 6.296875 49.421875 
Q 6.296875 60.640625 12.9375 67.421875 
Q 19.578125 74.21875 30.609375 74.21875 
Q 43.265625 74.21875 49.921875 64.515625 
Q 56.59375 54.828125 56.59375 36.375 
Q 56.59375 19.140625 48.40625 8.859375 
Q 40.234375 -1.421875 26.421875 -1.421875 
Q 22.703125 -1.421875 18.890625 -0.6875 
Q 15.09375 0.046875 10.984375 1.515625 
z
M 30.609375 32.421875 
Q 37.25 32.421875 41.125 36.953125 
Q 45.015625 41.5 45.015625 49.421875 
Q 45.015625 57.28125 41.125 61.84375 
Q 37.25 66.40625 30.609375 66.40625 
Q 23.96875 66.40625 20.09375 61.84375 
Q 16.21875 57.28125 16.21875 49.421875 
Q 16.21875 41.5 20.09375 36.953125 
Q 23.96875 32.421875 30.609375 32.421875 
z
" id="DejaVuSans-39"/>
      </defs>
      <g transform="translate(226.578011 637.625625)rotate(-90)scale(0.1 -0.1)">
       <use xlink:href="#DejaVuSans-32"/>
       <use x="63.623047" xlink:href="#DejaVuSans-30"/>
       <use x="127.246094" xlink:href="#DejaVuSans-32"/>
       <use x="190.869141" xlink:href="#DejaVuSans-30"/>
       <use x="254.492188" xlink:href="#DejaVuSans-2d"/>
       <use x="290.576172" xlink:href="#DejaVuSans-30"/>
       <use x="354.199219" xlink:href="#DejaVuSans-35"/>
       <use x="417.822266" xlink:href="#DejaVuSans-2d"/>
       <use x="453.90625" xlink:href="#DejaVuSans-32"/>
       <use x="517.529297" xlink:href="#DejaVuSans-39"/>
      </g>
     </g>
    </g>
    <g id="xtick_31">
     <g id="line2d_51">
      <g>
       <use style="stroke:#000000;stroke-width:0.8;" x="259.316364" xlink:href="#mdd51f90d30" y="572.51"/>
      </g>
     </g>
     <g id="text_18">
      <!-- 2020-06-04 -->
      <defs>
       <path d="M 33.015625 40.375 
Q 26.375 40.375 22.484375 35.828125 
Q 18.609375 31.296875 18.609375 23.390625 
Q 18.609375 15.53125 22.484375 10.953125 
Q 26.375 6.390625 33.015625 6.390625 
Q 39.65625 6.390625 43.53125 10.953125 
Q 47.40625 15.53125 47.40625 23.390625 
Q 47.40625 31.296875 43.53125 35.828125 
Q 39.65625 40.375 33.015625 40.375 
z
M 52.59375 71.296875 
L 52.59375 62.3125 
Q 48.875 64.0625 45.09375 64.984375 
Q 41.3125 65.921875 37.59375 65.921875 
Q 27.828125 65.921875 22.671875 59.328125 
Q 17.53125 52.734375 16.796875 39.40625 
Q 19.671875 43.65625 24.015625 45.921875 
Q 28.375 48.1875 33.59375 48.1875 
Q 44.578125 48.1875 50.953125 41.515625 
Q 57.328125 34.859375 57.328125 23.390625 
Q 57.328125 12.15625 50.6875 5.359375 
Q 44.046875 -1.421875 33.015625 -1.421875 
Q 20.359375 -1.421875 13.671875 8.265625 
Q 6.984375 17.96875 6.984375 36.375 
Q 6.984375 53.65625 15.1875 63.9375 
Q 23.390625 74.21875 37.203125 74.21875 
Q 40.921875 74.21875 44.703125 73.484375 
Q 48.484375 72.75 52.59375 71.296875 
z
" id="DejaVuSans-36"/>
      </defs>
      <g transform="translate(262.075739 637.625625)rotate(-90)scale(0.1 -0.1)">
       <use xlink:href="#DejaVuSans-32"/>
       <use x="63.623047" xlink:href="#DejaVuSans-30"/>
       <use x="127.246094" xlink:href="#DejaVuSans-32"/>
       <use x="190.869141" xlink:href="#DejaVuSans-30"/>
       <use x="254.492188" xlink:href="#DejaVuSans-2d"/>
       <use x="290.576172" xlink:href="#DejaVuSans-30"/>
       <use x="354.199219" xlink:href="#DejaVuSans-36"/>
       <use x="417.822266" xlink:href="#DejaVuSans-2d"/>
       <use x="453.90625" xlink:href="#DejaVuSans-30"/>
       <use x="517.529297" xlink:href="#DejaVuSans-34"/>
      </g>
     </g>
    </g>
    <g id="xtick_32">
     <g id="line2d_52">
      <g>
       <use style="stroke:#000000;stroke-width:0.8;" x="294.814091" xlink:href="#mdd51f90d30" y="572.51"/>
      </g>
     </g>
     <g id="text_19">
      <!-- 2020-06-09 -->
      <g transform="translate(297.573466 637.625625)rotate(-90)scale(0.1 -0.1)">
       <use xlink:href="#DejaVuSans-32"/>
       <use x="63.623047" xlink:href="#DejaVuSans-30"/>
       <use x="127.246094" xlink:href="#DejaVuSans-32"/>
       <use x="190.869141" xlink:href="#DejaVuSans-30"/>
       <use x="254.492188" xlink:href="#DejaVuSans-2d"/>
       <use x="290.576172" xlink:href="#DejaVuSans-30"/>
       <use x="354.199219" xlink:href="#DejaVuSans-36"/>
       <use x="417.822266" xlink:href="#DejaVuSans-2d"/>
       <use x="453.90625" xlink:href="#DejaVuSans-30"/>
       <use x="517.529297" xlink:href="#DejaVuSans-39"/>
      </g>
     </g>
    </g>
    <g id="xtick_33">
     <g id="line2d_53">
      <g>
       <use style="stroke:#000000;stroke-width:0.8;" x="330.311818" xlink:href="#mdd51f90d30" y="572.51"/>
      </g>
     </g>
     <g id="text_20">
      <!-- 2020-06-15 -->
      <g transform="translate(333.071193 637.625625)rotate(-90)scale(0.1 -0.1)">
       <use xlink:href="#DejaVuSans-32"/>
       <use x="63.623047" xlink:href="#DejaVuSans-30"/>
       <use x="127.246094" xlink:href="#DejaVuSans-32"/>
       <use x="190.869141" xlink:href="#DejaVuSans-30"/>
       <use x="254.492188" xlink:href="#DejaVuSans-2d"/>
       <use x="290.576172" xlink:href="#DejaVuSans-30"/>
       <use x="354.199219" xlink:href="#DejaVuSans-36"/>
       <use x="417.822266" xlink:href="#DejaVuSans-2d"/>
       <use x="453.90625" xlink:href="#DejaVuSans-31"/>
       <use x="517.529297" xlink:href="#DejaVuSans-35"/>
      </g>
     </g>
    </g>
    <g id="xtick_34">
     <g id="line2d_54">
      <g>
       <use style="stroke:#000000;stroke-width:0.8;" x="365.809545" xlink:href="#mdd51f90d30" y="572.51"/>
      </g>
     </g>
     <g id="text_21">
      <!-- 2020-06-20 -->
      <g transform="translate(368.56892 637.625625)rotate(-90)scale(0.1 -0.1)">
       <use xlink:href="#DejaVuSans-32"/>
       <use x="63.623047" xlink:href="#DejaVuSans-30"/>
       <use x="127.246094" xlink:href="#DejaVuSans-32"/>
       <use x="190.869141" xlink:href="#DejaVuSans-30"/>
       <use x="254.492188" xlink:href="#DejaVuSans-2d"/>
       <use x="290.576172" xlink:href="#DejaVuSans-30"/>
       <use x="354.199219" xlink:href="#DejaVuSans-36"/>
       <use x="417.822266" xlink:href="#DejaVuSans-2d"/>
       <use x="453.90625" xlink:href="#DejaVuSans-32"/>
       <use x="517.529297" xlink:href="#DejaVuSans-30"/>
      </g>
     </g>
    </g>
    <g id="xtick_35">
     <g id="line2d_55">
      <g>
       <use style="stroke:#000000;stroke-width:0.8;" x="401.307273" xlink:href="#mdd51f90d30" y="572.51"/>
      </g>
     </g>
     <g id="text_22">
      <!-- 2020-06-26 -->
      <g transform="translate(404.066648 637.625625)rotate(-90)scale(0.1 -0.1)">
       <use xlink:href="#DejaVuSans-32"/>
       <use x="63.623047" xlink:href="#DejaVuSans-30"/>
       <use x="127.246094" xlink:href="#DejaVuSans-32"/>
       <use x="190.869141" xlink:href="#DejaVuSans-30"/>
       <use x="254.492188" xlink:href="#DejaVuSans-2d"/>
       <use x="290.576172" xlink:href="#DejaVuSans-30"/>
       <use x="354.199219" xlink:href="#DejaVuSans-36"/>
       <use x="417.822266" xlink:href="#DejaVuSans-2d"/>
       <use x="453.90625" xlink:href="#DejaVuSans-32"/>
       <use x="517.529297" xlink:href="#DejaVuSans-36"/>
      </g>
     </g>
    </g>
    <g id="xtick_36">
     <g id="line2d_56">
      <g>
       <use style="stroke:#000000;stroke-width:0.8;" x="436.805" xlink:href="#mdd51f90d30" y="572.51"/>
      </g>
     </g>
     <g id="text_23">
      <!-- 2020-07-02 -->
      <g transform="translate(439.564375 637.625625)rotate(-90)scale(0.1 -0.1)">
       <use xlink:href="#DejaVuSans-32"/>
       <use x="63.623047" xlink:href="#DejaVuSans-30"/>
       <use x="127.246094" xlink:href="#DejaVuSans-32"/>
       <use x="190.869141" xlink:href="#DejaVuSans-30"/>
       <use x="254.492188" xlink:href="#DejaVuSans-2d"/>
       <use x="290.576172" xlink:href="#DejaVuSans-30"/>
       <use x="354.199219" xlink:href="#DejaVuSans-37"/>
       <use x="417.822266" xlink:href="#DejaVuSans-2d"/>
       <use x="453.90625" xlink:href="#DejaVuSans-30"/>
       <use x="517.529297" xlink:href="#DejaVuSans-32"/>
      </g>
     </g>
    </g>
   </g>
   <g id="matplotlib.axis_6">
    <g id="ytick_19">
     <g id="line2d_57">
      <g>
       <use style="stroke:#000000;stroke-width:0.8;" x="46.33" xlink:href="#m45d21e2564" y="572.51"/>
      </g>
     </g>
     <g id="text_24">
      <!-- 0.000 -->
      <g transform="translate(10.701875 576.309219)scale(0.1 -0.1)">
       <use xlink:href="#DejaVuSans-30"/>
       <use x="63.623047" xlink:href="#DejaVuSans-2e"/>
       <use x="95.410156" xlink:href="#DejaVuSans-30"/>
       <use x="159.033203" xlink:href="#DejaVuSans-30"/>
       <use x="222.65625" xlink:href="#DejaVuSans-30"/>
      </g>
     </g>
    </g>
    <g id="ytick_20">
     <g id="line2d_58">
      <g>
       <use style="stroke:#000000;stroke-width:0.8;" x="46.33" xlink:href="#m45d21e2564" y="540.677695"/>
      </g>
     </g>
     <g id="text_25">
      <!-- 0.025 -->
      <g transform="translate(10.701875 544.476914)scale(0.1 -0.1)">
       <use xlink:href="#DejaVuSans-30"/>
       <use x="63.623047" xlink:href="#DejaVuSans-2e"/>
       <use x="95.410156" xlink:href="#DejaVuSans-30"/>
       <use x="159.033203" xlink:href="#DejaVuSans-32"/>
       <use x="222.65625" xlink:href="#DejaVuSans-35"/>
      </g>
     </g>
    </g>
    <g id="ytick_21">
     <g id="line2d_59">
      <g>
       <use style="stroke:#000000;stroke-width:0.8;" x="46.33" xlink:href="#m45d21e2564" y="508.84539"/>
      </g>
     </g>
     <g id="text_26">
      <!-- 0.050 -->
      <g transform="translate(10.701875 512.644609)scale(0.1 -0.1)">
       <use xlink:href="#DejaVuSans-30"/>
       <use x="63.623047" xlink:href="#DejaVuSans-2e"/>
       <use x="95.410156" xlink:href="#DejaVuSans-30"/>
       <use x="159.033203" xlink:href="#DejaVuSans-35"/>
       <use x="222.65625" xlink:href="#DejaVuSans-30"/>
      </g>
     </g>
    </g>
    <g id="ytick_22">
     <g id="line2d_60">
      <g>
       <use style="stroke:#000000;stroke-width:0.8;" x="46.33" xlink:href="#m45d21e2564" y="477.013085"/>
      </g>
     </g>
     <g id="text_27">
      <!-- 0.075 -->
      <g transform="translate(10.701875 480.812304)scale(0.1 -0.1)">
       <use xlink:href="#DejaVuSans-30"/>
       <use x="63.623047" xlink:href="#DejaVuSans-2e"/>
       <use x="95.410156" xlink:href="#DejaVuSans-30"/>
       <use x="159.033203" xlink:href="#DejaVuSans-37"/>
       <use x="222.65625" xlink:href="#DejaVuSans-35"/>
      </g>
     </g>
    </g>
    <g id="ytick_23">
     <g id="line2d_61">
      <g>
       <use style="stroke:#000000;stroke-width:0.8;" x="46.33" xlink:href="#m45d21e2564" y="445.18078"/>
      </g>
     </g>
     <g id="text_28">
      <!-- 0.100 -->
      <g transform="translate(10.701875 448.979998)scale(0.1 -0.1)">
       <use xlink:href="#DejaVuSans-30"/>
       <use x="63.623047" xlink:href="#DejaVuSans-2e"/>
       <use x="95.410156" xlink:href="#DejaVuSans-31"/>
       <use x="159.033203" xlink:href="#DejaVuSans-30"/>
       <use x="222.65625" xlink:href="#DejaVuSans-30"/>
      </g>
     </g>
    </g>
    <g id="ytick_24">
     <g id="line2d_62">
      <g>
       <use style="stroke:#000000;stroke-width:0.8;" x="46.33" xlink:href="#m45d21e2564" y="413.348475"/>
      </g>
     </g>
     <g id="text_29">
      <!-- 0.125 -->
      <g transform="translate(10.701875 417.147693)scale(0.1 -0.1)">
       <use xlink:href="#DejaVuSans-30"/>
       <use x="63.623047" xlink:href="#DejaVuSans-2e"/>
       <use x="95.410156" xlink:href="#DejaVuSans-31"/>
       <use x="159.033203" xlink:href="#DejaVuSans-32"/>
       <use x="222.65625" xlink:href="#DejaVuSans-35"/>
      </g>
     </g>
    </g>
    <g id="ytick_25">
     <g id="line2d_63">
      <g>
       <use style="stroke:#000000;stroke-width:0.8;" x="46.33" xlink:href="#m45d21e2564" y="381.51617"/>
      </g>
     </g>
     <g id="text_30">
      <!-- 0.150 -->
      <g transform="translate(10.701875 385.315388)scale(0.1 -0.1)">
       <use xlink:href="#DejaVuSans-30"/>
       <use x="63.623047" xlink:href="#DejaVuSans-2e"/>
       <use x="95.410156" xlink:href="#DejaVuSans-31"/>
       <use x="159.033203" xlink:href="#DejaVuSans-35"/>
       <use x="222.65625" xlink:href="#DejaVuSans-30"/>
      </g>
     </g>
    </g>
    <g id="ytick_26">
     <g id="line2d_64">
      <g>
       <use style="stroke:#000000;stroke-width:0.8;" x="46.33" xlink:href="#m45d21e2564" y="349.683864"/>
      </g>
     </g>
     <g id="text_31">
      <!-- 0.175 -->
      <g transform="translate(10.701875 353.483083)scale(0.1 -0.1)">
       <use xlink:href="#DejaVuSans-30"/>
       <use x="63.623047" xlink:href="#DejaVuSans-2e"/>
       <use x="95.410156" xlink:href="#DejaVuSans-31"/>
       <use x="159.033203" xlink:href="#DejaVuSans-37"/>
       <use x="222.65625" xlink:href="#DejaVuSans-35"/>
      </g>
     </g>
    </g>
    <g id="ytick_27">
     <g id="line2d_65">
      <g>
       <use style="stroke:#000000;stroke-width:0.8;" x="46.33" xlink:href="#m45d21e2564" y="317.851559"/>
      </g>
     </g>
     <g id="text_32">
      <!-- 0.200 -->
      <g transform="translate(10.701875 321.650778)scale(0.1 -0.1)">
       <use xlink:href="#DejaVuSans-30"/>
       <use x="63.623047" xlink:href="#DejaVuSans-2e"/>
       <use x="95.410156" xlink:href="#DejaVuSans-32"/>
       <use x="159.033203" xlink:href="#DejaVuSans-30"/>
       <use x="222.65625" xlink:href="#DejaVuSans-30"/>
      </g>
     </g>
    </g>
   </g>
   <g id="line2d_66">
    <path clip-path="url(#p0ded7d9bbb)" d="M 46.33 456.195557 
L 52.73123 471.646559 
L 59.132459 477.203445 
L 65.533689 490.118063 
L 71.934918 487.971241 
L 78.336148 491.634028 
L 84.737377 474.903997 
L 91.138607 484.465158 
L 97.539836 475.25566 
L 103.941066 488.404945 
L 110.342295 497.848718 
L 116.743525 491.887966 
L 123.144754 501.673761 
L 129.545984 501.416924 
L 135.947213 502.089133 
L 142.348443 503.728473 
L 148.749672 514.912208 
L 155.150902 497.496356 
L 161.552131 486.777222 
L 167.953361 469.658932 
L 174.35459 494.345379 
L 180.75582 519.741143 
L 187.157049 514.28822 
L 193.558279 510.942831 
L 199.959508 505.370992 
L 206.360738 500.82184 
L 212.761967 510.630296 
L 219.163197 483.293443 
L 225.564426 476.717812 
L 231.965656 501.977223 
L 238.366885 470.533277 
L 244.768115 476.462737 
L 251.169344 512.927671 
L 257.570574 533.10795 
L 263.971803 484.758907 
L 270.373033 503.232963 
L 276.774262 479.594541 
L 283.175492 470.267589 
L 289.576721 467.993421 
L 295.977951 486.992162 
L 302.37918 474.276281 
L 308.78041 514.521707 
L 315.181639 492.594851 
L 321.582869 467.530547 
L 327.984098 469.141243 
L 334.385328 489.143405 
L 340.786557 471.430007 
L 347.187787 504.671026 
L 353.589016 453.046652 
L 359.990246 444.684706 
L 366.391475 448.454455 
L 372.792705 454.781825 
L 379.193934 447.779265 
L 385.595164 429.321073 
L 391.996393 414.496328 
L 398.397623 418.212219 
L 404.798852 383.97336 
L 411.200082 422.956797 
L 417.601311 425.716933 
L 424.002541 429.591918 
L 430.40377 447.142481 
L 436.805 392.824953 
" style="fill:none;stroke:#2ca02c;stroke-linecap:square;stroke-width:1.5;"/>
   </g>
   <g id="patch_13">
    <path d="M 46.33 572.51 
L 46.33 314.755 
" style="fill:none;stroke:#000000;stroke-linecap:square;stroke-linejoin:miter;stroke-width:0.8;"/>
   </g>
   <g id="patch_14">
    <path d="M 436.805 572.51 
L 436.805 314.755 
" style="fill:none;stroke:#000000;stroke-linecap:square;stroke-linejoin:miter;stroke-width:0.8;"/>
   </g>
   <g id="patch_15">
    <path d="M 46.33 572.51 
L 436.805 572.51 
" style="fill:none;stroke:#000000;stroke-linecap:square;stroke-linejoin:miter;stroke-width:0.8;"/>
   </g>
   <g id="patch_16">
    <path d="M 46.33 314.755 
L 436.805 314.755 
" style="fill:none;stroke:#000000;stroke-linecap:square;stroke-linejoin:miter;stroke-width:0.8;"/>
   </g>
   <g id="text_33">
    <!-- South -->
    <defs>
     <path d="M 53.515625 70.515625 
L 53.515625 60.890625 
Q 47.90625 63.578125 42.921875 64.890625 
Q 37.9375 66.21875 33.296875 66.21875 
Q 25.25 66.21875 20.875 63.09375 
Q 16.5 59.96875 16.5 54.203125 
Q 16.5 49.359375 19.40625 46.890625 
Q 22.3125 44.4375 30.421875 42.921875 
L 36.375 41.703125 
Q 47.40625 39.59375 52.65625 34.296875 
Q 57.90625 29 57.90625 20.125 
Q 57.90625 9.515625 50.796875 4.046875 
Q 43.703125 -1.421875 29.984375 -1.421875 
Q 24.8125 -1.421875 18.96875 -0.25 
Q 13.140625 0.921875 6.890625 3.21875 
L 6.890625 13.375 
Q 12.890625 10.015625 18.65625 8.296875 
Q 24.421875 6.59375 29.984375 6.59375 
Q 38.421875 6.59375 43.015625 9.90625 
Q 47.609375 13.234375 47.609375 19.390625 
Q 47.609375 24.75 44.3125 27.78125 
Q 41.015625 30.8125 33.5 32.328125 
L 27.484375 33.5 
Q 16.453125 35.6875 11.515625 40.375 
Q 6.59375 45.0625 6.59375 53.421875 
Q 6.59375 63.09375 13.40625 68.65625 
Q 20.21875 74.21875 32.171875 74.21875 
Q 37.3125 74.21875 42.625 73.28125 
Q 47.953125 72.359375 53.515625 70.515625 
z
" id="DejaVuSans-53"/>
     <path d="M 8.5 21.578125 
L 8.5 54.6875 
L 17.484375 54.6875 
L 17.484375 21.921875 
Q 17.484375 14.15625 20.5 10.265625 
Q 23.53125 6.390625 29.59375 6.390625 
Q 36.859375 6.390625 41.078125 11.03125 
Q 45.3125 15.671875 45.3125 23.6875 
L 45.3125 54.6875 
L 54.296875 54.6875 
L 54.296875 0 
L 45.3125 0 
L 45.3125 8.40625 
Q 42.046875 3.421875 37.71875 1 
Q 33.40625 -1.421875 27.6875 -1.421875 
Q 18.265625 -1.421875 13.375 4.4375 
Q 8.5 10.296875 8.5 21.578125 
z
M 31.109375 56 
z
" id="DejaVuSans-75"/>
    </defs>
    <g transform="translate(224.13 308.755)scale(0.12 -0.12)">
     <use xlink:href="#DejaVuSans-53"/>
     <use x="63.476562" xlink:href="#DejaVuSans-6f"/>
     <use x="124.658203" xlink:href="#DejaVuSans-75"/>
     <use x="188.037109" xlink:href="#DejaVuSans-74"/>
     <use x="227.246094" xlink:href="#DejaVuSans-68"/>
    </g>
   </g>
  </g>
  <g id="axes_4">
   <g id="patch_17">
    <path d="M 457.685 572.51 
L 848.16 572.51 
L 848.16 314.755 
L 457.685 314.755 
z
" style="fill:#ffffff;"/>
   </g>
   <g id="PolyCollection_4">
    <defs>
     <path d="M 457.685 -154.993463 
L 457.685 -75.49 
L 464.08623 -75.49 
L 470.487459 -75.49 
L 476.888689 -75.49 
L 483.289918 -75.49 
L 489.691148 -75.49 
L 496.092377 -75.49 
L 502.493607 -75.49 
L 508.894836 -75.49 
L 515.296066 -75.49 
L 521.697295 -75.49 
L 528.098525 -75.49 
L 534.499754 -75.49 
L 540.900984 -75.49 
L 547.302213 -75.49 
L 553.703443 -75.49 
L 560.104672 -75.49 
L 566.505902 -75.49 
L 572.907131 -75.49 
L 579.308361 -75.49 
L 585.70959 -75.49 
L 592.11082 -75.49 
L 598.512049 -75.49 
L 604.913279 -75.49 
L 611.314508 -75.49 
L 617.715738 -75.49 
L 624.116967 -75.49 
L 630.518197 -75.49 
L 636.919426 -75.49 
L 643.320656 -75.49 
L 649.721885 -75.49 
L 656.123115 -75.49 
L 662.524344 -75.49 
L 668.925574 -75.49 
L 675.326803 -75.49 
L 681.728033 -75.49 
L 688.129262 -75.49 
L 694.530492 -75.49 
L 700.931721 -75.49 
L 707.332951 -75.49 
L 713.73418 -75.49 
L 720.13541 -75.49 
L 726.536639 -75.49 
L 732.937869 -75.49 
L 739.339098 -75.49 
L 745.740328 -75.49 
L 752.141557 -75.49 
L 758.542787 -75.49 
L 764.944016 -75.49 
L 771.345246 -75.49 
L 777.746475 -75.49 
L 784.147705 -75.49 
L 790.548934 -75.49 
L 796.950164 -75.49 
L 803.351393 -75.49 
L 809.752623 -75.49 
L 816.153852 -75.49 
L 822.555082 -75.49 
L 828.956311 -75.49 
L 835.357541 -75.49 
L 841.75877 -75.49 
L 848.16 -75.49 
L 848.16 -202.768539 
L 848.16 -202.768539 
L 841.75877 -168.366143 
L 835.357541 -171.342896 
L 828.956311 -174.849278 
L 822.555082 -174.076067 
L 816.153852 -176.134809 
L 809.752623 -167.093009 
L 803.351393 -169.510984 
L 796.950164 -167.543676 
L 790.548934 -164.134745 
L 784.147705 -168.277445 
L 777.746475 -169.169332 
L 771.345246 -174.065508 
L 764.944016 -158.521288 
L 758.542787 -159.911856 
L 752.141557 -147.348377 
L 745.740328 -130.799876 
L 739.339098 -132.998965 
L 732.937869 -149.607392 
L 726.536639 -136.704571 
L 720.13541 -144.506737 
L 713.73418 -155.670013 
L 707.332951 -131.234375 
L 700.931721 -131.641714 
L 694.530492 -140.304696 
L 688.129262 -141.739388 
L 681.728033 -145.392634 
L 675.326803 -131.809455 
L 668.925574 -133.195684 
L 662.524344 -131.265775 
L 656.123115 -121.473775 
L 649.721885 -141.30046 
L 643.320656 -145.912924 
L 636.919426 -142.174389 
L 630.518197 -138.911272 
L 624.116967 -139.549377 
L 617.715738 -125.171685 
L 611.314508 -115.110831 
L 604.913279 -125.147751 
L 598.512049 -128.339695 
L 592.11082 -117.03702 
L 585.70959 -131.579503 
L 579.308361 -138.532505 
L 572.907131 -121.886692 
L 566.505902 -113.075821 
L 560.104672 -122.782548 
L 553.703443 -128.381398 
L 547.302213 -135.381062 
L 540.900984 -127.688713 
L 534.499754 -132.613233 
L 528.098525 -137.737794 
L 521.697295 -118.528353 
L 515.296066 -128.380616 
L 508.894836 -137.930062 
L 502.493607 -146.291375 
L 496.092377 -147.484401 
L 489.691148 -125.796912 
L 483.289918 -209.102984 
L 476.888689 -130.168707 
L 470.487459 -153.909028 
L 464.08623 -146.193519 
L 457.685 -154.993463 
z
" id="ma2aa615d28" style="stroke:#d62728;"/>
    </defs>
    <g clip-path="url(#p86430307e9)">
     <use style="fill:#d62728;stroke:#d62728;" x="0" xlink:href="#ma2aa615d28" y="648"/>
    </g>
   </g>
   <g id="matplotlib.axis_7">
    <g id="xtick_37">
     <g id="line2d_67">
      <g>
       <use style="stroke:#000000;stroke-width:0.8;" x="457.685" xlink:href="#mdd51f90d30" y="572.51"/>
      </g>
     </g>
     <g id="text_34">
      <!-- 2020-05-02 -->
      <g transform="translate(460.444375 637.625625)rotate(-90)scale(0.1 -0.1)">
       <use xlink:href="#DejaVuSans-32"/>
       <use x="63.623047" xlink:href="#DejaVuSans-30"/>
       <use x="127.246094" xlink:href="#DejaVuSans-32"/>
       <use x="190.869141" xlink:href="#DejaVuSans-30"/>
       <use x="254.492188" xlink:href="#DejaVuSans-2d"/>
       <use x="290.576172" xlink:href="#DejaVuSans-30"/>
       <use x="354.199219" xlink:href="#DejaVuSans-35"/>
       <use x="417.822266" xlink:href="#DejaVuSans-2d"/>
       <use x="453.90625" xlink:href="#DejaVuSans-30"/>
       <use x="517.529297" xlink:href="#DejaVuSans-32"/>
      </g>
     </g>
    </g>
    <g id="xtick_38">
     <g id="line2d_68">
      <g>
       <use style="stroke:#000000;stroke-width:0.8;" x="493.182727" xlink:href="#mdd51f90d30" y="572.51"/>
      </g>
     </g>
     <g id="text_35">
      <!-- 2020-05-07 -->
      <g transform="translate(495.942102 637.625625)rotate(-90)scale(0.1 -0.1)">
       <use xlink:href="#DejaVuSans-32"/>
       <use x="63.623047" xlink:href="#DejaVuSans-30"/>
       <use x="127.246094" xlink:href="#DejaVuSans-32"/>
       <use x="190.869141" xlink:href="#DejaVuSans-30"/>
       <use x="254.492188" xlink:href="#DejaVuSans-2d"/>
       <use x="290.576172" xlink:href="#DejaVuSans-30"/>
       <use x="354.199219" xlink:href="#DejaVuSans-35"/>
       <use x="417.822266" xlink:href="#DejaVuSans-2d"/>
       <use x="453.90625" xlink:href="#DejaVuSans-30"/>
       <use x="517.529297" xlink:href="#DejaVuSans-37"/>
      </g>
     </g>
    </g>
    <g id="xtick_39">
     <g id="line2d_69">
      <g>
       <use style="stroke:#000000;stroke-width:0.8;" x="528.680455" xlink:href="#mdd51f90d30" y="572.51"/>
      </g>
     </g>
     <g id="text_36">
      <!-- 2020-05-13 -->
      <g transform="translate(531.43983 637.625625)rotate(-90)scale(0.1 -0.1)">
       <use xlink:href="#DejaVuSans-32"/>
       <use x="63.623047" xlink:href="#DejaVuSans-30"/>
       <use x="127.246094" xlink:href="#DejaVuSans-32"/>
       <use x="190.869141" xlink:href="#DejaVuSans-30"/>
       <use x="254.492188" xlink:href="#DejaVuSans-2d"/>
       <use x="290.576172" xlink:href="#DejaVuSans-30"/>
       <use x="354.199219" xlink:href="#DejaVuSans-35"/>
       <use x="417.822266" xlink:href="#DejaVuSans-2d"/>
       <use x="453.90625" xlink:href="#DejaVuSans-31"/>
       <use x="517.529297" xlink:href="#DejaVuSans-33"/>
      </g>
     </g>
    </g>
    <g id="xtick_40">
     <g id="line2d_70">
      <g>
       <use style="stroke:#000000;stroke-width:0.8;" x="564.178182" xlink:href="#mdd51f90d30" y="572.51"/>
      </g>
     </g>
     <g id="text_37">
      <!-- 2020-05-18 -->
      <g transform="translate(566.937557 637.625625)rotate(-90)scale(0.1 -0.1)">
       <use xlink:href="#DejaVuSans-32"/>
       <use x="63.623047" xlink:href="#DejaVuSans-30"/>
       <use x="127.246094" xlink:href="#DejaVuSans-32"/>
       <use x="190.869141" xlink:href="#DejaVuSans-30"/>
       <use x="254.492188" xlink:href="#DejaVuSans-2d"/>
       <use x="290.576172" xlink:href="#DejaVuSans-30"/>
       <use x="354.199219" xlink:href="#DejaVuSans-35"/>
       <use x="417.822266" xlink:href="#DejaVuSans-2d"/>
       <use x="453.90625" xlink:href="#DejaVuSans-31"/>
       <use x="517.529297" xlink:href="#DejaVuSans-38"/>
      </g>
     </g>
    </g>
    <g id="xtick_41">
     <g id="line2d_71">
      <g>
       <use style="stroke:#000000;stroke-width:0.8;" x="599.675909" xlink:href="#mdd51f90d30" y="572.51"/>
      </g>
     </g>
     <g id="text_38">
      <!-- 2020-05-24 -->
      <g transform="translate(602.435284 637.625625)rotate(-90)scale(0.1 -0.1)">
       <use xlink:href="#DejaVuSans-32"/>
       <use x="63.623047" xlink:href="#DejaVuSans-30"/>
       <use x="127.246094" xlink:href="#DejaVuSans-32"/>
       <use x="190.869141" xlink:href="#DejaVuSans-30"/>
       <use x="254.492188" xlink:href="#DejaVuSans-2d"/>
       <use x="290.576172" xlink:href="#DejaVuSans-30"/>
       <use x="354.199219" xlink:href="#DejaVuSans-35"/>
       <use x="417.822266" xlink:href="#DejaVuSans-2d"/>
       <use x="453.90625" xlink:href="#DejaVuSans-32"/>
       <use x="517.529297" xlink:href="#DejaVuSans-34"/>
      </g>
     </g>
    </g>
    <g id="xtick_42">
     <g id="line2d_72">
      <g>
       <use style="stroke:#000000;stroke-width:0.8;" x="635.173636" xlink:href="#mdd51f90d30" y="572.51"/>
      </g>
     </g>
     <g id="text_39">
      <!-- 2020-05-29 -->
      <g transform="translate(637.933011 637.625625)rotate(-90)scale(0.1 -0.1)">
       <use xlink:href="#DejaVuSans-32"/>
       <use x="63.623047" xlink:href="#DejaVuSans-30"/>
       <use x="127.246094" xlink:href="#DejaVuSans-32"/>
       <use x="190.869141" xlink:href="#DejaVuSans-30"/>
       <use x="254.492188" xlink:href="#DejaVuSans-2d"/>
       <use x="290.576172" xlink:href="#DejaVuSans-30"/>
       <use x="354.199219" xlink:href="#DejaVuSans-35"/>
       <use x="417.822266" xlink:href="#DejaVuSans-2d"/>
       <use x="453.90625" xlink:href="#DejaVuSans-32"/>
       <use x="517.529297" xlink:href="#DejaVuSans-39"/>
      </g>
     </g>
    </g>
    <g id="xtick_43">
     <g id="line2d_73">
      <g>
       <use style="stroke:#000000;stroke-width:0.8;" x="670.671364" xlink:href="#mdd51f90d30" y="572.51"/>
      </g>
     </g>
     <g id="text_40">
      <!-- 2020-06-04 -->
      <g transform="translate(673.430739 637.625625)rotate(-90)scale(0.1 -0.1)">
       <use xlink:href="#DejaVuSans-32"/>
       <use x="63.623047" xlink:href="#DejaVuSans-30"/>
       <use x="127.246094" xlink:href="#DejaVuSans-32"/>
       <use x="190.869141" xlink:href="#DejaVuSans-30"/>
       <use x="254.492188" xlink:href="#DejaVuSans-2d"/>
       <use x="290.576172" xlink:href="#DejaVuSans-30"/>
       <use x="354.199219" xlink:href="#DejaVuSans-36"/>
       <use x="417.822266" xlink:href="#DejaVuSans-2d"/>
       <use x="453.90625" xlink:href="#DejaVuSans-30"/>
       <use x="517.529297" xlink:href="#DejaVuSans-34"/>
      </g>
     </g>
    </g>
    <g id="xtick_44">
     <g id="line2d_74">
      <g>
       <use style="stroke:#000000;stroke-width:0.8;" x="706.169091" xlink:href="#mdd51f90d30" y="572.51"/>
      </g>
     </g>
     <g id="text_41">
      <!-- 2020-06-09 -->
      <g transform="translate(708.928466 637.625625)rotate(-90)scale(0.1 -0.1)">
       <use xlink:href="#DejaVuSans-32"/>
       <use x="63.623047" xlink:href="#DejaVuSans-30"/>
       <use x="127.246094" xlink:href="#DejaVuSans-32"/>
       <use x="190.869141" xlink:href="#DejaVuSans-30"/>
       <use x="254.492188" xlink:href="#DejaVuSans-2d"/>
       <use x="290.576172" xlink:href="#DejaVuSans-30"/>
       <use x="354.199219" xlink:href="#DejaVuSans-36"/>
       <use x="417.822266" xlink:href="#DejaVuSans-2d"/>
       <use x="453.90625" xlink:href="#DejaVuSans-30"/>
       <use x="517.529297" xlink:href="#DejaVuSans-39"/>
      </g>
     </g>
    </g>
    <g id="xtick_45">
     <g id="line2d_75">
      <g>
       <use style="stroke:#000000;stroke-width:0.8;" x="741.666818" xlink:href="#mdd51f90d30" y="572.51"/>
      </g>
     </g>
     <g id="text_42">
      <!-- 2020-06-15 -->
      <g transform="translate(744.426193 637.625625)rotate(-90)scale(0.1 -0.1)">
       <use xlink:href="#DejaVuSans-32"/>
       <use x="63.623047" xlink:href="#DejaVuSans-30"/>
       <use x="127.246094" xlink:href="#DejaVuSans-32"/>
       <use x="190.869141" xlink:href="#DejaVuSans-30"/>
       <use x="254.492188" xlink:href="#DejaVuSans-2d"/>
       <use x="290.576172" xlink:href="#DejaVuSans-30"/>
       <use x="354.199219" xlink:href="#DejaVuSans-36"/>
       <use x="417.822266" xlink:href="#DejaVuSans-2d"/>
       <use x="453.90625" xlink:href="#DejaVuSans-31"/>
       <use x="517.529297" xlink:href="#DejaVuSans-35"/>
      </g>
     </g>
    </g>
    <g id="xtick_46">
     <g id="line2d_76">
      <g>
       <use style="stroke:#000000;stroke-width:0.8;" x="777.164545" xlink:href="#mdd51f90d30" y="572.51"/>
      </g>
     </g>
     <g id="text_43">
      <!-- 2020-06-20 -->
      <g transform="translate(779.92392 637.625625)rotate(-90)scale(0.1 -0.1)">
       <use xlink:href="#DejaVuSans-32"/>
       <use x="63.623047" xlink:href="#DejaVuSans-30"/>
       <use x="127.246094" xlink:href="#DejaVuSans-32"/>
       <use x="190.869141" xlink:href="#DejaVuSans-30"/>
       <use x="254.492188" xlink:href="#DejaVuSans-2d"/>
       <use x="290.576172" xlink:href="#DejaVuSans-30"/>
       <use x="354.199219" xlink:href="#DejaVuSans-36"/>
       <use x="417.822266" xlink:href="#DejaVuSans-2d"/>
       <use x="453.90625" xlink:href="#DejaVuSans-32"/>
       <use x="517.529297" xlink:href="#DejaVuSans-30"/>
      </g>
     </g>
    </g>
    <g id="xtick_47">
     <g id="line2d_77">
      <g>
       <use style="stroke:#000000;stroke-width:0.8;" x="812.662273" xlink:href="#mdd51f90d30" y="572.51"/>
      </g>
     </g>
     <g id="text_44">
      <!-- 2020-06-26 -->
      <g transform="translate(815.421648 637.625625)rotate(-90)scale(0.1 -0.1)">
       <use xlink:href="#DejaVuSans-32"/>
       <use x="63.623047" xlink:href="#DejaVuSans-30"/>
       <use x="127.246094" xlink:href="#DejaVuSans-32"/>
       <use x="190.869141" xlink:href="#DejaVuSans-30"/>
       <use x="254.492188" xlink:href="#DejaVuSans-2d"/>
       <use x="290.576172" xlink:href="#DejaVuSans-30"/>
       <use x="354.199219" xlink:href="#DejaVuSans-36"/>
       <use x="417.822266" xlink:href="#DejaVuSans-2d"/>
       <use x="453.90625" xlink:href="#DejaVuSans-32"/>
       <use x="517.529297" xlink:href="#DejaVuSans-36"/>
      </g>
     </g>
    </g>
    <g id="xtick_48">
     <g id="line2d_78">
      <g>
       <use style="stroke:#000000;stroke-width:0.8;" x="848.16" xlink:href="#mdd51f90d30" y="572.51"/>
      </g>
     </g>
     <g id="text_45">
      <!-- 2020-07-02 -->
      <g transform="translate(850.919375 637.625625)rotate(-90)scale(0.1 -0.1)">
       <use xlink:href="#DejaVuSans-32"/>
       <use x="63.623047" xlink:href="#DejaVuSans-30"/>
       <use x="127.246094" xlink:href="#DejaVuSans-32"/>
       <use x="190.869141" xlink:href="#DejaVuSans-30"/>
       <use x="254.492188" xlink:href="#DejaVuSans-2d"/>
       <use x="290.576172" xlink:href="#DejaVuSans-30"/>
       <use x="354.199219" xlink:href="#DejaVuSans-37"/>
       <use x="417.822266" xlink:href="#DejaVuSans-2d"/>
       <use x="453.90625" xlink:href="#DejaVuSans-30"/>
       <use x="517.529297" xlink:href="#DejaVuSans-32"/>
      </g>
     </g>
    </g>
   </g>
   <g id="matplotlib.axis_8">
    <g id="ytick_28">
     <g id="line2d_79">
      <g>
       <use style="stroke:#000000;stroke-width:0.8;" x="457.685" xlink:href="#m45d21e2564" y="572.51"/>
      </g>
     </g>
    </g>
    <g id="ytick_29">
     <g id="line2d_80">
      <g>
       <use style="stroke:#000000;stroke-width:0.8;" x="457.685" xlink:href="#m45d21e2564" y="540.677695"/>
      </g>
     </g>
    </g>
    <g id="ytick_30">
     <g id="line2d_81">
      <g>
       <use style="stroke:#000000;stroke-width:0.8;" x="457.685" xlink:href="#m45d21e2564" y="508.84539"/>
      </g>
     </g>
    </g>
    <g id="ytick_31">
     <g id="line2d_82">
      <g>
       <use style="stroke:#000000;stroke-width:0.8;" x="457.685" xlink:href="#m45d21e2564" y="477.013085"/>
      </g>
     </g>
    </g>
    <g id="ytick_32">
     <g id="line2d_83">
      <g>
       <use style="stroke:#000000;stroke-width:0.8;" x="457.685" xlink:href="#m45d21e2564" y="445.18078"/>
      </g>
     </g>
    </g>
    <g id="ytick_33">
     <g id="line2d_84">
      <g>
       <use style="stroke:#000000;stroke-width:0.8;" x="457.685" xlink:href="#m45d21e2564" y="413.348475"/>
      </g>
     </g>
    </g>
    <g id="ytick_34">
     <g id="line2d_85">
      <g>
       <use style="stroke:#000000;stroke-width:0.8;" x="457.685" xlink:href="#m45d21e2564" y="381.51617"/>
      </g>
     </g>
    </g>
    <g id="ytick_35">
     <g id="line2d_86">
      <g>
       <use style="stroke:#000000;stroke-width:0.8;" x="457.685" xlink:href="#m45d21e2564" y="349.683864"/>
      </g>
     </g>
    </g>
    <g id="ytick_36">
     <g id="line2d_87">
      <g>
       <use style="stroke:#000000;stroke-width:0.8;" x="457.685" xlink:href="#m45d21e2564" y="317.851559"/>
      </g>
     </g>
    </g>
   </g>
   <g id="line2d_88">
    <path clip-path="url(#p86430307e9)" d="M 457.685 493.006537 
L 464.08623 501.806481 
L 470.487459 494.090972 
L 476.888689 517.831293 
L 483.289918 438.897016 
L 489.691148 522.203088 
L 496.092377 500.515599 
L 502.493607 501.708625 
L 508.894836 510.069938 
L 515.296066 519.619384 
L 521.697295 529.471647 
L 528.098525 510.262206 
L 534.499754 515.386767 
L 540.900984 520.311287 
L 547.302213 512.618938 
L 553.703443 519.618602 
L 560.104672 525.217452 
L 566.505902 534.924179 
L 572.907131 526.113308 
L 579.308361 509.467495 
L 585.70959 516.420497 
L 592.11082 530.96298 
L 598.512049 519.660305 
L 604.913279 522.852249 
L 611.314508 532.889169 
L 617.715738 522.828315 
L 624.116967 508.450623 
L 630.518197 509.088728 
L 636.919426 505.825611 
L 643.320656 502.087076 
L 649.721885 506.69954 
L 656.123115 526.526225 
L 662.524344 516.734225 
L 668.925574 514.804316 
L 675.326803 516.190545 
L 681.728033 502.607366 
L 688.129262 506.260612 
L 694.530492 507.695304 
L 700.931721 516.358286 
L 707.332951 516.765625 
L 713.73418 492.329987 
L 720.13541 503.493263 
L 726.536639 511.295429 
L 732.937869 498.392608 
L 739.339098 515.001035 
L 745.740328 517.200124 
L 752.141557 500.651623 
L 758.542787 488.088144 
L 764.944016 489.478712 
L 771.345246 473.934492 
L 777.746475 478.830668 
L 784.147705 479.722555 
L 790.548934 483.865255 
L 796.950164 480.456324 
L 803.351393 478.489016 
L 809.752623 480.906991 
L 816.153852 471.865191 
L 822.555082 473.923933 
L 828.956311 473.150722 
L 835.357541 476.657104 
L 841.75877 479.633857 
L 848.16 445.231461 
" style="fill:none;stroke:#d62728;stroke-linecap:square;stroke-width:1.5;"/>
   </g>
   <g id="patch_18">
    <path d="M 457.685 572.51 
L 457.685 314.755 
" style="fill:none;stroke:#000000;stroke-linecap:square;stroke-linejoin:miter;stroke-width:0.8;"/>
   </g>
   <g id="patch_19">
    <path d="M 848.16 572.51 
L 848.16 314.755 
" style="fill:none;stroke:#000000;stroke-linecap:square;stroke-linejoin:miter;stroke-width:0.8;"/>
   </g>
   <g id="patch_20">
    <path d="M 457.685 572.51 
L 848.16 572.51 
" style="fill:none;stroke:#000000;stroke-linecap:square;stroke-linejoin:miter;stroke-width:0.8;"/>
   </g>
   <g id="patch_21">
    <path d="M 457.685 314.755 
L 848.16 314.755 
" style="fill:none;stroke:#000000;stroke-linecap:square;stroke-linejoin:miter;stroke-width:0.8;"/>
   </g>
   <g id="text_46">
    <!-- West -->
    <defs>
     <path d="M 3.328125 72.90625 
L 13.28125 72.90625 
L 28.609375 11.28125 
L 43.890625 72.90625 
L 54.984375 72.90625 
L 70.3125 11.28125 
L 85.59375 72.90625 
L 95.609375 72.90625 
L 77.296875 0 
L 64.890625 0 
L 49.515625 63.28125 
L 33.984375 0 
L 21.578125 0 
z
" id="DejaVuSans-57"/>
    </defs>
    <g transform="translate(637.825 308.755)scale(0.12 -0.12)">
     <use xlink:href="#DejaVuSans-57"/>
     <use x="98.798828" xlink:href="#DejaVuSans-65"/>
     <use x="160.322266" xlink:href="#DejaVuSans-73"/>
     <use x="212.421875" xlink:href="#DejaVuSans-74"/>
    </g>
   </g>
  </g>
 </g>
 <defs>
  <clipPath id="pe6e1aa1646">
   <rect height="257.755" width="390.475" x="46.33" y="25.44"/>
  </clipPath>
  <clipPath id="pc9b9645033">
   <rect height="257.755" width="390.475" x="457.685" y="25.44"/>
  </clipPath>
  <clipPath id="p0ded7d9bbb">
   <rect height="257.755" width="390.475" x="46.33" y="314.755"/>
  </clipPath>
  <clipPath id="p86430307e9">
   <rect height="257.755" width="390.475" x="457.685" y="314.755"/>
  </clipPath>
 </defs>
</svg>
